//Event file generated from Sappy .s format.
	#include "MPlayDef.event"

	#define	song01E9_grp  voicegroup000
	#define	song01E9_pri  0
	#define	song01E9_rev  0
	#define	song01E9_mvl  127
	#define	song01E9_key  0
	#define	song01E9_tbs  1
	#define	song01E9_exg  0
	#define	song01E9_cmp  1

	// .rodata
	//	song01E9
	ALIGN 4


//**************** Track 1 (Midi-Chn.0) ****************//

song01E9_001:
// 000   ----------------------------------------
 BYTE   KEYSH   song01E9_key+0
 BYTE   TEMPO   224*song01E9_tbs/2
 BYTE   VOICE   40
 BYTE   VOL   40*song01E9_mvl/mxv
 BYTE   W48
 BYTE   N06  Cn5  v096
 BYTE   W06
 BYTE   Dn5
 BYTE   W06
 BYTE   Ds5
 BYTE   W06
 BYTE   Fn5
 BYTE   W06
 BYTE   N12  Gn5
 BYTE   W12
 BYTE   Gn4
 BYTE   W12
// 001   ----------------------------------------
Label_0_01E89E6C:
 BYTE   N12  Gn4  v096
 BYTE   W12
 BYTE   Gs4
 BYTE   W12
 BYTE   Gn4
 BYTE   W12
 BYTE   Fn4
 BYTE   W12
 BYTE   Gn4
 BYTE   W12
 BYTE   Dn5
 BYTE   W12
 BYTE   N12
 BYTE   W12
 BYTE   Ds5
 BYTE   W12
 BYTE   PEND 
// 002   ----------------------------------------
Label_0_01E89E7F:
 BYTE   N12  Dn5  v096
 BYTE   W12
 BYTE   Cn5
 BYTE   W12
 BYTE   Dn5
 BYTE   W12
 BYTE   Ds5
 BYTE   W12
 BYTE   Dn5
 BYTE   W12
 BYTE   Cn5
 BYTE   W12
 BYTE   As4
 BYTE   W12
 BYTE   Gs4
 BYTE   W12
 BYTE   PEND 
// 003   ----------------------------------------
 BYTE   Gn4
 BYTE   W12
 BYTE   Gs4
 BYTE   W12
 BYTE   As4
 BYTE   W12
 BYTE   Gs4
 BYTE   W12
 BYTE   Gn4
 BYTE   W12
 BYTE   Fn4
 BYTE   W12
 BYTE   Gn5
 BYTE   W12
 BYTE   Gn4
 BYTE   W12
// 004   ----------------------------------------
 BYTE   PATT
  POIN2 Label_0_01E89E6C
// 005   ----------------------------------------
 BYTE   PATT
  POIN2 Label_0_01E89E7F
// 006   ----------------------------------------
 BYTE   N12  Gn4  v096
 BYTE   W12
 BYTE   Gs4
 BYTE   W12
 BYTE   As4
 BYTE   W12
 BYTE   Gs4
 BYTE   W12
 BYTE   Gn4
 BYTE   W12
 BYTE   Fn4
 BYTE   W12
 BYTE   Gn4
 BYTE   W12
 BYTE   Cn4
 BYTE   W12
// 007   ----------------------------------------
 BYTE   Dn4
 BYTE   W12
 BYTE   Gn4
 BYTE   W12
 BYTE   Cn4
 BYTE   W12
 BYTE   Dn4
 BYTE   W12
 BYTE   Gn4
 BYTE   W12
 BYTE   Cn4
 BYTE   W12
 BYTE   Dn4
 BYTE   W12
 BYTE   Gn4
 BYTE   W12
// 008   ----------------------------------------
 BYTE   Cn4
 BYTE   W12
 BYTE   Dn4
 BYTE   W12
 BYTE   Gn4
 BYTE   W12
 BYTE   Cn4
 BYTE   W12
 BYTE   Dn4
 BYTE   W12
 BYTE   Gn4
 BYTE   W12
 BYTE   Cn4
 BYTE   W12
 BYTE   Dn4
 BYTE   W12
// 009   ----------------------------------------
 BYTE   Gn4
 BYTE   W12
 BYTE   Cn4
 BYTE   W12
 BYTE   Dn4
 BYTE   W12
 BYTE   Gn4
 BYTE   W12
 BYTE   Cn4
 BYTE   W12
 BYTE   Dn4
 BYTE   W12
 BYTE   Gs4
 BYTE   W12
 BYTE   Cn4
 BYTE   W12
// 010   ----------------------------------------
 BYTE   Dn4
 BYTE   W12
 BYTE   Gs4
 BYTE   W12
 BYTE   Cn4
 BYTE   W12
 BYTE   Dn4
 BYTE   W12
 BYTE   Gs4
 BYTE   W12
 BYTE   Cn4
 BYTE   W12
 BYTE   Dn4
 BYTE   W12
 BYTE   Gs4
 BYTE   W12
// 011   ----------------------------------------
 BYTE   Cn4
 BYTE   W12
 BYTE   Dn4
 BYTE   W12
 BYTE   As4
 BYTE   W12
 BYTE   Cn4
 BYTE   W12
 BYTE   Dn4
 BYTE   W12
 BYTE   As4
 BYTE   W12
 BYTE   Cn4
 BYTE   W12
 BYTE   Dn4
 BYTE   W12
// 012   ----------------------------------------
 BYTE   As4
 BYTE   W12
 BYTE   Cn4
 BYTE   W12
 BYTE   Dn4
 BYTE   W12
 BYTE   As4
 BYTE   W12
 BYTE   Cn4
 BYTE   W12
 BYTE   Dn4
 BYTE   W36
// 013   ----------------------------------------
Label_0_01E89F1A:
 BYTE   W96
// 014   ----------------------------------------
 BYTE   W96
// 015   ----------------------------------------
 BYTE   W96
// 016   ----------------------------------------
 BYTE   W96
// 017   ----------------------------------------
 BYTE   W96
// 018   ----------------------------------------
 BYTE   W96
// 019   ----------------------------------------
 BYTE   W96
// 020   ----------------------------------------
 BYTE   W96
// 021   ----------------------------------------
 BYTE   W96
// 022   ----------------------------------------
 BYTE   W96
// 023   ----------------------------------------
 BYTE   W96
// 024   ----------------------------------------
Label_0_01E89F25:
 BYTE   W72
 BYTE   N12  Ds5  v096
 BYTE   W12
 BYTE   Dn5
 BYTE   W12
 BYTE   PEND 
// 025   ----------------------------------------
Label_0_01E89F2D:
 BYTE   N12  Cn5  v096
 BYTE   W12
 BYTE   Gn4
 BYTE   W12
 BYTE   Cn5
 BYTE   W12
 BYTE   Dn5
 BYTE   W12
 BYTE   Ds5
 BYTE   W12
 BYTE   Dn5
 BYTE   W12
 BYTE   Cn5
 BYTE   W12
 BYTE   Gn4
 BYTE   W12
 BYTE   PEND 
// 026   ----------------------------------------
Label_0_01E89F40:
 BYTE   N12  Dn5  v096
 BYTE   W12
 BYTE   Ds5
 BYTE   W12
 BYTE   Fn5
 BYTE   W12
 BYTE   Ds5
 BYTE   W12
 BYTE   Dn5
 BYTE   W12
 BYTE   Cn5
 BYTE   W12
 BYTE   Dn5
 BYTE   W12
 BYTE   Ds5
 BYTE   W12
 BYTE   PEND 
// 027   ----------------------------------------
Label_0_01E89F53:
 BYTE   N12  Fn5  v096
 BYTE   W12
 BYTE   Ds5
 BYTE   W12
 BYTE   Dn5
 BYTE   W12
 BYTE   Cn5
 BYTE   W12
 BYTE   Dn5
 BYTE   W12
 BYTE   Ds5
 BYTE   W12
 BYTE   Dn5
 BYTE   W12
 BYTE   Cn5
 BYTE   W12
 BYTE   PEND 
// 028   ----------------------------------------
Label_0_01E89F66:
 BYTE   N12  Bn4  v096
 BYTE   W12
 BYTE   Gn4
 BYTE   W12
 BYTE   Bn4
 BYTE   W12
 BYTE   Cn5
 BYTE   W12
 BYTE   Dn5
 BYTE   W12
 BYTE   Cn5
 BYTE   W12
 BYTE   Bn4
 BYTE   W12
 BYTE   Gn4
 BYTE   W12
 BYTE   PEND 
// 029   ----------------------------------------
Label_0_01E89F79:
 BYTE   N12  Cn5  v096
 BYTE   W12
 BYTE   Dn5
 BYTE   W12
 BYTE   Ds5
 BYTE   W12
 BYTE   Dn5
 BYTE   W12
 BYTE   Cn5
 BYTE   W12
 BYTE   Gn4
 BYTE   W12
 BYTE   Cn5
 BYTE   W12
 BYTE   Dn5
 BYTE   W12
 BYTE   PEND 
// 030   ----------------------------------------
Label_0_01E89F8C:
 BYTE   N12  Ds5  v096
 BYTE   W12
 BYTE   Dn5
 BYTE   W12
 BYTE   Cn5
 BYTE   W12
 BYTE   Gn4
 BYTE   W12
 BYTE   Cn5
 BYTE   W12
 BYTE   Dn5
 BYTE   W12
 BYTE   Ds5
 BYTE   W12
 BYTE   Dn5
 BYTE   W12
 BYTE   PEND 
// 031   ----------------------------------------
 BYTE   PATT
  POIN2 Label_0_01E89F2D
// 032   ----------------------------------------
 BYTE   PATT
  POIN2 Label_0_01E89F40
// 033   ----------------------------------------
 BYTE   N12  Fn5  v096
 BYTE   W12
 BYTE   Ds5
 BYTE   W12
 BYTE   Dn5
 BYTE   W12
 BYTE   Cn5
 BYTE   W12
 BYTE   N02  Dn5
 BYTE   W02
 BYTE   N09
 BYTE   W10
 BYTE   N12  Ds5
 BYTE   W12
 BYTE   Dn5
 BYTE   W12
 BYTE   Cn5
 BYTE   W12
// 034   ----------------------------------------
 BYTE   PATT
  POIN2 Label_0_01E89F66
// 035   ----------------------------------------
 BYTE   PATT
  POIN2 Label_0_01E89F79
// 036   ----------------------------------------
 BYTE   N12  Ds5  v096
 BYTE   W12
 BYTE   Dn5
 BYTE   W12
 BYTE   Cn5
 BYTE   W12
 BYTE   Gn4
 BYTE   W12
 BYTE   Cn5
 BYTE   W12
 BYTE   Dn5
 BYTE   W36
// 037   ----------------------------------------
 BYTE   W96
// 038   ----------------------------------------
 BYTE   W96
// 039   ----------------------------------------
 BYTE   W96
// 040   ----------------------------------------
 BYTE   W96
// 041   ----------------------------------------
 BYTE   W96
// 042   ----------------------------------------
 BYTE   W96
// 043   ----------------------------------------
 BYTE   W96
// 044   ----------------------------------------
 BYTE   W96
// 045   ----------------------------------------
 BYTE   W96
// 046   ----------------------------------------
 BYTE   W96
// 047   ----------------------------------------
 BYTE   W96
// 048   ----------------------------------------
 BYTE   PATT
  POIN2 Label_0_01E89F25
// 049   ----------------------------------------
 BYTE   PATT
  POIN2 Label_0_01E89F2D
// 050   ----------------------------------------
 BYTE   PATT
  POIN2 Label_0_01E89F40
// 051   ----------------------------------------
 BYTE   PATT
  POIN2 Label_0_01E89F53
// 052   ----------------------------------------
 BYTE   PATT
  POIN2 Label_0_01E89F66
// 053   ----------------------------------------
 BYTE   PATT
  POIN2 Label_0_01E89F79
// 054   ----------------------------------------
 BYTE   PATT
  POIN2 Label_0_01E89F8C
// 055   ----------------------------------------
 BYTE   PATT
  POIN2 Label_0_01E89F2D
// 056   ----------------------------------------
 BYTE   PATT
  POIN2 Label_0_01E89F40
// 057   ----------------------------------------
 BYTE   PATT
  POIN2 Label_0_01E89F53
// 058   ----------------------------------------
 BYTE   PATT
  POIN2 Label_0_01E89F66
// 059   ----------------------------------------
 BYTE   PATT
  POIN2 Label_0_01E89F79
// 060   ----------------------------------------
 BYTE   N12  Ds5  v096
 BYTE   W12
 BYTE   Dn5
 BYTE   W12
 BYTE   Cn5
 BYTE   W12
 BYTE   Gn4
 BYTE   W12
 BYTE   Cn5
 BYTE   W12
 BYTE   Dn5
 BYTE   W12
 BYTE   Gn2  v108
 BYTE   W12
 BYTE   Fs2
 BYTE   W12
// 061   ----------------------------------------
 BYTE   Gn2
 BYTE   W12
 BYTE   Fn2
 BYTE   W12
 BYTE   Fs2
 BYTE   W12
 BYTE   Gn2
 BYTE   W12
 BYTE   Gs2
 BYTE   W12
 BYTE   Gn2
 BYTE   W12
 BYTE   Gs2
 BYTE   W12
 BYTE   Fn2
 BYTE   W12
// 062   ----------------------------------------
 BYTE   Gn2
 BYTE   W12
 BYTE   Gs2
 BYTE   W12
 BYTE   An2
 BYTE   W12
 BYTE   Gs2
 BYTE   W12
 BYTE   An2
 BYTE   W12
 BYTE   Fs2
 BYTE   W12
 BYTE   Gn2
 BYTE   W12
 BYTE   An2
 BYTE   W12
// 063   ----------------------------------------
 BYTE   As2
 BYTE   W12
 BYTE   An2
 BYTE   W12
 BYTE   As2
 BYTE   W12
 BYTE   Gn2
 BYTE   W12
 BYTE   An2
 BYTE   W12
 BYTE   As2
 BYTE   W12
 BYTE   N24  Gn3  v127
 BYTE   W24
// 064   ----------------------------------------
 BYTE   W12
 BYTE   N24
 BYTE   W24
 BYTE   N12
 BYTE   W12
 BYTE   N24
 BYTE   W24
 BYTE   N24
 BYTE   W24
// 065   ----------------------------------------
 BYTE   W24
 BYTE   Gs3
 BYTE   N24  Dn4
 BYTE   W24
 BYTE   Gs3
 BYTE   N24  Dn4
 BYTE   W24
 BYTE   Gs3
 BYTE   N24  Dn4
 BYTE   W24
// 066   ----------------------------------------
 BYTE   Gs3
 BYTE   N24  Dn4
 BYTE   W24
 BYTE   Gs3
 BYTE   N24  Dn4
 BYTE   W24
 BYTE   Gs3
 BYTE   N24  Dn4
 BYTE   W48
// 067   ----------------------------------------
 BYTE   W96
// 068   ----------------------------------------
 BYTE   W96
// 069   ----------------------------------------
 BYTE   W96
// 070   ----------------------------------------
 BYTE   W96
// 071   ----------------------------------------
 BYTE   W96
// 072   ----------------------------------------
 BYTE   W96
// 073   ----------------------------------------
 BYTE   W96
// 074   ----------------------------------------
 BYTE   W96
// 075   ----------------------------------------
 BYTE   W96
// 076   ----------------------------------------
 BYTE   W96
// 077   ----------------------------------------
 BYTE   W96
// 078   ----------------------------------------
 BYTE   W96
// 079   ----------------------------------------
Label_0_01E8A08F:
 BYTE   W48
 BYTE   N12  Ds5  v096
 BYTE   W12
 BYTE   Dn5
 BYTE   W12
 BYTE   Cn5
 BYTE   W12
 BYTE   Gn4
 BYTE   W12
 BYTE   PEND 
// 080   ----------------------------------------
Label_0_01E8A09B:
 BYTE   N12  Cn5  v096
 BYTE   W12
 BYTE   Dn5
 BYTE   W12
 BYTE   Ds5
 BYTE   W12
 BYTE   Dn5
 BYTE   W12
 BYTE   Cn5
 BYTE   W12
 BYTE   Gn4
 BYTE   W12
 BYTE   Dn5
 BYTE   W12
 BYTE   Ds5
 BYTE   W12
 BYTE   PEND 
// 081   ----------------------------------------
Label_0_01E8A0AE:
 BYTE   N12  Fn5  v096
 BYTE   W12
 BYTE   Ds5
 BYTE   W12
 BYTE   Dn5
 BYTE   W12
 BYTE   Cn5
 BYTE   W12
 BYTE   Dn5
 BYTE   W12
 BYTE   Ds5
 BYTE   W12
 BYTE   Fn5
 BYTE   W12
 BYTE   Ds5
 BYTE   W12
 BYTE   PEND 
// 082   ----------------------------------------
Label_0_01E8A0C1:
 BYTE   N12  Dn5  v096
 BYTE   W12
 BYTE   Cn5
 BYTE   W12
 BYTE   Dn5
 BYTE   W12
 BYTE   Ds5
 BYTE   W12
 BYTE   Dn5
 BYTE   W12
 BYTE   Cn5
 BYTE   W12
 BYTE   Bn4
 BYTE   W12
 BYTE   Gn4
 BYTE   W12
 BYTE   PEND 
// 083   ----------------------------------------
Label_0_01E8A0D4:
 BYTE   N12  Bn4  v096
 BYTE   W12
 BYTE   Cn5
 BYTE   W12
 BYTE   Dn5
 BYTE   W12
 BYTE   Cn5
 BYTE   W12
 BYTE   Bn4
 BYTE   W12
 BYTE   Gn4
 BYTE   W12
 BYTE   Cn5
 BYTE   W12
 BYTE   Dn5
 BYTE   W12
 BYTE   PEND 
// 084   ----------------------------------------
 BYTE   PATT
  POIN2 Label_0_01E89F8C
// 085   ----------------------------------------
 BYTE   PATT
  POIN2 Label_0_01E89F2D
// 086   ----------------------------------------
 BYTE   PATT
  POIN2 Label_0_01E8A09B
// 087   ----------------------------------------
 BYTE   PATT
  POIN2 Label_0_01E8A0AE
// 088   ----------------------------------------
 BYTE   N12  Dn5  v096
 BYTE   W12
 BYTE   Cn5
 BYTE   W12
 BYTE   N02  Dn5
 BYTE   W02
 BYTE   N09
 BYTE   W10
 BYTE   N12  Ds5
 BYTE   W12
 BYTE   Dn5
 BYTE   W12
 BYTE   Cn5
 BYTE   W12
 BYTE   Bn4
 BYTE   W12
 BYTE   Gn4
 BYTE   W12
// 089   ----------------------------------------
 BYTE   PATT
  POIN2 Label_0_01E8A0D4
// 090   ----------------------------------------
 BYTE   PATT
  POIN2 Label_0_01E89F8C
// 091   ----------------------------------------
Label_0_01E8A11B:
 BYTE   N12  Cn5  v096
 BYTE   W12
 BYTE   Gn4
 BYTE   W12
 BYTE   Cn5
 BYTE   W12
 BYTE   Dn5
 BYTE   W60
 BYTE   PEND 
// 092   ----------------------------------------
 BYTE   W96
// 093   ----------------------------------------
 BYTE   W96
// 094   ----------------------------------------
 BYTE   W96
// 095   ----------------------------------------
 BYTE   W96
// 096   ----------------------------------------
 BYTE   W96
// 097   ----------------------------------------
 BYTE   W96
// 098   ----------------------------------------
 BYTE   W96
// 099   ----------------------------------------
 BYTE   W96
// 100   ----------------------------------------
 BYTE   W96
// 101   ----------------------------------------
 BYTE   W96
// 102   ----------------------------------------
 BYTE   W96
// 103   ----------------------------------------
 BYTE   PATT
  POIN2 Label_0_01E8A08F
// 104   ----------------------------------------
 BYTE   PATT
  POIN2 Label_0_01E8A09B
// 105   ----------------------------------------
 BYTE   PATT
  POIN2 Label_0_01E8A0AE
// 106   ----------------------------------------
 BYTE   PATT
  POIN2 Label_0_01E8A0C1
// 107   ----------------------------------------
 BYTE   PATT
  POIN2 Label_0_01E8A0D4
// 108   ----------------------------------------
 BYTE   PATT
  POIN2 Label_0_01E89F8C
// 109   ----------------------------------------
 BYTE   PATT
  POIN2 Label_0_01E89F2D
// 110   ----------------------------------------
 BYTE   PATT
  POIN2 Label_0_01E8A09B
// 111   ----------------------------------------
 BYTE   PATT
  POIN2 Label_0_01E8A0AE
// 112   ----------------------------------------
 BYTE   PATT
  POIN2 Label_0_01E8A0C1
// 113   ----------------------------------------
 BYTE   PATT
  POIN2 Label_0_01E8A0D4
// 114   ----------------------------------------
 BYTE   PATT
  POIN2 Label_0_01E89F8C
// 115   ----------------------------------------
 BYTE   PATT
  POIN2 Label_0_01E8A11B
// 116   ----------------------------------------
 BYTE   W96
// 117   ----------------------------------------
 BYTE   W96
// 118   ----------------------------------------
 BYTE   W96
// 119   ----------------------------------------
 BYTE   W96
// 120   ----------------------------------------
 BYTE   W96
// 121   ----------------------------------------
 BYTE   W96
// 122   ----------------------------------------
 BYTE   W96
// 123   ----------------------------------------
 BYTE   W96
// 124   ----------------------------------------
 BYTE   W48
 BYTE   N12  Gn2  v108
 BYTE   W12
 BYTE   Fs2
 BYTE   W12
 BYTE   Gn2
 BYTE   W12
 BYTE   Fn2
 BYTE   W12
// 125   ----------------------------------------
 BYTE   Fs2
 BYTE   W12
 BYTE   Gn2
 BYTE   W12
 BYTE   Gs2
 BYTE   W12
 BYTE   Gn2
 BYTE   W12
 BYTE   Gs2
 BYTE   W12
 BYTE   Fn2
 BYTE   W12
 BYTE   Gn2
 BYTE   W12
 BYTE   Gs2
 BYTE   W12
// 126   ----------------------------------------
 BYTE   An2
 BYTE   W12
 BYTE   Gs2
 BYTE   W12
 BYTE   An2
 BYTE   W12
 BYTE   Fs2
 BYTE   W12
 BYTE   Gn2
 BYTE   W12
 BYTE   An2
 BYTE   W12
 BYTE   As2
 BYTE   W12
 BYTE   An2
 BYTE   W12
// 127   ----------------------------------------
 BYTE   As2
 BYTE   W12
 BYTE   Gn2
 BYTE   W12
 BYTE   An2
 BYTE   W12
 BYTE   As2
 BYTE   W12
 BYTE   N24  Gn3  v127
 BYTE   W36
 BYTE   N24
 BYTE   W12
// 128   ----------------------------------------
 BYTE   W12
 BYTE   N12
 BYTE   W12
 BYTE   N24
 BYTE   W24
 BYTE   N24
 BYTE   W48
// 129   ----------------------------------------
 BYTE   Gs3
 BYTE   N24  Dn4
 BYTE   W24
 BYTE   Gs3
 BYTE   N24  Dn4
 BYTE   W24
 BYTE   Gs3
 BYTE   N24  Dn4
 BYTE   W24
 BYTE   Gs3
 BYTE   N24  Dn4
 BYTE   W24
// 130   ----------------------------------------
 BYTE   Gs3
 BYTE   N24  Dn4
 BYTE   W24
 BYTE   Gs3
 BYTE   N24  Dn4
 BYTE   W72
// 131   ----------------------------------------
 BYTE   W96
// 132   ----------------------------------------
 BYTE   W96
// 133   ----------------------------------------
 BYTE   W96
// 134   ----------------------------------------
 BYTE   W96
// 135   ----------------------------------------
 BYTE   W96
// 136   ----------------------------------------
 BYTE   W96
// 137   ----------------------------------------
 BYTE   W96
// 138   ----------------------------------------
 BYTE   W96
// 139   ----------------------------------------
 BYTE   W96
// 140   ----------------------------------------
 BYTE   W96
// 141   ----------------------------------------
 BYTE   W96
// 142   ----------------------------------------
 BYTE   W96
// 143   ----------------------------------------
 BYTE   W24
 BYTE   N12  Gn4  v096
 BYTE   W12
 BYTE   Dn4
 BYTE   W12
 BYTE   N12
 BYTE   W12
 BYTE   Gn4
 BYTE   W12
 BYTE   Dn4
 BYTE   W12
 BYTE   N12
 BYTE   W12
// 144   ----------------------------------------
 BYTE   Gn4
 BYTE   W12
 BYTE   Dn4
 BYTE   W12
 BYTE   N12
 BYTE   W12
 BYTE   Gn4
 BYTE   W12
 BYTE   Dn4
 BYTE   W12
 BYTE   N12
 BYTE   W12
 BYTE   Gs4
 BYTE   W12
 BYTE   Ds4
 BYTE   W12
// 145   ----------------------------------------
 BYTE   N12
 BYTE   W12
 BYTE   Gs4
 BYTE   W12
 BYTE   Ds4
 BYTE   W12
 BYTE   N12
 BYTE   W12
 BYTE   Gs4
 BYTE   W12
 BYTE   Ds4
 BYTE   W12
 BYTE   N12
 BYTE   W12
 BYTE   Gs4
 BYTE   W12
// 146   ----------------------------------------
 BYTE   Ds4
 BYTE   W12
 BYTE   N12
 BYTE   W12
 BYTE   As4
 BYTE   W12
 BYTE   Fn4
 BYTE   W12
 BYTE   N12
 BYTE   W12
 BYTE   As4
 BYTE   W12
 BYTE   Fn4
 BYTE   W12
 BYTE   N12
 BYTE   W12
// 147   ----------------------------------------
 BYTE   As4
 BYTE   W12
 BYTE   Fn4
 BYTE   W12
 BYTE   N12
 BYTE   W12
 BYTE   As4
 BYTE   W12
 BYTE   Fn4
 BYTE   W12
 BYTE   N12
 BYTE   W12
 BYTE   Cn5
 BYTE   W12
 BYTE   Gn4
 BYTE   W12
// 148   ----------------------------------------
 BYTE   N12
 BYTE   W12
 BYTE   Cn5
 BYTE   W12
 BYTE   Gn4
 BYTE   W12
 BYTE   N12
 BYTE   W12
 BYTE   Cn5
 BYTE   W12
 BYTE   Gn4
 BYTE   W12
 BYTE   N12
 BYTE   W12
 BYTE   Cn5
 BYTE   W12
// 149   ----------------------------------------
 BYTE   Gn4
 BYTE   W12
 BYTE   N12
 BYTE   W12
 BYTE   Dn5
 BYTE   W12
 BYTE   Gn4
 BYTE   W12
 BYTE   N12
 BYTE   W12
 BYTE   Dn5
 BYTE   W12
 BYTE   Gn4
 BYTE   W12
 BYTE   N12
 BYTE   W12
// 150   ----------------------------------------
 BYTE   Ds5
 BYTE   W12
 BYTE   Gs4
 BYTE   W12
 BYTE   N12
 BYTE   W12
 BYTE   As4
 BYTE   W12
 BYTE   Cn5
 BYTE   W12
 BYTE   Ds5
 BYTE   W12
 BYTE   Cn5
 BYTE   W12
 BYTE   Gn4
 BYTE   W12
// 151   ----------------------------------------
 BYTE   N12
 BYTE   W12
 BYTE   Dn5
 BYTE   W12
 BYTE   Gn4
 BYTE   W12
 BYTE   N12
 BYTE   W12
 BYTE   Ds5
 BYTE   W12
 BYTE   Gs4
 BYTE   W12
 BYTE   N12
 BYTE   W12
 BYTE   Ds5
 BYTE   W12
// 152   ----------------------------------------
 BYTE   Gs4
 BYTE   W12
 BYTE   N12
 BYTE   W12
 BYTE   Dn5
 BYTE   W12
 BYTE   Gn4
 BYTE   W12
 BYTE   N12
 BYTE   W12
 BYTE   Dn5
 BYTE   W12
 BYTE   Gn4
 BYTE   W12
 BYTE   N12
 BYTE   W12
// 153   ----------------------------------------
 BYTE   Dn5
 BYTE   W12
 BYTE   Gn4
 BYTE   W12
 BYTE   N12
 BYTE   W12
 BYTE   Dn5
 BYTE   W12
 BYTE   Gn4
 BYTE   W12
 BYTE   N12
 BYTE   W12
 BYTE   Dn5
 BYTE   W12
 BYTE   N12
 BYTE   W12
// 154   ----------------------------------------
Label_0_01E8A28D:
 BYTE   N12  Dn5  v096
 BYTE   W12
 BYTE   N12
 BYTE   W12
 BYTE   N12
 BYTE   W12
 BYTE   N12
 BYTE   W12
 BYTE   N12
 BYTE   W12
 BYTE   N12
 BYTE   W12
 BYTE   N12
 BYTE   W12
 BYTE   N12
 BYTE   W12
 BYTE   PEND 
// 155   ----------------------------------------
 BYTE   PATT
  POIN2 Label_0_01E8A28D
// 156   ----------------------------------------
 BYTE   N12  Dn5  v096
 BYTE   W12
 BYTE   N12
 BYTE   W12
 BYTE   N12
 BYTE   W12
 BYTE   N12
 BYTE   W12
 BYTE   N12
 BYTE   W12
 BYTE   N11
 BYTE   W12
 BYTE   GoTo
  POIN2 Label_0_01E89F1A
 BYTE   FINE

//**************** Track 2 (Midi-Chn.1) ****************//

song01E9_002:
// 000   ----------------------------------------
 BYTE   KEYSH   song01E9_key+0
 BYTE   VOICE   116
 BYTE   VOL   43*song01E9_mvl/mxv
 BYTE   W72
 BYTE   N24  Fn3  v120
 BYTE   W24
// 001   ----------------------------------------
Label_1_01E8B75B:
 BYTE   N24  Fn3  v120
 BYTE   W48
 BYTE   N24
 BYTE   W24
 BYTE   N24
 BYTE   W24
 BYTE   PEND 
// 002   ----------------------------------------
Label_1_01E8B764:
 BYTE   W24
 BYTE   N24  Fn3  v120
 BYTE   W24
 BYTE   N24
 BYTE   W48
 BYTE   PEND 
// 003   ----------------------------------------
Label_1_01E8B76C:
 BYTE   N12  Fn3  v120
 BYTE   W12
 BYTE   N12
 BYTE   W24
 BYTE   N12
 BYTE   W24
 BYTE   N12
 BYTE   W12
 BYTE   N24
 BYTE   W24
 BYTE   PEND 
// 004   ----------------------------------------
 BYTE   PATT
  POIN2 Label_1_01E8B75B
// 005   ----------------------------------------
 BYTE   PATT
  POIN2 Label_1_01E8B764
// 006   ----------------------------------------
 BYTE   PATT
  POIN2 Label_1_01E8B76C
// 007   ----------------------------------------
 BYTE   PATT
  POIN2 Label_1_01E8B75B
// 008   ----------------------------------------
 BYTE   PATT
  POIN2 Label_1_01E8B764
// 009   ----------------------------------------
 BYTE   PATT
  POIN2 Label_1_01E8B76C
// 010   ----------------------------------------
 BYTE   PATT
  POIN2 Label_1_01E8B75B
// 011   ----------------------------------------
 BYTE   PATT
  POIN2 Label_1_01E8B764
// 012   ----------------------------------------
 BYTE   N12  Fn3  v120
 BYTE   W12
 BYTE   N12
 BYTE   W24
 BYTE   N12
 BYTE   W24
 BYTE   N12
 BYTE   W12
 BYTE   Fs2  v112
 BYTE   N12  Cn3  v127
 BYTE   W12
 BYTE   Cn3  v100
 BYTE   W12
// 013   ----------------------------------------
Label_1_01E8B7B4:
 BYTE   N12  Fs2  v112
 BYTE   N12  Cn3  v100
 BYTE   W12
 BYTE   N12
 BYTE   W12
 BYTE   Fs2  v112
 BYTE   N12  Cn3  v100
 BYTE   W12
 BYTE   N12
 BYTE   W12
 BYTE   Fs2  v112
 BYTE   N12  Cn3  v127
 BYTE   W12
 BYTE   Fs2  v112
 BYTE   N12  Cn3  v100
 BYTE   W12
 BYTE   N12
 BYTE   W12
 BYTE   Fs2  v112
 BYTE   N12  Cn3  v100
 BYTE   W12
 BYTE   PEND 
// 014   ----------------------------------------
Label_1_01E8B7DA:
 BYTE   N12  Cn3  v100
 BYTE   W12
 BYTE   Fs2  v112
 BYTE   N12  Cn3  v100
 BYTE   W12
 BYTE   Fs2  v112
 BYTE   N12  Cn3  v127
 BYTE   W12
 BYTE   Cn3  v100
 BYTE   W12
 BYTE   Fs2  v112
 BYTE   N12  Cn3  v100
 BYTE   W12
 BYTE   N12
 BYTE   W12
 BYTE   N12
 BYTE   W12
 BYTE   N12
 BYTE   W12
 BYTE   PEND 
// 015   ----------------------------------------
Label_1_01E8B7FA:
 BYTE   N12  Cn3  v127
 BYTE   W24
 BYTE   Fs2  v112
 BYTE   N12  Cn3  v127
 BYTE   W24
 BYTE   N06  Fs2  v112
 BYTE   N06  Cn3  v127
 BYTE   W06
 BYTE   Cn3  v104
 BYTE   W06
 BYTE   N04
 BYTE   W04
 BYTE   N01
 BYTE   W08
 BYTE   N12  Fs2  v112
 BYTE   N12  Cn3  v127
 BYTE   W12
 BYTE   Cn3  v100
 BYTE   W12
 BYTE   PEND 
// 016   ----------------------------------------
 BYTE   PATT
  POIN2 Label_1_01E8B7B4
// 017   ----------------------------------------
 BYTE   PATT
  POIN2 Label_1_01E8B7DA
// 018   ----------------------------------------
 BYTE   PATT
  POIN2 Label_1_01E8B7FA
// 019   ----------------------------------------
 BYTE   PATT
  POIN2 Label_1_01E8B7B4
// 020   ----------------------------------------
 BYTE   PATT
  POIN2 Label_1_01E8B7DA
// 021   ----------------------------------------
 BYTE   PATT
  POIN2 Label_1_01E8B7FA
// 022   ----------------------------------------
 BYTE   PATT
  POIN2 Label_1_01E8B7B4
// 023   ----------------------------------------
 BYTE   PATT
  POIN2 Label_1_01E8B7DA
// 024   ----------------------------------------
 BYTE   PATT
  POIN2 Label_1_01E8B7FA
// 025   ----------------------------------------
 BYTE   PATT
  POIN2 Label_1_01E8B7B4
// 026   ----------------------------------------
 BYTE   PATT
  POIN2 Label_1_01E8B7DA
// 027   ----------------------------------------
 BYTE   PATT
  POIN2 Label_1_01E8B7FA
// 028   ----------------------------------------
 BYTE   PATT
  POIN2 Label_1_01E8B7B4
// 029   ----------------------------------------
 BYTE   PATT
  POIN2 Label_1_01E8B7DA
// 030   ----------------------------------------
 BYTE   PATT
  POIN2 Label_1_01E8B7FA
// 031   ----------------------------------------
 BYTE   PATT
  POIN2 Label_1_01E8B7B4
// 032   ----------------------------------------
 BYTE   PATT
  POIN2 Label_1_01E8B7DA
// 033   ----------------------------------------
 BYTE   N12  Cn3  v127
 BYTE   W24
 BYTE   Fs2  v112
 BYTE   N12  Cn3  v127
 BYTE   W24
 BYTE   N02  Fs2  v112
 BYTE   N02  Cn3  v127
 BYTE   W02
 BYTE   N09  Fs2  v112
 BYTE   N03  Cn3  v127
 BYTE   W04
 BYTE   N06  Cn3  v104
 BYTE   W06
 BYTE   N04
 BYTE   W04
 BYTE   N01
 BYTE   W08
 BYTE   N12  Fs2  v112
 BYTE   N12  Cn3  v127
 BYTE   W12
 BYTE   Cn3  v100
 BYTE   W12
// 034   ----------------------------------------
 BYTE   PATT
  POIN2 Label_1_01E8B7B4
// 035   ----------------------------------------
 BYTE   PATT
  POIN2 Label_1_01E8B7DA
// 036   ----------------------------------------
 BYTE   PATT
  POIN2 Label_1_01E8B7FA
// 037   ----------------------------------------
 BYTE   PATT
  POIN2 Label_1_01E8B7B4
// 038   ----------------------------------------
 BYTE   PATT
  POIN2 Label_1_01E8B7DA
// 039   ----------------------------------------
 BYTE   PATT
  POIN2 Label_1_01E8B7FA
// 040   ----------------------------------------
 BYTE   PATT
  POIN2 Label_1_01E8B7B4
// 041   ----------------------------------------
 BYTE   PATT
  POIN2 Label_1_01E8B7DA
// 042   ----------------------------------------
 BYTE   PATT
  POIN2 Label_1_01E8B7FA
// 043   ----------------------------------------
 BYTE   PATT
  POIN2 Label_1_01E8B7B4
// 044   ----------------------------------------
 BYTE   PATT
  POIN2 Label_1_01E8B7DA
// 045   ----------------------------------------
 BYTE   PATT
  POIN2 Label_1_01E8B7FA
// 046   ----------------------------------------
 BYTE   PATT
  POIN2 Label_1_01E8B7B4
// 047   ----------------------------------------
 BYTE   PATT
  POIN2 Label_1_01E8B7DA
// 048   ----------------------------------------
 BYTE   PATT
  POIN2 Label_1_01E8B7FA
// 049   ----------------------------------------
 BYTE   PATT
  POIN2 Label_1_01E8B7B4
// 050   ----------------------------------------
 BYTE   PATT
  POIN2 Label_1_01E8B7DA
// 051   ----------------------------------------
 BYTE   PATT
  POIN2 Label_1_01E8B7FA
// 052   ----------------------------------------
 BYTE   PATT
  POIN2 Label_1_01E8B7B4
// 053   ----------------------------------------
 BYTE   PATT
  POIN2 Label_1_01E8B7DA
// 054   ----------------------------------------
 BYTE   PATT
  POIN2 Label_1_01E8B7FA
// 055   ----------------------------------------
 BYTE   PATT
  POIN2 Label_1_01E8B7B4
// 056   ----------------------------------------
 BYTE   PATT
  POIN2 Label_1_01E8B7DA
// 057   ----------------------------------------
 BYTE   PATT
  POIN2 Label_1_01E8B7FA
// 058   ----------------------------------------
 BYTE   PATT
  POIN2 Label_1_01E8B7B4
// 059   ----------------------------------------
 BYTE   PATT
  POIN2 Label_1_01E8B7DA
// 060   ----------------------------------------
 BYTE   PATT
  POIN2 Label_1_01E8B7FA
// 061   ----------------------------------------
 BYTE   PATT
  POIN2 Label_1_01E8B7B4
// 062   ----------------------------------------
 BYTE   PATT
  POIN2 Label_1_01E8B7DA
// 063   ----------------------------------------
 BYTE   PATT
  POIN2 Label_1_01E8B7FA
// 064   ----------------------------------------
 BYTE   PATT
  POIN2 Label_1_01E8B7B4
// 065   ----------------------------------------
 BYTE   PATT
  POIN2 Label_1_01E8B7DA
// 066   ----------------------------------------
 BYTE   N12  Cn3  v127
 BYTE   W24
 BYTE   Fs2  v112
 BYTE   N12  Cn3  v127
 BYTE   W24
 BYTE   N06  Fs2  v112
 BYTE   N06  Cn3  v127
 BYTE   W06
 BYTE   Cn3  v104
 BYTE   W06
 BYTE   N04
 BYTE   W04
 BYTE   N01
 BYTE   W32
// 067   ----------------------------------------
 BYTE   W96
// 068   ----------------------------------------
 BYTE   W96
// 069   ----------------------------------------
 BYTE   W96
// 070   ----------------------------------------
 BYTE   W96
// 071   ----------------------------------------
 BYTE   W96
// 072   ----------------------------------------
 BYTE   W96
// 073   ----------------------------------------
 BYTE   W96
// 074   ----------------------------------------
 BYTE   W96
// 075   ----------------------------------------
 BYTE   W96
// 076   ----------------------------------------
 BYTE   W96
// 077   ----------------------------------------
 BYTE   W96
// 078   ----------------------------------------
 BYTE   W72
 BYTE   N12  Fs2  v112
 BYTE   N12  Cn3  v100
 BYTE   W12
 BYTE   N12
 BYTE   W12
// 079   ----------------------------------------
 BYTE   Fs2  v112
 BYTE   N12  Cn3  v127
 BYTE   W12
 BYTE   Cn3  v100
 BYTE   W12
 BYTE   Fs2  v112
 BYTE   N12  Cn3  v100
 BYTE   W12
 BYTE   N12
 BYTE   W12
 BYTE   Fs2  v112
 BYTE   N12  Cn3  v127
 BYTE   W12
 BYTE   Cn3  v100
 BYTE   W12
 BYTE   Fs2  v112
 BYTE   N12  Cn3  v100
 BYTE   W12
 BYTE   N12
 BYTE   W12
// 080   ----------------------------------------
Label_1_01E8B98B:
 BYTE   N12  Fs2  v112
 BYTE   N12  Cn3  v100
 BYTE   W12
 BYTE   N12
 BYTE   W12
 BYTE   Fs2  v112
 BYTE   N12  Cn3  v127
 BYTE   W12
 BYTE   Fs2  v112
 BYTE   N12  Cn3  v100
 BYTE   W12
 BYTE   N12
 BYTE   W12
 BYTE   Fs2  v112
 BYTE   N12  Cn3  v100
 BYTE   W12
 BYTE   N12
 BYTE   W12
 BYTE   Fs2  v112
 BYTE   N12  Cn3  v100
 BYTE   W12
 BYTE   PEND 
// 081   ----------------------------------------
Label_1_01E8B9B1:
 BYTE   N12  Fs2  v112
 BYTE   N12  Cn3  v127
 BYTE   W12
 BYTE   Cn3  v100
 BYTE   W12
 BYTE   Fs2  v112
 BYTE   N12  Cn3  v100
 BYTE   W12
 BYTE   N12
 BYTE   W12
 BYTE   N12
 BYTE   W12
 BYTE   N12
 BYTE   W12
 BYTE   Cn3  v127
 BYTE   W24
 BYTE   PEND 
// 082   ----------------------------------------
Label_1_01E8B9CB:
 BYTE   N12  Fs2  v112
 BYTE   N12  Cn3  v127
 BYTE   W24
 BYTE   N06  Fs2  v112
 BYTE   N06  Cn3  v127
 BYTE   W06
 BYTE   Cn3  v104
 BYTE   W06
 BYTE   N04
 BYTE   W04
 BYTE   N01
 BYTE   W08
 BYTE   N12  Fs2  v112
 BYTE   N12  Cn3  v127
 BYTE   W12
 BYTE   Cn3  v100
 BYTE   W12
 BYTE   Fs2  v112
 BYTE   N12  Cn3  v100
 BYTE   W12
 BYTE   N12
 BYTE   W12
 BYTE   PEND 
// 083   ----------------------------------------
 BYTE   PATT
  POIN2 Label_1_01E8B98B
// 084   ----------------------------------------
 BYTE   PATT
  POIN2 Label_1_01E8B9B1
// 085   ----------------------------------------
 BYTE   PATT
  POIN2 Label_1_01E8B9CB
// 086   ----------------------------------------
 BYTE   PATT
  POIN2 Label_1_01E8B98B
// 087   ----------------------------------------
 BYTE   PATT
  POIN2 Label_1_01E8B9B1
// 088   ----------------------------------------
 BYTE   N12  Fs2  v112
 BYTE   N12  Cn3  v127
 BYTE   W24
 BYTE   N02  Fs2  v112
 BYTE   N02  Cn3  v127
 BYTE   W02
 BYTE   N09  Fs2  v112
 BYTE   N03  Cn3  v127
 BYTE   W04
 BYTE   N06  Cn3  v104
 BYTE   W06
 BYTE   N04
 BYTE   W04
 BYTE   N01
 BYTE   W08
 BYTE   N12  Fs2  v112
 BYTE   N12  Cn3  v127
 BYTE   W12
 BYTE   Cn3  v100
 BYTE   W12
 BYTE   Fs2  v112
 BYTE   N12  Cn3  v100
 BYTE   W12
 BYTE   N12
 BYTE   W12
// 089   ----------------------------------------
 BYTE   PATT
  POIN2 Label_1_01E8B98B
// 090   ----------------------------------------
 BYTE   PATT
  POIN2 Label_1_01E8B9B1
// 091   ----------------------------------------
 BYTE   PATT
  POIN2 Label_1_01E8B9CB
// 092   ----------------------------------------
 BYTE   PATT
  POIN2 Label_1_01E8B98B
// 093   ----------------------------------------
 BYTE   PATT
  POIN2 Label_1_01E8B9B1
// 094   ----------------------------------------
 BYTE   PATT
  POIN2 Label_1_01E8B9CB
// 095   ----------------------------------------
 BYTE   PATT
  POIN2 Label_1_01E8B98B
// 096   ----------------------------------------
 BYTE   PATT
  POIN2 Label_1_01E8B9B1
// 097   ----------------------------------------
 BYTE   PATT
  POIN2 Label_1_01E8B9CB
// 098   ----------------------------------------
 BYTE   PATT
  POIN2 Label_1_01E8B98B
// 099   ----------------------------------------
 BYTE   PATT
  POIN2 Label_1_01E8B9B1
// 100   ----------------------------------------
 BYTE   PATT
  POIN2 Label_1_01E8B9CB
// 101   ----------------------------------------
 BYTE   PATT
  POIN2 Label_1_01E8B98B
// 102   ----------------------------------------
 BYTE   PATT
  POIN2 Label_1_01E8B9B1
// 103   ----------------------------------------
 BYTE   PATT
  POIN2 Label_1_01E8B9CB
// 104   ----------------------------------------
 BYTE   PATT
  POIN2 Label_1_01E8B98B
// 105   ----------------------------------------
 BYTE   PATT
  POIN2 Label_1_01E8B9B1
// 106   ----------------------------------------
 BYTE   PATT
  POIN2 Label_1_01E8B9CB
// 107   ----------------------------------------
 BYTE   PATT
  POIN2 Label_1_01E8B98B
// 108   ----------------------------------------
 BYTE   PATT
  POIN2 Label_1_01E8B9B1
// 109   ----------------------------------------
 BYTE   PATT
  POIN2 Label_1_01E8B9CB
// 110   ----------------------------------------
 BYTE   PATT
  POIN2 Label_1_01E8B98B
// 111   ----------------------------------------
 BYTE   PATT
  POIN2 Label_1_01E8B9B1
// 112   ----------------------------------------
 BYTE   PATT
  POIN2 Label_1_01E8B9CB
// 113   ----------------------------------------
 BYTE   PATT
  POIN2 Label_1_01E8B98B
// 114   ----------------------------------------
 BYTE   PATT
  POIN2 Label_1_01E8B9B1
// 115   ----------------------------------------
 BYTE   PATT
  POIN2 Label_1_01E8B9CB
// 116   ----------------------------------------
 BYTE   PATT
  POIN2 Label_1_01E8B98B
// 117   ----------------------------------------
 BYTE   PATT
  POIN2 Label_1_01E8B9B1
// 118   ----------------------------------------
 BYTE   PATT
  POIN2 Label_1_01E8B9CB
// 119   ----------------------------------------
 BYTE   PATT
  POIN2 Label_1_01E8B98B
// 120   ----------------------------------------
 BYTE   PATT
  POIN2 Label_1_01E8B9B1
// 121   ----------------------------------------
 BYTE   PATT
  POIN2 Label_1_01E8B9CB
// 122   ----------------------------------------
 BYTE   PATT
  POIN2 Label_1_01E8B98B
// 123   ----------------------------------------
 BYTE   PATT
  POIN2 Label_1_01E8B9B1
// 124   ----------------------------------------
 BYTE   PATT
  POIN2 Label_1_01E8B9CB
// 125   ----------------------------------------
 BYTE   PATT
  POIN2 Label_1_01E8B98B
// 126   ----------------------------------------
 BYTE   PATT
  POIN2 Label_1_01E8B9B1
// 127   ----------------------------------------
 BYTE   PATT
  POIN2 Label_1_01E8B9CB
// 128   ----------------------------------------
 BYTE   PATT
  POIN2 Label_1_01E8B98B
// 129   ----------------------------------------
 BYTE   PATT
  POIN2 Label_1_01E8B9B1
// 130   ----------------------------------------
 BYTE   N12  Fs2  v112
 BYTE   N12  Cn3  v127
 BYTE   W24
 BYTE   N06  Fs2  v112
 BYTE   N06  Cn3  v127
 BYTE   W06
 BYTE   Cn3  v104
 BYTE   W06
 BYTE   N04
 BYTE   W04
 BYTE   N01
 BYTE   W56
// 131   ----------------------------------------
 BYTE   W96
// 132   ----------------------------------------
 BYTE   W96
// 133   ----------------------------------------
 BYTE   W96
// 134   ----------------------------------------
 BYTE   W96
// 135   ----------------------------------------
 BYTE   W96
// 136   ----------------------------------------
 BYTE   W96
// 137   ----------------------------------------
 BYTE   W96
// 138   ----------------------------------------
 BYTE   W96
// 139   ----------------------------------------
 BYTE   W96
// 140   ----------------------------------------
 BYTE   W96
// 141   ----------------------------------------
 BYTE   W96
// 142   ----------------------------------------
 BYTE   W48
 BYTE   N12  Fs2  v112
 BYTE   N12  Cn3  v100
 BYTE   W12
 BYTE   N12
 BYTE   W12
 BYTE   Fs2  v112
 BYTE   N12  Cn3  v127
 BYTE   W12
 BYTE   Cn3  v100
 BYTE   W12
// 143   ----------------------------------------
 BYTE   Fs2  v112
 BYTE   N12  Cn3  v100
 BYTE   W12
 BYTE   N12
 BYTE   W12
 BYTE   Fs2  v112
 BYTE   N12  Cn3  v127
 BYTE   W12
 BYTE   Cn3  v100
 BYTE   W12
 BYTE   Fs2  v112
 BYTE   N12  Cn3  v100
 BYTE   W12
 BYTE   N12
 BYTE   W12
 BYTE   Fs2  v112
 BYTE   N12  Cn3  v100
 BYTE   W12
 BYTE   N12
 BYTE   W12
// 144   ----------------------------------------
Label_1_01E8BB5C:
 BYTE   N12  Fs2  v112
 BYTE   N12  Cn3  v127
 BYTE   W12
 BYTE   Fs2  v112
 BYTE   N12  Cn3  v100
 BYTE   W12
 BYTE   N12
 BYTE   W12
 BYTE   Fs2  v112
 BYTE   N12  Cn3  v100
 BYTE   W12
 BYTE   N12
 BYTE   W12
 BYTE   Fs2  v112
 BYTE   N12  Cn3  v100
 BYTE   W12
 BYTE   Fs2  v112
 BYTE   N12  Cn3  v127
 BYTE   W12
 BYTE   Cn3  v100
 BYTE   W12
 BYTE   PEND 
// 145   ----------------------------------------
Label_1_01E8BB83:
 BYTE   N12  Fs2  v112
 BYTE   N12  Cn3  v100
 BYTE   W12
 BYTE   N12
 BYTE   W12
 BYTE   N12
 BYTE   W12
 BYTE   N12
 BYTE   W12
 BYTE   Cn3  v127
 BYTE   W24
 BYTE   Fs2  v112
 BYTE   N12  Cn3  v127
 BYTE   W24
 BYTE   PEND 
// 146   ----------------------------------------
Label_1_01E8BB9A:
 BYTE   N06  Fs2  v112
 BYTE   N06  Cn3  v127
 BYTE   W06
 BYTE   Cn3  v104
 BYTE   W06
 BYTE   N04
 BYTE   W04
 BYTE   N01
 BYTE   W08
 BYTE   N12  Fs2  v112
 BYTE   N12  Cn3  v127
 BYTE   W12
 BYTE   Cn3  v100
 BYTE   W12
 BYTE   Fs2  v112
 BYTE   N12  Cn3  v100
 BYTE   W12
 BYTE   N12
 BYTE   W12
 BYTE   Fs2  v112
 BYTE   N12  Cn3  v100
 BYTE   W12
 BYTE   N12
 BYTE   W12
 BYTE   PEND 
// 147   ----------------------------------------
 BYTE   PATT
  POIN2 Label_1_01E8BB5C
// 148   ----------------------------------------
 BYTE   PATT
  POIN2 Label_1_01E8BB83
// 149   ----------------------------------------
 BYTE   PATT
  POIN2 Label_1_01E8BB9A
// 150   ----------------------------------------
 BYTE   PATT
  POIN2 Label_1_01E8BB5C
// 151   ----------------------------------------
 BYTE   PATT
  POIN2 Label_1_01E8BB83
// 152   ----------------------------------------
 BYTE   N06  Fs2  v112
 BYTE   N06  Cn3  v127
 BYTE   W06
 BYTE   Cn3  v104
 BYTE   W06
 BYTE   N04
 BYTE   W04
 BYTE   N01
 BYTE   W08
 BYTE   N12  Fs2  v112
 BYTE   N12  Cn3  v127
 BYTE   W24
 BYTE   Fs2  v112
 BYTE   N12  Cn3  v100
 BYTE   W24
 BYTE   Fs2  v112
 BYTE   N12  Cn3  v100
 BYTE   W24
// 153   ----------------------------------------
 BYTE   Fs2  v112
 BYTE   N12  Cn3  v127
 BYTE   W24
 BYTE   Fs2  v112
 BYTE   N12  Cn3  v100
 BYTE   W24
 BYTE   Fs2  v112
 BYTE   N12  Cn3  v100
 BYTE   W24
 BYTE   N06  Fs2  v112
 BYTE   N06  Cn3  v127
 BYTE   W06
 BYTE   Fs2  v112
 BYTE   N06  Cn3  v127
 BYTE   W06
 BYTE   Fs2  v112
 BYTE   N06  Cn3  v127
 BYTE   W06
 BYTE   Fs2  v112
 BYTE   N06  Cn3  v127
 BYTE   W06
// 154   ----------------------------------------
 BYTE   Fs2  v112
 BYTE   N06  Cn3  v127
 BYTE   W06
 BYTE   Fs2  v112
 BYTE   N06  Cn3  v127
 BYTE   W06
 BYTE   Fs2  v112
 BYTE   N06  Cn3  v127
 BYTE   W06
 BYTE   Fs2  v112
 BYTE   N06  Cn3  v127
 BYTE   W06
 BYTE   Fs2  v112
 BYTE   N06  Cn3  v127
 BYTE   W06
 BYTE   Fs2  v112
 BYTE   N06  Cn3  v127
 BYTE   W06
 BYTE   Fs2  v112
 BYTE   N06  Cn3  v127
 BYTE   W06
 BYTE   Fs2  v112
 BYTE   N06  Cn3  v127
 BYTE   W06
 BYTE   Fs2  v112
 BYTE   N06  Cn3  v127
 BYTE   W06
 BYTE   Fs2  v112
 BYTE   N06  Cn3  v127
 BYTE   W06
 BYTE   Fs2  v112
 BYTE   N06  Cn3  v127
 BYTE   W06
 BYTE   Fs2  v112
 BYTE   N06  Cn3  v127
 BYTE   W06
 BYTE   Fs2  v112
 BYTE   N06  Cn3  v127
 BYTE   W06
 BYTE   Fs2  v112
 BYTE   N06  Cn3  v127
 BYTE   W06
 BYTE   Fs2  v112
 BYTE   N06  Cn3  v127
 BYTE   W06
 BYTE   Fs2  v112
 BYTE   N06  Cn3  v127
 BYTE   W06
// 155   ----------------------------------------
 BYTE   Fs2  v112
 BYTE   N06  Cn3  v127
 BYTE   W06
 BYTE   Fs2  v112
 BYTE   N06  Cn3  v127
 BYTE   W06
 BYTE   Fs2  v112
 BYTE   N06  Cn3  v127
 BYTE   W06
 BYTE   Fs2  v112
 BYTE   N06  Cn3  v127
 BYTE   W78
// 156   ----------------------------------------
 BYTE   W72
 BYTE   GoTo
  POIN2 Label_1_01E8B7B4
 BYTE   FINE

//**************** Track 3 (Midi-Chn.2) ****************//

song01E9_003:
// 000   ----------------------------------------
 BYTE   KEYSH   song01E9_key+0
 BYTE   VOICE   56
 BYTE   VOL   67*song01E9_mvl/mxv
 BYTE   W72
 BYTE   N24  Gn3  v096
 BYTE   W24
// 001   ----------------------------------------
 BYTE   TIE  Dn4
 BYTE   W96
// 002   ----------------------------------------
 BYTE   W24
 BYTE   EOT
 BYTE   W72
// 003   ----------------------------------------
 BYTE   W36
 BYTE   N36  Ds4
 BYTE   W36
 BYTE   TIE  Fn4
 BYTE   W24
// 004   ----------------------------------------
 BYTE   W96
// 005   ----------------------------------------
 BYTE   W24
 BYTE   EOT
 BYTE   TIE  Gn4
 BYTE   W72
// 006   ----------------------------------------
 BYTE   W72
 BYTE   EOT
 BYTE   N24  Gn3
 BYTE   W24
// 007   ----------------------------------------
 BYTE   TIE  Dn4
 BYTE   W96
// 008   ----------------------------------------
 BYTE   W24
 BYTE   EOT
 BYTE   N72
 BYTE   W72
// 009   ----------------------------------------
 BYTE   W36
 BYTE   N36  Ds4
 BYTE   W36
 BYTE   Dn4
 BYTE   W24
// 010   ----------------------------------------
 BYTE   W12
 BYTE   N12  Gn4
 BYTE   W12
 BYTE   N12
 BYTE   W12
 BYTE   N12
 BYTE   W12
 BYTE   N72  Dn4
 BYTE   W48
// 011   ----------------------------------------
 BYTE   W24
 BYTE   Fn4
 BYTE   W72
// 012   ----------------------------------------
 BYTE   Gn4
 BYTE   W96
// 013   ----------------------------------------
Label_2_01E8A310:
 BYTE   W36
 BYTE   N06  Gn2  v104
 BYTE   W06
 BYTE   N06
 BYTE   W06
 BYTE   N24  Gn3
 BYTE   W48
 BYTE   PEND 
// 014   ----------------------------------------
Label_2_01E8A31B:
 BYTE   W12
 BYTE   N06  Fn2  v104
 BYTE   W06
 BYTE   N06
 BYTE   W06
 BYTE   N24  Fn3
 BYTE   W72
 BYTE   PEND 
// 015   ----------------------------------------
 BYTE   W96
// 016   ----------------------------------------
Label_2_01E8A327:
 BYTE   W36
 BYTE   N06  As2  v104
 BYTE   W06
 BYTE   N06
 BYTE   W06
 BYTE   N24  As3
 BYTE   W48
 BYTE   PEND 
// 017   ----------------------------------------
Label_2_01E8A332:
 BYTE   W12
 BYTE   N06  Gn2  v104
 BYTE   W06
 BYTE   N06
 BYTE   W06
 BYTE   N24  Gn3
 BYTE   W72
 BYTE   PEND 
// 018   ----------------------------------------
 BYTE   W96
// 019   ----------------------------------------
Label_2_01E8A33E:
 BYTE   W36
 BYTE   N06  Gs2  v104
 BYTE   W06
 BYTE   N06
 BYTE   W06
 BYTE   N24  Gs3
 BYTE   W48
 BYTE   PEND 
// 020   ----------------------------------------
 BYTE   PATT
  POIN2 Label_2_01E8A31B
// 021   ----------------------------------------
 BYTE   W96
// 022   ----------------------------------------
 BYTE   PATT
  POIN2 Label_2_01E8A310
// 023   ----------------------------------------
Label_2_01E8A354:
 BYTE   W12
 BYTE   N06  Fn2  v104
 BYTE   W06
 BYTE   N06
 BYTE   W06
 BYTE   N24  Ds3
 BYTE   W72
 BYTE   PEND 
// 024   ----------------------------------------
 BYTE   W96
// 025   ----------------------------------------
 BYTE   W96
// 026   ----------------------------------------
 BYTE   W96
// 027   ----------------------------------------
 BYTE   W96
// 028   ----------------------------------------
 BYTE   W96
// 029   ----------------------------------------
 BYTE   W96
// 030   ----------------------------------------
 BYTE   W96
// 031   ----------------------------------------
 BYTE   W96
// 032   ----------------------------------------
 BYTE   W96
// 033   ----------------------------------------
 BYTE   W96
// 034   ----------------------------------------
 BYTE   W96
// 035   ----------------------------------------
 BYTE   W96
// 036   ----------------------------------------
 BYTE   W96
// 037   ----------------------------------------
 BYTE   PATT
  POIN2 Label_2_01E8A310
// 038   ----------------------------------------
 BYTE   PATT
  POIN2 Label_2_01E8A31B
// 039   ----------------------------------------
 BYTE   W96
// 040   ----------------------------------------
 BYTE   PATT
  POIN2 Label_2_01E8A327
// 041   ----------------------------------------
 BYTE   PATT
  POIN2 Label_2_01E8A332
// 042   ----------------------------------------
 BYTE   W96
// 043   ----------------------------------------
 BYTE   PATT
  POIN2 Label_2_01E8A33E
// 044   ----------------------------------------
 BYTE   PATT
  POIN2 Label_2_01E8A31B
// 045   ----------------------------------------
 BYTE   W96
// 046   ----------------------------------------
 BYTE   PATT
  POIN2 Label_2_01E8A310
// 047   ----------------------------------------
 BYTE   PATT
  POIN2 Label_2_01E8A354
// 048   ----------------------------------------
 BYTE   W96
// 049   ----------------------------------------
 BYTE   W96
// 050   ----------------------------------------
 BYTE   W96
// 051   ----------------------------------------
 BYTE   W96
// 052   ----------------------------------------
 BYTE   W96
// 053   ----------------------------------------
 BYTE   W96
// 054   ----------------------------------------
 BYTE   W96
// 055   ----------------------------------------
 BYTE   W96
// 056   ----------------------------------------
 BYTE   W96
// 057   ----------------------------------------
 BYTE   W96
// 058   ----------------------------------------
 BYTE   W96
// 059   ----------------------------------------
 BYTE   W96
// 060   ----------------------------------------
 BYTE   W96
// 061   ----------------------------------------
 BYTE   W96
// 062   ----------------------------------------
 BYTE   W96
// 063   ----------------------------------------
 BYTE   W96
// 064   ----------------------------------------
 BYTE   W96
// 065   ----------------------------------------
 BYTE   W96
// 066   ----------------------------------------
 BYTE   W72
 BYTE   N60  Cn4  v104
 BYTE   W24
// 067   ----------------------------------------
Label_2_01E8A3AE:
 BYTE   W36
 BYTE   N12  Gn4  v104
 BYTE   W12
 BYTE   N60
 BYTE   W48
 BYTE   PEND 
// 068   ----------------------------------------
Label_2_01E8A3B6:
 BYTE   W12
 BYTE   N12  Ds4  v104
 BYTE   W12
 BYTE   N60
 BYTE   W60
 BYTE   N12  Cn4
 BYTE   W12
 BYTE   PEND 
// 069   ----------------------------------------
 BYTE   N60
 BYTE   W60
 BYTE   N12  Ds4
 BYTE   W12
 BYTE   N60
 BYTE   W24
// 070   ----------------------------------------
 BYTE   W36
 BYTE   N12  Cn4
 BYTE   W12
 BYTE   N60
 BYTE   W48
// 071   ----------------------------------------
 BYTE   W12
 BYTE   N12  Gs3
 BYTE   W12
 BYTE   TIE
 BYTE   W72
// 072   ----------------------------------------
 BYTE   W48
 BYTE   EOT
 BYTE   W48
// 073   ----------------------------------------
 BYTE   PATT
  POIN2 Label_2_01E8A3AE
// 074   ----------------------------------------
 BYTE   PATT
  POIN2 Label_2_01E8A3B6
// 075   ----------------------------------------
 BYTE   N60  Cn4  v104
 BYTE   W60
 BYTE   N12  Gs4
 BYTE   W12
 BYTE   N60
 BYTE   W24
// 076   ----------------------------------------
Label_2_01E8A3EA:
 BYTE   W36
 BYTE   N12  Ds4  v104
 BYTE   W12
 BYTE   N60
 BYTE   W48
 BYTE   PEND 
// 077   ----------------------------------------
 BYTE   W12
 BYTE   N12  Gs4
 BYTE   W12
 BYTE   TIE
 BYTE   W72
// 078   ----------------------------------------
 BYTE   W48
 BYTE   EOT
 BYTE   W48
// 079   ----------------------------------------
 BYTE   W96
// 080   ----------------------------------------
 BYTE   W96
// 081   ----------------------------------------
 BYTE   W96
// 082   ----------------------------------------
 BYTE   W96
// 083   ----------------------------------------
 BYTE   W96
// 084   ----------------------------------------
 BYTE   W96
// 085   ----------------------------------------
 BYTE   W96
// 086   ----------------------------------------
 BYTE   W96
// 087   ----------------------------------------
 BYTE   W96
// 088   ----------------------------------------
 BYTE   W96
// 089   ----------------------------------------
 BYTE   W96
// 090   ----------------------------------------
 BYTE   W96
// 091   ----------------------------------------
 BYTE   W96
// 092   ----------------------------------------
Label_2_01E8A408:
 BYTE   W12
 BYTE   N06  Gn2  v104
 BYTE   W06
 BYTE   N06
 BYTE   W06
 BYTE   N24  Gn3
 BYTE   W60
 BYTE   N06  Fn2
 BYTE   W06
 BYTE   N06
 BYTE   W06
 BYTE   PEND 
// 093   ----------------------------------------
 BYTE   N24  Fn3
 BYTE   W96
// 094   ----------------------------------------
 BYTE   W96
// 095   ----------------------------------------
 BYTE   W12
 BYTE   N06  As2
 BYTE   W06
 BYTE   N06
 BYTE   W06
 BYTE   N24  As3
 BYTE   W60
 BYTE   N06  Gn2
 BYTE   W06
 BYTE   N06
 BYTE   W06
// 096   ----------------------------------------
 BYTE   N24  Gn3
 BYTE   W96
// 097   ----------------------------------------
 BYTE   W96
// 098   ----------------------------------------
 BYTE   W12
 BYTE   N06  Gs2
 BYTE   W06
 BYTE   N06
 BYTE   W06
 BYTE   N24  Gs3
 BYTE   W60
 BYTE   N06  Fn2
 BYTE   W06
 BYTE   N06
 BYTE   W06
// 099   ----------------------------------------
 BYTE   N24  Fn3
 BYTE   W96
// 100   ----------------------------------------
 BYTE   W96
// 101   ----------------------------------------
 BYTE   PATT
  POIN2 Label_2_01E8A408
// 102   ----------------------------------------
 BYTE   N24  Ds3  v104
 BYTE   W96
// 103   ----------------------------------------
 BYTE   W96
// 104   ----------------------------------------
 BYTE   W96
// 105   ----------------------------------------
 BYTE   W96
// 106   ----------------------------------------
 BYTE   W96
// 107   ----------------------------------------
 BYTE   W96
// 108   ----------------------------------------
 BYTE   W96
// 109   ----------------------------------------
 BYTE   W96
// 110   ----------------------------------------
 BYTE   W96
// 111   ----------------------------------------
 BYTE   W96
// 112   ----------------------------------------
 BYTE   W96
// 113   ----------------------------------------
 BYTE   W96
// 114   ----------------------------------------
 BYTE   W96
// 115   ----------------------------------------
 BYTE   W96
// 116   ----------------------------------------
 BYTE   W96
// 117   ----------------------------------------
 BYTE   W96
// 118   ----------------------------------------
 BYTE   W96
// 119   ----------------------------------------
 BYTE   W96
// 120   ----------------------------------------
 BYTE   W96
// 121   ----------------------------------------
 BYTE   W96
// 122   ----------------------------------------
 BYTE   W96
// 123   ----------------------------------------
 BYTE   W96
// 124   ----------------------------------------
 BYTE   W96
// 125   ----------------------------------------
 BYTE   W96
// 126   ----------------------------------------
 BYTE   W96
// 127   ----------------------------------------
 BYTE   W96
// 128   ----------------------------------------
 BYTE   W96
// 129   ----------------------------------------
 BYTE   W96
// 130   ----------------------------------------
 BYTE   W48
 BYTE   N60  Cn4
 BYTE   W48
// 131   ----------------------------------------
Label_2_01E8A468:
 BYTE   W12
 BYTE   N12  Gn4  v104
 BYTE   W12
 BYTE   N60
 BYTE   W60
 BYTE   N12  Ds4
 BYTE   W12
 BYTE   PEND 
// 132   ----------------------------------------
Label_2_01E8A473:
 BYTE   N60  Ds4  v104
 BYTE   W60
 BYTE   N12  Cn4
 BYTE   W12
 BYTE   N60
 BYTE   W24
 BYTE   PEND 
// 133   ----------------------------------------
 BYTE   PATT
  POIN2 Label_2_01E8A3EA
// 134   ----------------------------------------
 BYTE   W12
 BYTE   N12  Cn4  v104
 BYTE   W12
 BYTE   N60
 BYTE   W60
 BYTE   N12  Gs3
 BYTE   W12
// 135   ----------------------------------------
 BYTE   TIE
 BYTE   W96
// 136   ----------------------------------------
 BYTE   W24
 BYTE   EOT
 BYTE   W72
// 137   ----------------------------------------
 BYTE   PATT
  POIN2 Label_2_01E8A468
// 138   ----------------------------------------
 BYTE   PATT
  POIN2 Label_2_01E8A473
// 139   ----------------------------------------
 BYTE   W36
 BYTE   N12  Gs4  v104
 BYTE   W12
 BYTE   N60
 BYTE   W48
// 140   ----------------------------------------
 BYTE   W12
 BYTE   N12  Ds4
 BYTE   W12
 BYTE   N60
 BYTE   W60
 BYTE   N12  Gs4
 BYTE   W12
// 141   ----------------------------------------
 BYTE   TIE
 BYTE   W96
// 142   ----------------------------------------
 BYTE   W24
 BYTE   EOT
 BYTE   W72
// 143   ----------------------------------------
 BYTE   W96
// 144   ----------------------------------------
 BYTE   W96
// 145   ----------------------------------------
 BYTE   W96
// 146   ----------------------------------------
 BYTE   W96
// 147   ----------------------------------------
 BYTE   W96
// 148   ----------------------------------------
 BYTE   W96
// 149   ----------------------------------------
 BYTE   W96
// 150   ----------------------------------------
 BYTE   W96
// 151   ----------------------------------------
 BYTE   W96
// 152   ----------------------------------------
 BYTE   W96
// 153   ----------------------------------------
 BYTE   W96
// 154   ----------------------------------------
 BYTE   W96
// 155   ----------------------------------------
 BYTE   W96
// 156   ----------------------------------------
 BYTE   W72
 BYTE   GoTo
  POIN2 Label_2_01E8A310
 BYTE   FINE

//**************** Track 4 (Midi-Chn.3) ****************//

song01E9_004:
// 000   ----------------------------------------
 BYTE   KEYSH   song01E9_key+0
 BYTE   VOICE   60
 BYTE   VOL   43*song01E9_mvl/mxv
 BYTE   W72
 BYTE   TIE  Gn2  v092
 BYTE   W24
// 001   ----------------------------------------
 BYTE   W96
// 002   ----------------------------------------
 BYTE   W96
// 003   ----------------------------------------
 BYTE   EOT
 BYTE   N72  Gs2
 BYTE   W72
 BYTE   TIE  As2
 BYTE   W24
// 004   ----------------------------------------
 BYTE   W96
// 005   ----------------------------------------
 BYTE   W24
 BYTE   EOT
 BYTE   TIE  Cn3
 BYTE   W72
// 006   ----------------------------------------
 BYTE   W72
 BYTE   EOT
 BYTE   TIE  Gn2
 BYTE   W24
// 007   ----------------------------------------
 BYTE   W96
// 008   ----------------------------------------
 BYTE   W96
// 009   ----------------------------------------
 BYTE   W01
 BYTE   EOT
 BYTE   N68  Gs2
 BYTE   W68
 BYTE   W03
 BYTE   TIE  As2
 BYTE   W24
// 010   ----------------------------------------
 BYTE   W96
// 011   ----------------------------------------
 BYTE   W24
 BYTE   EOT
 BYTE   TIE  Cn3
 BYTE   W72
// 012   ----------------------------------------
 BYTE   W72
 BYTE   EOT
 BYTE   TIE  Cn2  v120
 BYTE   TIE  Cn3  v092
 BYTE   W24
// 013   ----------------------------------------
Label_3_01E8B475:
 BYTE   W96
// 014   ----------------------------------------
 BYTE   W96
// 015   ----------------------------------------
 BYTE   W96
// 016   ----------------------------------------
 BYTE   W96
// 017   ----------------------------------------
 BYTE   W96
// 018   ----------------------------------------
 BYTE   W96
// 019   ----------------------------------------
 BYTE   W96
// 020   ----------------------------------------
 BYTE   W96
// 021   ----------------------------------------
 BYTE   W96
// 022   ----------------------------------------
 BYTE   W96
// 023   ----------------------------------------
 BYTE   W96
// 024   ----------------------------------------
 BYTE   W72
 BYTE   EOT
 BYTE   Cn2  v060
 BYTE   N24  Cn2  v120
 BYTE   N24  Cn3  v104
 BYTE   W24
// 025   ----------------------------------------
Label_3_01E8B48B:
 BYTE   N24  Gn2  v104
 BYTE   W24
 BYTE   Cn3
 BYTE   W24
 BYTE   Dn3
 BYTE   W24
 BYTE   Ds3
 BYTE   W24
 BYTE   PEND 
// 026   ----------------------------------------
 BYTE   Fn3
 BYTE   W24
 BYTE   N96  Gn3
 BYTE   W72
// 027   ----------------------------------------
 BYTE   W24
 BYTE   N24  Fn3
 BYTE   W24
 BYTE   Ds3
 BYTE   W24
 BYTE   N96  Dn3
 BYTE   W24
// 028   ----------------------------------------
 BYTE   W72
 BYTE   N24  Bn2
 BYTE   W24
// 029   ----------------------------------------
 BYTE   Gn2
 BYTE   W24
 BYTE   N72  Ds3
 BYTE   W72
// 030   ----------------------------------------
Label_3_01E8B4AD:
 BYTE   N24  Dn3  v104
 BYTE   W24
 BYTE   Ds3
 BYTE   W24
 BYTE   Fn3
 BYTE   W24
 BYTE   TIE  Gn3
 BYTE   W24
 BYTE   PEND 
// 031   ----------------------------------------
 BYTE   W96
// 032   ----------------------------------------
 BYTE   W96
// 033   ----------------------------------------
 BYTE   W48
 BYTE   EOT
 BYTE   N02  Gs3
 BYTE   W02
 BYTE   N21  Cn2  v120
 BYTE   N21  Gs3  v104
 BYTE   W22
 BYTE   TIE  Gn3
 BYTE   W24
// 034   ----------------------------------------
 BYTE   W96
// 035   ----------------------------------------
 BYTE   W24
 BYTE   EOT
 BYTE   N24
 BYTE   W24
 BYTE   Fn3
 BYTE   W24
 BYTE   Ds3
 BYTE   W24
// 036   ----------------------------------------
 BYTE   Dn3
 BYTE   W24
 BYTE   Cn3
 BYTE   W24
 BYTE   N23  Bn2
 BYTE   W23
 BYTE   N01  Cn2
 BYTE   W01
 BYTE   TIE  Cn2  v120
 BYTE   TIE  Cn3  v092
 BYTE   W24
// 037   ----------------------------------------
 BYTE   W96
// 038   ----------------------------------------
 BYTE   W96
// 039   ----------------------------------------
 BYTE   W96
// 040   ----------------------------------------
 BYTE   W96
// 041   ----------------------------------------
 BYTE   W96
// 042   ----------------------------------------
 BYTE   W96
// 043   ----------------------------------------
 BYTE   W96
// 044   ----------------------------------------
 BYTE   W96
// 045   ----------------------------------------
 BYTE   W96
// 046   ----------------------------------------
 BYTE   W96
// 047   ----------------------------------------
 BYTE   W96
// 048   ----------------------------------------
 BYTE   W72
 BYTE   EOT
 BYTE   Cn2  v060
 BYTE   N24  Cn2  v120
 BYTE   N24  Cn3  v104
 BYTE   W24
// 049   ----------------------------------------
 BYTE   PATT
  POIN2 Label_3_01E8B48B
// 050   ----------------------------------------
 BYTE   N24  Fn3  v104
 BYTE   W24
 BYTE   TIE  Gn3
 BYTE   W72
// 051   ----------------------------------------
 BYTE   W24
 BYTE   N24  Fn3
 BYTE   W24
 BYTE   Ds3
 BYTE   W24
 BYTE   EOT
 BYTE   Gn3
 BYTE   TIE  Dn3
 BYTE   W24
// 052   ----------------------------------------
 BYTE   W72
 BYTE   N24  Bn2
 BYTE   W24
// 053   ----------------------------------------
 BYTE   Gn2
 BYTE   W24
 BYTE   EOT
 BYTE   Dn3
 BYTE   N72  Ds3
 BYTE   W72
// 054   ----------------------------------------
 BYTE   PATT
  POIN2 Label_3_01E8B4AD
// 055   ----------------------------------------
 BYTE   W96
// 056   ----------------------------------------
 BYTE   W96
// 057   ----------------------------------------
 BYTE   W48
 BYTE   EOT
 BYTE   Gn3
 BYTE   N24  Gs3  v104
 BYTE   W24
 BYTE   TIE  Gn3
 BYTE   W24
// 058   ----------------------------------------
 BYTE   W96
// 059   ----------------------------------------
 BYTE   W24
 BYTE   EOT
 BYTE   N24
 BYTE   W24
 BYTE   Fn3
 BYTE   W24
 BYTE   Ds3
 BYTE   W24
// 060   ----------------------------------------
 BYTE   Dn3
 BYTE   W24
 BYTE   Cn3
 BYTE   W24
 BYTE   Bn2
 BYTE   W24
 BYTE   N72  Cn2
 BYTE   N72  Gn2
 BYTE   W24
// 061   ----------------------------------------
 BYTE   W48
 BYTE   Gs2
 BYTE   W48
// 062   ----------------------------------------
 BYTE   W24
 BYTE   An2
 BYTE   W72
// 063   ----------------------------------------
 BYTE   As2
 BYTE   W72
 BYTE   Gn3
 BYTE   W24
// 064   ----------------------------------------
 BYTE   W48
 BYTE   Gs3
 BYTE   W48
// 065   ----------------------------------------
 BYTE   W24
 BYTE   An3
 BYTE   W72
// 066   ----------------------------------------
 BYTE   As3
 BYTE   W96
// 067   ----------------------------------------
 BYTE   W96
// 068   ----------------------------------------
 BYTE   W96
// 069   ----------------------------------------
 BYTE   W96
// 070   ----------------------------------------
 BYTE   W96
// 071   ----------------------------------------
 BYTE   W96
// 072   ----------------------------------------
 BYTE   W96
// 073   ----------------------------------------
 BYTE   W96
// 074   ----------------------------------------
 BYTE   W96
// 075   ----------------------------------------
 BYTE   W96
// 076   ----------------------------------------
 BYTE   W96
// 077   ----------------------------------------
 BYTE   W96
// 078   ----------------------------------------
 BYTE   W96
// 079   ----------------------------------------
 BYTE   W48
 BYTE   TIE  Cn2  v120
 BYTE   N24  Cn3  v104
 BYTE   W24
 BYTE   Gn2
 BYTE   W24
// 080   ----------------------------------------
Label_3_01E8B569:
 BYTE   N24  Cn3  v104
 BYTE   W24
 BYTE   Dn3
 BYTE   W24
 BYTE   Ds3
 BYTE   W24
 BYTE   Fn3
 BYTE   W24
 BYTE   PEND 
// 081   ----------------------------------------
 BYTE   TIE  Gn3
 BYTE   W96
// 082   ----------------------------------------
Label_3_01E8B577:
 BYTE   N24  Fn3  v104
 BYTE   W24
 BYTE   Ds3
 BYTE   W24
 BYTE   PEND 
 BYTE   EOT
 BYTE   Gn3
 BYTE   TIE  Dn3
 BYTE   W48
// 083   ----------------------------------------
Label_3_01E8B583:
 BYTE   W48
 BYTE   N24  Bn2  v104
 BYTE   W24
 BYTE   Gn2
 BYTE   W24
 BYTE   PEND 
// 084   ----------------------------------------
 BYTE   EOT
 BYTE   Dn3
Label_3_01E8B58D:
 BYTE   N72  Ds3  v104
 BYTE   W72
 BYTE   N24  Dn3
 BYTE   W24
 BYTE   PEND 
// 085   ----------------------------------------
Label_3_01E8B595:
 BYTE   N24  Ds3  v104
 BYTE   W24
 BYTE   Fn3
 BYTE   W24
 BYTE   TIE  Gn3
 BYTE   W48
 BYTE   PEND 
// 086   ----------------------------------------
 BYTE   W96
// 087   ----------------------------------------
 BYTE   W96
// 088   ----------------------------------------
 BYTE   W24
 BYTE   EOT
 BYTE   Cn2  v067
 BYTE   N02  Gs3
 BYTE   W02
 BYTE   N21  Cn2  v120
 BYTE   N21  Gs3  v104
 BYTE   W22
 BYTE   TIE  Gn3
 BYTE   W48
// 089   ----------------------------------------
 BYTE   W96
// 090   ----------------------------------------
 BYTE   EOT
Label_3_01E8B5B4:
 BYTE   N24  Gn3  v104
 BYTE   W24
 BYTE   Fn3
 BYTE   W24
 BYTE   Ds3
 BYTE   W24
 BYTE   Dn3
 BYTE   W24
 BYTE   PEND 
// 091   ----------------------------------------
 BYTE   Cn3
 BYTE   W24
 BYTE   N23  Bn2
 BYTE   W23
 BYTE   N01  Cn2
 BYTE   W01
 BYTE   TIE  Cn2  v120
 BYTE   TIE  Cn3  v092
 BYTE   W48
// 092   ----------------------------------------
 BYTE   W96
// 093   ----------------------------------------
 BYTE   W96
// 094   ----------------------------------------
 BYTE   W96
// 095   ----------------------------------------
 BYTE   W96
// 096   ----------------------------------------
 BYTE   W96
// 097   ----------------------------------------
 BYTE   W96
// 098   ----------------------------------------
 BYTE   W96
// 099   ----------------------------------------
 BYTE   W96
// 100   ----------------------------------------
 BYTE   W96
// 101   ----------------------------------------
 BYTE   W96
// 102   ----------------------------------------
 BYTE   W96
// 103   ----------------------------------------
 BYTE   W48
 BYTE   EOT
 BYTE   Cn2  v060
 BYTE   N24  Cn2  v120
 BYTE   N24  Cn3  v104
 BYTE   W24
 BYTE   Gn2
 BYTE   W24
// 104   ----------------------------------------
 BYTE   PATT
  POIN2 Label_3_01E8B569
// 105   ----------------------------------------
 BYTE   TIE  Gn3  v104
 BYTE   W96
// 106   ----------------------------------------
 BYTE   PATT
  POIN2 Label_3_01E8B577
// 107   ----------------------------------------
 BYTE   EOT
 BYTE   Gn3
 BYTE   TIE  Dn3  v104
 BYTE   W48
// 108   ----------------------------------------
 BYTE   PATT
  POIN2 Label_3_01E8B583
// 109   ----------------------------------------
 BYTE   EOT
 BYTE   Dn3
// 110   ----------------------------------------
 BYTE   PATT
  POIN2 Label_3_01E8B58D
// 111   ----------------------------------------
 BYTE   PATT
  POIN2 Label_3_01E8B595
// 112   ----------------------------------------
 BYTE   W96
// 113   ----------------------------------------
 BYTE   W96
// 114   ----------------------------------------
 BYTE   W24
 BYTE   EOT
 BYTE   Gn3
 BYTE   N24  Gs3  v104
 BYTE   W24
 BYTE   TIE  Gn3
 BYTE   W48
// 115   ----------------------------------------
 BYTE   W96
// 116   ----------------------------------------
 BYTE   EOT
// 117   ----------------------------------------
 BYTE   PATT
  POIN2 Label_3_01E8B5B4
// 118   ----------------------------------------
 BYTE   N24  Cn3  v104
 BYTE   W24
 BYTE   Bn2
 BYTE   W24
 BYTE   TIE  Gn1  v120
 BYTE   N72  Cn2  v104
 BYTE   N72  Gn2
 BYTE   W48
// 119   ----------------------------------------
 BYTE   W24
 BYTE   Gs2
 BYTE   W72
// 120   ----------------------------------------
Label_3_01E8B630:
 BYTE   N72  An2  v104
 BYTE   W72
 BYTE   As2
 BYTE   W24
 BYTE   PEND 
// 121   ----------------------------------------
 BYTE   W48
 BYTE   Gn2
 BYTE   W48
// 122   ----------------------------------------
 BYTE   W24
 BYTE   Gs2
 BYTE   W72
// 123   ----------------------------------------
 BYTE   PATT
  POIN2 Label_3_01E8B630
// 124   ----------------------------------------
 BYTE   W48
 BYTE   EOT
 BYTE   Gn1
 BYTE   N72  Gn1  v104
 BYTE   TIE  Bn1  v120
 BYTE   N72  Gn2  v104
 BYTE   W48
// 125   ----------------------------------------
 BYTE   W24
 BYTE   Gs2
 BYTE   W72
// 126   ----------------------------------------
 BYTE   PATT
  POIN2 Label_3_01E8B630
// 127   ----------------------------------------
 BYTE   W48
 BYTE   EOT
 BYTE   Bn1
 BYTE   N72  Bn1  v104
 BYTE   N72  Gn2
 BYTE   W48
// 128   ----------------------------------------
 BYTE   W24
 BYTE   Gs2
 BYTE   W72
// 129   ----------------------------------------
 BYTE   PATT
  POIN2 Label_3_01E8B630
// 130   ----------------------------------------
 BYTE   W48
 BYTE   N72  Gn3  v104
 BYTE   W48
// 131   ----------------------------------------
 BYTE   W24
 BYTE   Gs3
 BYTE   W72
// 132   ----------------------------------------
 BYTE   An3
 BYTE   W72
 BYTE   As3
 BYTE   W24
// 133   ----------------------------------------
 BYTE   W96
// 134   ----------------------------------------
 BYTE   W96
// 135   ----------------------------------------
 BYTE   W96
// 136   ----------------------------------------
 BYTE   W96
// 137   ----------------------------------------
 BYTE   W96
// 138   ----------------------------------------
 BYTE   W96
// 139   ----------------------------------------
 BYTE   W96
// 140   ----------------------------------------
 BYTE   W96
// 141   ----------------------------------------
 BYTE   W96
// 142   ----------------------------------------
 BYTE   W96
// 143   ----------------------------------------
 BYTE   W96
// 144   ----------------------------------------
 BYTE   W96
// 145   ----------------------------------------
 BYTE   W96
// 146   ----------------------------------------
 BYTE   W96
// 147   ----------------------------------------
 BYTE   W96
// 148   ----------------------------------------
 BYTE   W96
// 149   ----------------------------------------
 BYTE   W96
// 150   ----------------------------------------
 BYTE   W96
// 151   ----------------------------------------
 BYTE   W96
// 152   ----------------------------------------
 BYTE   W96
// 153   ----------------------------------------
 BYTE   W96
// 154   ----------------------------------------
 BYTE   W96
// 155   ----------------------------------------
 BYTE   W96
// 156   ----------------------------------------
 BYTE   W96
// 157   ----------------------------------------
 BYTE   W96
// 158   ----------------------------------------
 BYTE   W96
// 159   ----------------------------------------
 BYTE   W72
 BYTE   GoTo
  POIN2 Label_3_01E8B475
 BYTE   FINE

//**************** Track 5 (Midi-Chn.4) ****************//

song01E9_005:
// 000   ----------------------------------------
 BYTE   KEYSH   song01E9_key+0
 BYTE   VOICE   48
 BYTE   VOL   43*song01E9_mvl/mxv
 BYTE   W48
 BYTE   N06  Cn5  v096
 BYTE   W06
 BYTE   Dn5
 BYTE   W06
 BYTE   Ds5
 BYTE   W06
 BYTE   Fn5
 BYTE   W06
 BYTE   N24  Dn3  v104
 BYTE   N24  Gn3
 BYTE   W24
// 001   ----------------------------------------
Label_4_01E8BCBF:
 BYTE   W48
 BYTE   N24  Dn3  v104
 BYTE   N24  Gn3
 BYTE   W48
 BYTE   PEND 
// 002   ----------------------------------------
Label_4_01E8BCC7:
 BYTE   N24  Dn3  v104
 BYTE   N24  Gn3
 BYTE   W24
 BYTE   Dn3
 BYTE   N24  Gn3
 BYTE   W72
 BYTE   PEND 
// 003   ----------------------------------------
Label_4_01E8BCD2:
 BYTE   N12  Ds3  v104
 BYTE   N12  Gs3
 BYTE   W12
 BYTE   Ds3
 BYTE   N12  Gs3
 BYTE   W24
 BYTE   Ds3
 BYTE   N12  Gs3
 BYTE   W24
 BYTE   Ds3
 BYTE   N12  Gs3
 BYTE   W12
 BYTE   N24  Dn3
 BYTE   N24  Gn3
 BYTE   W24
 BYTE   PEND 
// 004   ----------------------------------------
 BYTE   PATT
  POIN2 Label_4_01E8BCBF
// 005   ----------------------------------------
 BYTE   PATT
  POIN2 Label_4_01E8BCC7
// 006   ----------------------------------------
 BYTE   N12  Cn3  v104
 BYTE   N12  Fs3
 BYTE   W12
 BYTE   Cn3
 BYTE   N12  Fs3
 BYTE   W24
 BYTE   Cn3
 BYTE   N12  Fs3
 BYTE   W24
 BYTE   Cn3
 BYTE   N12  Fs3
 BYTE   W12
 BYTE   N24  As2
 BYTE   N24  Gn3
 BYTE   W24
// 007   ----------------------------------------
 BYTE   W48
 BYTE   As2
 BYTE   N24  Gn3
 BYTE   W48
// 008   ----------------------------------------
 BYTE   As2
 BYTE   N24  Gn3
 BYTE   W24
 BYTE   As2
 BYTE   N24  Gn3
 BYTE   W72
// 009   ----------------------------------------
 BYTE   PATT
  POIN2 Label_4_01E8BCD2
// 010   ----------------------------------------
 BYTE   PATT
  POIN2 Label_4_01E8BCBF
// 011   ----------------------------------------
 BYTE   PATT
  POIN2 Label_4_01E8BCC7
// 012   ----------------------------------------
 BYTE   N12  Dn3  v104
 BYTE   N12  Fn3
 BYTE   W12
 BYTE   Ds3
 BYTE   N12  Gn3
 BYTE   W12
 BYTE   Fn3
 BYTE   N12  Gs3
 BYTE   W12
 BYTE   Ds3
 BYTE   N12  Gn3
 BYTE   W12
 BYTE   Fn3
 BYTE   N12  Gs3
 BYTE   W12
 BYTE   Gn3
 BYTE   N12  As3
 BYTE   W12
 BYTE   N24  Gn3
 BYTE   N24  Ds4
 BYTE   W24
// 013   ----------------------------------------
Label_4_01E8BD46:
 BYTE   N12  Gn3  v104
 BYTE   N12  Ds4
 BYTE   W12
 BYTE   Gn3
 BYTE   N12  Ds4
 BYTE   W24
 BYTE   Gn3
 BYTE   N12  Ds4
 BYTE   W12
 BYTE   Gn3
 BYTE   N12  Ds4
 BYTE   W24
 BYTE   N24  Gn3
 BYTE   N24  Ds4
 BYTE   W24
 BYTE   PEND 
// 014   ----------------------------------------
Label_4_01E8BD5E:
 BYTE   N24  Gn3  v104
 BYTE   N24  Ds4
 BYTE   W24
 BYTE   Gs3
 BYTE   N24  Fn4
 BYTE   W24
 BYTE   Gs3
 BYTE   N24  Fn4
 BYTE   W48
 BYTE   PEND 
// 015   ----------------------------------------
Label_4_01E8BD6D:
 BYTE   W24
 BYTE   N24  Gs3  v104
 BYTE   N24  Fn4
 BYTE   W24
 BYTE   Gs3
 BYTE   N24  Fn4
 BYTE   W24
 BYTE   Fn3
 BYTE   N24  Dn4
 BYTE   W24
 BYTE   PEND 
// 016   ----------------------------------------
Label_4_01E8BD7D:
 BYTE   N12  Fn3  v104
 BYTE   N12  Dn4
 BYTE   W12
 BYTE   Fn3
 BYTE   N12  Dn4
 BYTE   W24
 BYTE   Fn3
 BYTE   N12  Dn4
 BYTE   W12
 BYTE   Fn3
 BYTE   N12  Dn4
 BYTE   W24
 BYTE   N24  Fn3
 BYTE   N24  Dn4
 BYTE   W24
 BYTE   PEND 
// 017   ----------------------------------------
Label_4_01E8BD95:
 BYTE   N24  Fn3  v104
 BYTE   N24  Dn4
 BYTE   W24
 BYTE   Gn3
 BYTE   N24  Ds4
 BYTE   W24
 BYTE   Gn3
 BYTE   N24  Ds4
 BYTE   W48
 BYTE   PEND 
// 018   ----------------------------------------
Label_4_01E8BDA4:
 BYTE   W24
 BYTE   N24  Gn3  v104
 BYTE   N24  Ds4
 BYTE   W24
 BYTE   Gn3
 BYTE   N24  Ds4
 BYTE   W24
 BYTE   Ds3
 BYTE   N24  Cn4
 BYTE   W24
 BYTE   PEND 
// 019   ----------------------------------------
Label_4_01E8BDB4:
 BYTE   N12  Ds3  v104
 BYTE   N12  Cn4
 BYTE   W12
 BYTE   Ds3
 BYTE   N12  Cn4
 BYTE   W24
 BYTE   Ds3
 BYTE   N12  Cn4
 BYTE   W12
 BYTE   Ds3
 BYTE   N12  Cn4
 BYTE   W24
 BYTE   N24  Ds3
 BYTE   N24  Cn4
 BYTE   W24
 BYTE   PEND 
// 020   ----------------------------------------
Label_4_01E8BDCC:
 BYTE   N24  Ds3  v104
 BYTE   N24  Cn4
 BYTE   W24
 BYTE   Fn3
 BYTE   N24  Dn4
 BYTE   W24
 BYTE   Fn3
 BYTE   N24  Dn4
 BYTE   W48
 BYTE   PEND 
// 021   ----------------------------------------
Label_4_01E8BDDB:
 BYTE   W24
 BYTE   N24  Fn3  v104
 BYTE   N24  Dn4
 BYTE   W24
 BYTE   Fn3
 BYTE   N24  Dn4
 BYTE   W24
 BYTE   Dn3
 BYTE   N24  Bn3
 BYTE   W24
 BYTE   PEND 
// 022   ----------------------------------------
Label_4_01E8BDEB:
 BYTE   N12  Dn3  v104
 BYTE   N12  Bn3
 BYTE   W12
 BYTE   Dn3
 BYTE   N12  Bn3
 BYTE   W24
 BYTE   Dn3
 BYTE   N12  Bn3
 BYTE   W12
 BYTE   Dn3
 BYTE   N12  Bn3
 BYTE   W24
 BYTE   N24  Dn3
 BYTE   N24  Bn3
 BYTE   W24
 BYTE   PEND 
// 023   ----------------------------------------
Label_4_01E8BE03:
 BYTE   N24  Dn3  v104
 BYTE   N24  Bn3
 BYTE   W24
 BYTE   Ds3
 BYTE   N24  Cn4
 BYTE   W24
 BYTE   Ds3
 BYTE   N24  Cn4
 BYTE   W48
 BYTE   PEND 
// 024   ----------------------------------------
Label_4_01E8BE12:
 BYTE   W24
 BYTE   N24  Ds3  v104
 BYTE   N24  Cn4
 BYTE   W24
 BYTE   Ds3
 BYTE   N24  Cn4
 BYTE   W24
 BYTE   Gn3
 BYTE   N24  Ds4
 BYTE   W24
 BYTE   PEND 
// 025   ----------------------------------------
 BYTE   PATT
  POIN2 Label_4_01E8BD46
// 026   ----------------------------------------
 BYTE   PATT
  POIN2 Label_4_01E8BD5E
// 027   ----------------------------------------
 BYTE   PATT
  POIN2 Label_4_01E8BD6D
// 028   ----------------------------------------
 BYTE   PATT
  POIN2 Label_4_01E8BD7D
// 029   ----------------------------------------
 BYTE   PATT
  POIN2 Label_4_01E8BD95
// 030   ----------------------------------------
 BYTE   PATT
  POIN2 Label_4_01E8BDA4
// 031   ----------------------------------------
 BYTE   PATT
  POIN2 Label_4_01E8BDB4
// 032   ----------------------------------------
 BYTE   PATT
  POIN2 Label_4_01E8BDCC
// 033   ----------------------------------------
 BYTE   W24
 BYTE   N24  Fn3  v104
 BYTE   N24  Dn4
 BYTE   W24
 BYTE   N02  Fn3
 BYTE   N02  Dn4
 BYTE   W02
 BYTE   N21  Fn3
 BYTE   N21  Dn4
 BYTE   W22
 BYTE   N24  Dn3
 BYTE   N24  Bn3
 BYTE   W24
// 034   ----------------------------------------
 BYTE   PATT
  POIN2 Label_4_01E8BDEB
// 035   ----------------------------------------
 BYTE   PATT
  POIN2 Label_4_01E8BE03
// 036   ----------------------------------------
 BYTE   PATT
  POIN2 Label_4_01E8BE12
// 037   ----------------------------------------
 BYTE   PATT
  POIN2 Label_4_01E8BD46
// 038   ----------------------------------------
 BYTE   PATT
  POIN2 Label_4_01E8BD5E
// 039   ----------------------------------------
 BYTE   PATT
  POIN2 Label_4_01E8BD6D
// 040   ----------------------------------------
 BYTE   PATT
  POIN2 Label_4_01E8BD7D
// 041   ----------------------------------------
 BYTE   PATT
  POIN2 Label_4_01E8BD95
// 042   ----------------------------------------
 BYTE   PATT
  POIN2 Label_4_01E8BDA4
// 043   ----------------------------------------
 BYTE   PATT
  POIN2 Label_4_01E8BDB4
// 044   ----------------------------------------
 BYTE   PATT
  POIN2 Label_4_01E8BDCC
// 045   ----------------------------------------
 BYTE   PATT
  POIN2 Label_4_01E8BDDB
// 046   ----------------------------------------
 BYTE   PATT
  POIN2 Label_4_01E8BDEB
// 047   ----------------------------------------
 BYTE   PATT
  POIN2 Label_4_01E8BE03
// 048   ----------------------------------------
 BYTE   PATT
  POIN2 Label_4_01E8BE12
// 049   ----------------------------------------
 BYTE   PATT
  POIN2 Label_4_01E8BD46
// 050   ----------------------------------------
 BYTE   PATT
  POIN2 Label_4_01E8BD5E
// 051   ----------------------------------------
 BYTE   PATT
  POIN2 Label_4_01E8BD6D
// 052   ----------------------------------------
 BYTE   PATT
  POIN2 Label_4_01E8BD7D
// 053   ----------------------------------------
 BYTE   PATT
  POIN2 Label_4_01E8BD95
// 054   ----------------------------------------
 BYTE   PATT
  POIN2 Label_4_01E8BDA4
// 055   ----------------------------------------
 BYTE   PATT
  POIN2 Label_4_01E8BDB4
// 056   ----------------------------------------
 BYTE   PATT
  POIN2 Label_4_01E8BDCC
// 057   ----------------------------------------
 BYTE   PATT
  POIN2 Label_4_01E8BDDB
// 058   ----------------------------------------
 BYTE   PATT
  POIN2 Label_4_01E8BDEB
// 059   ----------------------------------------
 BYTE   PATT
  POIN2 Label_4_01E8BE03
// 060   ----------------------------------------
 BYTE   W24
 BYTE   N24  Ds3  v104
 BYTE   N24  Cn4
 BYTE   W24
 BYTE   Ds3
 BYTE   N24  Cn4
 BYTE   W48
// 061   ----------------------------------------
 BYTE   W96
// 062   ----------------------------------------
 BYTE   W96
// 063   ----------------------------------------
 BYTE   W96
// 064   ----------------------------------------
 BYTE   W96
// 065   ----------------------------------------
 BYTE   W96
// 066   ----------------------------------------
 BYTE   W96
// 067   ----------------------------------------
 BYTE   W96
// 068   ----------------------------------------
 BYTE   W96
// 069   ----------------------------------------
 BYTE   W96
// 070   ----------------------------------------
 BYTE   W96
// 071   ----------------------------------------
 BYTE   W96
// 072   ----------------------------------------
 BYTE   W96
// 073   ----------------------------------------
 BYTE   W96
// 074   ----------------------------------------
 BYTE   W96
// 075   ----------------------------------------
 BYTE   W96
// 076   ----------------------------------------
 BYTE   W96
// 077   ----------------------------------------
 BYTE   W96
// 078   ----------------------------------------
 BYTE   W72
 BYTE   N03  Ds5  v096
 BYTE   W03
 BYTE   N03
 BYTE   W03
 BYTE   N03
 BYTE   W03
 BYTE   N03
 BYTE   W03
 BYTE   N03
 BYTE   W03
 BYTE   N03
 BYTE   W03
 BYTE   N03
 BYTE   W03
 BYTE   N03
 BYTE   W03
// 079   ----------------------------------------
 BYTE   N03
 BYTE   W03
 BYTE   N03
 BYTE   W03
 BYTE   N03
 BYTE   W03
 BYTE   N03
 BYTE   W03
 BYTE   N03
 BYTE   W03
 BYTE   N03
 BYTE   W03
 BYTE   N03
 BYTE   W03
 BYTE   N03
 BYTE   W03
 BYTE   N03
 BYTE   W03
 BYTE   N03
 BYTE   W03
 BYTE   N03
 BYTE   W03
 BYTE   N03
 BYTE   W03
 BYTE   N03
 BYTE   W03
 BYTE   N03
 BYTE   W03
 BYTE   N03
 BYTE   W03
 BYTE   N03
 BYTE   W03
 BYTE   N24  Gn3  v104
 BYTE   N24  Ds4
 BYTE   W24
 BYTE   N12  Gn3
 BYTE   N12  Ds4
 BYTE   W12
 BYTE   Gn3
 BYTE   N12  Ds4
 BYTE   W12
// 080   ----------------------------------------
Label_4_01E8BF40:
 BYTE   W12
 BYTE   N12  Gn3  v104
 BYTE   N12  Ds4
 BYTE   W12
 BYTE   Gn3
 BYTE   N12  Ds4
 BYTE   W24
 BYTE   N24  Gn3
 BYTE   N24  Ds4
 BYTE   W24
 BYTE   Gn3
 BYTE   N24  Ds4
 BYTE   W24
 BYTE   PEND 
// 081   ----------------------------------------
Label_4_01E8BF55:
 BYTE   N24  Gs3  v104
 BYTE   N24  Fn4
 BYTE   W24
 BYTE   Gs3
 BYTE   N24  Fn4
 BYTE   W72
 BYTE   PEND 
// 082   ----------------------------------------
Label_4_01E8BF60:
 BYTE   N24  Gs3  v104
 BYTE   N24  Fn4
 BYTE   W24
 BYTE   Gs3
 BYTE   N24  Fn4
 BYTE   W24
 BYTE   Fn3
 BYTE   N24  Dn4
 BYTE   W24
 BYTE   N12  Fn3
 BYTE   N12  Dn4
 BYTE   W12
 BYTE   Fn3
 BYTE   N12  Dn4
 BYTE   W12
 BYTE   PEND 
// 083   ----------------------------------------
Label_4_01E8BF78:
 BYTE   W12
 BYTE   N12  Fn3  v104
 BYTE   N12  Dn4
 BYTE   W12
 BYTE   Fn3
 BYTE   N12  Dn4
 BYTE   W24
 BYTE   N24  Fn3
 BYTE   N24  Dn4
 BYTE   W24
 BYTE   Fn3
 BYTE   N24  Dn4
 BYTE   W24
 BYTE   PEND 
// 084   ----------------------------------------
Label_4_01E8BF8D:
 BYTE   N24  Gn3  v104
 BYTE   N24  Ds4
 BYTE   W24
 BYTE   Gn3
 BYTE   N24  Ds4
 BYTE   W72
 BYTE   PEND 
// 085   ----------------------------------------
Label_4_01E8BF98:
 BYTE   N24  Gn3  v104
 BYTE   N24  Ds4
 BYTE   W24
 BYTE   Gn3
 BYTE   N24  Ds4
 BYTE   W24
 BYTE   Ds3
 BYTE   N24  Cn4
 BYTE   W24
 BYTE   N12  Ds3
 BYTE   N12  Cn4
 BYTE   W12
 BYTE   Ds3
 BYTE   N12  Cn4
 BYTE   W12
 BYTE   PEND 
// 086   ----------------------------------------
Label_4_01E8BFB0:
 BYTE   W12
 BYTE   N12  Ds3  v104
 BYTE   N12  Cn4
 BYTE   W12
 BYTE   Ds3
 BYTE   N12  Cn4
 BYTE   W24
 BYTE   N24  Ds3
 BYTE   N24  Cn4
 BYTE   W24
 BYTE   Ds3
 BYTE   N24  Cn4
 BYTE   W24
 BYTE   PEND 
// 087   ----------------------------------------
Label_4_01E8BFC5:
 BYTE   N24  Fn3  v104
 BYTE   N24  Dn4
 BYTE   W24
 BYTE   Fn3
 BYTE   N24  Dn4
 BYTE   W72
 BYTE   PEND 
// 088   ----------------------------------------
 BYTE   Fn3
 BYTE   N24  Dn4
 BYTE   W24
 BYTE   N02  Fn3
 BYTE   N02  Dn4
 BYTE   W02
 BYTE   N21  Fn3
 BYTE   N21  Dn4
 BYTE   W22
 BYTE   N24  Dn3
 BYTE   N24  Bn3
 BYTE   W24
 BYTE   N12  Dn3
 BYTE   N12  Bn3
 BYTE   W12
 BYTE   Dn3
 BYTE   N12  Bn3
 BYTE   W12
// 089   ----------------------------------------
Label_4_01E8BFEC:
 BYTE   W12
 BYTE   N12  Dn3  v104
 BYTE   N12  Bn3
 BYTE   W12
 BYTE   Dn3
 BYTE   N12  Bn3
 BYTE   W24
 BYTE   N24  Dn3
 BYTE   N24  Bn3
 BYTE   W24
 BYTE   Dn3
 BYTE   N24  Bn3
 BYTE   W24
 BYTE   PEND 
// 090   ----------------------------------------
Label_4_01E8C001:
 BYTE   N24  Ds3  v104
 BYTE   N24  Cn4
 BYTE   W24
 BYTE   Ds3
 BYTE   N24  Cn4
 BYTE   W72
 BYTE   PEND 
// 091   ----------------------------------------
Label_4_01E8C00C:
 BYTE   N24  Ds3  v104
 BYTE   N24  Cn4
 BYTE   W24
 BYTE   Ds3
 BYTE   N24  Cn4
 BYTE   W24
 BYTE   Gn3
 BYTE   N24  Ds4
 BYTE   W24
 BYTE   N12  Gn3
 BYTE   N12  Ds4
 BYTE   W12
 BYTE   Gn3
 BYTE   N12  Ds4
 BYTE   W12
 BYTE   PEND 
// 092   ----------------------------------------
 BYTE   PATT
  POIN2 Label_4_01E8BF40
// 093   ----------------------------------------
 BYTE   PATT
  POIN2 Label_4_01E8BF55
// 094   ----------------------------------------
 BYTE   PATT
  POIN2 Label_4_01E8BF60
// 095   ----------------------------------------
 BYTE   PATT
  POIN2 Label_4_01E8BF78
// 096   ----------------------------------------
 BYTE   PATT
  POIN2 Label_4_01E8BF8D
// 097   ----------------------------------------
 BYTE   PATT
  POIN2 Label_4_01E8BF98
// 098   ----------------------------------------
 BYTE   PATT
  POIN2 Label_4_01E8BFB0
// 099   ----------------------------------------
 BYTE   PATT
  POIN2 Label_4_01E8BFC5
// 100   ----------------------------------------
Label_4_01E8C04C:
 BYTE   N24  Fn3  v104
 BYTE   N24  Dn4
 BYTE   W24
 BYTE   Fn3
 BYTE   N24  Dn4
 BYTE   W24
 BYTE   Dn3
 BYTE   N24  Bn3
 BYTE   W24
 BYTE   N12  Dn3
 BYTE   N12  Bn3
 BYTE   W12
 BYTE   Dn3
 BYTE   N12  Bn3
 BYTE   W12
 BYTE   PEND 
// 101   ----------------------------------------
 BYTE   PATT
  POIN2 Label_4_01E8BFEC
// 102   ----------------------------------------
 BYTE   PATT
  POIN2 Label_4_01E8C001
// 103   ----------------------------------------
 BYTE   PATT
  POIN2 Label_4_01E8C00C
// 104   ----------------------------------------
 BYTE   PATT
  POIN2 Label_4_01E8BF40
// 105   ----------------------------------------
 BYTE   PATT
  POIN2 Label_4_01E8BF55
// 106   ----------------------------------------
 BYTE   PATT
  POIN2 Label_4_01E8BF60
// 107   ----------------------------------------
 BYTE   PATT
  POIN2 Label_4_01E8BF78
// 108   ----------------------------------------
 BYTE   PATT
  POIN2 Label_4_01E8BF8D
// 109   ----------------------------------------
 BYTE   PATT
  POIN2 Label_4_01E8BF98
// 110   ----------------------------------------
 BYTE   PATT
  POIN2 Label_4_01E8BFB0
// 111   ----------------------------------------
 BYTE   PATT
  POIN2 Label_4_01E8BFC5
// 112   ----------------------------------------
 BYTE   PATT
  POIN2 Label_4_01E8C04C
// 113   ----------------------------------------
 BYTE   PATT
  POIN2 Label_4_01E8BFEC
// 114   ----------------------------------------
 BYTE   PATT
  POIN2 Label_4_01E8C001
// 115   ----------------------------------------
 BYTE   PATT
  POIN2 Label_4_01E8C001
// 116   ----------------------------------------
 BYTE   W96
// 117   ----------------------------------------
 BYTE   W96
// 118   ----------------------------------------
 BYTE   W96
// 119   ----------------------------------------
 BYTE   W96
// 120   ----------------------------------------
 BYTE   W96
// 121   ----------------------------------------
 BYTE   W96
// 122   ----------------------------------------
 BYTE   W96
// 123   ----------------------------------------
 BYTE   W96
// 124   ----------------------------------------
 BYTE   W96
// 125   ----------------------------------------
 BYTE   W96
// 126   ----------------------------------------
 BYTE   W96
// 127   ----------------------------------------
 BYTE   W96
// 128   ----------------------------------------
 BYTE   W96
// 129   ----------------------------------------
 BYTE   W96
// 130   ----------------------------------------
 BYTE   W96
// 131   ----------------------------------------
 BYTE   W96
// 132   ----------------------------------------
 BYTE   W96
// 133   ----------------------------------------
 BYTE   W96
// 134   ----------------------------------------
 BYTE   W96
// 135   ----------------------------------------
 BYTE   W96
// 136   ----------------------------------------
 BYTE   W96
// 137   ----------------------------------------
 BYTE   W96
// 138   ----------------------------------------
 BYTE   W96
// 139   ----------------------------------------
 BYTE   W96
// 140   ----------------------------------------
 BYTE   W96
// 141   ----------------------------------------
 BYTE   W96
// 142   ----------------------------------------
 BYTE   W48
 BYTE   N03  Ds5  v096
 BYTE   W03
 BYTE   N03
 BYTE   W03
 BYTE   N03
 BYTE   W03
 BYTE   N03
 BYTE   W03
 BYTE   N03
 BYTE   W03
 BYTE   N03
 BYTE   W03
 BYTE   N03
 BYTE   W03
 BYTE   N03
 BYTE   W03
 BYTE   N03
 BYTE   W03
 BYTE   N03
 BYTE   W03
 BYTE   N03
 BYTE   W03
 BYTE   N03
 BYTE   W03
 BYTE   N03
 BYTE   W03
 BYTE   N03
 BYTE   W03
 BYTE   N03
 BYTE   W03
 BYTE   N03
 BYTE   W03
// 143   ----------------------------------------
 BYTE   N03
 BYTE   W03
 BYTE   N03
 BYTE   W03
 BYTE   N03
 BYTE   W03
 BYTE   N03
 BYTE   W03
 BYTE   N03
 BYTE   W03
 BYTE   N03
 BYTE   W03
 BYTE   N03
 BYTE   W03
 BYTE   N03
 BYTE   W72
 BYTE   W03
// 144   ----------------------------------------
 BYTE   W96
// 145   ----------------------------------------
 BYTE   W96
// 146   ----------------------------------------
 BYTE   W96
// 147   ----------------------------------------
 BYTE   W96
// 148   ----------------------------------------
 BYTE   W96
// 149   ----------------------------------------
 BYTE   W96
// 150   ----------------------------------------
 BYTE   W96
// 151   ----------------------------------------
 BYTE   W96
// 152   ----------------------------------------
 BYTE   W96
// 153   ----------------------------------------
 BYTE   W96
// 154   ----------------------------------------
 BYTE   W96
// 155   ----------------------------------------
 BYTE   W96
// 156   ----------------------------------------
 BYTE   W72
 BYTE   GoTo
  POIN2 Label_4_01E8BD46
 BYTE   FINE

//**************** Track 6 (Midi-Chn.5) ****************//

song01E9_006:
// 000   ----------------------------------------
 BYTE   KEYSH   song01E9_key+0
 BYTE   VOICE   19
 BYTE   VOL   43*song01E9_mvl/mxv
 BYTE   W72
 BYTE   TIE  Gn2  v096
 BYTE   W24
// 001   ----------------------------------------
 BYTE   W96
// 002   ----------------------------------------
 BYTE   W96
// 003   ----------------------------------------
 BYTE   W48
 BYTE   EOT
 BYTE   N24  Gs2
 BYTE   W24
 BYTE   TIE  Gn2
 BYTE   W24
// 004   ----------------------------------------
 BYTE   W96
// 005   ----------------------------------------
 BYTE   W96
// 006   ----------------------------------------
 BYTE   W48
 BYTE   EOT
 BYTE   N24  Fs2
 BYTE   W24
 BYTE   TIE  Gn2
 BYTE   W24
// 007   ----------------------------------------
 BYTE   W96
// 008   ----------------------------------------
 BYTE   W96
// 009   ----------------------------------------
 BYTE   W72
 BYTE   N01  Gs2
 BYTE   W01
 BYTE   EOT
 BYTE   Gn2
 BYTE   N68
 BYTE   W23
// 010   ----------------------------------------
 BYTE   W96
// 011   ----------------------------------------
 BYTE   W24
 BYTE   W01
 BYTE   Gs2
 BYTE   TIE  As2
 BYTE   W68
 BYTE   W03
// 012   ----------------------------------------
 BYTE   W68
 BYTE   W03
 BYTE   EOT
 BYTE   W24
 BYTE   W01
// 013   ----------------------------------------
Label_5_01E8AC76:
 BYTE   W96
// 014   ----------------------------------------
 BYTE   W96
// 015   ----------------------------------------
 BYTE   W96
// 016   ----------------------------------------
 BYTE   W96
// 017   ----------------------------------------
 BYTE   W96
// 018   ----------------------------------------
 BYTE   W96
// 019   ----------------------------------------
 BYTE   W96
// 020   ----------------------------------------
 BYTE   W96
// 021   ----------------------------------------
 BYTE   W96
// 022   ----------------------------------------
 BYTE   W96
// 023   ----------------------------------------
 BYTE   W96
// 024   ----------------------------------------
 BYTE   W96
// 025   ----------------------------------------
 BYTE   W96
// 026   ----------------------------------------
 BYTE   W96
// 027   ----------------------------------------
 BYTE   W96
// 028   ----------------------------------------
 BYTE   W96
// 029   ----------------------------------------
 BYTE   W96
// 030   ----------------------------------------
 BYTE   W96
// 031   ----------------------------------------
 BYTE   W96
// 032   ----------------------------------------
 BYTE   W96
// 033   ----------------------------------------
 BYTE   W96
// 034   ----------------------------------------
 BYTE   W96
// 035   ----------------------------------------
 BYTE   W96
// 036   ----------------------------------------
 BYTE   W96
// 037   ----------------------------------------
 BYTE   W96
// 038   ----------------------------------------
 BYTE   W96
// 039   ----------------------------------------
 BYTE   W96
// 040   ----------------------------------------
 BYTE   W96
// 041   ----------------------------------------
 BYTE   W96
// 042   ----------------------------------------
 BYTE   W96
// 043   ----------------------------------------
 BYTE   W96
// 044   ----------------------------------------
 BYTE   W96
// 045   ----------------------------------------
 BYTE   W96
// 046   ----------------------------------------
 BYTE   W96
// 047   ----------------------------------------
 BYTE   W96
// 048   ----------------------------------------
 BYTE   W96
// 049   ----------------------------------------
 BYTE   W96
// 050   ----------------------------------------
 BYTE   W96
// 051   ----------------------------------------
 BYTE   W96
// 052   ----------------------------------------
 BYTE   W96
// 053   ----------------------------------------
 BYTE   W96
// 054   ----------------------------------------
 BYTE   W96
// 055   ----------------------------------------
 BYTE   W96
// 056   ----------------------------------------
 BYTE   W96
// 057   ----------------------------------------
 BYTE   W96
// 058   ----------------------------------------
 BYTE   W96
// 059   ----------------------------------------
 BYTE   W96
// 060   ----------------------------------------
 BYTE   W96
// 061   ----------------------------------------
 BYTE   W96
// 062   ----------------------------------------
 BYTE   W96
// 063   ----------------------------------------
 BYTE   W96
// 064   ----------------------------------------
 BYTE   W96
// 065   ----------------------------------------
 BYTE   W96
// 066   ----------------------------------------
 BYTE   W96
// 067   ----------------------------------------
 BYTE   W96
// 068   ----------------------------------------
 BYTE   W96
// 069   ----------------------------------------
 BYTE   W96
// 070   ----------------------------------------
 BYTE   W96
// 071   ----------------------------------------
 BYTE   W96
// 072   ----------------------------------------
 BYTE   W96
// 073   ----------------------------------------
 BYTE   W96
// 074   ----------------------------------------
 BYTE   W96
// 075   ----------------------------------------
 BYTE   W96
// 076   ----------------------------------------
 BYTE   W96
// 077   ----------------------------------------
 BYTE   W96
// 078   ----------------------------------------
 BYTE   W96
// 079   ----------------------------------------
 BYTE   W96
// 080   ----------------------------------------
 BYTE   W96
// 081   ----------------------------------------
 BYTE   W96
// 082   ----------------------------------------
 BYTE   W96
// 083   ----------------------------------------
 BYTE   W96
// 084   ----------------------------------------
 BYTE   W96
// 085   ----------------------------------------
 BYTE   W96
// 086   ----------------------------------------
 BYTE   W96
// 087   ----------------------------------------
 BYTE   W96
// 088   ----------------------------------------
 BYTE   W96
// 089   ----------------------------------------
 BYTE   W96
// 090   ----------------------------------------
 BYTE   W96
// 091   ----------------------------------------
 BYTE   W96
// 092   ----------------------------------------
 BYTE   W96
// 093   ----------------------------------------
 BYTE   W96
// 094   ----------------------------------------
 BYTE   W96
// 095   ----------------------------------------
 BYTE   W96
// 096   ----------------------------------------
 BYTE   W96
// 097   ----------------------------------------
 BYTE   W96
// 098   ----------------------------------------
 BYTE   W96
// 099   ----------------------------------------
 BYTE   W96
// 100   ----------------------------------------
 BYTE   W96
// 101   ----------------------------------------
 BYTE   W96
// 102   ----------------------------------------
 BYTE   W96
// 103   ----------------------------------------
 BYTE   W96
// 104   ----------------------------------------
 BYTE   W96
// 105   ----------------------------------------
 BYTE   W96
// 106   ----------------------------------------
 BYTE   W96
// 107   ----------------------------------------
 BYTE   W96
// 108   ----------------------------------------
 BYTE   W96
// 109   ----------------------------------------
 BYTE   W96
// 110   ----------------------------------------
 BYTE   W96
// 111   ----------------------------------------
 BYTE   W96
// 112   ----------------------------------------
 BYTE   W96
// 113   ----------------------------------------
 BYTE   W96
// 114   ----------------------------------------
 BYTE   W96
// 115   ----------------------------------------
 BYTE   W96
// 116   ----------------------------------------
 BYTE   W96
// 117   ----------------------------------------
 BYTE   W96
// 118   ----------------------------------------
 BYTE   W96
// 119   ----------------------------------------
 BYTE   W96
// 120   ----------------------------------------
 BYTE   W96
// 121   ----------------------------------------
 BYTE   W96
// 122   ----------------------------------------
 BYTE   W96
// 123   ----------------------------------------
 BYTE   W96
// 124   ----------------------------------------
 BYTE   W96
// 125   ----------------------------------------
 BYTE   W96
// 126   ----------------------------------------
 BYTE   W96
// 127   ----------------------------------------
 BYTE   W96
// 128   ----------------------------------------
 BYTE   W96
// 129   ----------------------------------------
 BYTE   W96
// 130   ----------------------------------------
 BYTE   W96
// 131   ----------------------------------------
 BYTE   W96
// 132   ----------------------------------------
 BYTE   W96
// 133   ----------------------------------------
 BYTE   W96
// 134   ----------------------------------------
 BYTE   W96
// 135   ----------------------------------------
 BYTE   W96
// 136   ----------------------------------------
 BYTE   W96
// 137   ----------------------------------------
 BYTE   W96
// 138   ----------------------------------------
 BYTE   W96
// 139   ----------------------------------------
 BYTE   W96
// 140   ----------------------------------------
 BYTE   W96
// 141   ----------------------------------------
 BYTE   W96
// 142   ----------------------------------------
 BYTE   W96
// 143   ----------------------------------------
 BYTE   W24
 BYTE   TIE  Gn3  v100
 BYTE   W72
// 144   ----------------------------------------
 BYTE   W72
 BYTE   EOT
 BYTE   TIE  Gs3
 BYTE   W24
// 145   ----------------------------------------
 BYTE   W96
// 146   ----------------------------------------
 BYTE   W24
 BYTE   EOT
 BYTE   TIE  As3
 BYTE   W72
// 147   ----------------------------------------
 BYTE   W72
 BYTE   EOT
 BYTE   TIE  Cn4
 BYTE   W24
// 148   ----------------------------------------
 BYTE   W96
// 149   ----------------------------------------
 BYTE   W24
 BYTE   EOT
 BYTE   N72  Dn4
 BYTE   W72
// 150   ----------------------------------------
 BYTE   Ds4
 BYTE   W72
 BYTE   Dn4
 BYTE   W24
// 151   ----------------------------------------
 BYTE   W48
 BYTE   Cs4
 BYTE   W48
// 152   ----------------------------------------
 BYTE   W24
 BYTE   TIE  Dn4
 BYTE   W72
// 153   ----------------------------------------
 BYTE   W72
 BYTE   EOT
 BYTE   TIE  Gn4
 BYTE   W24
// 154   ----------------------------------------
 BYTE   W96
// 155   ----------------------------------------
 BYTE   W96
// 156   ----------------------------------------
 BYTE   W72
 BYTE   EOT
 BYTE   GoTo
  POIN2 Label_5_01E8AC76
 BYTE   FINE

//**************** Track 7 (Midi-Chn.6) ****************//

song01E9_007:
// 000   ----------------------------------------
 BYTE   KEYSH   song01E9_key+0
 BYTE   VOICE   119
 BYTE   VOL   43*song01E9_mvl/mxv
 BYTE   W72
 BYTE   TIE  Cn3  v127
 BYTE   W24
// 001   ----------------------------------------
 BYTE   W96
// 002   ----------------------------------------
 BYTE   EOT
 BYTE   W96
// 003   ----------------------------------------
 BYTE   W96
// 004   ----------------------------------------
 BYTE   W96
// 005   ----------------------------------------
 BYTE   W96
// 006   ----------------------------------------
 BYTE   W96
// 007   ----------------------------------------
 BYTE   W96
// 008   ----------------------------------------
 BYTE   W96
// 009   ----------------------------------------
 BYTE   W96
// 010   ----------------------------------------
 BYTE   W96
// 011   ----------------------------------------
 BYTE   W96
// 012   ----------------------------------------
Label_6_01E8AB43:
 BYTE   W72
 BYTE   TIE  Cn3  v127
 BYTE   W24
 BYTE   PEND 
// 013   ----------------------------------------
Label_6_01E8AB49:
 BYTE   W96
// 014   ----------------------------------------
 BYTE   EOT
 BYTE   Cn3
 BYTE   W96
// 015   ----------------------------------------
 BYTE   W96
// 016   ----------------------------------------
 BYTE   W96
// 017   ----------------------------------------
 BYTE   W96
// 018   ----------------------------------------
 BYTE   W96
// 019   ----------------------------------------
 BYTE   W96
// 020   ----------------------------------------
 BYTE   W96
// 021   ----------------------------------------
 BYTE   W96
// 022   ----------------------------------------
 BYTE   W96
// 023   ----------------------------------------
 BYTE   W96
// 024   ----------------------------------------
 BYTE   PATT
  POIN2 Label_6_01E8AB43
// 025   ----------------------------------------
 BYTE   W96
// 026   ----------------------------------------
 BYTE   W24
 BYTE   EOT
 BYTE   Cn3
 BYTE   W72
// 027   ----------------------------------------
 BYTE   W96
// 028   ----------------------------------------
 BYTE   W96
// 029   ----------------------------------------
 BYTE   W96
// 030   ----------------------------------------
 BYTE   W96
// 031   ----------------------------------------
 BYTE   W96
// 032   ----------------------------------------
 BYTE   W96
// 033   ----------------------------------------
 BYTE   W96
// 034   ----------------------------------------
 BYTE   W96
// 035   ----------------------------------------
 BYTE   W96
// 036   ----------------------------------------
 BYTE   PATT
  POIN2 Label_6_01E8AB43
// 037   ----------------------------------------
 BYTE   W96
// 038   ----------------------------------------
 BYTE   W24
 BYTE   EOT
 BYTE   Cn3
 BYTE   W72
// 039   ----------------------------------------
 BYTE   W96
// 040   ----------------------------------------
 BYTE   W96
// 041   ----------------------------------------
 BYTE   W96
// 042   ----------------------------------------
 BYTE   W96
// 043   ----------------------------------------
 BYTE   W96
// 044   ----------------------------------------
 BYTE   W96
// 045   ----------------------------------------
 BYTE   W96
// 046   ----------------------------------------
 BYTE   W96
// 047   ----------------------------------------
 BYTE   W96
// 048   ----------------------------------------
 BYTE   W96
// 049   ----------------------------------------
 BYTE   W96
// 050   ----------------------------------------
 BYTE   W96
// 051   ----------------------------------------
 BYTE   W96
// 052   ----------------------------------------
 BYTE   W96
// 053   ----------------------------------------
 BYTE   W96
// 054   ----------------------------------------
 BYTE   W96
// 055   ----------------------------------------
 BYTE   W96
// 056   ----------------------------------------
 BYTE   W96
// 057   ----------------------------------------
 BYTE   W96
// 058   ----------------------------------------
 BYTE   W96
// 059   ----------------------------------------
 BYTE   W96
// 060   ----------------------------------------
Label_6_01E8AB88:
 BYTE   W48
 BYTE   TIE  Cn3  v127
 BYTE   W48
 BYTE   PEND 
// 061   ----------------------------------------
 BYTE   W96
// 062   ----------------------------------------
 BYTE   EOT
 BYTE   W96
// 063   ----------------------------------------
 BYTE   W96
// 064   ----------------------------------------
 BYTE   W96
// 065   ----------------------------------------
 BYTE   W96
// 066   ----------------------------------------
 BYTE   PATT
  POIN2 Label_6_01E8AB43
// 067   ----------------------------------------
 BYTE   W96
// 068   ----------------------------------------
 BYTE   W24
 BYTE   EOT
 BYTE   Cn3
 BYTE   W72
// 069   ----------------------------------------
 BYTE   W96
// 070   ----------------------------------------
 BYTE   W96
// 071   ----------------------------------------
 BYTE   W96
// 072   ----------------------------------------
 BYTE   PATT
  POIN2 Label_6_01E8AB43
// 073   ----------------------------------------
 BYTE   W96
// 074   ----------------------------------------
 BYTE   W24
 BYTE   EOT
 BYTE   Cn3
 BYTE   W72
// 075   ----------------------------------------
 BYTE   W96
// 076   ----------------------------------------
 BYTE   W96
// 077   ----------------------------------------
 BYTE   W96
// 078   ----------------------------------------
 BYTE   W96
// 079   ----------------------------------------
 BYTE   PATT
  POIN2 Label_6_01E8AB88
// 080   ----------------------------------------
 BYTE   W96
// 081   ----------------------------------------
 BYTE   EOT
 BYTE   Cn3
 BYTE   W96
// 082   ----------------------------------------
 BYTE   W96
// 083   ----------------------------------------
 BYTE   W96
// 084   ----------------------------------------
 BYTE   W96
// 085   ----------------------------------------
 BYTE   W96
// 086   ----------------------------------------
 BYTE   W96
// 087   ----------------------------------------
 BYTE   W96
// 088   ----------------------------------------
 BYTE   W96
// 089   ----------------------------------------
 BYTE   W96
// 090   ----------------------------------------
 BYTE   W96
// 091   ----------------------------------------
 BYTE   PATT
  POIN2 Label_6_01E8AB88
// 092   ----------------------------------------
 BYTE   W72
 BYTE   EOT
 BYTE   Cn3
 BYTE   W24
// 093   ----------------------------------------
 BYTE   W96
// 094   ----------------------------------------
 BYTE   W96
// 095   ----------------------------------------
 BYTE   W96
// 096   ----------------------------------------
 BYTE   W96
// 097   ----------------------------------------
 BYTE   W96
// 098   ----------------------------------------
 BYTE   W96
// 099   ----------------------------------------
 BYTE   W96
// 100   ----------------------------------------
 BYTE   W96
// 101   ----------------------------------------
 BYTE   W96
// 102   ----------------------------------------
 BYTE   W96
// 103   ----------------------------------------
 BYTE   W96
// 104   ----------------------------------------
 BYTE   W96
// 105   ----------------------------------------
 BYTE   W96
// 106   ----------------------------------------
 BYTE   W96
// 107   ----------------------------------------
 BYTE   W96
// 108   ----------------------------------------
 BYTE   W96
// 109   ----------------------------------------
 BYTE   W96
// 110   ----------------------------------------
 BYTE   W96
// 111   ----------------------------------------
 BYTE   W96
// 112   ----------------------------------------
 BYTE   W96
// 113   ----------------------------------------
 BYTE   W96
// 114   ----------------------------------------
 BYTE   W96
// 115   ----------------------------------------
 BYTE   PATT
  POIN2 Label_6_01E8AB88
// 116   ----------------------------------------
 BYTE   W96
// 117   ----------------------------------------
 BYTE   EOT
 BYTE   Cn3
 BYTE   W96
// 118   ----------------------------------------
 BYTE   W96
// 119   ----------------------------------------
 BYTE   W96
// 120   ----------------------------------------
 BYTE   W96
// 121   ----------------------------------------
 BYTE   W96
// 122   ----------------------------------------
 BYTE   W96
// 123   ----------------------------------------
 BYTE   W96
// 124   ----------------------------------------
 BYTE   W96
// 125   ----------------------------------------
 BYTE   W96
// 126   ----------------------------------------
 BYTE   W96
// 127   ----------------------------------------
 BYTE   W96
// 128   ----------------------------------------
 BYTE   W96
// 129   ----------------------------------------
 BYTE   W96
// 130   ----------------------------------------
 BYTE   PATT
  POIN2 Label_6_01E8AB88
// 131   ----------------------------------------
 BYTE   W96
// 132   ----------------------------------------
 BYTE   EOT
 BYTE   Cn3
 BYTE   W96
// 133   ----------------------------------------
 BYTE   W96
// 134   ----------------------------------------
 BYTE   W96
// 135   ----------------------------------------
 BYTE   W96
// 136   ----------------------------------------
 BYTE   PATT
  POIN2 Label_6_01E8AB88
// 137   ----------------------------------------
 BYTE   W96
// 138   ----------------------------------------
 BYTE   EOT
 BYTE   Cn3
 BYTE   W96
// 139   ----------------------------------------
 BYTE   W96
// 140   ----------------------------------------
 BYTE   W96
// 141   ----------------------------------------
 BYTE   W96
// 142   ----------------------------------------
 BYTE   W96
// 143   ----------------------------------------
Label_6_01E8AC0E:
 BYTE   W24
 BYTE   TIE  Cn3  v127
 BYTE   W72
 BYTE   PEND 
// 144   ----------------------------------------
 BYTE   W72
 BYTE   EOT
 BYTE   W24
// 145   ----------------------------------------
 BYTE   W96
// 146   ----------------------------------------
 BYTE   W96
// 147   ----------------------------------------
 BYTE   W96
// 148   ----------------------------------------
 BYTE   W96
// 149   ----------------------------------------
 BYTE   PATT
  POIN2 Label_6_01E8AC0E
// 150   ----------------------------------------
 BYTE   W72
 BYTE   EOT
 BYTE   Cn3
 BYTE   TIE  Cn3  v127
 BYTE   W24
// 151   ----------------------------------------
 BYTE   W96
// 152   ----------------------------------------
 BYTE   W24
 BYTE   EOT
 BYTE   TIE
 BYTE   W72
// 153   ----------------------------------------
 BYTE   W72
 BYTE   EOT
 BYTE   TIE
 BYTE   W24
// 154   ----------------------------------------
 BYTE   W96
// 155   ----------------------------------------
 BYTE   W24
 BYTE   EOT
 BYTE   W72
// 156   ----------------------------------------
 BYTE   W72
 BYTE   GoTo
  POIN2 Label_6_01E8AB49
 BYTE   FINE

//**************** Track 8 (Midi-Chn.7) ****************//

song01E9_008:
// 000   ----------------------------------------
 BYTE   KEYSH   song01E9_key+0
 BYTE   VOICE   0
 BYTE   VOL   63*song01E9_mvl/mxv
 BYTE   W96
// 001   ----------------------------------------
 BYTE   W96
// 002   ----------------------------------------
 BYTE   W96
// 003   ----------------------------------------
 BYTE   W96
// 004   ----------------------------------------
 BYTE   W96
// 005   ----------------------------------------
 BYTE   W96
// 006   ----------------------------------------
 BYTE   W96
// 007   ----------------------------------------
 BYTE   W96
// 008   ----------------------------------------
 BYTE   W96
// 009   ----------------------------------------
 BYTE   W96
// 010   ----------------------------------------
 BYTE   W96
// 011   ----------------------------------------
 BYTE   W96
// 012   ----------------------------------------
 BYTE   W72
 BYTE   N12  Cn1  v116
 BYTE   W12
 BYTE   As0
 BYTE   W12
// 013   ----------------------------------------
Label_7_01E8AD61:
 BYTE   N12  Cn1  v116
 BYTE   W12
 BYTE   Gn0
 BYTE   W12
 BYTE   Gs0
 BYTE   W12
 BYTE   As0
 BYTE   W12
 BYTE   Cn1
 BYTE   W12
 BYTE   As0
 BYTE   W12
 BYTE   Cn1
 BYTE   W12
 BYTE   Gn0
 BYTE   W12
 BYTE   PEND 
// 014   ----------------------------------------
Label_7_01E8AD74:
 BYTE   N12  Gs0  v116
 BYTE   W12
 BYTE   As0
 BYTE   W12
 BYTE   Cn1
 BYTE   W12
 BYTE   As0
 BYTE   W12
 BYTE   Cn1
 BYTE   W12
 BYTE   Gn0
 BYTE   W12
 BYTE   Gs0
 BYTE   W12
 BYTE   As0
 BYTE   W12
 BYTE   PEND 
// 015   ----------------------------------------
Label_7_01E8AD87:
 BYTE   N12  Cn1  v116
 BYTE   W12
 BYTE   As0
 BYTE   W12
 BYTE   Cn1
 BYTE   W12
 BYTE   Gn0
 BYTE   W12
 BYTE   Gs0
 BYTE   W12
 BYTE   As0
 BYTE   W12
 BYTE   Cn1
 BYTE   W12
 BYTE   As0
 BYTE   W12
 BYTE   PEND 
// 016   ----------------------------------------
 BYTE   PATT
  POIN2 Label_7_01E8AD61
// 017   ----------------------------------------
 BYTE   PATT
  POIN2 Label_7_01E8AD74
// 018   ----------------------------------------
 BYTE   PATT
  POIN2 Label_7_01E8AD87
// 019   ----------------------------------------
 BYTE   PATT
  POIN2 Label_7_01E8AD61
// 020   ----------------------------------------
 BYTE   PATT
  POIN2 Label_7_01E8AD74
// 021   ----------------------------------------
 BYTE   PATT
  POIN2 Label_7_01E8AD87
// 022   ----------------------------------------
 BYTE   PATT
  POIN2 Label_7_01E8AD61
// 023   ----------------------------------------
 BYTE   PATT
  POIN2 Label_7_01E8AD74
// 024   ----------------------------------------
 BYTE   PATT
  POIN2 Label_7_01E8AD87
// 025   ----------------------------------------
 BYTE   PATT
  POIN2 Label_7_01E8AD61
// 026   ----------------------------------------
 BYTE   PATT
  POIN2 Label_7_01E8AD74
// 027   ----------------------------------------
 BYTE   PATT
  POIN2 Label_7_01E8AD87
// 028   ----------------------------------------
 BYTE   PATT
  POIN2 Label_7_01E8AD61
// 029   ----------------------------------------
 BYTE   PATT
  POIN2 Label_7_01E8AD74
// 030   ----------------------------------------
 BYTE   PATT
  POIN2 Label_7_01E8AD87
// 031   ----------------------------------------
 BYTE   PATT
  POIN2 Label_7_01E8AD61
// 032   ----------------------------------------
 BYTE   PATT
  POIN2 Label_7_01E8AD74
// 033   ----------------------------------------
 BYTE   N12  Cn1  v116
 BYTE   W12
 BYTE   As0
 BYTE   W12
 BYTE   Cn1
 BYTE   W12
 BYTE   Gn0
 BYTE   W12
 BYTE   N02  Gs0
 BYTE   W02
 BYTE   N09
 BYTE   W10
 BYTE   N12  As0
 BYTE   W12
 BYTE   Cn1
 BYTE   W12
 BYTE   As0
 BYTE   W12
// 034   ----------------------------------------
 BYTE   PATT
  POIN2 Label_7_01E8AD61
// 035   ----------------------------------------
 BYTE   PATT
  POIN2 Label_7_01E8AD74
// 036   ----------------------------------------
 BYTE   PATT
  POIN2 Label_7_01E8AD87
// 037   ----------------------------------------
 BYTE   PATT
  POIN2 Label_7_01E8AD61
// 038   ----------------------------------------
 BYTE   PATT
  POIN2 Label_7_01E8AD74
// 039   ----------------------------------------
 BYTE   PATT
  POIN2 Label_7_01E8AD87
// 040   ----------------------------------------
 BYTE   PATT
  POIN2 Label_7_01E8AD61
// 041   ----------------------------------------
 BYTE   PATT
  POIN2 Label_7_01E8AD74
// 042   ----------------------------------------
 BYTE   PATT
  POIN2 Label_7_01E8AD87
// 043   ----------------------------------------
 BYTE   PATT
  POIN2 Label_7_01E8AD61
// 044   ----------------------------------------
 BYTE   PATT
  POIN2 Label_7_01E8AD74
// 045   ----------------------------------------
 BYTE   PATT
  POIN2 Label_7_01E8AD87
// 046   ----------------------------------------
 BYTE   PATT
  POIN2 Label_7_01E8AD61
// 047   ----------------------------------------
 BYTE   PATT
  POIN2 Label_7_01E8AD74
// 048   ----------------------------------------
 BYTE   PATT
  POIN2 Label_7_01E8AD87
// 049   ----------------------------------------
 BYTE   PATT
  POIN2 Label_7_01E8AD61
// 050   ----------------------------------------
 BYTE   PATT
  POIN2 Label_7_01E8AD74
// 051   ----------------------------------------
 BYTE   PATT
  POIN2 Label_7_01E8AD87
// 052   ----------------------------------------
 BYTE   PATT
  POIN2 Label_7_01E8AD61
// 053   ----------------------------------------
 BYTE   PATT
  POIN2 Label_7_01E8AD74
// 054   ----------------------------------------
 BYTE   PATT
  POIN2 Label_7_01E8AD87
// 055   ----------------------------------------
 BYTE   PATT
  POIN2 Label_7_01E8AD61
// 056   ----------------------------------------
 BYTE   PATT
  POIN2 Label_7_01E8AD74
// 057   ----------------------------------------
 BYTE   PATT
  POIN2 Label_7_01E8AD87
// 058   ----------------------------------------
 BYTE   PATT
  POIN2 Label_7_01E8AD61
// 059   ----------------------------------------
 BYTE   PATT
  POIN2 Label_7_01E8AD74
// 060   ----------------------------------------
 BYTE   N12  Cn1  v116
 BYTE   W12
 BYTE   As0
 BYTE   W12
 BYTE   Cn1
 BYTE   W12
 BYTE   Gn0
 BYTE   W12
 BYTE   Gs0
 BYTE   W12
 BYTE   As0
 BYTE   W12
 BYTE   Bn0
 BYTE   W12
 BYTE   An0
 BYTE   W12
// 061   ----------------------------------------
Label_7_01E8AE99:
 BYTE   N12  Bn0  v116
 BYTE   W12
 BYTE   Fs0
 BYTE   W12
 BYTE   Gn0
 BYTE   W12
 BYTE   An0
 BYTE   W12
 BYTE   Bn0
 BYTE   W12
 BYTE   An0
 BYTE   W12
 BYTE   Bn0
 BYTE   W12
 BYTE   Fs0
 BYTE   W12
 BYTE   PEND 
// 062   ----------------------------------------
Label_7_01E8AEAC:
 BYTE   N12  Gn0  v116
 BYTE   W12
 BYTE   An0
 BYTE   W12
 BYTE   Bn0
 BYTE   W12
 BYTE   An0
 BYTE   W12
 BYTE   Bn0
 BYTE   W12
 BYTE   Fs0
 BYTE   W12
 BYTE   Gn0
 BYTE   W12
 BYTE   An0
 BYTE   W12
 BYTE   PEND 
// 063   ----------------------------------------
Label_7_01E8AEBF:
 BYTE   N12  Bn0  v116
 BYTE   W12
 BYTE   An0
 BYTE   W12
 BYTE   Bn0
 BYTE   W12
 BYTE   Fs0
 BYTE   W12
 BYTE   Gn0
 BYTE   W12
 BYTE   An0
 BYTE   W12
 BYTE   Bn0
 BYTE   W12
 BYTE   An0
 BYTE   W12
 BYTE   PEND 
// 064   ----------------------------------------
 BYTE   PATT
  POIN2 Label_7_01E8AE99
// 065   ----------------------------------------
 BYTE   PATT
  POIN2 Label_7_01E8AEAC
// 066   ----------------------------------------
 BYTE   N12  Bn0  v116
 BYTE   W12
 BYTE   An0
 BYTE   W12
 BYTE   Bn0
 BYTE   W12
 BYTE   Fs0
 BYTE   W12
 BYTE   Gn0
 BYTE   W12
 BYTE   An0
 BYTE   W36
// 067   ----------------------------------------
 BYTE   W96
// 068   ----------------------------------------
 BYTE   W96
// 069   ----------------------------------------
 BYTE   W96
// 070   ----------------------------------------
 BYTE   W96
// 071   ----------------------------------------
 BYTE   W96
// 072   ----------------------------------------
 BYTE   W96
// 073   ----------------------------------------
 BYTE   W96
// 074   ----------------------------------------
 BYTE   W96
// 075   ----------------------------------------
 BYTE   W96
// 076   ----------------------------------------
 BYTE   W96
// 077   ----------------------------------------
 BYTE   W96
// 078   ----------------------------------------
 BYTE   W96
// 079   ----------------------------------------
 BYTE   W48
 BYTE   Cn1
 BYTE   W12
 BYTE   As0
 BYTE   W12
 BYTE   Cn1
 BYTE   W12
 BYTE   Gn0
 BYTE   W12
// 080   ----------------------------------------
 BYTE   PATT
  POIN2 Label_7_01E8AD74
// 081   ----------------------------------------
 BYTE   PATT
  POIN2 Label_7_01E8AD87
// 082   ----------------------------------------
 BYTE   PATT
  POIN2 Label_7_01E8AD61
// 083   ----------------------------------------
 BYTE   PATT
  POIN2 Label_7_01E8AD74
// 084   ----------------------------------------
 BYTE   PATT
  POIN2 Label_7_01E8AD87
// 085   ----------------------------------------
 BYTE   PATT
  POIN2 Label_7_01E8AD61
// 086   ----------------------------------------
 BYTE   PATT
  POIN2 Label_7_01E8AD74
// 087   ----------------------------------------
 BYTE   PATT
  POIN2 Label_7_01E8AD87
// 088   ----------------------------------------
 BYTE   N12  Cn1  v116
 BYTE   W12
 BYTE   Gn0
 BYTE   W12
 BYTE   N02  Gs0
 BYTE   W02
 BYTE   N09
 BYTE   W10
 BYTE   N12  As0
 BYTE   W12
 BYTE   Cn1
 BYTE   W12
 BYTE   As0
 BYTE   W12
 BYTE   Cn1
 BYTE   W12
 BYTE   Gn0
 BYTE   W12
// 089   ----------------------------------------
 BYTE   PATT
  POIN2 Label_7_01E8AD74
// 090   ----------------------------------------
 BYTE   PATT
  POIN2 Label_7_01E8AD87
// 091   ----------------------------------------
 BYTE   PATT
  POIN2 Label_7_01E8AD61
// 092   ----------------------------------------
 BYTE   PATT
  POIN2 Label_7_01E8AD74
// 093   ----------------------------------------
 BYTE   PATT
  POIN2 Label_7_01E8AD87
// 094   ----------------------------------------
 BYTE   PATT
  POIN2 Label_7_01E8AD61
// 095   ----------------------------------------
 BYTE   PATT
  POIN2 Label_7_01E8AD74
// 096   ----------------------------------------
 BYTE   PATT
  POIN2 Label_7_01E8AD87
// 097   ----------------------------------------
 BYTE   PATT
  POIN2 Label_7_01E8AD61
// 098   ----------------------------------------
 BYTE   PATT
  POIN2 Label_7_01E8AD74
// 099   ----------------------------------------
 BYTE   PATT
  POIN2 Label_7_01E8AD87
// 100   ----------------------------------------
 BYTE   PATT
  POIN2 Label_7_01E8AD61
// 101   ----------------------------------------
 BYTE   PATT
  POIN2 Label_7_01E8AD74
// 102   ----------------------------------------
 BYTE   PATT
  POIN2 Label_7_01E8AD87
// 103   ----------------------------------------
 BYTE   PATT
  POIN2 Label_7_01E8AD61
// 104   ----------------------------------------
 BYTE   PATT
  POIN2 Label_7_01E8AD74
// 105   ----------------------------------------
 BYTE   PATT
  POIN2 Label_7_01E8AD87
// 106   ----------------------------------------
 BYTE   PATT
  POIN2 Label_7_01E8AD61
// 107   ----------------------------------------
 BYTE   PATT
  POIN2 Label_7_01E8AD74
// 108   ----------------------------------------
 BYTE   PATT
  POIN2 Label_7_01E8AD87
// 109   ----------------------------------------
 BYTE   PATT
  POIN2 Label_7_01E8AD61
// 110   ----------------------------------------
 BYTE   PATT
  POIN2 Label_7_01E8AD74
// 111   ----------------------------------------
 BYTE   PATT
  POIN2 Label_7_01E8AD87
// 112   ----------------------------------------
 BYTE   PATT
  POIN2 Label_7_01E8AD61
// 113   ----------------------------------------
 BYTE   PATT
  POIN2 Label_7_01E8AD74
// 114   ----------------------------------------
 BYTE   PATT
  POIN2 Label_7_01E8AD87
// 115   ----------------------------------------
 BYTE   N12  Cn1  v116
 BYTE   W12
 BYTE   Gn0
 BYTE   W12
 BYTE   Gs0
 BYTE   W12
 BYTE   As0
 BYTE   W12
 BYTE   Bn0
 BYTE   W12
 BYTE   An0
 BYTE   W12
 BYTE   Bn0
 BYTE   W12
 BYTE   Fs0
 BYTE   W12
// 116   ----------------------------------------
 BYTE   PATT
  POIN2 Label_7_01E8AEAC
// 117   ----------------------------------------
 BYTE   PATT
  POIN2 Label_7_01E8AEBF
// 118   ----------------------------------------
 BYTE   PATT
  POIN2 Label_7_01E8AE99
// 119   ----------------------------------------
 BYTE   PATT
  POIN2 Label_7_01E8AEAC
// 120   ----------------------------------------
 BYTE   PATT
  POIN2 Label_7_01E8AEBF
// 121   ----------------------------------------
 BYTE   PATT
  POIN2 Label_7_01E8AE99
// 122   ----------------------------------------
 BYTE   PATT
  POIN2 Label_7_01E8AEAC
// 123   ----------------------------------------
 BYTE   PATT
  POIN2 Label_7_01E8AEBF
// 124   ----------------------------------------
 BYTE   PATT
  POIN2 Label_7_01E8AE99
// 125   ----------------------------------------
 BYTE   PATT
  POIN2 Label_7_01E8AEAC
// 126   ----------------------------------------
 BYTE   PATT
  POIN2 Label_7_01E8AEBF
// 127   ----------------------------------------
 BYTE   PATT
  POIN2 Label_7_01E8AE99
// 128   ----------------------------------------
 BYTE   PATT
  POIN2 Label_7_01E8AEAC
// 129   ----------------------------------------
 BYTE   PATT
  POIN2 Label_7_01E8AEBF
// 130   ----------------------------------------
 BYTE   N12  Bn0  v116
 BYTE   W12
 BYTE   Fs0
 BYTE   W12
 BYTE   Gn0
 BYTE   W12
 BYTE   An0
 BYTE   W60
// 131   ----------------------------------------
 BYTE   W96
// 132   ----------------------------------------
 BYTE   W96
// 133   ----------------------------------------
 BYTE   W96
// 134   ----------------------------------------
 BYTE   W96
// 135   ----------------------------------------
 BYTE   W96
// 136   ----------------------------------------
 BYTE   W96
// 137   ----------------------------------------
 BYTE   W96
// 138   ----------------------------------------
 BYTE   W96
// 139   ----------------------------------------
 BYTE   W96
// 140   ----------------------------------------
 BYTE   W96
// 141   ----------------------------------------
 BYTE   W96
// 142   ----------------------------------------
 BYTE   W96
// 143   ----------------------------------------
 BYTE   W24
 BYTE   Gn2  v096
 BYTE   W12
 BYTE   Dn2
 BYTE   W12
 BYTE   N12
 BYTE   W12
 BYTE   Gn2
 BYTE   W12
 BYTE   Dn2
 BYTE   W12
 BYTE   N12
 BYTE   W12
// 144   ----------------------------------------
 BYTE   Gn2
 BYTE   W12
 BYTE   Dn2
 BYTE   W12
 BYTE   N12
 BYTE   W12
 BYTE   Gn2
 BYTE   W12
 BYTE   Dn2
 BYTE   W12
 BYTE   N12
 BYTE   W12
 BYTE   Gs2
 BYTE   W12
 BYTE   Ds2
 BYTE   W12
// 145   ----------------------------------------
 BYTE   N12
 BYTE   W12
 BYTE   Gs2
 BYTE   W12
 BYTE   Ds2
 BYTE   W12
 BYTE   N12
 BYTE   W12
 BYTE   Gs2
 BYTE   W12
 BYTE   Ds2
 BYTE   W12
 BYTE   N12
 BYTE   W12
 BYTE   Gs2
 BYTE   W12
// 146   ----------------------------------------
 BYTE   Ds2
 BYTE   W12
 BYTE   N12
 BYTE   W12
 BYTE   As2
 BYTE   W12
 BYTE   Fn2
 BYTE   W12
 BYTE   N12
 BYTE   W12
 BYTE   As2
 BYTE   W12
 BYTE   Fn2
 BYTE   W12
 BYTE   N12
 BYTE   W12
// 147   ----------------------------------------
 BYTE   As2
 BYTE   W12
 BYTE   Fn2
 BYTE   W12
 BYTE   N12
 BYTE   W12
 BYTE   As2
 BYTE   W12
 BYTE   Fn2
 BYTE   W12
 BYTE   N12
 BYTE   W12
 BYTE   Cn3
 BYTE   W12
 BYTE   Gn2
 BYTE   W12
// 148   ----------------------------------------
 BYTE   N12
 BYTE   W12
 BYTE   Cn3
 BYTE   W12
 BYTE   Gn2
 BYTE   W12
 BYTE   N12
 BYTE   W12
 BYTE   Cn3
 BYTE   W12
 BYTE   Gn2
 BYTE   W12
 BYTE   N12
 BYTE   W12
 BYTE   Cn3
 BYTE   W12
// 149   ----------------------------------------
 BYTE   Gn2
 BYTE   W12
 BYTE   N12
 BYTE   W12
 BYTE   Dn3
 BYTE   W12
 BYTE   Gn2
 BYTE   W12
 BYTE   N12
 BYTE   W12
 BYTE   Dn3
 BYTE   W12
 BYTE   Gn2
 BYTE   W12
 BYTE   N12
 BYTE   W12
// 150   ----------------------------------------
 BYTE   Ds3
 BYTE   W12
 BYTE   Gs2
 BYTE   W12
 BYTE   N12
 BYTE   W12
 BYTE   As2
 BYTE   W12
 BYTE   Cn3
 BYTE   W12
 BYTE   Ds3
 BYTE   W12
 BYTE   Cn3
 BYTE   W12
 BYTE   Gn2
 BYTE   W12
// 151   ----------------------------------------
 BYTE   N12
 BYTE   W12
 BYTE   Dn3
 BYTE   W12
 BYTE   Gn2
 BYTE   W12
 BYTE   N12
 BYTE   W12
 BYTE   Ds3
 BYTE   W12
 BYTE   Gs2
 BYTE   W12
 BYTE   N12
 BYTE   W12
 BYTE   Ds3
 BYTE   W12
// 152   ----------------------------------------
 BYTE   Gs2
 BYTE   W12
 BYTE   N12
 BYTE   W12
 BYTE   Dn3
 BYTE   W12
 BYTE   Gn2
 BYTE   W12
 BYTE   N12
 BYTE   W12
 BYTE   Dn3
 BYTE   W12
 BYTE   Gn2
 BYTE   W12
 BYTE   N12
 BYTE   W12
// 153   ----------------------------------------
 BYTE   Dn3
 BYTE   W12
 BYTE   Gn2
 BYTE   W12
 BYTE   N12
 BYTE   W12
 BYTE   Dn3
 BYTE   W12
 BYTE   Gn2
 BYTE   W12
 BYTE   N12
 BYTE   W12
 BYTE   Dn3
 BYTE   W12
 BYTE   N12
 BYTE   W12
// 154   ----------------------------------------
 BYTE   N12
 BYTE   W12
 BYTE   N12
 BYTE   W12
 BYTE   N12
 BYTE   W12
 BYTE   N12
 BYTE   W12
 BYTE   N12
 BYTE   W12
 BYTE   N12
 BYTE   W12
 BYTE   N12
 BYTE   W12
 BYTE   N12
 BYTE   W12
// 155   ----------------------------------------
 BYTE   N12
 BYTE   W12
 BYTE   N12
 BYTE   W84
// 156   ----------------------------------------
 BYTE   W72
 BYTE   GoTo
  POIN2 Label_7_01E8AD61
 BYTE   FINE

//**************** Track 9 (Midi-Chn.8) ****************//

song01E9_009:
// 000   ----------------------------------------
 BYTE   KEYSH   song01E9_key+0
 BYTE   VOICE   48
 BYTE   VOL   22*song01E9_mvl/mxv
 BYTE   W96
// 001   ----------------------------------------
 BYTE   W96
// 002   ----------------------------------------
 BYTE   W96
// 003   ----------------------------------------
 BYTE   W96
// 004   ----------------------------------------
 BYTE   W96
// 005   ----------------------------------------
 BYTE   W96
// 006   ----------------------------------------
 BYTE   W96
// 007   ----------------------------------------
 BYTE   W96
// 008   ----------------------------------------
 BYTE   W96
// 009   ----------------------------------------
 BYTE   W96
// 010   ----------------------------------------
 BYTE   W96
// 011   ----------------------------------------
 BYTE   W96
// 012   ----------------------------------------
 BYTE   W72
 BYTE   TIE  Cn5  v100
 BYTE   TIE  Gn5
 BYTE   W24
// 013   ----------------------------------------
Label_8_01E8C129:
 BYTE   W96
// 014   ----------------------------------------
 BYTE   W24
 BYTE   EOT
 BYTE   Cn5  v091
 BYTE   TIE  As4  v100
 BYTE   N72  Cn5  v092
 BYTE   TIE  Fn5  v100
 BYTE   W72
// 015   ----------------------------------------
 BYTE   W72
 BYTE   EOT
 BYTE   As4  v089
 BYTE   N72  As4  v092
 BYTE   TIE  Bn4  v100
 BYTE   TIE  As5
 BYTE   W24
// 016   ----------------------------------------
 BYTE   W96
// 017   ----------------------------------------
 BYTE   W24
 BYTE   EOT
 BYTE   Bn4  v094
 BYTE   N72  Bn4  v096
 BYTE   TIE  Cn5  v100
 BYTE   TIE  Gn5
 BYTE   W72
// 018   ----------------------------------------
 BYTE   W72
 BYTE   EOT
 BYTE   Cn5  v091
 BYTE   TIE  Gs4
 BYTE   N72  Cn5  v092
 BYTE   TIE  Gs5  v100
 BYTE   W24
// 019   ----------------------------------------
 BYTE   W96
// 020   ----------------------------------------
 BYTE   W24
 BYTE   EOT
 BYTE   Gs4  v092
 BYTE   N72  Gs4  v092
 BYTE   TIE  As4  v100
 BYTE   TIE  Fn5
 BYTE   W72
// 021   ----------------------------------------
 BYTE   W72
 BYTE   EOT
 BYTE   As4  v089
 BYTE   N72  As4  v092
 BYTE   TIE  Bn4  v100
 BYTE   TIE  Fn5
 BYTE   W24
// 022   ----------------------------------------
 BYTE   W96
// 023   ----------------------------------------
 BYTE   W24
 BYTE   EOT
 BYTE   Bn4  v089
 BYTE   N72  Bn4  v092
 BYTE   TIE  Cn5  v100
 BYTE   TIE  Ds5
 BYTE   W72
// 024   ----------------------------------------
 BYTE   W72
 BYTE   EOT
 BYTE   Cn5  v087
 BYTE   N72  Cn5
 BYTE   TIE  Gn5
 BYTE   W24
// 025   ----------------------------------------
 BYTE   W96
// 026   ----------------------------------------
 BYTE   W24
 BYTE   EOT
 BYTE   TIE  As4
 BYTE   N72  Cn5  v092
 BYTE   TIE  Fn5  v100
 BYTE   W72
// 027   ----------------------------------------
 BYTE   W72
 BYTE   EOT
 BYTE   As4  v089
 BYTE   N72  As4  v092
 BYTE   TIE  Bn4  v100
 BYTE   TIE  As5
 BYTE   W24
// 028   ----------------------------------------
 BYTE   W96
// 029   ----------------------------------------
 BYTE   W24
 BYTE   EOT
 BYTE   Bn4  v094
 BYTE   N72  Bn4  v096
 BYTE   TIE  Cn5  v100
 BYTE   TIE  Gn5
 BYTE   W72
// 030   ----------------------------------------
 BYTE   W72
 BYTE   EOT
 BYTE   Cn5  v091
 BYTE   TIE  Gs4
 BYTE   N72  Cn5  v092
 BYTE   TIE  Gs5  v100
 BYTE   W24
// 031   ----------------------------------------
 BYTE   W96
// 032   ----------------------------------------
 BYTE   W24
 BYTE   EOT
 BYTE   Gs4  v092
 BYTE   N72  Gs4  v092
 BYTE   TIE  As4  v100
 BYTE   TIE  Fn5
 BYTE   W72
// 033   ----------------------------------------
 BYTE   W48
 BYTE   W02
 BYTE   EOT
 BYTE   As4  v089
 BYTE   N21  As4
 BYTE   N21  Fn5
 BYTE   W22
 BYTE   TIE  Bn4
 BYTE   TIE  Fn5
 BYTE   W24
// 034   ----------------------------------------
 BYTE   W96
// 035   ----------------------------------------
 BYTE   W24
 BYTE   EOT
 BYTE   Bn4  v089
 BYTE   N72  Bn4  v092
 BYTE   TIE  Cn5  v100
 BYTE   TIE  Ds5
 BYTE   W72
// 036   ----------------------------------------
 BYTE   W72
 BYTE   EOT
 BYTE   Cn5  v087
 BYTE   N72  Cn5
 BYTE   TIE  Gn5
 BYTE   W24
// 037   ----------------------------------------
 BYTE   W96
// 038   ----------------------------------------
 BYTE   W24
 BYTE   EOT
 BYTE   TIE  As4
 BYTE   N72  Cn5  v092
 BYTE   TIE  Fn5  v100
 BYTE   W72
// 039   ----------------------------------------
 BYTE   W72
 BYTE   EOT
 BYTE   As4  v089
 BYTE   N72  As4  v092
 BYTE   TIE  Bn4  v100
 BYTE   TIE  As5
 BYTE   W24
// 040   ----------------------------------------
 BYTE   W96
// 041   ----------------------------------------
 BYTE   W24
 BYTE   EOT
 BYTE   Bn4  v094
 BYTE   N72  Bn4  v096
 BYTE   TIE  Cn5  v100
 BYTE   TIE  Gn5
 BYTE   W72
// 042   ----------------------------------------
 BYTE   W72
 BYTE   EOT
 BYTE   Cn5  v091
 BYTE   TIE  Gs4
 BYTE   N72  Cn5  v092
 BYTE   TIE  Gs5  v100
 BYTE   W24
// 043   ----------------------------------------
 BYTE   W96
// 044   ----------------------------------------
 BYTE   W24
 BYTE   EOT
 BYTE   Gs4  v092
 BYTE   N72  Gs4  v092
 BYTE   TIE  As4  v100
 BYTE   TIE  Fn5
 BYTE   W72
// 045   ----------------------------------------
 BYTE   W72
 BYTE   EOT
 BYTE   As4  v089
 BYTE   N72  As4  v092
 BYTE   TIE  Bn4  v100
 BYTE   TIE  Fn5
 BYTE   W24
// 046   ----------------------------------------
 BYTE   W96
// 047   ----------------------------------------
 BYTE   W24
 BYTE   EOT
 BYTE   Bn4  v089
 BYTE   N72  Bn4  v092
 BYTE   TIE  Cn5  v100
 BYTE   TIE  Ds5
 BYTE   W72
// 048   ----------------------------------------
 BYTE   W72
 BYTE   EOT
 BYTE   Cn5  v087
 BYTE   N72  Cn5
 BYTE   TIE  Gn5
 BYTE   W24
// 049   ----------------------------------------
 BYTE   W96
// 050   ----------------------------------------
 BYTE   W24
 BYTE   EOT
 BYTE   TIE  As4
 BYTE   N72  Cn5  v092
 BYTE   TIE  Fn5  v100
 BYTE   W72
// 051   ----------------------------------------
 BYTE   W72
 BYTE   EOT
 BYTE   As4  v089
 BYTE   N72  As4  v092
 BYTE   TIE  Bn4  v100
 BYTE   TIE  As5
 BYTE   W24
// 052   ----------------------------------------
 BYTE   W96
// 053   ----------------------------------------
 BYTE   W24
 BYTE   EOT
 BYTE   Bn4  v094
 BYTE   N72  Bn4  v096
 BYTE   TIE  Cn5  v100
 BYTE   TIE  Gn5
 BYTE   W72
// 054   ----------------------------------------
 BYTE   W72
 BYTE   EOT
 BYTE   Cn5  v091
 BYTE   TIE  Gs4
 BYTE   N72  Cn5  v092
 BYTE   TIE  Gs5  v100
 BYTE   W24
// 055   ----------------------------------------
 BYTE   W96
// 056   ----------------------------------------
 BYTE   W24
 BYTE   EOT
 BYTE   Gs4  v092
 BYTE   N72  Gs4  v092
 BYTE   TIE  As4  v100
 BYTE   TIE  Fn5
 BYTE   W72
// 057   ----------------------------------------
 BYTE   W72
 BYTE   EOT
 BYTE   As4  v089
 BYTE   N72  As4  v092
 BYTE   TIE  Bn4  v100
 BYTE   TIE  Fn5
 BYTE   W24
// 058   ----------------------------------------
 BYTE   W96
// 059   ----------------------------------------
 BYTE   W24
 BYTE   EOT
 BYTE   Bn4  v089
 BYTE   N72  Bn4  v092
 BYTE   TIE  Cn5  v100
 BYTE   TIE  Ds5
 BYTE   W72
// 060   ----------------------------------------
 BYTE   W72
 BYTE   EOT
 BYTE   Cn5  v087
 BYTE   N72  Gn4
 BYTE   N72  Cn5  v088
 BYTE   W24
// 061   ----------------------------------------
 BYTE   W48
 BYTE   Gs4  v100
 BYTE   W48
// 062   ----------------------------------------
 BYTE   W24
 BYTE   An4
 BYTE   W72
// 063   ----------------------------------------
 BYTE   As4
 BYTE   W72
 BYTE   Gn4
 BYTE   N72  Dn5
 BYTE   W24
// 064   ----------------------------------------
 BYTE   W48
 BYTE   Gs4
 BYTE   N72  Ds5
 BYTE   W48
// 065   ----------------------------------------
 BYTE   W24
 BYTE   An4
 BYTE   N72  Fn5
 BYTE   W72
// 066   ----------------------------------------
 BYTE   As4
 BYTE   N72  Gn5
 BYTE   W72
 BYTE   TIE  Ds4
 BYTE   TIE  Cn5
 BYTE   W24
// 067   ----------------------------------------
 BYTE   W96
// 068   ----------------------------------------
 BYTE   W96
// 069   ----------------------------------------
 BYTE   W72
 BYTE   EOT
 BYTE   Ds4  v084
 BYTE   N72  Ds4  v084
 BYTE   TIE  Fn4  v100
 BYTE   TIE  Cn5
 BYTE   W24
// 070   ----------------------------------------
 BYTE   W96
// 071   ----------------------------------------
 BYTE   W96
// 072   ----------------------------------------
 BYTE   W72
 BYTE   EOT
 BYTE   Fn4  v084
 BYTE   TIE  Ds4
 BYTE   N72  Fn4  v084
 BYTE   TIE  Cn5  v100
 BYTE   W24
// 073   ----------------------------------------
 BYTE   W96
// 074   ----------------------------------------
 BYTE   W96
// 075   ----------------------------------------
 BYTE   W72
 BYTE   EOT
 BYTE   Ds4  v084
 BYTE   N72  Ds4  v084
 BYTE   TIE  Gn4  v100
 BYTE   TIE  Ds5
 BYTE   W24
// 076   ----------------------------------------
 BYTE   W96
// 077   ----------------------------------------
 BYTE   W96
// 078   ----------------------------------------
 BYTE   W72
 BYTE   EOT
 BYTE   Gn4  v087
 BYTE   N03  Gn4  v088
 BYTE   N03  Ds5  v096
 BYTE   W03
 BYTE   N03
 BYTE   W03
 BYTE   N03
 BYTE   W03
 BYTE   N03
 BYTE   W03
 BYTE   N03
 BYTE   W03
 BYTE   N03
 BYTE   W03
 BYTE   N03
 BYTE   W03
 BYTE   N03
 BYTE   W03
// 079   ----------------------------------------
 BYTE   N03
 BYTE   W03
 BYTE   N03
 BYTE   W03
 BYTE   N03
 BYTE   W03
 BYTE   N03
 BYTE   W03
 BYTE   N03
 BYTE   W03
 BYTE   N03
 BYTE   W03
 BYTE   N03
 BYTE   W03
 BYTE   N03
 BYTE   W03
 BYTE   N03
 BYTE   W03
 BYTE   N03
 BYTE   W03
 BYTE   N03
 BYTE   W03
 BYTE   N03
 BYTE   W03
 BYTE   N03
 BYTE   W03
 BYTE   N03
 BYTE   W03
 BYTE   N03
 BYTE   W03
 BYTE   N03
 BYTE   W03
 BYTE   TIE  Cn5  v100
 BYTE   TIE  Gn5
 BYTE   W48
// 080   ----------------------------------------
 BYTE   W96
// 081   ----------------------------------------
 BYTE   EOT
 BYTE   Cn5  v091
Label_8_01E8C359:
 BYTE   TIE  As4  v100
 BYTE   N72  Cn5  v092
 BYTE   TIE  Fn5  v100
 BYTE   W96
 BYTE   PEND 
// 082   ----------------------------------------
 BYTE   W48
 BYTE   EOT
 BYTE   As4  v089
 BYTE   N72  As4  v092
 BYTE   TIE  Bn4  v100
 BYTE   TIE  As5
 BYTE   W48
// 083   ----------------------------------------
 BYTE   W96
// 084   ----------------------------------------
 BYTE   EOT
 BYTE   Bn4  v094
Label_8_01E8C375:
 BYTE   N72  Bn4  v096
 BYTE   TIE  Cn5  v100
 BYTE   TIE  Gn5
 BYTE   W96
 BYTE   PEND 
// 085   ----------------------------------------
 BYTE   W48
 BYTE   EOT
 BYTE   Cn5  v091
 BYTE   TIE  Gs4
 BYTE   N72  Cn5  v092
 BYTE   TIE  Gs5  v100
 BYTE   W48
// 086   ----------------------------------------
 BYTE   W96
// 087   ----------------------------------------
 BYTE   EOT
 BYTE   Gs4  v092
Label_8_01E8C390:
 BYTE   N72  Gs4  v092
 BYTE   TIE  As4  v100
 BYTE   TIE  Fn5
 BYTE   W96
 BYTE   PEND 
// 088   ----------------------------------------
 BYTE   W24
 BYTE   W02
 BYTE   EOT
 BYTE   As4  v089
 BYTE   N21  As4
 BYTE   N21  Fn5
 BYTE   W22
 BYTE   TIE  Bn4
 BYTE   TIE  Fn5
 BYTE   W48
// 089   ----------------------------------------
 BYTE   W96
// 090   ----------------------------------------
 BYTE   EOT
 BYTE   Bn4  v089
Label_8_01E8C3AD:
 BYTE   N72  Bn4  v092
 BYTE   TIE  Cn5  v100
 BYTE   TIE  Ds5
 BYTE   W96
 BYTE   PEND 
// 091   ----------------------------------------
 BYTE   W48
 BYTE   EOT
 BYTE   Cn5  v087
 BYTE   N72  Cn5
 BYTE   TIE  Gn5
 BYTE   W48
// 092   ----------------------------------------
 BYTE   W96
// 093   ----------------------------------------
 BYTE   EOT
// 094   ----------------------------------------
 BYTE   PATT
  POIN2 Label_8_01E8C359
// 095   ----------------------------------------
 BYTE   W48
 BYTE   EOT
 BYTE   As4  v089
 BYTE   N72  As4  v092
 BYTE   TIE  Bn4  v100
 BYTE   TIE  As5
 BYTE   W48
// 096   ----------------------------------------
 BYTE   W96
// 097   ----------------------------------------
 BYTE   EOT
 BYTE   Bn4  v094
// 098   ----------------------------------------
 BYTE   PATT
  POIN2 Label_8_01E8C375
// 099   ----------------------------------------
 BYTE   W48
 BYTE   EOT
 BYTE   Cn5  v091
 BYTE   TIE  Gs4  v100
 BYTE   N72  Cn5  v092
 BYTE   TIE  Gs5  v100
 BYTE   W48
// 100   ----------------------------------------
 BYTE   W96
// 101   ----------------------------------------
 BYTE   EOT
 BYTE   Gs4  v092
// 102   ----------------------------------------
 BYTE   PATT
  POIN2 Label_8_01E8C390
// 103   ----------------------------------------
 BYTE   W48
 BYTE   EOT
 BYTE   As4  v089
 BYTE   N72  As4  v092
 BYTE   TIE  Bn4  v100
 BYTE   TIE  Fn5
 BYTE   W48
// 104   ----------------------------------------
 BYTE   W96
// 105   ----------------------------------------
 BYTE   EOT
 BYTE   Bn4  v089
// 106   ----------------------------------------
 BYTE   PATT
  POIN2 Label_8_01E8C3AD
// 107   ----------------------------------------
 BYTE   W48
 BYTE   EOT
 BYTE   Cn5  v087
 BYTE   N72  Cn5  v100
 BYTE   TIE  Gn5
 BYTE   W48
// 108   ----------------------------------------
 BYTE   W96
// 109   ----------------------------------------
 BYTE   EOT
// 110   ----------------------------------------
 BYTE   PATT
  POIN2 Label_8_01E8C359
// 111   ----------------------------------------
 BYTE   W48
 BYTE   EOT
 BYTE   As4  v089
 BYTE   N72  As4  v092
 BYTE   TIE  Bn4  v100
 BYTE   TIE  As5
 BYTE   W48
// 112   ----------------------------------------
 BYTE   W96
// 113   ----------------------------------------
 BYTE   EOT
 BYTE   Bn4  v094
// 114   ----------------------------------------
 BYTE   PATT
  POIN2 Label_8_01E8C375
// 115   ----------------------------------------
 BYTE   W48
 BYTE   EOT
 BYTE   Cn5  v091
 BYTE   TIE  Gs4  v100
 BYTE   N72  Cn5  v092
 BYTE   TIE  Gs5  v100
 BYTE   W48
// 116   ----------------------------------------
 BYTE   W96
// 117   ----------------------------------------
 BYTE   EOT
 BYTE   Gs4  v092
// 118   ----------------------------------------
 BYTE   PATT
  POIN2 Label_8_01E8C390
// 119   ----------------------------------------
 BYTE   W48
 BYTE   EOT
 BYTE   As4  v089
 BYTE   N72  As4  v092
 BYTE   TIE  Bn4  v100
 BYTE   TIE  Fn5
 BYTE   W48
// 120   ----------------------------------------
 BYTE   W96
// 121   ----------------------------------------
 BYTE   EOT
 BYTE   Bn4  v089
// 122   ----------------------------------------
 BYTE   PATT
  POIN2 Label_8_01E8C3AD
// 123   ----------------------------------------
 BYTE   W48
 BYTE   EOT
 BYTE   Cn5  v087
 BYTE   TIE  Dn4  v100
 BYTE   N72  Cn5  v088
 BYTE   W48
// 124   ----------------------------------------
 BYTE   W96
// 125   ----------------------------------------
 BYTE   EOT
 BYTE   Dn4
 BYTE   TIE  Ds4  v100
 BYTE   W96
// 126   ----------------------------------------
 BYTE   W48
 BYTE   EOT
 BYTE   TIE  En4
 BYTE   W48
// 127   ----------------------------------------
 BYTE   W96
// 128   ----------------------------------------
 BYTE   EOT
 BYTE   TIE  Fn4
 BYTE   W96
// 129   ----------------------------------------
 BYTE   W48
 BYTE   EOT
 BYTE   N72  Gn4
 BYTE   W48
// 130   ----------------------------------------
 BYTE   W24
 BYTE   Gs4
 BYTE   W72
// 131   ----------------------------------------
 BYTE   An4
 BYTE   W72
 BYTE   N48  As4
 BYTE   W24
// 132   ----------------------------------------
 BYTE   W24
 BYTE   N12  Dn5
 BYTE   W12
 BYTE   Gs4
 BYTE   W12
 BYTE   N72  Gn4
 BYTE   W48
// 133   ----------------------------------------
 BYTE   W24
 BYTE   Gs4
 BYTE   W72
// 134   ----------------------------------------
 BYTE   An4
 BYTE   W72
 BYTE   As4
 BYTE   W24
// 135   ----------------------------------------
 BYTE   W48
 BYTE   Gn4
 BYTE   N72  Dn5
 BYTE   W48
// 136   ----------------------------------------
 BYTE   W24
 BYTE   Gs4
 BYTE   N72  Ds5
 BYTE   W72
// 137   ----------------------------------------
 BYTE   An4
 BYTE   N72  Fn5
 BYTE   W72
 BYTE   As4
 BYTE   N72  Gn5
 BYTE   W24
// 138   ----------------------------------------
 BYTE   W48
 BYTE   TIE  Ds4
 BYTE   TIE  Cn5
 BYTE   W48
// 139   ----------------------------------------
 BYTE   W96
// 140   ----------------------------------------
 BYTE   W96
// 141   ----------------------------------------
 BYTE   W48
 BYTE   EOT
 BYTE   Ds4  v084
 BYTE   N72  Ds4  v084
 BYTE   TIE  Fn4  v100
 BYTE   TIE  Cn5
 BYTE   W48
// 142   ----------------------------------------
 BYTE   W96
// 143   ----------------------------------------
 BYTE   W96
// 144   ----------------------------------------
 BYTE   W48
 BYTE   EOT
 BYTE   Fn4  v084
 BYTE   TIE  Ds4
 BYTE   N72  Fn4  v084
 BYTE   TIE  Cn5  v100
 BYTE   W48
// 145   ----------------------------------------
 BYTE   W96
// 146   ----------------------------------------
 BYTE   W96
// 147   ----------------------------------------
 BYTE   W48
 BYTE   EOT
 BYTE   Ds4  v084
 BYTE   N72  Ds4  v084
 BYTE   TIE  Gn4  v100
 BYTE   TIE  Ds5
 BYTE   W48
// 148   ----------------------------------------
 BYTE   W96
// 149   ----------------------------------------
 BYTE   W96
// 150   ----------------------------------------
 BYTE   W48
 BYTE   EOT
 BYTE   Gn4  v087
 BYTE   N03  Gn4  v088
 BYTE   N03  Ds5  v096
 BYTE   W03
 BYTE   N03
 BYTE   W03
 BYTE   N03
 BYTE   W03
 BYTE   N03
 BYTE   W03
 BYTE   N03
 BYTE   W03
 BYTE   N03
 BYTE   W03
 BYTE   N03
 BYTE   W03
 BYTE   N03
 BYTE   W03
 BYTE   N03
 BYTE   W03
 BYTE   N03
 BYTE   W03
 BYTE   N03
 BYTE   W03
 BYTE   N03
 BYTE   W03
 BYTE   N03
 BYTE   W03
 BYTE   N03
 BYTE   W03
 BYTE   N03
 BYTE   W03
 BYTE   N03
 BYTE   W03
// 151   ----------------------------------------
 BYTE   N03
 BYTE   W03
 BYTE   N03
 BYTE   W03
 BYTE   N03
 BYTE   W03
 BYTE   N03
 BYTE   W03
 BYTE   N03
 BYTE   W03
 BYTE   N03
 BYTE   W03
 BYTE   N03
 BYTE   W03
 BYTE   N03
 BYTE   W72
 BYTE   W03
// 152   ----------------------------------------
 BYTE   W96
// 153   ----------------------------------------
 BYTE   W96
// 154   ----------------------------------------
 BYTE   W96
// 155   ----------------------------------------
 BYTE   W96
// 156   ----------------------------------------
 BYTE   W96
// 157   ----------------------------------------
 BYTE   W96
// 158   ----------------------------------------
 BYTE   W96
// 159   ----------------------------------------
 BYTE   W96
// 160   ----------------------------------------
 BYTE   W96
// 161   ----------------------------------------
 BYTE   W96
// 162   ----------------------------------------
 BYTE   W96
// 163   ----------------------------------------
 BYTE   W96
// 164   ----------------------------------------
 BYTE   W72
 BYTE   GoTo
  POIN2 Label_8_01E8C129
 BYTE   FINE

//**************** Track 10 (Midi-Chn.9) ****************//

song01E9_010:
// 000   ----------------------------------------
 BYTE   KEYSH   song01E9_key+0
 BYTE   VOICE   52
 BYTE   VOL   53*song01E9_mvl/mxv
 BYTE   W96
// 001   ----------------------------------------
 BYTE   W96
// 002   ----------------------------------------
 BYTE   W96
// 003   ----------------------------------------
 BYTE   W96
// 004   ----------------------------------------
 BYTE   W96
// 005   ----------------------------------------
 BYTE   W96
// 006   ----------------------------------------
 BYTE   W96
// 007   ----------------------------------------
 BYTE   W96
// 008   ----------------------------------------
 BYTE   W96
// 009   ----------------------------------------
 BYTE   W96
// 010   ----------------------------------------
 BYTE   W96
// 011   ----------------------------------------
 BYTE   W96
// 012   ----------------------------------------
 BYTE   W96
// 013   ----------------------------------------
Label_9_01E8B11F:
 BYTE   W96
// 014   ----------------------------------------
 BYTE   W96
// 015   ----------------------------------------
 BYTE   W96
// 016   ----------------------------------------
 BYTE   W96
// 017   ----------------------------------------
 BYTE   W96
// 018   ----------------------------------------
 BYTE   W96
// 019   ----------------------------------------
 BYTE   W96
// 020   ----------------------------------------
 BYTE   W96
// 021   ----------------------------------------
 BYTE   W96
// 022   ----------------------------------------
 BYTE   W96
// 023   ----------------------------------------
 BYTE   W96
// 024   ----------------------------------------
 BYTE   W96
// 025   ----------------------------------------
 BYTE   W96
// 026   ----------------------------------------
 BYTE   W96
// 027   ----------------------------------------
 BYTE   W96
// 028   ----------------------------------------
 BYTE   W96
// 029   ----------------------------------------
 BYTE   W96
// 030   ----------------------------------------
 BYTE   W96
// 031   ----------------------------------------
 BYTE   W96
// 032   ----------------------------------------
 BYTE   W96
// 033   ----------------------------------------
 BYTE   W96
// 034   ----------------------------------------
 BYTE   W96
// 035   ----------------------------------------
 BYTE   W96
// 036   ----------------------------------------
Label_9_01E8B136:
 BYTE   W72
 BYTE   N24  Gn3  v096
 BYTE   N24  Cn4
 BYTE   W24
 BYTE   PEND 
// 037   ----------------------------------------
Label_9_01E8B13E:
 BYTE   W48
 BYTE   N24  Gn3  v096
 BYTE   N24  Cn4
 BYTE   W48
 BYTE   PEND 
// 038   ----------------------------------------
Label_9_01E8B146:
 BYTE   W24
 BYTE   N24  Gn3  v096
 BYTE   N24  Cn4
 BYTE   W24
 BYTE   Gn3
 BYTE   N24  Cn4
 BYTE   W48
 BYTE   PEND 
// 039   ----------------------------------------
Label_9_01E8B152:
 BYTE   W72
 BYTE   N24  Fn3  v096
 BYTE   N24  Bn3
 BYTE   W24
 BYTE   PEND 
// 040   ----------------------------------------
Label_9_01E8B15A:
 BYTE   W48
 BYTE   N24  Fn3  v096
 BYTE   N24  Bn3
 BYTE   W48
 BYTE   PEND 
// 041   ----------------------------------------
 BYTE   PATT
  POIN2 Label_9_01E8B146
// 042   ----------------------------------------
 BYTE   PATT
  POIN2 Label_9_01E8B136
// 043   ----------------------------------------
 BYTE   PATT
  POIN2 Label_9_01E8B13E
// 044   ----------------------------------------
 BYTE   W24
 BYTE   N24  Gs3  v096
 BYTE   N24  Dn4
 BYTE   W24
 BYTE   Gs3
 BYTE   N24  Dn4
 BYTE   W48
// 045   ----------------------------------------
 BYTE   PATT
  POIN2 Label_9_01E8B152
// 046   ----------------------------------------
 BYTE   PATT
  POIN2 Label_9_01E8B15A
// 047   ----------------------------------------
 BYTE   PATT
  POIN2 Label_9_01E8B146
// 048   ----------------------------------------
 BYTE   W72
 BYTE   N36  Gn3  v096
 BYTE   N36  Ds4
 BYTE   W24
// 049   ----------------------------------------
 BYTE   W12
 BYTE   Gn3
 BYTE   N36  Ds4
 BYTE   W84
// 050   ----------------------------------------
 BYTE   W24
 BYTE   Gs3
 BYTE   N36  Fn4
 BYTE   W36
 BYTE   Gs3
 BYTE   N36  Fn4
 BYTE   W36
// 051   ----------------------------------------
 BYTE   W72
 BYTE   Fn3
 BYTE   N36  Dn4
 BYTE   W24
// 052   ----------------------------------------
 BYTE   W12
 BYTE   Fn3
 BYTE   N36  Dn4
 BYTE   W84
// 053   ----------------------------------------
 BYTE   W24
 BYTE   Gn3
 BYTE   N36  Ds4
 BYTE   W36
 BYTE   Gn3
 BYTE   N36  Ds4
 BYTE   W36
// 054   ----------------------------------------
 BYTE   W72
 BYTE   Ds3
 BYTE   N36  Cn4
 BYTE   W24
// 055   ----------------------------------------
 BYTE   W12
 BYTE   Ds3
 BYTE   N36  Cn4
 BYTE   W84
// 056   ----------------------------------------
 BYTE   W24
 BYTE   Fn3
 BYTE   N36  Dn4
 BYTE   W36
 BYTE   Fn3
 BYTE   N36  Dn4
 BYTE   W36
// 057   ----------------------------------------
 BYTE   W72
 BYTE   Dn3
 BYTE   N36  Bn3
 BYTE   W24
// 058   ----------------------------------------
 BYTE   W12
 BYTE   Dn3
 BYTE   N36  Bn3
 BYTE   W84
// 059   ----------------------------------------
 BYTE   W24
 BYTE   TIE  Ds3
 BYTE   TIE  Cn4
 BYTE   W72
// 060   ----------------------------------------
 BYTE   W72
 BYTE   EOT
 BYTE   Ds3  v072
 BYTE   N24  Gn2  v108
 BYTE   N24  Ds3  v072
 BYTE   W24
// 061   ----------------------------------------
 BYTE   Gs2  v108
 BYTE   W24
 BYTE   Gn2
 BYTE   W24
 BYTE   N24
 BYTE   W24
 BYTE   Gs2
 BYTE   W24
// 062   ----------------------------------------
Label_9_01E8B1EA:
 BYTE   N24  Gn2  v108
 BYTE   W24
 BYTE   N24
 BYTE   W24
 BYTE   Gs2
 BYTE   W24
 BYTE   Gn2
 BYTE   W24
 BYTE   PEND 
// 063   ----------------------------------------
 BYTE   N24
 BYTE   W24
 BYTE   Gs2
 BYTE   W24
 BYTE   Gn2
 BYTE   W24
 BYTE   Gn3
 BYTE   W24
// 064   ----------------------------------------
 BYTE   W12
 BYTE   N24
 BYTE   W36
 BYTE   N24
 BYTE   W36
 BYTE   N24
 BYTE   W12
// 065   ----------------------------------------
 BYTE   W48
 BYTE   Dn4
 BYTE   W24
 BYTE   N24
 BYTE   W24
// 066   ----------------------------------------
 BYTE   N24
 BYTE   W24
 BYTE   N24
 BYTE   W24
 BYTE   N24
 BYTE   W24
 BYTE   TIE  Gn3
 BYTE   TIE  Cn4
 BYTE   W24
// 067   ----------------------------------------
 BYTE   W96
// 068   ----------------------------------------
 BYTE   W96
// 069   ----------------------------------------
 BYTE   W72
 BYTE   EOT
 BYTE   Gn3  v072
 BYTE   N72  Gn3  v072
 BYTE   TIE  Gs3  v108
 BYTE   TIE  Cn4
 BYTE   W24
// 070   ----------------------------------------
 BYTE   W96
// 071   ----------------------------------------
 BYTE   W96
// 072   ----------------------------------------
 BYTE   W72
 BYTE   EOT
 BYTE   Gs3  v072
 BYTE   TIE  Gn3
 BYTE   N72  Gs3  v072
 BYTE   TIE  Cn4  v108
 BYTE   W24
// 073   ----------------------------------------
 BYTE   W96
// 074   ----------------------------------------
 BYTE   W96
// 075   ----------------------------------------
 BYTE   W72
 BYTE   EOT
 BYTE   Gn3  v072
 BYTE   N72  Gn3  v072
 BYTE   TIE  Gs3  v108
 BYTE   TIE  Ds4
 BYTE   W24
// 076   ----------------------------------------
 BYTE   W96
// 077   ----------------------------------------
 BYTE   W96
// 078   ----------------------------------------
 BYTE   W72
 BYTE   EOT
 BYTE   Gs3  v075
 BYTE   N72  Gs3  v076
 BYTE   W24
// 079   ----------------------------------------
 BYTE   W96
// 080   ----------------------------------------
 BYTE   W96
// 081   ----------------------------------------
 BYTE   W96
// 082   ----------------------------------------
 BYTE   W96
// 083   ----------------------------------------
 BYTE   W96
// 084   ----------------------------------------
 BYTE   W96
// 085   ----------------------------------------
 BYTE   W96
// 086   ----------------------------------------
 BYTE   W96
// 087   ----------------------------------------
 BYTE   W96
// 088   ----------------------------------------
 BYTE   W96
// 089   ----------------------------------------
 BYTE   W96
// 090   ----------------------------------------
 BYTE   W96
// 091   ----------------------------------------
 BYTE   PATT
  POIN2 Label_9_01E8B13E
// 092   ----------------------------------------
Label_9_01E8B25C:
 BYTE   W24
 BYTE   N24  Gn3  v096
 BYTE   N24  Cn4
 BYTE   W72
 BYTE   PEND 
// 093   ----------------------------------------
Label_9_01E8B264:
 BYTE   N24  Gn3  v096
 BYTE   N24  Cn4
 BYTE   W24
 BYTE   Gn3
 BYTE   N24  Cn4
 BYTE   W72
 BYTE   PEND 
// 094   ----------------------------------------
 BYTE   PATT
  POIN2 Label_9_01E8B15A
// 095   ----------------------------------------
Label_9_01E8B274:
 BYTE   W24
 BYTE   N24  Fn3  v096
 BYTE   N24  Bn3
 BYTE   W72
 BYTE   PEND 
// 096   ----------------------------------------
 BYTE   PATT
  POIN2 Label_9_01E8B264
// 097   ----------------------------------------
 BYTE   PATT
  POIN2 Label_9_01E8B13E
// 098   ----------------------------------------
 BYTE   PATT
  POIN2 Label_9_01E8B25C
// 099   ----------------------------------------
 BYTE   N24  Gs3  v096
 BYTE   N24  Dn4
 BYTE   W24
 BYTE   Gs3
 BYTE   N24  Dn4
 BYTE   W72
// 100   ----------------------------------------
 BYTE   PATT
  POIN2 Label_9_01E8B15A
// 101   ----------------------------------------
 BYTE   PATT
  POIN2 Label_9_01E8B274
// 102   ----------------------------------------
 BYTE   PATT
  POIN2 Label_9_01E8B264
// 103   ----------------------------------------
 BYTE   W48
 BYTE   N36  Gn3  v096
 BYTE   N36  Ds4
 BYTE   W36
 BYTE   Gn3
 BYTE   N36  Ds4
 BYTE   W12
// 104   ----------------------------------------
 BYTE   W96
// 105   ----------------------------------------
 BYTE   Gs3
 BYTE   N36  Fn4
 BYTE   W36
 BYTE   Gs3
 BYTE   N36  Fn4
 BYTE   W60
// 106   ----------------------------------------
 BYTE   W48
 BYTE   Fn3
 BYTE   N36  Dn4
 BYTE   W36
 BYTE   Fn3
 BYTE   N36  Dn4
 BYTE   W12
// 107   ----------------------------------------
 BYTE   W96
// 108   ----------------------------------------
 BYTE   Gn3
 BYTE   N36  Ds4
 BYTE   W36
 BYTE   Gn3
 BYTE   N36  Ds4
 BYTE   W60
// 109   ----------------------------------------
 BYTE   W48
 BYTE   Ds3
 BYTE   N36  Cn4
 BYTE   W36
 BYTE   Ds3
 BYTE   N36  Cn4
 BYTE   W12
// 110   ----------------------------------------
 BYTE   W96
// 111   ----------------------------------------
 BYTE   Fn3
 BYTE   N36  Dn4
 BYTE   W36
 BYTE   Fn3
 BYTE   N36  Dn4
 BYTE   W60
// 112   ----------------------------------------
 BYTE   W48
 BYTE   Dn3
 BYTE   N36  Bn3
 BYTE   W36
 BYTE   Dn3
 BYTE   N36  Bn3
 BYTE   W12
// 113   ----------------------------------------
 BYTE   W96
// 114   ----------------------------------------
 BYTE   TIE  Ds3
 BYTE   TIE  Cn4
 BYTE   W96
// 115   ----------------------------------------
 BYTE   W48
 BYTE   EOT
 BYTE   Ds3  v072
 BYTE   N72  Dn3  v112
 BYTE   N72  Ds3  v072
 BYTE   N72  Gn3  v112
 BYTE   W48
// 116   ----------------------------------------
 BYTE   W24
 BYTE   Dn3
 BYTE   N72  Gn3
 BYTE   W72
// 117   ----------------------------------------
 BYTE   Ds3
 BYTE   N72  Gs3
 BYTE   W72
 BYTE   Ds3
 BYTE   N72  Gs3
 BYTE   W24
// 118   ----------------------------------------
 BYTE   W48
 BYTE   En3
 BYTE   N72  An3
 BYTE   W48
// 119   ----------------------------------------
 BYTE   W24
 BYTE   En3
 BYTE   N72  An3
 BYTE   W72
// 120   ----------------------------------------
 BYTE   Fn3
 BYTE   N72  As3
 BYTE   W72
 BYTE   Fn3
 BYTE   N72  As3
 BYTE   W24
// 121   ----------------------------------------
 BYTE   W48
 BYTE   Gs3
 BYTE   N72  Fn4
 BYTE   W48
// 122   ----------------------------------------
 BYTE   W24
 BYTE   N36  Gn3
 BYTE   N36  Dn4
 BYTE   W72
// 123   ----------------------------------------
 BYTE   N72  Gs3
 BYTE   N72  Fn4
 BYTE   W72
 BYTE   N36  Bn3
 BYTE   N36  Dn4
 BYTE   W24
// 124   ----------------------------------------
 BYTE   W48
 BYTE   N24  Gn2  v108
 BYTE   W24
 BYTE   Gs2
 BYTE   W24
// 125   ----------------------------------------
 BYTE   PATT
  POIN2 Label_9_01E8B1EA
// 126   ----------------------------------------
 BYTE   N24  Gn2  v108
 BYTE   W24
 BYTE   Gs2
 BYTE   W24
 BYTE   Gn2
 BYTE   W24
 BYTE   N24
 BYTE   W24
// 127   ----------------------------------------
 BYTE   Gs2
 BYTE   W24
 BYTE   Gn2
 BYTE   W24
 BYTE   Gn3
 BYTE   W36
 BYTE   N24
 BYTE   W12
// 128   ----------------------------------------
 BYTE   W24
 BYTE   N24
 BYTE   W36
 BYTE   N24
 BYTE   W36
// 129   ----------------------------------------
 BYTE   W24
 BYTE   Dn4
 BYTE   W24
 BYTE   N24
 BYTE   W24
 BYTE   N24
 BYTE   W24
// 130   ----------------------------------------
 BYTE   N24
 BYTE   W24
 BYTE   N24
 BYTE   W24
 BYTE   TIE  Gn3
 BYTE   TIE  Cn4
 BYTE   W48
// 131   ----------------------------------------
 BYTE   W96
// 132   ----------------------------------------
 BYTE   W96
// 133   ----------------------------------------
 BYTE   W48
 BYTE   EOT
 BYTE   Gn3  v072
 BYTE   N72  Gn3  v072
 BYTE   TIE  Gs3  v108
 BYTE   TIE  Cn4
 BYTE   W48
// 134   ----------------------------------------
 BYTE   W96
// 135   ----------------------------------------
 BYTE   W96
// 136   ----------------------------------------
 BYTE   W48
 BYTE   EOT
 BYTE   Gs3  v072
 BYTE   TIE  Gn3
 BYTE   N72  Gs3  v072
 BYTE   TIE  Cn4  v108
 BYTE   W48
// 137   ----------------------------------------
 BYTE   W96
// 138   ----------------------------------------
 BYTE   W96
// 139   ----------------------------------------
 BYTE   W48
 BYTE   EOT
 BYTE   Gn3  v072
 BYTE   N72  Gn3  v072
 BYTE   TIE  Gs3  v108
 BYTE   TIE  Ds4
 BYTE   W48
// 140   ----------------------------------------
 BYTE   W96
// 141   ----------------------------------------
 BYTE   W96
// 142   ----------------------------------------
 BYTE   W48
 BYTE   EOT
 BYTE   Gs3  v075
 BYTE   N72  Gs3  v076
 BYTE   W48
// 143   ----------------------------------------
 BYTE   W24
 BYTE   N24  Dn3  v096
 BYTE   N24  Gn3
 BYTE   W72
// 144   ----------------------------------------
 BYTE   Dn3  v100
 BYTE   N24  Gn3
 BYTE   W24
 BYTE   Dn3
 BYTE   N24  Gn3
 BYTE   W48
 BYTE   Ds3
 BYTE   N24  Gs3
 BYTE   W24
// 145   ----------------------------------------
 BYTE   W48
 BYTE   Ds3
 BYTE   N24  Gs3
 BYTE   W24
 BYTE   Ds3
 BYTE   N24  Gs3
 BYTE   W24
// 146   ----------------------------------------
 BYTE   Ds3
 BYTE   N24  Gs3
 BYTE   W24
 BYTE   Fn3
 BYTE   N24  As3
 BYTE   W72
// 147   ----------------------------------------
 BYTE   Fn3
 BYTE   N24  As3
 BYTE   W24
 BYTE   Fn3
 BYTE   N24  As3
 BYTE   W48
 BYTE   Gn3
 BYTE   N24  Cn4
 BYTE   W24
// 148   ----------------------------------------
 BYTE   W48
 BYTE   Gn3
 BYTE   N24  Cn4
 BYTE   W24
 BYTE   Gn3
 BYTE   N24  Cn4
 BYTE   W24
// 149   ----------------------------------------
 BYTE   Gn3
 BYTE   N24  Cn4
 BYTE   W24
 BYTE   Dn4
 BYTE   N24  Gn4
 BYTE   W72
// 150   ----------------------------------------
 BYTE   N72  Ds4
 BYTE   N72  Gs4
 BYTE   W72
 BYTE   N24  Dn4
 BYTE   N24  Gn4
 BYTE   W24
// 151   ----------------------------------------
 BYTE   W48
 BYTE   N72  Cs4
 BYTE   N72  Gs4
 BYTE   W48
// 152   ----------------------------------------
 BYTE   W24
 BYTE   N24  Dn4
 BYTE   N24  Gn4
 BYTE   W48
 BYTE   Dn4
 BYTE   N24  Gn4
 BYTE   W24
// 153   ----------------------------------------
 BYTE   W24
 BYTE   Dn4
 BYTE   N24  Gn4
 BYTE   W48
 BYTE   TIE  Dn4
 BYTE   TIE  Gn4
 BYTE   W24
// 154   ----------------------------------------
 BYTE   W96
// 155   ----------------------------------------
 BYTE   W96
// 156   ----------------------------------------
 BYTE   EOT
 BYTE   Dn4  v079
 BYTE   N68  Dn4  v080
 BYTE   W72
 BYTE   GoTo
  POIN2 Label_9_01E8B11F
 BYTE   FINE

//******************************************************//
	ALIGN 4

song01E9:
	BYTE	10	// NumTrks
	BYTE	0	// NumBlks
	BYTE	song01E9_pri	// Priority
	BYTE	song01E9_rev	// Reverb.
    
	POIN2	song01E9_grp
    
	POIN2	song01E9_001
	POIN2	song01E9_002
	POIN2	song01E9_003
	POIN2	song01E9_004
	POIN2	song01E9_005
	POIN2	song01E9_006
	POIN2	song01E9_007
	POIN2	song01E9_008
	POIN2	song01E9_009
	POIN2	song01E9_010

	
