//Event file generated from Sappy .s format.
	#include "MPlayDef.event"

	#define	song58_grp  voicegroup000
	#define	song58_pri  10
	#define	song58_rev  80
	#define	song58_mvl  127
	#define	song58_key  0
	#define	song58_tbs  1
	#define	song58_exg  0
	#define	song58_cmp  1

	// .rodata
	//	song58
	ALIGN 4


//**************** Track 1 (Midi-Chn.0) ****************//

song58_001:
// 000   ----------------------------------------
Label_0_010F690C:
 BYTE   KEYSH   song58_key+0
 BYTE   TEMPO   258*song58_tbs/2
 BYTE   VOICE   61
 BYTE   VOL   50*song58_mvl/mxv
 BYTE   MODT 0
 BYTE   MODT 1
 BYTE   VOL   60*song58_mvl/mxv
 BYTE   PAN   c_v+0
 BYTE   VOL   56*song58_mvl/mxv
 BYTE   N23  Cn1  v112
 BYTE   W24
 BYTE   N23  Gn1  v112
 BYTE   W24
 BYTE   N23  Cn1  v112
 BYTE   W24
 BYTE   N23  Cn1  v112
 BYTE   W24
// 001   ----------------------------------------
 BYTE   N23  Gn1  v112
 BYTE   W24
 BYTE   N23  Cn1  v112
 BYTE   W24
 BYTE   N23  Cn1  v112
 BYTE   W24
 BYTE   N23  Gn1  v112
 BYTE   W24
// 002   ----------------------------------------
 BYTE   N23  Cn1  v112
 BYTE   W24
 BYTE   N23  Gn1  v112
 BYTE   W24
 BYTE   N23  Cn1  v112
 BYTE   W24
 BYTE   N23  Cn1  v112
 BYTE   W24
// 003   ----------------------------------------
 BYTE   N23  Gn1  v112
 BYTE   W24
 BYTE   N23  Cn1  v112
 BYTE   W24
 BYTE   N23  Cn1  v112
 BYTE   W24
 BYTE   N23  Gn1  v112
 BYTE   W24
// 004   ----------------------------------------
 BYTE   N23  Cn1  v112
 BYTE   W24
 BYTE   N23  Gn1  v112
 BYTE   W24
 BYTE   N23  Cn1  v112
 BYTE   W24
 BYTE   N23  Cn1  v112
 BYTE   W24
// 005   ----------------------------------------
 BYTE   N23  Gn1  v112
 BYTE   W24
 BYTE   N23  Cn1  v112
 BYTE   W24
 BYTE   N23  Cn1  v112
 BYTE   W24
 BYTE   N23  Gn1  v112
 BYTE   W24
// 006   ----------------------------------------
 BYTE   N23  Cn1  v112
 BYTE   W24
 BYTE   N23  Gn1  v112
 BYTE   W24
 BYTE   N23  Cn1  v112
 BYTE   W24
 BYTE   N23  Cn1  v112
 BYTE   W24
// 007   ----------------------------------------
 BYTE   N23  Gn1  v112
 BYTE   W24
 BYTE   N23  Cn1  v112
 BYTE   W24
 BYTE   N23  Cn1  v112
 BYTE   W24
 BYTE   N23  Gn1  v112
 BYTE   W24
// 008   ----------------------------------------
 BYTE   N23  Cn1  v112
 BYTE   W24
 BYTE   N23  Gn1  v112
 BYTE   W24
 BYTE   N23  Cn1  v112
 BYTE   W24
 BYTE   N23  Cn1  v112
 BYTE   W24
// 009   ----------------------------------------
 BYTE   N23  Gn1  v112
 BYTE   W24
 BYTE   N23  Cn1  v112
 BYTE   W24
 BYTE   N23  Cn1  v112
 BYTE   W24
 BYTE   N23  Gn1  v112
 BYTE   W24
// 010   ----------------------------------------
 BYTE   N23  Gs0  v112
 BYTE   W24
 BYTE   N23  Ds1  v112
 BYTE   W24
 BYTE   N23  Gs0  v112
 BYTE   W24
 BYTE   N23  Gs0  v112
 BYTE   W24
// 011   ----------------------------------------
 BYTE   N23  Ds1  v112
 BYTE   W24
 BYTE   N23  Gs0  v112
 BYTE   W24
 BYTE   N23  Gs0  v112
 BYTE   W24
 BYTE   N23  Ds1  v112
 BYTE   W24
// 012   ----------------------------------------
 BYTE   N23  Fn0  v112
 BYTE   W24
 BYTE   N23  Cn1  v112
 BYTE   W24
 BYTE   N23  Fn0  v112
 BYTE   W24
 BYTE   N23  Fn0  v112
 BYTE   W24
// 013   ----------------------------------------
 BYTE   N23  Cn1  v112
 BYTE   W24
 BYTE   N23  Fn0  v112
 BYTE   W24
 BYTE   N23  Fn0  v112
 BYTE   W24
 BYTE   N23  Cn1  v112
 BYTE   W24
// 014   ----------------------------------------
 BYTE   N23  Cn1  v112
 BYTE   W24
 BYTE   N23  Gn1  v112
 BYTE   W24
 BYTE   N23  Cn1  v112
 BYTE   W24
 BYTE   N23  Ds1  v112
 BYTE   W24
// 015   ----------------------------------------
 BYTE   N23  Gn0  v112
 BYTE   W24
 BYTE   N23  Dn1  v112
 BYTE   W24
 BYTE   N23  Gn0  v112
 BYTE   W24
 BYTE   N23  Bn0  v112
 BYTE   W24
// 016   ----------------------------------------
 BYTE   N23  Cn1  v112
 BYTE   W24
 BYTE   N23  Gn1  v112
 BYTE   W24
 BYTE   N23  Cn1  v112
 BYTE   W24
 BYTE   N23  Cn1  v112
 BYTE   W24
// 017   ----------------------------------------
 BYTE   N23  Gn1  v112
 BYTE   W24
 BYTE   N23  Cn1  v112
 BYTE   W24
 BYTE   N23  Cn1  v112
 BYTE   W24
 BYTE   N23  Gn1  v112
 BYTE   W24
// 018   ----------------------------------------
 BYTE   N23  Gs0  v112
 BYTE   W24
 BYTE   N23  Ds1  v112
 BYTE   W24
 BYTE   N23  Gs0  v112
 BYTE   W24
 BYTE   N23  Gs0  v112
 BYTE   W24
// 019   ----------------------------------------
 BYTE   N23  Ds1  v112
 BYTE   W24
 BYTE   N23  Gs0  v112
 BYTE   W24
 BYTE   N23  Gs0  v112
 BYTE   W24
 BYTE   N23  Ds1  v112
 BYTE   W24
// 020   ----------------------------------------
 BYTE   N23  Fn0  v112
 BYTE   W24
 BYTE   N23  Cn1  v112
 BYTE   W24
 BYTE   N23  Fn0  v112
 BYTE   W24
 BYTE   N23  Fn0  v112
 BYTE   W24
// 021   ----------------------------------------
 BYTE   N23  Cn1  v112
 BYTE   W24
 BYTE   N23  Fn0  v112
 BYTE   W24
 BYTE   N23  Fn0  v112
 BYTE   W24
 BYTE   N23  Cn1  v112
 BYTE   W24
// 022   ----------------------------------------
 BYTE   N23  Cn1  v112
 BYTE   W24
 BYTE   N23  Gn1  v112
 BYTE   W24
 BYTE   N23  Cn1  v112
 BYTE   W24
 BYTE   N23  Ds1  v112
 BYTE   W24
// 023   ----------------------------------------
 BYTE   N23  Gn0  v112
 BYTE   W24
 BYTE   N23  Dn1  v112
 BYTE   W24
 BYTE   N23  Gn0  v112
 BYTE   W24
 BYTE   N23  Bn0  v112
 BYTE   W24
// 024   ----------------------------------------
 BYTE   N23  Cn1  v112
 BYTE   W24
 BYTE   N23  Gn1  v112
 BYTE   W24
 BYTE   N23  Cn1  v112
 BYTE   W24
 BYTE   N23  Cn1  v112
 BYTE   W24
// 025   ----------------------------------------
 BYTE   N23  Gn1  v112
 BYTE   W24
 BYTE   N23  Cn1  v112
 BYTE   W24
 BYTE   N23  Cn1  v112
 BYTE   W24
 BYTE   N23  Gn1  v112
 BYTE   W24
// 026   ----------------------------------------
 BYTE   N23  Gs0  v112
 BYTE   W24
 BYTE   N23  Ds1  v112
 BYTE   W24
 BYTE   N23  Gs0  v112
 BYTE   W24
 BYTE   N23  Gs0  v112
 BYTE   W24
// 027   ----------------------------------------
 BYTE   N23  Ds1  v112
 BYTE   W24
 BYTE   N23  Gs0  v112
 BYTE   W24
 BYTE   N23  Gs0  v112
 BYTE   W24
 BYTE   N23  Ds1  v112
 BYTE   W24
// 028   ----------------------------------------
 BYTE   N23  Fn0  v112
 BYTE   W24
 BYTE   N23  Cn1  v112
 BYTE   W24
 BYTE   N23  Fn0  v112
 BYTE   W24
 BYTE   N23  Fn0  v112
 BYTE   W24
// 029   ----------------------------------------
 BYTE   N23  Cn1  v112
 BYTE   W24
 BYTE   N23  Fn0  v112
 BYTE   W24
 BYTE   N23  Fn0  v112
 BYTE   W24
 BYTE   N23  Cn1  v112
 BYTE   W24
// 030   ----------------------------------------
 BYTE   N23  Cn1  v112
 BYTE   W24
 BYTE   N23  Gn1  v112
 BYTE   W24
 BYTE   N23  Cn1  v112
 BYTE   W24
 BYTE   N23  Ds1  v112
 BYTE   W24
// 031   ----------------------------------------
 BYTE   N23  Gn0  v112
 BYTE   W24
 BYTE   N23  Dn1  v112
 BYTE   W24
 BYTE   N23  Gn0  v112
 BYTE   W24
 BYTE   N23  Bn0  v112
 BYTE   W24
// 032   ----------------------------------------
 BYTE   N23  Cn1  v112
 BYTE   W24
 BYTE   N23  Gn1  v112
 BYTE   W24
 BYTE   N23  Cn1  v112
 BYTE   W24
 BYTE   N23  Cn1  v112
 BYTE   W24
// 033   ----------------------------------------
 BYTE   N23  Gn1  v112
 BYTE   W24
 BYTE   N23  Cn1  v112
 BYTE   W24
 BYTE   N23  Cn1  v112
 BYTE   W24
 BYTE   N23  Gn1  v112
 BYTE   W24
// 034   ----------------------------------------
 BYTE   N23  Gs0  v112
 BYTE   W24
 BYTE   N23  Ds1  v112
 BYTE   W24
 BYTE   N23  Gs0  v112
 BYTE   W24
 BYTE   N23  Gs0  v112
 BYTE   W24
// 035   ----------------------------------------
 BYTE   N23  Ds1  v112
 BYTE   W24
 BYTE   N23  Gs0  v112
 BYTE   W24
 BYTE   N23  Gs0  v112
 BYTE   W24
 BYTE   N23  Ds1  v112
 BYTE   W24
// 036   ----------------------------------------
 BYTE   N23  Fn0  v112
 BYTE   W24
 BYTE   N23  Cn1  v112
 BYTE   W24
 BYTE   N23  Fn0  v112
 BYTE   W24
 BYTE   N23  Fn0  v112
 BYTE   W24
// 037   ----------------------------------------
 BYTE   N23  Cn1  v112
 BYTE   W24
 BYTE   N23  Fn0  v112
 BYTE   W24
 BYTE   N23  Fn0  v112
 BYTE   W24
 BYTE   N23  Cn1  v112
 BYTE   W24
// 038   ----------------------------------------
 BYTE   N23  Cn1  v112
 BYTE   W24
 BYTE   N23  Gn1  v112
 BYTE   W24
 BYTE   N23  Cn1  v112
 BYTE   W24
 BYTE   N23  Ds1  v112
 BYTE   W24
// 039   ----------------------------------------
 BYTE   N23  Gn0  v112
 BYTE   W24
 BYTE   N23  Dn1  v112
 BYTE   W24
 BYTE   N23  Gn0  v112
 BYTE   W24
 BYTE   N23  Bn0  v112
 BYTE   W24
// 040   ----------------------------------------
 BYTE   N23  En0  v112
 BYTE   W24
 BYTE   N23  Bn0  v112
 BYTE   W24
 BYTE   N23  En0  v112
 BYTE   W24
 BYTE   N23  En0  v112
 BYTE   W24
// 041   ----------------------------------------
 BYTE   N23  Bn0  v112
 BYTE   W24
 BYTE   N23  En0  v112
 BYTE   W24
 BYTE   N23  En0  v112
 BYTE   W24
 BYTE   N23  Bn0  v112
 BYTE   W24
// 042   ----------------------------------------
 BYTE   N23  Dn0  v112
 BYTE   W24
 BYTE   N23  Bn0  v112
 BYTE   W24
 BYTE   N23  Dn0  v112
 BYTE   W24
 BYTE   N23  Dn0  v112
 BYTE   W24
// 043   ----------------------------------------
 BYTE   N23  Bn0  v112
 BYTE   W24
 BYTE   N23  Dn0  v112
 BYTE   W24
 BYTE   N23  Dn0  v112
 BYTE   W24
 BYTE   N23  Bn0  v112
 BYTE   W24
// 044   ----------------------------------------
 BYTE   N23  Cn0  v112
 BYTE   W24
 BYTE   N23  Gn0  v112
 BYTE   W24
 BYTE   N23  Cn0  v112
 BYTE   W24
 BYTE   N23  Cn0  v112
 BYTE   W24
// 045   ----------------------------------------
 BYTE   N23  Gn0  v112
 BYTE   W24
 BYTE   N23  Cn0  v112
 BYTE   W24
 BYTE   N23  Cn0  v112
 BYTE   W24
 BYTE   N23  Gn0  v112
 BYTE   W24
// 046   ----------------------------------------
 BYTE   N23  Dn0  v112
 BYTE   W24
 BYTE   N23  An0  v112
 BYTE   W24
 BYTE   N23  Dn0  v112
 BYTE   W24
 BYTE   N23  Dn0  v112
 BYTE   W24
// 047   ----------------------------------------
 BYTE   N23  An0  v112
 BYTE   W24
 BYTE   N23  Dn0  v112
 BYTE   W24
 BYTE   N23  Dn0  v112
 BYTE   W24
 BYTE   N23  An0  v112
 BYTE   W24
// 048   ----------------------------------------
 BYTE   N23  Dn0  v112
 BYTE   W24
 BYTE   N23  Bn0  v112
 BYTE   W24
 BYTE   N23  En0  v112
 BYTE   W24
 BYTE   N23  En0  v112
 BYTE   W24
// 049   ----------------------------------------
 BYTE   N23  Bn0  v112
 BYTE   W24
 BYTE   N23  En0  v112
 BYTE   W24
 BYTE   N23  En0  v112
 BYTE   W24
 BYTE   N23  Bn0  v112
 BYTE   W24
// 050   ----------------------------------------
 BYTE   N23  Dn0  v112
 BYTE   W24
 BYTE   N23  Bn0  v112
 BYTE   W24
 BYTE   N23  Dn0  v112
 BYTE   W24
 BYTE   N23  Dn0  v112
 BYTE   W24
// 051   ----------------------------------------
 BYTE   N23  Bn0  v112
 BYTE   W24
 BYTE   N23  Dn0  v112
 BYTE   W24
 BYTE   N23  Dn0  v112
 BYTE   W24
 BYTE   N23  Bn0  v112
 BYTE   W24
// 052   ----------------------------------------
 BYTE   N23  Cn0  v112
 BYTE   W24
 BYTE   N23  Gn0  v112
 BYTE   W24
 BYTE   N23  Cn0  v112
 BYTE   W24
 BYTE   N23  Cn0  v112
 BYTE   W24
// 053   ----------------------------------------
 BYTE   N23  Gn0  v112
 BYTE   W24
 BYTE   N23  Cn0  v112
 BYTE   W24
 BYTE   N23  Cn0  v112
 BYTE   W24
 BYTE   N23  Gn0  v112
 BYTE   W24
// 054   ----------------------------------------
 BYTE   N23  Dn0  v112
 BYTE   W24
 BYTE   N23  An0  v112
 BYTE   W24
 BYTE   N23  Dn0  v112
 BYTE   W24
 BYTE   N23  Dn0  v112
 BYTE   W24
// 055   ----------------------------------------
 BYTE   N23  An0  v112
 BYTE   W24
 BYTE   N23  Dn0  v112
 BYTE   W24
 BYTE   N23  Dn0  v112
 BYTE   W24
 BYTE   N23  An0  v112
 BYTE   W24
// 056   ----------------------------------------
 BYTE   N23  Cn1  v112
 BYTE   W24
 BYTE   N23  Gn1  v112
 BYTE   W24
 BYTE   N23  Cn1  v112
 BYTE   W24
 BYTE   N23  Cn1  v112
 BYTE   W24
// 057   ----------------------------------------
 BYTE   N23  Gn1  v112
 BYTE   W24
 BYTE   N23  Cn1  v112
 BYTE   W24
 BYTE   N23  Cn1  v112
 BYTE   W24
 BYTE   N23  Gn1  v112
 BYTE   W24
// 058   ----------------------------------------
 BYTE   N23  Bn0  v112
 BYTE   W24
 BYTE   N23  Fs1  v112
 BYTE   W24
 BYTE   N23  Bn0  v112
 BYTE   W24
 BYTE   N23  Bn0  v112
 BYTE   W24
// 059   ----------------------------------------
 BYTE   N23  Fs1  v112
 BYTE   W24
 BYTE   N23  Bn0  v112
 BYTE   W24
 BYTE   N23  Bn0  v112
 BYTE   W24
 BYTE   N23  Fs1  v112
 BYTE   W24
// 060   ----------------------------------------
 BYTE   N23  Cn1  v112
 BYTE   W24
 BYTE   N23  Gn1  v112
 BYTE   W24
 BYTE   N23  Cn1  v112
 BYTE   W24
 BYTE   N23  Cn1  v112
 BYTE   W24
// 061   ----------------------------------------
 BYTE   N23  Gn1  v112
 BYTE   W24
 BYTE   N23  Cn1  v112
 BYTE   W24
 BYTE   N23  Cn1  v112
 BYTE   W24
 BYTE   N23  Gn1  v112
 BYTE   W24
// 062   ----------------------------------------
 BYTE   N23  Dn1  v112
 BYTE   W24
 BYTE   N23  An1  v112
 BYTE   W24
 BYTE   N23  Dn1  v112
 BYTE   W24
 BYTE   N23  Dn1  v112
 BYTE   W24
// 063   ----------------------------------------
 BYTE   N23  An1  v112
 BYTE   W24
 BYTE   N23  Dn1  v112
 BYTE   W24
 BYTE   N23  Dn1  v112
 BYTE   W24
 BYTE   N23  An1  v112
 BYTE   W24
// 064   ----------------------------------------
 BYTE   N23  Ds1  v112
 BYTE   W24
 BYTE   N23  As1  v112
 BYTE   W24
 BYTE   N23  Ds1  v112
 BYTE   W24
 BYTE   N23  Ds1  v112
 BYTE   W24
// 065   ----------------------------------------
 BYTE   N23  As1  v112
 BYTE   W24
 BYTE   N23  Ds1  v112
 BYTE   W24
 BYTE   N23  Ds1  v112
 BYTE   W24
 BYTE   N23  As1  v112
 BYTE   W24
// 066   ----------------------------------------
 BYTE   N23  Fn1  v112
 BYTE   W24
 BYTE   N23  Cn1  v112
 BYTE   W24
 BYTE   N23  Fn1  v112
 BYTE   W24
 BYTE   N23  Fn1  v112
 BYTE   W24
// 067   ----------------------------------------
 BYTE   N23  Cn1  v112
 BYTE   W24
 BYTE   N23  Fn1  v112
 BYTE   W24
 BYTE   N23  Fn1  v112
 BYTE   W24
 BYTE   N23  Cn1  v112
 BYTE   W24
// 068   ----------------------------------------
 BYTE   N23  Cn1  v112
 BYTE   W24
 BYTE   N23  Gn0  v112
 BYTE   W24
 BYTE   N23  Cn1  v112
 BYTE   W24
 BYTE   N23  Cn1  v112
 BYTE   W24
// 069   ----------------------------------------
 BYTE   N23  Gn0  v112
 BYTE   W24
 BYTE   N23  Cn1  v112
 BYTE   W24
 BYTE   N23  Cn1  v112
 BYTE   W24
 BYTE   N23  Gn0  v112
 BYTE   W24
// 070   ----------------------------------------
 BYTE   N23  Cn1  v112
 BYTE   W24
 BYTE   N23  Gn0  v112
 BYTE   W24
 BYTE   N23  Cn1  v112
 BYTE   W24
 BYTE   N23  Cn1  v112
 BYTE   W24
// 071   ----------------------------------------
 BYTE   N23  Gn0  v112
 BYTE   W24
 BYTE   N23  Cn1  v112
 BYTE   W72
// 072   ----------------------------------------
 BYTE   GoTo
  POIN2 Label_0_010F690C
 BYTE   FINE

//**************** Track 2 (Midi-Chn.1) ****************//

song58_002:
// 000   ----------------------------------------
Label_1_010F6D9C:
 BYTE   KEYSH   song58_key+0
 BYTE   VOICE   40
 BYTE   VOL   50*song58_mvl/mxv
 BYTE   MODT 0
 BYTE   MODT 1
 BYTE   VOL   60*song58_mvl/mxv
 BYTE   PAN   c_v+0
 BYTE   VOL   54*song58_mvl/mxv
 BYTE   PAN   c_v-14
 BYTE   N08  Gn4  v112
 BYTE   W24
 BYTE   N08  Cn3  v112
 BYTE   W24
 BYTE   N08  Ds3  v112
 BYTE   W24
 BYTE   N08  Gn2  v112
 BYTE   W24
// 001   ----------------------------------------
 BYTE   N08  Cn3  v112
 BYTE   W24
 BYTE   N08  Ds3  v112
 BYTE   W24
 BYTE   N11  Gn3  v112
 BYTE   W12
 BYTE   N08  Ds3  v112
 BYTE   W12
 BYTE   N11  Cn3  v112
 BYTE   W24
// 002   ----------------------------------------
 BYTE   N08  Gs4  v112
 BYTE   W24
 BYTE   N08  Cn3  v112
 BYTE   W24
 BYTE   N08  Fn3  v112
 BYTE   W24
 BYTE   N08  Gs2  v112
 BYTE   W24
// 003   ----------------------------------------
 BYTE   N08  Cn3  v112
 BYTE   W24
 BYTE   N08  Ds3  v112
 BYTE   W24
 BYTE   N11  Gn3  v112
 BYTE   W12
 BYTE   N08  Ds3  v112
 BYTE   W12
 BYTE   N11  Cn3  v112
 BYTE   W24
// 004   ----------------------------------------
 BYTE   N08  Gn4  v112
 BYTE   W24
 BYTE   N08  Cn3  v112
 BYTE   W24
 BYTE   N08  Ds3  v112
 BYTE   W24
 BYTE   N08  Gn2  v112
 BYTE   W24
// 005   ----------------------------------------
 BYTE   N08  Cn3  v112
 BYTE   W24
 BYTE   N08  Ds3  v112
 BYTE   W24
 BYTE   N11  Gn3  v112
 BYTE   W12
 BYTE   N08  Ds3  v112
 BYTE   W12
 BYTE   N11  Cn3  v112
 BYTE   W24
// 006   ----------------------------------------
 BYTE   N08  Gs4  v112
 BYTE   W24
 BYTE   N08  Cn3  v112
 BYTE   W24
 BYTE   N08  Fn3  v112
 BYTE   W24
 BYTE   N08  Gs2  v112
 BYTE   W24
// 007   ----------------------------------------
 BYTE   N08  Cn3  v112
 BYTE   W24
 BYTE   N08  Ds3  v112
 BYTE   W24
 BYTE   N11  Gn3  v112
 BYTE   W12
 BYTE   N08  Ds3  v112
 BYTE   W12
 BYTE   N11  Cn3  v112
 BYTE   W24
// 008   ----------------------------------------
 BYTE   N08  Gn4  v112
 BYTE   W24
 BYTE   N08  Cn3  v112
 BYTE   W24
 BYTE   N08  Ds3  v112
 BYTE   W24
 BYTE   N08  Gn2  v112
 BYTE   W24
// 009   ----------------------------------------
 BYTE   N08  Cn3  v112
 BYTE   W24
 BYTE   N08  Ds3  v112
 BYTE   W24
 BYTE   N11  Gn3  v112
 BYTE   W12
 BYTE   N08  Ds3  v112
 BYTE   W12
 BYTE   N11  Cn3  v112
 BYTE   W24
// 010   ----------------------------------------
 BYTE   N08  Gs4  v112
 BYTE   W24
 BYTE   N08  Cn3  v112
 BYTE   W24
 BYTE   N08  Ds3  v112
 BYTE   W24
 BYTE   N08  Gs2  v112
 BYTE   W24
// 011   ----------------------------------------
 BYTE   N08  Cn3  v112
 BYTE   W24
 BYTE   N08  Ds3  v112
 BYTE   W24
 BYTE   N08  Gs3  v112
 BYTE   W12
 BYTE   N08  Ds3  v112
 BYTE   W12
 BYTE   N11  Cn3  v112
 BYTE   W24
// 012   ----------------------------------------
 BYTE   N08  Gs4  v112
 BYTE   W24
 BYTE   N08  Cn3  v112
 BYTE   W24
 BYTE   N08  Fn3  v112
 BYTE   W24
 BYTE   N08  Gs2  v112
 BYTE   W24
// 013   ----------------------------------------
 BYTE   N08  Cn3  v112
 BYTE   W24
 BYTE   N08  Fn3  v112
 BYTE   W24
 BYTE   N08  Gs3  v112
 BYTE   W12
 BYTE   N08  Fn3  v112
 BYTE   W12
 BYTE   N11  Cn3  v112
 BYTE   W24
// 014   ----------------------------------------
 BYTE   N08  Gn4  v112
 BYTE   W24
 BYTE   N08  Cn3  v112
 BYTE   W24
 BYTE   N08  Ds3  v112
 BYTE   W24
 BYTE   N08  Gn2  v112
 BYTE   W24
// 015   ----------------------------------------
 BYTE   N08  Dn3  v112
 BYTE   W24
 BYTE   N08  Gn3  v112
 BYTE   W24
 BYTE   N08  Bn3  v112
 BYTE   W12
 BYTE   N08  Gn3  v112
 BYTE   W12
 BYTE   N11  Dn3  v112
 BYTE   W24
// 016   ----------------------------------------
 BYTE   N08  Gn4  v112
 BYTE   W24
 BYTE   N08  Cn3  v112
 BYTE   W24
 BYTE   N08  Ds3  v112
 BYTE   W24
 BYTE   N08  Gn2  v112
 BYTE   W24
// 017   ----------------------------------------
 BYTE   N08  Cn3  v112
 BYTE   W24
 BYTE   N08  Ds3  v112
 BYTE   W24
 BYTE   N11  Gn3  v112
 BYTE   W12
 BYTE   N08  Ds3  v112
 BYTE   W12
 BYTE   N11  Cn3  v112
 BYTE   W24
// 018   ----------------------------------------
 BYTE   N08  Gs4  v112
 BYTE   W24
 BYTE   N08  Cn3  v112
 BYTE   W24
 BYTE   N08  Ds3  v112
 BYTE   W24
 BYTE   N08  Gs2  v112
 BYTE   W24
// 019   ----------------------------------------
 BYTE   N08  Cn3  v112
 BYTE   W24
 BYTE   N08  Ds3  v112
 BYTE   W24
 BYTE   N08  Gs3  v112
 BYTE   W12
 BYTE   N08  Ds3  v112
 BYTE   W12
 BYTE   N11  Cn3  v112
 BYTE   W24
// 020   ----------------------------------------
 BYTE   N08  Gs4  v112
 BYTE   W24
 BYTE   N08  Cn3  v112
 BYTE   W24
 BYTE   N08  Fn3  v112
 BYTE   W24
 BYTE   N08  Gs2  v112
 BYTE   W24
// 021   ----------------------------------------
 BYTE   N08  Cn3  v112
 BYTE   W24
 BYTE   N08  Fn3  v112
 BYTE   W24
 BYTE   N08  Gs3  v112
 BYTE   W12
 BYTE   N08  Fn3  v112
 BYTE   W12
 BYTE   N11  Cn3  v112
 BYTE   W24
// 022   ----------------------------------------
 BYTE   N08  Gn4  v112
 BYTE   W24
 BYTE   N08  Cn3  v112
 BYTE   W24
 BYTE   N08  Ds3  v112
 BYTE   W24
 BYTE   N08  Gn2  v112
 BYTE   W24
// 023   ----------------------------------------
 BYTE   N08  Dn3  v112
 BYTE   W24
 BYTE   N08  Gn3  v112
 BYTE   W24
 BYTE   N08  Bn3  v112
 BYTE   W12
 BYTE   N08  Gn3  v112
 BYTE   W12
 BYTE   N11  Dn3  v112
 BYTE   W24
// 024   ----------------------------------------
 BYTE   N08  Gn4  v112
 BYTE   W24
 BYTE   N08  Cn3  v112
 BYTE   W24
 BYTE   N08  Ds3  v112
 BYTE   W24
 BYTE   N08  Gn2  v112
 BYTE   W24
// 025   ----------------------------------------
 BYTE   N08  Cn3  v112
 BYTE   W24
 BYTE   N08  Ds3  v112
 BYTE   W24
 BYTE   N11  Gn3  v112
 BYTE   W12
 BYTE   N08  Ds3  v112
 BYTE   W12
 BYTE   N08  Cn3  v112
 BYTE   W24
// 026   ----------------------------------------
 BYTE   N08  Gs4  v112
 BYTE   W24
 BYTE   N08  Cn3  v112
 BYTE   W24
 BYTE   N08  Ds3  v112
 BYTE   W24
 BYTE   N08  Gs2  v112
 BYTE   W24
// 027   ----------------------------------------
 BYTE   N08  Cn3  v112
 BYTE   W24
 BYTE   N08  Ds3  v112
 BYTE   W24
 BYTE   N08  Gs3  v112
 BYTE   W12
 BYTE   N08  Ds3  v112
 BYTE   W12
 BYTE   N08  Cn3  v112
 BYTE   W24
// 028   ----------------------------------------
 BYTE   N08  Gs4  v112
 BYTE   W24
 BYTE   N08  Cn3  v112
 BYTE   W24
 BYTE   N08  Fn3  v112
 BYTE   W24
 BYTE   N08  Gs2  v112
 BYTE   W24
// 029   ----------------------------------------
 BYTE   N08  Cn3  v112
 BYTE   W24
 BYTE   N08  Fn3  v112
 BYTE   W24
 BYTE   N08  Gs3  v112
 BYTE   W12
 BYTE   N08  Fn3  v112
 BYTE   W12
 BYTE   N08  Cn3  v112
 BYTE   W24
// 030   ----------------------------------------
 BYTE   N08  Gn4  v112
 BYTE   W24
 BYTE   N08  Cn3  v112
 BYTE   W24
 BYTE   N08  Ds3  v112
 BYTE   W24
 BYTE   N08  Gn2  v112
 BYTE   W24
// 031   ----------------------------------------
 BYTE   N08  Dn3  v112
 BYTE   W24
 BYTE   N08  Gn3  v112
 BYTE   W24
 BYTE   N08  Bn3  v112
 BYTE   W12
 BYTE   N08  Gn3  v112
 BYTE   W12
 BYTE   N08  Dn3  v112
 BYTE   W24
// 032   ----------------------------------------
 BYTE   N08  Gn4  v112
 BYTE   W24
 BYTE   N08  Cn3  v112
 BYTE   W24
 BYTE   N08  Ds3  v112
 BYTE   W24
 BYTE   N08  Gn2  v112
 BYTE   W24
// 033   ----------------------------------------
 BYTE   N08  Cn3  v112
 BYTE   W24
 BYTE   N08  Ds3  v112
 BYTE   W24
 BYTE   N11  Gn3  v112
 BYTE   W12
 BYTE   N08  Ds3  v112
 BYTE   W12
 BYTE   N08  Cn3  v112
 BYTE   W24
// 034   ----------------------------------------
 BYTE   N08  Gs4  v112
 BYTE   W24
 BYTE   N08  Cn3  v112
 BYTE   W24
 BYTE   N08  Ds3  v112
 BYTE   W24
 BYTE   N08  Gs2  v112
 BYTE   W24
// 035   ----------------------------------------
 BYTE   N08  Cn3  v112
 BYTE   W24
 BYTE   N08  Ds3  v112
 BYTE   W24
 BYTE   N08  Gs3  v112
 BYTE   W12
 BYTE   N08  Ds3  v112
 BYTE   W12
 BYTE   N08  Cn3  v112
 BYTE   W24
// 036   ----------------------------------------
 BYTE   N08  Gs4  v112
 BYTE   W24
 BYTE   N08  Cn3  v112
 BYTE   W24
 BYTE   N08  Fn3  v112
 BYTE   W24
 BYTE   N08  Gs2  v112
 BYTE   W24
// 037   ----------------------------------------
 BYTE   N08  Cn3  v112
 BYTE   W24
 BYTE   N08  Fn3  v112
 BYTE   W24
 BYTE   N08  Gs3  v112
 BYTE   W12
 BYTE   N08  Fn3  v112
 BYTE   W12
 BYTE   N08  Cn3  v112
 BYTE   W24
// 038   ----------------------------------------
 BYTE   N08  Gn4  v112
 BYTE   W24
 BYTE   N08  Cn3  v112
 BYTE   W24
 BYTE   N08  Ds3  v112
 BYTE   W24
 BYTE   N08  Gn2  v112
 BYTE   W24
// 039   ----------------------------------------
 BYTE   N08  Dn3  v112
 BYTE   W24
 BYTE   N08  Gn3  v112
 BYTE   W24
 BYTE   N08  Bn3  v112
 BYTE   W12
 BYTE   N08  Gn3  v112
 BYTE   W12
 BYTE   N08  Dn3  v112
 BYTE   W24
// 040   ----------------------------------------
 BYTE   VOL   44*song58_mvl/mxv
 BYTE   N23  Bn3  v112
 BYTE   W24
 BYTE   N23  En3  v112
 BYTE   W24
 BYTE   N23  Gn3  v112
 BYTE   W24
 BYTE   N44  Bn2  v112  gtp3
 BYTE   W48
// 041   ----------------------------------------
 BYTE   N23  En3  v112
 BYTE   W24
 BYTE   N23  Gn3  v112
 BYTE   W24
 BYTE   N23  Bn2  v112
 BYTE   W24
 BYTE   N23  Bn3  v112
 BYTE   W24
// 042   ----------------------------------------
 BYTE   N23  En3  v112
 BYTE   W24
 BYTE   N23  Gn3  v112
 BYTE   W24
 BYTE   N44  Bn2  v112  gtp3
 BYTE   W48
// 043   ----------------------------------------
 BYTE   N23  En3  v112
 BYTE   W24
 BYTE   N23  Gn3  v112
 BYTE   W24
 BYTE   N23  Bn2  v112
 BYTE   W24
 BYTE   N23  Gn3  v112
 BYTE   W24
// 044   ----------------------------------------
 BYTE   N23  Cn3  v112
 BYTE   W24
 BYTE   N23  En3  v112
 BYTE   W24
 BYTE   N44  Gn2  v112  gtp3
 BYTE   W48
// 045   ----------------------------------------
 BYTE   N23  Cn3  v112
 BYTE   W24
 BYTE   N23  En3  v112
 BYTE   W24
 BYTE   N23  Cn3  v112
 BYTE   W24
 BYTE   N23  An3  v112
 BYTE   W24
// 046   ----------------------------------------
 BYTE   N23  Dn3  v112
 BYTE   W24
 BYTE   N23  Fs3  v112
 BYTE   W24
 BYTE   N44  An2  v112  gtp3
 BYTE   W48
// 047   ----------------------------------------
 BYTE   N23  Dn3  v112
 BYTE   W24
 BYTE   N23  Fs3  v112
 BYTE   W24
 BYTE   N23  An2  v112
 BYTE   W24
 BYTE   N23  Bn3  v112
 BYTE   W24
// 048   ----------------------------------------
 BYTE   N23  En3  v112
 BYTE   W24
 BYTE   N23  Gn3  v112
 BYTE   W24
 BYTE   N44  Bn2  v112  gtp3
 BYTE   W48
// 049   ----------------------------------------
 BYTE   N23  En3  v112
 BYTE   W24
 BYTE   N23  Gn3  v112
 BYTE   W24
 BYTE   N23  Bn2  v112
 BYTE   W24
 BYTE   N23  Bn3  v112
 BYTE   W24
// 050   ----------------------------------------
 BYTE   N23  En3  v112
 BYTE   W24
 BYTE   N23  Gn3  v112
 BYTE   W24
 BYTE   N44  Bn2  v112  gtp3
 BYTE   W48
// 051   ----------------------------------------
 BYTE   N23  En3  v112
 BYTE   W24
 BYTE   N23  Gn3  v112
 BYTE   W24
 BYTE   N23  Bn2  v112
 BYTE   W24
 BYTE   N23  Gn3  v112
 BYTE   W24
// 052   ----------------------------------------
 BYTE   N23  Cn3  v112
 BYTE   W24
 BYTE   N23  En3  v112
 BYTE   W24
 BYTE   N44  Gn2  v112  gtp3
 BYTE   W48
// 053   ----------------------------------------
 BYTE   N23  Cn3  v112
 BYTE   W24
 BYTE   N23  En3  v112
 BYTE   W24
 BYTE   N23  Cn3  v112
 BYTE   W24
 BYTE   N23  An3  v112
 BYTE   W24
// 054   ----------------------------------------
 BYTE   N23  Dn3  v112
 BYTE   W24
 BYTE   N23  Fs3  v112
 BYTE   W24
 BYTE   N44  An2  v112  gtp3
 BYTE   W48
// 055   ----------------------------------------
 BYTE   N23  Dn3  v112
 BYTE   W24
 BYTE   N23  Fs3  v112
 BYTE   W24
 BYTE   N23  An2  v112
 BYTE   W24
 BYTE   VOL   49*song58_mvl/mxv
 BYTE   N08  Gn4  v112
 BYTE   W24
// 056   ----------------------------------------
 BYTE   N08  Cn3  v112
 BYTE   W12
 BYTE   N08  Dn3  v112
 BYTE   W12
 BYTE   N08  En3  v112
 BYTE   W24
 BYTE   N08  En2  v112
 BYTE   W12
 BYTE   N08  Gn2  v112
 BYTE   W12
 BYTE   N08  Cn3  v112
 BYTE   W24
// 057   ----------------------------------------
 BYTE   N08  En3  v112
 BYTE   W24
 BYTE   N08  Gn3  v112
 BYTE   W12
 BYTE   N08  En3  v112
 BYTE   W12
 BYTE   N08  Cn3  v112
 BYTE   W24
 BYTE   N08  Fs4  v112
 BYTE   W24
// 058   ----------------------------------------
 BYTE   N08  Bn2  v112
 BYTE   W12
 BYTE   N08  Cs3  v112
 BYTE   W12
 BYTE   N08  Ds3  v112
 BYTE   W24
 BYTE   N08  Ds2  v112
 BYTE   W12
 BYTE   N08  Fs2  v112
 BYTE   W12
 BYTE   N08  Bn2  v112
 BYTE   W24
// 059   ----------------------------------------
 BYTE   N08  Ds3  v112
 BYTE   W24
 BYTE   N08  Fs3  v112
 BYTE   W12
 BYTE   N08  Ds3  v112
 BYTE   W12
 BYTE   N08  Bn2  v112
 BYTE   W24
 BYTE   N08  Gn4  v112
 BYTE   W24
// 060   ----------------------------------------
 BYTE   N08  Cn3  v112
 BYTE   W12
 BYTE   N08  Dn3  v112
 BYTE   W12
 BYTE   N08  En3  v112
 BYTE   W24
 BYTE   N08  En2  v112
 BYTE   W12
 BYTE   N08  Gn2  v112
 BYTE   W12
 BYTE   N08  Cn3  v112
 BYTE   W24
// 061   ----------------------------------------
 BYTE   N08  En3  v112
 BYTE   W24
 BYTE   N08  Gn3  v112
 BYTE   W12
 BYTE   N08  En3  v112
 BYTE   W12
 BYTE   N08  Cn3  v112
 BYTE   W24
 BYTE   N08  An4  v112
 BYTE   W24
// 062   ----------------------------------------
 BYTE   N08  Dn3  v112
 BYTE   W12
 BYTE   N08  En3  v112
 BYTE   W12
 BYTE   N08  Fs3  v112
 BYTE   W24
 BYTE   N08  Fs2  v112
 BYTE   W12
 BYTE   N08  An2  v112
 BYTE   W12
 BYTE   N08  Dn3  v112
 BYTE   W24
// 063   ----------------------------------------
 BYTE   N08  Fs3  v112
 BYTE   W24
 BYTE   N08  An3  v112
 BYTE   W12
 BYTE   N08  Fs3  v112
 BYTE   W12
 BYTE   N08  Dn3  v112
 BYTE   W24
 BYTE   N08  As4  v112
 BYTE   W24
// 064   ----------------------------------------
 BYTE   N08  Ds3  v112
 BYTE   W12
 BYTE   N08  Fn3  v112
 BYTE   W12
 BYTE   N08  Gn3  v112
 BYTE   W24
 BYTE   N08  Gn2  v112
 BYTE   W12
 BYTE   N08  As2  v112
 BYTE   W12
 BYTE   N08  Ds3  v112
 BYTE   W24
// 065   ----------------------------------------
 BYTE   N08  Gn3  v112
 BYTE   W24
 BYTE   N08  As3  v112
 BYTE   W12
 BYTE   N08  Gn3  v112
 BYTE   W12
 BYTE   N08  Ds3  v112
 BYTE   W24
 BYTE   N08  An4  v112
 BYTE   W24
// 066   ----------------------------------------
 BYTE   N08  Cn3  v112
 BYTE   W12
 BYTE   N08  En3  v112
 BYTE   W12
 BYTE   N08  Fn3  v112
 BYTE   W24
 BYTE   N08  Fn2  v112
 BYTE   W12
 BYTE   N08  An2  v112
 BYTE   W12
 BYTE   N08  Cn3  v112
 BYTE   W24
// 067   ----------------------------------------
 BYTE   N08  Fn3  v112
 BYTE   W24
 BYTE   N08  An3  v112
 BYTE   W12
 BYTE   N08  Fn3  v112
 BYTE   W12
 BYTE   N08  Cn3  v112
 BYTE   W24
 BYTE   VOL   54*song58_mvl/mxv
 BYTE   N23  Gn4  v112
 BYTE   W24
// 068   ----------------------------------------
 BYTE   N23  Cn4  v112
 BYTE   W24
 BYTE   N23  Dn4  v112
 BYTE   W24
 BYTE   N23  En4  v112
 BYTE   W24
 BYTE   N23  Fn4  v112
 BYTE   W24
// 069   ----------------------------------------
 BYTE   N23  En4  v112
 BYTE   W24
 BYTE   N23  Dn4  v112
 BYTE   W24
 BYTE   N23  Gn3  v112
 BYTE   W24
 BYTE   N23  Cn4  v112
 BYTE   W24
// 070   ----------------------------------------
 BYTE   N23  Gn3  v112
 BYTE   W24
 BYTE   N23  En3  v112
 BYTE   W24
 BYTE   N23  Gn3  v112
 BYTE   W24
 BYTE   N84  Cn3  v112
 BYTE   W96
// 071   ----------------------------------------
 BYTE   GoTo
  POIN2 Label_1_010F6D9C
 BYTE   FINE

//**************** Track 3 (Midi-Chn.2) ****************//

song58_003:
// 000   ----------------------------------------
Label_2_010F72B0:
 BYTE   KEYSH   song58_key+0
 BYTE   VOICE   61
 BYTE   VOL   50*song58_mvl/mxv
 BYTE   MODT 0
 BYTE   MODT 1
 BYTE   VOL   60*song58_mvl/mxv
 BYTE   PAN   c_v+0
 BYTE   VOL   51*song58_mvl/mxv
 BYTE   PAN   c_v+31
 BYTE   W24
 BYTE   N08  Ds3  v112
 BYTE   W24
 BYTE   N08  Ds3  v112
 BYTE   W24
 BYTE   N08  Ds3  v112
 BYTE   W24
// 001   ----------------------------------------
 BYTE   N08  Ds3  v112
 BYTE   W12
 BYTE   N08  Ds3  v112
 BYTE   W12
 BYTE   N08  Ds3  v112
 BYTE   W72
// 002   ----------------------------------------
 BYTE   W24
 BYTE   N08  Fn3  v112
 BYTE   W24
 BYTE   N08  Fn3  v112
 BYTE   W24
 BYTE   N08  Fn3  v112
 BYTE   W24
// 003   ----------------------------------------
 BYTE   N08  Fn3  v112
 BYTE   W12
 BYTE   N08  Fn3  v112
 BYTE   W12
 BYTE   N08  Ds3  v112
 BYTE   W72
// 004   ----------------------------------------
 BYTE   W24
 BYTE   N08  Ds3  v112
 BYTE   W24
 BYTE   N08  Ds3  v112
 BYTE   W24
 BYTE   N08  Ds3  v112
 BYTE   W24
// 005   ----------------------------------------
 BYTE   N08  Ds3  v112
 BYTE   W12
 BYTE   N08  Ds3  v112
 BYTE   W12
 BYTE   N08  Ds3  v112
 BYTE   W72
// 006   ----------------------------------------
 BYTE   W24
 BYTE   N08  Fn3  v112
 BYTE   W24
 BYTE   N08  Fn3  v112
 BYTE   W24
 BYTE   N08  Fn3  v112
 BYTE   W24
// 007   ----------------------------------------
 BYTE   N08  Fn3  v112
 BYTE   W12
 BYTE   N08  Fn3  v112
 BYTE   W12
 BYTE   N08  Ds3  v112
 BYTE   W72
// 008   ----------------------------------------
 BYTE   W24
 BYTE   N08  Ds3  v112
 BYTE   W24
 BYTE   N08  Ds3  v112
 BYTE   W24
 BYTE   N08  Ds3  v112
 BYTE   W24
// 009   ----------------------------------------
 BYTE   N08  Ds3  v112
 BYTE   W12
 BYTE   N08  Cn3  v112
 BYTE   W12
 BYTE   N08  Ds3  v112
 BYTE   W72
// 010   ----------------------------------------
 BYTE   W24
 BYTE   N08  Ds3  v112
 BYTE   W24
 BYTE   N08  Ds3  v112
 BYTE   W24
 BYTE   N08  Ds3  v112
 BYTE   W24
// 011   ----------------------------------------
 BYTE   N08  Ds3  v112
 BYTE   W12
 BYTE   N08  Ds3  v112
 BYTE   W12
 BYTE   N08  Ds3  v112
 BYTE   W72
// 012   ----------------------------------------
 BYTE   W24
 BYTE   N08  Fn3  v112
 BYTE   W24
 BYTE   N08  Fn3  v112
 BYTE   W24
 BYTE   N08  Fn3  v112
 BYTE   W24
// 013   ----------------------------------------
 BYTE   N08  Fn3  v112
 BYTE   W12
 BYTE   N08  Gs3  v112
 BYTE   W12
 BYTE   N08  Fn3  v112
 BYTE   W72
// 014   ----------------------------------------
 BYTE   W24
 BYTE   N08  Ds3  v112
 BYTE   W24
 BYTE   N08  Ds3  v112
 BYTE   W24
 BYTE   N08  Ds3  v112
 BYTE   W24
// 015   ----------------------------------------
 BYTE   N08  Dn3  v112
 BYTE   W12
 BYTE   N08  Dn3  v112
 BYTE   W12
 BYTE   N08  Dn3  v112
 BYTE   W72
// 016   ----------------------------------------
 BYTE   W24
 BYTE   N08  Ds3  v112
 BYTE   W24
 BYTE   N08  Ds3  v112
 BYTE   W24
 BYTE   N08  Ds3  v112
 BYTE   W24
// 017   ----------------------------------------
 BYTE   N08  Ds3  v112
 BYTE   W12
 BYTE   N08  Cn3  v112
 BYTE   W12
 BYTE   N08  Ds3  v112
 BYTE   W72
// 018   ----------------------------------------
 BYTE   W24
 BYTE   N08  Ds3  v112
 BYTE   W24
 BYTE   N08  Ds3  v112
 BYTE   W24
 BYTE   N08  Ds3  v112
 BYTE   W24
// 019   ----------------------------------------
 BYTE   N08  Ds3  v112
 BYTE   W12
 BYTE   N08  Ds3  v112
 BYTE   W12
 BYTE   N08  Ds3  v112
 BYTE   W72
// 020   ----------------------------------------
 BYTE   W24
 BYTE   N08  Fn3  v112
 BYTE   W24
 BYTE   N08  Fn3  v112
 BYTE   W24
 BYTE   N08  Fn3  v112
 BYTE   W24
// 021   ----------------------------------------
 BYTE   N08  Fn3  v112
 BYTE   W12
 BYTE   N08  Gs3  v112
 BYTE   W12
 BYTE   N08  Fn3  v112
 BYTE   W72
// 022   ----------------------------------------
 BYTE   W24
 BYTE   N08  Ds3  v112
 BYTE   W24
 BYTE   N08  Ds3  v112
 BYTE   W24
 BYTE   N08  Ds3  v112
 BYTE   W24
// 023   ----------------------------------------
 BYTE   N08  Dn3  v112
 BYTE   W12
 BYTE   N08  Dn3  v112
 BYTE   W12
 BYTE   N08  Dn3  v112
 BYTE   W72
// 024   ----------------------------------------
 BYTE   VOICE   48
 BYTE   VOL   50*song58_mvl/mxv
 BYTE   MODT 0
 BYTE   MODT 1
 BYTE   VOL   40*song58_mvl/mxv
 BYTE   TIE  Ds3  v112
 BYTE   W96
// 025   ----------------------------------------
 BYTE   W84
 BYTE   EOT
 BYTE   Ds3
 BYTE   W12
// 026   ----------------------------------------
 BYTE   TIE  Ds3  v112
 BYTE   W96
// 027   ----------------------------------------
 BYTE   W84
 BYTE   EOT
 BYTE   Ds3
 BYTE   W12
// 028   ----------------------------------------
 BYTE   TIE  Cn3  v112
 BYTE   W96
// 029   ----------------------------------------
 BYTE   W84
 BYTE   EOT
 BYTE   Cn3
 BYTE   W12
// 030   ----------------------------------------
 BYTE   N84  Ds3  v112
 BYTE   W96
// 031   ----------------------------------------
 BYTE   N84  Bn2  v112
 BYTE   W96
// 032   ----------------------------------------
 BYTE   TIE  Ds3  v112
 BYTE   W96
// 033   ----------------------------------------
 BYTE   W84
 BYTE   EOT
 BYTE   Ds3
 BYTE   W12
// 034   ----------------------------------------
 BYTE   TIE  Ds3  v112
 BYTE   W96
// 035   ----------------------------------------
 BYTE   W84
 BYTE   EOT
 BYTE   Ds3
 BYTE   W12
// 036   ----------------------------------------
 BYTE   TIE  Cn3  v112
 BYTE   W96
// 037   ----------------------------------------
 BYTE   W84
 BYTE   EOT
 BYTE   Cn3
 BYTE   W12
// 038   ----------------------------------------
 BYTE   N84  Ds3  v112
 BYTE   W96
// 039   ----------------------------------------
 BYTE   N84  Dn3  v112
 BYTE   W96
// 040   ----------------------------------------
 BYTE   VOICE   57
 BYTE   VOL   50*song58_mvl/mxv
 BYTE   MODT 0
 BYTE   MODT 1
 BYTE   VOL   47*song58_mvl/mxv
 BYTE   W24
 BYTE   N05  En4  v112
 BYTE   W08
 BYTE   N05  En4  v112
 BYTE   W08
 BYTE   N05  En4  v112
 BYTE   W08
 BYTE   N17  En4  v112
 BYTE   W24
 BYTE   N05  En4  v112
 BYTE   W08
 BYTE   N05  En4  v112
 BYTE   W08
 BYTE   N05  En4  v112
 BYTE   W08
// 041   ----------------------------------------
 BYTE   N17  En4  v112
 BYTE   W24
 BYTE   N05  En4  v112
 BYTE   W08
 BYTE   N05  En4  v112
 BYTE   W08
 BYTE   N05  En4  v112
 BYTE   W08
 BYTE   N08  En4  v112
 BYTE   W12
 BYTE   N08  En4  v112
 BYTE   W12
 BYTE   N17  En4  v112
 BYTE   W24
// 042   ----------------------------------------
 BYTE   W24
 BYTE   N05  En4  v112
 BYTE   W08
 BYTE   N05  En4  v112
 BYTE   W08
 BYTE   N05  En4  v112
 BYTE   W08
 BYTE   N17  En4  v112
 BYTE   W24
 BYTE   N05  En4  v112
 BYTE   W08
 BYTE   N05  En4  v112
 BYTE   W08
 BYTE   N05  En4  v112
 BYTE   W08
// 043   ----------------------------------------
 BYTE   N17  En4  v112
 BYTE   W24
 BYTE   N05  En4  v112
 BYTE   W08
 BYTE   N05  En4  v112
 BYTE   W08
 BYTE   N05  En4  v112
 BYTE   W08
 BYTE   N08  En4  v112
 BYTE   W12
 BYTE   N08  En4  v112
 BYTE   W12
 BYTE   N17  En4  v112
 BYTE   W24
// 044   ----------------------------------------
 BYTE   W24
 BYTE   N05  Cn4  v112
 BYTE   W08
 BYTE   N05  Cn4  v112
 BYTE   W08
 BYTE   N05  Cn4  v112
 BYTE   W08
 BYTE   N17  Cn4  v112
 BYTE   W24
 BYTE   N05  Cn4  v112
 BYTE   W08
 BYTE   N05  Cn4  v112
 BYTE   W08
 BYTE   N05  Cn4  v112
 BYTE   W08
// 045   ----------------------------------------
 BYTE   N17  Cn4  v112
 BYTE   W24
 BYTE   N05  Cn4  v112
 BYTE   W08
 BYTE   N05  Cn4  v112
 BYTE   W08
 BYTE   N05  Cn4  v112
 BYTE   W08
 BYTE   N08  Cn4  v112
 BYTE   W12
 BYTE   N08  Cn4  v112
 BYTE   W12
 BYTE   VOICE   48
 BYTE   VOL   50*song58_mvl/mxv
 BYTE   MODT 0
 BYTE   MODT 1
 BYTE   N17  Gn2  v112
 BYTE   W24
// 046   ----------------------------------------
 BYTE   VOICE   61
 BYTE   VOL   50*song58_mvl/mxv
 BYTE   MODT 0
 BYTE   MODT 1
 BYTE   W24
 BYTE   N05  Dn4  v112
 BYTE   W08
 BYTE   N05  Dn4  v112
 BYTE   W08
 BYTE   N05  Dn4  v112
 BYTE   W08
 BYTE   N17  Dn4  v112
 BYTE   W24
 BYTE   N05  Dn4  v112
 BYTE   W08
 BYTE   N05  Dn4  v112
 BYTE   W08
 BYTE   N05  Dn4  v112
 BYTE   W08
// 047   ----------------------------------------
 BYTE   N17  Dn4  v112
 BYTE   W24
 BYTE   N05  Dn4  v112
 BYTE   W08
 BYTE   N05  Dn4  v112
 BYTE   W08
 BYTE   N07  Dn4  v112
 BYTE   W08
 BYTE   N08  Dn4  v112
 BYTE   W12
 BYTE   N08  Dn4  v112
 BYTE   W12
 BYTE   N17  Dn4  v112
 BYTE   W24
// 048   ----------------------------------------
 BYTE   VOICE   61
 BYTE   VOL   50*song58_mvl/mxv
 BYTE   MODT 0
 BYTE   MODT 1
 BYTE   TIE  Bn3  v112
 BYTE   W96
// 049   ----------------------------------------
 BYTE   W96
// 050   ----------------------------------------
 BYTE   W96
// 051   ----------------------------------------
 BYTE   W48
 BYTE   EOT
 BYTE   Bn3
 BYTE   N48  An3  v112
 BYTE   W48
// 052   ----------------------------------------
 BYTE   TIE  Gn3  v112
 BYTE   W96
// 053   ----------------------------------------
 BYTE   W48
 BYTE   EOT
 BYTE   Gn3
 BYTE   N48  En3  v112
 BYTE   W48
// 054   ----------------------------------------
 BYTE   N23  An3  v112
 BYTE   W24
 BYTE   N23  Gn3  v112
 BYTE   W24
 BYTE   N23  Fs3  v112
 BYTE   W24
 BYTE   N48  Dn3  v112
 BYTE   W48
// 055   ----------------------------------------
 BYTE   N23  An2  v112
 BYTE   W24
 BYTE   N48  Fs2  v112
 BYTE   W48
 BYTE   VOICE   48
 BYTE   VOL   50*song58_mvl/mxv
 BYTE   MODT 0
 BYTE   MODT 1
 BYTE   VOL   33*song58_mvl/mxv
 BYTE   TIE  Cn4  v112
 BYTE   W96
// 056   ----------------------------------------
 BYTE   W84
 BYTE   EOT
 BYTE   Cn4
 BYTE   W12
// 057   ----------------------------------------
 BYTE   TIE  Bn3  v112
 BYTE   W96
// 058   ----------------------------------------
 BYTE   W84
 BYTE   EOT
 BYTE   Bn3
 BYTE   W12
// 059   ----------------------------------------
 BYTE   TIE  Gn3  v112
 BYTE   W96
// 060   ----------------------------------------
 BYTE   W84
 BYTE   EOT
 BYTE   Gn3
 BYTE   W12
// 061   ----------------------------------------
 BYTE   TIE  Dn4  v112
 BYTE   W96
// 062   ----------------------------------------
 BYTE   W84
 BYTE   EOT
 BYTE   Dn4
 BYTE   W12
// 063   ----------------------------------------
 BYTE   VOICE   61
 BYTE   VOL   50*song58_mvl/mxv
 BYTE   MODT 0
 BYTE   MODT 1
 BYTE   VOL   44*song58_mvl/mxv
 BYTE   N72  Gn2  v112
 BYTE   W72
 BYTE   N72  Ds3  v112
 BYTE   W72
// 064   ----------------------------------------
 BYTE   N48  As1  v112
 BYTE   W48
 BYTE   N72  An2  v112
 BYTE   W72
// 065   ----------------------------------------
 BYTE   N72  Fn2  v112
 BYTE   W72
 BYTE   N40  Cn2  v112
 BYTE   W48
// 066   ----------------------------------------
 BYTE   N72  Cn2  v112
 BYTE   W72
 BYTE   N72  Fn2  v112
 BYTE   W72
// 067   ----------------------------------------
 BYTE   N48  Cn3  v112
 BYTE   W48
 BYTE   TIE  Gn2  v112
 BYTE   W96
// 068   ----------------------------------------
 BYTE   W84
 BYTE   EOT
 BYTE   Gn2
 BYTE   W12
// 069   ----------------------------------------
 BYTE   GoTo
  POIN2 Label_2_010F72B0
 BYTE   FINE

//**************** Track 4 (Midi-Chn.3) ****************//

song58_004:
// 000   ----------------------------------------
Label_3_010F75CC:
 BYTE   KEYSH   song58_key+0
 BYTE   VOICE   48
 BYTE   VOL   50*song58_mvl/mxv
 BYTE   MODT 0
 BYTE   MODT 1
 BYTE   VOL   60*song58_mvl/mxv
 BYTE   PAN   c_v+0
 BYTE   VOL   51*song58_mvl/mxv
 BYTE   PAN   c_v+31
 BYTE   W24
 BYTE   N08  Gn3  v112
 BYTE   W24
 BYTE   N08  Gn3  v112
 BYTE   W24
 BYTE   N08  Gn3  v112
 BYTE   W24
// 001   ----------------------------------------
 BYTE   N08  Gn3  v112
 BYTE   W12
 BYTE   N08  Gn3  v112
 BYTE   W12
 BYTE   N08  Gn3  v112
 BYTE   W72
// 002   ----------------------------------------
 BYTE   W24
 BYTE   N08  Gs3  v112
 BYTE   W24
 BYTE   N08  Gs3  v112
 BYTE   W24
 BYTE   N08  Gs3  v112
 BYTE   W24
// 003   ----------------------------------------
 BYTE   N08  Gs3  v112
 BYTE   W12
 BYTE   N08  Gs3  v112
 BYTE   W12
 BYTE   N08  Gn3  v112
 BYTE   W72
// 004   ----------------------------------------
 BYTE   W24
 BYTE   N08  Gn3  v112
 BYTE   W24
 BYTE   N08  Gn3  v112
 BYTE   W24
 BYTE   N08  Gn3  v112
 BYTE   W24
// 005   ----------------------------------------
 BYTE   N08  Gn3  v112
 BYTE   W12
 BYTE   N08  Gn3  v112
 BYTE   W12
 BYTE   N08  Gn3  v112
 BYTE   W72
// 006   ----------------------------------------
 BYTE   W24
 BYTE   N08  Gs3  v112
 BYTE   W24
 BYTE   N08  Gs3  v112
 BYTE   W24
 BYTE   N08  Gs3  v112
 BYTE   W24
// 007   ----------------------------------------
 BYTE   N08  Gs3  v112
 BYTE   W12
 BYTE   N08  Gs3  v112
 BYTE   W12
 BYTE   N08  Gn3  v112
 BYTE   W72
// 008   ----------------------------------------
 BYTE   W24
 BYTE   N08  Gn3  v112
 BYTE   W24
 BYTE   N08  Gn3  v112
 BYTE   W24
 BYTE   N08  Gn3  v112
 BYTE   W24
// 009   ----------------------------------------
 BYTE   N08  Gn3  v112
 BYTE   W12
 BYTE   N08  Ds3  v112
 BYTE   W12
 BYTE   N08  Gn3  v112
 BYTE   W72
// 010   ----------------------------------------
 BYTE   W24
 BYTE   N08  Gs3  v112
 BYTE   W24
 BYTE   N08  Gs3  v112
 BYTE   W24
 BYTE   N08  Gs3  v112
 BYTE   W24
// 011   ----------------------------------------
 BYTE   N08  Gs3  v112
 BYTE   W12
 BYTE   N08  Gs3  v112
 BYTE   W12
 BYTE   N08  Gs3  v112
 BYTE   W72
// 012   ----------------------------------------
 BYTE   W24
 BYTE   N08  Gs3  v112
 BYTE   W24
 BYTE   N08  Gs3  v112
 BYTE   W24
 BYTE   N08  Gs3  v112
 BYTE   W24
// 013   ----------------------------------------
 BYTE   N08  Gs3  v112
 BYTE   W12
 BYTE   N08  Fn3  v112
 BYTE   W12
 BYTE   N08  Gs3  v112
 BYTE   W72
// 014   ----------------------------------------
 BYTE   W24
 BYTE   N08  Gn3  v112
 BYTE   W24
 BYTE   N08  Gn3  v112
 BYTE   W24
 BYTE   N08  Gn3  v112
 BYTE   W24
// 015   ----------------------------------------
 BYTE   N08  Gn3  v112
 BYTE   W12
 BYTE   N08  Gn3  v112
 BYTE   W12
 BYTE   N08  Gn3  v112
 BYTE   W72
// 016   ----------------------------------------
 BYTE   W24
 BYTE   N08  Gn3  v112
 BYTE   W24
 BYTE   N08  Gn3  v112
 BYTE   W24
 BYTE   N08  Gn3  v112
 BYTE   W24
// 017   ----------------------------------------
 BYTE   N08  Gn3  v112
 BYTE   W12
 BYTE   N08  Ds3  v112
 BYTE   W12
 BYTE   N08  Gn3  v112
 BYTE   W72
// 018   ----------------------------------------
 BYTE   W24
 BYTE   N08  Gs3  v112
 BYTE   W24
 BYTE   N08  Gs3  v112
 BYTE   W24
 BYTE   N08  Gs3  v112
 BYTE   W24
// 019   ----------------------------------------
 BYTE   N08  Gs3  v112
 BYTE   W12
 BYTE   N08  Gs3  v112
 BYTE   W12
 BYTE   N08  Gs3  v112
 BYTE   W72
// 020   ----------------------------------------
 BYTE   W24
 BYTE   N08  Gs3  v112
 BYTE   W24
 BYTE   N08  Gs3  v112
 BYTE   W24
 BYTE   N08  Gs3  v112
 BYTE   W24
// 021   ----------------------------------------
 BYTE   N08  Gs3  v112
 BYTE   W12
 BYTE   N08  Fn3  v112
 BYTE   W12
 BYTE   N08  Gs3  v112
 BYTE   W72
// 022   ----------------------------------------
 BYTE   W24
 BYTE   N08  Gn3  v112
 BYTE   W24
 BYTE   N08  Gn3  v112
 BYTE   W24
 BYTE   N08  Gn3  v112
 BYTE   W24
// 023   ----------------------------------------
 BYTE   N08  Gn3  v112
 BYTE   W12
 BYTE   N08  Gn3  v112
 BYTE   W12
 BYTE   N08  Gn3  v112
 BYTE   W72
// 024   ----------------------------------------
 BYTE   VOICE   18
 BYTE   VOL   50*song58_mvl/mxv
 BYTE   MODT 0
 BYTE   MODT 1
 BYTE   VOL   40*song58_mvl/mxv
 BYTE   TIE  Gn4  v112
 BYTE   W96
// 025   ----------------------------------------
 BYTE   W84
 BYTE   EOT
 BYTE   Gn4
 BYTE   W12
// 026   ----------------------------------------
 BYTE   TIE  Gs4  v112
 BYTE   W96
// 027   ----------------------------------------
 BYTE   W48
 BYTE   EOT
 BYTE   Gs4
 BYTE   N40  Gn4  v112
 BYTE   W48
// 028   ----------------------------------------
 BYTE   TIE  Fn4  v112
 BYTE   W96
// 029   ----------------------------------------
 BYTE   W84
 BYTE   EOT
 BYTE   Fn4
 BYTE   W12
// 030   ----------------------------------------
 BYTE   N84  Gn4  v112
 BYTE   W96
// 031   ----------------------------------------
 BYTE   N84  Dn4  v112
 BYTE   W96
// 032   ----------------------------------------
 BYTE   TIE  Gn4  v112
 BYTE   W96
// 033   ----------------------------------------
 BYTE   W84
 BYTE   EOT
 BYTE   Gn4
 BYTE   W12
// 034   ----------------------------------------
 BYTE   TIE  Gs4  v112
 BYTE   W96
// 035   ----------------------------------------
 BYTE   W48
 BYTE   EOT
 BYTE   Gs4
 BYTE   N40  Gn4  v112
 BYTE   W48
// 036   ----------------------------------------
 BYTE   TIE  Fn4  v112
 BYTE   W96
// 037   ----------------------------------------
 BYTE   W84
 BYTE   EOT
 BYTE   Fn4
 BYTE   W12
// 038   ----------------------------------------
 BYTE   N84  Gn4  v112
 BYTE   W96
// 039   ----------------------------------------
 BYTE   N84  Bn4  v112
 BYTE   W96
// 040   ----------------------------------------
 BYTE   VOICE   48
 BYTE   VOL   50*song58_mvl/mxv
 BYTE   MODT 0
 BYTE   MODT 1
 BYTE   VOL   47*song58_mvl/mxv
 BYTE   W24
 BYTE   N05  Bn4  v112
 BYTE   W08
 BYTE   N05  Bn4  v112
 BYTE   W08
 BYTE   N05  Bn4  v112
 BYTE   W08
 BYTE   N17  Bn4  v112
 BYTE   W24
 BYTE   N05  Bn4  v112
 BYTE   W08
 BYTE   N05  Bn4  v112
 BYTE   W08
 BYTE   N05  Bn4  v112
 BYTE   W08
// 041   ----------------------------------------
 BYTE   N17  Bn4  v112
 BYTE   W24
 BYTE   N05  Bn4  v112
 BYTE   W08
 BYTE   N05  Bn4  v112
 BYTE   W08
 BYTE   N05  Bn4  v112
 BYTE   W08
 BYTE   N08  Bn4  v112
 BYTE   W12
 BYTE   N08  Bn4  v112
 BYTE   W12
 BYTE   N17  Bn4  v112
 BYTE   W24
// 042   ----------------------------------------
 BYTE   W24
 BYTE   N05  Bn4  v112
 BYTE   W08
 BYTE   N05  Bn4  v112
 BYTE   W08
 BYTE   N05  Bn4  v112
 BYTE   W08
 BYTE   N17  Bn4  v112
 BYTE   W24
 BYTE   N05  Bn4  v112
 BYTE   W08
 BYTE   N05  Bn4  v112
 BYTE   W08
 BYTE   N05  Bn4  v112
 BYTE   W08
// 043   ----------------------------------------
 BYTE   N17  Bn4  v112
 BYTE   W24
 BYTE   N05  Bn4  v112
 BYTE   W08
 BYTE   N05  Bn4  v112
 BYTE   W08
 BYTE   N05  Bn4  v112
 BYTE   W08
 BYTE   N08  Bn4  v112
 BYTE   W12
 BYTE   N08  Bn4  v112
 BYTE   W12
 BYTE   N17  Bn4  v112
 BYTE   W24
// 044   ----------------------------------------
 BYTE   W24
 BYTE   N05  Gn4  v112
 BYTE   W08
 BYTE   N05  Gn4  v112
 BYTE   W08
 BYTE   N05  Gn4  v112
 BYTE   W08
 BYTE   N17  Gn4  v112
 BYTE   W24
 BYTE   N05  Gn4  v112
 BYTE   W08
 BYTE   N05  Gn4  v112
 BYTE   W08
 BYTE   N05  Gn4  v112
 BYTE   W08
// 045   ----------------------------------------
 BYTE   N17  Gn4  v112
 BYTE   W24
 BYTE   N05  Gn4  v112
 BYTE   W08
 BYTE   N05  Gn4  v112
 BYTE   W08
 BYTE   N07  Gn4  v112
 BYTE   W08
 BYTE   N08  Gn4  v112
 BYTE   W12
 BYTE   N08  Gn4  v112
 BYTE   W12
 BYTE   N17  Gn4  v112
 BYTE   W24
// 046   ----------------------------------------
 BYTE   W24
 BYTE   N05  An4  v112
 BYTE   W08
 BYTE   N05  An4  v112
 BYTE   W08
 BYTE   N05  An4  v112
 BYTE   W08
 BYTE   N17  An4  v112
 BYTE   W24
 BYTE   N05  An4  v112
 BYTE   W08
 BYTE   N05  An4  v112
 BYTE   W08
 BYTE   N05  An4  v112
 BYTE   W08
// 047   ----------------------------------------
 BYTE   N17  An4  v112
 BYTE   W24
 BYTE   N05  An4  v112
 BYTE   W08
 BYTE   N05  An4  v112
 BYTE   W08
 BYTE   N07  An4  v112
 BYTE   W08
 BYTE   N08  An4  v112
 BYTE   W12
 BYTE   N08  An4  v112
 BYTE   W12
 BYTE   N17  An4  v112
 BYTE   W24
// 048   ----------------------------------------
 BYTE   VOICE   48
 BYTE   VOL   50*song58_mvl/mxv
 BYTE   MODT 0
 BYTE   MODT 1
 BYTE   VOL   49*song58_mvl/mxv
 BYTE   N11  En3  v112
 BYTE   W12
 BYTE   N11  Gn3  v112
 BYTE   W12
 BYTE   N11  Bn3  v112
 BYTE   W12
 BYTE   N11  Ds4  v112
 BYTE   W12
 BYTE   TIE  En4  v112
 BYTE   W96
// 049   ----------------------------------------
 BYTE   W48
 BYTE   W96
// 050   ----------------------------------------
 BYTE   EOT
 BYTE   En4
 BYTE   N23  En4  v112
 BYTE   W24
 BYTE   N23  En4  v112
 BYTE   W24
 BYTE   N23  Dn4  v112
 BYTE   W24
 BYTE   N23  Cn4  v112
 BYTE   W24
// 051   ----------------------------------------
 BYTE   N48  Cn4  v112
 BYTE   W48
 BYTE   N64  En4  v112
 BYTE   W72
// 052   ----------------------------------------
 BYTE   N23  En3  v112
 BYTE   W24
 BYTE   N15  Gn3  v112
 BYTE   W16
 BYTE   N15  Cn4  v112
 BYTE   W16
 BYTE   N15  En4  v112
 BYTE   W16
 BYTE   N40  Fs4  v112
 BYTE   W48
// 053   ----------------------------------------
 BYTE   N15  Fs4  v112
 BYTE   W16
 BYTE   N15  Gn4  v112
 BYTE   W16
 BYTE   N15  Fs4  v112
 BYTE   W16
 BYTE   N15  Dn4  v112
 BYTE   W16
 BYTE   N15  Bn3  v112
 BYTE   W16
 BYTE   N15  An3  v112
 BYTE   W16
// 054   ----------------------------------------
 BYTE   N40  Fs3  v112
 BYTE   W48
 BYTE   VOICE   18
 BYTE   VOL   50*song58_mvl/mxv
 BYTE   MODT 0
 BYTE   MODT 1
 BYTE   VOL   33*song58_mvl/mxv
 BYTE   TIE  Gn4  v112
 BYTE   W96
// 055   ----------------------------------------
 BYTE   W84
 BYTE   EOT
 BYTE   Gn4
 BYTE   W12
// 056   ----------------------------------------
 BYTE   TIE  Fs4  v112
 BYTE   W96
// 057   ----------------------------------------
 BYTE   W84
 BYTE   EOT
 BYTE   Fs4
 BYTE   W12
// 058   ----------------------------------------
 BYTE   TIE  En4  v112
 BYTE   W96
// 059   ----------------------------------------
 BYTE   W84
 BYTE   EOT
 BYTE   En4
 BYTE   W12
// 060   ----------------------------------------
 BYTE   TIE  An4  v112
 BYTE   W96
// 061   ----------------------------------------
 BYTE   W84
 BYTE   EOT
 BYTE   An4
 BYTE   W12
// 062   ----------------------------------------
 BYTE   VOL   42*song58_mvl/mxv
 BYTE   N23  As4  v112
 BYTE   W24
 BYTE   N23  As3  v112
 BYTE   W24
 BYTE   N23  Gn4  v112
 BYTE   W24
 BYTE   N23  Gn3  v112
 BYTE   W24
// 063   ----------------------------------------
 BYTE   N23  Ds4  v112
 BYTE   W24
 BYTE   N23  Ds3  v112
 BYTE   W24
 BYTE   N23  As3  v112
 BYTE   W24
 BYTE   N23  As2  v112
 BYTE   W24
// 064   ----------------------------------------
 BYTE   N23  An4  v112
 BYTE   W24
 BYTE   N23  An3  v112
 BYTE   W24
 BYTE   N23  Fn4  v112
 BYTE   W24
 BYTE   N23  Fn3  v112
 BYTE   W24
// 065   ----------------------------------------
 BYTE   N23  Cn4  v112
 BYTE   W24
 BYTE   N23  Cn3  v112
 BYTE   W24
 BYTE   N23  An3  v112
 BYTE   W24
 BYTE   N23  An2  v112
 BYTE   W24
// 066   ----------------------------------------
 BYTE   TIE  Fn3  v112
 BYTE   W96
// 067   ----------------------------------------
 BYTE   W84
 BYTE   EOT
 BYTE   Fn3
 BYTE   W12
// 068   ----------------------------------------
 BYTE   TIE  En3  v112
 BYTE   W96
// 069   ----------------------------------------
 BYTE   W84
 BYTE   EOT
 BYTE   En3
 BYTE   W12
// 070   ----------------------------------------
 BYTE   GoTo
  POIN2 Label_3_010F75CC
 BYTE   FINE

//**************** Track 5 (Midi-Chn.4) ****************//

song58_005:
// 000   ----------------------------------------
Label_4_010F7930:
 BYTE   KEYSH   song58_key+0
 BYTE   VOICE   47
 BYTE   VOL   50*song58_mvl/mxv
 BYTE   MODT 0
 BYTE   MODT 1
 BYTE   VOL   60*song58_mvl/mxv
 BYTE   PAN   c_v+0
 BYTE   VOL   49*song58_mvl/mxv
 BYTE   N40  An2  v112
 BYTE   W48
 BYTE   N23  En2  v112
 BYTE   W24
 BYTE   N40  An2  v112
 BYTE   W48
// 001   ----------------------------------------
 BYTE   N23  En2  v112
 BYTE   W24
 BYTE   N23  An2  v112
 BYTE   W24
 BYTE   N23  En2  v112
 BYTE   W24
 BYTE   N40  An2  v112
 BYTE   W48
// 002   ----------------------------------------
 BYTE   N23  En2  v112
 BYTE   W24
 BYTE   N40  An2  v112
 BYTE   W48
 BYTE   N23  En2  v112
 BYTE   W24
// 003   ----------------------------------------
 BYTE   N23  An2  v112
 BYTE   W24
 BYTE   N23  En2  v112
 BYTE   W24
 BYTE   N40  An2  v112
 BYTE   W48
// 004   ----------------------------------------
 BYTE   N23  En2  v112
 BYTE   W24
 BYTE   N40  An2  v112
 BYTE   W48
 BYTE   N23  En2  v112
 BYTE   W24
// 005   ----------------------------------------
 BYTE   N23  An2  v112
 BYTE   W24
 BYTE   N23  En2  v112
 BYTE   W24
 BYTE   N40  An2  v112
 BYTE   W48
// 006   ----------------------------------------
 BYTE   N23  En2  v112
 BYTE   W24
 BYTE   N40  An2  v112
 BYTE   W48
 BYTE   N23  En2  v112
 BYTE   W24
// 007   ----------------------------------------
 BYTE   N23  An2  v112
 BYTE   W24
 BYTE   N23  En2  v112
 BYTE   W24
 BYTE   N40  An2  v112
 BYTE   W48
// 008   ----------------------------------------
 BYTE   N23  En2  v112
 BYTE   W24
 BYTE   N40  An2  v112
 BYTE   W48
 BYTE   N23  En2  v112
 BYTE   W24
// 009   ----------------------------------------
 BYTE   N23  An2  v112
 BYTE   W24
 BYTE   N23  En2  v112
 BYTE   W24
 BYTE   N40  An2  v112
 BYTE   W48
// 010   ----------------------------------------
 BYTE   N23  Fn2  v112
 BYTE   W24
 BYTE   N40  An2  v112
 BYTE   W48
 BYTE   N23  Fn2  v112
 BYTE   W24
// 011   ----------------------------------------
 BYTE   N23  An2  v112
 BYTE   W24
 BYTE   N23  Fn2  v112
 BYTE   W24
 BYTE   N40  An2  v112
 BYTE   W48
// 012   ----------------------------------------
 BYTE   N23  Fn2  v112
 BYTE   W24
 BYTE   N40  An2  v112
 BYTE   W48
 BYTE   N23  Fn2  v112
 BYTE   W24
// 013   ----------------------------------------
 BYTE   N23  An2  v112
 BYTE   W24
 BYTE   N23  Fn2  v112
 BYTE   W24
 BYTE   N40  An2  v112
 BYTE   W48
// 014   ----------------------------------------
 BYTE   N23  An2  v112
 BYTE   W24
 BYTE   N40  En2  v112
 BYTE   W48
 BYTE   N23  Gs2  v112
 BYTE   W24
// 015   ----------------------------------------
 BYTE   N23  Bn2  v112
 BYTE   W24
 BYTE   N23  En2  v112
 BYTE   W24
 BYTE   N40  An2  v112
 BYTE   W48
// 016   ----------------------------------------
 BYTE   N23  En2  v112
 BYTE   W24
 BYTE   N40  An2  v112
 BYTE   W48
 BYTE   N23  En2  v112
 BYTE   W24
// 017   ----------------------------------------
 BYTE   N23  An2  v112
 BYTE   W24
 BYTE   N23  En2  v112
 BYTE   W24
 BYTE   N40  An2  v112
 BYTE   W48
// 018   ----------------------------------------
 BYTE   N23  Fn2  v112
 BYTE   W24
 BYTE   N40  An2  v112
 BYTE   W48
 BYTE   N23  Fn2  v112
 BYTE   W24
// 019   ----------------------------------------
 BYTE   N23  An2  v112
 BYTE   W24
 BYTE   N23  Fn2  v112
 BYTE   W24
 BYTE   N40  An2  v112
 BYTE   W48
// 020   ----------------------------------------
 BYTE   N23  Fn2  v112
 BYTE   W24
 BYTE   N40  An2  v112
 BYTE   W48
 BYTE   N23  Fn2  v112
 BYTE   W24
// 021   ----------------------------------------
 BYTE   N23  An2  v112
 BYTE   W24
 BYTE   N23  Fn2  v112
 BYTE   W24
 BYTE   N40  An2  v112
 BYTE   W48
// 022   ----------------------------------------
 BYTE   N23  An2  v112
 BYTE   W24
 BYTE   N40  En2  v112
 BYTE   W48
 BYTE   N23  Gs2  v112
 BYTE   W24
// 023   ----------------------------------------
 BYTE   N23  Bn2  v112
 BYTE   W24
 BYTE   N23  En2  v112
 BYTE   W24
 BYTE   N40  An2  v112
 BYTE   W48
// 024   ----------------------------------------
 BYTE   N23  En2  v112
 BYTE   W24
 BYTE   N40  An2  v112
 BYTE   W48
 BYTE   N23  En2  v112
 BYTE   W24
// 025   ----------------------------------------
 BYTE   N23  An2  v112
 BYTE   W24
 BYTE   N23  En2  v112
 BYTE   W24
 BYTE   N40  An2  v112
 BYTE   W48
// 026   ----------------------------------------
 BYTE   N23  Fn2  v112
 BYTE   W24
 BYTE   N40  An2  v112
 BYTE   W48
 BYTE   N23  Fn2  v112
 BYTE   W24
// 027   ----------------------------------------
 BYTE   N23  An2  v112
 BYTE   W24
 BYTE   N23  Fn2  v112
 BYTE   W24
 BYTE   N40  An2  v112
 BYTE   W48
// 028   ----------------------------------------
 BYTE   N23  Fn2  v112
 BYTE   W24
 BYTE   N40  An2  v112
 BYTE   W48
 BYTE   N23  Fn2  v112
 BYTE   W24
// 029   ----------------------------------------
 BYTE   N23  An2  v112
 BYTE   W24
 BYTE   N23  Fn2  v112
 BYTE   W24
 BYTE   N40  An2  v112
 BYTE   W48
// 030   ----------------------------------------
 BYTE   N23  An2  v112
 BYTE   W24
 BYTE   N40  En2  v112
 BYTE   W48
 BYTE   N23  Gs2  v112
 BYTE   W24
// 031   ----------------------------------------
 BYTE   N23  Bn2  v112
 BYTE   W24
 BYTE   N23  En2  v112
 BYTE   W24
 BYTE   N40  An2  v112
 BYTE   W48
// 032   ----------------------------------------
 BYTE   N23  En2  v112
 BYTE   W24
 BYTE   N40  An2  v112
 BYTE   W48
 BYTE   N23  En2  v112
 BYTE   W24
// 033   ----------------------------------------
 BYTE   N23  An2  v112
 BYTE   W24
 BYTE   N23  En2  v112
 BYTE   W24
 BYTE   N40  An2  v112
 BYTE   W48
// 034   ----------------------------------------
 BYTE   N23  Fn2  v112
 BYTE   W24
 BYTE   N40  An2  v112
 BYTE   W48
 BYTE   N23  Fn2  v112
 BYTE   W24
// 035   ----------------------------------------
 BYTE   N23  An2  v112
 BYTE   W24
 BYTE   N23  Fn2  v112
 BYTE   W24
 BYTE   N40  An2  v112
 BYTE   W48
// 036   ----------------------------------------
 BYTE   N23  Fn2  v112
 BYTE   W24
 BYTE   N40  An2  v112
 BYTE   W48
 BYTE   N23  Fn2  v112
 BYTE   W24
// 037   ----------------------------------------
 BYTE   N23  An2  v112
 BYTE   W24
 BYTE   N23  Fn2  v112
 BYTE   W24
 BYTE   N40  An2  v112
 BYTE   W48
// 038   ----------------------------------------
 BYTE   N23  An2  v112
 BYTE   W24
 BYTE   N40  En2  v112
 BYTE   W48
 BYTE   N23  Gs2  v112
 BYTE   W24
// 039   ----------------------------------------
 BYTE   N23  Bn2  v112
 BYTE   W24
 BYTE   N23  En2  v112
 BYTE   W24
 BYTE   N40  Cs3  v112
 BYTE   W48
// 040   ----------------------------------------
 BYTE   N23  Gs2  v112
 BYTE   W24
 BYTE   N40  Cs3  v112
 BYTE   W48
 BYTE   N23  Gs2  v112
 BYTE   W24
// 041   ----------------------------------------
 BYTE   N11  Gs2  v112
 BYTE   W12
 BYTE   N11  Gs2  v112
 BYTE   W12
 BYTE   N11  Gs2  v127
 BYTE   W12
 BYTE   N11  Gs2  v112
 BYTE   W12
 BYTE   N40  Bn2  v112
 BYTE   W48
// 042   ----------------------------------------
 BYTE   N23  Gs2  v112
 BYTE   W24
 BYTE   N40  Bn2  v112
 BYTE   W48
 BYTE   N23  Gs2  v112
 BYTE   W24
// 043   ----------------------------------------
 BYTE   N11  Gs2  v112
 BYTE   W12
 BYTE   N11  Gs2  v112
 BYTE   W12
 BYTE   N11  Gs2  v127
 BYTE   W12
 BYTE   N11  Gs2  v112
 BYTE   W12
 BYTE   N40  An2  v112
 BYTE   W48
// 044   ----------------------------------------
 BYTE   N23  En2  v112
 BYTE   W24
 BYTE   N40  An2  v112
 BYTE   W48
 BYTE   N23  En2  v112
 BYTE   W24
// 045   ----------------------------------------
 BYTE   N11  En2  v112
 BYTE   W12
 BYTE   N11  En2  v112
 BYTE   W12
 BYTE   N11  En2  v112
 BYTE   W12
 BYTE   N11  En2  v112
 BYTE   W12
 BYTE   N40  Bn2  v112
 BYTE   W48
// 046   ----------------------------------------
 BYTE   N23  Fs2  v112
 BYTE   W24
 BYTE   N40  Bn2  v112
 BYTE   W48
 BYTE   N23  Fs2  v112
 BYTE   W24
// 047   ----------------------------------------
 BYTE   N11  Fs2  v112
 BYTE   W12
 BYTE   N11  Fs2  v112
 BYTE   W12
 BYTE   N11  Fs2  v127
 BYTE   W12
 BYTE   N11  Fs2  v112
 BYTE   W12
 BYTE   N40  Cs3  v112
 BYTE   W48
// 048   ----------------------------------------
 BYTE   N23  Gs2  v112
 BYTE   W24
 BYTE   N40  Cs3  v112
 BYTE   W48
 BYTE   N23  Gs2  v112
 BYTE   W24
// 049   ----------------------------------------
 BYTE   N11  Gs2  v112
 BYTE   W12
 BYTE   N11  Gs2  v112
 BYTE   W12
 BYTE   N11  Gs2  v127
 BYTE   W12
 BYTE   N11  Gs2  v112
 BYTE   W12
 BYTE   N40  Bn2  v112
 BYTE   W48
// 050   ----------------------------------------
 BYTE   N23  Gs2  v112
 BYTE   W24
 BYTE   N40  Bn2  v112
 BYTE   W48
 BYTE   N23  Gs2  v112
 BYTE   W24
// 051   ----------------------------------------
 BYTE   N11  Gs2  v112
 BYTE   W12
 BYTE   N11  Gs2  v112
 BYTE   W12
 BYTE   N11  Gs2  v127
 BYTE   W12
 BYTE   N11  Gs2  v112
 BYTE   W12
 BYTE   N40  An2  v112
 BYTE   W48
// 052   ----------------------------------------
 BYTE   N23  En2  v112
 BYTE   W24
 BYTE   N40  An2  v112
 BYTE   W48
 BYTE   N23  En2  v112
 BYTE   W24
// 053   ----------------------------------------
 BYTE   N11  En2  v112
 BYTE   W12
 BYTE   N11  En2  v112
 BYTE   W12
 BYTE   N11  En2  v112
 BYTE   W12
 BYTE   N11  En2  v112
 BYTE   W12
 BYTE   N40  Bn2  v112
 BYTE   W48
// 054   ----------------------------------------
 BYTE   N23  Fs2  v112
 BYTE   W24
 BYTE   N40  Bn2  v112
 BYTE   W48
 BYTE   N23  Fs2  v112
 BYTE   W24
// 055   ----------------------------------------
 BYTE   N11  Fs2  v112
 BYTE   W12
 BYTE   N11  Fs2  v112
 BYTE   W12
 BYTE   N11  Fs2  v127
 BYTE   W12
 BYTE   N11  Fs2  v112
 BYTE   W12
 BYTE   N40  An2  v112
 BYTE   W48
// 056   ----------------------------------------
 BYTE   N23  En2  v112
 BYTE   W24
 BYTE   N40  An2  v112
 BYTE   W48
 BYTE   N23  En2  v112
 BYTE   W24
// 057   ----------------------------------------
 BYTE   N11  An2  v112
 BYTE   W12
 BYTE   N11  An2  v112
 BYTE   W12
 BYTE   N11  An2  v127
 BYTE   W12
 BYTE   N11  An2  v112
 BYTE   W12
 BYTE   N40  Gs2  v112
 BYTE   W48
// 058   ----------------------------------------
 BYTE   N23  En2  v112
 BYTE   W24
 BYTE   N40  Gs2  v112
 BYTE   W48
 BYTE   N23  En2  v112
 BYTE   W24
// 059   ----------------------------------------
 BYTE   N11  Gs2  v112
 BYTE   W12
 BYTE   N11  Gs2  v112
 BYTE   W12
 BYTE   N11  Gs2  v127
 BYTE   W12
 BYTE   N11  Gs2  v112
 BYTE   W12
 BYTE   N40  An2  v112
 BYTE   W48
// 060   ----------------------------------------
 BYTE   N23  En2  v112
 BYTE   W24
 BYTE   N40  An2  v112
 BYTE   W48
 BYTE   N23  En2  v112
 BYTE   W24
// 061   ----------------------------------------
 BYTE   N11  An2  v112
 BYTE   W12
 BYTE   N11  An2  v112
 BYTE   W12
 BYTE   N11  An2  v127
 BYTE   W12
 BYTE   N11  An2  v112
 BYTE   W12
 BYTE   N40  Bn2  v112
 BYTE   W48
// 062   ----------------------------------------
 BYTE   N23  Fs2  v112
 BYTE   W24
 BYTE   N40  Bn1  v112
 BYTE   W48
 BYTE   N23  Fs2  v112
 BYTE   W24
// 063   ----------------------------------------
 BYTE   N11  Bn2  v112
 BYTE   W12
 BYTE   N11  Bn2  v112
 BYTE   W12
 BYTE   N11  Bn2  v127
 BYTE   W12
 BYTE   N11  Bn2  v112
 BYTE   W12
 BYTE   N40  Cs3  v112
 BYTE   W48
// 064   ----------------------------------------
 BYTE   N23  Gs2  v112
 BYTE   W24
 BYTE   N40  Cs3  v112
 BYTE   W48
 BYTE   N23  Gs2  v112
 BYTE   W24
// 065   ----------------------------------------
 BYTE   N11  Cs3  v112
 BYTE   W12
 BYTE   N11  Cs3  v112
 BYTE   W12
 BYTE   N11  Cs3  v127
 BYTE   W12
 BYTE   N11  Cs3  v112
 BYTE   W12
 BYTE   N40  Ds2  v112
 BYTE   W48
// 066   ----------------------------------------
 BYTE   N23  Gs2  v112
 BYTE   W24
 BYTE   N40  Ds2  v112
 BYTE   W48
 BYTE   N23  Gs2  v112
 BYTE   W24
// 067   ----------------------------------------
 BYTE   N11  Ds2  v112
 BYTE   W12
 BYTE   N11  Ds2  v112
 BYTE   W12
 BYTE   N11  Ds2  v127
 BYTE   W12
 BYTE   N11  Ds2  v112
 BYTE   W12
 BYTE   N40  An2  v112
 BYTE   W48
// 068   ----------------------------------------
 BYTE   N23  En2  v112
 BYTE   W24
 BYTE   N40  An2  v112
 BYTE   W48
 BYTE   N23  En2  v112
 BYTE   W24
// 069   ----------------------------------------
 BYTE   N40  An2  v112
 BYTE   W48
 BYTE   N23  En2  v112
 BYTE   W24
 BYTE   N40  An2  v112
 BYTE   W48
// 070   ----------------------------------------
 BYTE   N23  En2  v112
 BYTE   W24
 BYTE   N11  An2  v112
 BYTE   W12
 BYTE   N11  An2  v112
 BYTE   W12
 BYTE   N11  An2  v112
 BYTE   W12
 BYTE   N11  An2  v112
 BYTE   W12
 BYTE   N11  An2  v127
 BYTE   W12
 BYTE   N11  An2  v127
 BYTE   W12
// 071   ----------------------------------------
 BYTE   N11  An2  v127
 BYTE   W12
 BYTE   N11  An2  v127
 BYTE   W12
 BYTE   GoTo
  POIN2 Label_4_010F7930
 BYTE   FINE

//**************** Track 6 (Midi-Chn.5) ****************//

song58_006:
// 000   ----------------------------------------
Label_5_010F7D28:
 BYTE   KEYSH   song58_key+0
 BYTE   VOICE   41
 BYTE   VOL   50*song58_mvl/mxv
 BYTE   MODT 0
 BYTE   MODT 1
 BYTE   VOL   32*song58_mvl/mxv
 BYTE   PAN   c_v+0
 BYTE   VOL   54*song58_mvl/mxv
 BYTE   PAN   c_v-14
 BYTE   N08  Cn4  v112
 BYTE   W24
 BYTE   N08  Ds2  v112
 BYTE   W24
 BYTE   N08  Gn2  v112
 BYTE   W24
 BYTE   N08  Cn2  v112
 BYTE   W24
// 001   ----------------------------------------
 BYTE   N08  Ds2  v112
 BYTE   W24
 BYTE   N08  Gn2  v112
 BYTE   W24
 BYTE   N08  Cn3  v112
 BYTE   W12
 BYTE   N08  Gn2  v112
 BYTE   W12
 BYTE   N08  Ds2  v112
 BYTE   W24
// 002   ----------------------------------------
 BYTE   N08  Cn4  v112
 BYTE   W24
 BYTE   N08  Fn2  v112
 BYTE   W24
 BYTE   N08  Gs2  v112
 BYTE   W24
 BYTE   N08  Cn2  v112
 BYTE   W24
// 003   ----------------------------------------
 BYTE   N08  Fn2  v112
 BYTE   W24
 BYTE   N08  Gn2  v112
 BYTE   W24
 BYTE   N08  Cn3  v112
 BYTE   W12
 BYTE   N08  Gn2  v112
 BYTE   W12
 BYTE   N08  Ds2  v112
 BYTE   W24
// 004   ----------------------------------------
 BYTE   N08  Cn4  v112
 BYTE   W24
 BYTE   N08  Ds2  v112
 BYTE   W24
 BYTE   N08  Gn2  v112
 BYTE   W24
 BYTE   N08  Cn2  v112
 BYTE   W24
// 005   ----------------------------------------
 BYTE   N08  Ds2  v112
 BYTE   W24
 BYTE   N08  Gn2  v112
 BYTE   W24
 BYTE   N08  Cn3  v112
 BYTE   W12
 BYTE   N08  Gn2  v112
 BYTE   W12
 BYTE   N08  Ds2  v112
 BYTE   W24
// 006   ----------------------------------------
 BYTE   N08  Cn4  v112
 BYTE   W24
 BYTE   N08  Fn2  v112
 BYTE   W24
 BYTE   N08  Gs2  v112
 BYTE   W24
 BYTE   N08  Cn2  v112
 BYTE   W24
// 007   ----------------------------------------
 BYTE   N08  Fn2  v112
 BYTE   W24
 BYTE   N08  Gn2  v112
 BYTE   W24
 BYTE   N08  Cn3  v112
 BYTE   W12
 BYTE   N08  Gn2  v112
 BYTE   W12
 BYTE   N08  Ds2  v112
 BYTE   W24
// 008   ----------------------------------------
 BYTE   N08  Cn4  v112
 BYTE   W24
 BYTE   N08  Ds2  v112
 BYTE   W24
 BYTE   N08  Gn2  v112
 BYTE   W24
 BYTE   N08  Cn2  v112
 BYTE   W24
// 009   ----------------------------------------
 BYTE   N08  Ds2  v112
 BYTE   W24
 BYTE   N08  Gn2  v112
 BYTE   W24
 BYTE   N08  Cn3  v112
 BYTE   W12
 BYTE   N08  Gn2  v112
 BYTE   W12
 BYTE   N08  Ds2  v112
 BYTE   W24
// 010   ----------------------------------------
 BYTE   N08  Cn4  v112
 BYTE   W24
 BYTE   N08  Ds2  v112
 BYTE   W24
 BYTE   N08  Gs2  v112
 BYTE   W24
 BYTE   N08  Cn2  v112
 BYTE   W24
// 011   ----------------------------------------
 BYTE   N08  Ds2  v112
 BYTE   W24
 BYTE   N08  Gs2  v112
 BYTE   W24
 BYTE   N08  Cn3  v112
 BYTE   W12
 BYTE   N08  Gs2  v112
 BYTE   W12
 BYTE   N08  Ds2  v112
 BYTE   W24
// 012   ----------------------------------------
 BYTE   N08  Cn4  v112
 BYTE   W24
 BYTE   N08  Fn2  v112
 BYTE   W24
 BYTE   N08  Gs2  v112
 BYTE   W24
 BYTE   N08  Cn2  v112
 BYTE   W24
// 013   ----------------------------------------
 BYTE   N08  Fn2  v112
 BYTE   W24
 BYTE   N08  Gs2  v112
 BYTE   W24
 BYTE   N08  Cn3  v112
 BYTE   W12
 BYTE   N08  Gs2  v112
 BYTE   W12
 BYTE   N08  Fn2  v112
 BYTE   W24
// 014   ----------------------------------------
 BYTE   N08  Cn4  v112
 BYTE   W24
 BYTE   N08  Ds2  v112
 BYTE   W24
 BYTE   N08  Gn2  v112
 BYTE   W24
 BYTE   N08  Cn2  v112
 BYTE   W24
// 015   ----------------------------------------
 BYTE   N08  Gn2  v112
 BYTE   W24
 BYTE   N08  Bn2  v112
 BYTE   W24
 BYTE   N08  Dn3  v112
 BYTE   W12
 BYTE   N08  Bn2  v112
 BYTE   W12
 BYTE   N08  Gn2  v112
 BYTE   W24
// 016   ----------------------------------------
 BYTE   N08  Cn4  v112
 BYTE   W24
 BYTE   N08  Ds2  v112
 BYTE   W24
 BYTE   N08  Gn2  v112
 BYTE   W24
 BYTE   N08  Cn2  v112
 BYTE   W24
// 017   ----------------------------------------
 BYTE   N08  Ds2  v112
 BYTE   W24
 BYTE   N08  Gn2  v112
 BYTE   W24
 BYTE   N08  Cn3  v112
 BYTE   W12
 BYTE   N08  Gn2  v112
 BYTE   W12
 BYTE   N08  Ds2  v112
 BYTE   W24
// 018   ----------------------------------------
 BYTE   N08  Cn4  v112
 BYTE   W24
 BYTE   N08  Ds2  v112
 BYTE   W24
 BYTE   N08  Gs2  v112
 BYTE   W24
 BYTE   N08  Cn2  v112
 BYTE   W24
// 019   ----------------------------------------
 BYTE   N08  Ds2  v112
 BYTE   W24
 BYTE   N08  Gs2  v112
 BYTE   W24
 BYTE   N08  Cn3  v112
 BYTE   W12
 BYTE   N08  Gs2  v112
 BYTE   W12
 BYTE   N08  Ds2  v112
 BYTE   W24
// 020   ----------------------------------------
 BYTE   N08  Cn4  v112
 BYTE   W24
 BYTE   N08  Fn2  v112
 BYTE   W24
 BYTE   N08  Gs2  v112
 BYTE   W24
 BYTE   N08  Cn2  v112
 BYTE   W24
// 021   ----------------------------------------
 BYTE   N08  Fn2  v112
 BYTE   W24
 BYTE   N08  Gs2  v112
 BYTE   W24
 BYTE   N08  Cn3  v112
 BYTE   W12
 BYTE   N08  Gs2  v112
 BYTE   W12
 BYTE   N08  Fn2  v112
 BYTE   W24
// 022   ----------------------------------------
 BYTE   N08  Cn4  v112
 BYTE   W24
 BYTE   N08  Ds2  v112
 BYTE   W24
 BYTE   N08  Gn2  v112
 BYTE   W24
 BYTE   N08  Cn2  v112
 BYTE   W24
// 023   ----------------------------------------
 BYTE   N08  Gn2  v112
 BYTE   W24
 BYTE   N08  Bn2  v112
 BYTE   W24
 BYTE   N08  Dn3  v112
 BYTE   W12
 BYTE   N08  Bn2  v112
 BYTE   W12
 BYTE   N08  Gn2  v112
 BYTE   W24
// 024   ----------------------------------------
 BYTE   N08  Cn4  v112
 BYTE   W24
 BYTE   N08  Ds2  v112
 BYTE   W24
 BYTE   N08  Gn2  v112
 BYTE   W24
 BYTE   N08  Cn2  v112
 BYTE   W24
// 025   ----------------------------------------
 BYTE   N08  Ds2  v112
 BYTE   W24
 BYTE   N08  Gn2  v112
 BYTE   W24
 BYTE   N08  Cn3  v112
 BYTE   W12
 BYTE   N08  Gn2  v112
 BYTE   W12
 BYTE   N08  Ds2  v112
 BYTE   W24
// 026   ----------------------------------------
 BYTE   N08  Cn4  v112
 BYTE   W24
 BYTE   N08  Ds2  v112
 BYTE   W24
 BYTE   N08  Gs2  v112
 BYTE   W24
 BYTE   N08  Cn2  v112
 BYTE   W24
// 027   ----------------------------------------
 BYTE   N08  Ds2  v112
 BYTE   W24
 BYTE   N08  Gs2  v112
 BYTE   W24
 BYTE   N08  Cn3  v112
 BYTE   W12
 BYTE   N08  Gs2  v112
 BYTE   W12
 BYTE   N08  Ds2  v112
 BYTE   W24
// 028   ----------------------------------------
 BYTE   N08  Cn4  v112
 BYTE   W24
 BYTE   N08  Fn2  v112
 BYTE   W24
 BYTE   N08  Gs2  v112
 BYTE   W24
 BYTE   N08  Cn2  v112
 BYTE   W24
// 029   ----------------------------------------
 BYTE   N08  Fn2  v112
 BYTE   W24
 BYTE   N08  Gs2  v112
 BYTE   W24
 BYTE   N08  Cn3  v112
 BYTE   W12
 BYTE   N08  Gs2  v112
 BYTE   W12
 BYTE   N08  Fn2  v112
 BYTE   W24
// 030   ----------------------------------------
 BYTE   N08  Cn4  v112
 BYTE   W24
 BYTE   N08  Ds2  v112
 BYTE   W24
 BYTE   N08  Gn2  v112
 BYTE   W24
 BYTE   N08  Cn2  v112
 BYTE   W24
// 031   ----------------------------------------
 BYTE   N08  Gn2  v112
 BYTE   W24
 BYTE   N08  Bn2  v112
 BYTE   W24
 BYTE   N08  Dn3  v112
 BYTE   W12
 BYTE   N08  Bn2  v112
 BYTE   W12
 BYTE   N08  Gn2  v112
 BYTE   W24
// 032   ----------------------------------------
 BYTE   N08  Cn4  v112
 BYTE   W24
 BYTE   N08  Ds2  v112
 BYTE   W24
 BYTE   N08  Gn2  v112
 BYTE   W24
 BYTE   N08  Cn2  v112
 BYTE   W24
// 033   ----------------------------------------
 BYTE   N08  Ds2  v112
 BYTE   W24
 BYTE   N08  Gn2  v112
 BYTE   W24
 BYTE   N08  Cn3  v112
 BYTE   W12
 BYTE   N08  Gn2  v112
 BYTE   W12
 BYTE   N08  Ds2  v112
 BYTE   W24
// 034   ----------------------------------------
 BYTE   N08  Cn4  v112
 BYTE   W24
 BYTE   N08  Ds2  v112
 BYTE   W24
 BYTE   N08  Gs2  v112
 BYTE   W24
 BYTE   N08  Cn2  v112
 BYTE   W24
// 035   ----------------------------------------
 BYTE   N08  Ds2  v112
 BYTE   W24
 BYTE   N08  Gs2  v112
 BYTE   W24
 BYTE   N08  Cn3  v112
 BYTE   W12
 BYTE   N08  Gs2  v112
 BYTE   W12
 BYTE   N08  Ds2  v112
 BYTE   W24
// 036   ----------------------------------------
 BYTE   N08  Cn4  v112
 BYTE   W24
 BYTE   N08  Fn2  v112
 BYTE   W24
 BYTE   N08  Gs2  v112
 BYTE   W24
 BYTE   N08  Cn2  v112
 BYTE   W24
// 037   ----------------------------------------
 BYTE   N08  Fn2  v112
 BYTE   W24
 BYTE   N08  Gs2  v112
 BYTE   W24
 BYTE   N08  Cn3  v112
 BYTE   W12
 BYTE   N08  Gs2  v112
 BYTE   W12
 BYTE   N08  Fn2  v112
 BYTE   W24
// 038   ----------------------------------------
 BYTE   N08  Cn4  v112
 BYTE   W24
 BYTE   N08  Ds2  v112
 BYTE   W24
 BYTE   N08  Gn2  v112
 BYTE   W24
 BYTE   N08  Cn2  v112
 BYTE   W24
// 039   ----------------------------------------
 BYTE   N08  Gn2  v112
 BYTE   W24
 BYTE   N08  Bn2  v112
 BYTE   W24
 BYTE   N08  Dn3  v112
 BYTE   W12
 BYTE   N08  Bn2  v112
 BYTE   W12
 BYTE   N08  Gn2  v112
 BYTE   W24
// 040   ----------------------------------------
 BYTE   VOL   44*song58_mvl/mxv
 BYTE   N23  En3  v112
 BYTE   W24
 BYTE   N23  Gn2  v112
 BYTE   W24
 BYTE   N23  Bn2  v112
 BYTE   W24
 BYTE   N40  En2  v112
 BYTE   W48
// 041   ----------------------------------------
 BYTE   N23  Gn2  v112
 BYTE   W24
 BYTE   N23  Bn2  v112
 BYTE   W24
 BYTE   N23  En2  v112
 BYTE   W24
 BYTE   N23  En3  v112
 BYTE   W24
// 042   ----------------------------------------
 BYTE   N23  Gn2  v112
 BYTE   W24
 BYTE   N23  Bn2  v112
 BYTE   W24
 BYTE   N40  En2  v112
 BYTE   W48
// 043   ----------------------------------------
 BYTE   N23  Gn2  v112
 BYTE   W24
 BYTE   N23  Bn2  v112
 BYTE   W24
 BYTE   N23  En2  v112
 BYTE   W24
 BYTE   N23  Cn3  v112
 BYTE   W24
// 044   ----------------------------------------
 BYTE   N23  En2  v112
 BYTE   W24
 BYTE   N23  Gn2  v112
 BYTE   W24
 BYTE   N40  Cn2  v112
 BYTE   W48
// 045   ----------------------------------------
 BYTE   N23  En2  v112
 BYTE   W24
 BYTE   N23  Gn2  v112
 BYTE   W24
 BYTE   N23  Cn2  v112
 BYTE   W24
 BYTE   N23  Dn3  v112
 BYTE   W24
// 046   ----------------------------------------
 BYTE   N23  Fs2  v112
 BYTE   W24
 BYTE   N23  An2  v112
 BYTE   W24
 BYTE   N40  Dn2  v112
 BYTE   W48
// 047   ----------------------------------------
 BYTE   N23  Fs2  v112
 BYTE   W24
 BYTE   N23  An2  v112
 BYTE   W24
 BYTE   N23  Dn2  v112
 BYTE   W24
 BYTE   N23  En3  v112
 BYTE   W24
// 048   ----------------------------------------
 BYTE   N23  Gn2  v112
 BYTE   W24
 BYTE   N23  Bn2  v112
 BYTE   W24
 BYTE   N40  En2  v112
 BYTE   W48
// 049   ----------------------------------------
 BYTE   N23  Gn2  v112
 BYTE   W24
 BYTE   N23  Bn2  v112
 BYTE   W24
 BYTE   N23  En2  v112
 BYTE   W24
 BYTE   N23  En3  v112
 BYTE   W24
// 050   ----------------------------------------
 BYTE   N23  Gn2  v112
 BYTE   W24
 BYTE   N23  Bn2  v112
 BYTE   W24
 BYTE   N40  En2  v112
 BYTE   W48
// 051   ----------------------------------------
 BYTE   N23  Gn2  v112
 BYTE   W24
 BYTE   N23  Bn2  v112
 BYTE   W24
 BYTE   N23  En2  v112
 BYTE   W24
 BYTE   N23  Cn3  v112
 BYTE   W24
// 052   ----------------------------------------
 BYTE   N23  En2  v112
 BYTE   W24
 BYTE   N23  Gn2  v112
 BYTE   W24
 BYTE   N40  Cn2  v112
 BYTE   W48
// 053   ----------------------------------------
 BYTE   N23  En2  v112
 BYTE   W24
 BYTE   N23  Gn2  v112
 BYTE   W24
 BYTE   N23  Cn2  v112
 BYTE   W24
 BYTE   N23  Dn3  v112
 BYTE   W24
// 054   ----------------------------------------
 BYTE   N23  Fs2  v112
 BYTE   W24
 BYTE   N23  An2  v112
 BYTE   W24
 BYTE   N40  Dn2  v112
 BYTE   W48
// 055   ----------------------------------------
 BYTE   N23  Fs2  v112
 BYTE   W24
 BYTE   N23  An2  v112
 BYTE   W24
 BYTE   N23  Dn2  v112
 BYTE   W24
 BYTE   VOL   49*song58_mvl/mxv
 BYTE   N08  Cn4  v112
 BYTE   W24
// 056   ----------------------------------------
 BYTE   N08  En2  v112
 BYTE   W12
 BYTE   N08  Fn2  v112
 BYTE   W12
 BYTE   N08  Gn2  v112
 BYTE   W24
 BYTE   N08  Gn1  v112
 BYTE   W12
 BYTE   N08  Cn2  v112
 BYTE   W12
 BYTE   N08  En2  v112
 BYTE   W24
// 057   ----------------------------------------
 BYTE   N08  Gn2  v112
 BYTE   W24
 BYTE   N08  Cn3  v112
 BYTE   W12
 BYTE   N08  Gn2  v112
 BYTE   W12
 BYTE   N08  En2  v112
 BYTE   W24
 BYTE   N08  Bn3  v112
 BYTE   W24
// 058   ----------------------------------------
 BYTE   N08  Ds2  v112
 BYTE   W12
 BYTE   N08  En2  v112
 BYTE   W12
 BYTE   N08  Fs2  v112
 BYTE   W24
 BYTE   N08  Fs1  v112
 BYTE   W12
 BYTE   N08  Bn1  v112
 BYTE   W12
 BYTE   N08  Ds2  v112
 BYTE   W24
// 059   ----------------------------------------
 BYTE   N08  Fs2  v112
 BYTE   W24
 BYTE   N08  Bn2  v112
 BYTE   W12
 BYTE   N08  Fs2  v112
 BYTE   W12
 BYTE   N08  Ds2  v112
 BYTE   W24
 BYTE   N08  Cn4  v112
 BYTE   W24
// 060   ----------------------------------------
 BYTE   N08  En2  v112
 BYTE   W12
 BYTE   N08  Fn2  v112
 BYTE   W12
 BYTE   N08  Gn2  v112
 BYTE   W24
 BYTE   N08  Gn1  v112
 BYTE   W12
 BYTE   N08  Cn2  v112
 BYTE   W12
 BYTE   N08  En2  v112
 BYTE   W24
// 061   ----------------------------------------
 BYTE   N08  Gn2  v112
 BYTE   W24
 BYTE   N08  Cn3  v112
 BYTE   W12
 BYTE   N08  Gn2  v112
 BYTE   W12
 BYTE   N08  En2  v112
 BYTE   W24
 BYTE   N08  Dn4  v112
 BYTE   W24
// 062   ----------------------------------------
 BYTE   N08  Fs2  v112
 BYTE   W12
 BYTE   N08  Gn2  v112
 BYTE   W12
 BYTE   N08  An2  v112
 BYTE   W24
 BYTE   N08  An1  v112
 BYTE   W12
 BYTE   N08  Dn2  v112
 BYTE   W12
 BYTE   N08  Fs2  v112
 BYTE   W24
// 063   ----------------------------------------
 BYTE   N08  An2  v112
 BYTE   W24
 BYTE   N08  Dn3  v112
 BYTE   W12
 BYTE   N08  An2  v112
 BYTE   W12
 BYTE   N08  Fs2  v112
 BYTE   W24
 BYTE   N08  Ds4  v112
 BYTE   W24
// 064   ----------------------------------------
 BYTE   N08  Gn2  v112
 BYTE   W12
 BYTE   N08  Gs2  v112
 BYTE   W12
 BYTE   N08  As2  v112
 BYTE   W24
 BYTE   N08  As1  v112
 BYTE   W12
 BYTE   N08  Ds2  v112
 BYTE   W12
 BYTE   N08  Gn2  v112
 BYTE   W24
// 065   ----------------------------------------
 BYTE   N08  As2  v112
 BYTE   W24
 BYTE   N08  Ds3  v112
 BYTE   W12
 BYTE   N08  As2  v112
 BYTE   W12
 BYTE   N08  Gn2  v112
 BYTE   W24
 BYTE   N08  Cn4  v112
 BYTE   W24
// 066   ----------------------------------------
 BYTE   N08  Fn2  v112
 BYTE   W12
 BYTE   N08  Gn2  v112
 BYTE   W12
 BYTE   N08  An2  v112
 BYTE   W24
 BYTE   N08  An1  v112
 BYTE   W12
 BYTE   N08  Cn2  v112
 BYTE   W12
 BYTE   N08  Fn2  v112
 BYTE   W24
// 067   ----------------------------------------
 BYTE   N08  An2  v112
 BYTE   W24
 BYTE   N08  Cn3  v112
 BYTE   W12
 BYTE   N08  An2  v112
 BYTE   W12
 BYTE   N08  Fn2  v112
 BYTE   W24
 BYTE   VOL   49*song58_mvl/mxv
 BYTE   N23  Cn4  v112
 BYTE   W24
// 068   ----------------------------------------
 BYTE   N23  En3  v112
 BYTE   W24
 BYTE   N23  Fn3  v112
 BYTE   W24
 BYTE   N23  Gn3  v112
 BYTE   W24
 BYTE   N23  An3  v112
 BYTE   W24
// 069   ----------------------------------------
 BYTE   N23  Gn3  v112
 BYTE   W24
 BYTE   N23  Fn3  v112
 BYTE   W24
 BYTE   N23  En3  v112
 BYTE   W24
 BYTE   N23  En3  v112
 BYTE   W24
// 070   ----------------------------------------
 BYTE   N23  Cn3  v112
 BYTE   W24
 BYTE   N23  Gn2  v112
 BYTE   W24
 BYTE   N23  Cn3  v112
 BYTE   W24
 BYTE   N84  En2  v112
 BYTE   W96
// 071   ----------------------------------------
 BYTE   GoTo
  POIN2 Label_5_010F7D28
 BYTE   FINE

//**************** Track 7 (Midi-Chn.6) ****************//

song58_007:
// 000   ----------------------------------------
Label_6_010F8234:
 BYTE   KEYSH   song58_key+0
 BYTE   VOICE   100
 BYTE   VOL   50*song58_mvl/mxv
 BYTE   MODT 0
 BYTE   MODT 1
 BYTE   VOL   60*song58_mvl/mxv
 BYTE   PAN   c_v+0
 BYTE   VOL   37*song58_mvl/mxv
 BYTE   N72  Gn2  v112
 BYTE   W72
 BYTE   N72  Ds2  v112
 BYTE   W72
// 001   ----------------------------------------
 BYTE   N40  Cn2  v112
 BYTE   W48
 BYTE   N72  Cn2  v112
 BYTE   W72
// 002   ----------------------------------------
 BYTE   N48  Cn2  v112
 BYTE   W48
 BYTE   N72  Ds2  v112
 BYTE   W72
// 003   ----------------------------------------
 BYTE   N72  Gn2  v112
 BYTE   W72
 BYTE   N72  Ds2  v112
 BYTE   W72
// 004   ----------------------------------------
 BYTE   N40  Cn2  v112
 BYTE   W48
 BYTE   N72  Cn2  v112
 BYTE   W72
// 005   ----------------------------------------
 BYTE   N48  Cn2  v112
 BYTE   W48
 BYTE   N72  Ds2  v112
 BYTE   W72
// 006   ----------------------------------------
 BYTE   VOL   60*song58_mvl/mxv
 BYTE   TIE  Ds3  v112
 BYTE   W96
// 007   ----------------------------------------
 BYTE   W08
 BYTE   EOT
 BYTE   Ds3
 BYTE   W16
 BYTE   N24  Cn3  v112
 BYTE   W24
 BYTE   N24  Dn3  v112
 BYTE   W24
 BYTE   N23  Ds3  v112
 BYTE   W24
// 008   ----------------------------------------
 BYTE   N48  Gs3  v112
 BYTE   W48
 BYTE   N23  As3  v112
 BYTE   W24
 BYTE   N48  Gs3  v112
 BYTE   W48
// 009   ----------------------------------------
 BYTE   N72  Ds3  v112
 BYTE   W72
 BYTE   TIE  Fn3  v112
 BYTE   W96
// 010   ----------------------------------------
 BYTE   W08
 BYTE   EOT
 BYTE   Fn3
 BYTE   W16
 BYTE   N24  Cn3  v112
 BYTE   W24
 BYTE   N24  Dn3  v112
 BYTE   W24
 BYTE   N23  Fn3  v112
 BYTE   W24
// 011   ----------------------------------------
 BYTE   N64  Gn3  v112
 BYTE   W72
 BYTE   N08  Gn3  v112
 BYTE   W12
 BYTE   N08  Gs3  v112
 BYTE   W12
// 012   ----------------------------------------
 BYTE   N84  Gn3  v112
 BYTE   W96
// 013   ----------------------------------------
 BYTE   TIE  Cn3  v112
 BYTE   W96
// 014   ----------------------------------------
 BYTE   W08
 BYTE   EOT
 BYTE   Cn3
 BYTE   W16
 BYTE   N24  Ds3  v112
 BYTE   W24
 BYTE   N24  Dn3  v112
 BYTE   W24
 BYTE   N23  Ds3  v112
 BYTE   W24
// 015   ----------------------------------------
 BYTE   N48  Gs3  v112
 BYTE   W48
 BYTE   N23  As3  v112
 BYTE   W24
 BYTE   N48  Gs3  v112
 BYTE   W48
// 016   ----------------------------------------
 BYTE   N72  Ds3  v112
 BYTE   W72
 BYTE   N84  Fn3  v112
 BYTE   W96
// 017   ----------------------------------------
 BYTE   N23  Cn4  v112
 BYTE   W24
 BYTE   N24  Fn3  v112
 BYTE   W24
 BYTE   N24  Gs3  v112
 BYTE   W24
 BYTE   N23  Cn3  v112
 BYTE   W24
// 018   ----------------------------------------
 BYTE   N64  Gn3  v112
 BYTE   W72
 BYTE   N11  Gn3  v112
 BYTE   W12
 BYTE   N11  An3  v112
 BYTE   W12
// 019   ----------------------------------------
 BYTE   N84  Bn3  v112
 BYTE   W96
// 020   ----------------------------------------
 BYTE   TIE  Ds3  v112
 BYTE   W96
// 021   ----------------------------------------
 BYTE   W08
 BYTE   EOT
 BYTE   Ds3
 BYTE   W16
 BYTE   N24  Cn3  v112
 BYTE   W24
 BYTE   N24  Dn3  v112
 BYTE   W24
 BYTE   N23  Ds3  v112
 BYTE   W24
// 022   ----------------------------------------
 BYTE   N48  Gs3  v112
 BYTE   W48
 BYTE   N23  As3  v112
 BYTE   W24
 BYTE   N48  Gs3  v112
 BYTE   W48
// 023   ----------------------------------------
 BYTE   N72  Ds3  v112
 BYTE   W72
 BYTE   TIE  Fn3  v112
 BYTE   W96
// 024   ----------------------------------------
 BYTE   W08
 BYTE   EOT
 BYTE   Fn3
 BYTE   W16
 BYTE   N24  Cn3  v112
 BYTE   W24
 BYTE   N24  Dn3  v112
 BYTE   W24
 BYTE   N23  Fn3  v112
 BYTE   W24
// 025   ----------------------------------------
 BYTE   N64  Gn3  v112
 BYTE   W72
 BYTE   N08  Gn3  v112
 BYTE   W12
 BYTE   N08  Gs3  v112
 BYTE   W12
// 026   ----------------------------------------
 BYTE   N84  Gn3  v112
 BYTE   W96
// 027   ----------------------------------------
 BYTE   TIE  Cn3  v112
 BYTE   W96
// 028   ----------------------------------------
 BYTE   W08
 BYTE   EOT
 BYTE   Cn3
 BYTE   W16
 BYTE   N24  Ds3  v112
 BYTE   W24
 BYTE   N24  Dn3  v112
 BYTE   W24
 BYTE   N23  Ds3  v112
 BYTE   W24
// 029   ----------------------------------------
 BYTE   N48  Gs3  v112
 BYTE   W48
 BYTE   N23  As3  v112
 BYTE   W24
 BYTE   N48  Gs3  v112
 BYTE   W48
// 030   ----------------------------------------
 BYTE   N72  Ds3  v112
 BYTE   W72
 BYTE   N84  Fn3  v112
 BYTE   W96
// 031   ----------------------------------------
 BYTE   N23  Cn4  v112
 BYTE   W24
 BYTE   N24  Fn3  v112
 BYTE   W24
 BYTE   N24  Gs3  v112
 BYTE   W24
 BYTE   N23  Cn3  v112
 BYTE   W24
// 032   ----------------------------------------
 BYTE   N64  Gn3  v112
 BYTE   W72
 BYTE   N11  Gn3  v112
 BYTE   W12
 BYTE   N11  An3  v112
 BYTE   W12
// 033   ----------------------------------------
 BYTE   N84  Bn3  v112
 BYTE   W96
// 034   ----------------------------------------
 BYTE   N08  En3  v112
 BYTE   W12
 BYTE   N08  Fs3  v112
 BYTE   W12
 BYTE   N08  Gn3  v112
 BYTE   W12
 BYTE   N08  An3  v112
 BYTE   W12
 BYTE   TIE  Bn3  v112
 BYTE   W96
// 035   ----------------------------------------
 BYTE   W48
 BYTE   W96
// 036   ----------------------------------------
 BYTE   EOT
 BYTE   Bn3
 BYTE   N23  Bn3  v112
 BYTE   W24
 BYTE   N23  Cn4  v112
 BYTE   W24
 BYTE   N23  Bn3  v112
 BYTE   W24
 BYTE   N23  An3  v112
 BYTE   W24
// 037   ----------------------------------------
 BYTE   N40  Gn3  v112
 BYTE   W48
 BYTE   N64  En3  v112
 BYTE   W96
// 038   ----------------------------------------
 BYTE   N23  Cn3  v112
 BYTE   W24
 BYTE   N23  Cn2  v112
 BYTE   W24
 BYTE   N40  An3  v112
 BYTE   W48
// 039   ----------------------------------------
 BYTE   N84  Fs3  v112
 BYTE   W96
// 040   ----------------------------------------
 BYTE   N15  Dn3  v112
 BYTE   W16
 BYTE   N15  An2  v112
 BYTE   W16
 BYTE   N15  Dn3  v112
 BYTE   W16
 BYTE   N08  En3  v112
 BYTE   W12
 BYTE   N08  Fs3  v112
 BYTE   W12
 BYTE   N08  Gn3  v112
 BYTE   W12
 BYTE   N08  An3  v112
 BYTE   W12
// 041   ----------------------------------------
 BYTE   TIE  Bn3  v112
 BYTE   W96
// 042   ----------------------------------------
 BYTE   W48
 BYTE   W96
// 043   ----------------------------------------
 BYTE   EOT
 BYTE   Bn3
 BYTE   N23  Bn3  v112
 BYTE   W24
 BYTE   N23  Cn4  v112
 BYTE   W24
 BYTE   N23  Bn3  v112
 BYTE   W24
 BYTE   N23  An3  v112
 BYTE   W24
// 044   ----------------------------------------
 BYTE   N40  Gn3  v112
 BYTE   W48
 BYTE   N64  Cn4  v112
 BYTE   W72
// 045   ----------------------------------------
 BYTE   N23  Cn3  v112
 BYTE   W24
 BYTE   N15  En3  v112
 BYTE   W16
 BYTE   N15  Gn3  v112
 BYTE   W16
 BYTE   N15  Cn4  v112
 BYTE   W16
 BYTE   N40  Dn4  v112
 BYTE   W48
// 046   ----------------------------------------
 BYTE   N15  Dn4  v112
 BYTE   W16
 BYTE   N15  En4  v112
 BYTE   W16
 BYTE   N15  Dn4  v112
 BYTE   W16
 BYTE   N15  An3  v112
 BYTE   W16
 BYTE   N15  Fs3  v112
 BYTE   W16
 BYTE   N15  En3  v112
 BYTE   W16
// 047   ----------------------------------------
 BYTE   N40  Dn3  v112
 BYTE   W48
 BYTE   N64  Cn3  v112
 BYTE   W72
// 048   ----------------------------------------
 BYTE   N08  Cn3  v112
 BYTE   W12
 BYTE   N08  Dn3  v112
 BYTE   W12
 BYTE   N23  En3  v112
 BYTE   W24
 BYTE   N23  Fn3  v112
 BYTE   W24
 BYTE   N23  Gn3  v112
 BYTE   W24
// 049   ----------------------------------------
 BYTE   N23  En3  v112
 BYTE   W24
 BYTE   N23  Ds3  v112
 BYTE   W24
 BYTE   N23  Fs3  v112
 BYTE   W24
 BYTE   N23  Bn2  v112
 BYTE   W24
// 050   ----------------------------------------
 BYTE   N40  Bn3  v112
 BYTE   W48
 BYTE   N23  An3  v112
 BYTE   W24
 BYTE   N23  Gn3  v112
 BYTE   W24
// 051   ----------------------------------------
 BYTE   N23  Fs3  v112
 BYTE   W24
 BYTE   N64  En3  v112
 BYTE   W72
// 052   ----------------------------------------
 BYTE   N08  En3  v112
 BYTE   W12
 BYTE   N08  Fn3  v112
 BYTE   W12
 BYTE   N23  Gn3  v112
 BYTE   W24
 BYTE   N23  Cn4  v112
 BYTE   W24
 BYTE   N23  En4  v112
 BYTE   W24
// 053   ----------------------------------------
 BYTE   N23  Cn4  v112
 BYTE   W24
 BYTE   N23  Dn4  v112
 BYTE   W24
 BYTE   N23  An3  v112
 BYTE   W24
 BYTE   N23  Gn3  v112
 BYTE   W24
// 054   ----------------------------------------
 BYTE   N40  Fs3  v112
 BYTE   W48
 BYTE   N23  En3  v112
 BYTE   W24
 BYTE   N23  Dn3  v112
 BYTE   W24
// 055   ----------------------------------------
 BYTE   N23  Fs3  v112
 BYTE   W24
 BYTE   N08  Ds3  v112
 BYTE   W24
 BYTE   N11  Ds3  v112
 BYTE   W12
 BYTE   N11  Fn3  v112
 BYTE   W12
 BYTE   N84  Gn3  v112
 BYTE   W96
// 056   ----------------------------------------
 BYTE   N23  Ds3  v112
 BYTE   W24
 BYTE   N23  Gn3  v112
 BYTE   W24
 BYTE   N08  Fn3  v112
 BYTE   W24
 BYTE   N11  Fn3  v112
 BYTE   W12
 BYTE   N11  Gn3  v112
 BYTE   W12
// 057   ----------------------------------------
 BYTE   N84  An3  v112
 BYTE   W96
// 058   ----------------------------------------
 BYTE   N23  Fn3  v112
 BYTE   W24
 BYTE   N23  An3  v112
 BYTE   W24
 BYTE   TIE  Gn3  v112
 BYTE   W96
// 059   ----------------------------------------
 BYTE   W84
 BYTE   EOT
 BYTE   Gn3
 BYTE   W12
// 060   ----------------------------------------
 BYTE   N23  Cn3  v112
 BYTE   W36
 BYTE   N11  Cn3  v112
 BYTE   W12
 BYTE   N84  Cn3  v112
 BYTE   W96
// 061   ----------------------------------------
 BYTE   W48
 BYTE   GoTo
  POIN2 Label_6_010F8234
 BYTE   FINE

//**************** Track 8 (Midi-Chn.7) ****************//

song58_008:
// 000   ----------------------------------------
Label_7_010F84FC:
 BYTE   KEYSH   song58_key+0
 BYTE   VOICE   58
 BYTE   VOL   0*song58_mvl/mxv
 BYTE   MODT 0
 BYTE   MODT 1
 BYTE   VOL   10*song58_mvl/mxv
 BYTE   PAN   c_v+0
 BYTE   VOL   0*song58_mvl/mxv
 BYTE   PAN   c_v+31
 BYTE   W36
 BYTE   N08  Gn3  v112
 BYTE   W24
 BYTE   N08  Gn3  v112
 BYTE   W24
 BYTE   N08  Gn3  v112
 BYTE   W24
// 001   ----------------------------------------
 BYTE   N08  Gn3  v112
 BYTE   W12
 BYTE   N08  Gn3  v112
 BYTE   W12
 BYTE   N17  Gn3  v112
 BYTE   W60
 BYTE   W36
// 002   ----------------------------------------
 BYTE   N08  Gs3  v112
 BYTE   W24
 BYTE   N08  Gs3  v112
 BYTE   W24
 BYTE   N08  Gs3  v112
 BYTE   W24
 BYTE   N08  Gs3  v112
 BYTE   W12
 BYTE   N08  Gs3  v112
 BYTE   W12
// 003   ----------------------------------------
 BYTE   N17  Gn3  v112
 BYTE   W60
 BYTE   W36
// 004   ----------------------------------------
 BYTE   N08  Gn3  v112
 BYTE   W24
 BYTE   N08  Gn3  v112
 BYTE   W24
 BYTE   N08  Gn3  v112
 BYTE   W24
 BYTE   N08  Gn3  v112
 BYTE   W12
 BYTE   N08  Gn3  v112
 BYTE   W12
// 005   ----------------------------------------
 BYTE   N17  Gn3  v112
 BYTE   W60
 BYTE   W36
// 006   ----------------------------------------
 BYTE   N08  Gs3  v112
 BYTE   W24
 BYTE   N08  Gs3  v112
 BYTE   W24
 BYTE   N08  Gs3  v112
 BYTE   W24
 BYTE   N08  Gs3  v112
 BYTE   W12
 BYTE   N08  Gs3  v112
 BYTE   W12
// 007   ----------------------------------------
 BYTE   N17  Gn3  v112
 BYTE   W60
 BYTE   W36
// 008   ----------------------------------------
 BYTE   N08  Gn3  v112
 BYTE   W24
 BYTE   N08  Gn3  v112
 BYTE   W24
 BYTE   N08  Gn3  v112
 BYTE   W24
 BYTE   N08  Gn3  v112
 BYTE   W12
 BYTE   N08  Ds3  v112
 BYTE   W12
// 009   ----------------------------------------
 BYTE   N17  Gn3  v112
 BYTE   W60
 BYTE   W36
// 010   ----------------------------------------
 BYTE   N08  Gs3  v112
 BYTE   W24
 BYTE   N08  Gs3  v112
 BYTE   W24
 BYTE   N08  Gs3  v112
 BYTE   W24
 BYTE   N11  Gs3  v112
 BYTE   W12
 BYTE   N11  Gs3  v112
 BYTE   W12
// 011   ----------------------------------------
 BYTE   N17  Gs3  v112
 BYTE   W60
 BYTE   W36
// 012   ----------------------------------------
 BYTE   N08  Gs3  v112
 BYTE   W24
 BYTE   N08  Gs3  v112
 BYTE   W24
 BYTE   N08  Gs3  v112
 BYTE   W24
 BYTE   N08  Gs3  v112
 BYTE   W12
 BYTE   N08  Fn3  v112
 BYTE   W12
// 013   ----------------------------------------
 BYTE   N17  Gs3  v112
 BYTE   W60
 BYTE   W36
// 014   ----------------------------------------
 BYTE   N08  Gn3  v112
 BYTE   W24
 BYTE   N08  Gn3  v112
 BYTE   W24
 BYTE   N08  Gn3  v112
 BYTE   W24
 BYTE   N08  Gn3  v112
 BYTE   W12
 BYTE   N08  Gn3  v112
 BYTE   W12
// 015   ----------------------------------------
 BYTE   N17  Gn3  v112
 BYTE   W60
 BYTE   W36
// 016   ----------------------------------------
 BYTE   N08  Gn3  v112
 BYTE   W24
 BYTE   N08  Gn3  v112
 BYTE   W24
 BYTE   N08  Gn3  v112
 BYTE   W24
 BYTE   N08  Gn3  v112
 BYTE   W12
 BYTE   N08  Ds3  v112
 BYTE   W12
// 017   ----------------------------------------
 BYTE   N17  Gn3  v112
 BYTE   W60
 BYTE   W36
// 018   ----------------------------------------
 BYTE   N08  Gs3  v112
 BYTE   W24
 BYTE   N08  Gs3  v112
 BYTE   W24
 BYTE   N08  Gs3  v112
 BYTE   W24
 BYTE   N08  Gs3  v112
 BYTE   W12
 BYTE   N08  Gs3  v112
 BYTE   W12
// 019   ----------------------------------------
 BYTE   N17  Gs3  v112
 BYTE   W60
 BYTE   W36
// 020   ----------------------------------------
 BYTE   N08  Gs3  v112
 BYTE   W24
 BYTE   N08  Gs3  v112
 BYTE   W24
 BYTE   N08  Gs3  v112
 BYTE   W24
 BYTE   N08  Gs3  v112
 BYTE   W12
 BYTE   N08  Fn3  v112
 BYTE   W12
// 021   ----------------------------------------
 BYTE   N17  Gs3  v112
 BYTE   W60
 BYTE   W36
// 022   ----------------------------------------
 BYTE   N08  Gn3  v112
 BYTE   W24
 BYTE   N08  Gn3  v112
 BYTE   W24
 BYTE   N08  Gn3  v112
 BYTE   W24
 BYTE   N08  Gn3  v112
 BYTE   W12
 BYTE   N08  Gn3  v112
 BYTE   W12
// 023   ----------------------------------------
 BYTE   N17  Gn3  v112
 BYTE   W60
 BYTE   W96
// 024   ----------------------------------------
 BYTE   W96
// 025   ----------------------------------------
 BYTE   W96
// 026   ----------------------------------------
 BYTE   W96
// 027   ----------------------------------------
 BYTE   W96
// 028   ----------------------------------------
 BYTE   W96
// 029   ----------------------------------------
 BYTE   W96
// 030   ----------------------------------------
 BYTE   W96
// 031   ----------------------------------------
 BYTE   W96
// 032   ----------------------------------------
 BYTE   W96
// 033   ----------------------------------------
 BYTE   W96
// 034   ----------------------------------------
 BYTE   W96
// 035   ----------------------------------------
 BYTE   W96
// 036   ----------------------------------------
 BYTE   W96
// 037   ----------------------------------------
 BYTE   W96
// 038   ----------------------------------------
 BYTE   W96
// 039   ----------------------------------------
 BYTE   W96
// 040   ----------------------------------------
 BYTE   W96
// 041   ----------------------------------------
 BYTE   W96
// 042   ----------------------------------------
 BYTE   W96
// 043   ----------------------------------------
 BYTE   W96
// 044   ----------------------------------------
 BYTE   W96
// 045   ----------------------------------------
 BYTE   W96
// 046   ----------------------------------------
 BYTE   W96
// 047   ----------------------------------------
 BYTE   W96
// 048   ----------------------------------------
 BYTE   W96
// 049   ----------------------------------------
 BYTE   W96
// 050   ----------------------------------------
 BYTE   W96
// 051   ----------------------------------------
 BYTE   W96
// 052   ----------------------------------------
 BYTE   W96
// 053   ----------------------------------------
 BYTE   W96
// 054   ----------------------------------------
 BYTE   W96
// 055   ----------------------------------------
 BYTE   W96
// 056   ----------------------------------------
 BYTE   W96
// 057   ----------------------------------------
 BYTE   W96
// 058   ----------------------------------------
 BYTE   W96
// 059   ----------------------------------------
 BYTE   W96
// 060   ----------------------------------------
 BYTE   W96
// 061   ----------------------------------------
 BYTE   W96
// 062   ----------------------------------------
 BYTE   W96
// 063   ----------------------------------------
 BYTE   W96
// 064   ----------------------------------------
 BYTE   W96
// 065   ----------------------------------------
 BYTE   W96
// 066   ----------------------------------------
 BYTE   W96
// 067   ----------------------------------------
 BYTE   W96
// 068   ----------------------------------------
 BYTE   W96
// 069   ----------------------------------------
 BYTE   W96
// 070   ----------------------------------------
 BYTE   W96
// 071   ----------------------------------------
 BYTE   GoTo
  POIN2 Label_7_010F84FC
 BYTE   FINE

//**************** Track 9 (Midi-Chn.8) ****************//

song58_009:
// 000   ----------------------------------------
Label_8_010F8670:
 BYTE   KEYSH   song58_key+0
 BYTE   VOICE   56
 BYTE   VOL   0*song58_mvl/mxv
 BYTE   MODT 0
 BYTE   MODT 1
 BYTE   VOL   10*song58_mvl/mxv
 BYTE   PAN   c_v+0
 BYTE   VOL   0*song58_mvl/mxv
 BYTE   PAN   c_v+31
 BYTE   W36
 BYTE   N08  Ds3  v112
 BYTE   W24
 BYTE   N08  Ds3  v112
 BYTE   W24
 BYTE   N08  Ds3  v112
 BYTE   W24
// 001   ----------------------------------------
 BYTE   N08  Ds3  v112
 BYTE   W12
 BYTE   N08  Ds3  v112
 BYTE   W12
 BYTE   N17  Ds3  v112
 BYTE   W60
 BYTE   W36
// 002   ----------------------------------------
 BYTE   N08  Fn3  v112
 BYTE   W24
 BYTE   N08  Fn3  v112
 BYTE   W24
 BYTE   N08  Fn3  v112
 BYTE   W24
 BYTE   N08  Fn3  v112
 BYTE   W12
 BYTE   N08  Fn3  v112
 BYTE   W12
// 003   ----------------------------------------
 BYTE   N17  Ds3  v112
 BYTE   W60
 BYTE   W36
// 004   ----------------------------------------
 BYTE   N08  Ds3  v112
 BYTE   W24
 BYTE   N08  Ds3  v112
 BYTE   W24
 BYTE   N08  Ds3  v112
 BYTE   W24
 BYTE   N08  Ds3  v112
 BYTE   W12
 BYTE   N08  Ds3  v112
 BYTE   W12
// 005   ----------------------------------------
 BYTE   N17  Ds3  v112
 BYTE   W60
 BYTE   W36
// 006   ----------------------------------------
 BYTE   N08  Fn3  v112
 BYTE   W24
 BYTE   N08  Fn3  v112
 BYTE   W24
 BYTE   N08  Fn3  v112
 BYTE   W24
 BYTE   N08  Fn3  v112
 BYTE   W12
 BYTE   N08  Fn3  v112
 BYTE   W12
// 007   ----------------------------------------
 BYTE   N17  Ds3  v112
 BYTE   W60
 BYTE   W36
// 008   ----------------------------------------
 BYTE   N08  Ds3  v112
 BYTE   W24
 BYTE   N08  Ds3  v112
 BYTE   W24
 BYTE   N08  Ds3  v112
 BYTE   W24
 BYTE   N08  Ds3  v112
 BYTE   W12
 BYTE   N08  Cn3  v112
 BYTE   W12
// 009   ----------------------------------------
 BYTE   N17  Ds3  v112
 BYTE   W60
 BYTE   W36
// 010   ----------------------------------------
 BYTE   N08  Ds3  v112
 BYTE   W24
 BYTE   N08  Ds3  v112
 BYTE   W24
 BYTE   N08  Ds3  v112
 BYTE   W24
 BYTE   N08  Ds3  v112
 BYTE   W12
 BYTE   N08  Ds3  v112
 BYTE   W12
// 011   ----------------------------------------
 BYTE   N17  Ds3  v112
 BYTE   W60
 BYTE   W36
// 012   ----------------------------------------
 BYTE   N08  Fn3  v112
 BYTE   W24
 BYTE   N08  Fn3  v112
 BYTE   W24
 BYTE   N08  Fn3  v112
 BYTE   W24
 BYTE   N08  Fn3  v112
 BYTE   W12
 BYTE   N08  Gs3  v112
 BYTE   W12
// 013   ----------------------------------------
 BYTE   N17  Fn3  v112
 BYTE   W60
 BYTE   W36
// 014   ----------------------------------------
 BYTE   N08  Ds3  v112
 BYTE   W24
 BYTE   N08  Ds3  v112
 BYTE   W24
 BYTE   N08  Ds3  v112
 BYTE   W24
 BYTE   N08  Dn3  v112
 BYTE   W12
 BYTE   N08  Dn3  v112
 BYTE   W12
// 015   ----------------------------------------
 BYTE   N17  Dn3  v112
 BYTE   W60
 BYTE   W36
// 016   ----------------------------------------
 BYTE   N08  Ds3  v112
 BYTE   W24
 BYTE   N08  Ds3  v112
 BYTE   W24
 BYTE   N08  Ds3  v112
 BYTE   W24
 BYTE   N08  Ds3  v112
 BYTE   W12
 BYTE   N08  Cn3  v112
 BYTE   W12
// 017   ----------------------------------------
 BYTE   N17  Ds3  v112
 BYTE   W60
 BYTE   W36
// 018   ----------------------------------------
 BYTE   N08  Ds3  v112
 BYTE   W24
 BYTE   N08  Ds3  v112
 BYTE   W24
 BYTE   N08  Ds3  v112
 BYTE   W24
 BYTE   N08  Ds3  v112
 BYTE   W12
 BYTE   N08  Ds3  v112
 BYTE   W12
// 019   ----------------------------------------
 BYTE   N17  Ds3  v112
 BYTE   W60
 BYTE   W36
// 020   ----------------------------------------
 BYTE   N08  Fn3  v112
 BYTE   W24
 BYTE   N08  Fn3  v112
 BYTE   W24
 BYTE   N08  Fn3  v112
 BYTE   W24
 BYTE   N08  Fn3  v112
 BYTE   W12
 BYTE   N08  Gs3  v112
 BYTE   W12
// 021   ----------------------------------------
 BYTE   N17  Fn3  v112
 BYTE   W60
 BYTE   W36
// 022   ----------------------------------------
 BYTE   N08  Ds3  v112
 BYTE   W24
 BYTE   N08  Ds3  v112
 BYTE   W24
 BYTE   N08  Ds3  v112
 BYTE   W24
 BYTE   N08  Dn3  v112
 BYTE   W12
 BYTE   N08  Dn3  v112
 BYTE   W12
// 023   ----------------------------------------
 BYTE   N17  Dn3  v112
 BYTE   W60
 BYTE   W96
// 024   ----------------------------------------
 BYTE   W96
// 025   ----------------------------------------
 BYTE   W96
// 026   ----------------------------------------
 BYTE   W96
// 027   ----------------------------------------
 BYTE   W96
// 028   ----------------------------------------
 BYTE   W96
// 029   ----------------------------------------
 BYTE   W96
// 030   ----------------------------------------
 BYTE   W96
// 031   ----------------------------------------
 BYTE   W96
// 032   ----------------------------------------
 BYTE   W96
// 033   ----------------------------------------
 BYTE   W96
// 034   ----------------------------------------
 BYTE   W96
// 035   ----------------------------------------
 BYTE   W96
// 036   ----------------------------------------
 BYTE   W96
// 037   ----------------------------------------
 BYTE   W96
// 038   ----------------------------------------
 BYTE   W96
// 039   ----------------------------------------
 BYTE   W96
// 040   ----------------------------------------
 BYTE   W96
// 041   ----------------------------------------
 BYTE   W96
// 042   ----------------------------------------
 BYTE   W96
// 043   ----------------------------------------
 BYTE   W96
// 044   ----------------------------------------
 BYTE   W96
// 045   ----------------------------------------
 BYTE   W96
// 046   ----------------------------------------
 BYTE   W96
// 047   ----------------------------------------
 BYTE   W96
// 048   ----------------------------------------
 BYTE   W96
// 049   ----------------------------------------
 BYTE   W96
// 050   ----------------------------------------
 BYTE   W96
// 051   ----------------------------------------
 BYTE   W96
// 052   ----------------------------------------
 BYTE   W96
// 053   ----------------------------------------
 BYTE   W96
// 054   ----------------------------------------
 BYTE   W96
// 055   ----------------------------------------
 BYTE   W96
// 056   ----------------------------------------
 BYTE   W96
// 057   ----------------------------------------
 BYTE   W96
// 058   ----------------------------------------
 BYTE   W96
// 059   ----------------------------------------
 BYTE   W96
// 060   ----------------------------------------
 BYTE   W96
// 061   ----------------------------------------
 BYTE   W96
// 062   ----------------------------------------
 BYTE   W96
// 063   ----------------------------------------
 BYTE   W96
// 064   ----------------------------------------
 BYTE   W96
// 065   ----------------------------------------
 BYTE   W96
// 066   ----------------------------------------
 BYTE   W96
// 067   ----------------------------------------
 BYTE   W96
// 068   ----------------------------------------
 BYTE   W96
// 069   ----------------------------------------
 BYTE   W96
// 070   ----------------------------------------
 BYTE   W96
// 071   ----------------------------------------
 BYTE   GoTo
  POIN2 Label_8_010F8670
 BYTE   FINE

//**************** Track 10 (Midi-Chn.9) ****************//

song58_010:
// 000   ----------------------------------------
Label_9_010F87E4:
 BYTE   KEYSH   song58_key+0
 BYTE   VOICE   127
 BYTE   VOL   50*song58_mvl/mxv
 BYTE   MODT 0
 BYTE   MODT 1
 BYTE   VOICE   127
 BYTE   VOL   50*song58_mvl/mxv
 BYTE   MODT 0
 BYTE   MODT 1
 BYTE   VOL   60*song58_mvl/mxv
 BYTE   PAN   c_v+0
 BYTE   VOL   34*song58_mvl/mxv
 BYTE   N05  Dn1  v112
 BYTE   W06
 BYTE   N05  Dn1  v112
 BYTE   W06
 BYTE   N05  Dn1  v127
 BYTE   W06
 BYTE   N05  Dn1  v112
 BYTE   W06
 BYTE   N23  Dn1  v112
 BYTE   W24
 BYTE   N23  Dn1  v127
 BYTE   W24
 BYTE   N05  Dn1  v112
 BYTE   W06
 BYTE   N05  Dn1  v112
 BYTE   W06
 BYTE   N05  Dn1  v127
 BYTE   W06
 BYTE   N05  Dn1  v112
 BYTE   W06
// 001   ----------------------------------------
 BYTE   N23  Dn1  v112
 BYTE   W24
 BYTE   N23  Dn1  v127
 BYTE   W24
 BYTE   N05  Dn1  v112
 BYTE   W06
 BYTE   N05  Dn1  v112
 BYTE   W06
 BYTE   N05  Dn1  v127
 BYTE   W06
 BYTE   N05  Dn1  v112
 BYTE   W06
 BYTE   N23  Dn1  v112
 BYTE   W24
// 002   ----------------------------------------
 BYTE   VOICE   127
 BYTE   VOL   50*song58_mvl/mxv
 BYTE   MODT 0
 BYTE   MODT 1
 BYTE   N05  Dn1  v112
 BYTE   W06
 BYTE   N05  Dn1  v112
 BYTE   W06
 BYTE   N05  Dn1  v127
 BYTE   W06
 BYTE   N05  Dn1  v112
 BYTE   W06
 BYTE   N23  Dn1  v112
 BYTE   W24
 BYTE   N23  Dn1  v127
 BYTE   W24
 BYTE   N05  Dn1  v112
 BYTE   W06
 BYTE   N05  Dn1  v112
 BYTE   W06
 BYTE   N05  Dn1  v127
 BYTE   W06
 BYTE   N05  Dn1  v112
 BYTE   W06
// 003   ----------------------------------------
 BYTE   N23  Dn1  v112
 BYTE   W24
 BYTE   N23  Dn1  v127
 BYTE   W24
 BYTE   N05  Dn1  v112
 BYTE   W06
 BYTE   N05  Dn1  v112
 BYTE   W06
 BYTE   N05  Dn1  v127
 BYTE   W06
 BYTE   N05  Dn1  v112
 BYTE   W06
 BYTE   N23  Dn1  v112
 BYTE   W24
// 004   ----------------------------------------
 BYTE   VOICE   127
 BYTE   VOL   50*song58_mvl/mxv
 BYTE   MODT 0
 BYTE   MODT 1
 BYTE   N05  Dn1  v112
 BYTE   W06
 BYTE   N05  Dn1  v112
 BYTE   W06
 BYTE   N05  Dn1  v127
 BYTE   W06
 BYTE   N05  Dn1  v112
 BYTE   W06
 BYTE   N23  Dn1  v112
 BYTE   W24
 BYTE   N23  Dn1  v127
 BYTE   W24
 BYTE   N05  Dn1  v112
 BYTE   W06
 BYTE   N05  Dn1  v112
 BYTE   W06
 BYTE   N05  Dn1  v127
 BYTE   W06
 BYTE   N05  Dn1  v112
 BYTE   W06
// 005   ----------------------------------------
 BYTE   N23  Dn1  v112
 BYTE   W24
 BYTE   N23  Dn1  v127
 BYTE   W24
 BYTE   N05  Dn1  v112
 BYTE   W06
 BYTE   N05  Dn1  v112
 BYTE   W06
 BYTE   N05  Dn1  v127
 BYTE   W06
 BYTE   N05  Dn1  v112
 BYTE   W06
 BYTE   N23  Dn1  v112
 BYTE   W24
// 006   ----------------------------------------
 BYTE   VOICE   127
 BYTE   VOL   50*song58_mvl/mxv
 BYTE   MODT 0
 BYTE   MODT 1
 BYTE   N05  Dn1  v112
 BYTE   W06
 BYTE   N05  Dn1  v112
 BYTE   W06
 BYTE   N05  Dn1  v127
 BYTE   W06
 BYTE   N05  Dn1  v112
 BYTE   W06
 BYTE   N23  Dn1  v112
 BYTE   W24
 BYTE   N23  Dn1  v127
 BYTE   W24
 BYTE   N05  Dn1  v112
 BYTE   W06
 BYTE   N05  Dn1  v112
 BYTE   W06
 BYTE   N05  Dn1  v127
 BYTE   W06
 BYTE   N05  Dn1  v112
 BYTE   W06
// 007   ----------------------------------------
 BYTE   N23  Dn1  v112
 BYTE   W24
 BYTE   N23  Dn1  v127
 BYTE   W24
 BYTE   N11  Dn1  v112
 BYTE   W12
 BYTE   N11  Dn1  v112
 BYTE   W12
 BYTE   N11  Dn1  v127
 BYTE   W12
 BYTE   N11  Dn1  v112
 BYTE   W12
// 008   ----------------------------------------
 BYTE   VOICE   127
 BYTE   VOL   50*song58_mvl/mxv
 BYTE   MODT 0
 BYTE   MODT 1
 BYTE   N05  Dn1  v112
 BYTE   W06
 BYTE   N05  Dn1  v112
 BYTE   W06
 BYTE   N05  Dn1  v127
 BYTE   W06
 BYTE   N05  Dn1  v112
 BYTE   W06
 BYTE   N23  Dn1  v112
 BYTE   W24
 BYTE   N23  Dn1  v127
 BYTE   W24
 BYTE   N05  Dn1  v112
 BYTE   W06
 BYTE   N05  Dn1  v112
 BYTE   W06
 BYTE   N05  Dn1  v127
 BYTE   W06
 BYTE   N05  Dn1  v112
 BYTE   W06
// 009   ----------------------------------------
 BYTE   N23  Dn1  v112
 BYTE   W24
 BYTE   N23  Dn1  v127
 BYTE   W24
 BYTE   N05  Dn1  v112
 BYTE   W06
 BYTE   N05  Dn1  v112
 BYTE   W06
 BYTE   N05  Dn1  v127
 BYTE   W06
 BYTE   N05  Dn1  v112
 BYTE   W06
 BYTE   N23  Dn1  v112
 BYTE   W24
// 010   ----------------------------------------
 BYTE   VOICE   127
 BYTE   VOL   50*song58_mvl/mxv
 BYTE   MODT 0
 BYTE   MODT 1
 BYTE   N05  Dn1  v112
 BYTE   W06
 BYTE   N05  Dn1  v112
 BYTE   W06
 BYTE   N05  Dn1  v127
 BYTE   W06
 BYTE   N05  Dn1  v112
 BYTE   W06
 BYTE   N23  Dn1  v112
 BYTE   W24
 BYTE   N23  Dn1  v127
 BYTE   W24
 BYTE   N05  Dn1  v112
 BYTE   W06
 BYTE   N05  Dn1  v112
 BYTE   W06
 BYTE   N05  Dn1  v127
 BYTE   W06
 BYTE   N05  Dn1  v112
 BYTE   W06
// 011   ----------------------------------------
 BYTE   N23  Dn1  v112
 BYTE   W24
 BYTE   N23  Dn1  v127
 BYTE   W24
 BYTE   N11  Dn1  v112
 BYTE   W12
 BYTE   N11  Dn1  v112
 BYTE   W12
 BYTE   N11  Dn1  v127
 BYTE   W12
 BYTE   N11  Dn1  v112
 BYTE   W12
// 012   ----------------------------------------
 BYTE   VOICE   127
 BYTE   VOL   50*song58_mvl/mxv
 BYTE   MODT 0
 BYTE   MODT 1
 BYTE   N05  Dn1  v112
 BYTE   W06
 BYTE   N05  Dn1  v112
 BYTE   W06
 BYTE   N05  Dn1  v127
 BYTE   W06
 BYTE   N05  Dn1  v112
 BYTE   W06
 BYTE   N23  Dn1  v112
 BYTE   W24
 BYTE   N23  Dn1  v127
 BYTE   W24
 BYTE   N05  Dn1  v112
 BYTE   W06
 BYTE   N05  Dn1  v112
 BYTE   W06
 BYTE   N05  Dn1  v127
 BYTE   W06
 BYTE   N05  Dn1  v112
 BYTE   W06
// 013   ----------------------------------------
 BYTE   N23  Dn1  v112
 BYTE   W24
 BYTE   N23  Dn1  v127
 BYTE   W24
 BYTE   N05  Dn1  v112
 BYTE   W06
 BYTE   N05  Dn1  v112
 BYTE   W06
 BYTE   N05  Dn1  v127
 BYTE   W06
 BYTE   N05  Dn1  v112
 BYTE   W06
 BYTE   N23  Dn1  v112
 BYTE   W24
// 014   ----------------------------------------
 BYTE   VOICE   127
 BYTE   VOL   50*song58_mvl/mxv
 BYTE   MODT 0
 BYTE   MODT 1
 BYTE   N05  Dn1  v112
 BYTE   W06
 BYTE   N05  Dn1  v112
 BYTE   W06
 BYTE   N05  Dn1  v127
 BYTE   W06
 BYTE   N05  Dn1  v112
 BYTE   W06
 BYTE   N23  Dn1  v112
 BYTE   W24
 BYTE   N23  Dn1  v127
 BYTE   W24
 BYTE   N05  Dn1  v112
 BYTE   W06
 BYTE   N05  Dn1  v112
 BYTE   W06
 BYTE   N05  Dn1  v127
 BYTE   W06
 BYTE   N05  Dn1  v112
 BYTE   W06
// 015   ----------------------------------------
 BYTE   N23  Dn1  v112
 BYTE   W24
 BYTE   N23  Dn1  v127
 BYTE   W24
 BYTE   N11  Dn1  v112
 BYTE   W12
 BYTE   N11  Dn1  v112
 BYTE   W12
 BYTE   N11  Dn1  v127
 BYTE   W12
 BYTE   N11  Dn1  v112
 BYTE   W12
// 016   ----------------------------------------
 BYTE   VOICE   127
 BYTE   VOL   50*song58_mvl/mxv
 BYTE   MODT 0
 BYTE   MODT 1
 BYTE   N05  Dn1  v112
 BYTE   W06
 BYTE   N05  Dn1  v112
 BYTE   W06
 BYTE   N05  Dn1  v127
 BYTE   W06
 BYTE   N05  Dn1  v112
 BYTE   W06
 BYTE   N23  Dn1  v112
 BYTE   W24
 BYTE   N23  Dn1  v127
 BYTE   W24
 BYTE   N05  Dn1  v112
 BYTE   W06
 BYTE   N05  Dn1  v112
 BYTE   W06
 BYTE   N05  Dn1  v127
 BYTE   W06
 BYTE   N05  Dn1  v112
 BYTE   W06
// 017   ----------------------------------------
 BYTE   N23  Dn1  v112
 BYTE   W24
 BYTE   N23  Dn1  v127
 BYTE   W24
 BYTE   N05  Dn1  v112
 BYTE   W06
 BYTE   N05  Dn1  v112
 BYTE   W06
 BYTE   N05  Dn1  v127
 BYTE   W06
 BYTE   N05  Dn1  v112
 BYTE   W06
 BYTE   N23  Dn1  v112
 BYTE   W24
// 018   ----------------------------------------
 BYTE   VOICE   127
 BYTE   VOL   50*song58_mvl/mxv
 BYTE   MODT 0
 BYTE   MODT 1
 BYTE   N05  Dn1  v112
 BYTE   W06
 BYTE   N05  Dn1  v112
 BYTE   W06
 BYTE   N05  Dn1  v127
 BYTE   W06
 BYTE   N05  Dn1  v112
 BYTE   W06
 BYTE   N23  Dn1  v112
 BYTE   W24
 BYTE   N23  Dn1  v127
 BYTE   W24
 BYTE   N05  Dn1  v112
 BYTE   W06
 BYTE   N05  Dn1  v112
 BYTE   W06
 BYTE   N05  Dn1  v127
 BYTE   W06
 BYTE   N05  Dn1  v112
 BYTE   W06
// 019   ----------------------------------------
 BYTE   N23  Dn1  v112
 BYTE   W24
 BYTE   N23  Dn1  v127
 BYTE   W24
 BYTE   N11  Dn1  v112
 BYTE   W12
 BYTE   N11  Dn1  v112
 BYTE   W12
 BYTE   N11  Dn1  v127
 BYTE   W12
 BYTE   N11  Dn1  v112
 BYTE   W12
// 020   ----------------------------------------
 BYTE   VOICE   127
 BYTE   VOL   50*song58_mvl/mxv
 BYTE   MODT 0
 BYTE   MODT 1
 BYTE   N05  Dn1  v112
 BYTE   W06
 BYTE   N05  Dn1  v112
 BYTE   W06
 BYTE   N05  Dn1  v127
 BYTE   W06
 BYTE   N05  Dn1  v112
 BYTE   W06
 BYTE   N23  Dn1  v112
 BYTE   W24
 BYTE   N23  Dn1  v127
 BYTE   W24
 BYTE   N05  Dn1  v112
 BYTE   W06
 BYTE   N05  Dn1  v112
 BYTE   W06
 BYTE   N05  Dn1  v127
 BYTE   W06
 BYTE   N05  Dn1  v112
 BYTE   W06
// 021   ----------------------------------------
 BYTE   N23  Dn1  v112
 BYTE   W24
 BYTE   N23  Dn1  v127
 BYTE   W24
 BYTE   N05  Dn1  v112
 BYTE   W06
 BYTE   N05  Dn1  v112
 BYTE   W06
 BYTE   N05  Dn1  v127
 BYTE   W06
 BYTE   N05  Dn1  v112
 BYTE   W06
 BYTE   N23  Dn1  v112
 BYTE   W24
// 022   ----------------------------------------
 BYTE   VOICE   127
 BYTE   VOL   50*song58_mvl/mxv
 BYTE   MODT 0
 BYTE   MODT 1
 BYTE   N05  Dn1  v112
 BYTE   W06
 BYTE   N05  Dn1  v112
 BYTE   W06
 BYTE   N05  Dn1  v127
 BYTE   W06
 BYTE   N05  Dn1  v112
 BYTE   W06
 BYTE   N23  Dn1  v112
 BYTE   W24
 BYTE   N23  Dn1  v127
 BYTE   W24
 BYTE   N05  Dn1  v112
 BYTE   W06
 BYTE   N05  Dn1  v112
 BYTE   W06
 BYTE   N05  Dn1  v127
 BYTE   W06
 BYTE   N05  Dn1  v112
 BYTE   W06
// 023   ----------------------------------------
 BYTE   N23  Dn1  v112
 BYTE   W24
 BYTE   N23  Dn1  v127
 BYTE   W24
 BYTE   N11  Dn1  v112
 BYTE   W12
 BYTE   N11  Dn1  v112
 BYTE   W12
 BYTE   N11  Dn1  v127
 BYTE   W12
 BYTE   N11  Dn1  v112
 BYTE   W12
// 024   ----------------------------------------
 BYTE   VOICE   127
 BYTE   VOL   50*song58_mvl/mxv
 BYTE   MODT 0
 BYTE   MODT 1
 BYTE   N05  Dn1  v112
 BYTE   W06
 BYTE   N05  Dn1  v112
 BYTE   W06
 BYTE   N05  Dn1  v127
 BYTE   W06
 BYTE   N05  Dn1  v112
 BYTE   W06
 BYTE   N23  Dn1  v112
 BYTE   W24
 BYTE   N23  Dn1  v127
 BYTE   W24
 BYTE   N05  Dn1  v112
 BYTE   W06
 BYTE   N05  Dn1  v112
 BYTE   W06
 BYTE   N05  Dn1  v127
 BYTE   W06
 BYTE   N05  Dn1  v112
 BYTE   W06
// 025   ----------------------------------------
 BYTE   N23  Dn1  v112
 BYTE   W24
 BYTE   N23  Dn1  v127
 BYTE   W24
 BYTE   N05  Dn1  v112
 BYTE   W06
 BYTE   N05  Dn1  v112
 BYTE   W06
 BYTE   N05  Dn1  v127
 BYTE   W06
 BYTE   N05  Dn1  v112
 BYTE   W06
 BYTE   N23  Dn1  v112
 BYTE   W24
// 026   ----------------------------------------
 BYTE   VOICE   127
 BYTE   VOL   50*song58_mvl/mxv
 BYTE   MODT 0
 BYTE   MODT 1
 BYTE   N05  Dn1  v112
 BYTE   W06
 BYTE   N05  Dn1  v112
 BYTE   W06
 BYTE   N05  Dn1  v127
 BYTE   W06
 BYTE   N05  Dn1  v112
 BYTE   W06
 BYTE   N23  Dn1  v112
 BYTE   W24
 BYTE   N23  Dn1  v127
 BYTE   W24
 BYTE   N05  Dn1  v112
 BYTE   W06
 BYTE   N05  Dn1  v112
 BYTE   W06
 BYTE   N05  Dn1  v127
 BYTE   W06
 BYTE   N05  Dn1  v112
 BYTE   W06
// 027   ----------------------------------------
 BYTE   N23  Dn1  v112
 BYTE   W24
 BYTE   N23  Dn1  v127
 BYTE   W24
 BYTE   N11  Dn1  v112
 BYTE   W12
 BYTE   N11  Dn1  v112
 BYTE   W12
 BYTE   N11  Dn1  v127
 BYTE   W12
 BYTE   N11  Dn1  v112
 BYTE   W12
// 028   ----------------------------------------
 BYTE   VOICE   127
 BYTE   VOL   50*song58_mvl/mxv
 BYTE   MODT 0
 BYTE   MODT 1
 BYTE   N05  Dn1  v112
 BYTE   W06
 BYTE   N05  Dn1  v112
 BYTE   W06
 BYTE   N05  Dn1  v127
 BYTE   W06
 BYTE   N05  Dn1  v112
 BYTE   W06
 BYTE   N23  Dn1  v112
 BYTE   W24
 BYTE   N23  Dn1  v127
 BYTE   W24
 BYTE   N05  Dn1  v112
 BYTE   W06
 BYTE   N05  Dn1  v112
 BYTE   W06
 BYTE   N05  Dn1  v127
 BYTE   W06
 BYTE   N05  Dn1  v112
 BYTE   W06
// 029   ----------------------------------------
 BYTE   N23  Dn1  v112
 BYTE   W24
 BYTE   N23  Dn1  v127
 BYTE   W24
 BYTE   N05  Dn1  v112
 BYTE   W06
 BYTE   N05  Dn1  v112
 BYTE   W06
 BYTE   N05  Dn1  v127
 BYTE   W06
 BYTE   N05  Dn1  v112
 BYTE   W06
 BYTE   N23  Dn1  v112
 BYTE   W24
// 030   ----------------------------------------
 BYTE   VOICE   127
 BYTE   VOL   50*song58_mvl/mxv
 BYTE   MODT 0
 BYTE   MODT 1
 BYTE   N05  Dn1  v112
 BYTE   W06
 BYTE   N05  Dn1  v112
 BYTE   W06
 BYTE   N05  Dn1  v127
 BYTE   W06
 BYTE   N05  Dn1  v112
 BYTE   W06
 BYTE   N23  Dn1  v112
 BYTE   W24
 BYTE   N23  Dn1  v127
 BYTE   W24
 BYTE   N05  Dn1  v112
 BYTE   W06
 BYTE   N05  Dn1  v112
 BYTE   W06
 BYTE   N05  Dn1  v127
 BYTE   W06
 BYTE   N05  Dn1  v112
 BYTE   W06
// 031   ----------------------------------------
 BYTE   N23  Dn1  v112
 BYTE   W24
 BYTE   N23  Dn1  v127
 BYTE   W24
 BYTE   N11  Dn1  v112
 BYTE   W12
 BYTE   N11  Dn1  v112
 BYTE   W12
 BYTE   N11  Dn1  v127
 BYTE   W12
 BYTE   N11  Dn1  v112
 BYTE   W12
// 032   ----------------------------------------
 BYTE   VOICE   127
 BYTE   VOL   50*song58_mvl/mxv
 BYTE   MODT 0
 BYTE   MODT 1
 BYTE   N05  Dn1  v112
 BYTE   W06
 BYTE   N05  Dn1  v112
 BYTE   W06
 BYTE   N05  Dn1  v127
 BYTE   W06
 BYTE   N05  Dn1  v112
 BYTE   W06
 BYTE   N23  Dn1  v112
 BYTE   W24
 BYTE   N23  Dn1  v127
 BYTE   W24
 BYTE   N05  Dn1  v112
 BYTE   W06
 BYTE   N05  Dn1  v112
 BYTE   W06
 BYTE   N05  Dn1  v127
 BYTE   W06
 BYTE   N05  Dn1  v112
 BYTE   W06
// 033   ----------------------------------------
 BYTE   N23  Dn1  v112
 BYTE   W24
 BYTE   N23  Dn1  v127
 BYTE   W24
 BYTE   N05  Dn1  v112
 BYTE   W06
 BYTE   N05  Dn1  v112
 BYTE   W06
 BYTE   N05  Dn1  v127
 BYTE   W06
 BYTE   N05  Dn1  v112
 BYTE   W06
 BYTE   N23  Dn1  v112
 BYTE   W24
// 034   ----------------------------------------
 BYTE   VOICE   127
 BYTE   VOL   50*song58_mvl/mxv
 BYTE   MODT 0
 BYTE   MODT 1
 BYTE   N05  Dn1  v112
 BYTE   W06
 BYTE   N05  Dn1  v112
 BYTE   W06
 BYTE   N05  Dn1  v127
 BYTE   W06
 BYTE   N05  Dn1  v112
 BYTE   W06
 BYTE   N23  Dn1  v112
 BYTE   W24
 BYTE   N23  Dn1  v127
 BYTE   W24
 BYTE   N05  Dn1  v112
 BYTE   W06
 BYTE   N05  Dn1  v112
 BYTE   W06
 BYTE   N05  Dn1  v127
 BYTE   W06
 BYTE   N05  Dn1  v112
 BYTE   W06
// 035   ----------------------------------------
 BYTE   N23  Dn1  v112
 BYTE   W24
 BYTE   N23  Dn1  v127
 BYTE   W24
 BYTE   N11  Dn1  v112
 BYTE   W12
 BYTE   N11  Dn1  v112
 BYTE   W12
 BYTE   N11  Dn1  v127
 BYTE   W12
 BYTE   N11  Dn1  v112
 BYTE   W12
// 036   ----------------------------------------
 BYTE   VOICE   127
 BYTE   VOL   50*song58_mvl/mxv
 BYTE   MODT 0
 BYTE   MODT 1
 BYTE   N05  Dn1  v112
 BYTE   W06
 BYTE   N05  Dn1  v112
 BYTE   W06
 BYTE   N05  Dn1  v127
 BYTE   W06
 BYTE   N05  Dn1  v112
 BYTE   W06
 BYTE   N23  Dn1  v112
 BYTE   W24
 BYTE   N23  Dn1  v127
 BYTE   W24
 BYTE   N05  Dn1  v112
 BYTE   W06
 BYTE   N05  Dn1  v112
 BYTE   W06
 BYTE   N05  Dn1  v127
 BYTE   W06
 BYTE   N05  Dn1  v112
 BYTE   W06
// 037   ----------------------------------------
 BYTE   N23  Dn1  v112
 BYTE   W24
 BYTE   N23  Dn1  v127
 BYTE   W24
 BYTE   N05  Dn1  v112
 BYTE   W06
 BYTE   N05  Dn1  v112
 BYTE   W06
 BYTE   N05  Dn1  v127
 BYTE   W06
 BYTE   N05  Dn1  v112
 BYTE   W06
 BYTE   N23  Dn1  v112
 BYTE   W24
// 038   ----------------------------------------
 BYTE   VOICE   127
 BYTE   VOL   50*song58_mvl/mxv
 BYTE   MODT 0
 BYTE   MODT 1
 BYTE   N05  Dn1  v112
 BYTE   W06
 BYTE   N05  Dn1  v112
 BYTE   W06
 BYTE   N05  Dn1  v127
 BYTE   W06
 BYTE   N05  Dn1  v112
 BYTE   W06
 BYTE   N23  Dn1  v112
 BYTE   W24
 BYTE   N23  Dn1  v127
 BYTE   W24
 BYTE   N05  Dn1  v112
 BYTE   W06
 BYTE   N05  Dn1  v112
 BYTE   W06
 BYTE   N05  Dn1  v127
 BYTE   W06
 BYTE   N05  Dn1  v112
 BYTE   W06
// 039   ----------------------------------------
 BYTE   N23  Dn1  v112
 BYTE   W24
 BYTE   N23  Dn1  v127
 BYTE   W24
 BYTE   N11  Dn1  v112
 BYTE   W12
 BYTE   N11  Dn1  v112
 BYTE   W12
 BYTE   N11  Dn1  v127
 BYTE   W12
 BYTE   N11  Dn1  v112
 BYTE   W12
// 040   ----------------------------------------
 BYTE   VOICE   127
 BYTE   VOL   50*song58_mvl/mxv
 BYTE   MODT 0
 BYTE   MODT 1
 BYTE   N05  Dn1  v112
 BYTE   W06
 BYTE   N05  Dn1  v112
 BYTE   W06
 BYTE   N05  Dn1  v127
 BYTE   W06
 BYTE   N05  Dn1  v112
 BYTE   W06
 BYTE   N23  Dn1  v112
 BYTE   W24
 BYTE   N23  Dn1  v127
 BYTE   W24
 BYTE   N05  Dn1  v112
 BYTE   W06
 BYTE   N05  Dn1  v112
 BYTE   W06
 BYTE   N05  Dn1  v127
 BYTE   W06
 BYTE   N05  Dn1  v112
 BYTE   W06
// 041   ----------------------------------------
 BYTE   N23  Dn1  v112
 BYTE   W24
 BYTE   N23  Dn1  v127
 BYTE   W24
 BYTE   N05  Dn1  v112
 BYTE   W06
 BYTE   N05  Dn1  v112
 BYTE   W06
 BYTE   N05  Dn1  v127
 BYTE   W06
 BYTE   N05  Dn1  v112
 BYTE   W06
 BYTE   N23  Dn1  v112
 BYTE   W24
// 042   ----------------------------------------
 BYTE   VOICE   127
 BYTE   VOL   50*song58_mvl/mxv
 BYTE   MODT 0
 BYTE   MODT 1
 BYTE   N05  Dn1  v112
 BYTE   W06
 BYTE   N05  Dn1  v112
 BYTE   W06
 BYTE   N05  Dn1  v127
 BYTE   W06
 BYTE   N05  Dn1  v112
 BYTE   W06
 BYTE   N23  Dn1  v112
 BYTE   W24
 BYTE   N23  Dn1  v127
 BYTE   W24
 BYTE   N05  Dn1  v112
 BYTE   W06
 BYTE   N05  Dn1  v112
 BYTE   W06
 BYTE   N05  Dn1  v127
 BYTE   W06
 BYTE   N05  Dn1  v112
 BYTE   W06
// 043   ----------------------------------------
 BYTE   N23  Dn1  v112
 BYTE   W24
 BYTE   N23  Dn1  v127
 BYTE   W24
 BYTE   N05  Dn1  v112
 BYTE   W06
 BYTE   N05  Dn1  v112
 BYTE   W06
 BYTE   N05  Dn1  v127
 BYTE   W06
 BYTE   N05  Dn1  v112
 BYTE   W06
 BYTE   N23  Dn1  v112
 BYTE   W24
// 044   ----------------------------------------
 BYTE   VOICE   127
 BYTE   VOL   50*song58_mvl/mxv
 BYTE   MODT 0
 BYTE   MODT 1
 BYTE   N05  Dn1  v112
 BYTE   W06
 BYTE   N05  Dn1  v112
 BYTE   W06
 BYTE   N05  Dn1  v127
 BYTE   W06
 BYTE   N05  Dn1  v112
 BYTE   W06
 BYTE   N23  Dn1  v112
 BYTE   W24
 BYTE   N23  Dn1  v127
 BYTE   W24
 BYTE   N05  Dn1  v112
 BYTE   W06
 BYTE   N05  Dn1  v112
 BYTE   W06
 BYTE   N05  Dn1  v127
 BYTE   W06
 BYTE   N05  Dn1  v112
 BYTE   W06
// 045   ----------------------------------------
 BYTE   N23  Dn1  v112
 BYTE   W24
 BYTE   N23  Dn1  v127
 BYTE   W24
 BYTE   N05  Dn1  v112
 BYTE   W06
 BYTE   N05  Dn1  v112
 BYTE   W06
 BYTE   N05  Dn1  v127
 BYTE   W06
 BYTE   N05  Dn1  v112
 BYTE   W06
 BYTE   N23  Dn1  v112
 BYTE   W24
// 046   ----------------------------------------
 BYTE   VOICE   127
 BYTE   VOL   50*song58_mvl/mxv
 BYTE   MODT 0
 BYTE   MODT 1
 BYTE   N05  Dn1  v112
 BYTE   W06
 BYTE   N05  Dn1  v112
 BYTE   W06
 BYTE   N05  Dn1  v127
 BYTE   W06
 BYTE   N05  Dn1  v112
 BYTE   W06
 BYTE   N23  Dn1  v112
 BYTE   W24
 BYTE   N23  Dn1  v127
 BYTE   W24
 BYTE   N05  Dn1  v112
 BYTE   W06
 BYTE   N05  Dn1  v112
 BYTE   W06
 BYTE   N05  Dn1  v127
 BYTE   W06
 BYTE   N05  Dn1  v112
 BYTE   W06
// 047   ----------------------------------------
 BYTE   N23  Dn1  v112
 BYTE   W24
 BYTE   N23  Dn1  v127
 BYTE   W24
 BYTE   N11  Dn1  v112
 BYTE   W12
 BYTE   N11  Dn1  v112
 BYTE   W12
 BYTE   N11  Dn1  v127
 BYTE   W12
 BYTE   N11  Dn1  v112
 BYTE   W12
// 048   ----------------------------------------
 BYTE   VOICE   127
 BYTE   VOL   50*song58_mvl/mxv
 BYTE   MODT 0
 BYTE   MODT 1
 BYTE   N05  Dn1  v112
 BYTE   W06
 BYTE   N05  Dn1  v112
 BYTE   W06
 BYTE   N05  Dn1  v127
 BYTE   W06
 BYTE   N05  Dn1  v112
 BYTE   W06
 BYTE   N23  Dn1  v112
 BYTE   W24
 BYTE   N23  Dn1  v127
 BYTE   W24
 BYTE   N05  Dn1  v112
 BYTE   W06
 BYTE   N05  Dn1  v112
 BYTE   W06
 BYTE   N05  Dn1  v127
 BYTE   W06
 BYTE   N05  Dn1  v112
 BYTE   W06
// 049   ----------------------------------------
 BYTE   N23  Dn1  v112
 BYTE   W24
 BYTE   N23  Dn1  v127
 BYTE   W24
 BYTE   N05  Dn1  v112
 BYTE   W06
 BYTE   N05  Dn1  v112
 BYTE   W06
 BYTE   N05  Dn1  v127
 BYTE   W06
 BYTE   N05  Dn1  v112
 BYTE   W06
 BYTE   N23  Dn1  v112
 BYTE   W24
// 050   ----------------------------------------
 BYTE   VOICE   127
 BYTE   VOL   50*song58_mvl/mxv
 BYTE   MODT 0
 BYTE   MODT 1
 BYTE   N05  Dn1  v112
 BYTE   W06
 BYTE   N05  Dn1  v112
 BYTE   W06
 BYTE   N05  Dn1  v127
 BYTE   W06
 BYTE   N05  Dn1  v112
 BYTE   W06
 BYTE   N23  Dn1  v112
 BYTE   W24
 BYTE   N23  Dn1  v127
 BYTE   W24
 BYTE   N05  Dn1  v112
 BYTE   W06
 BYTE   N05  Dn1  v112
 BYTE   W06
 BYTE   N05  Dn1  v127
 BYTE   W06
 BYTE   N05  Dn1  v112
 BYTE   W06
// 051   ----------------------------------------
 BYTE   N23  Dn1  v112
 BYTE   W24
 BYTE   N23  Dn1  v127
 BYTE   W24
 BYTE   N05  Dn1  v112
 BYTE   W06
 BYTE   N05  Dn1  v112
 BYTE   W06
 BYTE   N05  Dn1  v127
 BYTE   W06
 BYTE   N05  Dn1  v112
 BYTE   W06
 BYTE   N23  Dn1  v112
 BYTE   W24
// 052   ----------------------------------------
 BYTE   VOICE   127
 BYTE   VOL   50*song58_mvl/mxv
 BYTE   MODT 0
 BYTE   MODT 1
 BYTE   N05  Dn1  v112
 BYTE   W06
 BYTE   N05  Dn1  v112
 BYTE   W06
 BYTE   N05  Dn1  v127
 BYTE   W06
 BYTE   N05  Dn1  v112
 BYTE   W06
 BYTE   N23  Dn1  v112
 BYTE   W24
 BYTE   N23  Dn1  v127
 BYTE   W24
 BYTE   N05  Dn1  v112
 BYTE   W06
 BYTE   N05  Dn1  v112
 BYTE   W06
 BYTE   N05  Dn1  v127
 BYTE   W06
 BYTE   N05  Dn1  v112
 BYTE   W06
// 053   ----------------------------------------
 BYTE   N23  Dn1  v112
 BYTE   W24
 BYTE   N23  Dn1  v127
 BYTE   W24
 BYTE   N05  Dn1  v112
 BYTE   W06
 BYTE   N05  Dn1  v112
 BYTE   W06
 BYTE   N05  Dn1  v127
 BYTE   W06
 BYTE   N05  Dn1  v112
 BYTE   W06
 BYTE   N23  Dn1  v112
 BYTE   W24
// 054   ----------------------------------------
 BYTE   VOICE   127
 BYTE   VOL   50*song58_mvl/mxv
 BYTE   MODT 0
 BYTE   MODT 1
 BYTE   N05  Dn1  v112
 BYTE   W06
 BYTE   N05  Dn1  v112
 BYTE   W06
 BYTE   N05  Dn1  v127
 BYTE   W06
 BYTE   N05  Dn1  v112
 BYTE   W06
 BYTE   N23  Dn1  v112
 BYTE   W24
 BYTE   N23  Dn1  v127
 BYTE   W24
 BYTE   N05  Dn1  v112
 BYTE   W06
 BYTE   N05  Dn1  v112
 BYTE   W06
 BYTE   N05  Dn1  v127
 BYTE   W06
 BYTE   N05  Dn1  v112
 BYTE   W06
// 055   ----------------------------------------
 BYTE   N23  Dn1  v112
 BYTE   W24
 BYTE   N23  Dn1  v127
 BYTE   W24
 BYTE   N11  Dn1  v112
 BYTE   W12
 BYTE   N11  Dn1  v112
 BYTE   W12
 BYTE   N11  Dn1  v127
 BYTE   W12
 BYTE   N11  Dn1  v112
 BYTE   W12
// 056   ----------------------------------------
 BYTE   VOICE   127
 BYTE   VOL   50*song58_mvl/mxv
 BYTE   MODT 0
 BYTE   MODT 1
 BYTE   N05  Dn1  v112
 BYTE   W06
 BYTE   N05  Dn1  v112
 BYTE   W06
 BYTE   N05  Dn1  v127
 BYTE   W06
 BYTE   N05  Dn1  v112
 BYTE   W06
 BYTE   N23  Dn1  v112
 BYTE   W24
 BYTE   N23  Dn1  v127
 BYTE   W24
 BYTE   N05  Dn1  v112
 BYTE   W06
 BYTE   N05  Dn1  v112
 BYTE   W06
 BYTE   N05  Dn1  v127
 BYTE   W06
 BYTE   N05  Dn1  v112
 BYTE   W06
// 057   ----------------------------------------
 BYTE   N23  Dn1  v112
 BYTE   W24
 BYTE   N23  Dn1  v127
 BYTE   W24
 BYTE   N05  Dn1  v112
 BYTE   W06
 BYTE   N05  Dn1  v112
 BYTE   W06
 BYTE   N05  Dn1  v127
 BYTE   W06
 BYTE   N05  Dn1  v112
 BYTE   W06
 BYTE   N23  Dn1  v112
 BYTE   W24
// 058   ----------------------------------------
 BYTE   VOICE   127
 BYTE   VOL   50*song58_mvl/mxv
 BYTE   MODT 0
 BYTE   MODT 1
 BYTE   N05  Dn1  v112
 BYTE   W06
 BYTE   N05  Dn1  v112
 BYTE   W06
 BYTE   N05  Dn1  v127
 BYTE   W06
 BYTE   N05  Dn1  v112
 BYTE   W06
 BYTE   N23  Dn1  v112
 BYTE   W24
 BYTE   N23  Dn1  v127
 BYTE   W24
 BYTE   N05  Dn1  v112
 BYTE   W06
 BYTE   N05  Dn1  v112
 BYTE   W06
 BYTE   N05  Dn1  v127
 BYTE   W06
 BYTE   N05  Dn1  v112
 BYTE   W06
// 059   ----------------------------------------
 BYTE   N23  Dn1  v112
 BYTE   W24
 BYTE   N23  Dn1  v127
 BYTE   W24
 BYTE   N11  Dn1  v112
 BYTE   W12
 BYTE   N11  Dn1  v112
 BYTE   W12
 BYTE   N11  Dn1  v127
 BYTE   W12
 BYTE   N11  Dn1  v112
 BYTE   W12
// 060   ----------------------------------------
 BYTE   VOICE   127
 BYTE   VOL   50*song58_mvl/mxv
 BYTE   MODT 0
 BYTE   MODT 1
 BYTE   N05  Dn1  v112
 BYTE   W06
 BYTE   N05  Dn1  v112
 BYTE   W06
 BYTE   N05  Dn1  v127
 BYTE   W06
 BYTE   N05  Dn1  v112
 BYTE   W06
 BYTE   N23  Dn1  v112
 BYTE   W24
 BYTE   N23  Dn1  v127
 BYTE   W24
 BYTE   N05  Dn1  v112
 BYTE   W06
 BYTE   N05  Dn1  v112
 BYTE   W06
 BYTE   N05  Dn1  v127
 BYTE   W06
 BYTE   N05  Dn1  v112
 BYTE   W06
// 061   ----------------------------------------
 BYTE   N23  Dn1  v112
 BYTE   W24
 BYTE   N23  Dn1  v127
 BYTE   W24
 BYTE   N05  Dn1  v112
 BYTE   W06
 BYTE   N05  Dn1  v112
 BYTE   W06
 BYTE   N05  Dn1  v127
 BYTE   W06
 BYTE   N05  Dn1  v112
 BYTE   W06
 BYTE   N23  Dn1  v112
 BYTE   W24
// 062   ----------------------------------------
 BYTE   VOICE   127
 BYTE   VOL   50*song58_mvl/mxv
 BYTE   MODT 0
 BYTE   MODT 1
 BYTE   N05  Dn1  v112
 BYTE   W06
 BYTE   N05  Dn1  v112
 BYTE   W06
 BYTE   N05  Dn1  v127
 BYTE   W06
 BYTE   N05  Dn1  v112
 BYTE   W06
 BYTE   N23  Dn1  v112
 BYTE   W24
 BYTE   N23  Dn1  v127
 BYTE   W24
 BYTE   N05  Dn1  v112
 BYTE   W06
 BYTE   N05  Dn1  v112
 BYTE   W06
 BYTE   N05  Dn1  v127
 BYTE   W06
 BYTE   N05  Dn1  v112
 BYTE   W06
// 063   ----------------------------------------
 BYTE   N23  Dn1  v112
 BYTE   W24
 BYTE   N23  Dn1  v127
 BYTE   W24
 BYTE   N11  Dn1  v112
 BYTE   W12
 BYTE   N11  Dn1  v112
 BYTE   W12
 BYTE   N11  Dn1  v127
 BYTE   W12
 BYTE   N11  Dn1  v112
 BYTE   W12
// 064   ----------------------------------------
 BYTE   VOICE   127
 BYTE   VOL   50*song58_mvl/mxv
 BYTE   MODT 0
 BYTE   MODT 1
 BYTE   N05  Dn1  v112
 BYTE   W06
 BYTE   N05  Dn1  v112
 BYTE   W06
 BYTE   N05  Dn1  v127
 BYTE   W06
 BYTE   N05  Dn1  v112
 BYTE   W06
 BYTE   N23  Dn1  v112
 BYTE   W24
 BYTE   N23  Dn1  v127
 BYTE   W24
 BYTE   N05  Dn1  v112
 BYTE   W06
 BYTE   N05  Dn1  v112
 BYTE   W06
 BYTE   N05  Dn1  v127
 BYTE   W06
 BYTE   N05  Dn1  v112
 BYTE   W06
// 065   ----------------------------------------
 BYTE   N23  Dn1  v112
 BYTE   W24
 BYTE   N23  Dn1  v127
 BYTE   W24
 BYTE   N05  Dn1  v112
 BYTE   W06
 BYTE   N05  Dn1  v112
 BYTE   W06
 BYTE   N05  Dn1  v127
 BYTE   W06
 BYTE   N05  Dn1  v112
 BYTE   W06
 BYTE   N23  Dn1  v112
 BYTE   W24
// 066   ----------------------------------------
 BYTE   VOICE   127
 BYTE   VOL   50*song58_mvl/mxv
 BYTE   MODT 0
 BYTE   MODT 1
 BYTE   N05  Dn1  v112
 BYTE   W06
 BYTE   N05  Dn1  v112
 BYTE   W06
 BYTE   N05  Dn1  v127
 BYTE   W06
 BYTE   N05  Dn1  v112
 BYTE   W06
 BYTE   N23  Dn1  v112
 BYTE   W24
 BYTE   N23  Dn1  v127
 BYTE   W24
 BYTE   N05  Dn1  v112
 BYTE   W06
 BYTE   N05  Dn1  v112
 BYTE   W06
 BYTE   N05  Dn1  v127
 BYTE   W06
 BYTE   N05  Dn1  v112
 BYTE   W06
// 067   ----------------------------------------
 BYTE   N23  Dn1  v112
 BYTE   W24
 BYTE   N23  Dn1  v127
 BYTE   W24
 BYTE   N11  Dn1  v112
 BYTE   W12
 BYTE   N11  Dn1  v112
 BYTE   W12
 BYTE   N11  Dn1  v127
 BYTE   W12
 BYTE   N11  Dn1  v112
 BYTE   W12
// 068   ----------------------------------------
 BYTE   VOICE   127
 BYTE   VOL   50*song58_mvl/mxv
 BYTE   MODT 0
 BYTE   MODT 1
 BYTE   N05  Dn1  v112
 BYTE   W06
 BYTE   N05  Dn1  v112
 BYTE   W06
 BYTE   N05  Dn1  v127
 BYTE   W06
 BYTE   N05  Dn1  v112
 BYTE   W06
 BYTE   N23  Dn1  v112
 BYTE   W24
 BYTE   N23  Dn1  v127
 BYTE   W24
 BYTE   N05  Dn1  v112
 BYTE   W06
 BYTE   N05  Dn1  v112
 BYTE   W06
 BYTE   N05  Dn1  v127
 BYTE   W06
 BYTE   N05  Dn1  v112
 BYTE   W06
// 069   ----------------------------------------
 BYTE   N23  Dn1  v112
 BYTE   W24
 BYTE   N23  Dn1  v127
 BYTE   W24
 BYTE   N05  Dn1  v112
 BYTE   W06
 BYTE   N05  Dn1  v112
 BYTE   W06
 BYTE   N05  Dn1  v127
 BYTE   W06
 BYTE   N05  Dn1  v112
 BYTE   W06
 BYTE   N23  Dn1  v112
 BYTE   W24
// 070   ----------------------------------------
 BYTE   VOICE   127
 BYTE   VOL   50*song58_mvl/mxv
 BYTE   MODT 0
 BYTE   MODT 1
 BYTE   N05  Dn1  v112
 BYTE   W06
 BYTE   N05  Dn1  v112
 BYTE   W06
 BYTE   N05  Dn1  v127
 BYTE   W06
 BYTE   N05  Dn1  v112
 BYTE   W06
 BYTE   N23  Dn1  v112
 BYTE   W24
 BYTE   N11  Dn1  v112
 BYTE   W12
 BYTE   N05  Dn1  v112
 BYTE   W06
 BYTE   N05  Dn1  v112
 BYTE   W06
 BYTE   N05  Dn1  v127
 BYTE   W06
 BYTE   N05  Dn1  v112
 BYTE   W06
 BYTE   N05  Dn1  v127
 BYTE   W06
 BYTE   N05  Dn1  v112
 BYTE   W06
// 071   ----------------------------------------
 BYTE   N23  Dn1  v112
 BYTE   W24
 BYTE   N11  Dn1  v112
 BYTE   W12
 BYTE   N05  Dn1  v112
 BYTE   W06
 BYTE   N05  Dn1  v112
 BYTE   W06
 BYTE   N05  Dn1  v127
 BYTE   W06
 BYTE   N05  Dn1  v112
 BYTE   W06
 BYTE   N05  Dn1  v127
 BYTE   W12
 BYTE   N05  Dn1  v127
 BYTE   W06
 BYTE   N05  Dn1  v112
 BYTE   W06
 BYTE   N05  Dn1  v127
 BYTE   W12
// 072   ----------------------------------------
 BYTE   VOICE   127
 BYTE   VOL   50*song58_mvl/mxv
 BYTE   MODT 0
 BYTE   MODT 1
 BYTE   GoTo
  POIN2 Label_9_010F87E4
 BYTE   FINE

//******************************************************//
	ALIGN 4

song58:
	BYTE	10	// NumTrks
	BYTE	0	// NumBlks
	BYTE	song58_pri	// Priority
	BYTE	song58_rev	// Reverb.
    
	POIN2	song58_grp
    
	POIN2	song58_001
	POIN2	song58_002
	POIN2	song58_003
	POIN2	song58_004
	POIN2	song58_005
	POIN2	song58_006
	POIN2	song58_007
	POIN2	song58_008
	POIN2	song58_009
	POIN2	song58_010

	
