//Event file generated from Sappy .s format.
	#include "MPlayDef.event"

	#define	songB2_grp  voicegroup000
	#define	songB2_pri  0
	#define	songB2_rev  0
	#define	songB2_mvl  127
	#define	songB2_key  0
	#define	songB2_tbs  1
	#define	songB2_exg  0
	#define	songB2_cmp  1

	// .rodata
	//	songB2
	ALIGN 4


//**************** Track 1 (Midi-Chn.0) ****************//

songB2_001:
// 000   ----------------------------------------
 BYTE   VOL   40*songB2_mvl/mxv
 BYTE   KEYSH   songB2_key+0
Label_0_0118031C:
 BYTE   TEMPO   206*songB2_tbs/2
 BYTE   VOICE   73
 BYTE   W96
// 001   ----------------------------------------
 BYTE   W48
 BYTE   W96
// 002   ----------------------------------------
 BYTE   W48
 BYTE   W96
// 003   ----------------------------------------
 BYTE   W48
 BYTE   W96
// 004   ----------------------------------------
 BYTE   W48
 BYTE   W96
// 005   ----------------------------------------
 BYTE   W48
 BYTE   W96
// 006   ----------------------------------------
 BYTE   W48
 BYTE   W96
// 007   ----------------------------------------
 BYTE   W48
 BYTE   W96
// 008   ----------------------------------------
 BYTE   W48
 BYTE   W96
// 009   ----------------------------------------
 BYTE   W48
 BYTE   W96
// 010   ----------------------------------------
 BYTE   W48
 BYTE   W96
// 011   ----------------------------------------
 BYTE   W48
 BYTE   W96
// 012   ----------------------------------------
 BYTE   W48
Label_0_01180338:
 BYTE   N12  Gn4  v076
 BYTE   W12
 BYTE   An4
 BYTE   W12
 BYTE   As4
 BYTE   W12
 BYTE   An4
 BYTE   W12
// 013   ----------------------------------------
 BYTE   Gn4
 BYTE   W12
 BYTE   Fn4
 BYTE   W12
 BYTE   Gn4
 BYTE   W12
 BYTE   An4
 BYTE   W12
 BYTE   As4
 BYTE   W12
 BYTE   An4
 BYTE   W12
 BYTE   Gn4
 BYTE   W12
 BYTE   Fn4
 BYTE   W12
 BYTE   PEND 
// 014   ----------------------------------------
Label_0_01180353:
 BYTE   N12  Gn4  v076
 BYTE   W12
 BYTE   An4
 BYTE   W12
 BYTE   As4
 BYTE   W12
 BYTE   Cn5
 BYTE   W12
 BYTE   Dn5
 BYTE   W12
 BYTE   Cn5
 BYTE   W12
 BYTE   As4
 BYTE   W12
 BYTE   Cn5
 BYTE   W12
// 015   ----------------------------------------
 BYTE   As4
 BYTE   W12
 BYTE   An4
 BYTE   W12
 BYTE   As4
 BYTE   W12
 BYTE   An4
 BYTE   W12
 BYTE   PEND 
// 016   ----------------------------------------
 BYTE   PATT
  POIN2 Label_0_01180338
// 017   ----------------------------------------
 BYTE   PATT
  POIN2 Label_0_01180353
// 018   ----------------------------------------
 BYTE   PATT
  POIN2 Label_0_01180338
// 019   ----------------------------------------
 BYTE   PATT
  POIN2 Label_0_01180353
// 020   ----------------------------------------
 BYTE   PATT
  POIN2 Label_0_01180338
// 021   ----------------------------------------
 BYTE   PATT
  POIN2 Label_0_01180353
// 022   ----------------------------------------
 BYTE   PATT
  POIN2 Label_0_01180338
// 023   ----------------------------------------
 BYTE   PATT
  POIN2 Label_0_01180353
// 024   ----------------------------------------
 BYTE   PATT
  POIN2 Label_0_01180338
// 025   ----------------------------------------
 BYTE   PATT
  POIN2 Label_0_01180353
// 026   ----------------------------------------
Label_0_011803A0:
 BYTE   N12  En4  v104
 BYTE   N12  Bn4
 BYTE   N12  En5
 BYTE   W96
// 027   ----------------------------------------
 BYTE   W48
 BYTE   PEND 
// 028   ----------------------------------------
 BYTE   PATT
  POIN2 Label_0_011803A0
// 029   ----------------------------------------
 BYTE   PATT
  POIN2 Label_0_011803A0
// 030   ----------------------------------------
 BYTE   PATT
  POIN2 Label_0_011803A0
// 031   ----------------------------------------
Label_0_011803B9:
 BYTE   TIE  Gn3  v076
 BYTE   W96
// 032   ----------------------------------------
 BYTE   W12
 BYTE   PEND 
 BYTE   EOT
 BYTE   N36  An3
 BYTE   W36
Label_0_011803C3:
 BYTE   TIE  Bn3  v076
 BYTE   W96
// 033   ----------------------------------------
 BYTE   W12
 BYTE   PEND 
 BYTE   EOT
 BYTE   N36  Cn4
 BYTE   W36
Label_0_011803CD:
 BYTE   N48  Dn4  v076
 BYTE   W48
// 034   ----------------------------------------
 BYTE   N12  Cn4
 BYTE   W12
 BYTE   Bn3
 BYTE   W12
 BYTE   N48  An3
 BYTE   W48
 BYTE   N12  Fs3
 BYTE   W12
 BYTE   En3
 BYTE   W12
 BYTE   PEND 
// 035   ----------------------------------------
Label_0_011803DF:
 BYTE   N72  Fs3  v076
 BYTE   W72
 BYTE   Bn3
 BYTE   W72
 BYTE   PEND 
// 036   ----------------------------------------
Label_0_011803E6:
 BYTE   TIE  Cn4  v076
 BYTE   W96
// 037   ----------------------------------------
 BYTE   W12
 BYTE   PEND 
 BYTE   EOT
 BYTE   N36  Dn4
 BYTE   W36
Label_0_011803F0:
 BYTE   N48  En4  v076
 BYTE   W48
// 038   ----------------------------------------
 BYTE   N12
 BYTE   W12
 BYTE   Fs4
 BYTE   W12
 BYTE   N24  Gn4
 BYTE   W24
 BYTE   Fs4
 BYTE   W24
 BYTE   En4
 BYTE   W24
 BYTE   PEND 
// 039   ----------------------------------------
Label_0_01180400:
 BYTE   N24  Dn4  v076
 BYTE   W24
 BYTE   Cn4
 BYTE   W24
 BYTE   Bn3
 BYTE   W24
 BYTE   N48  An3
 BYTE   W48
// 040   ----------------------------------------
 BYTE   N12  Fs3
 BYTE   W12
 BYTE   En3
 BYTE   W12
 BYTE   PEND 
Label_0_01180411:
 BYTE   TIE  Fs3  v076
 BYTE   W96
// 041   ----------------------------------------
 BYTE   W48
 BYTE   PEND 
 BYTE   EOT
// 042   ----------------------------------------
 BYTE   PATT
  POIN2 Label_0_011803B9
// 043   ----------------------------------------
 BYTE   EOT
 BYTE   Gn3
 BYTE   N36  An3  v076
 BYTE   W36
// 044   ----------------------------------------
 BYTE   PATT
  POIN2 Label_0_011803C3
// 045   ----------------------------------------
 BYTE   EOT
 BYTE   Bn3
 BYTE   N36  Cn4  v076
 BYTE   W36
// 046   ----------------------------------------
 BYTE   PATT
  POIN2 Label_0_011803CD
// 047   ----------------------------------------
 BYTE   PATT
  POIN2 Label_0_011803DF
// 048   ----------------------------------------
 BYTE   PATT
  POIN2 Label_0_011803E6
// 049   ----------------------------------------
 BYTE   EOT
 BYTE   Cn4
 BYTE   N36  Dn4  v076
 BYTE   W36
// 050   ----------------------------------------
 BYTE   PATT
  POIN2 Label_0_011803F0
// 051   ----------------------------------------
 BYTE   PATT
  POIN2 Label_0_01180400
// 052   ----------------------------------------
Label_0_0118044D:
 BYTE   TIE  Fs3  v076
 BYTE   W96
// 053   ----------------------------------------
 BYTE   W24
 BYTE   PEND 
 BYTE   EOT
 BYTE   N12  Gn4  v064
 BYTE   W12
 BYTE   Fs4
 BYTE   W12
Label_0_0118045A:
 BYTE   TIE  En4  v064
 BYTE   W96
// 054   ----------------------------------------
 BYTE   W48
 BYTE   PEND 
 BYTE   W96
// 055   ----------------------------------------
 BYTE   W24
 BYTE   EOT
 BYTE   N12  Gn4
 BYTE   W12
 BYTE   Fs4
 BYTE   W12
// 056   ----------------------------------------
 BYTE   PATT
  POIN2 Label_0_0118045A
// 057   ----------------------------------------
 BYTE   W72
 BYTE   EOT
 BYTE   En4
 BYTE   N72  Dn4  v064
 BYTE   W72
// 058   ----------------------------------------
 BYTE   W96
// 059   ----------------------------------------
 BYTE   W48
 BYTE   W96
// 060   ----------------------------------------
 BYTE   W48
 BYTE   W96
// 061   ----------------------------------------
 BYTE   W48
 BYTE   W96
// 062   ----------------------------------------
 BYTE   W48
 BYTE   W96
// 063   ----------------------------------------
 BYTE   W48
 BYTE   W96
// 064   ----------------------------------------
 BYTE   W48
 BYTE   W96
// 065   ----------------------------------------
 BYTE   W48
 BYTE   W96
// 066   ----------------------------------------
 BYTE   W48
 BYTE   W96
// 067   ----------------------------------------
 BYTE   W48
 BYTE   W96
// 068   ----------------------------------------
 BYTE   W48
 BYTE   W96
// 069   ----------------------------------------
 BYTE   W48
 BYTE   W96
// 070   ----------------------------------------
 BYTE   W48
// 071   ----------------------------------------
 BYTE   PATT
  POIN2 Label_0_01180338
// 072   ----------------------------------------
 BYTE   PATT
  POIN2 Label_0_01180353
// 073   ----------------------------------------
 BYTE   PATT
  POIN2 Label_0_01180338
// 074   ----------------------------------------
 BYTE   PATT
  POIN2 Label_0_01180353
// 075   ----------------------------------------
 BYTE   PATT
  POIN2 Label_0_01180338
// 076   ----------------------------------------
 BYTE   PATT
  POIN2 Label_0_01180353
// 077   ----------------------------------------
 BYTE   PATT
  POIN2 Label_0_01180338
// 078   ----------------------------------------
 BYTE   PATT
  POIN2 Label_0_01180353
// 079   ----------------------------------------
 BYTE   PATT
  POIN2 Label_0_01180338
// 080   ----------------------------------------
 BYTE   PATT
  POIN2 Label_0_01180353
// 081   ----------------------------------------
 BYTE   PATT
  POIN2 Label_0_01180338
// 082   ----------------------------------------
 BYTE   PATT
  POIN2 Label_0_01180353
// 083   ----------------------------------------
 BYTE   PATT
  POIN2 Label_0_011803A0
// 084   ----------------------------------------
 BYTE   PATT
  POIN2 Label_0_011803A0
// 085   ----------------------------------------
 BYTE   PATT
  POIN2 Label_0_011803A0
// 086   ----------------------------------------
 BYTE   PATT
  POIN2 Label_0_011803A0
// 087   ----------------------------------------
 BYTE   PATT
  POIN2 Label_0_011803B9
// 088   ----------------------------------------
 BYTE   EOT
 BYTE   Gn3
 BYTE   N36  An3  v076
 BYTE   W36
// 089   ----------------------------------------
 BYTE   PATT
  POIN2 Label_0_011803C3
// 090   ----------------------------------------
 BYTE   EOT
 BYTE   Bn3
 BYTE   N36  Cn4  v076
 BYTE   W36
// 091   ----------------------------------------
 BYTE   PATT
  POIN2 Label_0_011803CD
// 092   ----------------------------------------
 BYTE   PATT
  POIN2 Label_0_011803DF
// 093   ----------------------------------------
 BYTE   PATT
  POIN2 Label_0_011803E6
// 094   ----------------------------------------
 BYTE   EOT
 BYTE   Cn4
 BYTE   N36  Dn4  v076
 BYTE   W36
// 095   ----------------------------------------
 BYTE   PATT
  POIN2 Label_0_011803F0
// 096   ----------------------------------------
 BYTE   PATT
  POIN2 Label_0_01180400
// 097   ----------------------------------------
 BYTE   PATT
  POIN2 Label_0_01180411
// 098   ----------------------------------------
 BYTE   EOT
 BYTE   Fs3
// 099   ----------------------------------------
 BYTE   PATT
  POIN2 Label_0_011803B9
// 100   ----------------------------------------
 BYTE   EOT
 BYTE   Gn3
 BYTE   N36  An3  v076
 BYTE   W36
// 101   ----------------------------------------
 BYTE   PATT
  POIN2 Label_0_011803C3
// 102   ----------------------------------------
 BYTE   EOT
 BYTE   Bn3
 BYTE   N36  Cn4  v076
 BYTE   W36
// 103   ----------------------------------------
 BYTE   PATT
  POIN2 Label_0_011803CD
// 104   ----------------------------------------
 BYTE   PATT
  POIN2 Label_0_011803DF
// 105   ----------------------------------------
 BYTE   PATT
  POIN2 Label_0_011803E6
// 106   ----------------------------------------
 BYTE   EOT
 BYTE   Cn4
 BYTE   N36  Dn4  v076
 BYTE   W36
// 107   ----------------------------------------
 BYTE   PATT
  POIN2 Label_0_011803F0
// 108   ----------------------------------------
 BYTE   PATT
  POIN2 Label_0_01180400
// 109   ----------------------------------------
 BYTE   PATT
  POIN2 Label_0_0118044D
// 110   ----------------------------------------
 BYTE   EOT
 BYTE   Fs3
 BYTE   N12  Gn4  v064
 BYTE   W12
 BYTE   Fs4
 BYTE   W12
// 111   ----------------------------------------
 BYTE   PATT
  POIN2 Label_0_0118045A
// 112   ----------------------------------------
 BYTE   W96
// 113   ----------------------------------------
 BYTE   W24
 BYTE   EOT
 BYTE   En4
 BYTE   N12  Gn4  v064
 BYTE   W12
 BYTE   Fs4
 BYTE   W12
// 114   ----------------------------------------
 BYTE   PATT
  POIN2 Label_0_0118045A
// 115   ----------------------------------------
 BYTE   W72
 BYTE   EOT
 BYTE   En4
 BYTE   N72  Dn4  v064
 BYTE   W72
// 116   ----------------------------------------
 BYTE   GoTo
  POIN2 Label_0_0118031C
// 117   ----------------------------------------
 BYTE   W96
// 118   ----------------------------------------
 BYTE   W48
 BYTE   W96
// 119   ----------------------------------------
 BYTE   W48
 BYTE   W96
// 120   ----------------------------------------
 BYTE   W48
 BYTE   W96
// 121   ----------------------------------------
 BYTE   W48
 BYTE   W96
// 122   ----------------------------------------
 BYTE   W48
 BYTE   W96
// 123   ----------------------------------------
 BYTE   W48
 BYTE   W96
// 124   ----------------------------------------
 BYTE   W48
 BYTE   W96
// 125   ----------------------------------------
 BYTE   W48
 BYTE   W84
 BYTE   FINE

//**************** Track 2 (Midi-Chn.1) ****************//

songB2_002:
// 000   ----------------------------------------
 BYTE   VOL   40*songB2_mvl/mxv
 BYTE   KEYSH   songB2_key+0
Label_1_01180590:
 BYTE   VOICE   71
 BYTE   N12  En2  v104
 BYTE   W12
 BYTE   Fs2
 BYTE   W12
 BYTE   Gn2
 BYTE   W12
 BYTE   Fs2
 BYTE   W12
 BYTE   En2
 BYTE   W12
 BYTE   Dn2
 BYTE   W12
 BYTE   En2
 BYTE   W12
 BYTE   Fs2
 BYTE   W12
// 001   ----------------------------------------
 BYTE   Gn2
 BYTE   W12
 BYTE   Fs2
 BYTE   W12
 BYTE   En2
 BYTE   W12
 BYTE   Dn2
 BYTE   W12
Label_1_011805AC:
 BYTE   N12  En2  v104
 BYTE   W12
 BYTE   Fs2
 BYTE   W12
 BYTE   Gn2
 BYTE   W12
 BYTE   An2
 BYTE   W12
// 002   ----------------------------------------
 BYTE   Bn2
 BYTE   W12
 BYTE   An2
 BYTE   W12
 BYTE   Gn2
 BYTE   W12
 BYTE   An2
 BYTE   W12
 BYTE   Gn2
 BYTE   W12
 BYTE   Fs2
 BYTE   W12
 BYTE   Gn2
 BYTE   W12
 BYTE   Fs2
 BYTE   W12
 BYTE   PEND 
// 003   ----------------------------------------
Label_1_011805C7:
 BYTE   N12  En2  v104
 BYTE   W12
 BYTE   Fs2
 BYTE   W12
 BYTE   Gn2
 BYTE   W12
 BYTE   Fs2
 BYTE   W12
 BYTE   En2
 BYTE   W12
 BYTE   Dn2
 BYTE   W12
 BYTE   En2
 BYTE   W12
 BYTE   Fs2
 BYTE   W12
// 004   ----------------------------------------
 BYTE   Gn2
 BYTE   W12
 BYTE   Fs2
 BYTE   W12
 BYTE   En2
 BYTE   W12
 BYTE   Dn2
 BYTE   W12
 BYTE   PEND 
// 005   ----------------------------------------
 BYTE   PATT
  POIN2 Label_1_011805AC
// 006   ----------------------------------------
 BYTE   PATT
  POIN2 Label_1_011805C7
// 007   ----------------------------------------
 BYTE   PATT
  POIN2 Label_1_011805AC
// 008   ----------------------------------------
 BYTE   PATT
  POIN2 Label_1_011805C7
// 009   ----------------------------------------
 BYTE   PATT
  POIN2 Label_1_011805AC
// 010   ----------------------------------------
 BYTE   PATT
  POIN2 Label_1_011805C7
// 011   ----------------------------------------
 BYTE   PATT
  POIN2 Label_1_011805AC
// 012   ----------------------------------------
 BYTE   PATT
  POIN2 Label_1_011805C7
// 013   ----------------------------------------
 BYTE   PATT
  POIN2 Label_1_011805AC
// 014   ----------------------------------------
Label_1_0118060F:
 BYTE   N12  Gn2  v104
 BYTE   W12
 BYTE   An2
 BYTE   W12
 BYTE   As2
 BYTE   W12
 BYTE   An2
 BYTE   W12
 BYTE   Gn2
 BYTE   W12
 BYTE   Fn2
 BYTE   W12
 BYTE   Gn2
 BYTE   W12
 BYTE   An2
 BYTE   W12
// 015   ----------------------------------------
 BYTE   As2
 BYTE   W12
 BYTE   An2
 BYTE   W12
 BYTE   Gn2
 BYTE   W12
 BYTE   Fn2
 BYTE   W12
 BYTE   PEND 
Label_1_0118062A:
 BYTE   N12  Gn2  v104
 BYTE   W12
 BYTE   An2
 BYTE   W12
 BYTE   As2
 BYTE   W12
 BYTE   Cn3
 BYTE   W12
// 016   ----------------------------------------
 BYTE   Dn3
 BYTE   W12
 BYTE   Cn3
 BYTE   W12
 BYTE   As2
 BYTE   W12
 BYTE   Cn3
 BYTE   W12
 BYTE   As2
 BYTE   W12
 BYTE   An2
 BYTE   W12
 BYTE   As2
 BYTE   W12
 BYTE   An2
 BYTE   W12
 BYTE   PEND 
// 017   ----------------------------------------
 BYTE   PATT
  POIN2 Label_1_0118060F
// 018   ----------------------------------------
 BYTE   PATT
  POIN2 Label_1_0118062A
// 019   ----------------------------------------
 BYTE   PATT
  POIN2 Label_1_0118060F
// 020   ----------------------------------------
 BYTE   PATT
  POIN2 Label_1_0118062A
// 021   ----------------------------------------
 BYTE   PATT
  POIN2 Label_1_0118060F
// 022   ----------------------------------------
 BYTE   PATT
  POIN2 Label_1_0118062A
// 023   ----------------------------------------
 BYTE   PATT
  POIN2 Label_1_0118060F
// 024   ----------------------------------------
 BYTE   PATT
  POIN2 Label_1_0118062A
// 025   ----------------------------------------
 BYTE   PATT
  POIN2 Label_1_0118060F
// 026   ----------------------------------------
 BYTE   PATT
  POIN2 Label_1_0118062A
// 027   ----------------------------------------
Label_1_01180677:
 BYTE   N12  Bn2  v104
 BYTE   N12  En3
 BYTE   N12  Bn3
 BYTE   N12  En4
 BYTE   W96
// 028   ----------------------------------------
 BYTE   W48
 BYTE   PEND 
// 029   ----------------------------------------
 BYTE   PATT
  POIN2 Label_1_01180677
// 030   ----------------------------------------
 BYTE   PATT
  POIN2 Label_1_01180677
// 031   ----------------------------------------
 BYTE   PATT
  POIN2 Label_1_01180677
// 032   ----------------------------------------
Label_1_01180692:
 BYTE   TIE  En3  v076
 BYTE   W96
// 033   ----------------------------------------
 BYTE   W12
 BYTE   PEND 
 BYTE   EOT
 BYTE   N36  Fs3
 BYTE   W36
Label_1_0118069C:
 BYTE   TIE  Gn3  v076
 BYTE   W96
// 034   ----------------------------------------
 BYTE   W12
 BYTE   PEND 
 BYTE   EOT
 BYTE   N36  An3
 BYTE   W36
Label_1_011806A6:
 BYTE   N48  Bn3  v076
 BYTE   W48
// 035   ----------------------------------------
 BYTE   N12  An3
 BYTE   W12
 BYTE   Gn3
 BYTE   W12
 BYTE   N48  Fs3
 BYTE   W48
 BYTE   N12
 BYTE   W12
 BYTE   En3
 BYTE   W12
 BYTE   PEND 
// 036   ----------------------------------------
Label_1_011806B7:
 BYTE   N72  Fs3  v076
 BYTE   W72
 BYTE   Gn3
 BYTE   W72
 BYTE   PEND 
// 037   ----------------------------------------
Label_1_011806BE:
 BYTE   TIE  An3  v076
 BYTE   W96
// 038   ----------------------------------------
 BYTE   W12
 BYTE   PEND 
 BYTE   EOT
 BYTE   N36  Bn3
 BYTE   W36
Label_1_011806C8:
 BYTE   N48  Cn4  v076
 BYTE   W48
// 039   ----------------------------------------
 BYTE   N12
 BYTE   W12
 BYTE   Dn4
 BYTE   W12
 BYTE   N24  En4
 BYTE   W24
 BYTE   Dn4
 BYTE   W24
 BYTE   Cn4
 BYTE   W24
 BYTE   PEND 
// 040   ----------------------------------------
Label_1_011806D8:
 BYTE   N24  Bn3  v076
 BYTE   W24
 BYTE   An3
 BYTE   W24
 BYTE   Gn3
 BYTE   W24
 BYTE   N48  Fs3
 BYTE   W48
// 041   ----------------------------------------
 BYTE   N12
 BYTE   W12
 BYTE   En3
 BYTE   W12
 BYTE   PEND 
Label_1_011806E8:
 BYTE   TIE  Fs3  v076
 BYTE   W96
// 042   ----------------------------------------
 BYTE   W48
 BYTE   PEND 
 BYTE   EOT
// 043   ----------------------------------------
 BYTE   PATT
  POIN2 Label_1_01180692
// 044   ----------------------------------------
 BYTE   EOT
 BYTE   En3
 BYTE   N36  Fs3  v076
 BYTE   W36
// 045   ----------------------------------------
 BYTE   PATT
  POIN2 Label_1_0118069C
// 046   ----------------------------------------
 BYTE   EOT
 BYTE   Gn3
 BYTE   N36  An3  v076
 BYTE   W36
// 047   ----------------------------------------
 BYTE   PATT
  POIN2 Label_1_011806A6
// 048   ----------------------------------------
 BYTE   PATT
  POIN2 Label_1_011806B7
// 049   ----------------------------------------
 BYTE   PATT
  POIN2 Label_1_011806BE
// 050   ----------------------------------------
 BYTE   EOT
 BYTE   An3
 BYTE   N36  Bn3  v076
 BYTE   W36
// 051   ----------------------------------------
 BYTE   PATT
  POIN2 Label_1_011806C8
// 052   ----------------------------------------
 BYTE   PATT
  POIN2 Label_1_011806D8
// 053   ----------------------------------------
Label_1_01180724:
 BYTE   TIE  Fs3  v076
 BYTE   W96
// 054   ----------------------------------------
 BYTE   W24
 BYTE   PEND 
 BYTE   EOT
 BYTE   N12  Gn3  v064
 BYTE   W12
 BYTE   Fs3
 BYTE   W12
Label_1_01180731:
 BYTE   TIE  Bn2  v076
 BYTE   TIE  En3  v064
 BYTE   W96
// 055   ----------------------------------------
 BYTE   W48
 BYTE   PEND 
 BYTE   W96
// 056   ----------------------------------------
 BYTE   W24
 BYTE   EOT
 BYTE   N12  Gn3
 BYTE   W12
 BYTE   Fs3
 BYTE   W12
 BYTE   EOT
 BYTE   Bn2
// 057   ----------------------------------------
 BYTE   PATT
  POIN2 Label_1_01180731
// 058   ----------------------------------------
 BYTE   W72
 BYTE   EOT
 BYTE   En3
 BYTE   N72  Dn3  v064
 BYTE   W72
// 059   ----------------------------------------
 BYTE   EOT
 BYTE   Bn2
// 060   ----------------------------------------
 BYTE   PATT
  POIN2 Label_1_011805C7
// 061   ----------------------------------------
 BYTE   PATT
  POIN2 Label_1_011805AC
// 062   ----------------------------------------
 BYTE   PATT
  POIN2 Label_1_011805C7
// 063   ----------------------------------------
 BYTE   PATT
  POIN2 Label_1_011805AC
// 064   ----------------------------------------
 BYTE   PATT
  POIN2 Label_1_011805C7
// 065   ----------------------------------------
 BYTE   PATT
  POIN2 Label_1_011805AC
// 066   ----------------------------------------
 BYTE   PATT
  POIN2 Label_1_011805C7
// 067   ----------------------------------------
 BYTE   PATT
  POIN2 Label_1_011805AC
// 068   ----------------------------------------
 BYTE   PATT
  POIN2 Label_1_011805C7
// 069   ----------------------------------------
 BYTE   PATT
  POIN2 Label_1_011805AC
// 070   ----------------------------------------
 BYTE   PATT
  POIN2 Label_1_011805C7
// 071   ----------------------------------------
 BYTE   PATT
  POIN2 Label_1_011805AC
// 072   ----------------------------------------
 BYTE   PATT
  POIN2 Label_1_0118060F
// 073   ----------------------------------------
 BYTE   PATT
  POIN2 Label_1_0118062A
// 074   ----------------------------------------
 BYTE   PATT
  POIN2 Label_1_0118060F
// 075   ----------------------------------------
 BYTE   PATT
  POIN2 Label_1_0118062A
// 076   ----------------------------------------
 BYTE   PATT
  POIN2 Label_1_0118060F
// 077   ----------------------------------------
 BYTE   PATT
  POIN2 Label_1_0118062A
// 078   ----------------------------------------
 BYTE   PATT
  POIN2 Label_1_0118060F
// 079   ----------------------------------------
 BYTE   PATT
  POIN2 Label_1_0118062A
// 080   ----------------------------------------
 BYTE   PATT
  POIN2 Label_1_0118060F
// 081   ----------------------------------------
 BYTE   PATT
  POIN2 Label_1_0118062A
// 082   ----------------------------------------
 BYTE   PATT
  POIN2 Label_1_0118060F
// 083   ----------------------------------------
 BYTE   PATT
  POIN2 Label_1_0118062A
// 084   ----------------------------------------
 BYTE   PATT
  POIN2 Label_1_01180677
// 085   ----------------------------------------
 BYTE   PATT
  POIN2 Label_1_01180677
// 086   ----------------------------------------
 BYTE   PATT
  POIN2 Label_1_01180677
// 087   ----------------------------------------
 BYTE   PATT
  POIN2 Label_1_01180677
// 088   ----------------------------------------
 BYTE   PATT
  POIN2 Label_1_01180692
// 089   ----------------------------------------
 BYTE   EOT
 BYTE   En3
 BYTE   N36  Fs3  v076
 BYTE   W36
// 090   ----------------------------------------
 BYTE   PATT
  POIN2 Label_1_0118069C
// 091   ----------------------------------------
 BYTE   EOT
 BYTE   Gn3
 BYTE   N36  An3  v076
 BYTE   W36
// 092   ----------------------------------------
 BYTE   PATT
  POIN2 Label_1_011806A6
// 093   ----------------------------------------
 BYTE   PATT
  POIN2 Label_1_011806B7
// 094   ----------------------------------------
 BYTE   PATT
  POIN2 Label_1_011806BE
// 095   ----------------------------------------
 BYTE   EOT
 BYTE   An3
 BYTE   N36  Bn3  v076
 BYTE   W36
// 096   ----------------------------------------
 BYTE   PATT
  POIN2 Label_1_011806C8
// 097   ----------------------------------------
 BYTE   PATT
  POIN2 Label_1_011806D8
// 098   ----------------------------------------
 BYTE   PATT
  POIN2 Label_1_011806E8
// 099   ----------------------------------------
 BYTE   EOT
 BYTE   Fs3
// 100   ----------------------------------------
 BYTE   PATT
  POIN2 Label_1_01180692
// 101   ----------------------------------------
 BYTE   EOT
 BYTE   En3
 BYTE   N36  Fs3  v076
 BYTE   W36
// 102   ----------------------------------------
 BYTE   PATT
  POIN2 Label_1_0118069C
// 103   ----------------------------------------
 BYTE   EOT
 BYTE   Gn3
 BYTE   N36  An3  v076
 BYTE   W36
// 104   ----------------------------------------
 BYTE   PATT
  POIN2 Label_1_011806A6
// 105   ----------------------------------------
 BYTE   PATT
  POIN2 Label_1_011806B7
// 106   ----------------------------------------
 BYTE   PATT
  POIN2 Label_1_011806BE
// 107   ----------------------------------------
 BYTE   EOT
 BYTE   An3
 BYTE   N36  Bn3  v076
 BYTE   W36
// 108   ----------------------------------------
 BYTE   PATT
  POIN2 Label_1_011806C8
// 109   ----------------------------------------
 BYTE   PATT
  POIN2 Label_1_011806D8
// 110   ----------------------------------------
 BYTE   PATT
  POIN2 Label_1_01180724
// 111   ----------------------------------------
 BYTE   EOT
 BYTE   Fs3
 BYTE   N12  Gn3  v064
 BYTE   W12
 BYTE   Fs3
 BYTE   W12
// 112   ----------------------------------------
 BYTE   PATT
  POIN2 Label_1_01180731
// 113   ----------------------------------------
 BYTE   W96
// 114   ----------------------------------------
 BYTE   W24
 BYTE   EOT
 BYTE   En3
 BYTE   N12  Gn3  v064
 BYTE   W12
 BYTE   Fs3
 BYTE   W12
 BYTE   EOT
 BYTE   Bn2
// 115   ----------------------------------------
 BYTE   PATT
  POIN2 Label_1_01180731
// 116   ----------------------------------------
 BYTE   W72
 BYTE   EOT
 BYTE   En3
 BYTE   N72  Dn3  v064
 BYTE   W72
// 117   ----------------------------------------
 BYTE   EOT
 BYTE   Bn2
 BYTE   GoTo
  POIN2 Label_1_01180590
// 118   ----------------------------------------
 BYTE   N12  En2  v104
 BYTE   W12
 BYTE   Fs2
 BYTE   W12
 BYTE   Gn2  v100
 BYTE   W12
 BYTE   Fs2
 BYTE   W12
 BYTE   En2
 BYTE   W12
 BYTE   Dn2  v096
 BYTE   W12
 BYTE   En2
 BYTE   W12
 BYTE   Fs2
 BYTE   W12
// 119   ----------------------------------------
 BYTE   Gn2
 BYTE   W12
 BYTE   Fs2  v092
 BYTE   W12
 BYTE   En2
 BYTE   W12
 BYTE   Dn2
 BYTE   W12
 BYTE   En2
 BYTE   W12
 BYTE   Fs2  v088
 BYTE   W12
 BYTE   Gn2
 BYTE   W12
 BYTE   An2
 BYTE   W12
// 120   ----------------------------------------
 BYTE   Bn2
 BYTE   W12
 BYTE   An2  v084
 BYTE   W12
 BYTE   Gn2
 BYTE   W12
 BYTE   An2
 BYTE   W12
 BYTE   Gn2
 BYTE   W12
 BYTE   Fs2  v080
 BYTE   W12
 BYTE   Gn2
 BYTE   W12
 BYTE   Fs2
 BYTE   W12
// 121   ----------------------------------------
 BYTE   En2
 BYTE   W12
 BYTE   Fs2  v076
 BYTE   W12
 BYTE   Gn2
 BYTE   W12
 BYTE   Fs2
 BYTE   W12
 BYTE   En2
 BYTE   W12
 BYTE   Dn2  v072
 BYTE   W12
 BYTE   En2
 BYTE   W12
 BYTE   Fs2
 BYTE   W12
// 122   ----------------------------------------
 BYTE   Gn2
 BYTE   W12
 BYTE   Fs2  v068
 BYTE   W12
 BYTE   En2
 BYTE   W12
 BYTE   Dn2
 BYTE   W12
 BYTE   En2
 BYTE   W12
 BYTE   Fs2  v064
 BYTE   W12
 BYTE   Gn2
 BYTE   W12
 BYTE   An2
 BYTE   W12
// 123   ----------------------------------------
 BYTE   Bn2
 BYTE   W12
 BYTE   An2  v060
 BYTE   W12
 BYTE   Gn2
 BYTE   W12
 BYTE   An2
 BYTE   W12
 BYTE   Gn2
 BYTE   W12
 BYTE   Fs2  v056
 BYTE   W12
 BYTE   Gn2
 BYTE   W12
 BYTE   Fs2
 BYTE   W12
// 124   ----------------------------------------
 BYTE   En2
 BYTE   W12
 BYTE   Fs2  v052
 BYTE   W12
 BYTE   Gn2
 BYTE   W12
 BYTE   Fs2
 BYTE   W12
 BYTE   En2
 BYTE   W12
 BYTE   Dn2
 BYTE   W12
 BYTE   En2  v048
 BYTE   W12
 BYTE   Fs2
 BYTE   W12
// 125   ----------------------------------------
 BYTE   Gn2
 BYTE   W12
 BYTE   Fs2
 BYTE   W12
 BYTE   En2  v044
 BYTE   W12
 BYTE   Dn2
 BYTE   W12
 BYTE   En2
 BYTE   W12
 BYTE   Fs2
 BYTE   W12
 BYTE   Gn2  v040
 BYTE   W12
 BYTE   An2
 BYTE   W12
// 126   ----------------------------------------
 BYTE   Bn2
 BYTE   W12
 BYTE   An2
 BYTE   W12
 BYTE   Gn2  v036
 BYTE   W12
 BYTE   An2
 BYTE   W12
 BYTE   Gn2
 BYTE   W12
 BYTE   Fs2
 BYTE   W12
 BYTE   Gn2  v032
 BYTE   W12
 BYTE   Fs2
 BYTE   W12
// 127   ----------------------------------------
 BYTE   En2
 BYTE   W12
 BYTE   Fs2
 BYTE   W12
 BYTE   Gn2  v028
 BYTE   W12
 BYTE   Fs2
 BYTE   W12
 BYTE   En2
 BYTE   W12
 BYTE   Dn2
 BYTE   W12
 BYTE   En2  v024
 BYTE   W12
 BYTE   Fs2
 BYTE   W12
// 128   ----------------------------------------
 BYTE   Gn2
 BYTE   W12
 BYTE   Fs2
 BYTE   W12
 BYTE   En2  v020
 BYTE   W12
 BYTE   Dn2
 BYTE   W12
 BYTE   En2
 BYTE   W12
 BYTE   Fs2
 BYTE   W12
 BYTE   Gn2  v016
 BYTE   W12
 BYTE   An2
 BYTE   W12
// 129   ----------------------------------------
 BYTE   Bn2
 BYTE   W12
 BYTE   An2
 BYTE   W12
 BYTE   Gn2  v012
 BYTE   W12
 BYTE   An2
 BYTE   W12
 BYTE   Gn2
 BYTE   W12
 BYTE   Fs2
 BYTE   W12
 BYTE   Gn2  v008
 BYTE   W12
 BYTE   Fs2
 BYTE   W12
// 130   ----------------------------------------
 BYTE   En2
 BYTE   W12
 BYTE   Fs2
 BYTE   W12
 BYTE   Gn2  v004
 BYTE   W12
 BYTE   Fs2
 BYTE   W12
 BYTE   En2
 BYTE   W12
 BYTE   Dn2
 BYTE   W24
 BYTE   FINE

//**************** Track 3 (Midi-Chn.2) ****************//

songB2_003:
// 000   ----------------------------------------
 BYTE   VOL   40*songB2_mvl/mxv
 BYTE   KEYSH   songB2_key+0
Label_2_0118096C:
 BYTE   VOICE   70
 BYTE   N12  En1  v116
 BYTE   N12  En2
 BYTE   W96
// 001   ----------------------------------------
 BYTE   W48
Label_2_01180975:
 BYTE   N12  En1  v116
 BYTE   N12  En2
 BYTE   W36
 BYTE   Fs1
 BYTE   N12  Fs2
 BYTE   W36
// 002   ----------------------------------------
 BYTE   Gn1
 BYTE   N12  Gn2
 BYTE   W36
 BYTE   Dn1
 BYTE   N12  Dn2
 BYTE   W36
 BYTE   PEND 
Label_2_01180988:
 BYTE   N12  En1  v116
 BYTE   N12  En2
 BYTE   W96
// 003   ----------------------------------------
 BYTE   W48
 BYTE   PEND 
// 004   ----------------------------------------
 BYTE   PATT
  POIN2 Label_2_01180975
// 005   ----------------------------------------
 BYTE   PATT
  POIN2 Label_2_01180988
// 006   ----------------------------------------
 BYTE   PATT
  POIN2 Label_2_01180975
// 007   ----------------------------------------
 BYTE   PATT
  POIN2 Label_2_01180988
// 008   ----------------------------------------
 BYTE   PATT
  POIN2 Label_2_01180975
// 009   ----------------------------------------
 BYTE   PATT
  POIN2 Label_2_01180988
// 010   ----------------------------------------
 BYTE   PATT
  POIN2 Label_2_01180975
// 011   ----------------------------------------
 BYTE   PATT
  POIN2 Label_2_01180988
// 012   ----------------------------------------
 BYTE   PATT
  POIN2 Label_2_01180975
// 013   ----------------------------------------
Label_2_011809BD:
 BYTE   N12  Gn1  v116
 BYTE   N12  Gn2
 BYTE   W96
// 014   ----------------------------------------
 BYTE   W48
 BYTE   PEND 
Label_2_011809C5:
 BYTE   N12  Gn1  v116
 BYTE   N12  Gn2
 BYTE   W36
 BYTE   An1
 BYTE   N12  An2
 BYTE   W36
// 015   ----------------------------------------
 BYTE   As1
 BYTE   N12  As2
 BYTE   W36
 BYTE   Fn1
 BYTE   N12  Fn2
 BYTE   W36
 BYTE   PEND 
// 016   ----------------------------------------
 BYTE   PATT
  POIN2 Label_2_011809BD
// 017   ----------------------------------------
 BYTE   PATT
  POIN2 Label_2_011809C5
// 018   ----------------------------------------
 BYTE   PATT
  POIN2 Label_2_011809BD
// 019   ----------------------------------------
 BYTE   PATT
  POIN2 Label_2_011809C5
// 020   ----------------------------------------
 BYTE   PATT
  POIN2 Label_2_011809BD
// 021   ----------------------------------------
 BYTE   PATT
  POIN2 Label_2_011809C5
// 022   ----------------------------------------
 BYTE   PATT
  POIN2 Label_2_011809BD
// 023   ----------------------------------------
 BYTE   PATT
  POIN2 Label_2_011809C5
// 024   ----------------------------------------
 BYTE   PATT
  POIN2 Label_2_011809BD
// 025   ----------------------------------------
 BYTE   PATT
  POIN2 Label_2_011809C5
// 026   ----------------------------------------
Label_2_01180A0A:
 BYTE   N12  En1  v104
 BYTE   N12  Bn1
 BYTE   N12  En2
 BYTE   W96
// 027   ----------------------------------------
 BYTE   W48
 BYTE   PEND 
// 028   ----------------------------------------
 BYTE   PATT
  POIN2 Label_2_01180A0A
// 029   ----------------------------------------
 BYTE   PATT
  POIN2 Label_2_01180A0A
// 030   ----------------------------------------
 BYTE   PATT
  POIN2 Label_2_01180A0A
// 031   ----------------------------------------
Label_2_01180A23:
 BYTE   TIE  Bn2  v076
 BYTE   W96
// 032   ----------------------------------------
 BYTE   W12
 BYTE   PEND 
 BYTE   EOT
 BYTE   N36  Dn3
 BYTE   W36
Label_2_01180A2D:
 BYTE   TIE  Dn3  v076
 BYTE   W96
// 033   ----------------------------------------
 BYTE   W12
 BYTE   PEND 
 BYTE   EOT
 BYTE   N36  En3
 BYTE   W36
Label_2_01180A37:
 BYTE   N48  Gn3  v076
 BYTE   W48
// 034   ----------------------------------------
 BYTE   N12  Fs3
 BYTE   W12
 BYTE   En3
 BYTE   W12
 BYTE   N48  Dn3
 BYTE   W48
 BYTE   N12  Fs3
 BYTE   W12
 BYTE   En3
 BYTE   W12
 BYTE   PEND 
// 035   ----------------------------------------
Label_2_01180A49:
 BYTE   N72  Fs3  v076
 BYTE   W72
 BYTE   Dn3
 BYTE   W72
 BYTE   PEND 
// 036   ----------------------------------------
Label_2_01180A50:
 BYTE   TIE  En3  v076
 BYTE   W96
// 037   ----------------------------------------
 BYTE   W12
 BYTE   PEND 
 BYTE   EOT
 BYTE   N36  Fs3
 BYTE   W36
Label_2_01180A5A:
 BYTE   N48  Gn3  v076
 BYTE   W48
// 038   ----------------------------------------
 BYTE   N12
 BYTE   W12
 BYTE   An3
 BYTE   W12
 BYTE   N24  Cn4
 BYTE   W24
 BYTE   An3
 BYTE   W24
 BYTE   Gn3
 BYTE   W24
 BYTE   PEND 
// 039   ----------------------------------------
Label_2_01180A6A:
 BYTE   N24  Gn3  v076
 BYTE   W24
 BYTE   En3
 BYTE   W24
 BYTE   Dn3
 BYTE   W24
 BYTE   N48
 BYTE   W48
// 040   ----------------------------------------
 BYTE   N12  Fs3
 BYTE   W12
 BYTE   En3
 BYTE   W12
 BYTE   PEND 
Label_2_01180A7A:
 BYTE   TIE  Fs3  v076
 BYTE   W96
// 041   ----------------------------------------
 BYTE   W48
 BYTE   PEND 
 BYTE   EOT
// 042   ----------------------------------------
 BYTE   PATT
  POIN2 Label_2_01180A23
// 043   ----------------------------------------
 BYTE   EOT
 BYTE   Bn2
 BYTE   N36  Dn3  v076
 BYTE   W36
// 044   ----------------------------------------
 BYTE   PATT
  POIN2 Label_2_01180A2D
// 045   ----------------------------------------
 BYTE   EOT
 BYTE   Dn3
 BYTE   N36  En3  v076
 BYTE   W36
// 046   ----------------------------------------
 BYTE   PATT
  POIN2 Label_2_01180A37
// 047   ----------------------------------------
 BYTE   PATT
  POIN2 Label_2_01180A49
// 048   ----------------------------------------
 BYTE   PATT
  POIN2 Label_2_01180A50
// 049   ----------------------------------------
 BYTE   EOT
 BYTE   En3
 BYTE   N36  Fs3  v076
 BYTE   W36
// 050   ----------------------------------------
 BYTE   PATT
  POIN2 Label_2_01180A5A
// 051   ----------------------------------------
 BYTE   PATT
  POIN2 Label_2_01180A6A
// 052   ----------------------------------------
 BYTE   PATT
  POIN2 Label_2_01180A7A
// 053   ----------------------------------------
 BYTE   EOT
 BYTE   Fs3
 BYTE   W96
// 054   ----------------------------------------
 BYTE   W48
 BYTE   W96
// 055   ----------------------------------------
 BYTE   W48
 BYTE   W96
// 056   ----------------------------------------
 BYTE   W48
 BYTE   W96
// 057   ----------------------------------------
 BYTE   W48
// 058   ----------------------------------------
 BYTE   PATT
  POIN2 Label_2_01180988
// 059   ----------------------------------------
 BYTE   PATT
  POIN2 Label_2_01180975
// 060   ----------------------------------------
 BYTE   PATT
  POIN2 Label_2_01180988
// 061   ----------------------------------------
 BYTE   PATT
  POIN2 Label_2_01180975
// 062   ----------------------------------------
 BYTE   PATT
  POIN2 Label_2_01180988
// 063   ----------------------------------------
 BYTE   PATT
  POIN2 Label_2_01180975
// 064   ----------------------------------------
 BYTE   PATT
  POIN2 Label_2_01180988
// 065   ----------------------------------------
 BYTE   PATT
  POIN2 Label_2_01180975
// 066   ----------------------------------------
 BYTE   PATT
  POIN2 Label_2_01180988
// 067   ----------------------------------------
 BYTE   PATT
  POIN2 Label_2_01180975
// 068   ----------------------------------------
 BYTE   PATT
  POIN2 Label_2_01180988
// 069   ----------------------------------------
 BYTE   PATT
  POIN2 Label_2_01180975
// 070   ----------------------------------------
 BYTE   PATT
  POIN2 Label_2_011809BD
// 071   ----------------------------------------
 BYTE   PATT
  POIN2 Label_2_011809C5
// 072   ----------------------------------------
 BYTE   PATT
  POIN2 Label_2_011809BD
// 073   ----------------------------------------
 BYTE   PATT
  POIN2 Label_2_011809C5
// 074   ----------------------------------------
 BYTE   PATT
  POIN2 Label_2_011809BD
// 075   ----------------------------------------
 BYTE   PATT
  POIN2 Label_2_011809C5
// 076   ----------------------------------------
 BYTE   PATT
  POIN2 Label_2_011809BD
// 077   ----------------------------------------
 BYTE   PATT
  POIN2 Label_2_011809C5
// 078   ----------------------------------------
 BYTE   PATT
  POIN2 Label_2_011809BD
// 079   ----------------------------------------
 BYTE   PATT
  POIN2 Label_2_011809C5
// 080   ----------------------------------------
 BYTE   PATT
  POIN2 Label_2_011809BD
// 081   ----------------------------------------
 BYTE   PATT
  POIN2 Label_2_011809C5
// 082   ----------------------------------------
 BYTE   PATT
  POIN2 Label_2_01180A0A
// 083   ----------------------------------------
 BYTE   PATT
  POIN2 Label_2_01180A0A
// 084   ----------------------------------------
 BYTE   PATT
  POIN2 Label_2_01180A0A
// 085   ----------------------------------------
 BYTE   PATT
  POIN2 Label_2_01180A0A
// 086   ----------------------------------------
 BYTE   PATT
  POIN2 Label_2_01180A23
// 087   ----------------------------------------
 BYTE   EOT
 BYTE   Bn2
 BYTE   N36  Dn3  v076
 BYTE   W36
// 088   ----------------------------------------
 BYTE   PATT
  POIN2 Label_2_01180A2D
// 089   ----------------------------------------
 BYTE   EOT
 BYTE   Dn3
 BYTE   N36  En3  v076
 BYTE   W36
// 090   ----------------------------------------
 BYTE   PATT
  POIN2 Label_2_01180A37
// 091   ----------------------------------------
 BYTE   PATT
  POIN2 Label_2_01180A49
// 092   ----------------------------------------
 BYTE   PATT
  POIN2 Label_2_01180A50
// 093   ----------------------------------------
 BYTE   EOT
 BYTE   En3
 BYTE   N36  Fs3  v076
 BYTE   W36
// 094   ----------------------------------------
 BYTE   PATT
  POIN2 Label_2_01180A5A
// 095   ----------------------------------------
 BYTE   PATT
  POIN2 Label_2_01180A6A
// 096   ----------------------------------------
 BYTE   PATT
  POIN2 Label_2_01180A7A
// 097   ----------------------------------------
 BYTE   EOT
 BYTE   Fs3
// 098   ----------------------------------------
 BYTE   PATT
  POIN2 Label_2_01180A23
// 099   ----------------------------------------
 BYTE   EOT
 BYTE   Bn2
 BYTE   N36  Dn3  v076
 BYTE   W36
// 100   ----------------------------------------
 BYTE   PATT
  POIN2 Label_2_01180A2D
// 101   ----------------------------------------
 BYTE   EOT
 BYTE   Dn3
 BYTE   N36  En3  v076
 BYTE   W36
// 102   ----------------------------------------
 BYTE   PATT
  POIN2 Label_2_01180A37
// 103   ----------------------------------------
 BYTE   PATT
  POIN2 Label_2_01180A49
// 104   ----------------------------------------
 BYTE   PATT
  POIN2 Label_2_01180A50
// 105   ----------------------------------------
 BYTE   EOT
 BYTE   En3
 BYTE   N36  Fs3  v076
 BYTE   W36
// 106   ----------------------------------------
 BYTE   PATT
  POIN2 Label_2_01180A5A
// 107   ----------------------------------------
 BYTE   PATT
  POIN2 Label_2_01180A6A
// 108   ----------------------------------------
 BYTE   PATT
  POIN2 Label_2_01180A7A
// 109   ----------------------------------------
 BYTE   EOT
 BYTE   Fs3
 BYTE   W96
// 110   ----------------------------------------
 BYTE   W48
 BYTE   W96
// 111   ----------------------------------------
 BYTE   W48
 BYTE   W96
// 112   ----------------------------------------
 BYTE   W48
 BYTE   W96
// 113   ----------------------------------------
 BYTE   W48
 BYTE   GoTo
  POIN2 Label_2_0118096C
// 114   ----------------------------------------
 BYTE   PATT
  POIN2 Label_2_01180988
// 115   ----------------------------------------
 BYTE   N12  En1  v104
 BYTE   N12  En2
 BYTE   W36
 BYTE   Fs1  v100
 BYTE   N12  Fs2
 BYTE   W36
 BYTE   Gn1  v096
 BYTE   N12  Gn2
 BYTE   W36
// 116   ----------------------------------------
 BYTE   Dn1  v092
 BYTE   N12  Dn2
 BYTE   W36
 BYTE   En1  v088
 BYTE   N12  En2
 BYTE   W96
// 117   ----------------------------------------
 BYTE   W48
 BYTE   En1  v076
 BYTE   N12  En2
 BYTE   W36
 BYTE   Fs1  v072
 BYTE   N12  Fs2
 BYTE   W36
// 118   ----------------------------------------
 BYTE   Gn1  v068
 BYTE   N12  Gn2
 BYTE   W36
 BYTE   Dn1  v064
 BYTE   N12  Dn2
 BYTE   W36
 BYTE   En1  v060
 BYTE   N12  En2
 BYTE   W96
// 119   ----------------------------------------
 BYTE   W48
 BYTE   En1  v048
 BYTE   N12  En2
 BYTE   W36
 BYTE   Fs1  v044
 BYTE   N12  Fs2
 BYTE   W36
// 120   ----------------------------------------
 BYTE   Gn1
 BYTE   N12  Gn2
 BYTE   W36
 BYTE   Dn1  v040
 BYTE   N12  Dn2
 BYTE   W36
 BYTE   En1  v036
 BYTE   N12  En2
 BYTE   W96
// 121   ----------------------------------------
 BYTE   W48
 BYTE   En1  v020
 BYTE   N12  En2
 BYTE   W36
 BYTE   Fs1
 BYTE   N12  Fs2
 BYTE   W36
// 122   ----------------------------------------
 BYTE   Gn1  v016
 BYTE   N12  Gn2
 BYTE   W36
 BYTE   Dn1  v012
 BYTE   N12  Dn2
 BYTE   W36
 BYTE   En1  v008
 BYTE   N12  En2
 BYTE   W84
 BYTE   FINE

//**************** Track 4 (Midi-Chn.3) ****************//

songB2_004:
// 000   ----------------------------------------
 BYTE   VOL   40*songB2_mvl/mxv
 BYTE   KEYSH   songB2_key+0
Label_3_01180C48:
 BYTE   VOICE   60
 BYTE   N12  Fs2  v064
 BYTE   N12  Bn2
 BYTE   N12  En3
 BYTE   W24
 BYTE   Fs2
 BYTE   N12  Bn2
 BYTE   N12  En3
 BYTE   W24
 BYTE   Fs2
 BYTE   N12  Bn2
 BYTE   N12  En3
 BYTE   W12
 BYTE   Fs2
 BYTE   N12  Bn2
 BYTE   N12  En3
 BYTE   W12
 BYTE   Fs2
 BYTE   N12  Bn2
 BYTE   N12  En3
 BYTE   W24
// 001   ----------------------------------------
 BYTE   Fs2
 BYTE   N12  Bn2
 BYTE   N12  En3
 BYTE   W24
 BYTE   Fs2
 BYTE   N12  Bn2
 BYTE   N12  En3
 BYTE   W12
 BYTE   Fs2
 BYTE   N12  Bn2
 BYTE   N12  En3
 BYTE   W12
Label_3_01180C7C:
 BYTE   N12  Fs2  v064
 BYTE   N12  Bn2
 BYTE   N12  En3
 BYTE   W24
 BYTE   Fs2
 BYTE   N12  Bn2
 BYTE   N12  En3
 BYTE   W24
// 002   ----------------------------------------
 BYTE   Fs2
 BYTE   N12  Bn2
 BYTE   N12  En3
 BYTE   W12
 BYTE   Fs2
 BYTE   N12  Bn2
 BYTE   N12  En3
 BYTE   W12
 BYTE   Fs2
 BYTE   N12  Bn2
 BYTE   N12  En3
 BYTE   W12
 BYTE   Fs2
 BYTE   N12  Bn2
 BYTE   N12  En3
 BYTE   W12
 BYTE   Fs2
 BYTE   N12  Bn2
 BYTE   N12  En3
 BYTE   W24
 BYTE   Fs2
 BYTE   N12  Bn2
 BYTE   N12  En3
 BYTE   W12
 BYTE   Fs2
 BYTE   N12  Bn2
 BYTE   N12  En3
 BYTE   W12
 BYTE   PEND 
// 003   ----------------------------------------
Label_3_01180CB5:
 BYTE   N12  Fs2  v064
 BYTE   N12  Bn2
 BYTE   N12  En3
 BYTE   W24
 BYTE   Fs2
 BYTE   N12  Bn2
 BYTE   N12  En3
 BYTE   W24
 BYTE   Fs2
 BYTE   N12  Bn2
 BYTE   N12  En3
 BYTE   W12
 BYTE   Fs2
 BYTE   N12  Bn2
 BYTE   N12  En3
 BYTE   W12
 BYTE   Fs2
 BYTE   N12  Bn2
 BYTE   N12  En3
 BYTE   W24
// 004   ----------------------------------------
 BYTE   Fs2
 BYTE   N12  Bn2
 BYTE   N12  En3
 BYTE   W24
 BYTE   Fs2
 BYTE   N12  Bn2
 BYTE   N12  En3
 BYTE   W12
 BYTE   Fs2
 BYTE   N12  Bn2
 BYTE   N12  En3
 BYTE   W12
 BYTE   PEND 
// 005   ----------------------------------------
 BYTE   PATT
  POIN2 Label_3_01180CB5
// 006   ----------------------------------------
 BYTE   PATT
  POIN2 Label_3_01180CB5
// 007   ----------------------------------------
 BYTE   PATT
  POIN2 Label_3_01180C7C
// 008   ----------------------------------------
 BYTE   PATT
  POIN2 Label_3_01180CB5
// 009   ----------------------------------------
 BYTE   PATT
  POIN2 Label_3_01180CB5
// 010   ----------------------------------------
 BYTE   PATT
  POIN2 Label_3_01180CB5
// 011   ----------------------------------------
 BYTE   PATT
  POIN2 Label_3_01180C7C
// 012   ----------------------------------------
 BYTE   PATT
  POIN2 Label_3_01180CB5
// 013   ----------------------------------------
 BYTE   PATT
  POIN2 Label_3_01180CB5
// 014   ----------------------------------------
Label_3_01180D15:
 BYTE   N12  An2  v064
 BYTE   N12  Dn3
 BYTE   N12  Gn3
 BYTE   W24
 BYTE   An2
 BYTE   N12  Dn3
 BYTE   N12  Gn3
 BYTE   W24
 BYTE   An2
 BYTE   N12  Dn3
 BYTE   N12  Gn3
 BYTE   W12
 BYTE   An2
 BYTE   N12  Dn3
 BYTE   N12  Gn3
 BYTE   W12
 BYTE   An2
 BYTE   N12  Dn3
 BYTE   N12  Gn3
 BYTE   W24
// 015   ----------------------------------------
 BYTE   An2
 BYTE   N12  Dn3
 BYTE   N12  Gn3
 BYTE   W24
 BYTE   An2
 BYTE   N12  Dn3
 BYTE   N12  Gn3
 BYTE   W12
 BYTE   An2
 BYTE   N12  Dn3
 BYTE   N12  Gn3
 BYTE   W12
 BYTE   PEND 
Label_3_01180D48:
 BYTE   N12  An2  v064
 BYTE   N12  Dn3
 BYTE   N12  Gn3
 BYTE   W24
 BYTE   An2
 BYTE   N12  Dn3
 BYTE   N12  Gn3
 BYTE   W24
// 016   ----------------------------------------
 BYTE   An2
 BYTE   N12  Dn3
 BYTE   N12  Gn3
 BYTE   W12
 BYTE   An2
 BYTE   N12  Dn3
 BYTE   N12  Gn3
 BYTE   W12
 BYTE   An2
 BYTE   N12  Dn3
 BYTE   N12  Gn3
 BYTE   W12
 BYTE   An2
 BYTE   N12  Dn3
 BYTE   N12  Gn3
 BYTE   W12
 BYTE   An2
 BYTE   N12  Dn3
 BYTE   N12  Gn3
 BYTE   W24
 BYTE   An2
 BYTE   N12  Dn3
 BYTE   N12  Gn3
 BYTE   W12
 BYTE   An2
 BYTE   N12  Dn3
 BYTE   N12  Gn3
 BYTE   W12
 BYTE   PEND 
// 017   ----------------------------------------
 BYTE   PATT
  POIN2 Label_3_01180D15
// 018   ----------------------------------------
 BYTE   PATT
  POIN2 Label_3_01180D15
// 019   ----------------------------------------
 BYTE   PATT
  POIN2 Label_3_01180D15
// 020   ----------------------------------------
 BYTE   PATT
  POIN2 Label_3_01180D48
// 021   ----------------------------------------
 BYTE   PATT
  POIN2 Label_3_01180D15
// 022   ----------------------------------------
 BYTE   PATT
  POIN2 Label_3_01180D15
// 023   ----------------------------------------
 BYTE   PATT
  POIN2 Label_3_01180D15
// 024   ----------------------------------------
 BYTE   PATT
  POIN2 Label_3_01180D48
// 025   ----------------------------------------
 BYTE   PATT
  POIN2 Label_3_01180D15
// 026   ----------------------------------------
 BYTE   PATT
  POIN2 Label_3_01180D15
// 027   ----------------------------------------
Label_3_01180DB3:
 BYTE   N12  Bn2  v104
 BYTE   N12  En3
 BYTE   N12  Bn3
 BYTE   W18
 BYTE   N06  Bn2
 BYTE   N06  En3
 BYTE   N06  Bn3
 BYTE   W06
 BYTE   Bn2
 BYTE   N06  En3
 BYTE   N06  Bn3
 BYTE   W12
 BYTE   N12  Bn2
 BYTE   N12  En3
 BYTE   N12  Bn3
 BYTE   W24
 BYTE   Bn2
 BYTE   N12  En3
 BYTE   N12  Bn3
 BYTE   W24
 BYTE   N06  Bn2
 BYTE   N06  En3
 BYTE   N06  Bn3
 BYTE   W12
// 028   ----------------------------------------
 BYTE   Bn2
 BYTE   N06  En3
 BYTE   N06  Bn3
 BYTE   W12
 BYTE   Bn2
 BYTE   N06  En3
 BYTE   N06  Bn3
 BYTE   W12
 BYTE   Bn2
 BYTE   N06  En3
 BYTE   N06  Bn3
 BYTE   W12
 BYTE   Bn2
 BYTE   N06  En3
 BYTE   N06  Bn3
 BYTE   W12
 BYTE   PEND 
// 029   ----------------------------------------
 BYTE   PATT
  POIN2 Label_3_01180DB3
// 030   ----------------------------------------
 BYTE   PATT
  POIN2 Label_3_01180DB3
// 031   ----------------------------------------
 BYTE   PATT
  POIN2 Label_3_01180DB3
// 032   ----------------------------------------
Label_3_01180E04:
 BYTE   TIE  En3  v076
 BYTE   W96
// 033   ----------------------------------------
 BYTE   W12
 BYTE   PEND 
 BYTE   EOT
 BYTE   N36  Fs3
 BYTE   W36
Label_3_01180E0E:
 BYTE   TIE  Gn3  v076
 BYTE   W96
// 034   ----------------------------------------
 BYTE   W12
 BYTE   PEND 
 BYTE   EOT
 BYTE   N36  An3
 BYTE   W36
Label_3_01180E18:
 BYTE   N48  Bn3  v076
 BYTE   W48
// 035   ----------------------------------------
 BYTE   N12  An3
 BYTE   W12
 BYTE   Gn3
 BYTE   W12
 BYTE   N48  Fs3
 BYTE   W48
 BYTE   N12
 BYTE   W12
 BYTE   En3
 BYTE   W12
 BYTE   PEND 
// 036   ----------------------------------------
Label_3_01180E29:
 BYTE   N72  Fs3  v076
 BYTE   W72
 BYTE   Gn3
 BYTE   W72
 BYTE   PEND 
// 037   ----------------------------------------
Label_3_01180E30:
 BYTE   TIE  An3  v076
 BYTE   W96
// 038   ----------------------------------------
 BYTE   W12
 BYTE   PEND 
 BYTE   EOT
 BYTE   N36  Bn3
 BYTE   W36
Label_3_01180E3A:
 BYTE   N48  Cn4  v076
 BYTE   W48
// 039   ----------------------------------------
 BYTE   N12
 BYTE   W12
 BYTE   Dn4
 BYTE   W12
 BYTE   N24  En4
 BYTE   W24
 BYTE   Dn4
 BYTE   W24
 BYTE   Cn4
 BYTE   W24
 BYTE   PEND 
// 040   ----------------------------------------
Label_3_01180E4A:
 BYTE   N24  Bn3  v076
 BYTE   W24
 BYTE   An3
 BYTE   W24
 BYTE   Gn3
 BYTE   W24
 BYTE   N48  Fs3
 BYTE   W48
// 041   ----------------------------------------
 BYTE   N06  Dn3  v104
 BYTE   N06  An3
 BYTE   W12
 BYTE   Dn3
 BYTE   N06  An3
 BYTE   W12
 BYTE   PEND 
Label_3_01180E60:
 BYTE   N72  Dn3  v104
 BYTE   N72  An3
 BYTE   W72
// 042   ----------------------------------------
 BYTE   N06  Dn3
 BYTE   N06  An3
 BYTE   W12
 BYTE   Dn3
 BYTE   N06  An3
 BYTE   W12
 BYTE   Dn3
 BYTE   N06  An3
 BYTE   W12
 BYTE   N36  Dn3
 BYTE   N36  An3
 BYTE   W36
 BYTE   PEND 
// 043   ----------------------------------------
 BYTE   PATT
  POIN2 Label_3_01180E04
// 044   ----------------------------------------
 BYTE   EOT
 BYTE   En3
 BYTE   N36  Fs3  v076
 BYTE   W36
// 045   ----------------------------------------
 BYTE   PATT
  POIN2 Label_3_01180E0E
// 046   ----------------------------------------
 BYTE   EOT
 BYTE   Gn3
 BYTE   N36  An3  v076
 BYTE   W36
// 047   ----------------------------------------
 BYTE   PATT
  POIN2 Label_3_01180E18
// 048   ----------------------------------------
 BYTE   PATT
  POIN2 Label_3_01180E29
// 049   ----------------------------------------
 BYTE   PATT
  POIN2 Label_3_01180E30
// 050   ----------------------------------------
 BYTE   EOT
 BYTE   An3
 BYTE   N36  Bn3  v076
 BYTE   W36
// 051   ----------------------------------------
 BYTE   PATT
  POIN2 Label_3_01180E3A
// 052   ----------------------------------------
Label_3_01180EA9:
 BYTE   N24  Bn3  v076
 BYTE   W24
 BYTE   An3
 BYTE   W24
 BYTE   Gn3
 BYTE   W24
 BYTE   N48  Fs3
 BYTE   W48
// 053   ----------------------------------------
 BYTE   N12
 BYTE   W12
 BYTE   En3
 BYTE   W12
 BYTE   PEND 
Label_3_01180EB9:
 BYTE   TIE  Fs3  v076
 BYTE   W96
// 054   ----------------------------------------
 BYTE   W48
 BYTE   PEND 
 BYTE   EOT
 BYTE   W96
// 055   ----------------------------------------
 BYTE   W48
 BYTE   W96
// 056   ----------------------------------------
 BYTE   W48
 BYTE   W96
// 057   ----------------------------------------
 BYTE   W48
 BYTE   W96
// 058   ----------------------------------------
 BYTE   W48
// 059   ----------------------------------------
 BYTE   PATT
  POIN2 Label_3_01180CB5
// 060   ----------------------------------------
 BYTE   PATT
  POIN2 Label_3_01180C7C
// 061   ----------------------------------------
 BYTE   PATT
  POIN2 Label_3_01180CB5
// 062   ----------------------------------------
 BYTE   PATT
  POIN2 Label_3_01180CB5
// 063   ----------------------------------------
 BYTE   PATT
  POIN2 Label_3_01180CB5
// 064   ----------------------------------------
 BYTE   PATT
  POIN2 Label_3_01180C7C
// 065   ----------------------------------------
 BYTE   PATT
  POIN2 Label_3_01180CB5
// 066   ----------------------------------------
 BYTE   PATT
  POIN2 Label_3_01180CB5
// 067   ----------------------------------------
 BYTE   PATT
  POIN2 Label_3_01180CB5
// 068   ----------------------------------------
 BYTE   PATT
  POIN2 Label_3_01180C7C
// 069   ----------------------------------------
 BYTE   PATT
  POIN2 Label_3_01180CB5
// 070   ----------------------------------------
 BYTE   PATT
  POIN2 Label_3_01180CB5
// 071   ----------------------------------------
 BYTE   PATT
  POIN2 Label_3_01180D15
// 072   ----------------------------------------
 BYTE   PATT
  POIN2 Label_3_01180D48
// 073   ----------------------------------------
 BYTE   PATT
  POIN2 Label_3_01180D15
// 074   ----------------------------------------
 BYTE   PATT
  POIN2 Label_3_01180D15
// 075   ----------------------------------------
 BYTE   PATT
  POIN2 Label_3_01180D15
// 076   ----------------------------------------
 BYTE   PATT
  POIN2 Label_3_01180D48
// 077   ----------------------------------------
 BYTE   PATT
  POIN2 Label_3_01180D15
// 078   ----------------------------------------
 BYTE   PATT
  POIN2 Label_3_01180D15
// 079   ----------------------------------------
 BYTE   PATT
  POIN2 Label_3_01180D15
// 080   ----------------------------------------
 BYTE   PATT
  POIN2 Label_3_01180D48
// 081   ----------------------------------------
 BYTE   PATT
  POIN2 Label_3_01180D15
// 082   ----------------------------------------
 BYTE   PATT
  POIN2 Label_3_01180D15
// 083   ----------------------------------------
 BYTE   PATT
  POIN2 Label_3_01180DB3
// 084   ----------------------------------------
 BYTE   PATT
  POIN2 Label_3_01180DB3
// 085   ----------------------------------------
 BYTE   PATT
  POIN2 Label_3_01180DB3
// 086   ----------------------------------------
 BYTE   PATT
  POIN2 Label_3_01180DB3
// 087   ----------------------------------------
 BYTE   PATT
  POIN2 Label_3_01180E04
// 088   ----------------------------------------
 BYTE   EOT
 BYTE   En3
 BYTE   N36  Fs3  v076
 BYTE   W36
// 089   ----------------------------------------
 BYTE   PATT
  POIN2 Label_3_01180E0E
// 090   ----------------------------------------
 BYTE   EOT
 BYTE   Gn3
 BYTE   N36  An3  v076
 BYTE   W36
// 091   ----------------------------------------
 BYTE   PATT
  POIN2 Label_3_01180E18
// 092   ----------------------------------------
 BYTE   PATT
  POIN2 Label_3_01180E29
// 093   ----------------------------------------
 BYTE   PATT
  POIN2 Label_3_01180E30
// 094   ----------------------------------------
 BYTE   EOT
 BYTE   An3
 BYTE   N36  Bn3  v076
 BYTE   W36
// 095   ----------------------------------------
 BYTE   PATT
  POIN2 Label_3_01180E3A
// 096   ----------------------------------------
 BYTE   PATT
  POIN2 Label_3_01180E4A
// 097   ----------------------------------------
 BYTE   PATT
  POIN2 Label_3_01180E60
// 098   ----------------------------------------
 BYTE   PATT
  POIN2 Label_3_01180E04
// 099   ----------------------------------------
 BYTE   EOT
 BYTE   En3
 BYTE   N36  Fs3  v076
 BYTE   W36
// 100   ----------------------------------------
 BYTE   PATT
  POIN2 Label_3_01180E0E
// 101   ----------------------------------------
 BYTE   EOT
 BYTE   Gn3
 BYTE   N36  An3  v076
 BYTE   W36
// 102   ----------------------------------------
 BYTE   PATT
  POIN2 Label_3_01180E18
// 103   ----------------------------------------
 BYTE   PATT
  POIN2 Label_3_01180E29
// 104   ----------------------------------------
 BYTE   PATT
  POIN2 Label_3_01180E30
// 105   ----------------------------------------
 BYTE   EOT
 BYTE   An3
 BYTE   N36  Bn3  v076
 BYTE   W36
// 106   ----------------------------------------
 BYTE   PATT
  POIN2 Label_3_01180E3A
// 107   ----------------------------------------
 BYTE   PATT
  POIN2 Label_3_01180EA9
// 108   ----------------------------------------
 BYTE   PATT
  POIN2 Label_3_01180EB9
// 109   ----------------------------------------
 BYTE   EOT
 BYTE   Fs3
 BYTE   W96
// 110   ----------------------------------------
 BYTE   W48
 BYTE   W96
// 111   ----------------------------------------
 BYTE   W48
 BYTE   W96
// 112   ----------------------------------------
 BYTE   W48
 BYTE   W96
// 113   ----------------------------------------
 BYTE   W48
 BYTE   GoTo
  POIN2 Label_3_01180C48
// 114   ----------------------------------------
 BYTE   N12  Fs2  v064
 BYTE   N12  Bn2
 BYTE   N12  En3
 BYTE   W24
 BYTE   Fs2
 BYTE   N12  Bn2
 BYTE   N12  En3
 BYTE   W24
 BYTE   Fs2  v060
 BYTE   N12  Bn2
 BYTE   N12  En3
 BYTE   W12
 BYTE   Fs2
 BYTE   N12  Bn2
 BYTE   N12  En3
 BYTE   W12
 BYTE   Fs2
 BYTE   N12  Bn2
 BYTE   N12  En3
 BYTE   W24
// 115   ----------------------------------------
 BYTE   Fs2
 BYTE   N12  Bn2
 BYTE   N12  En3
 BYTE   W24
 BYTE   Fs2  v056
 BYTE   N12  Bn2
 BYTE   N12  En3
 BYTE   W12
 BYTE   Fs2
 BYTE   N12  Bn2
 BYTE   N12  En3
 BYTE   W12
 BYTE   Fs2
 BYTE   N12  Bn2
 BYTE   N12  En3
 BYTE   W24
 BYTE   Fs2
 BYTE   N12  Bn2
 BYTE   N12  En3
 BYTE   W24
// 116   ----------------------------------------
 BYTE   Fs2  v052
 BYTE   N12  Bn2
 BYTE   N12  En3
 BYTE   W12
 BYTE   Fs2
 BYTE   N12  Bn2
 BYTE   N12  En3
 BYTE   W12
 BYTE   Fs2
 BYTE   N12  Bn2
 BYTE   N12  En3
 BYTE   W12
 BYTE   Fs2
 BYTE   N12  Bn2
 BYTE   N12  En3
 BYTE   W12
 BYTE   Fs2
 BYTE   N12  Bn2
 BYTE   N12  En3
 BYTE   W24
 BYTE   Fs2  v048
 BYTE   N12  Bn2
 BYTE   N12  En3
 BYTE   W12
 BYTE   Fs2
 BYTE   N12  Bn2
 BYTE   N12  En3
 BYTE   W12
// 117   ----------------------------------------
 BYTE   Fs2
 BYTE   N12  Bn2
 BYTE   N12  En3
 BYTE   W24
 BYTE   Fs2
 BYTE   N12  Bn2
 BYTE   N12  En3
 BYTE   W24
 BYTE   Fs2
 BYTE   N12  Bn2
 BYTE   N12  En3
 BYTE   W12
 BYTE   Fs2  v044
 BYTE   N12  Bn2
 BYTE   N12  En3
 BYTE   W12
 BYTE   Fs2
 BYTE   N12  Bn2
 BYTE   N12  En3
 BYTE   W24
// 118   ----------------------------------------
 BYTE   Fs2
 BYTE   N12  Bn2
 BYTE   N12  En3
 BYTE   W24
 BYTE   Fs2
 BYTE   N12  Bn2
 BYTE   N12  En3
 BYTE   W12
 BYTE   Fs2  v040
 BYTE   N12  Bn2
 BYTE   N12  En3
 BYTE   W12
 BYTE   Fs2
 BYTE   N12  Bn2
 BYTE   N12  En3
 BYTE   W24
 BYTE   Fs2
 BYTE   N12  Bn2
 BYTE   N12  En3
 BYTE   W24
// 119   ----------------------------------------
 BYTE   Fs2
 BYTE   N12  Bn2
 BYTE   N12  En3
 BYTE   W12
 BYTE   Fs2
 BYTE   N12  Bn2
 BYTE   N12  En3
 BYTE   W12
 BYTE   Fs2  v036
 BYTE   N12  Bn2
 BYTE   N12  En3
 BYTE   W24
 BYTE   Fs2
 BYTE   N12  Bn2
 BYTE   N12  En3
 BYTE   W24
 BYTE   Fs2
 BYTE   N12  Bn2
 BYTE   N12  En3
 BYTE   W12
 BYTE   Fs2
 BYTE   N12  Bn2
 BYTE   N12  En3
 BYTE   W12
// 120   ----------------------------------------
 BYTE   Fs2  v032
 BYTE   N12  Bn2
 BYTE   N12  En3
 BYTE   W24
 BYTE   Fs2
 BYTE   N12  Bn2
 BYTE   N12  En3
 BYTE   W24
 BYTE   Fs2
 BYTE   N12  Bn2
 BYTE   N12  En3
 BYTE   W12
 BYTE   Fs2
 BYTE   N12  Bn2
 BYTE   N12  En3
 BYTE   W12
 BYTE   Fs2
 BYTE   N12  Bn2
 BYTE   N12  En3
 BYTE   W24
// 121   ----------------------------------------
 BYTE   Fs2  v028
 BYTE   N12  Bn2
 BYTE   N12  En3
 BYTE   W24
 BYTE   Fs2
 BYTE   N12  Bn2
 BYTE   N12  En3
 BYTE   W12
 BYTE   Fs2
 BYTE   N12  Bn2
 BYTE   N12  En3
 BYTE   W12
 BYTE   Fs2
 BYTE   N12  Bn2
 BYTE   N12  En3
 BYTE   W24
 BYTE   Fs2  v024
 BYTE   N12  Bn2
 BYTE   N12  En3
 BYTE   W24
// 122   ----------------------------------------
 BYTE   Fs2
 BYTE   N12  Bn2
 BYTE   N12  En3
 BYTE   W12
 BYTE   Fs2
 BYTE   N12  Bn2
 BYTE   N12  En3
 BYTE   W12
 BYTE   Fs2
 BYTE   N12  Bn2
 BYTE   N12  En3
 BYTE   W12
 BYTE   Fs2
 BYTE   N12  Bn2
 BYTE   N12  En3
 BYTE   W12
 BYTE   Fs2
 BYTE   N12  Bn2
 BYTE   N12  En3
 BYTE   W24
 BYTE   Fs2  v020
 BYTE   N12  Bn2
 BYTE   N12  En3
 BYTE   W12
 BYTE   Fs2
 BYTE   N12  Bn2
 BYTE   N12  En3
 BYTE   W12
// 123   ----------------------------------------
 BYTE   Fs2
 BYTE   N12  Bn2
 BYTE   N12  En3
 BYTE   W24
 BYTE   Fs2
 BYTE   N12  Bn2
 BYTE   N12  En3
 BYTE   W24
 BYTE   Fs2  v016
 BYTE   N12  Bn2
 BYTE   N12  En3
 BYTE   W12
 BYTE   Fs2
 BYTE   N12  Bn2
 BYTE   N12  En3
 BYTE   W12
 BYTE   Fs2
 BYTE   N12  Bn2
 BYTE   N12  En3
 BYTE   W24
// 124   ----------------------------------------
 BYTE   Fs2
 BYTE   N12  Bn2
 BYTE   N12  En3
 BYTE   W24
 BYTE   Fs2  v012
 BYTE   N12  Bn2
 BYTE   N12  En3
 BYTE   W12
 BYTE   Fs2
 BYTE   N12  Bn2
 BYTE   N12  En3
 BYTE   W12
 BYTE   Fs2
 BYTE   N12  Bn2
 BYTE   N12  En3
 BYTE   W24
 BYTE   Fs2
 BYTE   N12  Bn2
 BYTE   N12  En3
 BYTE   W24
// 125   ----------------------------------------
 BYTE   Fs2  v008
 BYTE   N12  Bn2
 BYTE   N12  En3
 BYTE   W12
 BYTE   Fs2
 BYTE   N12  Bn2
 BYTE   N12  En3
 BYTE   W12
 BYTE   Fs2
 BYTE   N12  Bn2
 BYTE   N12  En3
 BYTE   W24
 BYTE   Fs2
 BYTE   N12  Bn2
 BYTE   N12  En3
 BYTE   W24
 BYTE   Fs2  v004
 BYTE   N12  Bn2
 BYTE   N12  En3
 BYTE   W12
 BYTE   Fs2
 BYTE   N12  Bn2
 BYTE   N12  En3
 BYTE   W12
// 126   ----------------------------------------
 BYTE   Fs2
 BYTE   N12  Bn2
 BYTE   N12  En3
 BYTE   W24
 BYTE   Fs2
 BYTE   N12  Bn2
 BYTE   N12  En3
 BYTE   W24
 BYTE   Fs2
 BYTE   N12  Bn2
 BYTE   N12  En3
 BYTE   W36
 BYTE   FINE

//**************** Track 5 (Midi-Chn.4) ****************//

songB2_005:
// 000   ----------------------------------------
 BYTE   VOL   40*songB2_mvl/mxv
 BYTE   KEYSH   songB2_key+0
Label_4_0118118C:
 BYTE   VOICE   56
 BYTE   W96
// 001   ----------------------------------------
 BYTE   W48
 BYTE   W96
// 002   ----------------------------------------
 BYTE   W48
 BYTE   W96
// 003   ----------------------------------------
 BYTE   W48
Label_4_01181194:
 BYTE   W96
// 004   ----------------------------------------
 BYTE   W36
 BYTE   N06  Bn3  v127
 BYTE   W12
 BYTE   PEND 
Label_4_0118119B:
 BYTE   N06  En4  v127
 BYTE   W24
 BYTE   Bn3
 BYTE   W12
 BYTE   N48  En4
 BYTE   W60
// 005   ----------------------------------------
 BYTE   N06  Bn3
 BYTE   W12
 BYTE   N48  En4
 BYTE   W36
 BYTE   PEND 
Label_4_011811AB:
 BYTE   W24
 BYTE   N06  Bn3  v127
 BYTE   W12
 BYTE   En4
 BYTE   W18
// 006   ----------------------------------------
 BYTE   N06
 BYTE   W06
 BYTE   N06
 BYTE   W12
 BYTE   N48  Bn4
 BYTE   W60
 BYTE   N06  En4
 BYTE   W12
 BYTE   PEND 
Label_4_011811BD:
 BYTE   N06  Bn4  v127
 BYTE   W12
// 007   ----------------------------------------
 BYTE   En5
 BYTE   W12
 BYTE   Bn4
 BYTE   W12
 BYTE   N48  En4
 BYTE   W60
 BYTE   N06  Bn3
 BYTE   W12
// 008   ----------------------------------------
 BYTE   En4
 BYTE   W12
 BYTE   Bn4
 BYTE   W12
 BYTE   En4
 BYTE   W12
 BYTE   PEND 
Label_4_011811D2:
 BYTE   N24  Bn3  v127
 BYTE   W36
 BYTE   N06
 BYTE   W18
 BYTE   N06
 BYTE   W06
// 009   ----------------------------------------
 BYTE   N06
 BYTE   W12
 BYTE   N48  En4
 BYTE   W60
 BYTE   N06  Bn3
 BYTE   W12
 BYTE   PEND 
// 010   ----------------------------------------
 BYTE   PATT
  POIN2 Label_4_0118119B
// 011   ----------------------------------------
 BYTE   PATT
  POIN2 Label_4_011811AB
// 012   ----------------------------------------
 BYTE   PATT
  POIN2 Label_4_011811BD
// 013   ----------------------------------------
Label_4_011811F2:
 BYTE   N24  Bn3  v127
 BYTE   W36
 BYTE   N06
 BYTE   W18
 BYTE   N06
 BYTE   W06
 BYTE   N06
 BYTE   W12
 BYTE   N48  En4
 BYTE   W72
 BYTE   PEND 
// 014   ----------------------------------------
 BYTE   W96
// 015   ----------------------------------------
 BYTE   W48
 BYTE   W96
// 016   ----------------------------------------
 BYTE   W48
 BYTE   W96
// 017   ----------------------------------------
 BYTE   W48
Label_4_01181206:
 BYTE   W96
// 018   ----------------------------------------
 BYTE   W36
 BYTE   N06  Dn3  v127
 BYTE   W12
 BYTE   PEND 
Label_4_0118120D:
 BYTE   N06  Gn3  v127
 BYTE   W24
 BYTE   Dn3
 BYTE   W12
 BYTE   N48  Gn3
 BYTE   W60
// 019   ----------------------------------------
 BYTE   N06  Dn3
 BYTE   W12
 BYTE   N48  Gn3
 BYTE   W36
 BYTE   PEND 
Label_4_0118121D:
 BYTE   W24
 BYTE   N06  Dn3  v127
 BYTE   W12
 BYTE   Gn3
 BYTE   W18
// 020   ----------------------------------------
 BYTE   N06
 BYTE   W06
 BYTE   N06
 BYTE   W12
 BYTE   N48  Dn4
 BYTE   W60
 BYTE   N06  Gn3
 BYTE   W12
 BYTE   PEND 
Label_4_0118122F:
 BYTE   N06  Dn4  v127
 BYTE   W12
// 021   ----------------------------------------
 BYTE   Gn4
 BYTE   W12
 BYTE   Dn4
 BYTE   W12
 BYTE   N48  Gn3
 BYTE   W60
 BYTE   N06  Dn3
 BYTE   W12
// 022   ----------------------------------------
 BYTE   Gn3
 BYTE   W12
 BYTE   Dn4
 BYTE   W12
 BYTE   Gn3
 BYTE   W12
 BYTE   PEND 
Label_4_01181244:
 BYTE   N24  Dn3  v127
 BYTE   W36
 BYTE   N06
 BYTE   W18
 BYTE   N06
 BYTE   W06
// 023   ----------------------------------------
 BYTE   N06
 BYTE   W12
 BYTE   N48  Gn3
 BYTE   W60
 BYTE   N06  Dn3
 BYTE   W12
 BYTE   PEND 
// 024   ----------------------------------------
 BYTE   PATT
  POIN2 Label_4_0118120D
// 025   ----------------------------------------
 BYTE   PATT
  POIN2 Label_4_0118121D
// 026   ----------------------------------------
 BYTE   PATT
  POIN2 Label_4_0118122F
// 027   ----------------------------------------
Label_4_01181264:
 BYTE   N24  Dn3  v127
 BYTE   W36
 BYTE   N06
 BYTE   W18
 BYTE   N06
 BYTE   W06
 BYTE   N06
 BYTE   W12
 BYTE   N48  Gn3
 BYTE   W72
 BYTE   PEND 
// 028   ----------------------------------------
Label_4_01181272:
 BYTE   N12  En3  v104
 BYTE   N12  Bn3
 BYTE   N12  En4
 BYTE   W18
 BYTE   N06  En3
 BYTE   N06  Bn3
 BYTE   N06  En4
 BYTE   W06
 BYTE   En3
 BYTE   N06  Bn3
 BYTE   N06  En4
 BYTE   W12
 BYTE   N12  En3
 BYTE   N12  Bn3
 BYTE   N12  En4
 BYTE   W24
 BYTE   En3
 BYTE   N12  Bn3
 BYTE   N12  En4
 BYTE   W24
 BYTE   N06  En3
 BYTE   N06  Bn3
 BYTE   N06  En4
 BYTE   W12
// 029   ----------------------------------------
 BYTE   En3
 BYTE   N06  Bn3
 BYTE   N06  En4
 BYTE   W12
 BYTE   En3
 BYTE   N06  Bn3
 BYTE   N06  En4
 BYTE   W12
 BYTE   En3
 BYTE   N06  Bn3
 BYTE   N06  En4
 BYTE   W12
 BYTE   En3
 BYTE   N06  Bn3
 BYTE   N06  En4
 BYTE   W12
 BYTE   PEND 
// 030   ----------------------------------------
 BYTE   PATT
  POIN2 Label_4_01181272
// 031   ----------------------------------------
 BYTE   PATT
  POIN2 Label_4_01181272
// 032   ----------------------------------------
 BYTE   PATT
  POIN2 Label_4_01181272
// 033   ----------------------------------------
Label_4_011812C3:
 BYTE   TIE  Gn3  v076
 BYTE   W96
// 034   ----------------------------------------
 BYTE   W12
 BYTE   PEND 
 BYTE   EOT
 BYTE   N36  An3
 BYTE   W36
Label_4_011812CD:
 BYTE   TIE  Bn3  v076
 BYTE   W96
// 035   ----------------------------------------
 BYTE   W12
 BYTE   PEND 
 BYTE   EOT
 BYTE   N36  Cn4
 BYTE   W36
Label_4_011812D7:
 BYTE   N48  Dn4  v076
 BYTE   W48
// 036   ----------------------------------------
 BYTE   N12  Cn4
 BYTE   W12
 BYTE   Bn3
 BYTE   W12
 BYTE   N48  An3
 BYTE   W48
 BYTE   N12  Fs3
 BYTE   W12
 BYTE   En3
 BYTE   W12
 BYTE   PEND 
// 037   ----------------------------------------
Label_4_011812E9:
 BYTE   N72  Fs3  v076
 BYTE   W72
 BYTE   Bn3
 BYTE   W72
 BYTE   PEND 
// 038   ----------------------------------------
Label_4_011812F0:
 BYTE   TIE  Cn4  v076
 BYTE   W96
// 039   ----------------------------------------
 BYTE   W12
 BYTE   PEND 
 BYTE   EOT
 BYTE   N36  Dn4
 BYTE   W36
Label_4_011812FA:
 BYTE   N48  En4  v076
 BYTE   W48
// 040   ----------------------------------------
 BYTE   N12
 BYTE   W12
 BYTE   Fs4
 BYTE   W12
 BYTE   N24  Gn4
 BYTE   W24
 BYTE   Fs4
 BYTE   W24
 BYTE   En4
 BYTE   W24
 BYTE   PEND 
// 041   ----------------------------------------
Label_4_0118130A:
 BYTE   N24  Dn4  v076
 BYTE   W24
 BYTE   Cn4
 BYTE   W24
 BYTE   Bn3
 BYTE   W24
 BYTE   N48  An3
 BYTE   W48
// 042   ----------------------------------------
 BYTE   N06  An3  v127
 BYTE   N06  Dn4
 BYTE   W12
 BYTE   An3
 BYTE   N06  Dn4
 BYTE   W12
 BYTE   PEND 
Label_4_01181320:
 BYTE   N72  An3  v127
 BYTE   N72  Dn4
 BYTE   W72
// 043   ----------------------------------------
 BYTE   N06  An3
 BYTE   N06  Dn4
 BYTE   W12
 BYTE   An3
 BYTE   N06  Dn4
 BYTE   W12
 BYTE   An3
 BYTE   N06  Dn4
 BYTE   W12
 BYTE   N36  An3
 BYTE   N36  Dn4
 BYTE   W36
 BYTE   PEND 
// 044   ----------------------------------------
 BYTE   PATT
  POIN2 Label_4_011812C3
// 045   ----------------------------------------
 BYTE   EOT
 BYTE   Gn3
 BYTE   N36  An3  v076
 BYTE   W36
// 046   ----------------------------------------
 BYTE   PATT
  POIN2 Label_4_011812CD
// 047   ----------------------------------------
 BYTE   EOT
 BYTE   Bn3
 BYTE   N36  Cn4  v076
 BYTE   W36
// 048   ----------------------------------------
 BYTE   PATT
  POIN2 Label_4_011812D7
// 049   ----------------------------------------
 BYTE   PATT
  POIN2 Label_4_011812E9
// 050   ----------------------------------------
 BYTE   PATT
  POIN2 Label_4_011812F0
// 051   ----------------------------------------
 BYTE   EOT
 BYTE   Cn4
 BYTE   N36  Dn4  v076
 BYTE   W36
// 052   ----------------------------------------
 BYTE   PATT
  POIN2 Label_4_011812FA
// 053   ----------------------------------------
Label_4_01181369:
 BYTE   N24  Dn4  v076
 BYTE   W24
 BYTE   Cn4
 BYTE   W24
 BYTE   Bn3
 BYTE   W24
 BYTE   N48  An3
 BYTE   W48
// 054   ----------------------------------------
 BYTE   N12  Fs3
 BYTE   W12
 BYTE   En3
 BYTE   W12
 BYTE   PEND 
Label_4_0118137A:
 BYTE   TIE  Fs3  v076
 BYTE   W96
// 055   ----------------------------------------
 BYTE   W48
 BYTE   PEND 
 BYTE   EOT
 BYTE   W96
// 056   ----------------------------------------
 BYTE   W48
 BYTE   W96
// 057   ----------------------------------------
 BYTE   W48
 BYTE   W96
// 058   ----------------------------------------
 BYTE   W48
 BYTE   W96
// 059   ----------------------------------------
 BYTE   W48
 BYTE   W96
// 060   ----------------------------------------
 BYTE   W48
 BYTE   W96
// 061   ----------------------------------------
 BYTE   W48
 BYTE   W96
// 062   ----------------------------------------
 BYTE   W48
// 063   ----------------------------------------
 BYTE   PATT
  POIN2 Label_4_01181194
// 064   ----------------------------------------
 BYTE   PATT
  POIN2 Label_4_0118119B
// 065   ----------------------------------------
 BYTE   PATT
  POIN2 Label_4_011811AB
// 066   ----------------------------------------
 BYTE   PATT
  POIN2 Label_4_011811BD
// 067   ----------------------------------------
 BYTE   PATT
  POIN2 Label_4_011811D2
// 068   ----------------------------------------
 BYTE   PATT
  POIN2 Label_4_0118119B
// 069   ----------------------------------------
 BYTE   PATT
  POIN2 Label_4_011811AB
// 070   ----------------------------------------
 BYTE   PATT
  POIN2 Label_4_011811BD
// 071   ----------------------------------------
 BYTE   PATT
  POIN2 Label_4_011811F2
// 072   ----------------------------------------
 BYTE   W96
// 073   ----------------------------------------
 BYTE   W48
 BYTE   W96
// 074   ----------------------------------------
 BYTE   W48
 BYTE   W96
// 075   ----------------------------------------
 BYTE   W48
// 076   ----------------------------------------
 BYTE   PATT
  POIN2 Label_4_01181206
// 077   ----------------------------------------
 BYTE   PATT
  POIN2 Label_4_0118120D
// 078   ----------------------------------------
 BYTE   PATT
  POIN2 Label_4_0118121D
// 079   ----------------------------------------
 BYTE   PATT
  POIN2 Label_4_0118122F
// 080   ----------------------------------------
 BYTE   PATT
  POIN2 Label_4_01181244
// 081   ----------------------------------------
 BYTE   PATT
  POIN2 Label_4_0118120D
// 082   ----------------------------------------
 BYTE   PATT
  POIN2 Label_4_0118121D
// 083   ----------------------------------------
 BYTE   PATT
  POIN2 Label_4_0118122F
// 084   ----------------------------------------
 BYTE   PATT
  POIN2 Label_4_01181264
// 085   ----------------------------------------
 BYTE   PATT
  POIN2 Label_4_01181272
// 086   ----------------------------------------
 BYTE   PATT
  POIN2 Label_4_01181272
// 087   ----------------------------------------
 BYTE   PATT
  POIN2 Label_4_01181272
// 088   ----------------------------------------
 BYTE   PATT
  POIN2 Label_4_01181272
// 089   ----------------------------------------
 BYTE   PATT
  POIN2 Label_4_011812C3
// 090   ----------------------------------------
 BYTE   EOT
 BYTE   Gn3
 BYTE   N36  An3  v076
 BYTE   W36
// 091   ----------------------------------------
 BYTE   PATT
  POIN2 Label_4_011812CD
// 092   ----------------------------------------
 BYTE   EOT
 BYTE   Bn3
 BYTE   N36  Cn4  v076
 BYTE   W36
// 093   ----------------------------------------
 BYTE   PATT
  POIN2 Label_4_011812D7
// 094   ----------------------------------------
 BYTE   PATT
  POIN2 Label_4_011812E9
// 095   ----------------------------------------
 BYTE   PATT
  POIN2 Label_4_011812F0
// 096   ----------------------------------------
 BYTE   EOT
 BYTE   Cn4
 BYTE   N36  Dn4  v076
 BYTE   W36
// 097   ----------------------------------------
 BYTE   PATT
  POIN2 Label_4_011812FA
// 098   ----------------------------------------
 BYTE   PATT
  POIN2 Label_4_0118130A
// 099   ----------------------------------------
 BYTE   PATT
  POIN2 Label_4_01181320
// 100   ----------------------------------------
 BYTE   PATT
  POIN2 Label_4_011812C3
// 101   ----------------------------------------
 BYTE   EOT
 BYTE   Gn3
 BYTE   N36  An3  v076
 BYTE   W36
// 102   ----------------------------------------
 BYTE   PATT
  POIN2 Label_4_011812CD
// 103   ----------------------------------------
 BYTE   EOT
 BYTE   Bn3
 BYTE   N36  Cn4  v076
 BYTE   W36
// 104   ----------------------------------------
 BYTE   PATT
  POIN2 Label_4_011812D7
// 105   ----------------------------------------
 BYTE   PATT
  POIN2 Label_4_011812E9
// 106   ----------------------------------------
 BYTE   PATT
  POIN2 Label_4_011812F0
// 107   ----------------------------------------
 BYTE   EOT
 BYTE   Cn4
 BYTE   N36  Dn4  v076
 BYTE   W36
// 108   ----------------------------------------
 BYTE   PATT
  POIN2 Label_4_011812FA
// 109   ----------------------------------------
 BYTE   PATT
  POIN2 Label_4_01181369
// 110   ----------------------------------------
 BYTE   PATT
  POIN2 Label_4_0118137A
// 111   ----------------------------------------
 BYTE   EOT
 BYTE   Fs3
 BYTE   W96
// 112   ----------------------------------------
 BYTE   W48
 BYTE   W96
// 113   ----------------------------------------
 BYTE   W48
 BYTE   W96
// 114   ----------------------------------------
 BYTE   W48
 BYTE   W96
// 115   ----------------------------------------
 BYTE   W48
 BYTE   GoTo
  POIN2 Label_4_0118118C
// 116   ----------------------------------------
 BYTE   W96
// 117   ----------------------------------------
 BYTE   W48
 BYTE   W96
// 118   ----------------------------------------
 BYTE   W48
 BYTE   W96
// 119   ----------------------------------------
 BYTE   W48
 BYTE   W96
// 120   ----------------------------------------
 BYTE   W36
 BYTE   N06  Bn3  v068
 BYTE   W12
 BYTE   En4
 BYTE   W24
 BYTE   Bn3  v064
 BYTE   W12
 BYTE   N48  En4
 BYTE   W60
// 121   ----------------------------------------
 BYTE   N06  Bn3  v060
 BYTE   W12
 BYTE   N48  En4
 BYTE   W36
 BYTE   W24
 BYTE   N06  Bn3  v052
 BYTE   W12
 BYTE   En4
 BYTE   W18
// 122   ----------------------------------------
 BYTE   En4  v048
 BYTE   W06
 BYTE   N06
 BYTE   W12
 BYTE   N48  Bn4
 BYTE   W60
 BYTE   N06  En4  v040
 BYTE   W12
 BYTE   Bn4
 BYTE   W12
// 123   ----------------------------------------
 BYTE   En5  v036
 BYTE   W12
 BYTE   Bn4
 BYTE   W12
 BYTE   N48  En4
 BYTE   W60
 BYTE   N06  Bn3  v028
 BYTE   W12
// 124   ----------------------------------------
 BYTE   En4
 BYTE   W12
 BYTE   Bn4
 BYTE   W12
 BYTE   En4  v024
 BYTE   W12
 BYTE   N24  Bn3
 BYTE   W36
 BYTE   N06  Bn3  v020
 BYTE   W18
 BYTE   N06
 BYTE   W06
// 125   ----------------------------------------
 BYTE   Bn3  v016
 BYTE   W12
 BYTE   N48  En4
 BYTE   W60
 BYTE   N06  Bn3  v008
 BYTE   W12
 BYTE   En4
 BYTE   W24
// 126   ----------------------------------------
 BYTE   Bn3
 BYTE   W12
 BYTE   N48  En4  v004
 BYTE   W48
 BYTE   FINE

//**************** Track 6 (Midi-Chn.5) ****************//

songB2_006:
// 000   ----------------------------------------
 BYTE   VOL   40*songB2_mvl/mxv
 BYTE   KEYSH   songB2_key+0
Label_5_011814EC:
 BYTE   VOICE   57
 BYTE   N12  En1  v116
 BYTE   W96
// 001   ----------------------------------------
 BYTE   W48
Label_5_011814F3:
 BYTE   N12  En1  v116
 BYTE   W36
 BYTE   Fs1
 BYTE   W36
// 002   ----------------------------------------
 BYTE   Gn1
 BYTE   W36
 BYTE   Dn1
 BYTE   W36
 BYTE   PEND 
Label_5_011814FE:
 BYTE   N12  En1  v116
 BYTE   W96
// 003   ----------------------------------------
 BYTE   W48
 BYTE   PEND 
// 004   ----------------------------------------
 BYTE   PATT
  POIN2 Label_5_011814F3
// 005   ----------------------------------------
 BYTE   PATT
  POIN2 Label_5_011814FE
// 006   ----------------------------------------
 BYTE   PATT
  POIN2 Label_5_011814F3
// 007   ----------------------------------------
 BYTE   PATT
  POIN2 Label_5_011814FE
// 008   ----------------------------------------
 BYTE   PATT
  POIN2 Label_5_011814F3
// 009   ----------------------------------------
 BYTE   PATT
  POIN2 Label_5_011814FE
// 010   ----------------------------------------
 BYTE   PATT
  POIN2 Label_5_011814F3
// 011   ----------------------------------------
 BYTE   PATT
  POIN2 Label_5_011814FE
// 012   ----------------------------------------
 BYTE   PATT
  POIN2 Label_5_011814F3
// 013   ----------------------------------------
Label_5_01181531:
 BYTE   N12  Gn1  v116
 BYTE   W96
// 014   ----------------------------------------
 BYTE   W48
 BYTE   PEND 
Label_5_01181537:
 BYTE   N12  Gn1  v116
 BYTE   W36
 BYTE   An1
 BYTE   W36
// 015   ----------------------------------------
 BYTE   As1
 BYTE   W36
 BYTE   Fn1
 BYTE   W36
 BYTE   PEND 
// 016   ----------------------------------------
 BYTE   PATT
  POIN2 Label_5_01181531
// 017   ----------------------------------------
Label_5_01181547:
 BYTE   N12  Gn1  v116
 BYTE   W36
 BYTE   An1
 BYTE   W36
 BYTE   As1
 BYTE   W36
// 018   ----------------------------------------
 BYTE   Fn1
 BYTE   W24
 BYTE   N06  Dn2  v127
 BYTE   W12
 BYTE   PEND 
Label_5_01181556:
 BYTE   N06  Gn2  v127
 BYTE   W24
 BYTE   Dn2
 BYTE   W12
 BYTE   N48  Gn2
 BYTE   W60
// 019   ----------------------------------------
 BYTE   N06  Dn2
 BYTE   W12
 BYTE   N48  Gn2
 BYTE   W36
 BYTE   PEND 
Label_5_01181566:
 BYTE   W24
 BYTE   N06  Dn2  v127
 BYTE   W12
 BYTE   Gn2
 BYTE   W18
// 020   ----------------------------------------
 BYTE   N06
 BYTE   W06
 BYTE   N06
 BYTE   W12
 BYTE   N48  Dn3
 BYTE   W60
 BYTE   N06  Gn2
 BYTE   W12
 BYTE   PEND 
Label_5_01181578:
 BYTE   N06  Dn3  v127
 BYTE   W12
// 021   ----------------------------------------
 BYTE   Gn3
 BYTE   W12
 BYTE   Dn3
 BYTE   W12
 BYTE   N48  Gn2
 BYTE   W60
 BYTE   N06  Dn2
 BYTE   W12
// 022   ----------------------------------------
 BYTE   Gn2
 BYTE   W12
 BYTE   Dn3
 BYTE   W12
 BYTE   Gn2
 BYTE   W12
 BYTE   PEND 
Label_5_0118158D:
 BYTE   N24  Dn2  v127
 BYTE   W36
 BYTE   N06
 BYTE   W18
 BYTE   N06
 BYTE   W06
// 023   ----------------------------------------
 BYTE   N06
 BYTE   W12
 BYTE   N48  Gn2
 BYTE   W60
 BYTE   N06  Dn2
 BYTE   W12
 BYTE   PEND 
// 024   ----------------------------------------
 BYTE   PATT
  POIN2 Label_5_01181556
// 025   ----------------------------------------
 BYTE   PATT
  POIN2 Label_5_01181566
// 026   ----------------------------------------
 BYTE   PATT
  POIN2 Label_5_01181578
// 027   ----------------------------------------
Label_5_011815AD:
 BYTE   N24  Dn2  v127
 BYTE   W36
 BYTE   N06  Dn3
 BYTE   W18
 BYTE   N06
 BYTE   W06
 BYTE   N06
 BYTE   W12
 BYTE   N48  Gn3
 BYTE   W72
 BYTE   PEND 
// 028   ----------------------------------------
Label_5_011815BC:
 BYTE   N12  En2  v104
 BYTE   N12  Bn2
 BYTE   N12  En3
 BYTE   W18
 BYTE   N06  En2
 BYTE   N06  Bn2
 BYTE   N06  En3
 BYTE   W06
 BYTE   En2
 BYTE   N06  Bn2
 BYTE   N06  En3
 BYTE   W12
 BYTE   N12  En2
 BYTE   N12  Bn2
 BYTE   N12  En3
 BYTE   W24
 BYTE   En2
 BYTE   N12  Bn2
 BYTE   N12  En3
 BYTE   W24
 BYTE   N06  En2
 BYTE   N06  Bn2
 BYTE   N06  En3
 BYTE   W12
// 029   ----------------------------------------
 BYTE   En2
 BYTE   N06  Bn2
 BYTE   N06  En3
 BYTE   W12
 BYTE   En2
 BYTE   N06  Bn2
 BYTE   N06  En3
 BYTE   W12
 BYTE   En2
 BYTE   N06  Bn2
 BYTE   N06  En3
 BYTE   W12
 BYTE   En2
 BYTE   N06  Bn2
 BYTE   N06  En3
 BYTE   W12
 BYTE   PEND 
// 030   ----------------------------------------
 BYTE   PATT
  POIN2 Label_5_011815BC
// 031   ----------------------------------------
 BYTE   PATT
  POIN2 Label_5_011815BC
// 032   ----------------------------------------
 BYTE   PATT
  POIN2 Label_5_011815BC
// 033   ----------------------------------------
Label_5_0118160D:
 BYTE   TIE  Bn2  v076
 BYTE   W96
// 034   ----------------------------------------
 BYTE   W12
 BYTE   PEND 
 BYTE   EOT
 BYTE   N36  Dn3
 BYTE   W36
Label_5_01181617:
 BYTE   TIE  Dn3  v076
 BYTE   W96
// 035   ----------------------------------------
 BYTE   W12
 BYTE   PEND 
 BYTE   EOT
 BYTE   N36  En3
 BYTE   W36
Label_5_01181621:
 BYTE   N48  Gn3  v076
 BYTE   W48
// 036   ----------------------------------------
 BYTE   N12  Fs3
 BYTE   W12
 BYTE   En3
 BYTE   W12
 BYTE   N48  Dn3
 BYTE   W48
 BYTE   N12  Fs3
 BYTE   W12
 BYTE   En3
 BYTE   W12
 BYTE   PEND 
// 037   ----------------------------------------
Label_5_01181633:
 BYTE   N72  Fs3  v076
 BYTE   W72
 BYTE   Dn3
 BYTE   W72
 BYTE   PEND 
// 038   ----------------------------------------
Label_5_0118163A:
 BYTE   TIE  En3  v076
 BYTE   W96
// 039   ----------------------------------------
 BYTE   W12
 BYTE   PEND 
 BYTE   EOT
 BYTE   N36  Fs3
 BYTE   W36
Label_5_01181644:
 BYTE   N48  Gn3  v076
 BYTE   W48
// 040   ----------------------------------------
 BYTE   N12
 BYTE   W12
 BYTE   An3
 BYTE   W12
 BYTE   N24  Cn4
 BYTE   W24
 BYTE   An3
 BYTE   W24
 BYTE   Gn3
 BYTE   W24
 BYTE   PEND 
// 041   ----------------------------------------
Label_5_01181654:
 BYTE   N24  Gn3  v076
 BYTE   W24
 BYTE   En3
 BYTE   W24
 BYTE   Dn3
 BYTE   W24
 BYTE   N48
 BYTE   W48
// 042   ----------------------------------------
 BYTE   N06  An2  v127
 BYTE   N06  Dn3
 BYTE   W12
 BYTE   An2
 BYTE   N06  Dn3
 BYTE   W12
 BYTE   PEND 
Label_5_01181669:
 BYTE   N72  An2  v127
 BYTE   N72  Dn3
 BYTE   W72
// 043   ----------------------------------------
 BYTE   N06  An2
 BYTE   N06  Dn3
 BYTE   W12
 BYTE   An2
 BYTE   N06  Dn3
 BYTE   W12
 BYTE   An2
 BYTE   N06  Dn3
 BYTE   W12
 BYTE   N36  An2
 BYTE   N36  Dn3
 BYTE   W36
 BYTE   PEND 
// 044   ----------------------------------------
 BYTE   PATT
  POIN2 Label_5_0118160D
// 045   ----------------------------------------
 BYTE   EOT
 BYTE   Bn2
 BYTE   N36  Dn3  v076
 BYTE   W36
// 046   ----------------------------------------
 BYTE   PATT
  POIN2 Label_5_01181617
// 047   ----------------------------------------
 BYTE   EOT
 BYTE   Dn3
 BYTE   N36  En3  v076
 BYTE   W36
// 048   ----------------------------------------
 BYTE   PATT
  POIN2 Label_5_01181621
// 049   ----------------------------------------
 BYTE   PATT
  POIN2 Label_5_01181633
// 050   ----------------------------------------
 BYTE   PATT
  POIN2 Label_5_0118163A
// 051   ----------------------------------------
 BYTE   EOT
 BYTE   En3
 BYTE   N36  Fs3  v076
 BYTE   W36
// 052   ----------------------------------------
 BYTE   PATT
  POIN2 Label_5_01181644
// 053   ----------------------------------------
Label_5_011816B2:
 BYTE   N24  Gn3  v076
 BYTE   W24
 BYTE   En3
 BYTE   W24
 BYTE   Dn3
 BYTE   W24
 BYTE   N48
 BYTE   W48
// 054   ----------------------------------------
 BYTE   N12  Fs3
 BYTE   W12
 BYTE   En3
 BYTE   W12
 BYTE   PEND 
Label_5_011816C2:
 BYTE   TIE  Fs3  v076
 BYTE   W96
// 055   ----------------------------------------
 BYTE   W48
 BYTE   PEND 
 BYTE   EOT
 BYTE   W96
// 056   ----------------------------------------
 BYTE   W48
 BYTE   W96
// 057   ----------------------------------------
 BYTE   W48
 BYTE   W96
// 058   ----------------------------------------
 BYTE   W48
 BYTE   W96
// 059   ----------------------------------------
 BYTE   W48
// 060   ----------------------------------------
 BYTE   PATT
  POIN2 Label_5_011814FE
// 061   ----------------------------------------
 BYTE   PATT
  POIN2 Label_5_011814F3
// 062   ----------------------------------------
 BYTE   PATT
  POIN2 Label_5_011814FE
// 063   ----------------------------------------
 BYTE   PATT
  POIN2 Label_5_011814F3
// 064   ----------------------------------------
 BYTE   PATT
  POIN2 Label_5_011814FE
// 065   ----------------------------------------
 BYTE   PATT
  POIN2 Label_5_011814F3
// 066   ----------------------------------------
 BYTE   PATT
  POIN2 Label_5_011814FE
// 067   ----------------------------------------
 BYTE   PATT
  POIN2 Label_5_011814F3
// 068   ----------------------------------------
 BYTE   PATT
  POIN2 Label_5_011814FE
// 069   ----------------------------------------
 BYTE   PATT
  POIN2 Label_5_011814F3
// 070   ----------------------------------------
 BYTE   PATT
  POIN2 Label_5_011814FE
// 071   ----------------------------------------
 BYTE   PATT
  POIN2 Label_5_011814F3
// 072   ----------------------------------------
 BYTE   PATT
  POIN2 Label_5_01181531
// 073   ----------------------------------------
 BYTE   PATT
  POIN2 Label_5_01181537
// 074   ----------------------------------------
 BYTE   PATT
  POIN2 Label_5_01181531
// 075   ----------------------------------------
 BYTE   PATT
  POIN2 Label_5_01181547
// 076   ----------------------------------------
 BYTE   PATT
  POIN2 Label_5_01181556
// 077   ----------------------------------------
 BYTE   PATT
  POIN2 Label_5_01181566
// 078   ----------------------------------------
 BYTE   PATT
  POIN2 Label_5_01181578
// 079   ----------------------------------------
 BYTE   PATT
  POIN2 Label_5_0118158D
// 080   ----------------------------------------
 BYTE   PATT
  POIN2 Label_5_01181556
// 081   ----------------------------------------
 BYTE   PATT
  POIN2 Label_5_01181566
// 082   ----------------------------------------
 BYTE   PATT
  POIN2 Label_5_01181578
// 083   ----------------------------------------
 BYTE   PATT
  POIN2 Label_5_011815AD
// 084   ----------------------------------------
 BYTE   PATT
  POIN2 Label_5_011815BC
// 085   ----------------------------------------
 BYTE   PATT
  POIN2 Label_5_011815BC
// 086   ----------------------------------------
 BYTE   PATT
  POIN2 Label_5_011815BC
// 087   ----------------------------------------
 BYTE   PATT
  POIN2 Label_5_011815BC
// 088   ----------------------------------------
 BYTE   PATT
  POIN2 Label_5_0118160D
// 089   ----------------------------------------
 BYTE   EOT
 BYTE   Bn2
 BYTE   N36  Dn3  v076
 BYTE   W36
// 090   ----------------------------------------
 BYTE   PATT
  POIN2 Label_5_01181617
// 091   ----------------------------------------
 BYTE   EOT
 BYTE   Dn3
 BYTE   N36  En3  v076
 BYTE   W36
// 092   ----------------------------------------
 BYTE   PATT
  POIN2 Label_5_01181621
// 093   ----------------------------------------
 BYTE   PATT
  POIN2 Label_5_01181633
// 094   ----------------------------------------
 BYTE   PATT
  POIN2 Label_5_0118163A
// 095   ----------------------------------------
 BYTE   EOT
 BYTE   En3
 BYTE   N36  Fs3  v076
 BYTE   W36
// 096   ----------------------------------------
 BYTE   PATT
  POIN2 Label_5_01181644
// 097   ----------------------------------------
 BYTE   PATT
  POIN2 Label_5_01181654
// 098   ----------------------------------------
 BYTE   PATT
  POIN2 Label_5_01181669
// 099   ----------------------------------------
 BYTE   PATT
  POIN2 Label_5_0118160D
// 100   ----------------------------------------
 BYTE   EOT
 BYTE   Bn2
 BYTE   N36  Dn3  v076
 BYTE   W36
// 101   ----------------------------------------
 BYTE   PATT
  POIN2 Label_5_01181617
// 102   ----------------------------------------
 BYTE   EOT
 BYTE   Dn3
 BYTE   N36  En3  v076
 BYTE   W36
// 103   ----------------------------------------
 BYTE   PATT
  POIN2 Label_5_01181621
// 104   ----------------------------------------
 BYTE   PATT
  POIN2 Label_5_01181633
// 105   ----------------------------------------
 BYTE   PATT
  POIN2 Label_5_0118163A
// 106   ----------------------------------------
 BYTE   EOT
 BYTE   En3
 BYTE   N36  Fs3  v076
 BYTE   W36
// 107   ----------------------------------------
 BYTE   PATT
  POIN2 Label_5_01181644
// 108   ----------------------------------------
 BYTE   PATT
  POIN2 Label_5_011816B2
// 109   ----------------------------------------
 BYTE   PATT
  POIN2 Label_5_011816C2
// 110   ----------------------------------------
 BYTE   EOT
 BYTE   Fs3
 BYTE   W96
// 111   ----------------------------------------
 BYTE   W48
 BYTE   W96
// 112   ----------------------------------------
 BYTE   W48
 BYTE   W96
// 113   ----------------------------------------
 BYTE   W48
 BYTE   W96
// 114   ----------------------------------------
 BYTE   W48
 BYTE   GoTo
  POIN2 Label_5_011814EC
// 115   ----------------------------------------
 BYTE   PATT
  POIN2 Label_5_011814FE
// 116   ----------------------------------------
 BYTE   N12  En1  v104
 BYTE   W36
 BYTE   Fs1  v100
 BYTE   W36
 BYTE   Gn1  v096
 BYTE   W36
// 117   ----------------------------------------
 BYTE   Dn1  v092
 BYTE   W36
 BYTE   En1  v088
 BYTE   W96
// 118   ----------------------------------------
 BYTE   W48
 BYTE   En1  v076
 BYTE   W36
 BYTE   Fs1  v072
 BYTE   W36
// 119   ----------------------------------------
 BYTE   Gn1  v068
 BYTE   W36
 BYTE   Dn1  v064
 BYTE   W36
 BYTE   En1  v060
 BYTE   W96
// 120   ----------------------------------------
 BYTE   W48
 BYTE   En1  v048
 BYTE   W36
 BYTE   Fs1  v044
 BYTE   W36
// 121   ----------------------------------------
 BYTE   Gn1
 BYTE   W36
 BYTE   Dn1  v040
 BYTE   W36
 BYTE   En1  v036
 BYTE   W96
// 122   ----------------------------------------
 BYTE   W48
 BYTE   En1  v020
 BYTE   W36
 BYTE   Fs1
 BYTE   W36
// 123   ----------------------------------------
 BYTE   Gn1  v016
 BYTE   W36
 BYTE   Dn1  v012
 BYTE   W36
 BYTE   En1  v008
 BYTE   W84
 BYTE   FINE

//**************** Track 7 (Midi-Chn.6) ****************//

songB2_007:
// 000   ----------------------------------------
 BYTE   VOL   40*songB2_mvl/mxv
 BYTE   KEYSH   songB2_key+0
Label_6_01181828:
 BYTE   VOICE   58
 BYTE   N12  En1  v116
 BYTE   W96
// 001   ----------------------------------------
 BYTE   W48
Label_6_0118182F:
 BYTE   N12  En1  v116
 BYTE   W36
 BYTE   Fs1
 BYTE   W36
// 002   ----------------------------------------
 BYTE   Gn1
 BYTE   W36
 BYTE   Dn1
 BYTE   W36
 BYTE   PEND 
Label_6_0118183A:
 BYTE   N12  En1  v116
 BYTE   W96
// 003   ----------------------------------------
 BYTE   W48
 BYTE   PEND 
// 004   ----------------------------------------
 BYTE   PATT
  POIN2 Label_6_0118182F
// 005   ----------------------------------------
 BYTE   PATT
  POIN2 Label_6_0118183A
// 006   ----------------------------------------
 BYTE   PATT
  POIN2 Label_6_0118182F
// 007   ----------------------------------------
 BYTE   PATT
  POIN2 Label_6_0118183A
// 008   ----------------------------------------
 BYTE   PATT
  POIN2 Label_6_0118182F
// 009   ----------------------------------------
 BYTE   PATT
  POIN2 Label_6_0118183A
// 010   ----------------------------------------
 BYTE   PATT
  POIN2 Label_6_0118182F
// 011   ----------------------------------------
 BYTE   PATT
  POIN2 Label_6_0118183A
// 012   ----------------------------------------
 BYTE   PATT
  POIN2 Label_6_0118182F
// 013   ----------------------------------------
Label_6_0118186D:
 BYTE   N12  Gn1  v116
 BYTE   W96
// 014   ----------------------------------------
 BYTE   W48
 BYTE   PEND 
Label_6_01181873:
 BYTE   N12  Gn1  v116
 BYTE   W36
 BYTE   An1
 BYTE   W36
// 015   ----------------------------------------
 BYTE   As1
 BYTE   W36
 BYTE   Fn1
 BYTE   W36
 BYTE   PEND 
// 016   ----------------------------------------
 BYTE   PATT
  POIN2 Label_6_0118186D
// 017   ----------------------------------------
 BYTE   PATT
  POIN2 Label_6_01181873
// 018   ----------------------------------------
Label_6_01181888:
 BYTE   N12  Gn1  v116
 BYTE   N12  Gn2
 BYTE   W96
// 019   ----------------------------------------
 BYTE   W48
 BYTE   PEND 
Label_6_01181890:
 BYTE   N12  Gn1  v116
 BYTE   N12  Gn2
 BYTE   W36
 BYTE   An1
 BYTE   N12  An2
 BYTE   W36
// 020   ----------------------------------------
 BYTE   As1
 BYTE   N12  As2
 BYTE   W36
 BYTE   Fn1
 BYTE   N12  Fn2
 BYTE   W36
 BYTE   PEND 
// 021   ----------------------------------------
 BYTE   PATT
  POIN2 Label_6_01181888
// 022   ----------------------------------------
 BYTE   PATT
  POIN2 Label_6_01181890
// 023   ----------------------------------------
 BYTE   PATT
  POIN2 Label_6_01181888
// 024   ----------------------------------------
 BYTE   PATT
  POIN2 Label_6_01181890
// 025   ----------------------------------------
 BYTE   PATT
  POIN2 Label_6_01181888
// 026   ----------------------------------------
 BYTE   PATT
  POIN2 Label_6_01181890
// 027   ----------------------------------------
Label_6_011818C1:
 BYTE   N12  En0  v104
 BYTE   N12  Bn0
 BYTE   N12  En1
 BYTE   W96
// 028   ----------------------------------------
 BYTE   W48
 BYTE   PEND 
// 029   ----------------------------------------
 BYTE   PATT
  POIN2 Label_6_011818C1
// 030   ----------------------------------------
 BYTE   PATT
  POIN2 Label_6_011818C1
// 031   ----------------------------------------
 BYTE   PATT
  POIN2 Label_6_011818C1
// 032   ----------------------------------------
Label_6_011818DA:
 BYTE   TIE  En1  v088
 BYTE   W96
// 033   ----------------------------------------
 BYTE   W12
 BYTE   PEND 
 BYTE   EOT
 BYTE   N36  Dn1
 BYTE   W36
Label_6_011818E4:
 BYTE   TIE  Gn1  v088
 BYTE   W96
// 034   ----------------------------------------
 BYTE   W12
 BYTE   PEND 
 BYTE   EOT
 BYTE   N36
 BYTE   W36
Label_6_011818ED:
 BYTE   N72  Gn1  v088
 BYTE   W72
// 035   ----------------------------------------
 BYTE   TIE  Dn1
 BYTE   W72
 BYTE   PEND 
 BYTE   W72
// 036   ----------------------------------------
 BYTE   EOT
 BYTE   N72  En1
 BYTE   W72
Label_6_011818FA:
 BYTE   TIE  An0  v088
 BYTE   W96
// 037   ----------------------------------------
 BYTE   W12
 BYTE   PEND 
 BYTE   EOT
 BYTE   N36  Bn0
 BYTE   W36
Label_6_01181904:
 BYTE   N72  Cn1  v088
 BYTE   W72
// 038   ----------------------------------------
 BYTE   N24
 BYTE   W24
 BYTE   N24
 BYTE   W24
 BYTE   N24
 BYTE   W24
 BYTE   PEND 
Label_6_0118190F:
 BYTE   N24  Gn0  v088
 BYTE   W24
// 039   ----------------------------------------
 BYTE   N24
 BYTE   W24
 BYTE   N24
 BYTE   W24
 BYTE   N48  Dn1
 BYTE   W48
// 040   ----------------------------------------
 BYTE   N06  An1  v127
 BYTE   N06  Dn2
 BYTE   W12
 BYTE   An1
 BYTE   N06  Dn2
 BYTE   W12
 BYTE   PEND 
Label_6_01181925:
 BYTE   N72  An1  v127
 BYTE   N72  Dn2
 BYTE   W72
// 041   ----------------------------------------
 BYTE   N06  An1
 BYTE   N06  Dn2
 BYTE   W12
 BYTE   An1
 BYTE   N06  Dn2
 BYTE   W12
 BYTE   An1
 BYTE   N06  Dn2
 BYTE   W12
 BYTE   N36  An1
 BYTE   N36  Dn2
 BYTE   W36
 BYTE   PEND 
// 042   ----------------------------------------
 BYTE   PATT
  POIN2 Label_6_011818DA
// 043   ----------------------------------------
 BYTE   EOT
 BYTE   En1
 BYTE   N36  Dn1  v088
 BYTE   W36
// 044   ----------------------------------------
 BYTE   PATT
  POIN2 Label_6_011818E4
// 045   ----------------------------------------
 BYTE   EOT
 BYTE   Gn1
 BYTE   N36  Gn1  v088
 BYTE   W36
// 046   ----------------------------------------
 BYTE   PATT
  POIN2 Label_6_011818ED
// 047   ----------------------------------------
 BYTE   W72
 BYTE   EOT
 BYTE   Dn1
 BYTE   N72  En1  v088
 BYTE   W72
// 048   ----------------------------------------
 BYTE   PATT
  POIN2 Label_6_011818FA
// 049   ----------------------------------------
 BYTE   EOT
 BYTE   An0
 BYTE   N36  Bn0  v088
 BYTE   W36
// 050   ----------------------------------------
 BYTE   PATT
  POIN2 Label_6_01181904
// 051   ----------------------------------------
Label_6_01181970:
 BYTE   N24  Gn0  v088
 BYTE   W24
 BYTE   N24
 BYTE   W24
 BYTE   N24
 BYTE   W24
 BYTE   TIE  Dn1
 BYTE   W72
 BYTE   PEND 
// 052   ----------------------------------------
 BYTE   W96
// 053   ----------------------------------------
 BYTE   W48
 BYTE   EOT
 BYTE   W96
// 054   ----------------------------------------
 BYTE   W48
 BYTE   W96
// 055   ----------------------------------------
 BYTE   W48
 BYTE   W96
// 056   ----------------------------------------
 BYTE   W48
 BYTE   W96
// 057   ----------------------------------------
 BYTE   W48
// 058   ----------------------------------------
 BYTE   PATT
  POIN2 Label_6_0118183A
// 059   ----------------------------------------
 BYTE   PATT
  POIN2 Label_6_0118182F
// 060   ----------------------------------------
 BYTE   PATT
  POIN2 Label_6_0118183A
// 061   ----------------------------------------
 BYTE   PATT
  POIN2 Label_6_0118182F
// 062   ----------------------------------------
 BYTE   PATT
  POIN2 Label_6_0118183A
// 063   ----------------------------------------
 BYTE   PATT
  POIN2 Label_6_0118182F
// 064   ----------------------------------------
 BYTE   PATT
  POIN2 Label_6_0118183A
// 065   ----------------------------------------
 BYTE   PATT
  POIN2 Label_6_0118182F
// 066   ----------------------------------------
 BYTE   PATT
  POIN2 Label_6_0118183A
// 067   ----------------------------------------
 BYTE   PATT
  POIN2 Label_6_0118182F
// 068   ----------------------------------------
 BYTE   PATT
  POIN2 Label_6_0118183A
// 069   ----------------------------------------
 BYTE   PATT
  POIN2 Label_6_0118182F
// 070   ----------------------------------------
 BYTE   PATT
  POIN2 Label_6_0118186D
// 071   ----------------------------------------
 BYTE   PATT
  POIN2 Label_6_01181873
// 072   ----------------------------------------
 BYTE   PATT
  POIN2 Label_6_0118186D
// 073   ----------------------------------------
 BYTE   PATT
  POIN2 Label_6_01181873
// 074   ----------------------------------------
 BYTE   PATT
  POIN2 Label_6_01181888
// 075   ----------------------------------------
 BYTE   PATT
  POIN2 Label_6_01181890
// 076   ----------------------------------------
 BYTE   PATT
  POIN2 Label_6_01181888
// 077   ----------------------------------------
 BYTE   PATT
  POIN2 Label_6_01181890
// 078   ----------------------------------------
 BYTE   PATT
  POIN2 Label_6_01181888
// 079   ----------------------------------------
 BYTE   PATT
  POIN2 Label_6_01181890
// 080   ----------------------------------------
 BYTE   PATT
  POIN2 Label_6_01181888
// 081   ----------------------------------------
 BYTE   PATT
  POIN2 Label_6_01181890
// 082   ----------------------------------------
 BYTE   PATT
  POIN2 Label_6_011818C1
// 083   ----------------------------------------
 BYTE   PATT
  POIN2 Label_6_011818C1
// 084   ----------------------------------------
 BYTE   PATT
  POIN2 Label_6_011818C1
// 085   ----------------------------------------
 BYTE   PATT
  POIN2 Label_6_011818C1
// 086   ----------------------------------------
 BYTE   PATT
  POIN2 Label_6_011818DA
// 087   ----------------------------------------
 BYTE   EOT
 BYTE   En1
 BYTE   N36  Dn1  v088
 BYTE   W36
// 088   ----------------------------------------
 BYTE   PATT
  POIN2 Label_6_011818E4
// 089   ----------------------------------------
 BYTE   EOT
 BYTE   Gn1
 BYTE   N36  Gn1  v088
 BYTE   W36
// 090   ----------------------------------------
 BYTE   PATT
  POIN2 Label_6_011818ED
// 091   ----------------------------------------
 BYTE   W72
 BYTE   EOT
 BYTE   Dn1
 BYTE   N72  En1  v088
 BYTE   W72
// 092   ----------------------------------------
 BYTE   PATT
  POIN2 Label_6_011818FA
// 093   ----------------------------------------
 BYTE   EOT
 BYTE   An0
 BYTE   N36  Bn0  v088
 BYTE   W36
// 094   ----------------------------------------
 BYTE   PATT
  POIN2 Label_6_01181904
// 095   ----------------------------------------
 BYTE   PATT
  POIN2 Label_6_0118190F
// 096   ----------------------------------------
 BYTE   PATT
  POIN2 Label_6_01181925
// 097   ----------------------------------------
 BYTE   PATT
  POIN2 Label_6_011818DA
// 098   ----------------------------------------
 BYTE   EOT
 BYTE   En1
 BYTE   N36  Dn1  v088
 BYTE   W36
// 099   ----------------------------------------
 BYTE   PATT
  POIN2 Label_6_011818E4
// 100   ----------------------------------------
 BYTE   EOT
 BYTE   Gn1
 BYTE   N36  Gn1  v088
 BYTE   W36
// 101   ----------------------------------------
 BYTE   PATT
  POIN2 Label_6_011818ED
// 102   ----------------------------------------
 BYTE   W72
 BYTE   EOT
 BYTE   Dn1
 BYTE   N72  En1  v088
 BYTE   W72
// 103   ----------------------------------------
 BYTE   PATT
  POIN2 Label_6_011818FA
// 104   ----------------------------------------
 BYTE   EOT
 BYTE   An0
 BYTE   N36  Bn0  v088
 BYTE   W36
// 105   ----------------------------------------
 BYTE   PATT
  POIN2 Label_6_01181904
// 106   ----------------------------------------
 BYTE   PATT
  POIN2 Label_6_01181970
// 107   ----------------------------------------
 BYTE   W96
// 108   ----------------------------------------
 BYTE   W48
 BYTE   EOT
 BYTE   Dn1
 BYTE   W96
// 109   ----------------------------------------
 BYTE   W48
 BYTE   W96
// 110   ----------------------------------------
 BYTE   W48
 BYTE   W96
// 111   ----------------------------------------
 BYTE   W48
 BYTE   W96
// 112   ----------------------------------------
 BYTE   W48
 BYTE   GoTo
  POIN2 Label_6_01181828
// 113   ----------------------------------------
 BYTE   PATT
  POIN2 Label_6_0118183A
// 114   ----------------------------------------
 BYTE   N12  En1  v104
 BYTE   W36
 BYTE   Fs1  v100
 BYTE   W36
 BYTE   Gn1  v096
 BYTE   W36
// 115   ----------------------------------------
 BYTE   Dn1  v092
 BYTE   W36
 BYTE   En1  v088
 BYTE   W96
// 116   ----------------------------------------
 BYTE   W48
 BYTE   En1  v076
 BYTE   W36
 BYTE   Fs1  v072
 BYTE   W36
// 117   ----------------------------------------
 BYTE   Gn1  v068
 BYTE   W36
 BYTE   Dn1  v064
 BYTE   W36
 BYTE   En1  v060
 BYTE   W96
// 118   ----------------------------------------
 BYTE   W48
 BYTE   En1  v048
 BYTE   W36
 BYTE   Fs1  v044
 BYTE   W36
// 119   ----------------------------------------
 BYTE   Gn1
 BYTE   W36
 BYTE   Dn1  v040
 BYTE   W36
 BYTE   En1  v036
 BYTE   W96
// 120   ----------------------------------------
 BYTE   W48
 BYTE   En1  v020
 BYTE   W36
 BYTE   Fs1
 BYTE   W36
// 121   ----------------------------------------
 BYTE   Gn1  v016
 BYTE   W36
 BYTE   Dn1  v012
 BYTE   W36
 BYTE   En1  v008
 BYTE   W84
 BYTE   FINE

//**************** Track 8 (Midi-Chn.7) ****************//

songB2_008:
// 000   ----------------------------------------
 BYTE   VOL   40*songB2_mvl/mxv
 BYTE   KEYSH   songB2_key+0
Label_7_01181AE0:
 BYTE   VOICE   47
 BYTE   N12  En1  v116
 BYTE   N12  En2
 BYTE   W96
// 001   ----------------------------------------
 BYTE   W48
Label_7_01181AE9:
 BYTE   N12  En1  v116
 BYTE   N12  En2
 BYTE   W36
 BYTE   Fs1
 BYTE   N12  Fs2
 BYTE   W36
// 002   ----------------------------------------
 BYTE   Gn1
 BYTE   N12  Gn2
 BYTE   W36
 BYTE   Dn1
 BYTE   N12  Dn2
 BYTE   W36
 BYTE   PEND 
Label_7_01181AFC:
 BYTE   N12  En1  v116
 BYTE   N12  En2
 BYTE   W96
// 003   ----------------------------------------
 BYTE   W48
 BYTE   PEND 
// 004   ----------------------------------------
 BYTE   PATT
  POIN2 Label_7_01181AE9
// 005   ----------------------------------------
 BYTE   PATT
  POIN2 Label_7_01181AFC
// 006   ----------------------------------------
 BYTE   PATT
  POIN2 Label_7_01181AE9
// 007   ----------------------------------------
 BYTE   PATT
  POIN2 Label_7_01181AFC
// 008   ----------------------------------------
 BYTE   PATT
  POIN2 Label_7_01181AE9
// 009   ----------------------------------------
 BYTE   PATT
  POIN2 Label_7_01181AFC
// 010   ----------------------------------------
 BYTE   PATT
  POIN2 Label_7_01181AE9
// 011   ----------------------------------------
 BYTE   PATT
  POIN2 Label_7_01181AFC
// 012   ----------------------------------------
 BYTE   PATT
  POIN2 Label_7_01181AE9
// 013   ----------------------------------------
Label_7_01181B31:
 BYTE   N12  Gn1  v116
 BYTE   N12  Gn2
 BYTE   W96
// 014   ----------------------------------------
 BYTE   W48
 BYTE   PEND 
Label_7_01181B39:
 BYTE   N12  Gn1  v116
 BYTE   N12  Gn2
 BYTE   W36
 BYTE   An1
 BYTE   N12  An2
 BYTE   W36
// 015   ----------------------------------------
 BYTE   As1
 BYTE   N12  As2
 BYTE   W36
 BYTE   Fn1
 BYTE   N12  Fn2
 BYTE   W36
 BYTE   PEND 
// 016   ----------------------------------------
 BYTE   PATT
  POIN2 Label_7_01181B31
// 017   ----------------------------------------
 BYTE   PATT
  POIN2 Label_7_01181B39
// 018   ----------------------------------------
 BYTE   PATT
  POIN2 Label_7_01181B31
// 019   ----------------------------------------
 BYTE   PATT
  POIN2 Label_7_01181B39
// 020   ----------------------------------------
 BYTE   PATT
  POIN2 Label_7_01181B31
// 021   ----------------------------------------
 BYTE   PATT
  POIN2 Label_7_01181B39
// 022   ----------------------------------------
 BYTE   PATT
  POIN2 Label_7_01181B31
// 023   ----------------------------------------
 BYTE   PATT
  POIN2 Label_7_01181B39
// 024   ----------------------------------------
 BYTE   PATT
  POIN2 Label_7_01181B31
// 025   ----------------------------------------
 BYTE   PATT
  POIN2 Label_7_01181B39
// 026   ----------------------------------------
Label_7_01181B7E:
 BYTE   N12  En1  v104
 BYTE   N12  Bn1
 BYTE   N12  En2
 BYTE   W96
// 027   ----------------------------------------
 BYTE   W48
 BYTE   PEND 
// 028   ----------------------------------------
 BYTE   PATT
  POIN2 Label_7_01181B7E
// 029   ----------------------------------------
 BYTE   PATT
  POIN2 Label_7_01181B7E
// 030   ----------------------------------------
 BYTE   PATT
  POIN2 Label_7_01181B7E
// 031   ----------------------------------------
Label_7_01181B97:
 BYTE   TIE  En1  v088
 BYTE   TIE  En2
 BYTE   W96
// 032   ----------------------------------------
 BYTE   W12
 BYTE   PEND 
 BYTE   EOT
 BYTE   En1  v052
 BYTE   N36  Dn1
 BYTE   N36  Dn2
 BYTE   W36
Label_7_01181BA7:
 BYTE   TIE  Gn1  v088
 BYTE   TIE  Gn2
 BYTE   W96
// 033   ----------------------------------------
 BYTE   W12
 BYTE   PEND 
 BYTE   EOT
 BYTE   Gn1  v055
 BYTE   N36  Gn1
 BYTE   N36  Gn2
 BYTE   W36
Label_7_01181BB7:
 BYTE   N72  Gn1  v088
 BYTE   N72  Gn2
 BYTE   W72
// 034   ----------------------------------------
 BYTE   TIE  Dn1
 BYTE   TIE  Dn2
 BYTE   W72
 BYTE   PEND 
 BYTE   W72
// 035   ----------------------------------------
 BYTE   EOT
 BYTE   Dn1  v050
 BYTE   N72  En1
 BYTE   N72  En2
 BYTE   W72
Label_7_01181BCC:
 BYTE   TIE  An0  v088
 BYTE   TIE  An1
 BYTE   W96
// 036   ----------------------------------------
 BYTE   W12
 BYTE   PEND 
 BYTE   EOT
 BYTE   An0  v045
 BYTE   N36  Bn0
 BYTE   N36  Bn1
 BYTE   W36
Label_7_01181BDC:
 BYTE   N72  Cn1  v088
 BYTE   N72  Cn2
 BYTE   W72
// 037   ----------------------------------------
 BYTE   N24  Cn1
 BYTE   N24  Cn2
 BYTE   W24
 BYTE   Cn1
 BYTE   N24  Cn2
 BYTE   W24
 BYTE   Cn1
 BYTE   N24  Cn2
 BYTE   W24
 BYTE   PEND 
Label_7_01181BF0:
 BYTE   N24  Gn0  v088
 BYTE   N24  Gn1
 BYTE   W24
// 038   ----------------------------------------
 BYTE   Gn0
 BYTE   N24  Gn1
 BYTE   W24
 BYTE   Gn0
 BYTE   N24  Gn1
 BYTE   W24
 BYTE   TIE  Dn1
 BYTE   TIE  Dn2
 BYTE   W72
 BYTE   PEND 
// 039   ----------------------------------------
 BYTE   W96
// 040   ----------------------------------------
 BYTE   W48
 BYTE   EOT
 BYTE   Dn1  v050
// 041   ----------------------------------------
 BYTE   PATT
  POIN2 Label_7_01181B97
// 042   ----------------------------------------
 BYTE   EOT
 BYTE   En1  v052
 BYTE   N36  Dn1  v088
 BYTE   N36  Dn2
 BYTE   W36
// 043   ----------------------------------------
 BYTE   PATT
  POIN2 Label_7_01181BA7
// 044   ----------------------------------------
 BYTE   EOT
 BYTE   Gn1  v055
 BYTE   N36  Gn1  v088
 BYTE   N36  Gn2
 BYTE   W36
// 045   ----------------------------------------
 BYTE   PATT
  POIN2 Label_7_01181BB7
// 046   ----------------------------------------
 BYTE   W72
 BYTE   EOT
 BYTE   Dn1  v050
 BYTE   N72  En1  v088
 BYTE   N72  En2
 BYTE   W72
// 047   ----------------------------------------
 BYTE   PATT
  POIN2 Label_7_01181BCC
// 048   ----------------------------------------
 BYTE   EOT
 BYTE   An0  v045
 BYTE   N36  Bn0  v088
 BYTE   N36  Bn1
 BYTE   W36
// 049   ----------------------------------------
 BYTE   PATT
  POIN2 Label_7_01181BDC
// 050   ----------------------------------------
 BYTE   PATT
  POIN2 Label_7_01181BF0
// 051   ----------------------------------------
 BYTE   W96
// 052   ----------------------------------------
 BYTE   W48
 BYTE   EOT
 BYTE   Dn1  v050
 BYTE   W96
// 053   ----------------------------------------
 BYTE   W48
 BYTE   W96
// 054   ----------------------------------------
 BYTE   W48
 BYTE   W96
// 055   ----------------------------------------
 BYTE   W48
 BYTE   W96
// 056   ----------------------------------------
 BYTE   W48
// 057   ----------------------------------------
 BYTE   PATT
  POIN2 Label_7_01181AFC
// 058   ----------------------------------------
 BYTE   PATT
  POIN2 Label_7_01181AE9
// 059   ----------------------------------------
 BYTE   PATT
  POIN2 Label_7_01181AFC
// 060   ----------------------------------------
 BYTE   PATT
  POIN2 Label_7_01181AE9
// 061   ----------------------------------------
 BYTE   PATT
  POIN2 Label_7_01181AFC
// 062   ----------------------------------------
 BYTE   PATT
  POIN2 Label_7_01181AE9
// 063   ----------------------------------------
 BYTE   PATT
  POIN2 Label_7_01181AFC
// 064   ----------------------------------------
 BYTE   PATT
  POIN2 Label_7_01181AE9
// 065   ----------------------------------------
 BYTE   PATT
  POIN2 Label_7_01181AFC
// 066   ----------------------------------------
 BYTE   PATT
  POIN2 Label_7_01181AE9
// 067   ----------------------------------------
 BYTE   PATT
  POIN2 Label_7_01181AFC
// 068   ----------------------------------------
 BYTE   PATT
  POIN2 Label_7_01181AE9
// 069   ----------------------------------------
 BYTE   PATT
  POIN2 Label_7_01181B31
// 070   ----------------------------------------
 BYTE   PATT
  POIN2 Label_7_01181B39
// 071   ----------------------------------------
 BYTE   PATT
  POIN2 Label_7_01181B31
// 072   ----------------------------------------
 BYTE   PATT
  POIN2 Label_7_01181B39
// 073   ----------------------------------------
 BYTE   PATT
  POIN2 Label_7_01181B31
// 074   ----------------------------------------
 BYTE   PATT
  POIN2 Label_7_01181B39
// 075   ----------------------------------------
 BYTE   PATT
  POIN2 Label_7_01181B31
// 076   ----------------------------------------
 BYTE   PATT
  POIN2 Label_7_01181B39
// 077   ----------------------------------------
 BYTE   PATT
  POIN2 Label_7_01181B31
// 078   ----------------------------------------
 BYTE   PATT
  POIN2 Label_7_01181B39
// 079   ----------------------------------------
 BYTE   PATT
  POIN2 Label_7_01181B31
// 080   ----------------------------------------
 BYTE   PATT
  POIN2 Label_7_01181B39
// 081   ----------------------------------------
 BYTE   PATT
  POIN2 Label_7_01181B7E
// 082   ----------------------------------------
 BYTE   PATT
  POIN2 Label_7_01181B7E
// 083   ----------------------------------------
 BYTE   PATT
  POIN2 Label_7_01181B7E
// 084   ----------------------------------------
 BYTE   PATT
  POIN2 Label_7_01181B7E
// 085   ----------------------------------------
 BYTE   PATT
  POIN2 Label_7_01181B97
// 086   ----------------------------------------
 BYTE   EOT
 BYTE   En1  v052
 BYTE   N36  Dn1  v088
 BYTE   N36  Dn2
 BYTE   W36
// 087   ----------------------------------------
 BYTE   PATT
  POIN2 Label_7_01181BA7
// 088   ----------------------------------------
 BYTE   EOT
 BYTE   Gn1  v055
 BYTE   N36  Gn1  v088
 BYTE   N36  Gn2
 BYTE   W36
// 089   ----------------------------------------
 BYTE   PATT
  POIN2 Label_7_01181BB7
// 090   ----------------------------------------
 BYTE   W72
 BYTE   EOT
 BYTE   Dn1  v050
 BYTE   N72  En1  v088
 BYTE   N72  En2
 BYTE   W72
// 091   ----------------------------------------
 BYTE   PATT
  POIN2 Label_7_01181BCC
// 092   ----------------------------------------
 BYTE   EOT
 BYTE   An0  v045
 BYTE   N36  Bn0  v088
 BYTE   N36  Bn1
 BYTE   W36
// 093   ----------------------------------------
 BYTE   PATT
  POIN2 Label_7_01181BDC
// 094   ----------------------------------------
 BYTE   PATT
  POIN2 Label_7_01181BF0
// 095   ----------------------------------------
 BYTE   W96
// 096   ----------------------------------------
 BYTE   W48
 BYTE   EOT
 BYTE   Dn1  v050
// 097   ----------------------------------------
 BYTE   PATT
  POIN2 Label_7_01181B97
// 098   ----------------------------------------
 BYTE   EOT
 BYTE   En1  v052
 BYTE   N36  Dn1  v088
 BYTE   N36  Dn2
 BYTE   W36
// 099   ----------------------------------------
 BYTE   PATT
  POIN2 Label_7_01181BA7
// 100   ----------------------------------------
 BYTE   EOT
 BYTE   Gn1  v055
 BYTE   N36  Gn1  v088
 BYTE   N36  Gn2
 BYTE   W36
// 101   ----------------------------------------
 BYTE   PATT
  POIN2 Label_7_01181BB7
// 102   ----------------------------------------
 BYTE   W72
 BYTE   EOT
 BYTE   Dn1  v050
 BYTE   N72  En1  v088
 BYTE   N72  En2
 BYTE   W72
// 103   ----------------------------------------
 BYTE   PATT
  POIN2 Label_7_01181BCC
// 104   ----------------------------------------
 BYTE   EOT
 BYTE   An0  v045
 BYTE   N36  Bn0  v088
 BYTE   N36  Bn1
 BYTE   W36
// 105   ----------------------------------------
 BYTE   PATT
  POIN2 Label_7_01181BDC
// 106   ----------------------------------------
 BYTE   PATT
  POIN2 Label_7_01181BF0
// 107   ----------------------------------------
 BYTE   W96
// 108   ----------------------------------------
 BYTE   W48
 BYTE   EOT
 BYTE   Dn1  v050
 BYTE   W96
// 109   ----------------------------------------
 BYTE   W48
 BYTE   W96
// 110   ----------------------------------------
 BYTE   W48
 BYTE   W96
// 111   ----------------------------------------
 BYTE   W48
 BYTE   W96
// 112   ----------------------------------------
 BYTE   W48
 BYTE   GoTo
  POIN2 Label_7_01181AE0
// 113   ----------------------------------------
 BYTE   PATT
  POIN2 Label_7_01181AFC
// 114   ----------------------------------------
 BYTE   N12  En1  v104
 BYTE   N12  En2
 BYTE   W36
 BYTE   Fs1  v100
 BYTE   N12  Fs2
 BYTE   W36
 BYTE   Gn1  v096
 BYTE   N12  Gn2
 BYTE   W36
// 115   ----------------------------------------
 BYTE   Dn1  v092
 BYTE   N12  Dn2
 BYTE   W36
 BYTE   En1  v088
 BYTE   N12  En2
 BYTE   W96
// 116   ----------------------------------------
 BYTE   W48
 BYTE   En1  v076
 BYTE   N12  En2
 BYTE   W36
 BYTE   Fs1  v072
 BYTE   N12  Fs2
 BYTE   W36
// 117   ----------------------------------------
 BYTE   Gn1  v068
 BYTE   N12  Gn2
 BYTE   W36
 BYTE   Dn1  v064
 BYTE   N12  Dn2
 BYTE   W36
 BYTE   En1  v060
 BYTE   N12  En2
 BYTE   W96
// 118   ----------------------------------------
 BYTE   W48
 BYTE   En1  v048
 BYTE   N12  En2
 BYTE   W36
 BYTE   Fs1  v044
 BYTE   N12  Fs2
 BYTE   W36
// 119   ----------------------------------------
 BYTE   Gn1
 BYTE   N12  Gn2
 BYTE   W36
 BYTE   Dn1  v040
 BYTE   N12  Dn2
 BYTE   W36
 BYTE   En1  v036
 BYTE   N12  En2
 BYTE   W96
// 120   ----------------------------------------
 BYTE   W48
 BYTE   En1  v020
 BYTE   N12  En2
 BYTE   W36
 BYTE   Fs1
 BYTE   N12  Fs2
 BYTE   W36
// 121   ----------------------------------------
 BYTE   Gn1  v016
 BYTE   N12  Gn2
 BYTE   W36
 BYTE   Dn1  v012
 BYTE   N12  Dn2
 BYTE   W36
 BYTE   En1  v008
 BYTE   N12  En2
 BYTE   W84
 BYTE   FINE

//**************** Track 9 (Midi-Chn.8) ****************//

songB2_009:
// 000   ----------------------------------------
 BYTE   VOL   40*songB2_mvl/mxv
 BYTE   KEYSH   songB2_key+0
Label_8_01181DF4:
 BYTE   VOICE   13
 BYTE   N12  Bn4  v088
 BYTE   N12  En5
 BYTE   W24
 BYTE   Bn4
 BYTE   N12  En5
 BYTE   W24
 BYTE   Bn4
 BYTE   N12  En5
 BYTE   W12
 BYTE   Bn4
 BYTE   N12  En5
 BYTE   W12
 BYTE   Bn4
 BYTE   N12  En5
 BYTE   W24
// 001   ----------------------------------------
 BYTE   Bn4
 BYTE   N12  En5
 BYTE   W24
 BYTE   Bn4
 BYTE   N12  En5
 BYTE   W12
 BYTE   Bn4
 BYTE   N12  En5
 BYTE   W12
Label_8_01181E18:
 BYTE   N12  Bn4  v088
 BYTE   N12  En5
 BYTE   W24
 BYTE   Bn4
 BYTE   N12  En5
 BYTE   W24
// 002   ----------------------------------------
 BYTE   Bn4
 BYTE   N12  En5
 BYTE   W12
 BYTE   Bn4
 BYTE   N12  En5
 BYTE   W12
 BYTE   Bn4
 BYTE   N12  En5
 BYTE   W12
 BYTE   Bn4
 BYTE   N12  En5
 BYTE   W12
 BYTE   Bn4
 BYTE   N12  En5
 BYTE   W24
 BYTE   Bn4
 BYTE   N12  En5
 BYTE   W12
 BYTE   Bn4
 BYTE   N12  En5
 BYTE   W12
 BYTE   PEND 
// 003   ----------------------------------------
Label_8_01181E3F:
 BYTE   N12  Bn4  v088
 BYTE   N12  En5
 BYTE   W24
 BYTE   Bn4
 BYTE   N12  En5
 BYTE   W24
 BYTE   Bn4
 BYTE   N12  En5
 BYTE   W12
 BYTE   Bn4
 BYTE   N12  En5
 BYTE   W12
 BYTE   Bn4
 BYTE   N12  En5
 BYTE   W24
// 004   ----------------------------------------
 BYTE   Bn4
 BYTE   N12  En5
 BYTE   W24
 BYTE   Bn4
 BYTE   N12  En5
 BYTE   W12
 BYTE   Bn4
 BYTE   N12  En5
 BYTE   W12
 BYTE   PEND 
// 005   ----------------------------------------
 BYTE   PATT
  POIN2 Label_8_01181E3F
// 006   ----------------------------------------
 BYTE   PATT
  POIN2 Label_8_01181E3F
// 007   ----------------------------------------
 BYTE   PATT
  POIN2 Label_8_01181E18
// 008   ----------------------------------------
 BYTE   PATT
  POIN2 Label_8_01181E3F
// 009   ----------------------------------------
 BYTE   PATT
  POIN2 Label_8_01181E3F
// 010   ----------------------------------------
 BYTE   PATT
  POIN2 Label_8_01181E3F
// 011   ----------------------------------------
 BYTE   PATT
  POIN2 Label_8_01181E18
// 012   ----------------------------------------
 BYTE   PATT
  POIN2 Label_8_01181E3F
// 013   ----------------------------------------
 BYTE   PATT
  POIN2 Label_8_01181E3F
// 014   ----------------------------------------
Label_8_01181E8F:
 BYTE   N12  Dn5  v088
 BYTE   N12  Gn5
 BYTE   W24
 BYTE   Dn5
 BYTE   N12  Gn5
 BYTE   W24
 BYTE   Dn5
 BYTE   N12  Gn5
 BYTE   W12
 BYTE   Dn5
 BYTE   N12  Gn5
 BYTE   W12
 BYTE   Dn5
 BYTE   N12  Gn5
 BYTE   W24
// 015   ----------------------------------------
 BYTE   Dn5
 BYTE   N12  Gn5
 BYTE   W24
 BYTE   Dn5
 BYTE   N12  Gn5
 BYTE   W12
 BYTE   Dn5
 BYTE   N12  Gn5
 BYTE   W12
 BYTE   PEND 
Label_8_01181EB2:
 BYTE   N12  Dn5  v088
 BYTE   N12  Gn5
 BYTE   W24
 BYTE   Dn5
 BYTE   N12  Gn5
 BYTE   W24
// 016   ----------------------------------------
 BYTE   Dn5
 BYTE   N12  Gn5
 BYTE   W12
 BYTE   Dn5
 BYTE   N12  Gn5
 BYTE   W12
 BYTE   Dn5
 BYTE   N12  Gn5
 BYTE   W12
 BYTE   Dn5
 BYTE   N12  Gn5
 BYTE   W12
 BYTE   Dn5
 BYTE   N12  Gn5
 BYTE   W24
 BYTE   Dn5
 BYTE   N12  Gn5
 BYTE   W12
 BYTE   Dn5
 BYTE   N12  Gn5
 BYTE   W12
 BYTE   PEND 
// 017   ----------------------------------------
 BYTE   PATT
  POIN2 Label_8_01181E8F
// 018   ----------------------------------------
 BYTE   PATT
  POIN2 Label_8_01181E8F
// 019   ----------------------------------------
 BYTE   PATT
  POIN2 Label_8_01181E8F
// 020   ----------------------------------------
 BYTE   PATT
  POIN2 Label_8_01181EB2
// 021   ----------------------------------------
 BYTE   PATT
  POIN2 Label_8_01181E8F
// 022   ----------------------------------------
 BYTE   PATT
  POIN2 Label_8_01181E8F
// 023   ----------------------------------------
 BYTE   PATT
  POIN2 Label_8_01181E8F
// 024   ----------------------------------------
 BYTE   PATT
  POIN2 Label_8_01181EB2
// 025   ----------------------------------------
 BYTE   PATT
  POIN2 Label_8_01181E8F
// 026   ----------------------------------------
 BYTE   PATT
  POIN2 Label_8_01181E8F
// 027   ----------------------------------------
 BYTE   W96
// 028   ----------------------------------------
 BYTE   W48
 BYTE   W96
// 029   ----------------------------------------
 BYTE   W48
 BYTE   W96
// 030   ----------------------------------------
 BYTE   W48
 BYTE   W96
// 031   ----------------------------------------
 BYTE   W48
 BYTE   W96
// 032   ----------------------------------------
 BYTE   W48
 BYTE   W96
// 033   ----------------------------------------
 BYTE   W48
 BYTE   W96
// 034   ----------------------------------------
 BYTE   W48
 BYTE   W96
// 035   ----------------------------------------
 BYTE   W48
 BYTE   W96
// 036   ----------------------------------------
 BYTE   W48
 BYTE   W96
// 037   ----------------------------------------
 BYTE   W48
 BYTE   W96
// 038   ----------------------------------------
 BYTE   W48
 BYTE   W96
// 039   ----------------------------------------
 BYTE   W48
 BYTE   W96
// 040   ----------------------------------------
 BYTE   W48
 BYTE   W96
// 041   ----------------------------------------
 BYTE   W48
 BYTE   W96
// 042   ----------------------------------------
 BYTE   W48
 BYTE   W96
// 043   ----------------------------------------
 BYTE   W48
 BYTE   W96
// 044   ----------------------------------------
 BYTE   W48
 BYTE   W96
// 045   ----------------------------------------
 BYTE   W48
 BYTE   W96
// 046   ----------------------------------------
 BYTE   W48
 BYTE   W96
// 047   ----------------------------------------
 BYTE   W48
 BYTE   W96
// 048   ----------------------------------------
 BYTE   W48
 BYTE   W96
// 049   ----------------------------------------
 BYTE   W48
 BYTE   W96
// 050   ----------------------------------------
 BYTE   W48
 BYTE   W96
// 051   ----------------------------------------
 BYTE   W48
// 052   ----------------------------------------
 BYTE   PATT
  POIN2 Label_8_01181E3F
// 053   ----------------------------------------
 BYTE   PATT
  POIN2 Label_8_01181E18
// 054   ----------------------------------------
 BYTE   PATT
  POIN2 Label_8_01181E3F
// 055   ----------------------------------------
 BYTE   PATT
  POIN2 Label_8_01181E3F
// 056   ----------------------------------------
 BYTE   PATT
  POIN2 Label_8_01181E3F
// 057   ----------------------------------------
 BYTE   PATT
  POIN2 Label_8_01181E18
// 058   ----------------------------------------
 BYTE   PATT
  POIN2 Label_8_01181E3F
// 059   ----------------------------------------
 BYTE   PATT
  POIN2 Label_8_01181E3F
// 060   ----------------------------------------
 BYTE   PATT
  POIN2 Label_8_01181E3F
// 061   ----------------------------------------
 BYTE   PATT
  POIN2 Label_8_01181E18
// 062   ----------------------------------------
 BYTE   PATT
  POIN2 Label_8_01181E3F
// 063   ----------------------------------------
 BYTE   PATT
  POIN2 Label_8_01181E3F
// 064   ----------------------------------------
 BYTE   PATT
  POIN2 Label_8_01181E8F
// 065   ----------------------------------------
 BYTE   PATT
  POIN2 Label_8_01181EB2
// 066   ----------------------------------------
 BYTE   PATT
  POIN2 Label_8_01181E8F
// 067   ----------------------------------------
 BYTE   PATT
  POIN2 Label_8_01181E8F
// 068   ----------------------------------------
 BYTE   PATT
  POIN2 Label_8_01181E8F
// 069   ----------------------------------------
 BYTE   PATT
  POIN2 Label_8_01181EB2
// 070   ----------------------------------------
 BYTE   PATT
  POIN2 Label_8_01181E8F
// 071   ----------------------------------------
 BYTE   PATT
  POIN2 Label_8_01181E8F
// 072   ----------------------------------------
 BYTE   PATT
  POIN2 Label_8_01181E8F
// 073   ----------------------------------------
 BYTE   PATT
  POIN2 Label_8_01181EB2
// 074   ----------------------------------------
 BYTE   PATT
  POIN2 Label_8_01181E8F
// 075   ----------------------------------------
 BYTE   PATT
  POIN2 Label_8_01181E8F
// 076   ----------------------------------------
 BYTE   W96
// 077   ----------------------------------------
 BYTE   W48
 BYTE   W96
// 078   ----------------------------------------
 BYTE   W48
 BYTE   W96
// 079   ----------------------------------------
 BYTE   W48
 BYTE   W96
// 080   ----------------------------------------
 BYTE   W48
 BYTE   W96
// 081   ----------------------------------------
 BYTE   W48
 BYTE   W96
// 082   ----------------------------------------
 BYTE   W48
 BYTE   W96
// 083   ----------------------------------------
 BYTE   W48
 BYTE   W96
// 084   ----------------------------------------
 BYTE   W48
 BYTE   W96
// 085   ----------------------------------------
 BYTE   W48
 BYTE   W96
// 086   ----------------------------------------
 BYTE   W48
 BYTE   W96
// 087   ----------------------------------------
 BYTE   W48
 BYTE   W96
// 088   ----------------------------------------
 BYTE   W48
 BYTE   W96
// 089   ----------------------------------------
 BYTE   W48
 BYTE   W96
// 090   ----------------------------------------
 BYTE   W48
 BYTE   W96
// 091   ----------------------------------------
 BYTE   W48
 BYTE   W96
// 092   ----------------------------------------
 BYTE   W48
 BYTE   W96
// 093   ----------------------------------------
 BYTE   W48
 BYTE   W96
// 094   ----------------------------------------
 BYTE   W48
 BYTE   W96
// 095   ----------------------------------------
 BYTE   W48
 BYTE   W96
// 096   ----------------------------------------
 BYTE   W48
 BYTE   W96
// 097   ----------------------------------------
 BYTE   W48
 BYTE   W96
// 098   ----------------------------------------
 BYTE   W48
 BYTE   W96
// 099   ----------------------------------------
 BYTE   W48
 BYTE   W96
// 100   ----------------------------------------
 BYTE   W48
 BYTE   GoTo
  POIN2 Label_8_01181DF4
// 101   ----------------------------------------
 BYTE   N12  Bn4  v088
 BYTE   N12  En5
 BYTE   W24
 BYTE   Bn4
 BYTE   N12  En5
 BYTE   W24
 BYTE   Bn4
 BYTE   N12  En5
 BYTE   W12
 BYTE   Bn4  v084
 BYTE   N12  En5
 BYTE   W12
 BYTE   Bn4
 BYTE   N12  En5
 BYTE   W24
// 102   ----------------------------------------
 BYTE   Bn4
 BYTE   N12  En5
 BYTE   W24
 BYTE   Bn4  v080
 BYTE   N12  En5
 BYTE   W12
 BYTE   Bn4
 BYTE   N12  En5
 BYTE   W12
 BYTE   Bn4
 BYTE   N12  En5
 BYTE   W24
 BYTE   Bn4  v076
 BYTE   N12  En5
 BYTE   W24
// 103   ----------------------------------------
 BYTE   Bn4
 BYTE   N12  En5
 BYTE   W12
 BYTE   Bn4
 BYTE   N12  En5
 BYTE   W12
 BYTE   Bn4
 BYTE   N12  En5
 BYTE   W12
 BYTE   Bn4  v072
 BYTE   N12  En5
 BYTE   W12
 BYTE   Bn4
 BYTE   N12  En5
 BYTE   W24
 BYTE   Bn4
 BYTE   N12  En5
 BYTE   W12
 BYTE   Bn4  v068
 BYTE   N12  En5
 BYTE   W12
// 104   ----------------------------------------
 BYTE   Bn4
 BYTE   N12  En5
 BYTE   W24
 BYTE   Bn4
 BYTE   N12  En5
 BYTE   W24
 BYTE   Bn4  v064
 BYTE   N12  En5
 BYTE   W12
 BYTE   Bn4
 BYTE   N12  En5
 BYTE   W12
 BYTE   Bn4
 BYTE   N12  En5
 BYTE   W24
// 105   ----------------------------------------
 BYTE   Bn4  v060
 BYTE   N12  En5
 BYTE   W24
 BYTE   Bn4
 BYTE   N12  En5
 BYTE   W12
 BYTE   Bn4
 BYTE   N12  En5
 BYTE   W12
 BYTE   Bn4
 BYTE   N12  En5
 BYTE   W24
 BYTE   Bn4  v056
 BYTE   N12  En5
 BYTE   W24
// 106   ----------------------------------------
 BYTE   Bn4
 BYTE   N12  En5
 BYTE   W12
 BYTE   Bn4  v052
 BYTE   N12  En5
 BYTE   W12
 BYTE   Bn4
 BYTE   N12  En5
 BYTE   W24
 BYTE   Bn4
 BYTE   N12  En5
 BYTE   W24
 BYTE   Bn4  v048
 BYTE   N12  En5
 BYTE   W12
 BYTE   Bn4
 BYTE   N12  En5
 BYTE   W12
// 107   ----------------------------------------
 BYTE   Bn4
 BYTE   N12  En5
 BYTE   W24
 BYTE   Bn4  v044
 BYTE   N12  En5
 BYTE   W24
 BYTE   Bn4
 BYTE   N12  En5
 BYTE   W12
 BYTE   Bn4
 BYTE   N12  En5
 BYTE   W12
 BYTE   Bn4
 BYTE   N12  En5
 BYTE   W24
// 108   ----------------------------------------
 BYTE   Bn4  v040
 BYTE   N12  En5
 BYTE   W24
 BYTE   Bn4
 BYTE   N12  En5
 BYTE   W12
 BYTE   Bn4
 BYTE   N12  En5
 BYTE   W12
 BYTE   Bn4  v036
 BYTE   N12  En5
 BYTE   W24
 BYTE   Bn4
 BYTE   N12  En5
 BYTE   W24
// 109   ----------------------------------------
 BYTE   Bn4
 BYTE   N12  En5
 BYTE   W12
 BYTE   Bn4  v032
 BYTE   N12  En5
 BYTE   W12
 BYTE   Bn4
 BYTE   N12  En5
 BYTE   W12
 BYTE   Bn4
 BYTE   N12  En5
 BYTE   W12
 BYTE   Bn4
 BYTE   N12  En5
 BYTE   W24
 BYTE   Bn4  v028
 BYTE   N12  En5
 BYTE   W12
 BYTE   Bn4
 BYTE   N12  En5
 BYTE   W12
// 110   ----------------------------------------
 BYTE   Bn4
 BYTE   N12  En5
 BYTE   W24
 BYTE   Bn4  v024
 BYTE   N12  En5
 BYTE   W24
 BYTE   Bn4
 BYTE   N12  En5
 BYTE   W12
 BYTE   Bn4
 BYTE   N12  En5
 BYTE   W12
 BYTE   Bn4
 BYTE   N12  En5
 BYTE   W24
// 111   ----------------------------------------
 BYTE   Bn4  v020
 BYTE   N12  En5
 BYTE   W24
 BYTE   Bn4
 BYTE   N12  En5
 BYTE   W12
 BYTE   Bn4  v016
 BYTE   N12  En5
 BYTE   W12
 BYTE   Bn4
 BYTE   N12  En5
 BYTE   W24
 BYTE   Bn4
 BYTE   N12  En5
 BYTE   W24
// 112   ----------------------------------------
 BYTE   Bn4  v012
 BYTE   N12  En5
 BYTE   W12
 BYTE   Bn4
 BYTE   N12  En5
 BYTE   W12
 BYTE   Bn4
 BYTE   N12  En5
 BYTE   W24
 BYTE   Bn4  v008
 BYTE   N12  En5
 BYTE   W24
 BYTE   Bn4
 BYTE   N12  En5
 BYTE   W12
 BYTE   Bn4
 BYTE   N12  En5
 BYTE   W12
// 113   ----------------------------------------
 BYTE   Bn4
 BYTE   N12  En5
 BYTE   W24
 BYTE   Bn4  v004
 BYTE   N12  En5
 BYTE   W24
 BYTE   Bn4
 BYTE   N12  En5
 BYTE   W36
 BYTE   FINE

//**************** Track 10 (Midi-Chn.9) ****************//

songB2_010:
// 000   ----------------------------------------
 BYTE   VOL   40*songB2_mvl/mxv
 BYTE   KEYSH   songB2_key+0
Label_9_01182118:
 BYTE   VOICE   121
 BYTE   W96
// 001   ----------------------------------------
 BYTE   W48
 BYTE   W96
// 002   ----------------------------------------
 BYTE   W48
 BYTE   W96
// 003   ----------------------------------------
 BYTE   W48
 BYTE   W96
// 004   ----------------------------------------
 BYTE   W48
Label_9_01182122:
 BYTE   N72  Cs2  v127
 BYTE   W96
// 005   ----------------------------------------
 BYTE   W48
 BYTE   PEND 
 BYTE   W96
// 006   ----------------------------------------
 BYTE   W48
 BYTE   W96
// 007   ----------------------------------------
 BYTE   W48
 BYTE   W96
// 008   ----------------------------------------
 BYTE   W48
 BYTE   W96
// 009   ----------------------------------------
 BYTE   W48
 BYTE   W96
// 010   ----------------------------------------
 BYTE   W48
 BYTE   W96
// 011   ----------------------------------------
 BYTE   W48
 BYTE   W96
// 012   ----------------------------------------
 BYTE   W48
// 013   ----------------------------------------
 BYTE   PATT
  POIN2 Label_9_01182122
// 014   ----------------------------------------
 BYTE   W96
// 015   ----------------------------------------
 BYTE   W48
 BYTE   W96
// 016   ----------------------------------------
 BYTE   W48
 BYTE   W96
// 017   ----------------------------------------
 BYTE   W48
// 018   ----------------------------------------
 BYTE   PATT
  POIN2 Label_9_01182122
// 019   ----------------------------------------
 BYTE   W96
// 020   ----------------------------------------
 BYTE   W48
 BYTE   W96
// 021   ----------------------------------------
 BYTE   W48
 BYTE   W96
// 022   ----------------------------------------
 BYTE   W48
 BYTE   W96
// 023   ----------------------------------------
 BYTE   W48
 BYTE   W96
// 024   ----------------------------------------
 BYTE   W48
 BYTE   W96
// 025   ----------------------------------------
 BYTE   W48
 BYTE   W96
// 026   ----------------------------------------
 BYTE   W48
Label_9_01182154:
 BYTE   N24  Cs2  v104
 BYTE   W96
// 027   ----------------------------------------
 BYTE   W48
 BYTE   PEND 
// 028   ----------------------------------------
 BYTE   PATT
  POIN2 Label_9_01182154
// 029   ----------------------------------------
 BYTE   PATT
  POIN2 Label_9_01182154
// 030   ----------------------------------------
 BYTE   PATT
  POIN2 Label_9_01182154
// 031   ----------------------------------------
Label_9_01182169:
 BYTE   N24  En1  v088
 BYTE   W24
 BYTE   N12
 BYTE   W12
 BYTE   N12
 BYTE   W12
 BYTE   N12
 BYTE   W12
 BYTE   N24
 BYTE   W24
 BYTE   N12
 BYTE   W12
// 032   ----------------------------------------
 BYTE   N12
 BYTE   W12
 BYTE   N12
 BYTE   W12
 BYTE   N12
 BYTE   W12
 BYTE   N12
 BYTE   W12
 BYTE   PEND 
// 033   ----------------------------------------
 BYTE   PATT
  POIN2 Label_9_01182169
// 034   ----------------------------------------
 BYTE   PATT
  POIN2 Label_9_01182169
// 035   ----------------------------------------
Label_9_0118218A:
 BYTE   N24  En1  v088
 BYTE   W24
 BYTE   N12
 BYTE   W12
 BYTE   N12
 BYTE   W12
 BYTE   N12
 BYTE   W12
 BYTE   N12
 BYTE   W12
 BYTE   N12
 BYTE   W12
 BYTE   N12
 BYTE   W12
// 036   ----------------------------------------
 BYTE   N12
 BYTE   W12
 BYTE   N03
 BYTE   W03
 BYTE   N03
 BYTE   W03
 BYTE   N03
 BYTE   W03
 BYTE   N03
 BYTE   W03
 BYTE   N03
 BYTE   W03
 BYTE   N03
 BYTE   W03
 BYTE   N03
 BYTE   W03
 BYTE   N03
 BYTE   W03
 BYTE   N03
 BYTE   W03
 BYTE   N03
 BYTE   W03
 BYTE   N03
 BYTE   W03
 BYTE   N03
 BYTE   W03
 BYTE   PEND 
// 037   ----------------------------------------
 BYTE   PATT
  POIN2 Label_9_01182169
// 038   ----------------------------------------
 BYTE   PATT
  POIN2 Label_9_01182169
// 039   ----------------------------------------
 BYTE   PATT
  POIN2 Label_9_01182169
// 040   ----------------------------------------
 BYTE   PATT
  POIN2 Label_9_0118218A
// 041   ----------------------------------------
 BYTE   PATT
  POIN2 Label_9_01182169
// 042   ----------------------------------------
 BYTE   PATT
  POIN2 Label_9_01182169
// 043   ----------------------------------------
 BYTE   PATT
  POIN2 Label_9_01182169
// 044   ----------------------------------------
 BYTE   PATT
  POIN2 Label_9_0118218A
// 045   ----------------------------------------
 BYTE   PATT
  POIN2 Label_9_01182169
// 046   ----------------------------------------
 BYTE   PATT
  POIN2 Label_9_01182169
// 047   ----------------------------------------
 BYTE   PATT
  POIN2 Label_9_01182169
// 048   ----------------------------------------
 BYTE   PATT
  POIN2 Label_9_0118218A
// 049   ----------------------------------------
Label_9_011821F1:
 BYTE   N24  En1  v076
 BYTE   W24
 BYTE   N12
 BYTE   W12
 BYTE   N12
 BYTE   W12
 BYTE   N12
 BYTE   W12
 BYTE   N12
 BYTE   W12
 BYTE   N12
 BYTE   W12
 BYTE   N12
 BYTE   W12
// 050   ----------------------------------------
 BYTE   N12
 BYTE   W12
 BYTE   N12
 BYTE   W12
 BYTE   N12
 BYTE   W12
 BYTE   N12
 BYTE   W12
 BYTE   PEND 
// 051   ----------------------------------------
 BYTE   PATT
  POIN2 Label_9_011821F1
// 052   ----------------------------------------
 BYTE   PATT
  POIN2 Label_9_011821F1
// 053   ----------------------------------------
Label_9_01182214:
 BYTE   N24  En1  v076
 BYTE   W24
 BYTE   N12
 BYTE   W12
 BYTE   N12
 BYTE   W12
 BYTE   N12
 BYTE   W12
 BYTE   N12
 BYTE   W12
 BYTE   N12
 BYTE   W12
 BYTE   N12
 BYTE   W12
// 054   ----------------------------------------
 BYTE   N12
 BYTE   W12
 BYTE   N03
 BYTE   W03
 BYTE   N03
 BYTE   W03
 BYTE   N03
 BYTE   W03
 BYTE   N03
 BYTE   W03
 BYTE   N03
 BYTE   W03
 BYTE   N03
 BYTE   W03
 BYTE   N03
 BYTE   W03
 BYTE   N03
 BYTE   W03
 BYTE   N03
 BYTE   W03
 BYTE   N03
 BYTE   W03
 BYTE   N03
 BYTE   W03
 BYTE   N03
 BYTE   W03
 BYTE   PEND 
 BYTE   W96
// 055   ----------------------------------------
 BYTE   W48
 BYTE   W96
// 056   ----------------------------------------
 BYTE   W48
 BYTE   W96
// 057   ----------------------------------------
 BYTE   W48
 BYTE   W96
// 058   ----------------------------------------
 BYTE   W48
// 059   ----------------------------------------
 BYTE   PATT
  POIN2 Label_9_01182122
// 060   ----------------------------------------
 BYTE   W96
// 061   ----------------------------------------
 BYTE   W48
 BYTE   W96
// 062   ----------------------------------------
 BYTE   W48
 BYTE   W96
// 063   ----------------------------------------
 BYTE   W48
 BYTE   W96
// 064   ----------------------------------------
 BYTE   W48
 BYTE   W96
// 065   ----------------------------------------
 BYTE   W48
 BYTE   W96
// 066   ----------------------------------------
 BYTE   W48
 BYTE   W96
// 067   ----------------------------------------
 BYTE   W48
// 068   ----------------------------------------
 BYTE   PATT
  POIN2 Label_9_01182122
// 069   ----------------------------------------
 BYTE   W96
// 070   ----------------------------------------
 BYTE   W48
 BYTE   W96
// 071   ----------------------------------------
 BYTE   W48
 BYTE   W96
// 072   ----------------------------------------
 BYTE   W48
// 073   ----------------------------------------
 BYTE   PATT
  POIN2 Label_9_01182122
// 074   ----------------------------------------
 BYTE   W96
// 075   ----------------------------------------
 BYTE   W48
 BYTE   W96
// 076   ----------------------------------------
 BYTE   W48
 BYTE   W96
// 077   ----------------------------------------
 BYTE   W48
 BYTE   W96
// 078   ----------------------------------------
 BYTE   W48
 BYTE   W96
// 079   ----------------------------------------
 BYTE   W48
 BYTE   W96
// 080   ----------------------------------------
 BYTE   W48
 BYTE   W96
// 081   ----------------------------------------
 BYTE   W48
// 082   ----------------------------------------
 BYTE   PATT
  POIN2 Label_9_01182154
// 083   ----------------------------------------
 BYTE   PATT
  POIN2 Label_9_01182154
// 084   ----------------------------------------
 BYTE   PATT
  POIN2 Label_9_01182154
// 085   ----------------------------------------
 BYTE   PATT
  POIN2 Label_9_01182154
// 086   ----------------------------------------
 BYTE   PATT
  POIN2 Label_9_01182169
// 087   ----------------------------------------
 BYTE   PATT
  POIN2 Label_9_01182169
// 088   ----------------------------------------
 BYTE   PATT
  POIN2 Label_9_01182169
// 089   ----------------------------------------
 BYTE   PATT
  POIN2 Label_9_0118218A
// 090   ----------------------------------------
 BYTE   PATT
  POIN2 Label_9_01182169
// 091   ----------------------------------------
 BYTE   PATT
  POIN2 Label_9_01182169
// 092   ----------------------------------------
 BYTE   PATT
  POIN2 Label_9_01182169
// 093   ----------------------------------------
 BYTE   PATT
  POIN2 Label_9_0118218A
// 094   ----------------------------------------
 BYTE   PATT
  POIN2 Label_9_01182169
// 095   ----------------------------------------
 BYTE   PATT
  POIN2 Label_9_01182169
// 096   ----------------------------------------
 BYTE   PATT
  POIN2 Label_9_01182169
// 097   ----------------------------------------
 BYTE   PATT
  POIN2 Label_9_0118218A
// 098   ----------------------------------------
 BYTE   PATT
  POIN2 Label_9_01182169
// 099   ----------------------------------------
 BYTE   PATT
  POIN2 Label_9_01182169
// 100   ----------------------------------------
 BYTE   PATT
  POIN2 Label_9_01182169
// 101   ----------------------------------------
 BYTE   PATT
  POIN2 Label_9_0118218A
// 102   ----------------------------------------
 BYTE   PATT
  POIN2 Label_9_011821F1
// 103   ----------------------------------------
 BYTE   PATT
  POIN2 Label_9_011821F1
// 104   ----------------------------------------
 BYTE   PATT
  POIN2 Label_9_011821F1
// 105   ----------------------------------------
 BYTE   PATT
  POIN2 Label_9_01182214
// 106   ----------------------------------------
 BYTE   GoTo
  POIN2 Label_9_01182118
// 107   ----------------------------------------
 BYTE   W96
// 108   ----------------------------------------
 BYTE   W48
 BYTE   W96
// 109   ----------------------------------------
 BYTE   W48
 BYTE   W96
// 110   ----------------------------------------
 BYTE   W48
 BYTE   W96
// 111   ----------------------------------------
 BYTE   W48
 BYTE   N72  Cs2  v068
 BYTE   W96
// 112   ----------------------------------------
 BYTE   W48
 BYTE   W96
// 113   ----------------------------------------
 BYTE   W48
 BYTE   W96
// 114   ----------------------------------------
 BYTE   W48
 BYTE   W96
// 115   ----------------------------------------
 BYTE   W48
 BYTE   W84
 BYTE   FINE

//**************** Track 11 (Midi-Chn.10) ****************//

songB2_011:
// 000   ----------------------------------------
 BYTE   VOL   40*songB2_mvl/mxv
 BYTE   KEYSH   songB2_key+0
Label_10_01182310:
 BYTE   VOICE   14
 BYTE   W96
// 001   ----------------------------------------
 BYTE   W48
 BYTE   W96
// 002   ----------------------------------------
 BYTE   W48
 BYTE   W96
// 003   ----------------------------------------
 BYTE   W48
 BYTE   W96
// 004   ----------------------------------------
 BYTE   W48
 BYTE   W96
// 005   ----------------------------------------
 BYTE   W48
 BYTE   W96
// 006   ----------------------------------------
 BYTE   W48
 BYTE   W96
// 007   ----------------------------------------
 BYTE   W48
 BYTE   W96
// 008   ----------------------------------------
 BYTE   W48
 BYTE   W96
// 009   ----------------------------------------
 BYTE   W48
 BYTE   W96
// 010   ----------------------------------------
 BYTE   W48
 BYTE   W96
// 011   ----------------------------------------
 BYTE   W48
 BYTE   W96
// 012   ----------------------------------------
 BYTE   W48
 BYTE   W96
// 013   ----------------------------------------
 BYTE   W48
 BYTE   W96
// 014   ----------------------------------------
 BYTE   W48
 BYTE   W96
// 015   ----------------------------------------
 BYTE   W48
 BYTE   W96
// 016   ----------------------------------------
 BYTE   W48
 BYTE   W96
// 017   ----------------------------------------
 BYTE   W48
 BYTE   W96
// 018   ----------------------------------------
 BYTE   W48
 BYTE   W96
// 019   ----------------------------------------
 BYTE   W48
 BYTE   W96
// 020   ----------------------------------------
 BYTE   W48
 BYTE   W96
// 021   ----------------------------------------
 BYTE   W48
 BYTE   W96
// 022   ----------------------------------------
 BYTE   W48
 BYTE   W96
// 023   ----------------------------------------
 BYTE   W48
 BYTE   W96
// 024   ----------------------------------------
 BYTE   W48
Label_10_01182342:
 BYTE   N24  En3  v088
 BYTE   W36
 BYTE   Bn3
 BYTE   W72
// 025   ----------------------------------------
 BYTE   En4
 BYTE   W36
 BYTE   PEND 
// 026   ----------------------------------------
 BYTE   PATT
  POIN2 Label_10_01182342
// 027   ----------------------------------------
 BYTE   PATT
  POIN2 Label_10_01182342
// 028   ----------------------------------------
 BYTE   PATT
  POIN2 Label_10_01182342
// 029   ----------------------------------------
 BYTE   W96
// 030   ----------------------------------------
 BYTE   W48
 BYTE   W96
// 031   ----------------------------------------
 BYTE   W48
 BYTE   W96
// 032   ----------------------------------------
 BYTE   W48
 BYTE   W96
// 033   ----------------------------------------
 BYTE   W48
 BYTE   W96
// 034   ----------------------------------------
 BYTE   W48
 BYTE   W96
// 035   ----------------------------------------
 BYTE   W48
 BYTE   W96
// 036   ----------------------------------------
 BYTE   W48
 BYTE   W96
// 037   ----------------------------------------
 BYTE   W48
 BYTE   W96
// 038   ----------------------------------------
 BYTE   W48
 BYTE   W96
// 039   ----------------------------------------
 BYTE   W48
 BYTE   W96
// 040   ----------------------------------------
 BYTE   W48
 BYTE   W96
// 041   ----------------------------------------
 BYTE   W48
 BYTE   W96
// 042   ----------------------------------------
 BYTE   W48
 BYTE   W96
// 043   ----------------------------------------
 BYTE   W48
 BYTE   W96
// 044   ----------------------------------------
 BYTE   W48
 BYTE   W96
// 045   ----------------------------------------
 BYTE   W48
 BYTE   W96
// 046   ----------------------------------------
 BYTE   W48
 BYTE   W96
// 047   ----------------------------------------
 BYTE   W48
 BYTE   W96
// 048   ----------------------------------------
 BYTE   W48
 BYTE   W96
// 049   ----------------------------------------
 BYTE   W48
 BYTE   W96
// 050   ----------------------------------------
 BYTE   W48
 BYTE   W96
// 051   ----------------------------------------
 BYTE   W48
 BYTE   W96
// 052   ----------------------------------------
 BYTE   W48
 BYTE   W96
// 053   ----------------------------------------
 BYTE   W48
 BYTE   W96
// 054   ----------------------------------------
 BYTE   W48
 BYTE   W96
// 055   ----------------------------------------
 BYTE   W48
 BYTE   W96
// 056   ----------------------------------------
 BYTE   W48
 BYTE   W96
// 057   ----------------------------------------
 BYTE   W48
 BYTE   W96
// 058   ----------------------------------------
 BYTE   W48
 BYTE   W96
// 059   ----------------------------------------
 BYTE   W48
 BYTE   W96
// 060   ----------------------------------------
 BYTE   W48
 BYTE   W96
// 061   ----------------------------------------
 BYTE   W48
 BYTE   W96
// 062   ----------------------------------------
 BYTE   W48
 BYTE   W96
// 063   ----------------------------------------
 BYTE   W48
 BYTE   W96
// 064   ----------------------------------------
 BYTE   W48
 BYTE   W96
// 065   ----------------------------------------
 BYTE   W48
 BYTE   W96
// 066   ----------------------------------------
 BYTE   W48
 BYTE   W96
// 067   ----------------------------------------
 BYTE   W48
 BYTE   W96
// 068   ----------------------------------------
 BYTE   W48
 BYTE   W96
// 069   ----------------------------------------
 BYTE   W48
 BYTE   W96
// 070   ----------------------------------------
 BYTE   W48
 BYTE   W96
// 071   ----------------------------------------
 BYTE   W48
 BYTE   W96
// 072   ----------------------------------------
 BYTE   W48
 BYTE   W96
// 073   ----------------------------------------
 BYTE   W48
// 074   ----------------------------------------
 BYTE   PATT
  POIN2 Label_10_01182342
// 075   ----------------------------------------
 BYTE   PATT
  POIN2 Label_10_01182342
// 076   ----------------------------------------
 BYTE   PATT
  POIN2 Label_10_01182342
// 077   ----------------------------------------
 BYTE   PATT
  POIN2 Label_10_01182342
// 078   ----------------------------------------
 BYTE   W96
// 079   ----------------------------------------
 BYTE   W48
 BYTE   W96
// 080   ----------------------------------------
 BYTE   W48
 BYTE   W96
// 081   ----------------------------------------
 BYTE   W48
 BYTE   W96
// 082   ----------------------------------------
 BYTE   W48
 BYTE   W96
// 083   ----------------------------------------
 BYTE   W48
 BYTE   W96
// 084   ----------------------------------------
 BYTE   W48
 BYTE   W96
// 085   ----------------------------------------
 BYTE   W48
 BYTE   W96
// 086   ----------------------------------------
 BYTE   W48
 BYTE   W96
// 087   ----------------------------------------
 BYTE   W48
 BYTE   W96
// 088   ----------------------------------------
 BYTE   W48
 BYTE   W96
// 089   ----------------------------------------
 BYTE   W48
 BYTE   W96
// 090   ----------------------------------------
 BYTE   W48
 BYTE   W96
// 091   ----------------------------------------
 BYTE   W48
 BYTE   W96
// 092   ----------------------------------------
 BYTE   W48
 BYTE   W96
// 093   ----------------------------------------
 BYTE   W48
 BYTE   W96
// 094   ----------------------------------------
 BYTE   W48
 BYTE   W96
// 095   ----------------------------------------
 BYTE   W48
 BYTE   W96
// 096   ----------------------------------------
 BYTE   W48
 BYTE   W96
// 097   ----------------------------------------
 BYTE   W48
 BYTE   W96
// 098   ----------------------------------------
 BYTE   W48
 BYTE   GoTo
  POIN2 Label_10_01182310
// 099   ----------------------------------------
 BYTE   W96
// 100   ----------------------------------------
 BYTE   W48
 BYTE   W96
// 101   ----------------------------------------
 BYTE   W48
 BYTE   W96
// 102   ----------------------------------------
 BYTE   W48
 BYTE   W96
// 103   ----------------------------------------
 BYTE   W48
 BYTE   W96
// 104   ----------------------------------------
 BYTE   W48
 BYTE   W96
// 105   ----------------------------------------
 BYTE   W48
 BYTE   W96
// 106   ----------------------------------------
 BYTE   W48
 BYTE   W96
// 107   ----------------------------------------
 BYTE   W48
 BYTE   W84
 BYTE   FINE

//**************** Track 12 (Midi-Chn.11) ****************//

songB2_012:
// 000   ----------------------------------------
 BYTE   VOL   40*songB2_mvl/mxv
 BYTE   KEYSH   songB2_key+0
Label_11_0118240C:
 BYTE   VOICE   119
 BYTE   W96
// 001   ----------------------------------------
 BYTE   W48
 BYTE   W96
// 002   ----------------------------------------
 BYTE   W48
 BYTE   W96
// 003   ----------------------------------------
 BYTE   W48
 BYTE   W72
// 004   ----------------------------------------
 BYTE   N72  Bn2  v127
 BYTE   W72
 BYTE   W96
// 005   ----------------------------------------
 BYTE   W48
 BYTE   W96
// 006   ----------------------------------------
 BYTE   W48
 BYTE   W96
// 007   ----------------------------------------
 BYTE   W48
 BYTE   W96
// 008   ----------------------------------------
 BYTE   W48
 BYTE   W96
// 009   ----------------------------------------
 BYTE   W48
 BYTE   W96
// 010   ----------------------------------------
 BYTE   W48
 BYTE   W96
// 011   ----------------------------------------
 BYTE   W48
 BYTE   W72
// 012   ----------------------------------------
 BYTE   Bn2  v088
 BYTE   W72
 BYTE   W96
// 013   ----------------------------------------
 BYTE   W48
 BYTE   W96
// 014   ----------------------------------------
 BYTE   W48
 BYTE   W96
// 015   ----------------------------------------
 BYTE   W48
 BYTE   W96
// 016   ----------------------------------------
 BYTE   W48
 BYTE   W96
// 017   ----------------------------------------
 BYTE   W48
 BYTE   W96
// 018   ----------------------------------------
 BYTE   W48
 BYTE   W96
// 019   ----------------------------------------
 BYTE   W48
 BYTE   W96
// 020   ----------------------------------------
 BYTE   W48
 BYTE   W96
// 021   ----------------------------------------
 BYTE   W48
 BYTE   W96
// 022   ----------------------------------------
 BYTE   W48
 BYTE   W96
// 023   ----------------------------------------
 BYTE   W48
 BYTE   W96
// 024   ----------------------------------------
 BYTE   W48
 BYTE   W96
// 025   ----------------------------------------
 BYTE   W48
 BYTE   W96
// 026   ----------------------------------------
 BYTE   W48
 BYTE   W96
// 027   ----------------------------------------
 BYTE   W48
 BYTE   W72
// 028   ----------------------------------------
 BYTE   Bn2  v104
 BYTE   W72
 BYTE   W96
// 029   ----------------------------------------
 BYTE   W48
 BYTE   W96
// 030   ----------------------------------------
 BYTE   W48
 BYTE   W96
// 031   ----------------------------------------
 BYTE   W48
 BYTE   W96
// 032   ----------------------------------------
 BYTE   W48
 BYTE   W96
// 033   ----------------------------------------
 BYTE   W48
 BYTE   W96
// 034   ----------------------------------------
 BYTE   W48
 BYTE   W96
// 035   ----------------------------------------
 BYTE   W48
 BYTE   W96
// 036   ----------------------------------------
 BYTE   W48
 BYTE   W96
// 037   ----------------------------------------
 BYTE   W48
 BYTE   W96
// 038   ----------------------------------------
 BYTE   W48
 BYTE   W96
// 039   ----------------------------------------
 BYTE   W48
 BYTE   W96
// 040   ----------------------------------------
 BYTE   W48
 BYTE   W96
// 041   ----------------------------------------
 BYTE   W48
 BYTE   W96
// 042   ----------------------------------------
 BYTE   W48
 BYTE   W96
// 043   ----------------------------------------
 BYTE   W48
 BYTE   W96
// 044   ----------------------------------------
 BYTE   W48
 BYTE   W96
// 045   ----------------------------------------
 BYTE   W48
 BYTE   W96
// 046   ----------------------------------------
 BYTE   W48
 BYTE   W96
// 047   ----------------------------------------
 BYTE   W48
 BYTE   W96
// 048   ----------------------------------------
 BYTE   W48
 BYTE   W96
// 049   ----------------------------------------
 BYTE   W48
 BYTE   W96
// 050   ----------------------------------------
 BYTE   W48
 BYTE   W96
// 051   ----------------------------------------
 BYTE   W48
 BYTE   W72
// 052   ----------------------------------------
 BYTE   Bn2  v127
 BYTE   W72
 BYTE   W96
// 053   ----------------------------------------
 BYTE   W48
 BYTE   W96
// 054   ----------------------------------------
 BYTE   W48
 BYTE   W96
// 055   ----------------------------------------
 BYTE   W48
 BYTE   W96
// 056   ----------------------------------------
 BYTE   W48
 BYTE   W96
// 057   ----------------------------------------
 BYTE   W48
 BYTE   W96
// 058   ----------------------------------------
 BYTE   W48
 BYTE   W96
// 059   ----------------------------------------
 BYTE   W48
 BYTE   W72
// 060   ----------------------------------------
 BYTE   Bn2  v088
 BYTE   W72
 BYTE   W96
// 061   ----------------------------------------
 BYTE   W48
 BYTE   W96
// 062   ----------------------------------------
 BYTE   W48
 BYTE   W96
// 063   ----------------------------------------
 BYTE   W48
 BYTE   W96
// 064   ----------------------------------------
 BYTE   W48
 BYTE   W96
// 065   ----------------------------------------
 BYTE   W48
 BYTE   W96
// 066   ----------------------------------------
 BYTE   W48
 BYTE   W96
// 067   ----------------------------------------
 BYTE   W48
 BYTE   W96
// 068   ----------------------------------------
 BYTE   W48
 BYTE   W96
// 069   ----------------------------------------
 BYTE   W48
 BYTE   W96
// 070   ----------------------------------------
 BYTE   W48
 BYTE   W96
// 071   ----------------------------------------
 BYTE   W48
 BYTE   W96
// 072   ----------------------------------------
 BYTE   W48
 BYTE   W96
// 073   ----------------------------------------
 BYTE   W48
 BYTE   W96
// 074   ----------------------------------------
 BYTE   W48
 BYTE   W96
// 075   ----------------------------------------
 BYTE   W48
 BYTE   W72
// 076   ----------------------------------------
 BYTE   Bn2  v104
 BYTE   W72
 BYTE   W96
// 077   ----------------------------------------
 BYTE   W48
 BYTE   W96
// 078   ----------------------------------------
 BYTE   W48
 BYTE   W96
// 079   ----------------------------------------
 BYTE   W48
 BYTE   W96
// 080   ----------------------------------------
 BYTE   W48
 BYTE   W96
// 081   ----------------------------------------
 BYTE   W48
 BYTE   W96
// 082   ----------------------------------------
 BYTE   W48
 BYTE   W96
// 083   ----------------------------------------
 BYTE   W48
 BYTE   W96
// 084   ----------------------------------------
 BYTE   W48
 BYTE   W96
// 085   ----------------------------------------
 BYTE   W48
 BYTE   W96
// 086   ----------------------------------------
 BYTE   W48
 BYTE   W96
// 087   ----------------------------------------
 BYTE   W48
 BYTE   W96
// 088   ----------------------------------------
 BYTE   W48
 BYTE   W96
// 089   ----------------------------------------
 BYTE   W48
 BYTE   W96
// 090   ----------------------------------------
 BYTE   W48
 BYTE   W96
// 091   ----------------------------------------
 BYTE   W48
 BYTE   W96
// 092   ----------------------------------------
 BYTE   W48
 BYTE   W96
// 093   ----------------------------------------
 BYTE   W48
 BYTE   W96
// 094   ----------------------------------------
 BYTE   W48
 BYTE   W96
// 095   ----------------------------------------
 BYTE   W48
 BYTE   W96
// 096   ----------------------------------------
 BYTE   W48
 BYTE   GoTo
  POIN2 Label_11_0118240C
// 097   ----------------------------------------
 BYTE   W96
// 098   ----------------------------------------
 BYTE   W48
 BYTE   W96
// 099   ----------------------------------------
 BYTE   W48
 BYTE   W96
// 100   ----------------------------------------
 BYTE   W48
 BYTE   W72
// 101   ----------------------------------------
 BYTE   N72  Bn2  v076
 BYTE   W72
 BYTE   W96
// 102   ----------------------------------------
 BYTE   W48
 BYTE   W96
// 103   ----------------------------------------
 BYTE   W48
 BYTE   W96
// 104   ----------------------------------------
 BYTE   W48
 BYTE   W96
// 105   ----------------------------------------
 BYTE   W48
 BYTE   W84
 BYTE   FINE

//**************** Track 13 (Midi-Chn.12) ****************//

songB2_013:
// 000   ----------------------------------------
 BYTE   VOL   40*songB2_mvl/mxv
 BYTE   KEYSH   songB2_key+0
Label_12_011824FC:
 BYTE   VOICE   46
 BYTE   W96
// 001   ----------------------------------------
 BYTE   W48
 BYTE   W96
// 002   ----------------------------------------
 BYTE   W48
 BYTE   W96
// 003   ----------------------------------------
 BYTE   W48
 BYTE   W96
// 004   ----------------------------------------
 BYTE   W48
 BYTE   W96
// 005   ----------------------------------------
 BYTE   W48
 BYTE   W96
// 006   ----------------------------------------
 BYTE   W48
 BYTE   W96
// 007   ----------------------------------------
 BYTE   W48
 BYTE   W96
// 008   ----------------------------------------
 BYTE   W48
 BYTE   W96
// 009   ----------------------------------------
 BYTE   W48
 BYTE   W96
// 010   ----------------------------------------
 BYTE   W48
 BYTE   W96
// 011   ----------------------------------------
 BYTE   W48
Label_12_01182514:
 BYTE   W72
// 012   ----------------------------------------
 BYTE   N03  Dn1  v088
 BYTE   W03
 BYTE   En1  v092
 BYTE   W03
 BYTE   Fn1
 BYTE   W03
 BYTE   Gn1
 BYTE   W03
 BYTE   An1  v096
 BYTE   W03
 BYTE   As1
 BYTE   W03
 BYTE   Cn2  v100
 BYTE   W03
 BYTE   Dn2
 BYTE   W03
 BYTE   En2  v104
 BYTE   W03
 BYTE   Fn2
 BYTE   W03
 BYTE   Gn2
 BYTE   W03
 BYTE   An2  v108
 BYTE   W03
 BYTE   As2
 BYTE   W03
 BYTE   Cn3  v112
 BYTE   W03
 BYTE   Dn3
 BYTE   W03
 BYTE   En3
 BYTE   W03
 BYTE   Fn3  v116
 BYTE   W03
 BYTE   Gn3
 BYTE   W03
 BYTE   An3  v120
 BYTE   W03
 BYTE   As3
 BYTE   W03
 BYTE   Cn4
 BYTE   W03
 BYTE   Dn4  v124
 BYTE   W03
 BYTE   En4
 BYTE   W03
 BYTE   Fn4  v127
 BYTE   W03
 BYTE   PEND 
Label_12_01182552:
 BYTE   N12  Gn4  v127
 BYTE   W96
// 013   ----------------------------------------
 BYTE   W48
 BYTE   PEND 
 BYTE   W96
// 014   ----------------------------------------
 BYTE   W48
 BYTE   W96
// 015   ----------------------------------------
 BYTE   W48
 BYTE   W96
// 016   ----------------------------------------
 BYTE   W48
 BYTE   W96
// 017   ----------------------------------------
 BYTE   W48
 BYTE   W96
// 018   ----------------------------------------
 BYTE   W48
 BYTE   W96
// 019   ----------------------------------------
 BYTE   W48
 BYTE   W96
// 020   ----------------------------------------
 BYTE   W48
 BYTE   W96
// 021   ----------------------------------------
 BYTE   W48
 BYTE   W96
// 022   ----------------------------------------
 BYTE   W48
 BYTE   W96
// 023   ----------------------------------------
 BYTE   W48
Label_12_0118256C:
 BYTE   W72
// 024   ----------------------------------------
 BYTE   N03  Bn0  v088
 BYTE   W03
 BYTE   Cs1  v092
 BYTE   W03
 BYTE   Dn1
 BYTE   W03
 BYTE   En1
 BYTE   W03
 BYTE   Fs1  v096
 BYTE   W03
 BYTE   Gn1
 BYTE   W03
 BYTE   An1  v100
 BYTE   W03
 BYTE   Bn1
 BYTE   W03
 BYTE   Cs2  v104
 BYTE   W03
 BYTE   Dn2
 BYTE   W03
 BYTE   En2
 BYTE   W03
 BYTE   Fs2  v108
 BYTE   W03
 BYTE   Gn2
 BYTE   W03
 BYTE   An2  v112
 BYTE   W03
 BYTE   Bn2
 BYTE   W03
 BYTE   Cs3
 BYTE   W03
 BYTE   Dn3  v116
 BYTE   W03
 BYTE   En3
 BYTE   W03
 BYTE   Fs3  v120
 BYTE   W03
 BYTE   Gn3
 BYTE   W03
 BYTE   An3
 BYTE   W03
 BYTE   Bn3  v124
 BYTE   W03
 BYTE   Cs4
 BYTE   W03
 BYTE   Dn4  v127
 BYTE   W03
 BYTE   PEND 
Label_12_011825AA:
 BYTE   N12  En1  v104
 BYTE   N12  Bn1
 BYTE   N12  En2
 BYTE   N12  Bn2
 BYTE   N12  En3
 BYTE   N12  Bn3
 BYTE   N12  En4
 BYTE   W96
// 025   ----------------------------------------
 BYTE   W48
 BYTE   PEND 
// 026   ----------------------------------------
 BYTE   PATT
  POIN2 Label_12_011825AA
// 027   ----------------------------------------
 BYTE   PATT
  POIN2 Label_12_011825AA
// 028   ----------------------------------------
 BYTE   PATT
  POIN2 Label_12_011825AA
// 029   ----------------------------------------
 BYTE   W96
// 030   ----------------------------------------
 BYTE   W48
 BYTE   W96
// 031   ----------------------------------------
 BYTE   W48
 BYTE   W96
// 032   ----------------------------------------
 BYTE   W48
 BYTE   W96
// 033   ----------------------------------------
 BYTE   W48
 BYTE   W96
// 034   ----------------------------------------
 BYTE   W48
 BYTE   W96
// 035   ----------------------------------------
 BYTE   W48
 BYTE   W96
// 036   ----------------------------------------
 BYTE   W48
 BYTE   W96
// 037   ----------------------------------------
 BYTE   W48
 BYTE   W96
// 038   ----------------------------------------
 BYTE   W48
 BYTE   W96
// 039   ----------------------------------------
 BYTE   W48
 BYTE   W96
// 040   ----------------------------------------
 BYTE   W48
 BYTE   W96
// 041   ----------------------------------------
 BYTE   W48
 BYTE   W96
// 042   ----------------------------------------
 BYTE   W48
 BYTE   W96
// 043   ----------------------------------------
 BYTE   W48
 BYTE   W96
// 044   ----------------------------------------
 BYTE   W48
 BYTE   W96
// 045   ----------------------------------------
 BYTE   W48
Label_12_011825EB:
 BYTE   N12  En2  v076
 BYTE   N12  En3
 BYTE   W12
 BYTE   Gn2
 BYTE   N12  Gn3
 BYTE   W12
 BYTE   Bn2
 BYTE   N12  Bn3
 BYTE   W12
 BYTE   En3
 BYTE   N12  En4
 BYTE   W12
// 046   ----------------------------------------
 BYTE   Gn3
 BYTE   N12  Gn4
 BYTE   W12
 BYTE   Bn3
 BYTE   N12  Bn4
 BYTE   W12
 BYTE   En4
 BYTE   N12  En5
 BYTE   W12
 BYTE   Bn3
 BYTE   N12  Bn4
 BYTE   W12
 BYTE   Gn3
 BYTE   N12  Gn4
 BYTE   W12
 BYTE   En3
 BYTE   N12  En4
 BYTE   W12
 BYTE   Bn2
 BYTE   N12  Bn3
 BYTE   W12
 BYTE   Gn2
 BYTE   N12  Gn3
 BYTE   W12
 BYTE   PEND 
// 047   ----------------------------------------
 BYTE   PATT
  POIN2 Label_12_011825EB
// 048   ----------------------------------------
 BYTE   PATT
  POIN2 Label_12_011825EB
// 049   ----------------------------------------
 BYTE   PATT
  POIN2 Label_12_011825EB
// 050   ----------------------------------------
 BYTE   W96
// 051   ----------------------------------------
 BYTE   W48
 BYTE   W96
// 052   ----------------------------------------
 BYTE   W48
 BYTE   W96
// 053   ----------------------------------------
 BYTE   W48
 BYTE   W96
// 054   ----------------------------------------
 BYTE   W48
 BYTE   W96
// 055   ----------------------------------------
 BYTE   W48
 BYTE   W96
// 056   ----------------------------------------
 BYTE   W48
 BYTE   W96
// 057   ----------------------------------------
 BYTE   W48
 BYTE   W96
// 058   ----------------------------------------
 BYTE   W48
 BYTE   W96
// 059   ----------------------------------------
 BYTE   W48
 BYTE   W96
// 060   ----------------------------------------
 BYTE   W48
 BYTE   W96
// 061   ----------------------------------------
 BYTE   W48
// 062   ----------------------------------------
 BYTE   PATT
  POIN2 Label_12_01182514
// 063   ----------------------------------------
 BYTE   PATT
  POIN2 Label_12_01182552
// 064   ----------------------------------------
 BYTE   W96
// 065   ----------------------------------------
 BYTE   W48
 BYTE   W96
// 066   ----------------------------------------
 BYTE   W48
 BYTE   W96
// 067   ----------------------------------------
 BYTE   W48
 BYTE   W96
// 068   ----------------------------------------
 BYTE   W48
 BYTE   W96
// 069   ----------------------------------------
 BYTE   W48
 BYTE   W96
// 070   ----------------------------------------
 BYTE   W48
 BYTE   W96
// 071   ----------------------------------------
 BYTE   W48
 BYTE   W96
// 072   ----------------------------------------
 BYTE   W48
 BYTE   W96
// 073   ----------------------------------------
 BYTE   W48
 BYTE   W96
// 074   ----------------------------------------
 BYTE   W48
// 075   ----------------------------------------
 BYTE   PATT
  POIN2 Label_12_0118256C
// 076   ----------------------------------------
 BYTE   PATT
  POIN2 Label_12_011825AA
// 077   ----------------------------------------
 BYTE   PATT
  POIN2 Label_12_011825AA
// 078   ----------------------------------------
 BYTE   PATT
  POIN2 Label_12_011825AA
// 079   ----------------------------------------
 BYTE   PATT
  POIN2 Label_12_011825AA
// 080   ----------------------------------------
 BYTE   W96
// 081   ----------------------------------------
 BYTE   W48
 BYTE   W96
// 082   ----------------------------------------
 BYTE   W48
 BYTE   W96
// 083   ----------------------------------------
 BYTE   W48
 BYTE   W96
// 084   ----------------------------------------
 BYTE   W48
 BYTE   W96
// 085   ----------------------------------------
 BYTE   W48
 BYTE   W96
// 086   ----------------------------------------
 BYTE   W48
 BYTE   W96
// 087   ----------------------------------------
 BYTE   W48
 BYTE   W96
// 088   ----------------------------------------
 BYTE   W48
 BYTE   W96
// 089   ----------------------------------------
 BYTE   W48
 BYTE   W96
// 090   ----------------------------------------
 BYTE   W48
 BYTE   W96
// 091   ----------------------------------------
 BYTE   W48
 BYTE   W96
// 092   ----------------------------------------
 BYTE   W48
 BYTE   W96
// 093   ----------------------------------------
 BYTE   W48
 BYTE   W96
// 094   ----------------------------------------
 BYTE   W48
 BYTE   W96
// 095   ----------------------------------------
 BYTE   W48
 BYTE   W96
// 096   ----------------------------------------
 BYTE   W48
// 097   ----------------------------------------
 BYTE   PATT
  POIN2 Label_12_011825EB
// 098   ----------------------------------------
 BYTE   PATT
  POIN2 Label_12_011825EB
// 099   ----------------------------------------
 BYTE   PATT
  POIN2 Label_12_011825EB
// 100   ----------------------------------------
 BYTE   PATT
  POIN2 Label_12_011825EB
// 101   ----------------------------------------
 BYTE   GoTo
  POIN2 Label_12_011824FC
// 102   ----------------------------------------
 BYTE   W96
// 103   ----------------------------------------
 BYTE   W48
 BYTE   W96
// 104   ----------------------------------------
 BYTE   W48
 BYTE   W96
// 105   ----------------------------------------
 BYTE   W48
 BYTE   W96
// 106   ----------------------------------------
 BYTE   W48
 BYTE   W96
// 107   ----------------------------------------
 BYTE   W48
 BYTE   W96
// 108   ----------------------------------------
 BYTE   W48
 BYTE   W96
// 109   ----------------------------------------
 BYTE   W48
 BYTE   W96
// 110   ----------------------------------------
 BYTE   W48
 BYTE   W84
 BYTE   FINE

//**************** Track 14 (Midi-Chn.13) ****************//

songB2_014:
// 000   ----------------------------------------
 BYTE   VOL   40*songB2_mvl/mxv
 BYTE   KEYSH   songB2_key+0
Label_13_011826CC:
 BYTE   VOICE   52
 BYTE   W96
// 001   ----------------------------------------
 BYTE   W48
 BYTE   W96
// 002   ----------------------------------------
 BYTE   W48
 BYTE   W96
// 003   ----------------------------------------
 BYTE   W48
 BYTE   W96
// 004   ----------------------------------------
 BYTE   W48
 BYTE   W96
// 005   ----------------------------------------
 BYTE   W48
 BYTE   W96
// 006   ----------------------------------------
 BYTE   W48
 BYTE   W96
// 007   ----------------------------------------
 BYTE   W48
 BYTE   W96
// 008   ----------------------------------------
 BYTE   W48
 BYTE   W96
// 009   ----------------------------------------
 BYTE   W48
 BYTE   W96
// 010   ----------------------------------------
 BYTE   W48
 BYTE   W96
// 011   ----------------------------------------
 BYTE   W48
 BYTE   W96
// 012   ----------------------------------------
 BYTE   W48
 BYTE   W96
// 013   ----------------------------------------
 BYTE   W48
 BYTE   W96
// 014   ----------------------------------------
 BYTE   W48
 BYTE   W96
// 015   ----------------------------------------
 BYTE   W48
 BYTE   W96
// 016   ----------------------------------------
 BYTE   W48
 BYTE   W96
// 017   ----------------------------------------
 BYTE   W48
 BYTE   W96
// 018   ----------------------------------------
 BYTE   W48
 BYTE   W96
// 019   ----------------------------------------
 BYTE   W48
 BYTE   W96
// 020   ----------------------------------------
 BYTE   W48
 BYTE   W96
// 021   ----------------------------------------
 BYTE   W48
 BYTE   W96
// 022   ----------------------------------------
 BYTE   W48
 BYTE   W96
// 023   ----------------------------------------
 BYTE   W48
 BYTE   W96
// 024   ----------------------------------------
 BYTE   W48
 BYTE   W96
// 025   ----------------------------------------
 BYTE   W48
 BYTE   W96
// 026   ----------------------------------------
 BYTE   W48
 BYTE   W96
// 027   ----------------------------------------
 BYTE   W48
 BYTE   W96
// 028   ----------------------------------------
 BYTE   W48
Label_13_01182706:
 BYTE   TIE  En1  v088
 BYTE   TIE  En2
 BYTE   TIE  Bn2
 BYTE   TIE  En3
 BYTE   TIE  Gn3
 BYTE   W96
// 029   ----------------------------------------
 BYTE   W12
 BYTE   PEND 
 BYTE   EOT
 BYTE   En1  v052
 BYTE   Bn2  v064
 BYTE   Gn3
 BYTE   N36  Dn1
 BYTE   N36  Dn2
 BYTE   N36  Dn3
 BYTE   N36  Fs3
 BYTE   N36  An3
 BYTE   W36
Label_13_01182725:
 BYTE   TIE  Gn1  v088
 BYTE   TIE  Gn2
 BYTE   TIE  Dn3
 BYTE   TIE  Gn3
 BYTE   TIE  Bn3
 BYTE   W96
// 030   ----------------------------------------
 BYTE   W12
 BYTE   PEND 
 BYTE   EOT
 BYTE   Gn1  v055
 BYTE   Dn3  v067
 BYTE   Bn3
 BYTE   N36  Gn1
 BYTE   N36  Gn2
 BYTE   N36  En3
 BYTE   N36  An3
 BYTE   N36  Cn4
 BYTE   W36
Label_13_01182744:
 BYTE   N72  Gn1  v088
 BYTE   N72  Gn2
 BYTE   N48  Gn3
 BYTE   N48  Bn3
 BYTE   N48  Dn4
 BYTE   W48
// 031   ----------------------------------------
 BYTE   N12  Fs3
 BYTE   N12  An3
 BYTE   N12  Cn4
 BYTE   W12
 BYTE   En3
 BYTE   N12  Gn3
 BYTE   N12  Bn3
 BYTE   W12
 BYTE   TIE  Dn1
 BYTE   TIE  Dn2
 BYTE   TIE  Dn3
 BYTE   TIE  Fs3
 BYTE   TIE  An3
 BYTE   W72
 BYTE   PEND 
// 032   ----------------------------------------
 BYTE   W72
 BYTE   EOT
 BYTE   Dn1  v050
 BYTE   Dn3  v066
 BYTE   An3
 BYTE   N72  En1
 BYTE   N72  En2
 BYTE   N72  Dn3
 BYTE   N72  Gn3
 BYTE   N72  Bn3
 BYTE   W72
// 033   ----------------------------------------
Label_13_0118277B:
 BYTE   TIE  An0  v088
 BYTE   TIE  An1
 BYTE   TIE  En3
 BYTE   TIE  An3
 BYTE   TIE  Cn4
 BYTE   W96
// 034   ----------------------------------------
 BYTE   W12
 BYTE   PEND 
 BYTE   EOT
 BYTE   An0  v045
 BYTE   En3  v069
 BYTE   Cn4
 BYTE   N36  Bn0
 BYTE   N36  Bn1
 BYTE   N36  Fs3
 BYTE   N36  Bn3
 BYTE   N36  Dn4
 BYTE   W36
Label_13_0118279A:
 BYTE   N72  Cn1  v088
 BYTE   N72  Cn2
 BYTE   N48  Gn3
 BYTE   N48  Cn4
 BYTE   N48  En4
 BYTE   W48
// 035   ----------------------------------------
 BYTE   N12  Gn3
 BYTE   N12  Cn4
 BYTE   N12  En4
 BYTE   W12
 BYTE   An3
 BYTE   N12  Dn4
 BYTE   N12  Fs4
 BYTE   W12
 BYTE   N24  Cn1
 BYTE   N24  Cn2
 BYTE   N24  Cn4
 BYTE   N24  En4
 BYTE   N24  Gn4
 BYTE   W24
 BYTE   Cn1
 BYTE   N24  Cn2
 BYTE   N24  An3
 BYTE   N24  Dn4
 BYTE   N24  Fs4
 BYTE   W24
 BYTE   Cn1
 BYTE   N24  Cn2
 BYTE   N24  Gn3
 BYTE   N24  Cn4
 BYTE   N24  En4
 BYTE   W24
 BYTE   PEND 
// 036   ----------------------------------------
Label_13_011827D3:
 BYTE   N24  Gn0  v088
 BYTE   N24  Gn1
 BYTE   N24  Gn3
 BYTE   N24  Bn3
 BYTE   N24  Dn4
 BYTE   W24
 BYTE   Gn0
 BYTE   N24  Gn1
 BYTE   N24  En3
 BYTE   N24  An3
 BYTE   N24  Cn4
 BYTE   W24
 BYTE   Gn0
 BYTE   N24  Gn1
 BYTE   N24  Dn3
 BYTE   N24  Gn3
 BYTE   N24  Bn3
 BYTE   W24
 BYTE   TIE  Dn1
 BYTE   TIE  Dn2
 BYTE   TIE  Dn3
 BYTE   TIE  Fs3
 BYTE   TIE  An3
 BYTE   W72
 BYTE   PEND 
// 037   ----------------------------------------
 BYTE   W96
// 038   ----------------------------------------
 BYTE   W48
 BYTE   EOT
 BYTE   Dn1  v050
 BYTE   Dn3  v066
 BYTE   An3
// 039   ----------------------------------------
 BYTE   PATT
  POIN2 Label_13_01182706
// 040   ----------------------------------------
 BYTE   EOT
 BYTE   En1  v052
 BYTE   Bn2  v064
 BYTE   Gn3
 BYTE   N36  Dn1  v088
 BYTE   N36  Dn2
 BYTE   N36  Dn3
 BYTE   N36  Fs3
 BYTE   N36  An3
 BYTE   W36
// 041   ----------------------------------------
 BYTE   PATT
  POIN2 Label_13_01182725
// 042   ----------------------------------------
 BYTE   EOT
 BYTE   Gn1  v055
 BYTE   Dn3  v067
 BYTE   Bn3
 BYTE   N36  Gn1  v088
 BYTE   N36  Gn2
 BYTE   N36  En3
 BYTE   N36  An3
 BYTE   N36  Cn4
 BYTE   W36
// 043   ----------------------------------------
 BYTE   PATT
  POIN2 Label_13_01182744
// 044   ----------------------------------------
 BYTE   W72
 BYTE   EOT
 BYTE   Dn1  v050
 BYTE   Dn3  v066
 BYTE   An3
 BYTE   N72  En1  v088
 BYTE   N72  En2
 BYTE   N72  Dn3
 BYTE   N72  Gn3
 BYTE   N72  Bn3
 BYTE   W72
// 045   ----------------------------------------
 BYTE   PATT
  POIN2 Label_13_0118277B
// 046   ----------------------------------------
 BYTE   EOT
 BYTE   An0  v045
 BYTE   En3  v069
 BYTE   Cn4
 BYTE   N36  Bn0  v088
 BYTE   N36  Bn1
 BYTE   N36  Fs3
 BYTE   N36  Bn3
 BYTE   N36  Dn4
 BYTE   W36
// 047   ----------------------------------------
 BYTE   PATT
  POIN2 Label_13_0118279A
// 048   ----------------------------------------
 BYTE   PATT
  POIN2 Label_13_011827D3
// 049   ----------------------------------------
 BYTE   W96
// 050   ----------------------------------------
 BYTE   W48
 BYTE   EOT
 BYTE   Dn1  v050
 BYTE   Dn3  v066
 BYTE   An3
 BYTE   W96
// 051   ----------------------------------------
 BYTE   W48
 BYTE   W96
// 052   ----------------------------------------
 BYTE   W48
 BYTE   W96
// 053   ----------------------------------------
 BYTE   W48
 BYTE   W96
// 054   ----------------------------------------
 BYTE   W48
 BYTE   W96
// 055   ----------------------------------------
 BYTE   W48
 BYTE   W96
// 056   ----------------------------------------
 BYTE   W48
 BYTE   W96
// 057   ----------------------------------------
 BYTE   W48
 BYTE   W96
// 058   ----------------------------------------
 BYTE   W48
 BYTE   W96
// 059   ----------------------------------------
 BYTE   W48
 BYTE   W96
// 060   ----------------------------------------
 BYTE   W48
 BYTE   W96
// 061   ----------------------------------------
 BYTE   W48
 BYTE   W96
// 062   ----------------------------------------
 BYTE   W48
 BYTE   W96
// 063   ----------------------------------------
 BYTE   W48
 BYTE   W96
// 064   ----------------------------------------
 BYTE   W48
 BYTE   W96
// 065   ----------------------------------------
 BYTE   W48
 BYTE   W96
// 066   ----------------------------------------
 BYTE   W48
 BYTE   W96
// 067   ----------------------------------------
 BYTE   W48
 BYTE   W96
// 068   ----------------------------------------
 BYTE   W48
 BYTE   W96
// 069   ----------------------------------------
 BYTE   W48
 BYTE   W96
// 070   ----------------------------------------
 BYTE   W48
 BYTE   W96
// 071   ----------------------------------------
 BYTE   W48
 BYTE   W96
// 072   ----------------------------------------
 BYTE   W48
 BYTE   W96
// 073   ----------------------------------------
 BYTE   W48
 BYTE   W96
// 074   ----------------------------------------
 BYTE   W48
 BYTE   W96
// 075   ----------------------------------------
 BYTE   W48
 BYTE   W96
// 076   ----------------------------------------
 BYTE   W48
 BYTE   W96
// 077   ----------------------------------------
 BYTE   W48
 BYTE   W96
// 078   ----------------------------------------
 BYTE   W48
 BYTE   W96
// 079   ----------------------------------------
 BYTE   W48
 BYTE   W96
// 080   ----------------------------------------
 BYTE   W48
 BYTE   W96
// 081   ----------------------------------------
 BYTE   W48
 BYTE   W96
// 082   ----------------------------------------
 BYTE   W48
// 083   ----------------------------------------
 BYTE   PATT
  POIN2 Label_13_01182706
// 084   ----------------------------------------
 BYTE   EOT
 BYTE   En1  v052
 BYTE   Bn2  v064
 BYTE   Gn3
 BYTE   N36  Dn1  v088
 BYTE   N36  Dn2
 BYTE   N36  Dn3
 BYTE   N36  Fs3
 BYTE   N36  An3
 BYTE   W36
// 085   ----------------------------------------
 BYTE   PATT
  POIN2 Label_13_01182725
// 086   ----------------------------------------
 BYTE   EOT
 BYTE   Gn1  v055
 BYTE   Dn3  v067
 BYTE   Bn3
 BYTE   N36  Gn1  v088
 BYTE   N36  Gn2
 BYTE   N36  En3
 BYTE   N36  An3
 BYTE   N36  Cn4
 BYTE   W36
// 087   ----------------------------------------
 BYTE   PATT
  POIN2 Label_13_01182744
// 088   ----------------------------------------
 BYTE   W72
 BYTE   EOT
 BYTE   Dn1  v050
 BYTE   Dn3  v066
 BYTE   An3
 BYTE   N72  En1  v088
 BYTE   N72  En2
 BYTE   N72  Dn3
 BYTE   N72  Gn3
 BYTE   N72  Bn3
 BYTE   W72
// 089   ----------------------------------------
 BYTE   PATT
  POIN2 Label_13_0118277B
// 090   ----------------------------------------
 BYTE   EOT
 BYTE   An0  v045
 BYTE   En3  v069
 BYTE   Cn4
 BYTE   N36  Bn0  v088
 BYTE   N36  Bn1
 BYTE   N36  Fs3
 BYTE   N36  Bn3
 BYTE   N36  Dn4
 BYTE   W36
// 091   ----------------------------------------
 BYTE   PATT
  POIN2 Label_13_0118279A
// 092   ----------------------------------------
 BYTE   PATT
  POIN2 Label_13_011827D3
// 093   ----------------------------------------
 BYTE   W96
// 094   ----------------------------------------
 BYTE   W48
 BYTE   EOT
 BYTE   Dn1  v050
 BYTE   Dn3  v066
 BYTE   An3
// 095   ----------------------------------------
 BYTE   PATT
  POIN2 Label_13_01182706
// 096   ----------------------------------------
 BYTE   EOT
 BYTE   En1  v052
 BYTE   Bn2  v064
 BYTE   Gn3
 BYTE   N36  Dn1  v088
 BYTE   N36  Dn2
 BYTE   N36  Dn3
 BYTE   N36  Fs3
 BYTE   N36  An3
 BYTE   W36
// 097   ----------------------------------------
 BYTE   PATT
  POIN2 Label_13_01182725
// 098   ----------------------------------------
 BYTE   EOT
 BYTE   Gn1  v055
 BYTE   Dn3  v067
 BYTE   Bn3
 BYTE   N36  Gn1  v088
 BYTE   N36  Gn2
 BYTE   N36  En3
 BYTE   N36  An3
 BYTE   N36  Cn4
 BYTE   W36
// 099   ----------------------------------------
 BYTE   PATT
  POIN2 Label_13_01182744
// 100   ----------------------------------------
 BYTE   W72
 BYTE   EOT
 BYTE   Dn1  v050
 BYTE   Dn3  v066
 BYTE   An3
 BYTE   N72  En1  v088
 BYTE   N72  En2
 BYTE   N72  Dn3
 BYTE   N72  Gn3
 BYTE   N72  Bn3
 BYTE   W72
// 101   ----------------------------------------
 BYTE   PATT
  POIN2 Label_13_0118277B
// 102   ----------------------------------------
 BYTE   EOT
 BYTE   An0  v045
 BYTE   En3  v069
 BYTE   Cn4
 BYTE   N36  Bn0  v088
 BYTE   N36  Bn1
 BYTE   N36  Fs3
 BYTE   N36  Bn3
 BYTE   N36  Dn4
 BYTE   W36
// 103   ----------------------------------------
 BYTE   PATT
  POIN2 Label_13_0118279A
// 104   ----------------------------------------
 BYTE   PATT
  POIN2 Label_13_011827D3
// 105   ----------------------------------------
 BYTE   W96
// 106   ----------------------------------------
 BYTE   W48
 BYTE   EOT
 BYTE   Dn1  v050
 BYTE   Dn3  v066
 BYTE   An3
 BYTE   W96
// 107   ----------------------------------------
 BYTE   W48
 BYTE   W96
// 108   ----------------------------------------
 BYTE   W48
 BYTE   W96
// 109   ----------------------------------------
 BYTE   W48
 BYTE   W96
// 110   ----------------------------------------
 BYTE   W48
 BYTE   GoTo
  POIN2 Label_13_011826CC
// 111   ----------------------------------------
 BYTE   W96
// 112   ----------------------------------------
 BYTE   W48
 BYTE   W96
// 113   ----------------------------------------
 BYTE   W48
 BYTE   W96
// 114   ----------------------------------------
 BYTE   W48
 BYTE   W96
// 115   ----------------------------------------
 BYTE   W48
 BYTE   W96
// 116   ----------------------------------------
 BYTE   W48
 BYTE   W96
// 117   ----------------------------------------
 BYTE   W48
 BYTE   W96
// 118   ----------------------------------------
 BYTE   W48
 BYTE   W96
// 119   ----------------------------------------
 BYTE   W48
 BYTE   W84
 BYTE   FINE

//**************** Track 15 (Midi-Chn.14) ****************//

songB2_015:
// 000   ----------------------------------------
 BYTE   VOL   40*songB2_mvl/mxv
 BYTE   KEYSH   songB2_key+0
Label_14_011829B8:
 BYTE   VOICE   48
 BYTE   N12  En1  v104
 BYTE   N12  En2
 BYTE   W12
 BYTE   Fs1
 BYTE   N12  Fs2
 BYTE   W12
 BYTE   Gn1
 BYTE   N12  Gn2
 BYTE   W12
 BYTE   Fs1
 BYTE   N12  Fs2
 BYTE   W12
 BYTE   En1
 BYTE   N12  En2
 BYTE   W12
 BYTE   Dn1
 BYTE   N12  Dn2
 BYTE   W12
 BYTE   En1
 BYTE   N12  En2
 BYTE   W12
 BYTE   Fs1
 BYTE   N12  Fs2
 BYTE   W12
// 001   ----------------------------------------
 BYTE   Gn1
 BYTE   N12  Gn2
 BYTE   W12
 BYTE   Fs1
 BYTE   N12  Fs2
 BYTE   W12
 BYTE   En1
 BYTE   N12  En2
 BYTE   W12
 BYTE   Dn1
 BYTE   N12  Dn2
 BYTE   W12
Label_14_011829EC:
 BYTE   N12  En1  v104
 BYTE   N12  En2
 BYTE   W12
 BYTE   Fs1
 BYTE   N12  Fs2
 BYTE   W12
 BYTE   Gn1
 BYTE   N12  Gn2
 BYTE   W12
 BYTE   An1
 BYTE   N12  An2
 BYTE   W12
// 002   ----------------------------------------
 BYTE   Bn1
 BYTE   N12  Bn2
 BYTE   W12
 BYTE   An1
 BYTE   N12  An2
 BYTE   W12
 BYTE   Gn1
 BYTE   N12  Gn2
 BYTE   W12
 BYTE   An1
 BYTE   N12  An2
 BYTE   W12
 BYTE   Gn1
 BYTE   N12  Gn2
 BYTE   W12
 BYTE   Fs1
 BYTE   N12  Fs2
 BYTE   W12
 BYTE   Gn1
 BYTE   N12  Gn2
 BYTE   W12
 BYTE   Fs1
 BYTE   N12  Fs2
 BYTE   W12
 BYTE   PEND 
// 003   ----------------------------------------
Label_14_01182A1F:
 BYTE   N12  En1  v104
 BYTE   N12  En2
 BYTE   W12
 BYTE   Fs1
 BYTE   N12  Fs2
 BYTE   W12
 BYTE   Gn1
 BYTE   N12  Gn2
 BYTE   W12
 BYTE   Fs1
 BYTE   N12  Fs2
 BYTE   W12
 BYTE   En1
 BYTE   N12  En2
 BYTE   W12
 BYTE   Dn1
 BYTE   N12  Dn2
 BYTE   W12
 BYTE   En1
 BYTE   N12  En2
 BYTE   W12
 BYTE   Fs1
 BYTE   N12  Fs2
 BYTE   W12
// 004   ----------------------------------------
 BYTE   Gn1
 BYTE   N12  Gn2
 BYTE   W12
 BYTE   Fs1
 BYTE   N12  Fs2
 BYTE   W12
 BYTE   En1
 BYTE   N12  En2
 BYTE   W12
 BYTE   Dn1
 BYTE   N12  Dn2
 BYTE   W12
 BYTE   PEND 
// 005   ----------------------------------------
 BYTE   PATT
  POIN2 Label_14_011829EC
// 006   ----------------------------------------
 BYTE   PATT
  POIN2 Label_14_01182A1F
// 007   ----------------------------------------
 BYTE   PATT
  POIN2 Label_14_011829EC
// 008   ----------------------------------------
 BYTE   PATT
  POIN2 Label_14_01182A1F
// 009   ----------------------------------------
 BYTE   PATT
  POIN2 Label_14_011829EC
// 010   ----------------------------------------
 BYTE   PATT
  POIN2 Label_14_01182A1F
// 011   ----------------------------------------
 BYTE   PATT
  POIN2 Label_14_011829EC
// 012   ----------------------------------------
 BYTE   PATT
  POIN2 Label_14_01182A1F
// 013   ----------------------------------------
 BYTE   PATT
  POIN2 Label_14_011829EC
// 014   ----------------------------------------
Label_14_01182A7F:
 BYTE   N12  Gn1  v104
 BYTE   N12  Gn2
 BYTE   W12
 BYTE   An1
 BYTE   N12  An2
 BYTE   W12
 BYTE   As1
 BYTE   N12  As2
 BYTE   W12
 BYTE   An1
 BYTE   N12  An2
 BYTE   W12
 BYTE   Gn1
 BYTE   N12  Gn2
 BYTE   W12
 BYTE   Fn1
 BYTE   N12  Fn2
 BYTE   W12
 BYTE   Gn1
 BYTE   N12  Gn2
 BYTE   W12
 BYTE   An1
 BYTE   N12  An2
 BYTE   W12
// 015   ----------------------------------------
 BYTE   As1
 BYTE   N12  As2
 BYTE   W12
 BYTE   An1
 BYTE   N12  An2
 BYTE   W12
 BYTE   Gn1
 BYTE   N12  Gn2
 BYTE   W12
 BYTE   Fn1
 BYTE   N12  Fn2
 BYTE   W12
 BYTE   PEND 
Label_14_01182AB2:
 BYTE   N12  Gn1  v104
 BYTE   N12  Gn2
 BYTE   W12
 BYTE   An1
 BYTE   N12  An2
 BYTE   W12
 BYTE   As1
 BYTE   N12  As2
 BYTE   W12
 BYTE   Cn2
 BYTE   N12  Cn3
 BYTE   W12
// 016   ----------------------------------------
 BYTE   Dn2
 BYTE   N12  Dn3
 BYTE   W12
 BYTE   Cn2
 BYTE   N12  Cn3
 BYTE   W12
 BYTE   As1
 BYTE   N12  As2
 BYTE   W12
 BYTE   Cn2
 BYTE   N12  Cn3
 BYTE   W12
 BYTE   As1
 BYTE   N12  As2
 BYTE   W12
 BYTE   An1
 BYTE   N12  An2
 BYTE   W12
 BYTE   As1
 BYTE   N12  As2
 BYTE   W12
 BYTE   An1
 BYTE   N12  An2
 BYTE   W12
 BYTE   PEND 
// 017   ----------------------------------------
 BYTE   PATT
  POIN2 Label_14_01182A7F
// 018   ----------------------------------------
 BYTE   PATT
  POIN2 Label_14_01182AB2
// 019   ----------------------------------------
 BYTE   PATT
  POIN2 Label_14_01182A7F
// 020   ----------------------------------------
 BYTE   PATT
  POIN2 Label_14_01182AB2
// 021   ----------------------------------------
 BYTE   PATT
  POIN2 Label_14_01182A7F
// 022   ----------------------------------------
 BYTE   PATT
  POIN2 Label_14_01182AB2
// 023   ----------------------------------------
 BYTE   PATT
  POIN2 Label_14_01182A7F
// 024   ----------------------------------------
 BYTE   PATT
  POIN2 Label_14_01182AB2
// 025   ----------------------------------------
 BYTE   PATT
  POIN2 Label_14_01182A7F
// 026   ----------------------------------------
 BYTE   PATT
  POIN2 Label_14_01182AB2
// 027   ----------------------------------------
Label_14_01182B17:
 BYTE   N12  En1  v104
 BYTE   N12  Bn1
 BYTE   N12  En2
 BYTE   N12  Bn2
 BYTE   N12  En3
 BYTE   N12  Bn3
 BYTE   N12  En4
 BYTE   W96
// 028   ----------------------------------------
 BYTE   W48
 BYTE   PEND 
// 029   ----------------------------------------
 BYTE   PATT
  POIN2 Label_14_01182B17
// 030   ----------------------------------------
 BYTE   PATT
  POIN2 Label_14_01182B17
// 031   ----------------------------------------
 BYTE   PATT
  POIN2 Label_14_01182B17
// 032   ----------------------------------------
Label_14_01182B38:
 BYTE   TIE  En1  v127
 BYTE   TIE  En2
 BYTE   TIE  Bn2
 BYTE   TIE  En3
 BYTE   TIE  Gn3
 BYTE   W96
// 033   ----------------------------------------
 BYTE   W12
 BYTE   PEND 
 BYTE   EOT
 BYTE   En1  v052
 BYTE   Bn2  v064
 BYTE   Gn3
 BYTE   N36  Dn1
 BYTE   N36  Dn2
 BYTE   N36  Dn3
 BYTE   N36  Fs3
 BYTE   N36  An3
 BYTE   W36
Label_14_01182B57:
 BYTE   TIE  Gn1  v127
 BYTE   TIE  Gn2
 BYTE   TIE  Dn3
 BYTE   TIE  Gn3
 BYTE   TIE  Bn3
 BYTE   W96
// 034   ----------------------------------------
 BYTE   W12
 BYTE   PEND 
 BYTE   EOT
 BYTE   Gn1  v055
 BYTE   Dn3  v067
 BYTE   Bn3
 BYTE   N36  Gn1
 BYTE   N36  Gn2
 BYTE   N36  En3
 BYTE   N36  An3
 BYTE   N36  Cn4
 BYTE   W36
Label_14_01182B76:
 BYTE   N72  Gn1  v127
 BYTE   N72  Gn2
 BYTE   N48  Gn3
 BYTE   N48  Bn3
 BYTE   N48  Dn4
 BYTE   W48
// 035   ----------------------------------------
 BYTE   N12  Fs3
 BYTE   N12  An3
 BYTE   N12  Cn4
 BYTE   W12
 BYTE   En3
 BYTE   N12  Gn3
 BYTE   N12  Bn3
 BYTE   W12
 BYTE   TIE  Dn1
 BYTE   TIE  Dn2
 BYTE   TIE  Dn3
 BYTE   TIE  Fs3
 BYTE   TIE  An3
 BYTE   W72
 BYTE   PEND 
// 036   ----------------------------------------
 BYTE   W72
 BYTE   EOT
 BYTE   Dn1  v050
 BYTE   Dn3  v066
 BYTE   An3
 BYTE   N72  En1
 BYTE   N72  En2
 BYTE   N72  Dn3
 BYTE   N72  Gn3
 BYTE   N72  Bn3
 BYTE   W72
// 037   ----------------------------------------
Label_14_01182BAD:
 BYTE   TIE  An0  v127
 BYTE   TIE  An1
 BYTE   TIE  En3
 BYTE   TIE  An3
 BYTE   TIE  Cn4
 BYTE   W96
// 038   ----------------------------------------
 BYTE   W12
 BYTE   PEND 
 BYTE   EOT
 BYTE   An0  v045
 BYTE   En3  v069
 BYTE   Cn4
 BYTE   N36  Bn0
 BYTE   N36  Bn1
 BYTE   N36  Fs3
 BYTE   N36  Bn3
 BYTE   N36  Dn4
 BYTE   W36
Label_14_01182BCC:
 BYTE   N72  Cn1  v127
 BYTE   N72  Cn2
 BYTE   N48  Gn3
 BYTE   N48  Cn4
 BYTE   N48  En4
 BYTE   W48
// 039   ----------------------------------------
 BYTE   N12  Gn3
 BYTE   N12  Cn4
 BYTE   N12  En4
 BYTE   W12
 BYTE   An3
 BYTE   N12  Dn4
 BYTE   N12  Fs4
 BYTE   W12
 BYTE   N24  Cn1
 BYTE   N24  Cn2
 BYTE   N24  Cn4
 BYTE   N24  En4
 BYTE   N24  Gn4
 BYTE   W24
 BYTE   Cn1
 BYTE   N24  Cn2
 BYTE   N24  An3
 BYTE   N24  Dn4
 BYTE   N24  Fs4
 BYTE   W24
 BYTE   Cn1
 BYTE   N24  Cn2
 BYTE   N24  Gn3
 BYTE   N24  Cn4
 BYTE   N24  En4
 BYTE   W24
 BYTE   PEND 
// 040   ----------------------------------------
Label_14_01182C05:
 BYTE   N24  Gn0  v127
 BYTE   N24  Gn1
 BYTE   N24  Gn3
 BYTE   N24  Bn3
 BYTE   N24  Dn4
 BYTE   W24
 BYTE   Gn0
 BYTE   N24  Gn1
 BYTE   N24  En3
 BYTE   N24  An3
 BYTE   N24  Cn4
 BYTE   W24
 BYTE   Gn0
 BYTE   N24  Gn1
 BYTE   N24  Dn3
 BYTE   N24  Gn3
 BYTE   N24  Bn3
 BYTE   W24
 BYTE   TIE  Dn1
 BYTE   TIE  Dn2
 BYTE   TIE  Dn3
 BYTE   TIE  Fs3
 BYTE   TIE  An3
 BYTE   W72
 BYTE   PEND 
// 041   ----------------------------------------
 BYTE   W96
// 042   ----------------------------------------
 BYTE   W48
 BYTE   EOT
 BYTE   Dn1  v050
 BYTE   Dn3  v066
 BYTE   An3
// 043   ----------------------------------------
 BYTE   PATT
  POIN2 Label_14_01182B38
// 044   ----------------------------------------
 BYTE   EOT
 BYTE   En1  v052
 BYTE   Bn2  v064
 BYTE   Gn3
 BYTE   N36  Dn1  v127
 BYTE   N36  Dn2
 BYTE   N36  Dn3
 BYTE   N36  Fs3
 BYTE   N36  An3
 BYTE   W36
// 045   ----------------------------------------
 BYTE   PATT
  POIN2 Label_14_01182B57
// 046   ----------------------------------------
 BYTE   EOT
 BYTE   Gn1  v055
 BYTE   Dn3  v067
 BYTE   Bn3
 BYTE   N36  Gn1  v127
 BYTE   N36  Gn2
 BYTE   N36  En3
 BYTE   N36  An3
 BYTE   N36  Cn4
 BYTE   W36
// 047   ----------------------------------------
 BYTE   PATT
  POIN2 Label_14_01182B76
// 048   ----------------------------------------
 BYTE   W72
 BYTE   EOT
 BYTE   Dn1  v050
 BYTE   Dn3  v066
 BYTE   An3
 BYTE   N72  En1  v127
 BYTE   N72  En2
 BYTE   N72  Dn3
 BYTE   N72  Gn3
 BYTE   N72  Bn3
 BYTE   W72
// 049   ----------------------------------------
 BYTE   PATT
  POIN2 Label_14_01182BAD
// 050   ----------------------------------------
 BYTE   EOT
 BYTE   An0  v045
 BYTE   En3  v069
 BYTE   Cn4
 BYTE   N36  Bn0  v127
 BYTE   N36  Bn1
 BYTE   N36  Fs3
 BYTE   N36  Bn3
 BYTE   N36  Dn4
 BYTE   W36
// 051   ----------------------------------------
 BYTE   PATT
  POIN2 Label_14_01182BCC
// 052   ----------------------------------------
 BYTE   PATT
  POIN2 Label_14_01182C05
// 053   ----------------------------------------
 BYTE   W96
// 054   ----------------------------------------
 BYTE   W24
 BYTE   EOT
 BYTE   An3
 BYTE   N12  Gn3  v088
 BYTE   W12
 BYTE   EOT
 BYTE   Fs3
 BYTE   N12
 BYTE   W12
 BYTE   EOT
 BYTE   Dn1  v050
 BYTE   Dn3
Label_14_01182CB0:
 BYTE   TIE  En1  v076
 BYTE   TIE  En2
 BYTE   TIE  Bn2
 BYTE   TIE  En3  v088
 BYTE   W96
// 055   ----------------------------------------
 BYTE   W48
 BYTE   PEND 
 BYTE   EOT
 BYTE   En1  v052
Label_14_01182CC0:
 BYTE   TIE  Fs1  v076
 BYTE   TIE  Fs2
 BYTE   W96
// 056   ----------------------------------------
 BYTE   W24
 BYTE   PEND 
 BYTE   EOT
 BYTE   En3
 BYTE   N12  Gn3  v088
 BYTE   W12
 BYTE   Fs3
 BYTE   W12
 BYTE   EOT
 BYTE   Fs1  v054
 BYTE   Bn2
// 057   ----------------------------------------
 BYTE   PATT
  POIN2 Label_14_01182CB0
// 058   ----------------------------------------
 BYTE   EOT
 BYTE   En1  v052
 BYTE   N72  Fs1  v076
 BYTE   N72  Fs2
 BYTE   W72
 BYTE   EOT
 BYTE   En3
 BYTE   N72  Dn1
 BYTE   N72  Dn2
 BYTE   N72  Dn3  v088
 BYTE   W72
// 059   ----------------------------------------
 BYTE   EOT
 BYTE   Bn2
// 060   ----------------------------------------
 BYTE   PATT
  POIN2 Label_14_01182A1F
// 061   ----------------------------------------
 BYTE   PATT
  POIN2 Label_14_011829EC
// 062   ----------------------------------------
 BYTE   PATT
  POIN2 Label_14_01182A1F
// 063   ----------------------------------------
 BYTE   PATT
  POIN2 Label_14_011829EC
// 064   ----------------------------------------
 BYTE   PATT
  POIN2 Label_14_01182A1F
// 065   ----------------------------------------
 BYTE   PATT
  POIN2 Label_14_011829EC
// 066   ----------------------------------------
 BYTE   PATT
  POIN2 Label_14_01182A1F
// 067   ----------------------------------------
 BYTE   PATT
  POIN2 Label_14_011829EC
// 068   ----------------------------------------
 BYTE   PATT
  POIN2 Label_14_01182A1F
// 069   ----------------------------------------
 BYTE   PATT
  POIN2 Label_14_011829EC
// 070   ----------------------------------------
 BYTE   PATT
  POIN2 Label_14_01182A1F
// 071   ----------------------------------------
 BYTE   PATT
  POIN2 Label_14_011829EC
// 072   ----------------------------------------
 BYTE   PATT
  POIN2 Label_14_01182A7F
// 073   ----------------------------------------
 BYTE   PATT
  POIN2 Label_14_01182AB2
// 074   ----------------------------------------
 BYTE   PATT
  POIN2 Label_14_01182A7F
// 075   ----------------------------------------
 BYTE   PATT
  POIN2 Label_14_01182AB2
// 076   ----------------------------------------
 BYTE   PATT
  POIN2 Label_14_01182A7F
// 077   ----------------------------------------
 BYTE   PATT
  POIN2 Label_14_01182AB2
// 078   ----------------------------------------
 BYTE   PATT
  POIN2 Label_14_01182A7F
// 079   ----------------------------------------
 BYTE   PATT
  POIN2 Label_14_01182AB2
// 080   ----------------------------------------
 BYTE   PATT
  POIN2 Label_14_01182A7F
// 081   ----------------------------------------
 BYTE   PATT
  POIN2 Label_14_01182AB2
// 082   ----------------------------------------
 BYTE   PATT
  POIN2 Label_14_01182A7F
// 083   ----------------------------------------
 BYTE   PATT
  POIN2 Label_14_01182AB2
// 084   ----------------------------------------
 BYTE   PATT
  POIN2 Label_14_01182B17
// 085   ----------------------------------------
 BYTE   PATT
  POIN2 Label_14_01182B17
// 086   ----------------------------------------
 BYTE   PATT
  POIN2 Label_14_01182B17
// 087   ----------------------------------------
 BYTE   PATT
  POIN2 Label_14_01182B17
// 088   ----------------------------------------
 BYTE   PATT
  POIN2 Label_14_01182B38
// 089   ----------------------------------------
 BYTE   EOT
 BYTE   En1  v052
 BYTE   Bn2  v064
 BYTE   Gn3
 BYTE   N36  Dn1  v127
 BYTE   N36  Dn2
 BYTE   N36  Dn3
 BYTE   N36  Fs3
 BYTE   N36  An3
 BYTE   W36
// 090   ----------------------------------------
 BYTE   PATT
  POIN2 Label_14_01182B57
// 091   ----------------------------------------
 BYTE   EOT
 BYTE   Gn1  v055
 BYTE   Dn3  v067
 BYTE   Bn3
 BYTE   N36  Gn1  v127
 BYTE   N36  Gn2
 BYTE   N36  En3
 BYTE   N36  An3
 BYTE   N36  Cn4
 BYTE   W36
// 092   ----------------------------------------
 BYTE   PATT
  POIN2 Label_14_01182B76
// 093   ----------------------------------------
 BYTE   W72
 BYTE   EOT
 BYTE   Dn1  v050
 BYTE   Dn3  v066
 BYTE   An3
 BYTE   N72  En1  v127
 BYTE   N72  En2
 BYTE   N72  Dn3
 BYTE   N72  Gn3
 BYTE   N72  Bn3
 BYTE   W72
// 094   ----------------------------------------
 BYTE   PATT
  POIN2 Label_14_01182BAD
// 095   ----------------------------------------
 BYTE   EOT
 BYTE   An0  v045
 BYTE   En3  v069
 BYTE   Cn4
 BYTE   N36  Bn0  v127
 BYTE   N36  Bn1
 BYTE   N36  Fs3
 BYTE   N36  Bn3
 BYTE   N36  Dn4
 BYTE   W36
// 096   ----------------------------------------
 BYTE   PATT
  POIN2 Label_14_01182BCC
// 097   ----------------------------------------
 BYTE   PATT
  POIN2 Label_14_01182C05
// 098   ----------------------------------------
 BYTE   W96
// 099   ----------------------------------------
 BYTE   W48
 BYTE   EOT
 BYTE   Dn1  v050
 BYTE   Dn3  v066
 BYTE   An3
// 100   ----------------------------------------
 BYTE   PATT
  POIN2 Label_14_01182B38
// 101   ----------------------------------------
 BYTE   EOT
 BYTE   En1  v052
 BYTE   Bn2  v064
 BYTE   Gn3
 BYTE   N36  Dn1  v127
 BYTE   N36  Dn2
 BYTE   N36  Dn3
 BYTE   N36  Fs3
 BYTE   N36  An3
 BYTE   W36
// 102   ----------------------------------------
 BYTE   PATT
  POIN2 Label_14_01182B57
// 103   ----------------------------------------
 BYTE   EOT
 BYTE   Gn1  v055
 BYTE   Dn3  v067
 BYTE   Bn3
 BYTE   N36  Gn1  v127
 BYTE   N36  Gn2
 BYTE   N36  En3
 BYTE   N36  An3
 BYTE   N36  Cn4
 BYTE   W36
// 104   ----------------------------------------
 BYTE   PATT
  POIN2 Label_14_01182B76
// 105   ----------------------------------------
 BYTE   W72
 BYTE   EOT
 BYTE   Dn1  v050
 BYTE   Dn3  v066
 BYTE   An3
 BYTE   N72  En1  v127
 BYTE   N72  En2
 BYTE   N72  Dn3
 BYTE   N72  Gn3
 BYTE   N72  Bn3
 BYTE   W72
// 106   ----------------------------------------
 BYTE   PATT
  POIN2 Label_14_01182BAD
// 107   ----------------------------------------
 BYTE   EOT
 BYTE   An0  v045
 BYTE   En3  v069
 BYTE   Cn4
 BYTE   N36  Bn0  v127
 BYTE   N36  Bn1
 BYTE   N36  Fs3
 BYTE   N36  Bn3
 BYTE   N36  Dn4
 BYTE   W36
// 108   ----------------------------------------
 BYTE   PATT
  POIN2 Label_14_01182BCC
// 109   ----------------------------------------
 BYTE   PATT
  POIN2 Label_14_01182C05
// 110   ----------------------------------------
 BYTE   W96
// 111   ----------------------------------------
 BYTE   W24
 BYTE   EOT
 BYTE   An3
 BYTE   N12  Gn3  v088
 BYTE   W12
 BYTE   EOT
 BYTE   Fs3
 BYTE   N12
 BYTE   W12
 BYTE   EOT
 BYTE   Dn1  v050
 BYTE   Dn3
// 112   ----------------------------------------
 BYTE   PATT
  POIN2 Label_14_01182CB0
// 113   ----------------------------------------
 BYTE   EOT
 BYTE   En1  v052
// 114   ----------------------------------------
 BYTE   PATT
  POIN2 Label_14_01182CC0
// 115   ----------------------------------------
 BYTE   EOT
 BYTE   En3
 BYTE   N12  Gn3  v088
 BYTE   W12
 BYTE   Fs3
 BYTE   W12
 BYTE   EOT
 BYTE   Fs1  v054
 BYTE   Bn2
// 116   ----------------------------------------
 BYTE   PATT
  POIN2 Label_14_01182CB0
// 117   ----------------------------------------
 BYTE   EOT
 BYTE   En1  v052
 BYTE   N72  Fs1  v076
 BYTE   N72  Fs2
 BYTE   W72
 BYTE   EOT
 BYTE   En3
 BYTE   N72  Dn1
 BYTE   N72  Dn2
 BYTE   N72  Dn3  v088
 BYTE   W72
// 118   ----------------------------------------
 BYTE   EOT
 BYTE   Bn2
 BYTE   GoTo
  POIN2 Label_14_011829B8
// 119   ----------------------------------------
 BYTE   N12  En1  v104
 BYTE   N12  En2
 BYTE   W12
 BYTE   Fs1
 BYTE   N12  Fs2
 BYTE   W12
 BYTE   Gn1  v100
 BYTE   N12  Gn2
 BYTE   W12
 BYTE   Fs1
 BYTE   N12  Fs2
 BYTE   W12
 BYTE   En1
 BYTE   N12  En2
 BYTE   W12
 BYTE   Dn1  v096
 BYTE   N12  Dn2
 BYTE   W12
 BYTE   En1
 BYTE   N12  En2
 BYTE   W12
 BYTE   Fs1
 BYTE   N12  Fs2
 BYTE   W12
// 120   ----------------------------------------
 BYTE   Gn1
 BYTE   N12  Gn2
 BYTE   W12
 BYTE   Fs1  v092
 BYTE   N12  Fs2
 BYTE   W12
 BYTE   En1
 BYTE   N12  En2
 BYTE   W12
 BYTE   Dn1
 BYTE   N12  Dn2
 BYTE   W12
 BYTE   En1
 BYTE   N12  En2
 BYTE   W12
 BYTE   Fs1  v088
 BYTE   N12  Fs2
 BYTE   W12
 BYTE   Gn1
 BYTE   N12  Gn2
 BYTE   W12
 BYTE   An1
 BYTE   N12  An2
 BYTE   W12
// 121   ----------------------------------------
 BYTE   Bn1
 BYTE   N12  Bn2
 BYTE   W12
 BYTE   An1  v084
 BYTE   N12  An2
 BYTE   W12
 BYTE   Gn1
 BYTE   N12  Gn2
 BYTE   W12
 BYTE   An1
 BYTE   N12  An2
 BYTE   W12
 BYTE   Gn1
 BYTE   N12  Gn2
 BYTE   W12
 BYTE   Fs1  v080
 BYTE   N12  Fs2
 BYTE   W12
 BYTE   Gn1
 BYTE   N12  Gn2
 BYTE   W12
 BYTE   Fs1
 BYTE   N12  Fs2
 BYTE   W12
// 122   ----------------------------------------
 BYTE   En1
 BYTE   N12  En2
 BYTE   W12
 BYTE   Fs1  v076
 BYTE   N12  Fs2
 BYTE   W12
 BYTE   Gn1
 BYTE   N12  Gn2
 BYTE   W12
 BYTE   Fs1
 BYTE   N12  Fs2
 BYTE   W12
 BYTE   En1
 BYTE   N12  En2
 BYTE   W12
 BYTE   Dn1  v072
 BYTE   N12  Dn2
 BYTE   W12
 BYTE   En1
 BYTE   N12  En2
 BYTE   W12
 BYTE   Fs1
 BYTE   N12  Fs2
 BYTE   W12
// 123   ----------------------------------------
 BYTE   Gn1
 BYTE   N12  Gn2
 BYTE   W12
 BYTE   Fs1  v068
 BYTE   N12  Fs2
 BYTE   W12
 BYTE   En1
 BYTE   N12  En2
 BYTE   W12
 BYTE   Dn1
 BYTE   N12  Dn2
 BYTE   W12
 BYTE   En1
 BYTE   N12  En2
 BYTE   W12
 BYTE   Fs1  v064
 BYTE   N12  Fs2
 BYTE   W12
 BYTE   Gn1
 BYTE   N12  Gn2
 BYTE   W12
 BYTE   An1
 BYTE   N12  An2
 BYTE   W12
// 124   ----------------------------------------
 BYTE   Bn1
 BYTE   N12  Bn2
 BYTE   W12
 BYTE   An1  v060
 BYTE   N12  An2
 BYTE   W12
 BYTE   Gn1
 BYTE   N12  Gn2
 BYTE   W12
 BYTE   An1
 BYTE   N12  An2
 BYTE   W12
 BYTE   Gn1
 BYTE   N12  Gn2
 BYTE   W12
 BYTE   Fs1  v056
 BYTE   N12  Fs2
 BYTE   W12
 BYTE   Gn1
 BYTE   N12  Gn2
 BYTE   W12
 BYTE   Fs1
 BYTE   N12  Fs2
 BYTE   W12
// 125   ----------------------------------------
 BYTE   En1
 BYTE   N12  En2
 BYTE   W12
 BYTE   Fs1  v052
 BYTE   N12  Fs2
 BYTE   W12
 BYTE   Gn1
 BYTE   N12  Gn2
 BYTE   W12
 BYTE   Fs1
 BYTE   N12  Fs2
 BYTE   W12
 BYTE   En1
 BYTE   N12  En2
 BYTE   W12
 BYTE   Dn1
 BYTE   N12  Dn2
 BYTE   W12
 BYTE   En1  v048
 BYTE   N12  En2
 BYTE   W12
 BYTE   Fs1
 BYTE   N12  Fs2
 BYTE   W12
// 126   ----------------------------------------
 BYTE   Gn1
 BYTE   N12  Gn2
 BYTE   W12
 BYTE   Fs1
 BYTE   N12  Fs2
 BYTE   W12
 BYTE   En1  v044
 BYTE   N12  En2
 BYTE   W12
 BYTE   Dn1
 BYTE   N12  Dn2
 BYTE   W12
 BYTE   En1
 BYTE   N12  En2
 BYTE   W12
 BYTE   Fs1
 BYTE   N12  Fs2
 BYTE   W12
 BYTE   Gn1  v040
 BYTE   N12  Gn2
 BYTE   W12
 BYTE   An1
 BYTE   N12  An2
 BYTE   W12
// 127   ----------------------------------------
 BYTE   Bn1
 BYTE   N12  Bn2
 BYTE   W12
 BYTE   An1
 BYTE   N12  An2
 BYTE   W12
 BYTE   Gn1  v036
 BYTE   N12  Gn2
 BYTE   W12
 BYTE   An1
 BYTE   N12  An2
 BYTE   W12
 BYTE   Gn1
 BYTE   N12  Gn2
 BYTE   W12
 BYTE   Fs1
 BYTE   N12  Fs2
 BYTE   W12
 BYTE   Gn1  v032
 BYTE   N12  Gn2
 BYTE   W12
 BYTE   Fs1
 BYTE   N12  Fs2
 BYTE   W12
// 128   ----------------------------------------
 BYTE   En1
 BYTE   N12  En2
 BYTE   W12
 BYTE   Fs1
 BYTE   N12  Fs2
 BYTE   W12
 BYTE   Gn1  v028
 BYTE   N12  Gn2
 BYTE   W12
 BYTE   Fs1
 BYTE   N12  Fs2
 BYTE   W12
 BYTE   En1
 BYTE   N12  En2
 BYTE   W12
 BYTE   Dn1
 BYTE   N12  Dn2
 BYTE   W12
 BYTE   En1  v024
 BYTE   N12  En2
 BYTE   W12
 BYTE   Fs1
 BYTE   N12  Fs2
 BYTE   W12
// 129   ----------------------------------------
 BYTE   Gn1
 BYTE   N12  Gn2
 BYTE   W12
 BYTE   Fs1
 BYTE   N12  Fs2
 BYTE   W12
 BYTE   En1  v020
 BYTE   N12  En2
 BYTE   W12
 BYTE   Dn1
 BYTE   N12  Dn2
 BYTE   W12
 BYTE   En1
 BYTE   N12  En2
 BYTE   W12
 BYTE   Fs1
 BYTE   N12  Fs2
 BYTE   W12
 BYTE   Gn1  v016
 BYTE   N12  Gn2
 BYTE   W12
 BYTE   An1
 BYTE   N12  An2
 BYTE   W12
// 130   ----------------------------------------
 BYTE   Bn1
 BYTE   N12  Bn2
 BYTE   W12
 BYTE   An1
 BYTE   N12  An2
 BYTE   W12
 BYTE   Gn1  v012
 BYTE   N12  Gn2
 BYTE   W12
 BYTE   An1
 BYTE   N12  An2
 BYTE   W12
 BYTE   Gn1
 BYTE   N12  Gn2
 BYTE   W12
 BYTE   Fs1
 BYTE   N12  Fs2
 BYTE   W12
 BYTE   Gn1  v008
 BYTE   N12  Gn2
 BYTE   W12
 BYTE   Fs1
 BYTE   N12  Fs2
 BYTE   W12
// 131   ----------------------------------------
 BYTE   En1
 BYTE   N12  En2
 BYTE   W12
 BYTE   Fs1
 BYTE   N12  Fs2
 BYTE   W12
 BYTE   Gn1  v004
 BYTE   N12  Gn2
 BYTE   W12
 BYTE   Fs1
 BYTE   N12  Fs2
 BYTE   W12
 BYTE   En1
 BYTE   N12  En2
 BYTE   W12
 BYTE   Dn1
 BYTE   N12  Dn2
 BYTE   W24
 BYTE   FINE

//******************************************************//
	ALIGN 4

songB2:
	BYTE	15	// NumTrks
	BYTE	0	// NumBlks
	BYTE	songB2_pri	// Priority
	BYTE	songB2_rev	// Reverb.
    
	POIN2	songB2_grp
    
	POIN2	songB2_001
	POIN2	songB2_002
	POIN2	songB2_003
	POIN2	songB2_004
	POIN2	songB2_005
	POIN2	songB2_006
	POIN2	songB2_007
	POIN2	songB2_008
	POIN2	songB2_009
	POIN2	songB2_010
	POIN2	songB2_011
	POIN2	songB2_012
	POIN2	songB2_013
	POIN2	songB2_014
	POIN2	songB2_015

	
