//Event file generated from Sappy .s format.
	#include "MPlayDef.event"

	#define	YuNo_FrustrationB_bpat_grp  voicegroup000
	#define	YuNo_FrustrationB_bpat_pri  0
	#define	YuNo_FrustrationB_bpat_rev  0
	#define	YuNo_FrustrationB_bpat_mvl  127
	#define	YuNo_FrustrationB_bpat_key  0
	#define	YuNo_FrustrationB_bpat_tbs  1
	#define	YuNo_FrustrationB_bpat_exg  0
	#define	YuNo_FrustrationB_bpat_cmp  1

	// .rodata
	//	YuNo_FrustrationB_bpat
	ALIGN 4

//**************** Track 1 (Midi-Chn.1) ****************//

YuNo_FrustrationB_bpat_1:
	BYTE	KEYSH   YuNo_FrustrationB_bpat_key+0
YuNo_FrustrationB_bpat_1_B1:
// 000   ----------------------------------------
	BYTE	TEMPO   125*YuNo_FrustrationB_bpat_tbs/2
	BYTE		VOICE   50
	BYTE		PAN     c_v+0
	BYTE		VOL     50*YuNo_FrustrationB_bpat_mvl/mxv
	BYTE		TIE     As0   v112
	BYTE	W96
// 001   ----------------------------------------
	BYTE	W96
// 002   ----------------------------------------
	BYTE	W96
	BYTE		EOT   
// 003   ----------------------------------------
	BYTE		TIE     Bn0 
	BYTE	W96
// 004   ----------------------------------------
	BYTE	W96
// 005   ----------------------------------------
	BYTE	W96
	BYTE		EOT   
// 006   ----------------------------------------
YuNo_FrustrationB_bpat_1_006:
	BYTE		TIE     As0   v112
	BYTE	W96
	BYTE	PEND
// 007   ----------------------------------------
	BYTE	W48
	BYTE		EOT   
	BYTE		TIE     AsM1
	BYTE	W48
// 008   ----------------------------------------
	BYTE	W96
	BYTE		EOT   
// 009   ----------------------------------------
	BYTE		TIE     Bn0 
	BYTE	W96
// 010   ----------------------------------------
	BYTE	W48
	BYTE		EOT   
	BYTE		TIE     BnM1
	BYTE	W48
// 011   ----------------------------------------
	BYTE	W96
	BYTE		EOT   
// 012   ----------------------------------------
	BYTE		TIE     As0 
	BYTE	W96
// 013   ----------------------------------------
	BYTE	W48
	BYTE		EOT   
	BYTE		TIE     AsM1
	BYTE	W48
// 014   ----------------------------------------
	BYTE	W96
	BYTE		EOT   
// 015   ----------------------------------------
	BYTE		TIE     Gn0 
	BYTE	W96
// 016   ----------------------------------------
	BYTE	W48
	BYTE		EOT   
	BYTE		N72     Fs0 
	BYTE	W48
// 017   ----------------------------------------
	BYTE	W24
	BYTE		        Gs0 
	BYTE	W72
// 018   ----------------------------------------
	BYTE	PATT
	 POIN2	YuNo_FrustrationB_bpat_1_006
// 019   ----------------------------------------
	BYTE	W48
	BYTE		EOT     As0 
	BYTE		TIE     AsM1  v112
	BYTE	W48
// 020   ----------------------------------------
	BYTE	W96
	BYTE		EOT   
// 021   ----------------------------------------
	BYTE		TIE     Bn0 
	BYTE	W96
// 022   ----------------------------------------
	BYTE	W48
	BYTE		EOT   
	BYTE		TIE     BnM1
	BYTE	W48
// 023   ----------------------------------------
	BYTE	W96
	BYTE		EOT   
// 024   ----------------------------------------
	BYTE		TIE     As0 
	BYTE	W96
// 025   ----------------------------------------
	BYTE	W48
	BYTE		EOT   
	BYTE		TIE     AsM1
	BYTE	W48
// 026   ----------------------------------------
	BYTE	W96
	BYTE		EOT   
// 027   ----------------------------------------
	BYTE		TIE     Gn0 
	BYTE	W96
// 028   ----------------------------------------
	BYTE	W48
	BYTE		EOT   
	BYTE		N72     Fs0 
	BYTE	W48
// 029   ----------------------------------------
	BYTE	W24
	BYTE		        Gs0 
	BYTE	W72
// 030   ----------------------------------------
	BYTE	W96
// 031   ----------------------------------------
	BYTE	W96
// 032   ----------------------------------------
	BYTE	W96
// 033   ----------------------------------------
	BYTE	W96
// 034   ----------------------------------------
	BYTE	W96
// 035   ----------------------------------------
	BYTE	W96
// 036   ----------------------------------------
	BYTE	W96
// 037   ----------------------------------------
	BYTE	W96
// 038   ----------------------------------------
	BYTE	W96
// 039   ----------------------------------------
	BYTE	W96
// 040   ----------------------------------------
	BYTE	W96
// 041   ----------------------------------------
	BYTE	W96
// 042   ----------------------------------------
	BYTE	W96
// 043   ----------------------------------------
	BYTE	W96
// 044   ----------------------------------------
	BYTE	W96
// 045   ----------------------------------------
	BYTE	W96
// 046   ----------------------------------------
	BYTE	W96
// 047   ----------------------------------------
	BYTE	W96
// 048   ----------------------------------------
	BYTE	W96
// 049   ----------------------------------------
	BYTE	W96
// 050   ----------------------------------------
	BYTE	W96
// 051   ----------------------------------------
	BYTE	W96
// 052   ----------------------------------------
	BYTE	W96
// 053   ----------------------------------------
	BYTE	W96
	BYTE	GoTo
	 POIN2	YuNo_FrustrationB_bpat_1_B1
YuNo_FrustrationB_bpat_1_B2:
// 054   ----------------------------------------
	BYTE		TIE     As0   v112
	BYTE	W96
// 055   ----------------------------------------
	BYTE	W96
// 056   ----------------------------------------
	BYTE	W96
	BYTE		EOT   
// 057   ----------------------------------------
	BYTE		TIE     Bn0 
	BYTE	W96
// 058   ----------------------------------------
	BYTE	W96
// 059   ----------------------------------------
	BYTE	W96
	BYTE		EOT   
// 060   ----------------------------------------
	BYTE	PATT
	 POIN2	YuNo_FrustrationB_bpat_1_006
// 061   ----------------------------------------
	BYTE	W48
	BYTE		EOT     As0 
	BYTE		TIE     AsM1  v112
	BYTE	W48
// 062   ----------------------------------------
	BYTE	W96
	BYTE		EOT   
// 063   ----------------------------------------
	BYTE		TIE     Bn0 
	BYTE	W96
// 064   ----------------------------------------
	BYTE	W48
	BYTE		EOT   
	BYTE		TIE     BnM1
	BYTE	W48
// 065   ----------------------------------------
	BYTE	W96
	BYTE		EOT   
// 066   ----------------------------------------
	BYTE		TIE     As0 
	BYTE	W96
// 067   ----------------------------------------
	BYTE	W48
	BYTE		EOT   
	BYTE		TIE     AsM1
	BYTE	W48
// 068   ----------------------------------------
	BYTE	W96
	BYTE		EOT   
// 069   ----------------------------------------
	BYTE		TIE     Gn0 
	BYTE	W96
// 070   ----------------------------------------
	BYTE	W48
	BYTE		EOT   
	BYTE		N72     Fs0 
	BYTE	W48
// 071   ----------------------------------------
	BYTE	W24
	BYTE		        Gs0 
	BYTE	W72
// 072   ----------------------------------------
	BYTE	PATT
	 POIN2	YuNo_FrustrationB_bpat_1_006
// 073   ----------------------------------------
	BYTE	W48
	BYTE		EOT     As0 
	BYTE		TIE     AsM1  v112
	BYTE	W48
// 074   ----------------------------------------
	BYTE	W96
	BYTE		EOT   
// 075   ----------------------------------------
	BYTE		TIE     Bn0 
	BYTE	W96
// 076   ----------------------------------------
	BYTE	W48
	BYTE		EOT   
	BYTE		TIE     BnM1
	BYTE	W48
// 077   ----------------------------------------
	BYTE	W96
	BYTE		EOT   
// 078   ----------------------------------------
	BYTE		TIE     As0 
	BYTE	W96
// 079   ----------------------------------------
	BYTE	W48
	BYTE		EOT   
	BYTE		TIE     AsM1
	BYTE	W48
// 080   ----------------------------------------
	BYTE	W96
	BYTE		EOT   
// 081   ----------------------------------------
	BYTE		TIE     Gn0 
	BYTE	W96
// 082   ----------------------------------------
	BYTE	W48
	BYTE		EOT   
	BYTE		N72     Fs0 
	BYTE	W48
// 083   ----------------------------------------
	BYTE	W24
	BYTE		        Gs0 
	BYTE	W72
// 084   ----------------------------------------
	BYTE	W96
// 085   ----------------------------------------
	BYTE	W96
// 086   ----------------------------------------
	BYTE	W96
// 087   ----------------------------------------
	BYTE	W96
// 088   ----------------------------------------
	BYTE	W96
// 089   ----------------------------------------
	BYTE	W96
// 090   ----------------------------------------
	BYTE	W96
// 091   ----------------------------------------
	BYTE	W96
// 092   ----------------------------------------
	BYTE	W96
// 093   ----------------------------------------
	BYTE	W96
// 094   ----------------------------------------
	BYTE	W96
// 095   ----------------------------------------
	BYTE	W96
// 096   ----------------------------------------
	BYTE	W96
// 097   ----------------------------------------
	BYTE	W96
// 098   ----------------------------------------
	BYTE	W96
// 099   ----------------------------------------
	BYTE	W96
// 100   ----------------------------------------
	BYTE	W96
// 101   ----------------------------------------
	BYTE	W96
// 102   ----------------------------------------
	BYTE	W96
// 103   ----------------------------------------
	BYTE	W96
// 104   ----------------------------------------
	BYTE	W96
// 105   ----------------------------------------
	BYTE	W96
// 106   ----------------------------------------
	BYTE	W96
// 107   ----------------------------------------
	BYTE	W96
// 108   ----------------------------------------
	BYTE	FINE

//**************** Track 2 (Midi-Chn.2) ****************//

YuNo_FrustrationB_bpat_2:
	BYTE	KEYSH   YuNo_FrustrationB_bpat_key+0
YuNo_FrustrationB_bpat_2_B1:
// 000   ----------------------------------------
	BYTE		VOICE   36
	BYTE		PAN     c_v+0
	BYTE		VOL     48*YuNo_FrustrationB_bpat_mvl/mxv
	BYTE	W96
// 001   ----------------------------------------
	BYTE	W96
// 002   ----------------------------------------
	BYTE	W96
// 003   ----------------------------------------
	BYTE	W96
// 004   ----------------------------------------
	BYTE	W96
// 005   ----------------------------------------
	BYTE	W96
// 006   ----------------------------------------
YuNo_FrustrationB_bpat_2_006:
	BYTE		N06     Gs0   v100
	BYTE	W06
	BYTE		        As0   v080
	BYTE	W06
	BYTE		        As1   v100
	BYTE	W06
	BYTE		N12     As0 
	BYTE	W12
	BYTE		N03   
	BYTE	W12
	BYTE		N01     As0   v080
	BYTE	W06
	BYTE		N06     As0   v100
	BYTE	W06
	BYTE		        Gs0   v080
	BYTE	W06
	BYTE		        Ds1   v100
	BYTE	W06
	BYTE		        Cs1   v080
	BYTE	W06
	BYTE		N01     Gs0   v100
	BYTE	W06
	BYTE		N06   
	BYTE	W06
	BYTE		        As0   v080
	BYTE	W06
	BYTE		N03     As0   v100
	BYTE	W06
	BYTE	PEND
// 007   ----------------------------------------
YuNo_FrustrationB_bpat_2_007:
	BYTE	W24
	BYTE		N01     As0   v080
	BYTE	W06
	BYTE		N06     Fn1   v092
	BYTE	W06
	BYTE		N12     Gs1   v100
	BYTE	W12
	BYTE		N06     Gs0 
	BYTE	W06
	BYTE		        As0   v080
	BYTE	W06
	BYTE		        As1   v100
	BYTE	W06
	BYTE		N12     As0 
	BYTE	W12
	BYTE		N03   
	BYTE	W12
	BYTE		N01     As0   v080
	BYTE	W06
	BYTE	PEND
// 008   ----------------------------------------
YuNo_FrustrationB_bpat_2_008:
	BYTE		N06     As0   v100
	BYTE	W06
	BYTE		        Gs0   v080
	BYTE	W06
	BYTE		        Ds1   v100
	BYTE	W06
	BYTE		        Cs1   v080
	BYTE	W06
	BYTE		N01     Gs0   v100
	BYTE	W06
	BYTE		N06   
	BYTE	W06
	BYTE		        As0   v080
	BYTE	W06
	BYTE		N03     As0   v100
	BYTE	W06
	BYTE		N01     AsM1  v080
	BYTE	W06
	BYTE		N06     As0   v100
	BYTE	W06
	BYTE		N01     BnM1  v080
	BYTE	W06
	BYTE		N06     Bn0   v100
	BYTE	W06
	BYTE		N01     BnM1  v080
	BYTE	W06
	BYTE		N06     Cs1 
	BYTE	W06
	BYTE		N12     Ds1   v100
	BYTE	W12
	BYTE	PEND
// 009   ----------------------------------------
YuNo_FrustrationB_bpat_2_009:
	BYTE		N06     An0   v100
	BYTE	W06
	BYTE		        Bn0   v080
	BYTE	W06
	BYTE		        Bn1   v100
	BYTE	W06
	BYTE		N12     Bn0 
	BYTE	W12
	BYTE		N03   
	BYTE	W12
	BYTE		N01     Bn0   v080
	BYTE	W06
	BYTE		N03   
	BYTE	W06
	BYTE		N06     Bn0   v100
	BYTE	W06
	BYTE		        Cs1   v080
	BYTE	W06
	BYTE		        Ds1   v100
	BYTE	W06
	BYTE		N01     An0 
	BYTE	W06
	BYTE		N06   
	BYTE	W06
	BYTE		        Bn0   v080
	BYTE	W06
	BYTE		N03     Bn0   v100
	BYTE	W06
	BYTE	PEND
// 010   ----------------------------------------
YuNo_FrustrationB_bpat_2_010:
	BYTE	W24
	BYTE		N01     Fn1   v080
	BYTE	W06
	BYTE		N06     Fn1   v092
	BYTE	W06
	BYTE		N12     Gs1   v100
	BYTE	W12
	BYTE		N06     An0 
	BYTE	W06
	BYTE		        Bn0   v080
	BYTE	W06
	BYTE		        Bn1   v100
	BYTE	W06
	BYTE		N12     Bn0 
	BYTE	W12
	BYTE		N03   
	BYTE	W12
	BYTE		N01     Bn0   v080
	BYTE	W06
	BYTE	PEND
// 011   ----------------------------------------
YuNo_FrustrationB_bpat_2_011:
	BYTE		N03     Bn0   v080
	BYTE	W06
	BYTE		N06     Bn0   v100
	BYTE	W06
	BYTE		        Cs1   v080
	BYTE	W06
	BYTE		        Ds1   v100
	BYTE	W06
	BYTE		N12     Bn0 
	BYTE	W12
	BYTE		N06     As0 
	BYTE	W06
	BYTE		        Bn0 
	BYTE	W06
	BYTE		N01     Bn0   v092
	BYTE	W06
	BYTE		N06     Bn0   v100
	BYTE	W06
	BYTE		N01     Bn0   v092
	BYTE	W06
	BYTE		N06     Cs1   v100
	BYTE	W06
	BYTE		N01     Cs1   v092
	BYTE	W06
	BYTE		N06     Ds1   v100
	BYTE	W06
	BYTE		N01     Cs1   v092
	BYTE	W06
	BYTE		N06     Bn0   v100
	BYTE	W06
	BYTE	PEND
// 012   ----------------------------------------
	BYTE	PATT
	 POIN2	YuNo_FrustrationB_bpat_2_006
// 013   ----------------------------------------
	BYTE	PATT
	 POIN2	YuNo_FrustrationB_bpat_2_007
// 014   ----------------------------------------
	BYTE	PATT
	 POIN2	YuNo_FrustrationB_bpat_2_008
// 015   ----------------------------------------
YuNo_FrustrationB_bpat_2_015:
	BYTE		N06     Fn0   v100
	BYTE	W06
	BYTE		        Gn0   v080
	BYTE	W06
	BYTE		        Gn1   v100
	BYTE	W06
	BYTE		N12     Gn0 
	BYTE	W12
	BYTE		N03   
	BYTE	W12
	BYTE		N01     Gn0   v080
	BYTE	W06
	BYTE		N06     Gn0   v100
	BYTE	W06
	BYTE		        Fn0   v080
	BYTE	W06
	BYTE		        Cn1   v100
	BYTE	W06
	BYTE		        As0   v080
	BYTE	W06
	BYTE		N01     Fn0   v100
	BYTE	W06
	BYTE		N06   
	BYTE	W06
	BYTE		        Gn0   v080
	BYTE	W06
	BYTE		N03     Gn0   v100
	BYTE	W06
	BYTE	PEND
// 016   ----------------------------------------
YuNo_FrustrationB_bpat_2_016:
	BYTE	W24
	BYTE		N01     Gn0   v080
	BYTE	W06
	BYTE		N06     Dn1   v092
	BYTE	W06
	BYTE		N12     Fn1   v100
	BYTE	W12
	BYTE		N06     En0 
	BYTE	W06
	BYTE		        Fs0   v080
	BYTE	W06
	BYTE		        Fs1   v100
	BYTE	W06
	BYTE		N12     Fs0 
	BYTE	W12
	BYTE		N03   
	BYTE	W12
	BYTE		N01     Fs0   v080
	BYTE	W06
	BYTE	PEND
// 017   ----------------------------------------
YuNo_FrustrationB_bpat_2_017:
	BYTE		N06     Fs0   v100
	BYTE	W06
	BYTE		        En0   v080
	BYTE	W06
	BYTE		        Bn0   v100
	BYTE	W06
	BYTE		        An0   v080
	BYTE	W06
	BYTE		N01     Fn0   v100
	BYTE	W06
	BYTE		N06   
	BYTE	W06
	BYTE		        Gn0   v080
	BYTE	W06
	BYTE		N03     Gn0   v100
	BYTE	W06
	BYTE		N01     GnM1  v080
	BYTE	W06
	BYTE		N06     Gn0   v100
	BYTE	W06
	BYTE		N01     GsM1  v080
	BYTE	W06
	BYTE		N06     Gs0   v100
	BYTE	W06
	BYTE		N01     GsM1  v080
	BYTE	W06
	BYTE		N06     As0 
	BYTE	W06
	BYTE		N12     Cn1   v100
	BYTE	W12
	BYTE	PEND
// 018   ----------------------------------------
	BYTE	PATT
	 POIN2	YuNo_FrustrationB_bpat_2_006
// 019   ----------------------------------------
	BYTE	PATT
	 POIN2	YuNo_FrustrationB_bpat_2_007
// 020   ----------------------------------------
	BYTE	PATT
	 POIN2	YuNo_FrustrationB_bpat_2_008
// 021   ----------------------------------------
	BYTE	PATT
	 POIN2	YuNo_FrustrationB_bpat_2_009
// 022   ----------------------------------------
	BYTE	PATT
	 POIN2	YuNo_FrustrationB_bpat_2_010
// 023   ----------------------------------------
	BYTE	PATT
	 POIN2	YuNo_FrustrationB_bpat_2_011
// 024   ----------------------------------------
	BYTE	PATT
	 POIN2	YuNo_FrustrationB_bpat_2_006
// 025   ----------------------------------------
	BYTE	PATT
	 POIN2	YuNo_FrustrationB_bpat_2_007
// 026   ----------------------------------------
	BYTE	PATT
	 POIN2	YuNo_FrustrationB_bpat_2_008
// 027   ----------------------------------------
	BYTE	PATT
	 POIN2	YuNo_FrustrationB_bpat_2_015
// 028   ----------------------------------------
	BYTE	PATT
	 POIN2	YuNo_FrustrationB_bpat_2_016
// 029   ----------------------------------------
	BYTE	PATT
	 POIN2	YuNo_FrustrationB_bpat_2_017
// 030   ----------------------------------------
	BYTE	W96
// 031   ----------------------------------------
	BYTE	W96
// 032   ----------------------------------------
	BYTE	W96
// 033   ----------------------------------------
	BYTE	W96
// 034   ----------------------------------------
	BYTE	W96
// 035   ----------------------------------------
	BYTE	W96
// 036   ----------------------------------------
	BYTE	W96
// 037   ----------------------------------------
	BYTE	W96
// 038   ----------------------------------------
	BYTE	W96
// 039   ----------------------------------------
	BYTE	W96
// 040   ----------------------------------------
	BYTE	W96
// 041   ----------------------------------------
	BYTE	W96
// 042   ----------------------------------------
	BYTE	W96
// 043   ----------------------------------------
	BYTE	W96
// 044   ----------------------------------------
	BYTE	W96
// 045   ----------------------------------------
	BYTE	W96
// 046   ----------------------------------------
	BYTE	W96
// 047   ----------------------------------------
	BYTE	W96
// 048   ----------------------------------------
	BYTE	W96
// 049   ----------------------------------------
	BYTE	W96
// 050   ----------------------------------------
	BYTE	W96
// 051   ----------------------------------------
	BYTE	W96
// 052   ----------------------------------------
	BYTE	W96
// 053   ----------------------------------------
	BYTE	W96
	BYTE	GoTo
	 POIN2	YuNo_FrustrationB_bpat_2_B1
YuNo_FrustrationB_bpat_2_B2:
// 054   ----------------------------------------
	BYTE	W96
// 055   ----------------------------------------
	BYTE	W96
// 056   ----------------------------------------
	BYTE	W96
// 057   ----------------------------------------
	BYTE	W96
// 058   ----------------------------------------
	BYTE	W96
// 059   ----------------------------------------
	BYTE	W96
// 060   ----------------------------------------
	BYTE	PATT
	 POIN2	YuNo_FrustrationB_bpat_2_006
// 061   ----------------------------------------
	BYTE	PATT
	 POIN2	YuNo_FrustrationB_bpat_2_007
// 062   ----------------------------------------
	BYTE	PATT
	 POIN2	YuNo_FrustrationB_bpat_2_008
// 063   ----------------------------------------
	BYTE	PATT
	 POIN2	YuNo_FrustrationB_bpat_2_009
// 064   ----------------------------------------
	BYTE	PATT
	 POIN2	YuNo_FrustrationB_bpat_2_010
// 065   ----------------------------------------
	BYTE	PATT
	 POIN2	YuNo_FrustrationB_bpat_2_011
// 066   ----------------------------------------
	BYTE	PATT
	 POIN2	YuNo_FrustrationB_bpat_2_006
// 067   ----------------------------------------
	BYTE	PATT
	 POIN2	YuNo_FrustrationB_bpat_2_007
// 068   ----------------------------------------
	BYTE	PATT
	 POIN2	YuNo_FrustrationB_bpat_2_008
// 069   ----------------------------------------
	BYTE	PATT
	 POIN2	YuNo_FrustrationB_bpat_2_015
// 070   ----------------------------------------
	BYTE	PATT
	 POIN2	YuNo_FrustrationB_bpat_2_016
// 071   ----------------------------------------
	BYTE	PATT
	 POIN2	YuNo_FrustrationB_bpat_2_017
// 072   ----------------------------------------
	BYTE	PATT
	 POIN2	YuNo_FrustrationB_bpat_2_006
// 073   ----------------------------------------
	BYTE	PATT
	 POIN2	YuNo_FrustrationB_bpat_2_007
// 074   ----------------------------------------
	BYTE	PATT
	 POIN2	YuNo_FrustrationB_bpat_2_008
// 075   ----------------------------------------
	BYTE	PATT
	 POIN2	YuNo_FrustrationB_bpat_2_009
// 076   ----------------------------------------
	BYTE	PATT
	 POIN2	YuNo_FrustrationB_bpat_2_010
// 077   ----------------------------------------
	BYTE	PATT
	 POIN2	YuNo_FrustrationB_bpat_2_011
// 078   ----------------------------------------
	BYTE	PATT
	 POIN2	YuNo_FrustrationB_bpat_2_006
// 079   ----------------------------------------
	BYTE	PATT
	 POIN2	YuNo_FrustrationB_bpat_2_007
// 080   ----------------------------------------
	BYTE	PATT
	 POIN2	YuNo_FrustrationB_bpat_2_008
// 081   ----------------------------------------
	BYTE	PATT
	 POIN2	YuNo_FrustrationB_bpat_2_015
// 082   ----------------------------------------
	BYTE	PATT
	 POIN2	YuNo_FrustrationB_bpat_2_016
// 083   ----------------------------------------
	BYTE	PATT
	 POIN2	YuNo_FrustrationB_bpat_2_017
// 084   ----------------------------------------
	BYTE	W96
// 085   ----------------------------------------
	BYTE	W96
// 086   ----------------------------------------
	BYTE	W96
// 087   ----------------------------------------
	BYTE	W96
// 088   ----------------------------------------
	BYTE	W96
// 089   ----------------------------------------
	BYTE	W96
// 090   ----------------------------------------
	BYTE	W96
// 091   ----------------------------------------
	BYTE	W96
// 092   ----------------------------------------
	BYTE	W96
// 093   ----------------------------------------
	BYTE	W96
// 094   ----------------------------------------
	BYTE	W96
// 095   ----------------------------------------
	BYTE	W96
// 096   ----------------------------------------
	BYTE	W96
// 097   ----------------------------------------
	BYTE	W96
// 098   ----------------------------------------
	BYTE	W96
// 099   ----------------------------------------
	BYTE	W96
// 100   ----------------------------------------
	BYTE	W96
// 101   ----------------------------------------
	BYTE	W96
// 102   ----------------------------------------
	BYTE	W96
// 103   ----------------------------------------
	BYTE	W96
// 104   ----------------------------------------
	BYTE	W96
// 105   ----------------------------------------
	BYTE	W96
// 106   ----------------------------------------
	BYTE	W96
// 107   ----------------------------------------
	BYTE	W96
// 108   ----------------------------------------
	BYTE	FINE

//**************** Track 3 (Midi-Chn.3) ****************//

YuNo_FrustrationB_bpat_3:
	BYTE	KEYSH   YuNo_FrustrationB_bpat_key+0
YuNo_FrustrationB_bpat_3_B1:
// 000   ----------------------------------------
	BYTE		VOICE   48
	BYTE		PAN     c_v+0
	BYTE		VOL     56*YuNo_FrustrationB_bpat_mvl/mxv
	BYTE		TIE     Fn3   v092
	BYTE		TIE     As3 
	BYTE	W01
	BYTE	W02
	BYTE	W01
	BYTE	W02
	BYTE	W01
	BYTE	W02
	BYTE	W01
	BYTE	W02
	BYTE	W01
	BYTE	W01
	BYTE	W02
	BYTE	W01
	BYTE	W02
	BYTE	W01
	BYTE	W02
	BYTE	W01
	BYTE	W01
	BYTE	W02
	BYTE	W01
	BYTE	W02
	BYTE	W01
	BYTE	W02
	BYTE	W01
	BYTE	W02
	BYTE	W01
	BYTE	W01
	BYTE	W02
	BYTE	W01
	BYTE	W02
	BYTE	W01
	BYTE	W02
	BYTE	W01
	BYTE	W01
	BYTE	W02
	BYTE	W01
	BYTE	W02
	BYTE	W01
	BYTE	W02
	BYTE	W01
	BYTE	W02
	BYTE	W01
	BYTE	W01
	BYTE	W02
	BYTE	W01
	BYTE	W02
	BYTE	W01
	BYTE	W02
	BYTE	W01
	BYTE	W02
	BYTE	W01
	BYTE	W02
	BYTE	W02
	BYTE	W01
	BYTE	W02
	BYTE	W02
	BYTE	W02
	BYTE	W02
	BYTE	W01
	BYTE	W02
	BYTE	W02
	BYTE	W02
	BYTE	W02
	BYTE	W01
	BYTE	W01
// 001   ----------------------------------------
YuNo_FrustrationB_bpat_3_001:
	BYTE	W01
	BYTE	W02
	BYTE	W02
	BYTE	W02
	BYTE	W01
	BYTE	W02
	BYTE	W02
	BYTE	W02
	BYTE	W02
	BYTE	W01
	BYTE	W02
	BYTE	W02
	BYTE	W02
	BYTE	W02
	BYTE	W01
	BYTE	W02
	BYTE	W02
	BYTE	W02
	BYTE	W02
	BYTE	W01
	BYTE	W02
	BYTE	W02
	BYTE	W02
	BYTE	W02
	BYTE	W01
	BYTE	W02
	BYTE	W02
	BYTE	PEND
	BYTE		EOT     Fn3 
	BYTE		        As3 
	BYTE		N72     Cn3   v092
	BYTE		N72     Fn3 
	BYTE	W02
	BYTE	W02
	BYTE	W01
	BYTE	W02
	BYTE	W02
	BYTE	W02
	BYTE	W02
	BYTE	W01
	BYTE	W02
	BYTE	W02
	BYTE	W02
	BYTE	W02
	BYTE	W01
	BYTE	W02
	BYTE	W02
	BYTE	W02
	BYTE	W02
	BYTE	W01
	BYTE	W02
	BYTE	W02
	BYTE	W02
	BYTE	W02
	BYTE	W01
	BYTE	W02
	BYTE	W02
	BYTE	W02
	BYTE	W01
// 002   ----------------------------------------
YuNo_FrustrationB_bpat_3_002:
	BYTE	W01
	BYTE	W01
	BYTE	W02
	BYTE	W02
	BYTE	W02
	BYTE	W02
	BYTE	W01
	BYTE	W02
	BYTE	W02
	BYTE	W02
	BYTE	W02
	BYTE	W01
	BYTE	W02
	BYTE	W02
	BYTE		N72     As2   v072
	BYTE		N72     Ds3 
	BYTE	W02
	BYTE	W02
	BYTE	W01
	BYTE	W02
	BYTE	W02
	BYTE	W02
	BYTE	W02
	BYTE	W01
	BYTE	W02
	BYTE	W02
	BYTE	W02
	BYTE	W02
	BYTE	W01
	BYTE	W02
	BYTE	W02
	BYTE	W02
	BYTE	W02
	BYTE	W01
	BYTE	W02
	BYTE	W02
	BYTE	W02
	BYTE	W02
	BYTE	W01
	BYTE	W02
	BYTE	W02
	BYTE	W02
	BYTE	W02
	BYTE	W01
	BYTE	W02
	BYTE	W02
	BYTE	W02
	BYTE	W02
	BYTE	W01
	BYTE	W02
	BYTE	W02
	BYTE	W02
	BYTE	W02
	BYTE	W01
	BYTE	W02
	BYTE	W02
	BYTE	PEND
// 003   ----------------------------------------
YuNo_FrustrationB_bpat_3_003:
	BYTE		N72     As2   v092
	BYTE		N72     Fn3 
	BYTE	W02
	BYTE	W02
	BYTE	W01
	BYTE	W02
	BYTE	W02
	BYTE	W02
	BYTE	W02
	BYTE	W01
	BYTE	W02
	BYTE	W02
	BYTE	W02
	BYTE	W02
	BYTE	W01
	BYTE	W02
	BYTE	W02
	BYTE	W02
	BYTE	W02
	BYTE	W01
	BYTE	W02
	BYTE	W02
	BYTE	W02
	BYTE	W02
	BYTE	W01
	BYTE	W02
	BYTE	W02
	BYTE	W02
	BYTE	W02
	BYTE	W01
	BYTE	W02
	BYTE	W02
	BYTE	W02
	BYTE	W02
	BYTE	W01
	BYTE	W02
	BYTE	W02
	BYTE	W02
	BYTE	W02
	BYTE	W01
	BYTE	W02
	BYTE	W02
	BYTE		        Bn2   v072
	BYTE		N72     Fs3 
	BYTE	W02
	BYTE	W02
	BYTE	W01
	BYTE	W02
	BYTE	W02
	BYTE	W02
	BYTE	W02
	BYTE	W01
	BYTE	W02
	BYTE	W02
	BYTE	W02
	BYTE	W02
	BYTE	W01
	BYTE	W01
	BYTE	PEND
// 004   ----------------------------------------
YuNo_FrustrationB_bpat_3_004:
	BYTE	W01
	BYTE	W02
	BYTE	W02
	BYTE	W02
	BYTE	W01
	BYTE	W02
	BYTE	W02
	BYTE	W02
	BYTE	W02
	BYTE	W01
	BYTE	W02
	BYTE	W02
	BYTE	W02
	BYTE	W02
	BYTE	W01
	BYTE	W02
	BYTE	W02
	BYTE	W02
	BYTE	W02
	BYTE	W01
	BYTE	W02
	BYTE	W02
	BYTE	W02
	BYTE	W02
	BYTE	W01
	BYTE	W02
	BYTE	W02
	BYTE		N72     Cs3   v092
	BYTE		N72     Gs3 
	BYTE	W02
	BYTE	W02
	BYTE	W01
	BYTE	W02
	BYTE	W02
	BYTE	W02
	BYTE	W02
	BYTE	W01
	BYTE	W02
	BYTE	W02
	BYTE	W02
	BYTE	W02
	BYTE	W01
	BYTE	W02
	BYTE	W02
	BYTE	W02
	BYTE	W02
	BYTE	W01
	BYTE	W02
	BYTE	W02
	BYTE	W02
	BYTE	W02
	BYTE	W01
	BYTE	W02
	BYTE	W02
	BYTE	W02
	BYTE	W01
	BYTE	PEND
// 005   ----------------------------------------
YuNo_FrustrationB_bpat_3_005:
	BYTE	W01
	BYTE	W01
	BYTE	W02
	BYTE	W02
	BYTE	W02
	BYTE	W02
	BYTE	W01
	BYTE	W02
	BYTE	W02
	BYTE	W02
	BYTE	W02
	BYTE	W01
	BYTE	W02
	BYTE	W02
	BYTE		N72     Ds3   v080
	BYTE		N72     As3 
	BYTE	W02
	BYTE	W02
	BYTE	W01
	BYTE	W02
	BYTE	W02
	BYTE	W02
	BYTE	W02
	BYTE	W01
	BYTE	W02
	BYTE	W02
	BYTE	W02
	BYTE	W02
	BYTE	W01
	BYTE	W02
	BYTE	W02
	BYTE	W02
	BYTE	W02
	BYTE	W01
	BYTE	W02
	BYTE	W02
	BYTE	W02
	BYTE	W02
	BYTE	W01
	BYTE	W02
	BYTE	W02
	BYTE	W02
	BYTE	W02
	BYTE	W01
	BYTE	W02
	BYTE	W02
	BYTE	W02
	BYTE	W02
	BYTE	W01
	BYTE	W02
	BYTE	W02
	BYTE	W02
	BYTE	W02
	BYTE	W01
	BYTE	W02
	BYTE	W02
	BYTE	PEND
// 006   ----------------------------------------
YuNo_FrustrationB_bpat_3_006:
	BYTE		TIE     Gs3   v092
	BYTE		TIE     Cn4 
	BYTE	W01
	BYTE	W02
	BYTE	W01
	BYTE	W02
	BYTE	W01
	BYTE	W02
	BYTE	W01
	BYTE	W02
	BYTE	W01
	BYTE	W01
	BYTE	W02
	BYTE	W01
	BYTE	W02
	BYTE	W01
	BYTE	W02
	BYTE	W01
	BYTE	W01
	BYTE	W02
	BYTE	W01
	BYTE	W02
	BYTE	W01
	BYTE	W02
	BYTE	W01
	BYTE	W02
	BYTE	W01
	BYTE	W01
	BYTE	W02
	BYTE	W01
	BYTE	W02
	BYTE	W01
	BYTE	W02
	BYTE	W01
	BYTE	W01
	BYTE	W02
	BYTE	W01
	BYTE	W02
	BYTE	W01
	BYTE	W02
	BYTE	W01
	BYTE	W02
	BYTE	W01
	BYTE	W01
	BYTE	W02
	BYTE	W01
	BYTE	W02
	BYTE	W01
	BYTE	W02
	BYTE	W01
	BYTE	W02
	BYTE	W01
	BYTE	W01
	BYTE	W02
	BYTE	W01
	BYTE	W02
	BYTE	W01
	BYTE	W02
	BYTE	W01
	BYTE	W02
	BYTE	W01
	BYTE	W01
	BYTE	W02
	BYTE	W01
	BYTE	W02
	BYTE	W01
	BYTE	W02
	BYTE	W01
	BYTE	W01
	BYTE	PEND
// 007   ----------------------------------------
YuNo_FrustrationB_bpat_3_007:
	BYTE	W02
	BYTE	W01
	BYTE	W02
	BYTE	W01
	BYTE	W02
	BYTE	W01
	BYTE	W02
	BYTE	W01
	BYTE	W01
	BYTE	W02
	BYTE	W01
	BYTE	W02
	BYTE	W01
	BYTE	W02
	BYTE	W01
	BYTE	W01
	BYTE	W02
	BYTE	W01
	BYTE	W02
	BYTE	W01
	BYTE	W02
	BYTE	W01
	BYTE	W02
	BYTE	W01
	BYTE	W01
	BYTE	W02
	BYTE	W01
	BYTE	W02
	BYTE	W01
	BYTE	W02
	BYTE	W01
	BYTE	W02
	BYTE	W01
	BYTE	PEND
	BYTE		EOT     Gs3 
	BYTE		        Cn4 
	BYTE		N72     Gn3   v092
	BYTE		N72     As3 
	BYTE	W01
	BYTE	W02
	BYTE	W01
	BYTE	W02
	BYTE	W01
	BYTE	W02
	BYTE	W01
	BYTE	W02
	BYTE	W01
	BYTE	W01
	BYTE	W02
	BYTE	W01
	BYTE	W02
	BYTE	W01
	BYTE	W02
	BYTE	W01
	BYTE	W01
	BYTE	W02
	BYTE	W01
	BYTE	W02
	BYTE	W01
	BYTE	W02
	BYTE	W01
	BYTE	W02
	BYTE	W01
	BYTE	W01
	BYTE	W02
	BYTE	W01
	BYTE	W02
	BYTE	W01
	BYTE	W02
	BYTE	W01
	BYTE	W01
	BYTE	W01
// 008   ----------------------------------------
YuNo_FrustrationB_bpat_3_008:
	BYTE	W01
	BYTE	W01
	BYTE	W02
	BYTE	W01
	BYTE	W02
	BYTE	W01
	BYTE	W02
	BYTE	W01
	BYTE	W01
	BYTE	W02
	BYTE	W01
	BYTE	W02
	BYTE	W01
	BYTE	W02
	BYTE	W01
	BYTE	W02
	BYTE	W01
	BYTE		N48     As2   v080
	BYTE		N72     Fn3 
	BYTE	W01
	BYTE	W02
	BYTE	W01
	BYTE	W02
	BYTE	W01
	BYTE	W02
	BYTE	W01
	BYTE	W02
	BYTE	W01
	BYTE	W01
	BYTE	W02
	BYTE	W01
	BYTE	W02
	BYTE	W01
	BYTE	W02
	BYTE	W01
	BYTE	W01
	BYTE	W02
	BYTE	W01
	BYTE	W02
	BYTE	W01
	BYTE	W02
	BYTE	W01
	BYTE	W02
	BYTE	W01
	BYTE	W01
	BYTE	W02
	BYTE	W01
	BYTE	W02
	BYTE	W01
	BYTE	W02
	BYTE	W01
	BYTE	W01
	BYTE	W01
	BYTE		N24     Cn3   v072
	BYTE	W01
	BYTE	W01
	BYTE	W02
	BYTE	W01
	BYTE	W02
	BYTE	W01
	BYTE	W02
	BYTE	W01
	BYTE	W01
	BYTE	W02
	BYTE	W01
	BYTE	W02
	BYTE	W01
	BYTE	W02
	BYTE	W01
	BYTE	W02
	BYTE	W01
	BYTE	PEND
// 009   ----------------------------------------
YuNo_FrustrationB_bpat_3_009:
	BYTE		TIE     Cs3   v092
	BYTE		TIE     Fn3 
	BYTE	W01
	BYTE	W02
	BYTE	W01
	BYTE	W02
	BYTE	W01
	BYTE	W02
	BYTE	W01
	BYTE	W02
	BYTE	W01
	BYTE	W01
	BYTE	W02
	BYTE	W01
	BYTE	W02
	BYTE	W01
	BYTE	W02
	BYTE	W01
	BYTE	W01
	BYTE	W02
	BYTE	W01
	BYTE	W02
	BYTE	W01
	BYTE	W02
	BYTE	W01
	BYTE	W02
	BYTE	W01
	BYTE	W01
	BYTE	W02
	BYTE	W01
	BYTE	W02
	BYTE	W01
	BYTE	W02
	BYTE	W01
	BYTE	W01
	BYTE	W02
	BYTE	W01
	BYTE	W02
	BYTE	W01
	BYTE	W02
	BYTE	W01
	BYTE	W02
	BYTE	W01
	BYTE	W01
	BYTE	W02
	BYTE	W01
	BYTE	W02
	BYTE	W01
	BYTE	W02
	BYTE	W01
	BYTE	W02
	BYTE	W01
	BYTE	W04
	BYTE	W03
	BYTE	W04
	BYTE	W03
	BYTE	W04
	BYTE	W04
	BYTE	W02
	BYTE	PEND
// 010   ----------------------------------------
YuNo_FrustrationB_bpat_3_010:
	BYTE	W01
	BYTE	W04
	BYTE	W03
	BYTE	W04
	BYTE	W04
	BYTE	W03
	BYTE	W04
	BYTE	W03
	BYTE	W04
	BYTE	W04
	BYTE	W03
	BYTE	W04
	BYTE	W03
	BYTE	W28
	BYTE	PEND
	BYTE		EOT     Cs3 
	BYTE		        Fn3 
	BYTE		N03     Bn3   v112
	BYTE		N03     Ds4 
	BYTE	W06
	BYTE		        As3 
	BYTE		N03     Cs4 
	BYTE	W06
	BYTE		        Gs3 
	BYTE		N03     Bn3 
	BYTE	W06
	BYTE		N03   
	BYTE		N03     Cs4 
	BYTE	W06
// 011   ----------------------------------------
YuNo_FrustrationB_bpat_3_011:
	BYTE		N03     Gs3   v112
	BYTE		N03     Bn3 
	BYTE	W06
	BYTE		        Fs3 
	BYTE		N03     As3 
	BYTE	W06
	BYTE		        Fn3 
	BYTE		N03     Gs3 
	BYTE	W06
	BYTE		        Fs3 
	BYTE		N03     As3 
	BYTE	W06
	BYTE		        Fn3 
	BYTE		N03     Gs3 
	BYTE	W06
	BYTE		        Ds3 
	BYTE		N03     Fs3 
	BYTE	W06
	BYTE		        Cs3 
	BYTE		N03     Fn3 
	BYTE	W06
	BYTE		        Ds3 
	BYTE		N03     Fs3 
	BYTE	W06
	BYTE		        Cs3 
	BYTE		N03     Fn3 
	BYTE	W06
	BYTE		        Bn2 
	BYTE		N03     Ds3 
	BYTE	W06
	BYTE		        As2 
	BYTE		N03     Cs3 
	BYTE	W06
	BYTE		        Bn2 
	BYTE		N03     Ds3 
	BYTE	W06
	BYTE		        As2 
	BYTE		N03     Cs3 
	BYTE	W06
	BYTE		        Gs2 
	BYTE	W06
	BYTE		        Fs2 
	BYTE		N03     As2 
	BYTE	W06
	BYTE		        Gs2 
	BYTE		N03     Bn2 
	BYTE	W06
	BYTE	PEND
// 012   ----------------------------------------
YuNo_FrustrationB_bpat_3_012:
	BYTE		N96     Gs2   v100
	BYTE		N96     Cn3 
	BYTE	W96
	BYTE	PEND
// 013   ----------------------------------------
YuNo_FrustrationB_bpat_3_013:
	BYTE		N24     Gn2   v100
	BYTE		N24     As2 
	BYTE	W24
	BYTE		        Cn3 
	BYTE		N24     Fn3 
	BYTE	W24
	BYTE		N60   
	BYTE		N60     Gs3 
	BYTE	W48
	BYTE	PEND
// 014   ----------------------------------------
YuNo_FrustrationB_bpat_3_014:
	BYTE	W12
	BYTE		N04     Ds3   v112
	BYTE		N04     Gn3 
	BYTE	W06
	BYTE		        Fn3 
	BYTE		N04     Gs3 
	BYTE	W06
	BYTE		        Ds3 
	BYTE		N04     Gn3 
	BYTE	W06
	BYTE		        Cn3 
	BYTE		N04     Ds3 
	BYTE	W06
	BYTE		N24     Cs3 
	BYTE		N24     Fn3 
	BYTE	W24
	BYTE		N03     Gn3   v092
	BYTE		N03     Bn3 
	BYTE	W03
	BYTE		N32     Gs3   v100
	BYTE		N32     Cn4 
	BYTE	W32
	BYTE	W01
	BYTE	PEND
// 015   ----------------------------------------
YuNo_FrustrationB_bpat_3_015:
	BYTE		N72     Gn3   v100
	BYTE		N72     Cn4 
	BYTE	W72
	BYTE		        Gn3 
	BYTE		N72     Bn3 
	BYTE	W24
	BYTE	PEND
// 016   ----------------------------------------
YuNo_FrustrationB_bpat_3_016:
	BYTE	W48
	BYTE		N60     Fs3   v100
	BYTE		N60     As3 
	BYTE	W48
	BYTE	PEND
// 017   ----------------------------------------
YuNo_FrustrationB_bpat_3_017:
	BYTE	W12
	BYTE		N03     Fn3   v112
	BYTE		N03     Gs3 
	BYTE	W06
	BYTE		        Fs3 
	BYTE		N03     As3 
	BYTE	W06
	BYTE		        Gs3 
	BYTE		N03     Cn4 
	BYTE	W06
	BYTE		        As3 
	BYTE		N03     Cs4 
	BYTE	W06
	BYTE		        Cn4 
	BYTE		N03     Ds4 
	BYTE	W06
	BYTE		        As3 
	BYTE		N03     Cs4 
	BYTE	W06
	BYTE		        Gs3 
	BYTE		N03     Cn4 
	BYTE	W06
	BYTE		        As3 
	BYTE		N03     Cs4 
	BYTE	W06
	BYTE		        Gs3 
	BYTE		N03     Cn4 
	BYTE	W06
	BYTE		        Fs3 
	BYTE		N03     As3 
	BYTE	W06
	BYTE		        Fn3 
	BYTE		N03     Gs3 
	BYTE	W06
	BYTE		        Fs3 
	BYTE		N03     As3 
	BYTE	W06
	BYTE		        Cs3 
	BYTE		N03     Fn3 
	BYTE	W06
	BYTE		        Cn3 
	BYTE		N03     Ds3 
	BYTE	W06
	BYTE	PEND
// 018   ----------------------------------------
	BYTE	PATT
	 POIN2	YuNo_FrustrationB_bpat_3_006
// 019   ----------------------------------------
	BYTE	PATT
	 POIN2	YuNo_FrustrationB_bpat_3_007
	BYTE		EOT     Gs3 
	BYTE		        Cn4 
	BYTE		N72     Gn3   v092
	BYTE		N72     As3 
	BYTE	W01
	BYTE	W02
	BYTE	W01
	BYTE	W02
	BYTE	W01
	BYTE	W02
	BYTE	W01
	BYTE	W02
	BYTE	W01
	BYTE	W01
	BYTE	W02
	BYTE	W01
	BYTE	W02
	BYTE	W01
	BYTE	W02
	BYTE	W01
	BYTE	W01
	BYTE	W02
	BYTE	W01
	BYTE	W02
	BYTE	W01
	BYTE	W02
	BYTE	W01
	BYTE	W02
	BYTE	W01
	BYTE	W01
	BYTE	W02
	BYTE	W01
	BYTE	W02
	BYTE	W01
	BYTE	W02
	BYTE	W01
	BYTE	W01
	BYTE	W01
// 020   ----------------------------------------
	BYTE	PATT
	 POIN2	YuNo_FrustrationB_bpat_3_008
// 021   ----------------------------------------
	BYTE	PATT
	 POIN2	YuNo_FrustrationB_bpat_3_009
// 022   ----------------------------------------
	BYTE	PATT
	 POIN2	YuNo_FrustrationB_bpat_3_010
	BYTE		EOT     Cs3 
	BYTE		        Fn3 
	BYTE		N03     Bn3   v112
	BYTE		N03     Ds4 
	BYTE	W06
	BYTE		        As3 
	BYTE		N03     Cs4 
	BYTE	W06
	BYTE		        Gs3 
	BYTE		N03     Bn3 
	BYTE	W06
	BYTE		N03   
	BYTE		N03     Cs4 
	BYTE	W06
// 023   ----------------------------------------
	BYTE	PATT
	 POIN2	YuNo_FrustrationB_bpat_3_011
// 024   ----------------------------------------
	BYTE	PATT
	 POIN2	YuNo_FrustrationB_bpat_3_012
// 025   ----------------------------------------
	BYTE	PATT
	 POIN2	YuNo_FrustrationB_bpat_3_013
// 026   ----------------------------------------
	BYTE	PATT
	 POIN2	YuNo_FrustrationB_bpat_3_014
// 027   ----------------------------------------
	BYTE	PATT
	 POIN2	YuNo_FrustrationB_bpat_3_015
// 028   ----------------------------------------
	BYTE	PATT
	 POIN2	YuNo_FrustrationB_bpat_3_016
// 029   ----------------------------------------
	BYTE	PATT
	 POIN2	YuNo_FrustrationB_bpat_3_017
// 030   ----------------------------------------
	BYTE	W96
// 031   ----------------------------------------
	BYTE	W96
// 032   ----------------------------------------
	BYTE	W96
// 033   ----------------------------------------
	BYTE	W96
// 034   ----------------------------------------
	BYTE	W96
// 035   ----------------------------------------
	BYTE	W96
// 036   ----------------------------------------
	BYTE	W96
// 037   ----------------------------------------
	BYTE	W96
// 038   ----------------------------------------
	BYTE	W96
// 039   ----------------------------------------
	BYTE	W96
// 040   ----------------------------------------
	BYTE	W96
// 041   ----------------------------------------
	BYTE	W96
// 042   ----------------------------------------
	BYTE	W96
// 043   ----------------------------------------
	BYTE	W96
// 044   ----------------------------------------
	BYTE	W96
// 045   ----------------------------------------
	BYTE	W96
// 046   ----------------------------------------
	BYTE	W96
// 047   ----------------------------------------
	BYTE	W96
// 048   ----------------------------------------
	BYTE	W96
// 049   ----------------------------------------
	BYTE	W96
// 050   ----------------------------------------
	BYTE	W96
// 051   ----------------------------------------
	BYTE	W96
// 052   ----------------------------------------
	BYTE	W96
// 053   ----------------------------------------
	BYTE	W96
	BYTE	GoTo
	 POIN2	YuNo_FrustrationB_bpat_3_B1
YuNo_FrustrationB_bpat_3_B2:
// 054   ----------------------------------------
	BYTE		TIE     Fn3   v092
	BYTE		TIE     As3 
	BYTE	W01
	BYTE	W02
	BYTE	W01
	BYTE	W02
	BYTE	W01
	BYTE	W02
	BYTE	W01
	BYTE	W02
	BYTE	W01
	BYTE	W01
	BYTE	W02
	BYTE	W01
	BYTE	W02
	BYTE	W01
	BYTE	W02
	BYTE	W01
	BYTE	W01
	BYTE	W02
	BYTE	W01
	BYTE	W02
	BYTE	W01
	BYTE	W02
	BYTE	W01
	BYTE	W02
	BYTE	W01
	BYTE	W01
	BYTE	W02
	BYTE	W01
	BYTE	W02
	BYTE	W01
	BYTE	W02
	BYTE	W01
	BYTE	W01
	BYTE	W02
	BYTE	W01
	BYTE	W02
	BYTE	W01
	BYTE	W02
	BYTE	W01
	BYTE	W02
	BYTE	W01
	BYTE	W01
	BYTE	W02
	BYTE	W01
	BYTE	W02
	BYTE	W01
	BYTE	W02
	BYTE	W01
	BYTE	W02
	BYTE	W01
	BYTE	W02
	BYTE	W02
	BYTE	W01
	BYTE	W02
	BYTE	W02
	BYTE	W02
	BYTE	W02
	BYTE	W01
	BYTE	W02
	BYTE	W02
	BYTE	W02
	BYTE	W02
	BYTE	W01
	BYTE	W01
// 055   ----------------------------------------
	BYTE	PATT
	 POIN2	YuNo_FrustrationB_bpat_3_001
	BYTE		EOT     Fn3 
	BYTE		        As3 
	BYTE		N72     Cn3   v092
	BYTE		N72     Fn3 
	BYTE	W02
	BYTE	W02
	BYTE	W01
	BYTE	W02
	BYTE	W02
	BYTE	W02
	BYTE	W02
	BYTE	W01
	BYTE	W02
	BYTE	W02
	BYTE	W02
	BYTE	W02
	BYTE	W01
	BYTE	W02
	BYTE	W02
	BYTE	W02
	BYTE	W02
	BYTE	W01
	BYTE	W02
	BYTE	W02
	BYTE	W02
	BYTE	W02
	BYTE	W01
	BYTE	W02
	BYTE	W02
	BYTE	W02
	BYTE	W01
// 056   ----------------------------------------
	BYTE	PATT
	 POIN2	YuNo_FrustrationB_bpat_3_002
// 057   ----------------------------------------
	BYTE	PATT
	 POIN2	YuNo_FrustrationB_bpat_3_003
// 058   ----------------------------------------
	BYTE	PATT
	 POIN2	YuNo_FrustrationB_bpat_3_004
// 059   ----------------------------------------
	BYTE	PATT
	 POIN2	YuNo_FrustrationB_bpat_3_005
// 060   ----------------------------------------
	BYTE	PATT
	 POIN2	YuNo_FrustrationB_bpat_3_006
// 061   ----------------------------------------
	BYTE	PATT
	 POIN2	YuNo_FrustrationB_bpat_3_007
	BYTE		EOT     Gs3 
	BYTE		        Cn4 
	BYTE		N72     Gn3   v092
	BYTE		N72     As3 
	BYTE	W01
	BYTE	W02
	BYTE	W01
	BYTE	W02
	BYTE	W01
	BYTE	W02
	BYTE	W01
	BYTE	W02
	BYTE	W01
	BYTE	W01
	BYTE	W02
	BYTE	W01
	BYTE	W02
	BYTE	W01
	BYTE	W02
	BYTE	W01
	BYTE	W01
	BYTE	W02
	BYTE	W01
	BYTE	W02
	BYTE	W01
	BYTE	W02
	BYTE	W01
	BYTE	W02
	BYTE	W01
	BYTE	W01
	BYTE	W02
	BYTE	W01
	BYTE	W02
	BYTE	W01
	BYTE	W02
	BYTE	W01
	BYTE	W01
	BYTE	W01
// 062   ----------------------------------------
	BYTE	PATT
	 POIN2	YuNo_FrustrationB_bpat_3_008
// 063   ----------------------------------------
	BYTE	PATT
	 POIN2	YuNo_FrustrationB_bpat_3_009
// 064   ----------------------------------------
	BYTE	PATT
	 POIN2	YuNo_FrustrationB_bpat_3_010
	BYTE		EOT     Cs3 
	BYTE		        Fn3 
	BYTE		N03     Bn3   v112
	BYTE		N03     Ds4 
	BYTE	W06
	BYTE		        As3 
	BYTE		N03     Cs4 
	BYTE	W06
	BYTE		        Gs3 
	BYTE		N03     Bn3 
	BYTE	W06
	BYTE		N03   
	BYTE		N03     Cs4 
	BYTE	W06
// 065   ----------------------------------------
	BYTE	PATT
	 POIN2	YuNo_FrustrationB_bpat_3_011
// 066   ----------------------------------------
	BYTE	PATT
	 POIN2	YuNo_FrustrationB_bpat_3_012
// 067   ----------------------------------------
	BYTE	PATT
	 POIN2	YuNo_FrustrationB_bpat_3_013
// 068   ----------------------------------------
	BYTE	PATT
	 POIN2	YuNo_FrustrationB_bpat_3_014
// 069   ----------------------------------------
	BYTE	PATT
	 POIN2	YuNo_FrustrationB_bpat_3_015
// 070   ----------------------------------------
	BYTE	PATT
	 POIN2	YuNo_FrustrationB_bpat_3_016
// 071   ----------------------------------------
	BYTE	PATT
	 POIN2	YuNo_FrustrationB_bpat_3_017
// 072   ----------------------------------------
	BYTE	PATT
	 POIN2	YuNo_FrustrationB_bpat_3_006
// 073   ----------------------------------------
	BYTE	PATT
	 POIN2	YuNo_FrustrationB_bpat_3_007
	BYTE		EOT     Gs3 
	BYTE		        Cn4 
	BYTE		N72     Gn3   v092
	BYTE		N72     As3 
	BYTE	W01
	BYTE	W02
	BYTE	W01
	BYTE	W02
	BYTE	W01
	BYTE	W02
	BYTE	W01
	BYTE	W02
	BYTE	W01
	BYTE	W01
	BYTE	W02
	BYTE	W01
	BYTE	W02
	BYTE	W01
	BYTE	W02
	BYTE	W01
	BYTE	W01
	BYTE	W02
	BYTE	W01
	BYTE	W02
	BYTE	W01
	BYTE	W02
	BYTE	W01
	BYTE	W02
	BYTE	W01
	BYTE	W01
	BYTE	W02
	BYTE	W01
	BYTE	W02
	BYTE	W01
	BYTE	W02
	BYTE	W01
	BYTE	W01
	BYTE	W01
// 074   ----------------------------------------
	BYTE	PATT
	 POIN2	YuNo_FrustrationB_bpat_3_008
// 075   ----------------------------------------
	BYTE	PATT
	 POIN2	YuNo_FrustrationB_bpat_3_009
// 076   ----------------------------------------
	BYTE	PATT
	 POIN2	YuNo_FrustrationB_bpat_3_010
	BYTE		EOT     Cs3 
	BYTE		        Fn3 
	BYTE		N03     Bn3   v112
	BYTE		N03     Ds4 
	BYTE	W06
	BYTE		        As3 
	BYTE		N03     Cs4 
	BYTE	W06
	BYTE		        Gs3 
	BYTE		N03     Bn3 
	BYTE	W06
	BYTE		N03   
	BYTE		N03     Cs4 
	BYTE	W06
// 077   ----------------------------------------
	BYTE	PATT
	 POIN2	YuNo_FrustrationB_bpat_3_011
// 078   ----------------------------------------
	BYTE	PATT
	 POIN2	YuNo_FrustrationB_bpat_3_012
// 079   ----------------------------------------
	BYTE	PATT
	 POIN2	YuNo_FrustrationB_bpat_3_013
// 080   ----------------------------------------
	BYTE	PATT
	 POIN2	YuNo_FrustrationB_bpat_3_014
// 081   ----------------------------------------
	BYTE	PATT
	 POIN2	YuNo_FrustrationB_bpat_3_015
// 082   ----------------------------------------
	BYTE	PATT
	 POIN2	YuNo_FrustrationB_bpat_3_016
// 083   ----------------------------------------
	BYTE	PATT
	 POIN2	YuNo_FrustrationB_bpat_3_017
// 084   ----------------------------------------
	BYTE	W96
// 085   ----------------------------------------
	BYTE	W96
// 086   ----------------------------------------
	BYTE	W96
// 087   ----------------------------------------
	BYTE	W96
// 088   ----------------------------------------
	BYTE	W96
// 089   ----------------------------------------
	BYTE	W96
// 090   ----------------------------------------
	BYTE	W96
// 091   ----------------------------------------
	BYTE	W96
// 092   ----------------------------------------
	BYTE	W96
// 093   ----------------------------------------
	BYTE	W96
// 094   ----------------------------------------
	BYTE	W96
// 095   ----------------------------------------
	BYTE	W96
// 096   ----------------------------------------
	BYTE	W96
// 097   ----------------------------------------
	BYTE	W96
// 098   ----------------------------------------
	BYTE	W96
// 099   ----------------------------------------
	BYTE	W96
// 100   ----------------------------------------
	BYTE	W96
// 101   ----------------------------------------
	BYTE	W96
// 102   ----------------------------------------
	BYTE	W96
// 103   ----------------------------------------
	BYTE	W96
// 104   ----------------------------------------
	BYTE	W96
// 105   ----------------------------------------
	BYTE	W96
// 106   ----------------------------------------
	BYTE	W96
// 107   ----------------------------------------
	BYTE	W96
// 108   ----------------------------------------
	BYTE	FINE

//**************** Track 4 (Midi-Chn.4) ****************//

YuNo_FrustrationB_bpat_4:
	BYTE	KEYSH   YuNo_FrustrationB_bpat_key+0
YuNo_FrustrationB_bpat_4_B1:
// 000   ----------------------------------------
	BYTE		VOICE   29
	BYTE		VOL     45*YuNo_FrustrationB_bpat_mvl/mxv
	BYTE		PAN     c_v-1
	BYTE		N01     As2   v092
	BYTE	W06
	BYTE		N01   
	BYTE	W06
	BYTE		N06     Gs3   v100
	BYTE		N06     Cn4 
	BYTE	W06
	BYTE		N01     As2   v092
	BYTE	W06
	BYTE		N01   
	BYTE	W06
	BYTE		N06     Gs3   v100
	BYTE		N06     Cn4 
	BYTE	W06
	BYTE		N01     As2   v092
	BYTE	W06
	BYTE		N01   
	BYTE	W06
	BYTE		N06     Fs3   v100
	BYTE		N06     As3 
	BYTE	W06
	BYTE		        Gs3   v080
	BYTE		N06     Cn4 
	BYTE	W06
	BYTE		        Gs3   v096
	BYTE		N06     Cn4 
	BYTE	W06
	BYTE		        Gs3   v100
	BYTE		N06     Cn4 
	BYTE	W06
	BYTE		N01     As2   v092
	BYTE	W06
	BYTE		N01   
	BYTE	W06
	BYTE		N12     Gs3   v100
	BYTE		N06     Cn4 
	BYTE	W06
	BYTE		        Cs4 
	BYTE	W06
// 001   ----------------------------------------
YuNo_FrustrationB_bpat_4_001:
	BYTE		N01     As2   v092
	BYTE	W06
	BYTE		N06     Gs3   v100
	BYTE		N06     Cn4 
	BYTE	W06
	BYTE		N01     As2   v092
	BYTE	W06
	BYTE		N01   
	BYTE	W06
	BYTE		N06     Fs3   v100
	BYTE		N06     As3 
	BYTE	W06
	BYTE		        Gs3   v080
	BYTE		N06     Cn4 
	BYTE	W06
	BYTE		        Gs3   v096
	BYTE		N06     Cn4 
	BYTE	W06
	BYTE		        Gs3   v100
	BYTE		N06     Cn4 
	BYTE	W06
	BYTE		N01     As2   v092
	BYTE	W06
	BYTE		N01   
	BYTE	W06
	BYTE		N06     Gs3   v100
	BYTE		N06     Cn4 
	BYTE	W06
	BYTE		N01     As2   v092
	BYTE	W06
	BYTE		N01   
	BYTE	W06
	BYTE		N06     Gs3   v100
	BYTE		N06     Cn4 
	BYTE	W06
	BYTE		N01     As2   v092
	BYTE	W06
	BYTE		N01   
	BYTE	W06
	BYTE	PEND
// 002   ----------------------------------------
YuNo_FrustrationB_bpat_4_002:
	BYTE		N06     Fs3   v100
	BYTE		N06     As3 
	BYTE	W06
	BYTE		        Gs3   v080
	BYTE		N06     Cn4 
	BYTE	W06
	BYTE		        Gs3   v096
	BYTE		N06     Cn4 
	BYTE	W06
	BYTE		        Gs3   v100
	BYTE		N06     Cn4 
	BYTE	W06
	BYTE		N01     As2   v092
	BYTE	W06
	BYTE		N01   
	BYTE	W06
	BYTE		N06     Fs3   v100
	BYTE		N06     As3 
	BYTE	W06
	BYTE		        Gs3   v080
	BYTE		N06     Cn4 
	BYTE	W06
	BYTE		        Gs3   v096
	BYTE		N06     Cn4 
	BYTE	W06
	BYTE		        Gs3   v100
	BYTE		N06     Cn4 
	BYTE	W06
	BYTE		N01     As2   v092
	BYTE	W06
	BYTE		N01   
	BYTE	W06
	BYTE		N06     Fs3   v100
	BYTE		N06     As3 
	BYTE	W06
	BYTE		        Gs3   v080
	BYTE		N06     Cn4 
	BYTE	W06
	BYTE		        Gs3   v096
	BYTE		N06     Cn4 
	BYTE	W06
	BYTE		        Gs3   v100
	BYTE		N06     Cn4 
	BYTE	W06
	BYTE	PEND
// 003   ----------------------------------------
YuNo_FrustrationB_bpat_4_003:
	BYTE		N01     Bn2   v092
	BYTE	W06
	BYTE		N01   
	BYTE	W06
	BYTE		N06     Fs3   v100
	BYTE		N06     Bn3 
	BYTE	W06
	BYTE		N01     Bn2   v092
	BYTE	W06
	BYTE		N01   
	BYTE	W06
	BYTE		N06     Fs3   v100
	BYTE		N06     Bn3 
	BYTE	W06
	BYTE		N01     Bn2   v092
	BYTE	W06
	BYTE		N01   
	BYTE	W06
	BYTE		N06     Fn3   v100
	BYTE		N06     As3 
	BYTE	W06
	BYTE		        Fs3   v080
	BYTE		N06     Bn3 
	BYTE	W06
	BYTE		        Fs3   v096
	BYTE		N06     Bn3 
	BYTE	W06
	BYTE		        Fs3   v100
	BYTE		N06     Bn3 
	BYTE	W06
	BYTE		N01     Bn2   v092
	BYTE	W06
	BYTE		N01   
	BYTE	W06
	BYTE		N12     Fs3   v100
	BYTE		N06     Bn3 
	BYTE	W06
	BYTE		        Cs4 
	BYTE	W06
	BYTE	PEND
// 004   ----------------------------------------
YuNo_FrustrationB_bpat_4_004:
	BYTE		N01     Bn2   v092
	BYTE	W06
	BYTE		N06     Fs3   v100
	BYTE		N06     Bn3 
	BYTE	W06
	BYTE		N01     Bn2   v092
	BYTE	W06
	BYTE		N01   
	BYTE	W06
	BYTE		N06     Fn3   v100
	BYTE		N06     As3 
	BYTE	W06
	BYTE		        Fs3   v080
	BYTE		N06     Bn3 
	BYTE	W06
	BYTE		        Fs3   v096
	BYTE		N06     Bn3 
	BYTE	W06
	BYTE		        Fs3   v100
	BYTE		N06     Bn3 
	BYTE	W06
	BYTE		N01     Bn2   v092
	BYTE	W06
	BYTE		N01   
	BYTE	W06
	BYTE		N06     Fs3   v100
	BYTE		N06     Bn3 
	BYTE	W06
	BYTE		N01     Bn2   v092
	BYTE	W06
	BYTE		N01   
	BYTE	W06
	BYTE		N06     Fs3   v100
	BYTE		N06     Bn3 
	BYTE	W06
	BYTE		N01     Bn2   v092
	BYTE	W06
	BYTE		N01   
	BYTE	W06
	BYTE	PEND
// 005   ----------------------------------------
YuNo_FrustrationB_bpat_4_005:
	BYTE		N06     Fn3   v100
	BYTE		N06     As3 
	BYTE	W06
	BYTE		        Fs3   v080
	BYTE		N06     Bn3 
	BYTE	W06
	BYTE		        Fs3   v096
	BYTE		N06     Bn3 
	BYTE	W06
	BYTE		        Fs3   v100
	BYTE		N06     Bn3 
	BYTE	W06
	BYTE		N01     Bn2   v092
	BYTE	W06
	BYTE		N01   
	BYTE	W06
	BYTE		N06     Fn3   v100
	BYTE		N06     As3 
	BYTE	W06
	BYTE		        Fs3   v080
	BYTE		N06     Bn3 
	BYTE	W06
	BYTE		        Fs3   v096
	BYTE		N06     Bn3 
	BYTE	W06
	BYTE		        Fs3   v100
	BYTE		N06     Bn3 
	BYTE	W06
	BYTE		N01     Bn2   v092
	BYTE	W06
	BYTE		N01   
	BYTE	W06
	BYTE		N06     Fn3   v100
	BYTE		N06     As3 
	BYTE	W06
	BYTE		        Fs3   v080
	BYTE		N06     Bn3 
	BYTE	W06
	BYTE		        Fs3   v096
	BYTE		N06     Bn3 
	BYTE	W06
	BYTE		        Fs3   v100
	BYTE		N06     Bn3 
	BYTE	W06
	BYTE	PEND
// 006   ----------------------------------------
YuNo_FrustrationB_bpat_4_006:
	BYTE		N01     As2   v092
	BYTE	W06
	BYTE		N01   
	BYTE	W06
	BYTE		N06     Gs3   v100
	BYTE		N06     Cn4 
	BYTE	W06
	BYTE		N01     As2   v092
	BYTE	W06
	BYTE		N01   
	BYTE	W06
	BYTE		N06     Gs3   v100
	BYTE		N06     Cn4 
	BYTE	W06
	BYTE		N01     As2   v092
	BYTE	W06
	BYTE		N01   
	BYTE	W06
	BYTE		N06     Fs3   v100
	BYTE		N06     As3 
	BYTE	W06
	BYTE		        Gs3   v080
	BYTE		N06     Cn4 
	BYTE	W06
	BYTE		        Gs3   v096
	BYTE		N06     Cn4 
	BYTE	W06
	BYTE		        Gs3   v100
	BYTE		N06     Cn4 
	BYTE	W06
	BYTE		N01     As2   v092
	BYTE	W06
	BYTE		N01   
	BYTE	W06
	BYTE		N12     Gs3   v100
	BYTE		N06     Cn4 
	BYTE	W06
	BYTE		        Cs4 
	BYTE	W06
	BYTE	PEND
// 007   ----------------------------------------
YuNo_FrustrationB_bpat_4_007:
	BYTE		N01     As2   v092
	BYTE	W06
	BYTE		N06     Gs3   v100
	BYTE		N06     Cn4 
	BYTE	W06
	BYTE		N01     As2   v092
	BYTE	W06
	BYTE		N01   
	BYTE	W06
	BYTE		N06     Fs3   v100
	BYTE		N06     As3 
	BYTE	W06
	BYTE		        Gs3   v080
	BYTE		N06     Cn4 
	BYTE	W06
	BYTE		        Gs3   v096
	BYTE		N06     Cn4 
	BYTE	W06
	BYTE		        Gs3   v100
	BYTE		N06     Cn4 
	BYTE	W06
	BYTE		N01     As2   v092
	BYTE	W06
	BYTE		N01   
	BYTE	W06
	BYTE		N06     Gs3   v100
	BYTE		N06     Cn4 
	BYTE	W06
	BYTE		N01     As2   v092
	BYTE	W06
	BYTE		N01   
	BYTE	W06
	BYTE		N06     Gs3   v100
	BYTE		N06     Cn4 
	BYTE	W06
	BYTE		N01     As2   v092
	BYTE	W06
	BYTE		N01   
	BYTE	W06
	BYTE	PEND
// 008   ----------------------------------------
	BYTE	PATT
	 POIN2	YuNo_FrustrationB_bpat_4_002
// 009   ----------------------------------------
YuNo_FrustrationB_bpat_4_009:
	BYTE		N01     Bn2   v092
	BYTE	W06
	BYTE		N01   
	BYTE	W06
	BYTE		N06     Fs3   v100
	BYTE		N06     Bn3 
	BYTE	W06
	BYTE		N01     Bn2   v092
	BYTE	W06
	BYTE		N01   
	BYTE	W06
	BYTE		N06     Fs3   v100
	BYTE		N06     Bn3 
	BYTE	W06
	BYTE		N01     Bn2   v092
	BYTE	W06
	BYTE		N01   
	BYTE	W06
	BYTE		N06     Fn3   v100
	BYTE		N06     As3 
	BYTE	W06
	BYTE		        Fs3   v080
	BYTE		N06     Bn3 
	BYTE	W06
	BYTE		        Fs3   v096
	BYTE		N06     Bn3 
	BYTE	W06
	BYTE		        Fs3   v100
	BYTE		N06     Bn3 
	BYTE	W06
	BYTE		N01     Bn2   v092
	BYTE	W06
	BYTE		N01   
	BYTE	W06
	BYTE		N12     Fs3   v100
	BYTE		N06     Bn3 
	BYTE	W06
	BYTE		        Cs4 
	BYTE	W06
	BYTE	PEND
// 010   ----------------------------------------
YuNo_FrustrationB_bpat_4_010:
	BYTE		N01     Bn2   v092
	BYTE	W06
	BYTE		N06     Fs3   v100
	BYTE		N06     Bn3 
	BYTE	W06
	BYTE		N01     Bn2   v092
	BYTE	W06
	BYTE		N01   
	BYTE	W06
	BYTE		N06     Fn3   v100
	BYTE		N06     As3 
	BYTE	W06
	BYTE		        Fs3   v080
	BYTE		N06     Bn3 
	BYTE	W06
	BYTE		        Fs3   v096
	BYTE		N06     Bn3 
	BYTE	W06
	BYTE		        Fs3   v100
	BYTE		N06     Bn3 
	BYTE	W06
	BYTE		N01     Bn2   v092
	BYTE	W06
	BYTE		N01   
	BYTE	W06
	BYTE		N06     Fs3   v100
	BYTE		N06     Bn3 
	BYTE	W06
	BYTE		N01     Bn2   v092
	BYTE	W06
	BYTE		N01   
	BYTE	W06
	BYTE		N06     Fs3   v100
	BYTE		N06     Bn3 
	BYTE	W06
	BYTE		N01     Bn2   v092
	BYTE	W06
	BYTE		N01   
	BYTE	W06
	BYTE	PEND
// 011   ----------------------------------------
	BYTE	PATT
	 POIN2	YuNo_FrustrationB_bpat_4_005
// 012   ----------------------------------------
YuNo_FrustrationB_bpat_4_012:
	BYTE		N01     As2   v092
	BYTE	W06
	BYTE		N01   
	BYTE	W06
	BYTE		N06     Gs3   v100
	BYTE		N06     Cn4 
	BYTE	W06
	BYTE		N01     As2   v092
	BYTE	W06
	BYTE		N01   
	BYTE	W06
	BYTE		N06     Gs3   v100
	BYTE		N06     Cn4 
	BYTE	W06
	BYTE		N01     As2   v092
	BYTE	W06
	BYTE		N01   
	BYTE	W06
	BYTE		N06     Fs3   v100
	BYTE		N06     As3 
	BYTE	W06
	BYTE		        Gs3   v080
	BYTE		N06     Cn4 
	BYTE	W06
	BYTE		        Gs3   v096
	BYTE		N06     Cn4 
	BYTE	W06
	BYTE		        Gs3   v100
	BYTE		N06     Cn4 
	BYTE	W06
	BYTE		N01     As2   v092
	BYTE	W06
	BYTE		N01   
	BYTE	W06
	BYTE		N12     Gs3   v100
	BYTE		N06     Cn4 
	BYTE	W06
	BYTE		        Cs4 
	BYTE	W06
	BYTE	PEND
// 013   ----------------------------------------
	BYTE	PATT
	 POIN2	YuNo_FrustrationB_bpat_4_007
// 014   ----------------------------------------
	BYTE	PATT
	 POIN2	YuNo_FrustrationB_bpat_4_002
// 015   ----------------------------------------
YuNo_FrustrationB_bpat_4_015:
	BYTE		N01     Gn2   v092
	BYTE	W06
	BYTE		N01   
	BYTE	W06
	BYTE		N06     Gn3   v100
	BYTE		N06     Bn3 
	BYTE	W06
	BYTE		N01     Gn2   v092
	BYTE	W06
	BYTE		N01   
	BYTE	W06
	BYTE		N06     Gn3   v100
	BYTE		N06     Bn3 
	BYTE	W06
	BYTE		N01     Bn2   v092
	BYTE	W06
	BYTE		N01   
	BYTE	W06
	BYTE		N06     Fn3   v100
	BYTE		N06     An3 
	BYTE	W06
	BYTE		        Gn3   v080
	BYTE		N06     Bn3 
	BYTE	W06
	BYTE		        Gn3   v096
	BYTE		N06     Bn3 
	BYTE	W06
	BYTE		        Gn3   v100
	BYTE		N06     Bn3 
	BYTE	W06
	BYTE		N01     Gn2   v092
	BYTE	W06
	BYTE		N01   
	BYTE	W06
	BYTE		N06     Fn3   v100
	BYTE		N06     An3 
	BYTE	W06
	BYTE		        Gn3   v080
	BYTE		N06     Bn3 
	BYTE	W06
	BYTE	PEND
// 016   ----------------------------------------
YuNo_FrustrationB_bpat_4_016:
	BYTE		N01     Gn2   v092
	BYTE	W06
	BYTE		N01   
	BYTE	W06
	BYTE		N06     Gn3   v100
	BYTE		N06     Bn3 
	BYTE	W06
	BYTE		N01     Gn2   v092
	BYTE	W06
	BYTE		N06     Fn3   v100
	BYTE		N06     An3 
	BYTE	W06
	BYTE		        Gn3   v080
	BYTE		N06     Bn3 
	BYTE	W06
	BYTE		        Gn3   v096
	BYTE		N06     Bn3 
	BYTE	W06
	BYTE		        Gn3   v100
	BYTE		N06     Bn3 
	BYTE	W06
	BYTE		N01     As2   v092
	BYTE	W06
	BYTE		N01   
	BYTE	W06
	BYTE		N06     Fs3   v100
	BYTE		N06     Cn4 
	BYTE	W06
	BYTE		N01     As2   v092
	BYTE	W06
	BYTE		N01   
	BYTE	W06
	BYTE		N06     Fs3   v100
	BYTE		N06     Cn4 
	BYTE	W06
	BYTE		N01     As2   v092
	BYTE	W06
	BYTE		N01   
	BYTE	W06
	BYTE	PEND
// 017   ----------------------------------------
YuNo_FrustrationB_bpat_4_017:
	BYTE		N06     En3   v100
	BYTE		N06     As3 
	BYTE	W06
	BYTE		        Fs3   v080
	BYTE		N06     Cn4 
	BYTE	W06
	BYTE		        Fs3   v096
	BYTE		N06     Cn4 
	BYTE	W06
	BYTE		        Fs3   v100
	BYTE		N06     Cn4 
	BYTE	W06
	BYTE		N01     As2   v092
	BYTE	W06
	BYTE		N01   
	BYTE	W06
	BYTE		N06     Fs3   v100
	BYTE		N06     As3 
	BYTE	W06
	BYTE		        Gs3   v080
	BYTE		N06     Cn4 
	BYTE	W06
	BYTE		        Gs3   v096
	BYTE		N06     Cn4 
	BYTE	W06
	BYTE		        Gs3   v100
	BYTE		N06     Cn4 
	BYTE	W06
	BYTE		N01     As2   v092
	BYTE	W06
	BYTE		N01   
	BYTE	W06
	BYTE		N06     Fs3   v100
	BYTE		N06     As3 
	BYTE	W06
	BYTE		        Gs3   v080
	BYTE		N06     Cn4 
	BYTE	W06
	BYTE		        Gs3   v096
	BYTE		N06     Cn4 
	BYTE	W06
	BYTE		        Gs3   v100
	BYTE		N06     Cn4 
	BYTE	W06
	BYTE	PEND
// 018   ----------------------------------------
	BYTE	PATT
	 POIN2	YuNo_FrustrationB_bpat_4_012
// 019   ----------------------------------------
	BYTE	PATT
	 POIN2	YuNo_FrustrationB_bpat_4_007
// 020   ----------------------------------------
	BYTE	PATT
	 POIN2	YuNo_FrustrationB_bpat_4_002
// 021   ----------------------------------------
	BYTE	PATT
	 POIN2	YuNo_FrustrationB_bpat_4_009
// 022   ----------------------------------------
	BYTE	PATT
	 POIN2	YuNo_FrustrationB_bpat_4_010
// 023   ----------------------------------------
	BYTE	PATT
	 POIN2	YuNo_FrustrationB_bpat_4_005
// 024   ----------------------------------------
	BYTE	PATT
	 POIN2	YuNo_FrustrationB_bpat_4_012
// 025   ----------------------------------------
	BYTE	PATT
	 POIN2	YuNo_FrustrationB_bpat_4_007
// 026   ----------------------------------------
	BYTE	PATT
	 POIN2	YuNo_FrustrationB_bpat_4_002
// 027   ----------------------------------------
	BYTE	PATT
	 POIN2	YuNo_FrustrationB_bpat_4_015
// 028   ----------------------------------------
	BYTE	PATT
	 POIN2	YuNo_FrustrationB_bpat_4_016
// 029   ----------------------------------------
	BYTE	PATT
	 POIN2	YuNo_FrustrationB_bpat_4_017
// 030   ----------------------------------------
	BYTE	W96
// 031   ----------------------------------------
	BYTE	W96
// 032   ----------------------------------------
	BYTE	W96
// 033   ----------------------------------------
	BYTE	W96
// 034   ----------------------------------------
	BYTE	W96
// 035   ----------------------------------------
	BYTE	W96
// 036   ----------------------------------------
	BYTE	W96
// 037   ----------------------------------------
	BYTE	W96
// 038   ----------------------------------------
	BYTE	W96
// 039   ----------------------------------------
	BYTE	W96
// 040   ----------------------------------------
	BYTE	W96
// 041   ----------------------------------------
	BYTE	W96
// 042   ----------------------------------------
	BYTE	W96
// 043   ----------------------------------------
	BYTE	W96
// 044   ----------------------------------------
	BYTE	W96
// 045   ----------------------------------------
	BYTE	W96
// 046   ----------------------------------------
	BYTE	W96
// 047   ----------------------------------------
	BYTE	W96
// 048   ----------------------------------------
	BYTE	W96
// 049   ----------------------------------------
	BYTE	W96
// 050   ----------------------------------------
	BYTE	W96
// 051   ----------------------------------------
	BYTE	W96
// 052   ----------------------------------------
	BYTE	W96
// 053   ----------------------------------------
	BYTE	W96
	BYTE	GoTo
	 POIN2	YuNo_FrustrationB_bpat_4_B1
YuNo_FrustrationB_bpat_4_B2:
// 054   ----------------------------------------
	BYTE		N01     As2   v092
	BYTE	W06
	BYTE		N01   
	BYTE	W06
	BYTE		N06     Gs3   v100
	BYTE		N06     Cn4 
	BYTE	W06
	BYTE		N01     As2   v092
	BYTE	W06
	BYTE		N01   
	BYTE	W06
	BYTE		N06     Gs3   v100
	BYTE		N06     Cn4 
	BYTE	W06
	BYTE		N01     As2   v092
	BYTE	W06
	BYTE		N01   
	BYTE	W06
	BYTE		N06     Fs3   v100
	BYTE		N06     As3 
	BYTE	W06
	BYTE		        Gs3   v080
	BYTE		N06     Cn4 
	BYTE	W06
	BYTE		        Gs3   v096
	BYTE		N06     Cn4 
	BYTE	W06
	BYTE		        Gs3   v100
	BYTE		N06     Cn4 
	BYTE	W06
	BYTE		N01     As2   v092
	BYTE	W06
	BYTE		N01   
	BYTE	W06
	BYTE		N12     Gs3   v100
	BYTE		N06     Cn4 
	BYTE	W06
	BYTE		        Cs4 
	BYTE	W06
// 055   ----------------------------------------
	BYTE	PATT
	 POIN2	YuNo_FrustrationB_bpat_4_001
// 056   ----------------------------------------
	BYTE	PATT
	 POIN2	YuNo_FrustrationB_bpat_4_002
// 057   ----------------------------------------
	BYTE	PATT
	 POIN2	YuNo_FrustrationB_bpat_4_003
// 058   ----------------------------------------
	BYTE	PATT
	 POIN2	YuNo_FrustrationB_bpat_4_004
// 059   ----------------------------------------
	BYTE	PATT
	 POIN2	YuNo_FrustrationB_bpat_4_005
// 060   ----------------------------------------
	BYTE	PATT
	 POIN2	YuNo_FrustrationB_bpat_4_006
// 061   ----------------------------------------
	BYTE	PATT
	 POIN2	YuNo_FrustrationB_bpat_4_007
// 062   ----------------------------------------
	BYTE	PATT
	 POIN2	YuNo_FrustrationB_bpat_4_002
// 063   ----------------------------------------
	BYTE	PATT
	 POIN2	YuNo_FrustrationB_bpat_4_009
// 064   ----------------------------------------
	BYTE	PATT
	 POIN2	YuNo_FrustrationB_bpat_4_010
// 065   ----------------------------------------
	BYTE	PATT
	 POIN2	YuNo_FrustrationB_bpat_4_005
// 066   ----------------------------------------
	BYTE	PATT
	 POIN2	YuNo_FrustrationB_bpat_4_012
// 067   ----------------------------------------
	BYTE	PATT
	 POIN2	YuNo_FrustrationB_bpat_4_007
// 068   ----------------------------------------
	BYTE	PATT
	 POIN2	YuNo_FrustrationB_bpat_4_002
// 069   ----------------------------------------
	BYTE	PATT
	 POIN2	YuNo_FrustrationB_bpat_4_015
// 070   ----------------------------------------
	BYTE	PATT
	 POIN2	YuNo_FrustrationB_bpat_4_016
// 071   ----------------------------------------
	BYTE	PATT
	 POIN2	YuNo_FrustrationB_bpat_4_017
// 072   ----------------------------------------
	BYTE	PATT
	 POIN2	YuNo_FrustrationB_bpat_4_012
// 073   ----------------------------------------
	BYTE	PATT
	 POIN2	YuNo_FrustrationB_bpat_4_007
// 074   ----------------------------------------
	BYTE	PATT
	 POIN2	YuNo_FrustrationB_bpat_4_002
// 075   ----------------------------------------
	BYTE	PATT
	 POIN2	YuNo_FrustrationB_bpat_4_009
// 076   ----------------------------------------
	BYTE	PATT
	 POIN2	YuNo_FrustrationB_bpat_4_010
// 077   ----------------------------------------
	BYTE	PATT
	 POIN2	YuNo_FrustrationB_bpat_4_005
// 078   ----------------------------------------
	BYTE	PATT
	 POIN2	YuNo_FrustrationB_bpat_4_012
// 079   ----------------------------------------
	BYTE	PATT
	 POIN2	YuNo_FrustrationB_bpat_4_007
// 080   ----------------------------------------
	BYTE	PATT
	 POIN2	YuNo_FrustrationB_bpat_4_002
// 081   ----------------------------------------
	BYTE	PATT
	 POIN2	YuNo_FrustrationB_bpat_4_015
// 082   ----------------------------------------
	BYTE	PATT
	 POIN2	YuNo_FrustrationB_bpat_4_016
// 083   ----------------------------------------
	BYTE	PATT
	 POIN2	YuNo_FrustrationB_bpat_4_017
// 084   ----------------------------------------
	BYTE	W96
// 085   ----------------------------------------
	BYTE	W96
// 086   ----------------------------------------
	BYTE	W96
// 087   ----------------------------------------
	BYTE	W96
// 088   ----------------------------------------
	BYTE	W96
// 089   ----------------------------------------
	BYTE	W96
// 090   ----------------------------------------
	BYTE	W96
// 091   ----------------------------------------
	BYTE	W96
// 092   ----------------------------------------
	BYTE	W96
// 093   ----------------------------------------
	BYTE	W96
// 094   ----------------------------------------
	BYTE	W96
// 095   ----------------------------------------
	BYTE	W96
// 096   ----------------------------------------
	BYTE	W96
// 097   ----------------------------------------
	BYTE	W96
// 098   ----------------------------------------
	BYTE	W96
// 099   ----------------------------------------
	BYTE	W96
// 100   ----------------------------------------
	BYTE	W96
// 101   ----------------------------------------
	BYTE	W96
// 102   ----------------------------------------
	BYTE	W96
// 103   ----------------------------------------
	BYTE	W96
// 104   ----------------------------------------
	BYTE	W96
// 105   ----------------------------------------
	BYTE	W96
// 106   ----------------------------------------
	BYTE	W96
// 107   ----------------------------------------
	BYTE	W96
// 108   ----------------------------------------
	BYTE	FINE

//**************** Track 5 (Midi-Chn.5) ****************//

YuNo_FrustrationB_bpat_5:
	BYTE	KEYSH   YuNo_FrustrationB_bpat_key+0
YuNo_FrustrationB_bpat_5_B1:
// 000   ----------------------------------------
	BYTE		VOICE   38
	BYTE		PAN     c_v+0
	BYTE		VOL     54*YuNo_FrustrationB_bpat_mvl/mxv
	BYTE	W96
// 001   ----------------------------------------
	BYTE	W48
	BYTE		        54*YuNo_FrustrationB_bpat_mvl/mxv
	BYTE	W48
// 002   ----------------------------------------
	BYTE	W96
// 003   ----------------------------------------
	BYTE		        54*YuNo_FrustrationB_bpat_mvl/mxv
	BYTE	W96
// 004   ----------------------------------------
	BYTE	W48
	BYTE		        54*YuNo_FrustrationB_bpat_mvl/mxv
	BYTE	W48
// 005   ----------------------------------------
	BYTE	W96
// 006   ----------------------------------------
	BYTE		        54*YuNo_FrustrationB_bpat_mvl/mxv
	BYTE	W96
// 007   ----------------------------------------
	BYTE	W48
	BYTE		        54*YuNo_FrustrationB_bpat_mvl/mxv
	BYTE	W48
// 008   ----------------------------------------
	BYTE	W96
// 009   ----------------------------------------
	BYTE		        54*YuNo_FrustrationB_bpat_mvl/mxv
	BYTE	W96
// 010   ----------------------------------------
	BYTE	W48
	BYTE		        54*YuNo_FrustrationB_bpat_mvl/mxv
	BYTE	W48
// 011   ----------------------------------------
	BYTE	W96
// 012   ----------------------------------------
	BYTE		        54*YuNo_FrustrationB_bpat_mvl/mxv
	BYTE	W96
// 013   ----------------------------------------
	BYTE	W48
	BYTE		        54*YuNo_FrustrationB_bpat_mvl/mxv
	BYTE	W48
// 014   ----------------------------------------
	BYTE	W96
// 015   ----------------------------------------
	BYTE		        54*YuNo_FrustrationB_bpat_mvl/mxv
	BYTE	W96
// 016   ----------------------------------------
	BYTE	W48
	BYTE		        54*YuNo_FrustrationB_bpat_mvl/mxv
	BYTE	W48
// 017   ----------------------------------------
	BYTE	W96
// 018   ----------------------------------------
	BYTE		        54*YuNo_FrustrationB_bpat_mvl/mxv
	BYTE	W96
// 019   ----------------------------------------
	BYTE	W48
	BYTE		        54*YuNo_FrustrationB_bpat_mvl/mxv
	BYTE	W48
// 020   ----------------------------------------
	BYTE	W96
// 021   ----------------------------------------
	BYTE		        54*YuNo_FrustrationB_bpat_mvl/mxv
	BYTE	W96
// 022   ----------------------------------------
	BYTE	W48
	BYTE		        54*YuNo_FrustrationB_bpat_mvl/mxv
	BYTE	W48
// 023   ----------------------------------------
	BYTE	W96
// 024   ----------------------------------------
	BYTE		        54*YuNo_FrustrationB_bpat_mvl/mxv
	BYTE	W96
// 025   ----------------------------------------
	BYTE	W48
	BYTE		        54*YuNo_FrustrationB_bpat_mvl/mxv
	BYTE	W48
// 026   ----------------------------------------
	BYTE	W96
// 027   ----------------------------------------
	BYTE		        54*YuNo_FrustrationB_bpat_mvl/mxv
	BYTE	W96
// 028   ----------------------------------------
	BYTE	W48
	BYTE		        54*YuNo_FrustrationB_bpat_mvl/mxv
	BYTE	W48
// 029   ----------------------------------------
	BYTE	W96
// 030   ----------------------------------------
YuNo_FrustrationB_bpat_5_030:
	BYTE		N06     As1   v112
	BYTE	W06
	BYTE		N06   
	BYTE	W06
	BYTE		N03     As0   v092
	BYTE	W06
	BYTE		N06     As1   v112
	BYTE	W06
	BYTE		N06   
	BYTE	W06
	BYTE		N03     As0   v092
	BYTE	W06
	BYTE		N06     As1   v112
	BYTE	W06
	BYTE		N06   
	BYTE	W06
	BYTE		N03     As0   v092
	BYTE	W06
	BYTE		N06     As1   v112
	BYTE	W06
	BYTE		N06   
	BYTE	W06
	BYTE		N03     As0   v092
	BYTE	W06
	BYTE		N06     As1   v112
	BYTE	W06
	BYTE		N06   
	BYTE	W06
	BYTE		N03     As0   v092
	BYTE	W06
	BYTE		N06     As1   v112
	BYTE	W06
	BYTE	PEND
// 031   ----------------------------------------
YuNo_FrustrationB_bpat_5_031:
	BYTE		N06     As1   v112
	BYTE	W06
	BYTE		N03     As0   v092
	BYTE	W06
	BYTE		N06     As1   v112
	BYTE	W06
	BYTE		N06   
	BYTE	W06
	BYTE		N03     As0   v092
	BYTE	W06
	BYTE		N06     As1   v112
	BYTE	W06
	BYTE		N06   
	BYTE	W06
	BYTE		N03     As0   v092
	BYTE	W06
	BYTE		VOL     56*YuNo_FrustrationB_bpat_mvl/mxv
	BYTE		N06     As0   v112
	BYTE	W06
	BYTE		N06   
	BYTE	W06
	BYTE		N03     AsM1  v092
	BYTE	W06
	BYTE		N06     As0   v112
	BYTE	W06
	BYTE		N06   
	BYTE	W06
	BYTE		N03     AsM1  v092
	BYTE	W06
	BYTE		N06     As0   v112
	BYTE	W06
	BYTE		N06   
	BYTE	W06
	BYTE	PEND
// 032   ----------------------------------------
YuNo_FrustrationB_bpat_5_032:
	BYTE		N03     AsM1  v092
	BYTE	W06
	BYTE		N06     As0   v112
	BYTE	W06
	BYTE		N06   
	BYTE	W06
	BYTE		N03     AsM1  v092
	BYTE	W06
	BYTE		N06     As0   v112
	BYTE	W06
	BYTE		N06   
	BYTE	W06
	BYTE		N03     AsM1  v092
	BYTE	W06
	BYTE		N06     As0   v112
	BYTE	W06
	BYTE		N06   
	BYTE	W06
	BYTE		N03     AsM1  v092
	BYTE	W06
	BYTE		N06     As0   v112
	BYTE	W06
	BYTE		N06   
	BYTE	W06
	BYTE		N03     AsM1  v092
	BYTE	W06
	BYTE		N06     As0   v112
	BYTE	W06
	BYTE		N06   
	BYTE	W06
	BYTE		N03     AsM1  v092
	BYTE	W06
	BYTE	PEND
// 033   ----------------------------------------
YuNo_FrustrationB_bpat_5_033:
	BYTE		VOL     54*YuNo_FrustrationB_bpat_mvl/mxv
	BYTE		N06     Gs1   v112
	BYTE	W06
	BYTE		N06   
	BYTE	W06
	BYTE		N03     Gs0   v092
	BYTE	W06
	BYTE		N06     Gs1   v112
	BYTE	W06
	BYTE		N06   
	BYTE	W06
	BYTE		N03     Gs0   v092
	BYTE	W06
	BYTE		N06     Gs1   v112
	BYTE	W06
	BYTE		N06   
	BYTE	W06
	BYTE		N03     Gs0   v092
	BYTE	W06
	BYTE		N06     Gs1   v112
	BYTE	W06
	BYTE		N06   
	BYTE	W06
	BYTE		N03     Gs0   v092
	BYTE	W06
	BYTE		N06     Gs1   v112
	BYTE	W06
	BYTE		N06   
	BYTE	W06
	BYTE		N03     Gs0   v092
	BYTE	W06
	BYTE		N06     Gs1   v112
	BYTE	W06
	BYTE	PEND
// 034   ----------------------------------------
YuNo_FrustrationB_bpat_5_034:
	BYTE		N06     Gs1   v112
	BYTE	W06
	BYTE		N03     Gs0   v092
	BYTE	W06
	BYTE		N06     Gs1   v112
	BYTE	W06
	BYTE		N06   
	BYTE	W06
	BYTE		N03     Gs0   v092
	BYTE	W06
	BYTE		N06     Gs1   v112
	BYTE	W06
	BYTE		N06   
	BYTE	W06
	BYTE		N03     Gs0   v092
	BYTE	W06
	BYTE		VOL     58*YuNo_FrustrationB_bpat_mvl/mxv
	BYTE		N06     Gs0   v112
	BYTE	W06
	BYTE		N06   
	BYTE	W06
	BYTE		N03     GsM1  v092
	BYTE	W06
	BYTE		N06     Gs0   v112
	BYTE	W06
	BYTE		N06   
	BYTE	W06
	BYTE		N03     GsM1  v092
	BYTE	W06
	BYTE		N06     Gs0   v112
	BYTE	W06
	BYTE		N06   
	BYTE	W06
	BYTE	PEND
// 035   ----------------------------------------
YuNo_FrustrationB_bpat_5_035:
	BYTE		N03     GsM1  v092
	BYTE	W06
	BYTE		N06     Gs0   v112
	BYTE	W06
	BYTE		N06   
	BYTE	W06
	BYTE		N03     GsM1  v092
	BYTE	W06
	BYTE		N06     Gs0   v112
	BYTE	W06
	BYTE		N06   
	BYTE	W06
	BYTE		N03     GsM1  v092
	BYTE	W06
	BYTE		N06     Gs0   v112
	BYTE	W06
	BYTE		N06   
	BYTE	W06
	BYTE		N03     GsM1  v092
	BYTE	W06
	BYTE		N06     Gs0   v112
	BYTE	W06
	BYTE		N06   
	BYTE	W06
	BYTE		N03     GsM1  v092
	BYTE	W06
	BYTE		N06     Gs0   v112
	BYTE	W06
	BYTE		N06   
	BYTE	W06
	BYTE		N03     GsM1  v092
	BYTE	W06
	BYTE	PEND
// 036   ----------------------------------------
YuNo_FrustrationB_bpat_5_036:
	BYTE		N06     Ds1   v112
	BYTE	W06
	BYTE		N06   
	BYTE	W06
	BYTE		N03     Ds0   v092
	BYTE	W06
	BYTE		N06     Ds1   v112
	BYTE	W06
	BYTE		N06   
	BYTE	W06
	BYTE		N03     Ds0   v092
	BYTE	W06
	BYTE		N06     Ds1   v112
	BYTE	W06
	BYTE		N06   
	BYTE	W06
	BYTE		N03     Ds0   v092
	BYTE	W06
	BYTE		N06     Ds1   v112
	BYTE	W06
	BYTE		N06   
	BYTE	W06
	BYTE		N03     Ds0   v092
	BYTE	W06
	BYTE		N06     Ds1   v112
	BYTE	W06
	BYTE		N06   
	BYTE	W06
	BYTE		N03     Ds0   v096
	BYTE	W06
	BYTE		N06     Ds1   v112
	BYTE	W06
	BYTE	PEND
// 037   ----------------------------------------
YuNo_FrustrationB_bpat_5_037:
	BYTE		N06     Ds1   v112
	BYTE	W06
	BYTE		N03     Ds0   v092
	BYTE	W06
	BYTE		N06     Ds1   v112
	BYTE	W06
	BYTE		N06   
	BYTE	W06
	BYTE		N03     Ds0   v092
	BYTE	W06
	BYTE		N06     Ds1   v112
	BYTE	W06
	BYTE		N06   
	BYTE	W06
	BYTE		N03     Ds0   v092
	BYTE	W06
	BYTE		N06     Ds0   v112
	BYTE	W06
	BYTE		N06   
	BYTE	W06
	BYTE		N03     DsM1  v092
	BYTE	W06
	BYTE		N06     Ds0   v112
	BYTE	W06
	BYTE		N06   
	BYTE	W06
	BYTE		N03     DsM1  v092
	BYTE	W06
	BYTE		N06     Ds0   v112
	BYTE	W06
	BYTE		N06   
	BYTE	W06
	BYTE	PEND
// 038   ----------------------------------------
YuNo_FrustrationB_bpat_5_038:
	BYTE		N03     DsM1  v092
	BYTE	W06
	BYTE		N06     Ds0   v112
	BYTE	W06
	BYTE		N06   
	BYTE	W06
	BYTE		N03     DsM1  v092
	BYTE	W06
	BYTE		N06     Ds0   v112
	BYTE	W06
	BYTE		N06   
	BYTE	W06
	BYTE		N03     DsM1  v092
	BYTE	W06
	BYTE		N06     Ds0   v112
	BYTE	W06
	BYTE		N06   
	BYTE	W06
	BYTE		N03     DsM1  v092
	BYTE	W06
	BYTE		N06     Ds0   v112
	BYTE	W06
	BYTE		N06   
	BYTE	W06
	BYTE		N03     DsM1  v092
	BYTE	W06
	BYTE		N06     Ds0   v112
	BYTE	W06
	BYTE		N06   
	BYTE	W06
	BYTE		N03     DsM1  v092
	BYTE	W06
	BYTE	PEND
// 039   ----------------------------------------
YuNo_FrustrationB_bpat_5_039:
	BYTE		N06     Fs1   v112
	BYTE	W06
	BYTE		N06   
	BYTE	W06
	BYTE		N03     Fs0   v092
	BYTE	W06
	BYTE		N06     Fs1   v112
	BYTE	W06
	BYTE		N06   
	BYTE	W06
	BYTE		N03     Fs0   v092
	BYTE	W06
	BYTE		N06     Fs1   v112
	BYTE	W06
	BYTE		N06   
	BYTE	W06
	BYTE		N03     Fs0   v092
	BYTE	W06
	BYTE		N06     Fs1   v112
	BYTE	W06
	BYTE		N06   
	BYTE	W06
	BYTE		N03     Fs0   v092
	BYTE	W06
	BYTE		N06     Fs1   v112
	BYTE	W06
	BYTE		N06   
	BYTE	W06
	BYTE		N03     Fs0   v092
	BYTE	W06
	BYTE		N06     Fs1   v112
	BYTE	W06
	BYTE	PEND
// 040   ----------------------------------------
YuNo_FrustrationB_bpat_5_040:
	BYTE		N06     Fs1   v112
	BYTE	W06
	BYTE		N03     Fs0   v092
	BYTE	W06
	BYTE		N06     Fs1   v112
	BYTE	W06
	BYTE		N06   
	BYTE	W06
	BYTE		N03     Fs0   v092
	BYTE	W06
	BYTE		N06     Fs1   v112
	BYTE	W06
	BYTE		N06   
	BYTE	W06
	BYTE		N03     Fs0   v092
	BYTE	W06
	BYTE		N06     Fn1   v112
	BYTE	W06
	BYTE		N06   
	BYTE	W06
	BYTE		N03     Fn0   v092
	BYTE	W06
	BYTE		N06     Fn1   v112
	BYTE	W06
	BYTE		N06   
	BYTE	W06
	BYTE		N03     Fn0   v092
	BYTE	W06
	BYTE		N06     Fn1   v112
	BYTE	W06
	BYTE		N06   
	BYTE	W06
	BYTE	PEND
// 041   ----------------------------------------
YuNo_FrustrationB_bpat_5_041:
	BYTE		N03     Fn0   v092
	BYTE	W06
	BYTE		N06     Fn1   v112
	BYTE	W06
	BYTE		N06   
	BYTE	W06
	BYTE		N03     Fn0   v092
	BYTE	W06
	BYTE		N06     Fn1   v112
	BYTE	W06
	BYTE		N06   
	BYTE	W06
	BYTE		N03     Fn0   v092
	BYTE	W06
	BYTE		N06     Fn1   v112
	BYTE	W06
	BYTE		N06   
	BYTE	W06
	BYTE		N03     Fn0   v092
	BYTE	W06
	BYTE		N06     Fn1   v112
	BYTE	W06
	BYTE		N06   
	BYTE	W06
	BYTE		N03     Fn0   v092
	BYTE	W06
	BYTE		N06     Fn1   v112
	BYTE	W06
	BYTE		N06   
	BYTE	W06
	BYTE		N03     Fn0   v092
	BYTE	W06
	BYTE	PEND
// 042   ----------------------------------------
	BYTE	PATT
	 POIN2	YuNo_FrustrationB_bpat_5_030
// 043   ----------------------------------------
	BYTE	PATT
	 POIN2	YuNo_FrustrationB_bpat_5_031
// 044   ----------------------------------------
	BYTE	PATT
	 POIN2	YuNo_FrustrationB_bpat_5_032
// 045   ----------------------------------------
	BYTE	PATT
	 POIN2	YuNo_FrustrationB_bpat_5_033
// 046   ----------------------------------------
	BYTE	PATT
	 POIN2	YuNo_FrustrationB_bpat_5_034
// 047   ----------------------------------------
	BYTE	PATT
	 POIN2	YuNo_FrustrationB_bpat_5_035
// 048   ----------------------------------------
	BYTE	PATT
	 POIN2	YuNo_FrustrationB_bpat_5_036
// 049   ----------------------------------------
	BYTE	PATT
	 POIN2	YuNo_FrustrationB_bpat_5_037
// 050   ----------------------------------------
	BYTE	PATT
	 POIN2	YuNo_FrustrationB_bpat_5_038
// 051   ----------------------------------------
	BYTE	PATT
	 POIN2	YuNo_FrustrationB_bpat_5_039
// 052   ----------------------------------------
	BYTE	PATT
	 POIN2	YuNo_FrustrationB_bpat_5_040
// 053   ----------------------------------------
	BYTE	PATT
	 POIN2	YuNo_FrustrationB_bpat_5_041
	BYTE	GoTo
	 POIN2	YuNo_FrustrationB_bpat_5_B1
YuNo_FrustrationB_bpat_5_B2:
// 054   ----------------------------------------
	BYTE		VOL     54*YuNo_FrustrationB_bpat_mvl/mxv
	BYTE	W96
// 055   ----------------------------------------
	BYTE	W48
	BYTE		        54*YuNo_FrustrationB_bpat_mvl/mxv
	BYTE	W48
// 056   ----------------------------------------
	BYTE	W96
// 057   ----------------------------------------
	BYTE		        54*YuNo_FrustrationB_bpat_mvl/mxv
	BYTE	W96
// 058   ----------------------------------------
	BYTE	W48
	BYTE		        54*YuNo_FrustrationB_bpat_mvl/mxv
	BYTE	W48
// 059   ----------------------------------------
	BYTE	W96
// 060   ----------------------------------------
	BYTE		        54*YuNo_FrustrationB_bpat_mvl/mxv
	BYTE	W96
// 061   ----------------------------------------
	BYTE	W48
	BYTE		        54*YuNo_FrustrationB_bpat_mvl/mxv
	BYTE	W48
// 062   ----------------------------------------
	BYTE	W96
// 063   ----------------------------------------
	BYTE		        54*YuNo_FrustrationB_bpat_mvl/mxv
	BYTE	W96
// 064   ----------------------------------------
	BYTE	W48
	BYTE		        54*YuNo_FrustrationB_bpat_mvl/mxv
	BYTE	W48
// 065   ----------------------------------------
	BYTE	W96
// 066   ----------------------------------------
	BYTE		        54*YuNo_FrustrationB_bpat_mvl/mxv
	BYTE	W96
// 067   ----------------------------------------
	BYTE	W48
	BYTE		        54*YuNo_FrustrationB_bpat_mvl/mxv
	BYTE	W48
// 068   ----------------------------------------
	BYTE	W96
// 069   ----------------------------------------
	BYTE		        54*YuNo_FrustrationB_bpat_mvl/mxv
	BYTE	W96
// 070   ----------------------------------------
	BYTE	W48
	BYTE		        54*YuNo_FrustrationB_bpat_mvl/mxv
	BYTE	W48
// 071   ----------------------------------------
	BYTE	W96
// 072   ----------------------------------------
	BYTE		        54*YuNo_FrustrationB_bpat_mvl/mxv
	BYTE	W96
// 073   ----------------------------------------
	BYTE	W48
	BYTE		        54*YuNo_FrustrationB_bpat_mvl/mxv
	BYTE	W48
// 074   ----------------------------------------
	BYTE	W96
// 075   ----------------------------------------
	BYTE		        54*YuNo_FrustrationB_bpat_mvl/mxv
	BYTE	W96
// 076   ----------------------------------------
	BYTE	W48
	BYTE		        54*YuNo_FrustrationB_bpat_mvl/mxv
	BYTE	W48
// 077   ----------------------------------------
	BYTE	W96
// 078   ----------------------------------------
	BYTE		        54*YuNo_FrustrationB_bpat_mvl/mxv
	BYTE	W96
// 079   ----------------------------------------
	BYTE	W48
	BYTE		        54*YuNo_FrustrationB_bpat_mvl/mxv
	BYTE	W48
// 080   ----------------------------------------
	BYTE	W96
// 081   ----------------------------------------
	BYTE		        54*YuNo_FrustrationB_bpat_mvl/mxv
	BYTE	W96
// 082   ----------------------------------------
	BYTE	W48
	BYTE		        54*YuNo_FrustrationB_bpat_mvl/mxv
	BYTE	W48
// 083   ----------------------------------------
	BYTE	W96
// 084   ----------------------------------------
	BYTE	PATT
	 POIN2	YuNo_FrustrationB_bpat_5_030
// 085   ----------------------------------------
	BYTE	PATT
	 POIN2	YuNo_FrustrationB_bpat_5_031
// 086   ----------------------------------------
	BYTE	PATT
	 POIN2	YuNo_FrustrationB_bpat_5_032
// 087   ----------------------------------------
	BYTE	PATT
	 POIN2	YuNo_FrustrationB_bpat_5_033
// 088   ----------------------------------------
	BYTE	PATT
	 POIN2	YuNo_FrustrationB_bpat_5_034
// 089   ----------------------------------------
	BYTE	PATT
	 POIN2	YuNo_FrustrationB_bpat_5_035
// 090   ----------------------------------------
	BYTE	PATT
	 POIN2	YuNo_FrustrationB_bpat_5_036
// 091   ----------------------------------------
	BYTE	PATT
	 POIN2	YuNo_FrustrationB_bpat_5_037
// 092   ----------------------------------------
	BYTE	PATT
	 POIN2	YuNo_FrustrationB_bpat_5_038
// 093   ----------------------------------------
	BYTE	PATT
	 POIN2	YuNo_FrustrationB_bpat_5_039
// 094   ----------------------------------------
	BYTE	PATT
	 POIN2	YuNo_FrustrationB_bpat_5_040
// 095   ----------------------------------------
	BYTE	PATT
	 POIN2	YuNo_FrustrationB_bpat_5_041
// 096   ----------------------------------------
	BYTE	PATT
	 POIN2	YuNo_FrustrationB_bpat_5_030
// 097   ----------------------------------------
	BYTE	PATT
	 POIN2	YuNo_FrustrationB_bpat_5_031
// 098   ----------------------------------------
	BYTE	PATT
	 POIN2	YuNo_FrustrationB_bpat_5_032
// 099   ----------------------------------------
	BYTE	PATT
	 POIN2	YuNo_FrustrationB_bpat_5_033
// 100   ----------------------------------------
	BYTE	PATT
	 POIN2	YuNo_FrustrationB_bpat_5_034
// 101   ----------------------------------------
	BYTE	PATT
	 POIN2	YuNo_FrustrationB_bpat_5_035
// 102   ----------------------------------------
	BYTE	PATT
	 POIN2	YuNo_FrustrationB_bpat_5_036
// 103   ----------------------------------------
	BYTE	PATT
	 POIN2	YuNo_FrustrationB_bpat_5_037
// 104   ----------------------------------------
	BYTE	PATT
	 POIN2	YuNo_FrustrationB_bpat_5_038
// 105   ----------------------------------------
	BYTE	PATT
	 POIN2	YuNo_FrustrationB_bpat_5_039
// 106   ----------------------------------------
	BYTE	PATT
	 POIN2	YuNo_FrustrationB_bpat_5_040
// 107   ----------------------------------------
	BYTE	PATT
	 POIN2	YuNo_FrustrationB_bpat_5_041
// 108   ----------------------------------------
	BYTE	FINE

//**************** Track 6 (Midi-Chn.6) ****************//

YuNo_FrustrationB_bpat_6:
	BYTE	KEYSH   YuNo_FrustrationB_bpat_key+0
YuNo_FrustrationB_bpat_6_B1:
// 000   ----------------------------------------
	BYTE		VOICE   81
	BYTE		VOL     45*YuNo_FrustrationB_bpat_mvl/mxv
	BYTE		PAN     c_v+0
	BYTE	W96
// 001   ----------------------------------------
	BYTE	W96
// 002   ----------------------------------------
	BYTE	W96
// 003   ----------------------------------------
	BYTE	W96
// 004   ----------------------------------------
	BYTE	W96
// 005   ----------------------------------------
	BYTE	W96
// 006   ----------------------------------------
	BYTE	W96
// 007   ----------------------------------------
	BYTE	W96
// 008   ----------------------------------------
	BYTE	W96
// 009   ----------------------------------------
	BYTE	W96
// 010   ----------------------------------------
	BYTE	W96
// 011   ----------------------------------------
	BYTE	W96
// 012   ----------------------------------------
	BYTE	W96
// 013   ----------------------------------------
	BYTE	W96
// 014   ----------------------------------------
	BYTE	W96
// 015   ----------------------------------------
	BYTE	W96
// 016   ----------------------------------------
	BYTE	W96
// 017   ----------------------------------------
	BYTE	W96
// 018   ----------------------------------------
	BYTE	W96
// 019   ----------------------------------------
	BYTE	W96
// 020   ----------------------------------------
	BYTE	W96
// 021   ----------------------------------------
	BYTE	W96
// 022   ----------------------------------------
	BYTE	W96
// 023   ----------------------------------------
	BYTE	W96
// 024   ----------------------------------------
	BYTE	W96
// 025   ----------------------------------------
	BYTE	W96
// 026   ----------------------------------------
	BYTE	W96
// 027   ----------------------------------------
	BYTE	W96
// 028   ----------------------------------------
	BYTE	W96
// 029   ----------------------------------------
	BYTE	W96
// 030   ----------------------------------------
YuNo_FrustrationB_bpat_6_030:
	BYTE		N03     As3   v100
	BYTE	W12
	BYTE		        Fn3 
	BYTE	W12
	BYTE		        Ds3 
	BYTE	W12
	BYTE		        Cs3 
	BYTE	W06
	BYTE		        Cn3 
	BYTE	W12
	BYTE		        Cs3 
	BYTE	W06
	BYTE		        As2 
	BYTE	W12
	BYTE		        As3 
	BYTE	W12
	BYTE		        Fn3 
	BYTE	W12
	BYTE	PEND
// 031   ----------------------------------------
YuNo_FrustrationB_bpat_6_031:
	BYTE		N03     Ds3   v100
	BYTE	W12
	BYTE		        Cs3 
	BYTE	W06
	BYTE		        Cn3 
	BYTE	W12
	BYTE		        Cs3 
	BYTE	W06
	BYTE		        As2 
	BYTE	W12
	BYTE		        As3 
	BYTE	W12
	BYTE		        Fn3 
	BYTE	W12
	BYTE		        Ds3 
	BYTE	W12
	BYTE		        Cs3 
	BYTE	W06
	BYTE		        Cn3 
	BYTE	W06
	BYTE	PEND
// 032   ----------------------------------------
YuNo_FrustrationB_bpat_6_032:
	BYTE	W06
	BYTE		N03     Cs3   v100
	BYTE	W06
	BYTE		        As2 
	BYTE	W12
	BYTE		        As3 
	BYTE	W12
	BYTE		        Fn3 
	BYTE	W12
	BYTE		        Ds3 
	BYTE	W12
	BYTE		        Cs3 
	BYTE	W06
	BYTE		        Cn3 
	BYTE	W12
	BYTE		        Cs3 
	BYTE	W06
	BYTE		        As2 
	BYTE	W12
	BYTE	PEND
// 033   ----------------------------------------
YuNo_FrustrationB_bpat_6_033:
	BYTE		N03     As3   v100
	BYTE	W12
	BYTE		        Fn3 
	BYTE	W12
	BYTE		        Ds3 
	BYTE	W12
	BYTE		        Cs3 
	BYTE	W06
	BYTE		        Cn3 
	BYTE	W12
	BYTE		        Cs3 
	BYTE	W06
	BYTE		        As2 
	BYTE	W12
	BYTE		        As3 
	BYTE	W12
	BYTE		        Fn3 
	BYTE	W12
	BYTE	PEND
// 034   ----------------------------------------
YuNo_FrustrationB_bpat_6_034:
	BYTE		N03     Ds3   v100
	BYTE	W12
	BYTE		        Cs3 
	BYTE	W06
	BYTE		        Cn3 
	BYTE	W12
	BYTE		        Cs3 
	BYTE	W06
	BYTE		        As2 
	BYTE	W12
	BYTE		        As3 
	BYTE	W12
	BYTE		        Fn3 
	BYTE	W12
	BYTE		        Ds3 
	BYTE	W12
	BYTE		        Cs3 
	BYTE	W06
	BYTE		        Cn3 
	BYTE	W06
	BYTE	PEND
// 035   ----------------------------------------
YuNo_FrustrationB_bpat_6_035:
	BYTE	W06
	BYTE		N03     Cs3   v100
	BYTE	W06
	BYTE		        As2 
	BYTE	W12
	BYTE		        As3 
	BYTE	W12
	BYTE		        Fn3 
	BYTE	W12
	BYTE		        Ds3 
	BYTE	W12
	BYTE		        Cs3 
	BYTE	W06
	BYTE		        Cn3 
	BYTE	W06
	BYTE		        Cn3   v080
	BYTE	W06
	BYTE		        Cs3   v100
	BYTE	W06
	BYTE		        As2 
	BYTE	W06
	BYTE		        Fn3 
	BYTE	W06
	BYTE	PEND
// 036   ----------------------------------------
YuNo_FrustrationB_bpat_6_036:
	BYTE		N03     As3   v100
	BYTE	W12
	BYTE		        Fn3 
	BYTE	W12
	BYTE		        Ds3 
	BYTE	W12
	BYTE		        Cs3 
	BYTE	W06
	BYTE		        Cn3 
	BYTE	W12
	BYTE		        Cs3 
	BYTE	W06
	BYTE		        As2 
	BYTE	W12
	BYTE		        As3 
	BYTE	W12
	BYTE		        Fn3 
	BYTE	W12
	BYTE	PEND
// 037   ----------------------------------------
YuNo_FrustrationB_bpat_6_037:
	BYTE		N03     Ds3   v100
	BYTE	W12
	BYTE		        Cs3 
	BYTE	W06
	BYTE		        Cn3 
	BYTE	W12
	BYTE		        Cs3 
	BYTE	W06
	BYTE		        As2 
	BYTE	W12
	BYTE		        As3 
	BYTE	W12
	BYTE		        Fn3 
	BYTE	W12
	BYTE		        Ds3 
	BYTE	W12
	BYTE		        Cs3 
	BYTE	W06
	BYTE		        Cn3 
	BYTE	W06
	BYTE	PEND
// 038   ----------------------------------------
YuNo_FrustrationB_bpat_6_038:
	BYTE	W06
	BYTE		N03     Cs3   v100
	BYTE	W06
	BYTE		        As2 
	BYTE	W12
	BYTE		        As3 
	BYTE	W12
	BYTE		        Fn3 
	BYTE	W12
	BYTE		        Ds3 
	BYTE	W12
	BYTE		        Cs3 
	BYTE	W06
	BYTE		        Cn3 
	BYTE	W12
	BYTE		        Cs3 
	BYTE	W06
	BYTE		        As2 
	BYTE	W12
	BYTE	PEND
// 039   ----------------------------------------
	BYTE	PATT
	 POIN2	YuNo_FrustrationB_bpat_6_036
// 040   ----------------------------------------
	BYTE	PATT
	 POIN2	YuNo_FrustrationB_bpat_6_037
// 041   ----------------------------------------
YuNo_FrustrationB_bpat_6_041:
	BYTE		N03     Cn3   v080
	BYTE	W06
	BYTE		        Cs3   v100
	BYTE	W06
	BYTE		        As2 
	BYTE	W06
	BYTE		        Fn3 
	BYTE	W06
	BYTE		N06     Gs3 
	BYTE	W06
	BYTE		        As3 
	BYTE	W06
	BYTE		        Cn4 
	BYTE	W06
	BYTE		        Cs4 
	BYTE	W06
	BYTE		        Ds4 
	BYTE	W06
	BYTE		        Cs4 
	BYTE	W06
	BYTE		        Cn4 
	BYTE	W06
	BYTE		        Cs4 
	BYTE	W06
	BYTE		        Cn4 
	BYTE	W06
	BYTE		        As3 
	BYTE	W06
	BYTE		        Gs3 
	BYTE	W06
	BYTE		        As3 
	BYTE	W06
	BYTE	PEND
// 042   ----------------------------------------
YuNo_FrustrationB_bpat_6_042:
	BYTE		N72     Cn4   v100
	BYTE	W36
	BYTE		N36     Fn3   v092
	BYTE	W36
	BYTE		        As3 
	BYTE		N36     Cs4   v100
	BYTE	W24
	BYTE	PEND
// 043   ----------------------------------------
YuNo_FrustrationB_bpat_6_043:
	BYTE	W12
	BYTE		N12     As3   v092
	BYTE		N12     Cs4   v100
	BYTE	W12
	BYTE		        As3   v092
	BYTE		N12     Ds4   v100
	BYTE	W12
	BYTE		        As3   v092
	BYTE		N12     Fn4   v100
	BYTE	W12
	BYTE		N36     Fn3   v092
	BYTE		N36     Cn4   v100
	BYTE	W36
	BYTE		        Fn3   v092
	BYTE		N36     Cs4   v100
	BYTE	W12
	BYTE	PEND
// 044   ----------------------------------------
YuNo_FrustrationB_bpat_6_044:
	BYTE	W24
	BYTE		N36     As3   v092
	BYTE		N36     Ds4   v100
	BYTE	W36
	BYTE		        As3   v092
	BYTE		N36     Cs4   v100
	BYTE	W36
	BYTE	PEND
// 045   ----------------------------------------
YuNo_FrustrationB_bpat_6_045:
	BYTE		N36     Gs3   v092
	BYTE		N72     Cn4   v100
	BYTE	W36
	BYTE		N36     Fn3   v092
	BYTE	W36
	BYTE		N36   
	BYTE		N36     Cs4   v100
	BYTE	W24
	BYTE	PEND
// 046   ----------------------------------------
YuNo_FrustrationB_bpat_6_046:
	BYTE	W12
	BYTE		N12     Fn3   v092
	BYTE		N12     Cs4   v100
	BYTE	W12
	BYTE		        Gn3   v092
	BYTE		N12     Ds4   v100
	BYTE	W12
	BYTE		        Gs3   v092
	BYTE		N12     Fn4   v100
	BYTE	W12
	BYTE		N36     Fn3   v092
	BYTE		N36     Cn4   v100
	BYTE	W36
	BYTE		        Fn3   v092
	BYTE		N36     Cs4   v100
	BYTE	W12
	BYTE	PEND
// 047   ----------------------------------------
YuNo_FrustrationB_bpat_6_047:
	BYTE	W24
	BYTE		N36     As3   v092
	BYTE		N36     Ds4   v100
	BYTE	W36
	BYTE		        Gs3   v092
	BYTE		N36     Fn4   v100
	BYTE	W36
	BYTE	PEND
// 048   ----------------------------------------
YuNo_FrustrationB_bpat_6_048:
	BYTE		N72     Gn3   v092
	BYTE		N72     Cn4   v100
	BYTE	W72
	BYTE		N36     Gn3   v092
	BYTE		N36     Cs4   v100
	BYTE	W24
	BYTE	PEND
// 049   ----------------------------------------
YuNo_FrustrationB_bpat_6_049:
	BYTE	W12
	BYTE		N12     Gn3   v092
	BYTE		N12     Cs4   v100
	BYTE	W12
	BYTE		        Gs3   v092
	BYTE		N12     Ds4   v100
	BYTE	W12
	BYTE		        As3   v092
	BYTE		N12     Fn4   v100
	BYTE	W12
	BYTE		N36     Ds3   v092
	BYTE		N36     Cn4   v100
	BYTE	W36
	BYTE		        Fn3   v092
	BYTE		N36     Cs4   v100
	BYTE	W12
	BYTE	PEND
// 050   ----------------------------------------
YuNo_FrustrationB_bpat_6_050:
	BYTE	W24
	BYTE		N36     Gn3   v092
	BYTE		N36     Ds4   v100
	BYTE	W36
	BYTE		        Gs3   v092
	BYTE		N36     Cs4   v100
	BYTE	W36
	BYTE	PEND
// 051   ----------------------------------------
YuNo_FrustrationB_bpat_6_051:
	BYTE		N72     Fs3   v092
	BYTE		N72     Cn4   v100
	BYTE	W72
	BYTE		N36     Fs3   v092
	BYTE		N36     Cs4   v100
	BYTE	W24
	BYTE	PEND
// 052   ----------------------------------------
YuNo_FrustrationB_bpat_6_052:
	BYTE	W12
	BYTE		N12     Gs3   v092
	BYTE		N12     Cs4   v100
	BYTE	W12
	BYTE		        As3   v092
	BYTE		N12     Ds4   v100
	BYTE	W12
	BYTE		        Cn4   v092
	BYTE		N12     Fn4   v100
	BYTE	W12
	BYTE		N72     Ds3   v092
	BYTE		N36     Cn4   v100
	BYTE	W36
	BYTE		        Cs4 
	BYTE	W12
	BYTE	PEND
// 053   ----------------------------------------
YuNo_FrustrationB_bpat_6_053:
	BYTE	W24
	BYTE		N72     Fn3   v092
	BYTE		N36     Ds4   v100
	BYTE	W36
	BYTE		        Fn4 
	BYTE	W36
	BYTE	PEND
	BYTE	GoTo
	 POIN2	YuNo_FrustrationB_bpat_6_B1
YuNo_FrustrationB_bpat_6_B2:
// 054   ----------------------------------------
	BYTE	W96
// 055   ----------------------------------------
	BYTE	W96
// 056   ----------------------------------------
	BYTE	W96
// 057   ----------------------------------------
	BYTE	W96
// 058   ----------------------------------------
	BYTE	W96
// 059   ----------------------------------------
	BYTE	W96
// 060   ----------------------------------------
	BYTE	W96
// 061   ----------------------------------------
	BYTE	W96
// 062   ----------------------------------------
	BYTE	W96
// 063   ----------------------------------------
	BYTE	W96
// 064   ----------------------------------------
	BYTE	W96
// 065   ----------------------------------------
	BYTE	W96
// 066   ----------------------------------------
	BYTE	W96
// 067   ----------------------------------------
	BYTE	W96
// 068   ----------------------------------------
	BYTE	W96
// 069   ----------------------------------------
	BYTE	W96
// 070   ----------------------------------------
	BYTE	W96
// 071   ----------------------------------------
	BYTE	W96
// 072   ----------------------------------------
	BYTE	W96
// 073   ----------------------------------------
	BYTE	W96
// 074   ----------------------------------------
	BYTE	W96
// 075   ----------------------------------------
	BYTE	W96
// 076   ----------------------------------------
	BYTE	W96
// 077   ----------------------------------------
	BYTE	W96
// 078   ----------------------------------------
	BYTE	W96
// 079   ----------------------------------------
	BYTE	W96
// 080   ----------------------------------------
	BYTE	W96
// 081   ----------------------------------------
	BYTE	W96
// 082   ----------------------------------------
	BYTE	W96
// 083   ----------------------------------------
	BYTE	W96
// 084   ----------------------------------------
	BYTE	PATT
	 POIN2	YuNo_FrustrationB_bpat_6_030
// 085   ----------------------------------------
	BYTE	PATT
	 POIN2	YuNo_FrustrationB_bpat_6_031
// 086   ----------------------------------------
	BYTE	PATT
	 POIN2	YuNo_FrustrationB_bpat_6_032
// 087   ----------------------------------------
	BYTE	PATT
	 POIN2	YuNo_FrustrationB_bpat_6_033
// 088   ----------------------------------------
	BYTE	PATT
	 POIN2	YuNo_FrustrationB_bpat_6_034
// 089   ----------------------------------------
	BYTE	PATT
	 POIN2	YuNo_FrustrationB_bpat_6_035
// 090   ----------------------------------------
	BYTE	PATT
	 POIN2	YuNo_FrustrationB_bpat_6_036
// 091   ----------------------------------------
	BYTE	PATT
	 POIN2	YuNo_FrustrationB_bpat_6_037
// 092   ----------------------------------------
	BYTE	PATT
	 POIN2	YuNo_FrustrationB_bpat_6_038
// 093   ----------------------------------------
	BYTE	PATT
	 POIN2	YuNo_FrustrationB_bpat_6_036
// 094   ----------------------------------------
	BYTE	PATT
	 POIN2	YuNo_FrustrationB_bpat_6_037
// 095   ----------------------------------------
	BYTE	PATT
	 POIN2	YuNo_FrustrationB_bpat_6_041
// 096   ----------------------------------------
	BYTE	PATT
	 POIN2	YuNo_FrustrationB_bpat_6_042
// 097   ----------------------------------------
	BYTE	PATT
	 POIN2	YuNo_FrustrationB_bpat_6_043
// 098   ----------------------------------------
	BYTE	PATT
	 POIN2	YuNo_FrustrationB_bpat_6_044
// 099   ----------------------------------------
	BYTE	PATT
	 POIN2	YuNo_FrustrationB_bpat_6_045
// 100   ----------------------------------------
	BYTE	PATT
	 POIN2	YuNo_FrustrationB_bpat_6_046
// 101   ----------------------------------------
	BYTE	PATT
	 POIN2	YuNo_FrustrationB_bpat_6_047
// 102   ----------------------------------------
	BYTE	PATT
	 POIN2	YuNo_FrustrationB_bpat_6_048
// 103   ----------------------------------------
	BYTE	PATT
	 POIN2	YuNo_FrustrationB_bpat_6_049
// 104   ----------------------------------------
	BYTE	PATT
	 POIN2	YuNo_FrustrationB_bpat_6_050
// 105   ----------------------------------------
	BYTE	PATT
	 POIN2	YuNo_FrustrationB_bpat_6_051
// 106   ----------------------------------------
	BYTE	PATT
	 POIN2	YuNo_FrustrationB_bpat_6_052
// 107   ----------------------------------------
	BYTE	PATT
	 POIN2	YuNo_FrustrationB_bpat_6_053
// 108   ----------------------------------------
	BYTE	FINE

//**************** Track 7 (Midi-Chn.7) ****************//

YuNo_FrustrationB_bpat_7:
	BYTE	KEYSH   YuNo_FrustrationB_bpat_key+0
YuNo_FrustrationB_bpat_7_B1:
// 000   ----------------------------------------
	BYTE		VOICE   41
	BYTE		VOL     48*YuNo_FrustrationB_bpat_mvl/mxv
	BYTE		PAN     c_v+0
	BYTE	W96
// 001   ----------------------------------------
	BYTE	W48
	BYTE	W48
// 002   ----------------------------------------
	BYTE	W96
// 003   ----------------------------------------
	BYTE	W96
// 004   ----------------------------------------
	BYTE	W48
	BYTE	W48
// 005   ----------------------------------------
	BYTE	W96
// 006   ----------------------------------------
	BYTE	W96
// 007   ----------------------------------------
	BYTE	W48
	BYTE	W48
// 008   ----------------------------------------
	BYTE	W96
// 009   ----------------------------------------
	BYTE	W96
// 010   ----------------------------------------
	BYTE	W48
	BYTE	W48
// 011   ----------------------------------------
	BYTE	W96
// 012   ----------------------------------------
	BYTE	W96
// 013   ----------------------------------------
	BYTE	W48
	BYTE	W48
// 014   ----------------------------------------
	BYTE	W96
// 015   ----------------------------------------
	BYTE	W96
// 016   ----------------------------------------
	BYTE	W48
	BYTE	W48
// 017   ----------------------------------------
	BYTE	W96
// 018   ----------------------------------------
	BYTE	W96
// 019   ----------------------------------------
	BYTE	W48
	BYTE	W48
// 020   ----------------------------------------
	BYTE	W96
// 021   ----------------------------------------
	BYTE	W96
// 022   ----------------------------------------
	BYTE	W48
	BYTE	W48
// 023   ----------------------------------------
	BYTE	W96
// 024   ----------------------------------------
	BYTE	W96
// 025   ----------------------------------------
	BYTE	W48
	BYTE	W48
// 026   ----------------------------------------
	BYTE	W96
// 027   ----------------------------------------
	BYTE	W96
// 028   ----------------------------------------
	BYTE	W48
	BYTE	W48
// 029   ----------------------------------------
	BYTE	W96
// 030   ----------------------------------------
	BYTE	W96
// 031   ----------------------------------------
	BYTE	W48
	BYTE	W48
// 032   ----------------------------------------
	BYTE	W96
// 033   ----------------------------------------
	BYTE	W96
// 034   ----------------------------------------
	BYTE	W48
	BYTE	W48
// 035   ----------------------------------------
	BYTE	W96
// 036   ----------------------------------------
	BYTE	W96
// 037   ----------------------------------------
	BYTE	W48
	BYTE	W48
// 038   ----------------------------------------
	BYTE	W96
// 039   ----------------------------------------
	BYTE	W96
// 040   ----------------------------------------
	BYTE	W48
	BYTE	W48
// 041   ----------------------------------------
	BYTE	W96
// 042   ----------------------------------------
YuNo_FrustrationB_bpat_7_042:
	BYTE		N72     Fn3   v100
	BYTE	W72
	BYTE		N36     As3 
	BYTE	W24
	BYTE	PEND
// 043   ----------------------------------------
YuNo_FrustrationB_bpat_7_043:
	BYTE	W12
	BYTE		N12     As3   v100
	BYTE	W12
	BYTE		        Cn4 
	BYTE	W12
	BYTE		        Cs4 
	BYTE	W12
	BYTE		N36     Ds4 
	BYTE	W36
	BYTE		        Fn4 
	BYTE	W12
	BYTE	PEND
// 044   ----------------------------------------
YuNo_FrustrationB_bpat_7_044:
	BYTE	W24
	BYTE		N36     Gs4   v100
	BYTE	W36
	BYTE		N03     Gn4   v127
	BYTE	W03
	BYTE		        Gs4 
	BYTE	W03
	BYTE		N30     Gn4   v100
	BYTE	W30
	BYTE	PEND
// 045   ----------------------------------------
	BYTE		TIE     Fn4 
	BYTE	W96
// 046   ----------------------------------------
	BYTE	W48
	BYTE		EOT   
	BYTE		TIE     Ds4 
	BYTE	W01
	BYTE	W01
	BYTE	W01
	BYTE	W01
	BYTE	W01
	BYTE	W01
	BYTE	W01
	BYTE	W01
	BYTE	W01
	BYTE	W01
	BYTE	W01
	BYTE	W01
	BYTE	W01
	BYTE	W02
	BYTE	W01
	BYTE	W02
	BYTE	W01
	BYTE	W02
	BYTE	W01
	BYTE	W02
	BYTE	W01
	BYTE	W02
	BYTE	W01
	BYTE	W02
	BYTE	W01
	BYTE	W02
	BYTE	W01
	BYTE	W02
	BYTE	W01
	BYTE	W02
	BYTE	W01
	BYTE	W02
	BYTE	W01
	BYTE	W01
	BYTE	W02
	BYTE	W01
	BYTE	W01
// 047   ----------------------------------------
YuNo_FrustrationB_bpat_7_047:
	BYTE	W01
	BYTE	W01
	BYTE	W02
	BYTE	W01
	BYTE	W02
	BYTE	W01
	BYTE	W02
	BYTE	W01
	BYTE	W02
	BYTE	W01
	BYTE	W02
	BYTE	W01
	BYTE	W02
	BYTE	W01
	BYTE	W02
	BYTE	W01
	BYTE	W02
	BYTE	W01
	BYTE	W01
	BYTE	W02
	BYTE	W01
	BYTE	W02
	BYTE	W01
	BYTE	W02
	BYTE	W01
	BYTE	W02
	BYTE	W01
	BYTE	W02
	BYTE	W01
	BYTE	W02
	BYTE	W01
	BYTE	W02
	BYTE	W01
	BYTE	W02
	BYTE	W01
	BYTE	W02
	BYTE	W01
	BYTE	W02
	BYTE	W01
	BYTE	W01
	BYTE	W02
	BYTE	PEND
	BYTE		EOT     Ds4 
	BYTE		N12     As3   v100
	BYTE	W12
	BYTE		        Cn4 
	BYTE	W12
	BYTE		        Cs4 
	BYTE	W12
// 048   ----------------------------------------
	BYTE		TIE     Ds4 
	BYTE	W96
// 049   ----------------------------------------
	BYTE	W48
	BYTE		EOT   
	BYTE		N72     Cs4 
	BYTE	W48
// 050   ----------------------------------------
	BYTE	W24
	BYTE		        Cn4 
	BYTE	W72
// 051   ----------------------------------------
	BYTE		TIE     As3 
	BYTE	W96
// 052   ----------------------------------------
	BYTE	W96
// 053   ----------------------------------------
	BYTE	W96
	BYTE		EOT   
	BYTE	GoTo
	 POIN2	YuNo_FrustrationB_bpat_7_B1
YuNo_FrustrationB_bpat_7_B2:
// 054   ----------------------------------------
	BYTE	W96
// 055   ----------------------------------------
	BYTE	W48
	BYTE	W48
// 056   ----------------------------------------
	BYTE	W96
// 057   ----------------------------------------
	BYTE	W96
// 058   ----------------------------------------
	BYTE	W48
	BYTE	W48
// 059   ----------------------------------------
	BYTE	W96
// 060   ----------------------------------------
	BYTE	W96
// 061   ----------------------------------------
	BYTE	W48
	BYTE	W48
// 062   ----------------------------------------
	BYTE	W96
// 063   ----------------------------------------
	BYTE	W96
// 064   ----------------------------------------
	BYTE	W48
	BYTE	W48
// 065   ----------------------------------------
	BYTE	W96
// 066   ----------------------------------------
	BYTE	W96
// 067   ----------------------------------------
	BYTE	W48
	BYTE	W48
// 068   ----------------------------------------
	BYTE	W96
// 069   ----------------------------------------
	BYTE	W96
// 070   ----------------------------------------
	BYTE	W48
	BYTE	W48
// 071   ----------------------------------------
	BYTE	W96
// 072   ----------------------------------------
	BYTE	W96
// 073   ----------------------------------------
	BYTE	W48
	BYTE	W48
// 074   ----------------------------------------
	BYTE	W96
// 075   ----------------------------------------
	BYTE	W96
// 076   ----------------------------------------
	BYTE	W48
	BYTE	W48
// 077   ----------------------------------------
	BYTE	W96
// 078   ----------------------------------------
	BYTE	W96
// 079   ----------------------------------------
	BYTE	W48
	BYTE	W48
// 080   ----------------------------------------
	BYTE	W96
// 081   ----------------------------------------
	BYTE	W96
// 082   ----------------------------------------
	BYTE	W48
	BYTE	W48
// 083   ----------------------------------------
	BYTE	W96
// 084   ----------------------------------------
	BYTE	W96
// 085   ----------------------------------------
	BYTE	W48
	BYTE	W48
// 086   ----------------------------------------
	BYTE	W96
// 087   ----------------------------------------
	BYTE	W96
// 088   ----------------------------------------
	BYTE	W48
	BYTE	W48
// 089   ----------------------------------------
	BYTE	W96
// 090   ----------------------------------------
	BYTE	W96
// 091   ----------------------------------------
	BYTE	W48
	BYTE	W48
// 092   ----------------------------------------
	BYTE	W96
// 093   ----------------------------------------
	BYTE	W96
// 094   ----------------------------------------
	BYTE	W48
	BYTE	W48
// 095   ----------------------------------------
	BYTE	W96
// 096   ----------------------------------------
	BYTE	PATT
	 POIN2	YuNo_FrustrationB_bpat_7_042
// 097   ----------------------------------------
	BYTE	PATT
	 POIN2	YuNo_FrustrationB_bpat_7_043
// 098   ----------------------------------------
	BYTE	PATT
	 POIN2	YuNo_FrustrationB_bpat_7_044
// 099   ----------------------------------------
	BYTE		TIE     Fn4   v100
	BYTE	W96
// 100   ----------------------------------------
	BYTE	W48
	BYTE		EOT   
	BYTE		TIE     Ds4 
	BYTE	W01
	BYTE	W01
	BYTE	W01
	BYTE	W01
	BYTE	W01
	BYTE	W01
	BYTE	W01
	BYTE	W01
	BYTE	W01
	BYTE	W01
	BYTE	W01
	BYTE	W01
	BYTE	W01
	BYTE	W02
	BYTE	W01
	BYTE	W02
	BYTE	W01
	BYTE	W02
	BYTE	W01
	BYTE	W02
	BYTE	W01
	BYTE	W02
	BYTE	W01
	BYTE	W02
	BYTE	W01
	BYTE	W02
	BYTE	W01
	BYTE	W02
	BYTE	W01
	BYTE	W02
	BYTE	W01
	BYTE	W02
	BYTE	W01
	BYTE	W01
	BYTE	W02
	BYTE	W01
	BYTE	W01
// 101   ----------------------------------------
	BYTE	PATT
	 POIN2	YuNo_FrustrationB_bpat_7_047
	BYTE		EOT     Ds4 
	BYTE		N12     As3   v100
	BYTE	W12
	BYTE		        Cn4 
	BYTE	W12
	BYTE		        Cs4 
	BYTE	W12
// 102   ----------------------------------------
	BYTE		TIE     Ds4 
	BYTE	W96
// 103   ----------------------------------------
	BYTE	W48
	BYTE		EOT   
	BYTE		N72     Cs4 
	BYTE	W48
// 104   ----------------------------------------
	BYTE	W24
	BYTE		        Cn4 
	BYTE	W72
// 105   ----------------------------------------
	BYTE		TIE     As3 
	BYTE	W96
// 106   ----------------------------------------
	BYTE	W96
// 107   ----------------------------------------
	BYTE	W96
	BYTE		EOT   
// 108   ----------------------------------------
	BYTE	FINE

//**************** Track 8 (Midi-Chn.8) ****************//

YuNo_FrustrationB_bpat_8:
	BYTE	KEYSH   YuNo_FrustrationB_bpat_key+0
YuNo_FrustrationB_bpat_8_B1:
// 000   ----------------------------------------
	BYTE		VOICE   38
	BYTE		PAN     c_v+0
	BYTE		VOL     36*YuNo_FrustrationB_bpat_mvl/mxv
	BYTE		TIE     As0   v112
	BYTE	W96
// 001   ----------------------------------------
	BYTE	W96
// 002   ----------------------------------------
	BYTE	W96
	BYTE		EOT   
// 003   ----------------------------------------
	BYTE		TIE     Bn0 
	BYTE	W96
// 004   ----------------------------------------
	BYTE	W96
// 005   ----------------------------------------
	BYTE	W96
	BYTE		EOT   
// 006   ----------------------------------------
YuNo_FrustrationB_bpat_8_006:
	BYTE		TIE     As0   v112
	BYTE	W96
	BYTE	PEND
// 007   ----------------------------------------
	BYTE	W48
	BYTE		EOT   
	BYTE		TIE     AsM1
	BYTE	W48
// 008   ----------------------------------------
	BYTE	W96
	BYTE		EOT   
// 009   ----------------------------------------
	BYTE		TIE     Bn0 
	BYTE	W96
// 010   ----------------------------------------
	BYTE	W48
	BYTE		EOT   
	BYTE		TIE     BnM1
	BYTE	W48
// 011   ----------------------------------------
	BYTE	W96
	BYTE		EOT   
// 012   ----------------------------------------
	BYTE		TIE     As0 
	BYTE	W96
// 013   ----------------------------------------
	BYTE	W48
	BYTE		EOT   
	BYTE		TIE     AsM1
	BYTE	W48
// 014   ----------------------------------------
	BYTE	W96
	BYTE		EOT   
// 015   ----------------------------------------
	BYTE		TIE     Gn0 
	BYTE	W96
// 016   ----------------------------------------
	BYTE	W48
	BYTE		EOT   
	BYTE		N72     Fs0 
	BYTE	W48
// 017   ----------------------------------------
	BYTE	W24
	BYTE		        Gs0 
	BYTE	W72
// 018   ----------------------------------------
	BYTE	PATT
	 POIN2	YuNo_FrustrationB_bpat_8_006
// 019   ----------------------------------------
	BYTE	W48
	BYTE		EOT     As0 
	BYTE		TIE     AsM1  v112
	BYTE	W48
// 020   ----------------------------------------
	BYTE	W96
	BYTE		EOT   
// 021   ----------------------------------------
	BYTE		TIE     Bn0 
	BYTE	W96
// 022   ----------------------------------------
	BYTE	W48
	BYTE		EOT   
	BYTE		TIE     BnM1
	BYTE	W48
// 023   ----------------------------------------
	BYTE	W96
	BYTE		EOT   
// 024   ----------------------------------------
	BYTE		TIE     As0 
	BYTE	W96
// 025   ----------------------------------------
	BYTE	W48
	BYTE		EOT   
	BYTE		TIE     AsM1
	BYTE	W48
// 026   ----------------------------------------
	BYTE	W96
	BYTE		EOT   
// 027   ----------------------------------------
	BYTE		TIE     Gn0 
	BYTE	W96
// 028   ----------------------------------------
	BYTE	W48
	BYTE		EOT   
	BYTE		N72     Fs0 
	BYTE	W48
// 029   ----------------------------------------
	BYTE	W24
	BYTE		        Gs0 
	BYTE	W72
// 030   ----------------------------------------
YuNo_FrustrationB_bpat_8_030:
	BYTE		TIE     As0   v112
	BYTE	W96
	BYTE	PEND
// 031   ----------------------------------------
	BYTE	W48
	BYTE		EOT   
	BYTE		N72     AsM1
	BYTE	W48
// 032   ----------------------------------------
	BYTE	W24
	BYTE		N72   
	BYTE	W72
// 033   ----------------------------------------
	BYTE		TIE     Gs0 
	BYTE	W96
// 034   ----------------------------------------
	BYTE	W48
	BYTE		EOT   
	BYTE		N72     GsM1
	BYTE	W48
// 035   ----------------------------------------
	BYTE	W24
	BYTE		N72   
	BYTE	W72
// 036   ----------------------------------------
	BYTE		TIE     Ds1 
	BYTE	W96
// 037   ----------------------------------------
	BYTE	W48
	BYTE		EOT   
	BYTE		N72     Ds0 
	BYTE	W48
// 038   ----------------------------------------
	BYTE	W24
	BYTE		N72   
	BYTE	W72
// 039   ----------------------------------------
YuNo_FrustrationB_bpat_8_039:
	BYTE		N72     Fs1   v112
	BYTE	W72
	BYTE		N72   
	BYTE	W24
	BYTE	PEND
// 040   ----------------------------------------
	BYTE	W48
	BYTE		        Fn1 
	BYTE	W48
// 041   ----------------------------------------
	BYTE	W24
	BYTE		N72   
	BYTE	W72
// 042   ----------------------------------------
	BYTE	PATT
	 POIN2	YuNo_FrustrationB_bpat_8_030
// 043   ----------------------------------------
	BYTE	W48
	BYTE		EOT     As0 
	BYTE		N72     AsM1  v112
	BYTE	W48
// 044   ----------------------------------------
	BYTE	W24
	BYTE		N72   
	BYTE	W72
// 045   ----------------------------------------
	BYTE		TIE     Gs0 
	BYTE	W96
// 046   ----------------------------------------
	BYTE	W48
	BYTE		EOT   
	BYTE		N72     GsM1
	BYTE	W48
// 047   ----------------------------------------
	BYTE	W24
	BYTE		N72   
	BYTE	W72
// 048   ----------------------------------------
	BYTE		TIE     Ds1 
	BYTE	W96
// 049   ----------------------------------------
	BYTE	W48
	BYTE		EOT   
	BYTE		N72     Ds0 
	BYTE	W48
// 050   ----------------------------------------
	BYTE	W24
	BYTE		N72   
	BYTE	W72
// 051   ----------------------------------------
	BYTE	PATT
	 POIN2	YuNo_FrustrationB_bpat_8_039
// 052   ----------------------------------------
	BYTE	W48
	BYTE		N72     Fn1   v112
	BYTE	W48
// 053   ----------------------------------------
	BYTE	W24
	BYTE		N72   
	BYTE	W72
	BYTE	GoTo
	 POIN2	YuNo_FrustrationB_bpat_8_B1
YuNo_FrustrationB_bpat_8_B2:
// 054   ----------------------------------------
	BYTE		TIE     As0   v112
	BYTE	W96
// 055   ----------------------------------------
	BYTE	W96
// 056   ----------------------------------------
	BYTE	W96
	BYTE		EOT   
// 057   ----------------------------------------
	BYTE		TIE     Bn0 
	BYTE	W96
// 058   ----------------------------------------
	BYTE	W96
// 059   ----------------------------------------
	BYTE	W96
	BYTE		EOT   
// 060   ----------------------------------------
	BYTE	PATT
	 POIN2	YuNo_FrustrationB_bpat_8_006
// 061   ----------------------------------------
	BYTE	W48
	BYTE		EOT     As0 
	BYTE		TIE     AsM1  v112
	BYTE	W48
// 062   ----------------------------------------
	BYTE	W96
	BYTE		EOT   
// 063   ----------------------------------------
	BYTE		TIE     Bn0 
	BYTE	W96
// 064   ----------------------------------------
	BYTE	W48
	BYTE		EOT   
	BYTE		TIE     BnM1
	BYTE	W48
// 065   ----------------------------------------
	BYTE	W96
	BYTE		EOT   
// 066   ----------------------------------------
	BYTE		TIE     As0 
	BYTE	W96
// 067   ----------------------------------------
	BYTE	W48
	BYTE		EOT   
	BYTE		TIE     AsM1
	BYTE	W48
// 068   ----------------------------------------
	BYTE	W96
	BYTE		EOT   
// 069   ----------------------------------------
	BYTE		TIE     Gn0 
	BYTE	W96
// 070   ----------------------------------------
	BYTE	W48
	BYTE		EOT   
	BYTE		N72     Fs0 
	BYTE	W48
// 071   ----------------------------------------
	BYTE	W24
	BYTE		        Gs0 
	BYTE	W72
// 072   ----------------------------------------
	BYTE	PATT
	 POIN2	YuNo_FrustrationB_bpat_8_006
// 073   ----------------------------------------
	BYTE	W48
	BYTE		EOT     As0 
	BYTE		TIE     AsM1  v112
	BYTE	W48
// 074   ----------------------------------------
	BYTE	W96
	BYTE		EOT   
// 075   ----------------------------------------
	BYTE		TIE     Bn0 
	BYTE	W96
// 076   ----------------------------------------
	BYTE	W48
	BYTE		EOT   
	BYTE		TIE     BnM1
	BYTE	W48
// 077   ----------------------------------------
	BYTE	W96
	BYTE		EOT   
// 078   ----------------------------------------
	BYTE		TIE     As0 
	BYTE	W96
// 079   ----------------------------------------
	BYTE	W48
	BYTE		EOT   
	BYTE		TIE     AsM1
	BYTE	W48
// 080   ----------------------------------------
	BYTE	W96
	BYTE		EOT   
// 081   ----------------------------------------
	BYTE		TIE     Gn0 
	BYTE	W96
// 082   ----------------------------------------
	BYTE	W48
	BYTE		EOT   
	BYTE		N72     Fs0 
	BYTE	W48
// 083   ----------------------------------------
	BYTE	W24
	BYTE		        Gs0 
	BYTE	W72
// 084   ----------------------------------------
	BYTE	PATT
	 POIN2	YuNo_FrustrationB_bpat_8_030
// 085   ----------------------------------------
	BYTE	W48
	BYTE		EOT     As0 
	BYTE		N72     AsM1  v112
	BYTE	W48
// 086   ----------------------------------------
	BYTE	W24
	BYTE		N72   
	BYTE	W72
// 087   ----------------------------------------
	BYTE		TIE     Gs0 
	BYTE	W96
// 088   ----------------------------------------
	BYTE	W48
	BYTE		EOT   
	BYTE		N72     GsM1
	BYTE	W48
// 089   ----------------------------------------
	BYTE	W24
	BYTE		N72   
	BYTE	W72
// 090   ----------------------------------------
	BYTE		TIE     Ds1 
	BYTE	W96
// 091   ----------------------------------------
	BYTE	W48
	BYTE		EOT   
	BYTE		N72     Ds0 
	BYTE	W48
// 092   ----------------------------------------
	BYTE	W24
	BYTE		N72   
	BYTE	W72
// 093   ----------------------------------------
	BYTE	PATT
	 POIN2	YuNo_FrustrationB_bpat_8_039
// 094   ----------------------------------------
	BYTE	W48
	BYTE		N72     Fn1   v112
	BYTE	W48
// 095   ----------------------------------------
	BYTE	W24
	BYTE		N72   
	BYTE	W72
// 096   ----------------------------------------
	BYTE	PATT
	 POIN2	YuNo_FrustrationB_bpat_8_030
// 097   ----------------------------------------
	BYTE	W48
	BYTE		EOT     As0 
	BYTE		N72     AsM1  v112
	BYTE	W48
// 098   ----------------------------------------
	BYTE	W24
	BYTE		N72   
	BYTE	W72
// 099   ----------------------------------------
	BYTE		TIE     Gs0 
	BYTE	W96
// 100   ----------------------------------------
	BYTE	W48
	BYTE		EOT   
	BYTE		N72     GsM1
	BYTE	W48
// 101   ----------------------------------------
	BYTE	W24
	BYTE		N72   
	BYTE	W72
// 102   ----------------------------------------
	BYTE		TIE     Ds1 
	BYTE	W96
// 103   ----------------------------------------
	BYTE	W48
	BYTE		EOT   
	BYTE		N72     Ds0 
	BYTE	W48
// 104   ----------------------------------------
	BYTE	W24
	BYTE		N72   
	BYTE	W72
// 105   ----------------------------------------
	BYTE	PATT
	 POIN2	YuNo_FrustrationB_bpat_8_039
// 106   ----------------------------------------
	BYTE	W48
	BYTE		N72     Fn1   v112
	BYTE	W48
// 107   ----------------------------------------
	BYTE	W24
	BYTE		N72   
	BYTE	W72
// 108   ----------------------------------------
	BYTE	FINE

//**************** Track 9 (Midi-Chn.9) ****************//

YuNo_FrustrationB_bpat_9:
	BYTE	KEYSH   YuNo_FrustrationB_bpat_key+0
YuNo_FrustrationB_bpat_9_B1:
// 000   ----------------------------------------
	BYTE		VOICE   50
	BYTE		PAN     c_v+0
	BYTE		VOL     45*YuNo_FrustrationB_bpat_mvl/mxv
	BYTE	W96
// 001   ----------------------------------------
	BYTE	W96
// 002   ----------------------------------------
	BYTE	W96
// 003   ----------------------------------------
	BYTE	W96
// 004   ----------------------------------------
	BYTE	W96
// 005   ----------------------------------------
YuNo_FrustrationB_bpat_9_005:
	BYTE	W24
	BYTE		N01     Fs1   v108
	BYTE	W24
	BYTE		N01   
	BYTE	W18
	BYTE		N01   
	BYTE	W06
	BYTE		N01   
	BYTE	W06
	BYTE		        As3   v120
	BYTE	W06
	BYTE		        As3   v108
	BYTE	W06
	BYTE		        As3   v092
	BYTE	W06
	BYTE	PEND
// 006   ----------------------------------------
YuNo_FrustrationB_bpat_9_006:
	BYTE		N01     Fs1   v108
	BYTE	W24
	BYTE		N01   
	BYTE	W24
	BYTE		N01   
	BYTE		N01     An3 
	BYTE	W24
	BYTE		        Fs1 
	BYTE	W24
	BYTE	PEND
// 007   ----------------------------------------
YuNo_FrustrationB_bpat_9_007:
	BYTE		N01     Fs1   v108
	BYTE	W18
	BYTE		N01   
	BYTE	W06
	BYTE		N01   
	BYTE	W18
	BYTE		N01   
	BYTE	W06
	BYTE		N01   
	BYTE	W24
	BYTE		N01   
	BYTE	W24
	BYTE	PEND
// 008   ----------------------------------------
YuNo_FrustrationB_bpat_9_008:
	BYTE		N01     Fs1   v108
	BYTE		N01     An3 
	BYTE	W24
	BYTE		        Fs1 
	BYTE	W24
	BYTE		N01   
	BYTE	W18
	BYTE		N01   
	BYTE	W06
	BYTE		N01   
	BYTE	W06
	BYTE		        As3   v120
	BYTE	W06
	BYTE		        As3   v108
	BYTE	W06
	BYTE		        As3   v092
	BYTE	W06
	BYTE	PEND
// 009   ----------------------------------------
	BYTE	PATT
	 POIN2	YuNo_FrustrationB_bpat_9_006
// 010   ----------------------------------------
	BYTE	PATT
	 POIN2	YuNo_FrustrationB_bpat_9_007
// 011   ----------------------------------------
YuNo_FrustrationB_bpat_9_011:
	BYTE		N01     Fs1   v108
	BYTE		N01     An3 
	BYTE	W24
	BYTE		        Fs1 
	BYTE	W18
	BYTE		        As3   v120
	BYTE	W06
	BYTE		        Fs1   v108
	BYTE		N01     As3   v120
	BYTE	W18
	BYTE		N01   
	BYTE	W06
	BYTE		        Fs1   v108
	BYTE		N01     As3   v120
	BYTE	W18
	BYTE		        Fs1   v108
	BYTE		N01     As3   v120
	BYTE	W06
	BYTE	PEND
// 012   ----------------------------------------
	BYTE	PATT
	 POIN2	YuNo_FrustrationB_bpat_9_006
// 013   ----------------------------------------
	BYTE	PATT
	 POIN2	YuNo_FrustrationB_bpat_9_007
// 014   ----------------------------------------
	BYTE	PATT
	 POIN2	YuNo_FrustrationB_bpat_9_008
// 015   ----------------------------------------
	BYTE	PATT
	 POIN2	YuNo_FrustrationB_bpat_9_006
// 016   ----------------------------------------
	BYTE	PATT
	 POIN2	YuNo_FrustrationB_bpat_9_007
// 017   ----------------------------------------
YuNo_FrustrationB_bpat_9_017:
	BYTE		N01     Fs1   v108
	BYTE		N01     An3 
	BYTE	W24
	BYTE		        Fs1 
	BYTE	W12
	BYTE		        Bn1   v092
	BYTE	W12
	BYTE		        Fs1   v108
	BYTE	W18
	BYTE		        An3 
	BYTE	W06
	BYTE		        Fs1 
	BYTE	W18
	BYTE		N01   
	BYTE	W06
	BYTE	PEND
// 018   ----------------------------------------
	BYTE	PATT
	 POIN2	YuNo_FrustrationB_bpat_9_006
// 019   ----------------------------------------
	BYTE	PATT
	 POIN2	YuNo_FrustrationB_bpat_9_007
// 020   ----------------------------------------
	BYTE	PATT
	 POIN2	YuNo_FrustrationB_bpat_9_008
// 021   ----------------------------------------
	BYTE	PATT
	 POIN2	YuNo_FrustrationB_bpat_9_006
// 022   ----------------------------------------
	BYTE	PATT
	 POIN2	YuNo_FrustrationB_bpat_9_007
// 023   ----------------------------------------
	BYTE	PATT
	 POIN2	YuNo_FrustrationB_bpat_9_011
// 024   ----------------------------------------
	BYTE	PATT
	 POIN2	YuNo_FrustrationB_bpat_9_006
// 025   ----------------------------------------
	BYTE	PATT
	 POIN2	YuNo_FrustrationB_bpat_9_007
// 026   ----------------------------------------
	BYTE	PATT
	 POIN2	YuNo_FrustrationB_bpat_9_008
// 027   ----------------------------------------
	BYTE	PATT
	 POIN2	YuNo_FrustrationB_bpat_9_006
// 028   ----------------------------------------
	BYTE	PATT
	 POIN2	YuNo_FrustrationB_bpat_9_007
// 029   ----------------------------------------
YuNo_FrustrationB_bpat_9_029:
	BYTE		N01     Fs1   v108
	BYTE		N01     An3 
	BYTE	W24
	BYTE		        Fs1 
	BYTE	W12
	BYTE		        As3 
	BYTE	W06
	BYTE		        As3   v092
	BYTE	W06
	BYTE		        Fs1   v108
	BYTE		N01     As3   v080
	BYTE	W06
	BYTE		        As3   v108
	BYTE	W06
	BYTE		        As3   v092
	BYTE	W06
	BYTE		        As3   v080
	BYTE	W06
	BYTE		        Fs1   v108
	BYTE	W24
	BYTE	PEND
// 030   ----------------------------------------
	BYTE	PATT
	 POIN2	YuNo_FrustrationB_bpat_9_006
// 031   ----------------------------------------
YuNo_FrustrationB_bpat_9_031:
	BYTE		N01     Fs1   v108
	BYTE	W18
	BYTE		N01   
	BYTE	W06
	BYTE		        An3 
	BYTE	W24
	BYTE		        Fs1 
	BYTE	W24
	BYTE		N01   
	BYTE	W24
	BYTE	PEND
// 032   ----------------------------------------
	BYTE	PATT
	 POIN2	YuNo_FrustrationB_bpat_9_008
// 033   ----------------------------------------
	BYTE	PATT
	 POIN2	YuNo_FrustrationB_bpat_9_006
// 034   ----------------------------------------
	BYTE	PATT
	 POIN2	YuNo_FrustrationB_bpat_9_031
// 035   ----------------------------------------
YuNo_FrustrationB_bpat_9_035:
	BYTE		N01     Fs1   v108
	BYTE		N01     An3 
	BYTE	W24
	BYTE		        Fs1 
	BYTE	W24
	BYTE		N01   
	BYTE	W24
	BYTE		N01   
	BYTE	W12
	BYTE		N01   
	BYTE	W06
	BYTE		        An3 
	BYTE	W06
	BYTE	PEND
// 036   ----------------------------------------
	BYTE	PATT
	 POIN2	YuNo_FrustrationB_bpat_9_006
// 037   ----------------------------------------
	BYTE	PATT
	 POIN2	YuNo_FrustrationB_bpat_9_031
// 038   ----------------------------------------
	BYTE	PATT
	 POIN2	YuNo_FrustrationB_bpat_9_008
// 039   ----------------------------------------
	BYTE	PATT
	 POIN2	YuNo_FrustrationB_bpat_9_006
// 040   ----------------------------------------
	BYTE	PATT
	 POIN2	YuNo_FrustrationB_bpat_9_031
// 041   ----------------------------------------
YuNo_FrustrationB_bpat_9_041:
	BYTE		N01     Fs1   v108
	BYTE		N01     An3 
	BYTE	W24
	BYTE		        Fs1 
	BYTE	W06
	BYTE		        As3   v120
	BYTE	W06
	BYTE		        As3   v108
	BYTE	W06
	BYTE		        As3   v092
	BYTE	W06
	BYTE		        Fs1   v108
	BYTE	W24
	BYTE		N01   
	BYTE	W18
	BYTE		N01   
	BYTE	W06
	BYTE	PEND
// 042   ----------------------------------------
	BYTE	PATT
	 POIN2	YuNo_FrustrationB_bpat_9_006
// 043   ----------------------------------------
	BYTE	PATT
	 POIN2	YuNo_FrustrationB_bpat_9_031
// 044   ----------------------------------------
	BYTE	PATT
	 POIN2	YuNo_FrustrationB_bpat_9_008
// 045   ----------------------------------------
	BYTE	PATT
	 POIN2	YuNo_FrustrationB_bpat_9_006
// 046   ----------------------------------------
	BYTE	PATT
	 POIN2	YuNo_FrustrationB_bpat_9_031
// 047   ----------------------------------------
	BYTE	PATT
	 POIN2	YuNo_FrustrationB_bpat_9_035
// 048   ----------------------------------------
	BYTE	PATT
	 POIN2	YuNo_FrustrationB_bpat_9_006
// 049   ----------------------------------------
	BYTE	PATT
	 POIN2	YuNo_FrustrationB_bpat_9_031
// 050   ----------------------------------------
	BYTE	PATT
	 POIN2	YuNo_FrustrationB_bpat_9_008
// 051   ----------------------------------------
	BYTE	PATT
	 POIN2	YuNo_FrustrationB_bpat_9_006
// 052   ----------------------------------------
	BYTE	PATT
	 POIN2	YuNo_FrustrationB_bpat_9_031
// 053   ----------------------------------------
YuNo_FrustrationB_bpat_9_053:
	BYTE		N01     Fs1   v108
	BYTE		N01     An3 
	BYTE	W24
	BYTE		        Fs1 
	BYTE	W06
	BYTE		        As3   v080
	BYTE	W06
	BYTE		        As3   v092
	BYTE	W06
	BYTE		        As3   v108
	BYTE	W06
	BYTE		        Fs1 
	BYTE		N01     As3   v120
	BYTE	W06
	BYTE		N01   
	BYTE	W06
	BYTE		        Fs1   v108
	BYTE	W06
	BYTE		        As3   v120
	BYTE	W18
	BYTE		        Fs1   v108
	BYTE	W12
	BYTE	PEND
	BYTE	GoTo
	 POIN2	YuNo_FrustrationB_bpat_9_B1
YuNo_FrustrationB_bpat_9_B2:
// 054   ----------------------------------------
	BYTE	W96
// 055   ----------------------------------------
	BYTE	W96
// 056   ----------------------------------------
	BYTE	W96
// 057   ----------------------------------------
	BYTE	W96
// 058   ----------------------------------------
	BYTE	W96
// 059   ----------------------------------------
	BYTE	PATT
	 POIN2	YuNo_FrustrationB_bpat_9_005
// 060   ----------------------------------------
	BYTE	PATT
	 POIN2	YuNo_FrustrationB_bpat_9_006
// 061   ----------------------------------------
	BYTE	PATT
	 POIN2	YuNo_FrustrationB_bpat_9_007
// 062   ----------------------------------------
	BYTE	PATT
	 POIN2	YuNo_FrustrationB_bpat_9_008
// 063   ----------------------------------------
	BYTE	PATT
	 POIN2	YuNo_FrustrationB_bpat_9_006
// 064   ----------------------------------------
	BYTE	PATT
	 POIN2	YuNo_FrustrationB_bpat_9_007
// 065   ----------------------------------------
	BYTE	PATT
	 POIN2	YuNo_FrustrationB_bpat_9_011
// 066   ----------------------------------------
	BYTE	PATT
	 POIN2	YuNo_FrustrationB_bpat_9_006
// 067   ----------------------------------------
	BYTE	PATT
	 POIN2	YuNo_FrustrationB_bpat_9_007
// 068   ----------------------------------------
	BYTE	PATT
	 POIN2	YuNo_FrustrationB_bpat_9_008
// 069   ----------------------------------------
	BYTE	PATT
	 POIN2	YuNo_FrustrationB_bpat_9_006
// 070   ----------------------------------------
	BYTE	PATT
	 POIN2	YuNo_FrustrationB_bpat_9_007
// 071   ----------------------------------------
	BYTE	PATT
	 POIN2	YuNo_FrustrationB_bpat_9_017
// 072   ----------------------------------------
	BYTE	PATT
	 POIN2	YuNo_FrustrationB_bpat_9_006
// 073   ----------------------------------------
	BYTE	PATT
	 POIN2	YuNo_FrustrationB_bpat_9_007
// 074   ----------------------------------------
	BYTE	PATT
	 POIN2	YuNo_FrustrationB_bpat_9_008
// 075   ----------------------------------------
	BYTE	PATT
	 POIN2	YuNo_FrustrationB_bpat_9_006
// 076   ----------------------------------------
	BYTE	PATT
	 POIN2	YuNo_FrustrationB_bpat_9_007
// 077   ----------------------------------------
	BYTE	PATT
	 POIN2	YuNo_FrustrationB_bpat_9_011
// 078   ----------------------------------------
	BYTE	PATT
	 POIN2	YuNo_FrustrationB_bpat_9_006
// 079   ----------------------------------------
	BYTE	PATT
	 POIN2	YuNo_FrustrationB_bpat_9_007
// 080   ----------------------------------------
	BYTE	PATT
	 POIN2	YuNo_FrustrationB_bpat_9_008
// 081   ----------------------------------------
	BYTE	PATT
	 POIN2	YuNo_FrustrationB_bpat_9_006
// 082   ----------------------------------------
	BYTE	PATT
	 POIN2	YuNo_FrustrationB_bpat_9_007
// 083   ----------------------------------------
	BYTE	PATT
	 POIN2	YuNo_FrustrationB_bpat_9_029
// 084   ----------------------------------------
	BYTE	PATT
	 POIN2	YuNo_FrustrationB_bpat_9_006
// 085   ----------------------------------------
	BYTE	PATT
	 POIN2	YuNo_FrustrationB_bpat_9_031
// 086   ----------------------------------------
	BYTE	PATT
	 POIN2	YuNo_FrustrationB_bpat_9_008
// 087   ----------------------------------------
	BYTE	PATT
	 POIN2	YuNo_FrustrationB_bpat_9_006
// 088   ----------------------------------------
	BYTE	PATT
	 POIN2	YuNo_FrustrationB_bpat_9_031
// 089   ----------------------------------------
	BYTE	PATT
	 POIN2	YuNo_FrustrationB_bpat_9_035
// 090   ----------------------------------------
	BYTE	PATT
	 POIN2	YuNo_FrustrationB_bpat_9_006
// 091   ----------------------------------------
	BYTE	PATT
	 POIN2	YuNo_FrustrationB_bpat_9_031
// 092   ----------------------------------------
	BYTE	PATT
	 POIN2	YuNo_FrustrationB_bpat_9_008
// 093   ----------------------------------------
	BYTE	PATT
	 POIN2	YuNo_FrustrationB_bpat_9_006
// 094   ----------------------------------------
	BYTE	PATT
	 POIN2	YuNo_FrustrationB_bpat_9_031
// 095   ----------------------------------------
	BYTE	PATT
	 POIN2	YuNo_FrustrationB_bpat_9_041
// 096   ----------------------------------------
	BYTE	PATT
	 POIN2	YuNo_FrustrationB_bpat_9_006
// 097   ----------------------------------------
	BYTE	PATT
	 POIN2	YuNo_FrustrationB_bpat_9_031
// 098   ----------------------------------------
	BYTE	PATT
	 POIN2	YuNo_FrustrationB_bpat_9_008
// 099   ----------------------------------------
	BYTE	PATT
	 POIN2	YuNo_FrustrationB_bpat_9_006
// 100   ----------------------------------------
	BYTE	PATT
	 POIN2	YuNo_FrustrationB_bpat_9_031
// 101   ----------------------------------------
	BYTE	PATT
	 POIN2	YuNo_FrustrationB_bpat_9_035
// 102   ----------------------------------------
	BYTE	PATT
	 POIN2	YuNo_FrustrationB_bpat_9_006
// 103   ----------------------------------------
	BYTE	PATT
	 POIN2	YuNo_FrustrationB_bpat_9_031
// 104   ----------------------------------------
	BYTE	PATT
	 POIN2	YuNo_FrustrationB_bpat_9_008
// 105   ----------------------------------------
	BYTE	PATT
	 POIN2	YuNo_FrustrationB_bpat_9_006
// 106   ----------------------------------------
	BYTE	PATT
	 POIN2	YuNo_FrustrationB_bpat_9_031
// 107   ----------------------------------------
	BYTE	PATT
	 POIN2	YuNo_FrustrationB_bpat_9_053
// 108   ----------------------------------------
	BYTE	FINE

//**************** Track 10 (Midi-Chn.11) ****************//

YuNo_FrustrationB_bpat_10:
	BYTE	KEYSH   YuNo_FrustrationB_bpat_key+0
YuNo_FrustrationB_bpat_10_B1:
// 000   ----------------------------------------
	BYTE		VOICE   14
	BYTE		PAN     c_v+0
	BYTE		VOL     43*YuNo_FrustrationB_bpat_mvl/mxv
	BYTE		TIE     As1   v112
	BYTE		TIE     As2 
	BYTE	W96
// 001   ----------------------------------------
	BYTE	W96
// 002   ----------------------------------------
	BYTE	W96
	BYTE		EOT     As1 
	BYTE		        As2 
// 003   ----------------------------------------
YuNo_FrustrationB_bpat_10_003:
	BYTE		TIE     Bn1   v112
	BYTE		TIE     Bn2 
	BYTE	W96
	BYTE	PEND
// 004   ----------------------------------------
	BYTE	W96
// 005   ----------------------------------------
	BYTE	W96
	BYTE		EOT     Bn1 
	BYTE		        Bn2 
// 006   ----------------------------------------
YuNo_FrustrationB_bpat_10_006:
	BYTE		TIE     As1   v112
	BYTE		TIE     As2 
	BYTE	W96
	BYTE	PEND
// 007   ----------------------------------------
	BYTE	W12
	BYTE		EOT     As1 
	BYTE		        As2 
	BYTE		N36     Fn2 
	BYTE		N36     Fn3 
	BYTE	W36
	BYTE		N72     As2 
	BYTE		N72     As3 
	BYTE	W48
// 008   ----------------------------------------
YuNo_FrustrationB_bpat_10_008:
	BYTE	W24
	BYTE		N72     As2   v112
	BYTE		N72     Fn3 
	BYTE	W72
	BYTE	PEND
// 009   ----------------------------------------
	BYTE	PATT
	 POIN2	YuNo_FrustrationB_bpat_10_003
// 010   ----------------------------------------
	BYTE	W48
	BYTE		EOT     Bn1 
	BYTE		        Bn2 
	BYTE		N96     Bn2   v112
	BYTE		N96     Bn3 
	BYTE	W48
// 011   ----------------------------------------
YuNo_FrustrationB_bpat_10_011:
	BYTE	W48
	BYTE		N24     As2   v112
	BYTE		N24     As3 
	BYTE	W24
	BYTE		        Gs2 
	BYTE		N24     Gs3 
	BYTE	W24
	BYTE	PEND
// 012   ----------------------------------------
YuNo_FrustrationB_bpat_10_012:
	BYTE		N72     As1   v112
	BYTE		N72     As2 
	BYTE	W72
	BYTE		        Fn2 
	BYTE		N72     Fn3 
	BYTE	W24
	BYTE	PEND
// 013   ----------------------------------------
YuNo_FrustrationB_bpat_10_013:
	BYTE	W48
	BYTE		TIE     As2   v112
	BYTE		TIE     As3 
	BYTE	W48
	BYTE	PEND
// 014   ----------------------------------------
	BYTE	W60
	BYTE		EOT     As2 
	BYTE		        As3 
	BYTE		N36     Fn3 
	BYTE	W36
// 015   ----------------------------------------
YuNo_FrustrationB_bpat_10_015:
	BYTE		N72     Gn2   v112
	BYTE		N72     Gn3 
	BYTE	W72
	BYTE		        Dn3 
	BYTE	W24
	BYTE	PEND
// 016   ----------------------------------------
YuNo_FrustrationB_bpat_10_016:
	BYTE	W48
	BYTE		N72     Fs2   v112
	BYTE		N72     Fs3 
	BYTE	W48
	BYTE	PEND
// 017   ----------------------------------------
YuNo_FrustrationB_bpat_10_017:
	BYTE	W24
	BYTE		N72     Gs2   v112
	BYTE		N72     Gs3 
	BYTE	W72
	BYTE	PEND
// 018   ----------------------------------------
	BYTE	PATT
	 POIN2	YuNo_FrustrationB_bpat_10_006
// 019   ----------------------------------------
	BYTE	W12
	BYTE		EOT     As1 
	BYTE		        As2 
	BYTE		N36     Fn2   v112
	BYTE		N36     Fn3 
	BYTE	W36
	BYTE		N72     As2 
	BYTE		N72     As3 
	BYTE	W48
// 020   ----------------------------------------
	BYTE	PATT
	 POIN2	YuNo_FrustrationB_bpat_10_008
// 021   ----------------------------------------
	BYTE	PATT
	 POIN2	YuNo_FrustrationB_bpat_10_003
// 022   ----------------------------------------
	BYTE	W48
	BYTE		EOT     Bn1 
	BYTE		        Bn2 
	BYTE		N96     Bn2   v112
	BYTE		N96     Bn3 
	BYTE	W48
// 023   ----------------------------------------
	BYTE	PATT
	 POIN2	YuNo_FrustrationB_bpat_10_011
// 024   ----------------------------------------
	BYTE	PATT
	 POIN2	YuNo_FrustrationB_bpat_10_012
// 025   ----------------------------------------
	BYTE	PATT
	 POIN2	YuNo_FrustrationB_bpat_10_013
// 026   ----------------------------------------
	BYTE	W60
	BYTE		EOT     As2 
	BYTE		        As3 
	BYTE		N36     Fn3   v112
	BYTE	W36
// 027   ----------------------------------------
	BYTE	PATT
	 POIN2	YuNo_FrustrationB_bpat_10_015
// 028   ----------------------------------------
	BYTE	PATT
	 POIN2	YuNo_FrustrationB_bpat_10_016
// 029   ----------------------------------------
	BYTE	PATT
	 POIN2	YuNo_FrustrationB_bpat_10_017
// 030   ----------------------------------------
	BYTE	PATT
	 POIN2	YuNo_FrustrationB_bpat_10_006
// 031   ----------------------------------------
	BYTE	W12
	BYTE		EOT     As1 
	BYTE		        As2 
	BYTE		N36     Fn2   v112
	BYTE		N36     Fn3 
	BYTE	W36
	BYTE		N72     As2 
	BYTE		N72     As3 
	BYTE	W48
// 032   ----------------------------------------
YuNo_FrustrationB_bpat_10_032:
	BYTE	W24
	BYTE		TIE     Fn3   v112
	BYTE	W72
	BYTE	PEND
// 033   ----------------------------------------
	BYTE	W72
	BYTE		EOT   
	BYTE		N36     As1 
	BYTE		N36     As2 
	BYTE	W24
// 034   ----------------------------------------
YuNo_FrustrationB_bpat_10_034:
	BYTE	W12
	BYTE		N36     Fn2   v112
	BYTE		N36     Fn3 
	BYTE	W36
	BYTE		N72     As2 
	BYTE		N72     As3 
	BYTE	W48
	BYTE	PEND
// 035   ----------------------------------------
	BYTE	W24
	BYTE		        Fn4 
	BYTE	W72
// 036   ----------------------------------------
YuNo_FrustrationB_bpat_10_036:
	BYTE		TIE     As2   v112
	BYTE		TIE     As3 
	BYTE	W96
	BYTE	PEND
// 037   ----------------------------------------
	BYTE	W12
	BYTE		EOT     As2 
	BYTE		        As3 
	BYTE		N36     Fn3 
	BYTE		N36     Fn4 
	BYTE	W36
	BYTE		N72     As3 
	BYTE		N72     As4 
	BYTE	W48
// 038   ----------------------------------------
YuNo_FrustrationB_bpat_10_038:
	BYTE	W24
	BYTE		TIE     Fn4   v112
	BYTE	W72
	BYTE	PEND
// 039   ----------------------------------------
	BYTE	W72
	BYTE		EOT   
	BYTE		N36     As2 
	BYTE		N36     As3 
	BYTE	W24
// 040   ----------------------------------------
YuNo_FrustrationB_bpat_10_040:
	BYTE	W12
	BYTE		N36     Fn3   v112
	BYTE		N36     Fn4 
	BYTE	W36
	BYTE		N72     As3 
	BYTE		N72     As4 
	BYTE	W48
	BYTE	PEND
// 041   ----------------------------------------
	BYTE	W24
	BYTE		        Fn4 
	BYTE	W72
// 042   ----------------------------------------
	BYTE	PATT
	 POIN2	YuNo_FrustrationB_bpat_10_006
// 043   ----------------------------------------
	BYTE	W12
	BYTE		EOT     As1 
	BYTE		        As2 
	BYTE		N36     Fn2   v112
	BYTE		N36     Fn3 
	BYTE	W36
	BYTE		N72     As2 
	BYTE		N72     As3 
	BYTE	W48
// 044   ----------------------------------------
	BYTE	PATT
	 POIN2	YuNo_FrustrationB_bpat_10_032
// 045   ----------------------------------------
	BYTE	W72
	BYTE		EOT     Fn3 
	BYTE		N36     As1   v112
	BYTE		N36     As2 
	BYTE	W24
// 046   ----------------------------------------
	BYTE	PATT
	 POIN2	YuNo_FrustrationB_bpat_10_034
// 047   ----------------------------------------
	BYTE	W24
	BYTE		N72     Fn4   v112
	BYTE	W72
// 048   ----------------------------------------
	BYTE	PATT
	 POIN2	YuNo_FrustrationB_bpat_10_036
// 049   ----------------------------------------
	BYTE	W12
	BYTE		EOT     As2 
	BYTE		        As3 
	BYTE		N36     Fn3   v112
	BYTE		N36     Fn4 
	BYTE	W36
	BYTE		N72     As3 
	BYTE		N72     As4 
	BYTE	W48
// 050   ----------------------------------------
	BYTE	PATT
	 POIN2	YuNo_FrustrationB_bpat_10_038
// 051   ----------------------------------------
	BYTE	W72
	BYTE		EOT     Fn4 
	BYTE		N36     As2   v112
	BYTE		N36     As3 
	BYTE	W24
// 052   ----------------------------------------
	BYTE	PATT
	 POIN2	YuNo_FrustrationB_bpat_10_040
// 053   ----------------------------------------
	BYTE	W24
	BYTE		N72     Fn4   v112
	BYTE	W72
	BYTE	GoTo
	 POIN2	YuNo_FrustrationB_bpat_10_B1
YuNo_FrustrationB_bpat_10_B2:
// 054   ----------------------------------------
	BYTE		TIE     As1   v112
	BYTE		TIE     As2 
	BYTE	W96
// 055   ----------------------------------------
	BYTE	W96
// 056   ----------------------------------------
	BYTE	W96
	BYTE		EOT     As1 
	BYTE		        As2 
// 057   ----------------------------------------
	BYTE	PATT
	 POIN2	YuNo_FrustrationB_bpat_10_003
// 058   ----------------------------------------
	BYTE	W96
// 059   ----------------------------------------
	BYTE	W96
	BYTE		EOT     Bn1 
	BYTE		        Bn2 
// 060   ----------------------------------------
	BYTE	PATT
	 POIN2	YuNo_FrustrationB_bpat_10_006
// 061   ----------------------------------------
	BYTE	W12
	BYTE		EOT     As1 
	BYTE		        As2 
	BYTE		N36     Fn2   v112
	BYTE		N36     Fn3 
	BYTE	W36
	BYTE		N72     As2 
	BYTE		N72     As3 
	BYTE	W48
// 062   ----------------------------------------
	BYTE	PATT
	 POIN2	YuNo_FrustrationB_bpat_10_008
// 063   ----------------------------------------
	BYTE	PATT
	 POIN2	YuNo_FrustrationB_bpat_10_003
// 064   ----------------------------------------
	BYTE	W48
	BYTE		EOT     Bn1 
	BYTE		        Bn2 
	BYTE		N96     Bn2   v112
	BYTE		N96     Bn3 
	BYTE	W48
// 065   ----------------------------------------
	BYTE	PATT
	 POIN2	YuNo_FrustrationB_bpat_10_011
// 066   ----------------------------------------
	BYTE	PATT
	 POIN2	YuNo_FrustrationB_bpat_10_012
// 067   ----------------------------------------
	BYTE	PATT
	 POIN2	YuNo_FrustrationB_bpat_10_013
// 068   ----------------------------------------
	BYTE	W60
	BYTE		EOT     As2 
	BYTE		        As3 
	BYTE		N36     Fn3   v112
	BYTE	W36
// 069   ----------------------------------------
	BYTE	PATT
	 POIN2	YuNo_FrustrationB_bpat_10_015
// 070   ----------------------------------------
	BYTE	PATT
	 POIN2	YuNo_FrustrationB_bpat_10_016
// 071   ----------------------------------------
	BYTE	PATT
	 POIN2	YuNo_FrustrationB_bpat_10_017
// 072   ----------------------------------------
	BYTE	PATT
	 POIN2	YuNo_FrustrationB_bpat_10_006
// 073   ----------------------------------------
	BYTE	W12
	BYTE		EOT     As1 
	BYTE		        As2 
	BYTE		N36     Fn2   v112
	BYTE		N36     Fn3 
	BYTE	W36
	BYTE		N72     As2 
	BYTE		N72     As3 
	BYTE	W48
// 074   ----------------------------------------
	BYTE	PATT
	 POIN2	YuNo_FrustrationB_bpat_10_008
// 075   ----------------------------------------
	BYTE	PATT
	 POIN2	YuNo_FrustrationB_bpat_10_003
// 076   ----------------------------------------
	BYTE	W48
	BYTE		EOT     Bn1 
	BYTE		        Bn2 
	BYTE		N96     Bn2   v112
	BYTE		N96     Bn3 
	BYTE	W48
// 077   ----------------------------------------
	BYTE	PATT
	 POIN2	YuNo_FrustrationB_bpat_10_011
// 078   ----------------------------------------
	BYTE	PATT
	 POIN2	YuNo_FrustrationB_bpat_10_012
// 079   ----------------------------------------
	BYTE	PATT
	 POIN2	YuNo_FrustrationB_bpat_10_013
// 080   ----------------------------------------
	BYTE	W60
	BYTE		EOT     As2 
	BYTE		        As3 
	BYTE		N36     Fn3   v112
	BYTE	W36
// 081   ----------------------------------------
	BYTE	PATT
	 POIN2	YuNo_FrustrationB_bpat_10_015
// 082   ----------------------------------------
	BYTE	PATT
	 POIN2	YuNo_FrustrationB_bpat_10_016
// 083   ----------------------------------------
	BYTE	PATT
	 POIN2	YuNo_FrustrationB_bpat_10_017
// 084   ----------------------------------------
	BYTE	PATT
	 POIN2	YuNo_FrustrationB_bpat_10_006
// 085   ----------------------------------------
	BYTE	W12
	BYTE		EOT     As1 
	BYTE		        As2 
	BYTE		N36     Fn2   v112
	BYTE		N36     Fn3 
	BYTE	W36
	BYTE		N72     As2 
	BYTE		N72     As3 
	BYTE	W48
// 086   ----------------------------------------
	BYTE	PATT
	 POIN2	YuNo_FrustrationB_bpat_10_032
// 087   ----------------------------------------
	BYTE	W72
	BYTE		EOT     Fn3 
	BYTE		N36     As1   v112
	BYTE		N36     As2 
	BYTE	W24
// 088   ----------------------------------------
	BYTE	PATT
	 POIN2	YuNo_FrustrationB_bpat_10_034
// 089   ----------------------------------------
	BYTE	W24
	BYTE		N72     Fn4   v112
	BYTE	W72
// 090   ----------------------------------------
	BYTE	PATT
	 POIN2	YuNo_FrustrationB_bpat_10_036
// 091   ----------------------------------------
	BYTE	W12
	BYTE		EOT     As2 
	BYTE		        As3 
	BYTE		N36     Fn3   v112
	BYTE		N36     Fn4 
	BYTE	W36
	BYTE		N72     As3 
	BYTE		N72     As4 
	BYTE	W48
// 092   ----------------------------------------
	BYTE	PATT
	 POIN2	YuNo_FrustrationB_bpat_10_038
// 093   ----------------------------------------
	BYTE	W72
	BYTE		EOT     Fn4 
	BYTE		N36     As2   v112
	BYTE		N36     As3 
	BYTE	W24
// 094   ----------------------------------------
	BYTE	PATT
	 POIN2	YuNo_FrustrationB_bpat_10_040
// 095   ----------------------------------------
	BYTE	W24
	BYTE		N72     Fn4   v112
	BYTE	W72
// 096   ----------------------------------------
	BYTE	PATT
	 POIN2	YuNo_FrustrationB_bpat_10_006
// 097   ----------------------------------------
	BYTE	W12
	BYTE		EOT     As1 
	BYTE		        As2 
	BYTE		N36     Fn2   v112
	BYTE		N36     Fn3 
	BYTE	W36
	BYTE		N72     As2 
	BYTE		N72     As3 
	BYTE	W48
// 098   ----------------------------------------
	BYTE	PATT
	 POIN2	YuNo_FrustrationB_bpat_10_032
// 099   ----------------------------------------
	BYTE	W72
	BYTE		EOT     Fn3 
	BYTE		N36     As1   v112
	BYTE		N36     As2 
	BYTE	W24
// 100   ----------------------------------------
	BYTE	PATT
	 POIN2	YuNo_FrustrationB_bpat_10_034
// 101   ----------------------------------------
	BYTE	W24
	BYTE		N72     Fn4   v112
	BYTE	W72
// 102   ----------------------------------------
	BYTE	PATT
	 POIN2	YuNo_FrustrationB_bpat_10_036
// 103   ----------------------------------------
	BYTE	W12
	BYTE		EOT     As2 
	BYTE		        As3 
	BYTE		N36     Fn3   v112
	BYTE		N36     Fn4 
	BYTE	W36
	BYTE		N72     As3 
	BYTE		N72     As4 
	BYTE	W48
// 104   ----------------------------------------
	BYTE	PATT
	 POIN2	YuNo_FrustrationB_bpat_10_038
// 105   ----------------------------------------
	BYTE	W72
	BYTE		EOT     Fn4 
	BYTE		N36     As2   v112
	BYTE		N36     As3 
	BYTE	W24
// 106   ----------------------------------------
	BYTE	PATT
	 POIN2	YuNo_FrustrationB_bpat_10_040
// 107   ----------------------------------------
	BYTE	W24
	BYTE		N72     Fn4   v112
	BYTE	W72
// 108   ----------------------------------------
	BYTE	FINE

//**************** Track 11 (Midi-Chn.12) ****************//

YuNo_FrustrationB_bpat_11:
	BYTE	KEYSH   YuNo_FrustrationB_bpat_key+0
YuNo_FrustrationB_bpat_11_B1:
// 000   ----------------------------------------
	BYTE		VOICE   95
	BYTE		PAN     c_v+0
	BYTE		VOL     54*YuNo_FrustrationB_bpat_mvl/mxv
	BYTE	W96
// 001   ----------------------------------------
	BYTE	W48
	BYTE	W48
// 002   ----------------------------------------
	BYTE	W96
// 003   ----------------------------------------
	BYTE	W96
// 004   ----------------------------------------
	BYTE	W48
	BYTE	W48
// 005   ----------------------------------------
	BYTE	W96
// 006   ----------------------------------------
	BYTE	W96
// 007   ----------------------------------------
	BYTE	W48
	BYTE	W48
// 008   ----------------------------------------
	BYTE	W96
// 009   ----------------------------------------
	BYTE	W96
// 010   ----------------------------------------
	BYTE	W48
	BYTE	W48
// 011   ----------------------------------------
	BYTE	W96
// 012   ----------------------------------------
	BYTE	W96
// 013   ----------------------------------------
	BYTE	W48
	BYTE	W48
// 014   ----------------------------------------
	BYTE	W96
// 015   ----------------------------------------
	BYTE	W96
// 016   ----------------------------------------
	BYTE	W48
	BYTE	W48
// 017   ----------------------------------------
	BYTE	W96
// 018   ----------------------------------------
	BYTE	W96
// 019   ----------------------------------------
	BYTE	W48
	BYTE	W48
// 020   ----------------------------------------
	BYTE	W96
// 021   ----------------------------------------
	BYTE	W96
// 022   ----------------------------------------
	BYTE	W48
	BYTE	W48
// 023   ----------------------------------------
	BYTE	W96
// 024   ----------------------------------------
	BYTE	W96
// 025   ----------------------------------------
	BYTE	W48
	BYTE	W48
// 026   ----------------------------------------
	BYTE	W96
// 027   ----------------------------------------
	BYTE	W96
// 028   ----------------------------------------
	BYTE	W48
	BYTE	W48
// 029   ----------------------------------------
	BYTE	W96
// 030   ----------------------------------------
YuNo_FrustrationB_bpat_11_030:
	BYTE		TIE     Gs3   v092
	BYTE		TIE     Cn4 
	BYTE	W96
	BYTE	PEND
// 031   ----------------------------------------
	BYTE	W96
// 032   ----------------------------------------
	BYTE	W96
	BYTE		EOT     Gs3 
	BYTE		        Cn4 
// 033   ----------------------------------------
YuNo_FrustrationB_bpat_11_033:
	BYTE		TIE     Fs3   v092
	BYTE		TIE     As3 
	BYTE	W96
	BYTE	PEND
// 034   ----------------------------------------
	BYTE	W96
// 035   ----------------------------------------
	BYTE	W96
	BYTE		EOT     Fs3 
	BYTE		        As3 
// 036   ----------------------------------------
YuNo_FrustrationB_bpat_11_036:
	BYTE		TIE     Cs3   v092
	BYTE		TIE     Fn3 
	BYTE	W96
	BYTE	PEND
// 037   ----------------------------------------
	BYTE	W96
// 038   ----------------------------------------
	BYTE	W96
	BYTE		EOT     Cs3 
	BYTE		        Fn3 
// 039   ----------------------------------------
	BYTE	PATT
	 POIN2	YuNo_FrustrationB_bpat_11_030
// 040   ----------------------------------------
	BYTE	W96
// 041   ----------------------------------------
	BYTE	W96
	BYTE		EOT     Gs3 
	BYTE		        Cn4 
// 042   ----------------------------------------
	BYTE	W96
// 043   ----------------------------------------
	BYTE	W96
// 044   ----------------------------------------
	BYTE	W96
// 045   ----------------------------------------
	BYTE	W96
// 046   ----------------------------------------
	BYTE	W96
// 047   ----------------------------------------
	BYTE	W96
// 048   ----------------------------------------
	BYTE	W96
// 049   ----------------------------------------
	BYTE	W96
// 050   ----------------------------------------
	BYTE	W96
// 051   ----------------------------------------
	BYTE	W96
// 052   ----------------------------------------
	BYTE	W96
// 053   ----------------------------------------
	BYTE	W96
	BYTE	GoTo
	 POIN2	YuNo_FrustrationB_bpat_11_B1
YuNo_FrustrationB_bpat_11_B2:
// 054   ----------------------------------------
	BYTE	W96
// 055   ----------------------------------------
	BYTE	W48
	BYTE	W48
// 056   ----------------------------------------
	BYTE	W96
// 057   ----------------------------------------
	BYTE	W96
// 058   ----------------------------------------
	BYTE	W48
	BYTE	W48
// 059   ----------------------------------------
	BYTE	W96
// 060   ----------------------------------------
	BYTE	W96
// 061   ----------------------------------------
	BYTE	W48
	BYTE	W48
// 062   ----------------------------------------
	BYTE	W96
// 063   ----------------------------------------
	BYTE	W96
// 064   ----------------------------------------
	BYTE	W48
	BYTE	W48
// 065   ----------------------------------------
	BYTE	W96
// 066   ----------------------------------------
	BYTE	W96
// 067   ----------------------------------------
	BYTE	W48
	BYTE	W48
// 068   ----------------------------------------
	BYTE	W96
// 069   ----------------------------------------
	BYTE	W96
// 070   ----------------------------------------
	BYTE	W48
	BYTE	W48
// 071   ----------------------------------------
	BYTE	W96
// 072   ----------------------------------------
	BYTE	W96
// 073   ----------------------------------------
	BYTE	W48
	BYTE	W48
// 074   ----------------------------------------
	BYTE	W96
// 075   ----------------------------------------
	BYTE	W96
// 076   ----------------------------------------
	BYTE	W48
	BYTE	W48
// 077   ----------------------------------------
	BYTE	W96
// 078   ----------------------------------------
	BYTE	W96
// 079   ----------------------------------------
	BYTE	W48
	BYTE	W48
// 080   ----------------------------------------
	BYTE	W96
// 081   ----------------------------------------
	BYTE	W96
// 082   ----------------------------------------
	BYTE	W48
	BYTE	W48
// 083   ----------------------------------------
	BYTE	W96
// 084   ----------------------------------------
	BYTE	PATT
	 POIN2	YuNo_FrustrationB_bpat_11_030
// 085   ----------------------------------------
	BYTE	W96
// 086   ----------------------------------------
	BYTE	W96
	BYTE		EOT     Gs3 
	BYTE		        Cn4 
// 087   ----------------------------------------
	BYTE	PATT
	 POIN2	YuNo_FrustrationB_bpat_11_033
// 088   ----------------------------------------
	BYTE	W96
// 089   ----------------------------------------
	BYTE	W96
	BYTE		EOT     Fs3 
	BYTE		        As3 
// 090   ----------------------------------------
	BYTE	PATT
	 POIN2	YuNo_FrustrationB_bpat_11_036
// 091   ----------------------------------------
	BYTE	W96
// 092   ----------------------------------------
	BYTE	W96
	BYTE		EOT     Cs3 
	BYTE		        Fn3 
// 093   ----------------------------------------
	BYTE	PATT
	 POIN2	YuNo_FrustrationB_bpat_11_030
// 094   ----------------------------------------
	BYTE	W96
// 095   ----------------------------------------
	BYTE	W96
	BYTE		EOT     Gs3 
	BYTE		        Cn4 
// 096   ----------------------------------------
	BYTE	W96
// 097   ----------------------------------------
	BYTE	W96
// 098   ----------------------------------------
	BYTE	W96
// 099   ----------------------------------------
	BYTE	W96
// 100   ----------------------------------------
	BYTE	W96
// 101   ----------------------------------------
	BYTE	W96
// 102   ----------------------------------------
	BYTE	W96
// 103   ----------------------------------------
	BYTE	W96
// 104   ----------------------------------------
	BYTE	W96
// 105   ----------------------------------------
	BYTE	W96
// 106   ----------------------------------------
	BYTE	W96
// 107   ----------------------------------------
	BYTE	W96
// 108   ----------------------------------------
	BYTE	FINE

//**************** Track 12 (Midi-Chn.13) ****************//

YuNo_FrustrationB_bpat_12:
	BYTE	KEYSH   YuNo_FrustrationB_bpat_key+0
YuNo_FrustrationB_bpat_12_B1:
// 000   ----------------------------------------
	BYTE		VOICE   29
	BYTE		VOL     45*YuNo_FrustrationB_bpat_mvl/mxv
	BYTE		PAN     c_v-1
	BYTE		N12     As2   v100
	BYTE	W12
	BYTE		N06     Gs2 
	BYTE	W06
	BYTE		        As2 
	BYTE	W06
	BYTE		        Fn2 
	BYTE	W06
	BYTE		        As2 
	BYTE	W06
	BYTE		        Gs2 
	BYTE	W06
	BYTE		        As2 
	BYTE	W06
	BYTE		        Cn3 
	BYTE	W06
	BYTE		        Cs3 
	BYTE	W06
	BYTE		N12     Gs3 
	BYTE	W12
	BYTE		        As2 
	BYTE	W12
	BYTE		N06     Gs2 
	BYTE	W06
	BYTE		        As2 
	BYTE	W06
// 001   ----------------------------------------
YuNo_FrustrationB_bpat_12_001:
	BYTE		N06     Fn2   v100
	BYTE	W06
	BYTE		        As2 
	BYTE	W06
	BYTE		        Gs2 
	BYTE	W06
	BYTE		        As2 
	BYTE	W06
	BYTE		        Ds3 
	BYTE	W06
	BYTE		        Fn3 
	BYTE	W06
	BYTE		N12     Cn4 
	BYTE	W12
	BYTE		        As2 
	BYTE	W12
	BYTE		N06     Gs2 
	BYTE	W06
	BYTE		        As2 
	BYTE	W06
	BYTE		        Fn2 
	BYTE	W06
	BYTE		        As2 
	BYTE	W06
	BYTE		        Gs2 
	BYTE	W06
	BYTE		        As2 
	BYTE	W06
	BYTE	PEND
// 002   ----------------------------------------
YuNo_FrustrationB_bpat_12_002:
	BYTE		N06     Cn3   v100
	BYTE	W06
	BYTE		        Cs3 
	BYTE	W06
	BYTE		N12     Gs3 
	BYTE	W12
	BYTE		        As2 
	BYTE	W12
	BYTE		N06     Gs2 
	BYTE	W06
	BYTE		        As2 
	BYTE	W06
	BYTE		        Fn2 
	BYTE	W06
	BYTE		        As2 
	BYTE	W06
	BYTE		        Gs2 
	BYTE	W06
	BYTE		        As2 
	BYTE	W06
	BYTE		        Ds3 
	BYTE	W06
	BYTE		        Fn3 
	BYTE	W06
	BYTE		N12     Cn4 
	BYTE	W12
	BYTE	PEND
// 003   ----------------------------------------
YuNo_FrustrationB_bpat_12_003:
	BYTE		N12     Bn2   v100
	BYTE	W12
	BYTE		N06     Fs2 
	BYTE	W06
	BYTE		        Bn2 
	BYTE	W06
	BYTE		        As2 
	BYTE	W06
	BYTE		        Bn2 
	BYTE	W06
	BYTE		        Fs2 
	BYTE	W06
	BYTE		        Bn2 
	BYTE	W06
	BYTE		        Cs3 
	BYTE	W06
	BYTE		        Ds3 
	BYTE	W06
	BYTE		N12     Fs3 
	BYTE	W12
	BYTE		        Bn2 
	BYTE	W12
	BYTE		N06     Fs2 
	BYTE	W06
	BYTE		        Bn2 
	BYTE	W06
	BYTE	PEND
// 004   ----------------------------------------
YuNo_FrustrationB_bpat_12_004:
	BYTE		N06     As2   v100
	BYTE	W06
	BYTE		        Bn2 
	BYTE	W06
	BYTE		        Fs2 
	BYTE	W06
	BYTE		        Bn2 
	BYTE	W06
	BYTE		        Cs3 
	BYTE	W06
	BYTE		        Ds3 
	BYTE	W06
	BYTE		N12     As2 
	BYTE	W12
	BYTE		        Bn2 
	BYTE	W12
	BYTE		N06     Fs2 
	BYTE	W06
	BYTE		        Bn2 
	BYTE	W06
	BYTE		        As2 
	BYTE	W06
	BYTE		        Bn2 
	BYTE	W06
	BYTE		        Fs2 
	BYTE	W06
	BYTE		        Bn2 
	BYTE	W06
	BYTE	PEND
// 005   ----------------------------------------
YuNo_FrustrationB_bpat_12_005:
	BYTE		N06     Cs3   v100
	BYTE	W06
	BYTE		        Ds3 
	BYTE	W06
	BYTE		N12     Fs3 
	BYTE	W12
	BYTE		        Bn2 
	BYTE	W12
	BYTE		N06     Fs2 
	BYTE	W06
	BYTE		        Bn2 
	BYTE	W06
	BYTE		        As2 
	BYTE	W06
	BYTE		        Bn2 
	BYTE	W06
	BYTE		        Fs2 
	BYTE	W06
	BYTE		        Bn2 
	BYTE	W06
	BYTE		        Cs3 
	BYTE	W06
	BYTE		        Ds3 
	BYTE	W06
	BYTE		N12     Bn3 
	BYTE	W12
	BYTE	PEND
// 006   ----------------------------------------
YuNo_FrustrationB_bpat_12_006:
	BYTE		N12     As2   v100
	BYTE	W12
	BYTE		N06     Gs2 
	BYTE	W06
	BYTE		        As2 
	BYTE	W06
	BYTE		        Fn2 
	BYTE	W06
	BYTE		        As2 
	BYTE	W06
	BYTE		        Gs2 
	BYTE	W06
	BYTE		        As2 
	BYTE	W06
	BYTE		        Cn3 
	BYTE	W06
	BYTE		        Cs3 
	BYTE	W06
	BYTE		N12     Gs3 
	BYTE	W12
	BYTE		        As2 
	BYTE	W12
	BYTE		N06     Gs2 
	BYTE	W06
	BYTE		        As2 
	BYTE	W06
	BYTE	PEND
// 007   ----------------------------------------
YuNo_FrustrationB_bpat_12_007:
	BYTE		N06     Fn2   v100
	BYTE	W06
	BYTE		        As2 
	BYTE	W06
	BYTE		        Gs2 
	BYTE	W06
	BYTE		        As2 
	BYTE	W06
	BYTE		        Ds3 
	BYTE	W06
	BYTE		        Fn3 
	BYTE	W06
	BYTE		N12     Cn4 
	BYTE	W12
	BYTE		        As2 
	BYTE	W12
	BYTE		N06     Gs2 
	BYTE	W06
	BYTE		        As2 
	BYTE	W06
	BYTE		        Fn2 
	BYTE	W06
	BYTE		        As2 
	BYTE	W06
	BYTE		        Gs2 
	BYTE	W06
	BYTE		        As2 
	BYTE	W06
	BYTE	PEND
// 008   ----------------------------------------
	BYTE	PATT
	 POIN2	YuNo_FrustrationB_bpat_12_002
// 009   ----------------------------------------
YuNo_FrustrationB_bpat_12_009:
	BYTE		N12     Bn2   v100
	BYTE	W12
	BYTE		N06     Fs2 
	BYTE	W06
	BYTE		        Bn2 
	BYTE	W06
	BYTE		        As2 
	BYTE	W06
	BYTE		        Bn2 
	BYTE	W06
	BYTE		        Fs2 
	BYTE	W06
	BYTE		        Bn2 
	BYTE	W06
	BYTE		        Cs3 
	BYTE	W06
	BYTE		        Ds3 
	BYTE	W06
	BYTE		N12     Fs3 
	BYTE	W12
	BYTE		        Bn2 
	BYTE	W12
	BYTE		N06     Fs2 
	BYTE	W06
	BYTE		        Bn2 
	BYTE	W06
	BYTE	PEND
// 010   ----------------------------------------
YuNo_FrustrationB_bpat_12_010:
	BYTE		N06     As2   v100
	BYTE	W06
	BYTE		        Bn2 
	BYTE	W06
	BYTE		        Fs2 
	BYTE	W06
	BYTE		        Bn2 
	BYTE	W06
	BYTE		        Cs3 
	BYTE	W06
	BYTE		        Ds3 
	BYTE	W06
	BYTE		N12     As2 
	BYTE	W12
	BYTE		        Bn2 
	BYTE	W12
	BYTE		N06     Fs2 
	BYTE	W06
	BYTE		        Bn2 
	BYTE	W06
	BYTE		        As2 
	BYTE	W06
	BYTE		        Bn2 
	BYTE	W06
	BYTE		        Fs2 
	BYTE	W06
	BYTE		        Bn2 
	BYTE	W06
	BYTE	PEND
// 011   ----------------------------------------
	BYTE	PATT
	 POIN2	YuNo_FrustrationB_bpat_12_005
// 012   ----------------------------------------
YuNo_FrustrationB_bpat_12_012:
	BYTE		N12     As2   v100
	BYTE	W12
	BYTE		N06     Gs2 
	BYTE	W06
	BYTE		        As2 
	BYTE	W06
	BYTE		        Fn2 
	BYTE	W06
	BYTE		        As2 
	BYTE	W06
	BYTE		        Gs2 
	BYTE	W06
	BYTE		        As2 
	BYTE	W06
	BYTE		        Cn3 
	BYTE	W06
	BYTE		        Cs3 
	BYTE	W06
	BYTE		N12     Gs3 
	BYTE	W12
	BYTE		        As2 
	BYTE	W12
	BYTE		N06     Gs2 
	BYTE	W06
	BYTE		        As2 
	BYTE	W06
	BYTE	PEND
// 013   ----------------------------------------
	BYTE	PATT
	 POIN2	YuNo_FrustrationB_bpat_12_007
// 014   ----------------------------------------
	BYTE	PATT
	 POIN2	YuNo_FrustrationB_bpat_12_002
// 015   ----------------------------------------
YuNo_FrustrationB_bpat_12_015:
	BYTE		N12     Bn2   v100
	BYTE	W12
	BYTE		N06     Gn2 
	BYTE	W06
	BYTE		        Bn2 
	BYTE	W06
	BYTE		        Fn2 
	BYTE	W06
	BYTE		        Bn2 
	BYTE	W06
	BYTE		        Gn2 
	BYTE	W06
	BYTE		        Bn2 
	BYTE	W06
	BYTE		        Cn3 
	BYTE	W06
	BYTE		        Dn3 
	BYTE	W06
	BYTE		N12     Fn3 
	BYTE	W12
	BYTE		        Bn2 
	BYTE	W12
	BYTE		N06     Gn2 
	BYTE	W06
	BYTE		        Bn2 
	BYTE	W06
	BYTE	PEND
// 016   ----------------------------------------
YuNo_FrustrationB_bpat_12_016:
	BYTE		N06     Fn2   v100
	BYTE	W06
	BYTE		        Bn2 
	BYTE	W06
	BYTE		        Gn2 
	BYTE	W06
	BYTE		        Bn2 
	BYTE	W06
	BYTE		        En3 
	BYTE	W06
	BYTE		        Fn3 
	BYTE	W06
	BYTE		N12     An3 
	BYTE	W12
	BYTE		        As2 
	BYTE	W12
	BYTE		N06     Gs2 
	BYTE	W06
	BYTE		        As2 
	BYTE	W06
	BYTE		        Fn2 
	BYTE	W06
	BYTE		        As2 
	BYTE	W06
	BYTE		        Gs2 
	BYTE	W06
	BYTE		        As2 
	BYTE	W06
	BYTE	PEND
// 017   ----------------------------------------
	BYTE	PATT
	 POIN2	YuNo_FrustrationB_bpat_12_002
// 018   ----------------------------------------
	BYTE	PATT
	 POIN2	YuNo_FrustrationB_bpat_12_012
// 019   ----------------------------------------
	BYTE	PATT
	 POIN2	YuNo_FrustrationB_bpat_12_007
// 020   ----------------------------------------
	BYTE	PATT
	 POIN2	YuNo_FrustrationB_bpat_12_002
// 021   ----------------------------------------
	BYTE	PATT
	 POIN2	YuNo_FrustrationB_bpat_12_009
// 022   ----------------------------------------
	BYTE	PATT
	 POIN2	YuNo_FrustrationB_bpat_12_010
// 023   ----------------------------------------
	BYTE	PATT
	 POIN2	YuNo_FrustrationB_bpat_12_005
// 024   ----------------------------------------
	BYTE	PATT
	 POIN2	YuNo_FrustrationB_bpat_12_012
// 025   ----------------------------------------
	BYTE	PATT
	 POIN2	YuNo_FrustrationB_bpat_12_007
// 026   ----------------------------------------
	BYTE	PATT
	 POIN2	YuNo_FrustrationB_bpat_12_002
// 027   ----------------------------------------
	BYTE	PATT
	 POIN2	YuNo_FrustrationB_bpat_12_015
// 028   ----------------------------------------
	BYTE	PATT
	 POIN2	YuNo_FrustrationB_bpat_12_016
// 029   ----------------------------------------
	BYTE	PATT
	 POIN2	YuNo_FrustrationB_bpat_12_002
// 030   ----------------------------------------
	BYTE	W96
// 031   ----------------------------------------
	BYTE	W96
// 032   ----------------------------------------
	BYTE	W96
// 033   ----------------------------------------
	BYTE	W96
// 034   ----------------------------------------
	BYTE	W96
// 035   ----------------------------------------
	BYTE	W96
// 036   ----------------------------------------
	BYTE	W96
// 037   ----------------------------------------
	BYTE	W96
// 038   ----------------------------------------
	BYTE	W96
// 039   ----------------------------------------
	BYTE	W96
// 040   ----------------------------------------
	BYTE	W96
// 041   ----------------------------------------
	BYTE	W96
// 042   ----------------------------------------
	BYTE	W96
// 043   ----------------------------------------
	BYTE	W96
// 044   ----------------------------------------
	BYTE	W96
// 045   ----------------------------------------
	BYTE	W96
// 046   ----------------------------------------
	BYTE	W96
// 047   ----------------------------------------
	BYTE	W96
// 048   ----------------------------------------
	BYTE	W96
// 049   ----------------------------------------
	BYTE	W96
// 050   ----------------------------------------
	BYTE	W96
// 051   ----------------------------------------
	BYTE	W96
// 052   ----------------------------------------
	BYTE	W96
// 053   ----------------------------------------
	BYTE	W96
	BYTE	GoTo
	 POIN2	YuNo_FrustrationB_bpat_12_B1
YuNo_FrustrationB_bpat_12_B2:
// 054   ----------------------------------------
	BYTE		N12     As2   v100
	BYTE	W12
	BYTE		N06     Gs2 
	BYTE	W06
	BYTE		        As2 
	BYTE	W06
	BYTE		        Fn2 
	BYTE	W06
	BYTE		        As2 
	BYTE	W06
	BYTE		        Gs2 
	BYTE	W06
	BYTE		        As2 
	BYTE	W06
	BYTE		        Cn3 
	BYTE	W06
	BYTE		        Cs3 
	BYTE	W06
	BYTE		N12     Gs3 
	BYTE	W12
	BYTE		        As2 
	BYTE	W12
	BYTE		N06     Gs2 
	BYTE	W06
	BYTE		        As2 
	BYTE	W06
// 055   ----------------------------------------
	BYTE	PATT
	 POIN2	YuNo_FrustrationB_bpat_12_001
// 056   ----------------------------------------
	BYTE	PATT
	 POIN2	YuNo_FrustrationB_bpat_12_002
// 057   ----------------------------------------
	BYTE	PATT
	 POIN2	YuNo_FrustrationB_bpat_12_003
// 058   ----------------------------------------
	BYTE	PATT
	 POIN2	YuNo_FrustrationB_bpat_12_004
// 059   ----------------------------------------
	BYTE	PATT
	 POIN2	YuNo_FrustrationB_bpat_12_005
// 060   ----------------------------------------
	BYTE	PATT
	 POIN2	YuNo_FrustrationB_bpat_12_006
// 061   ----------------------------------------
	BYTE	PATT
	 POIN2	YuNo_FrustrationB_bpat_12_007
// 062   ----------------------------------------
	BYTE	PATT
	 POIN2	YuNo_FrustrationB_bpat_12_002
// 063   ----------------------------------------
	BYTE	PATT
	 POIN2	YuNo_FrustrationB_bpat_12_009
// 064   ----------------------------------------
	BYTE	PATT
	 POIN2	YuNo_FrustrationB_bpat_12_010
// 065   ----------------------------------------
	BYTE	PATT
	 POIN2	YuNo_FrustrationB_bpat_12_005
// 066   ----------------------------------------
	BYTE	PATT
	 POIN2	YuNo_FrustrationB_bpat_12_012
// 067   ----------------------------------------
	BYTE	PATT
	 POIN2	YuNo_FrustrationB_bpat_12_007
// 068   ----------------------------------------
	BYTE	PATT
	 POIN2	YuNo_FrustrationB_bpat_12_002
// 069   ----------------------------------------
	BYTE	PATT
	 POIN2	YuNo_FrustrationB_bpat_12_015
// 070   ----------------------------------------
	BYTE	PATT
	 POIN2	YuNo_FrustrationB_bpat_12_016
// 071   ----------------------------------------
	BYTE	PATT
	 POIN2	YuNo_FrustrationB_bpat_12_002
// 072   ----------------------------------------
	BYTE	PATT
	 POIN2	YuNo_FrustrationB_bpat_12_012
// 073   ----------------------------------------
	BYTE	PATT
	 POIN2	YuNo_FrustrationB_bpat_12_007
// 074   ----------------------------------------
	BYTE	PATT
	 POIN2	YuNo_FrustrationB_bpat_12_002
// 075   ----------------------------------------
	BYTE	PATT
	 POIN2	YuNo_FrustrationB_bpat_12_009
// 076   ----------------------------------------
	BYTE	PATT
	 POIN2	YuNo_FrustrationB_bpat_12_010
// 077   ----------------------------------------
	BYTE	PATT
	 POIN2	YuNo_FrustrationB_bpat_12_005
// 078   ----------------------------------------
	BYTE	PATT
	 POIN2	YuNo_FrustrationB_bpat_12_012
// 079   ----------------------------------------
	BYTE	PATT
	 POIN2	YuNo_FrustrationB_bpat_12_007
// 080   ----------------------------------------
	BYTE	PATT
	 POIN2	YuNo_FrustrationB_bpat_12_002
// 081   ----------------------------------------
	BYTE	PATT
	 POIN2	YuNo_FrustrationB_bpat_12_015
// 082   ----------------------------------------
	BYTE	PATT
	 POIN2	YuNo_FrustrationB_bpat_12_016
// 083   ----------------------------------------
	BYTE	PATT
	 POIN2	YuNo_FrustrationB_bpat_12_002
// 084   ----------------------------------------
	BYTE	W96
// 085   ----------------------------------------
	BYTE	W96
// 086   ----------------------------------------
	BYTE	W96
// 087   ----------------------------------------
	BYTE	W96
// 088   ----------------------------------------
	BYTE	W96
// 089   ----------------------------------------
	BYTE	W96
// 090   ----------------------------------------
	BYTE	W96
// 091   ----------------------------------------
	BYTE	W96
// 092   ----------------------------------------
	BYTE	W96
// 093   ----------------------------------------
	BYTE	W96
// 094   ----------------------------------------
	BYTE	W96
// 095   ----------------------------------------
	BYTE	W96
// 096   ----------------------------------------
	BYTE	W96
// 097   ----------------------------------------
	BYTE	W96
// 098   ----------------------------------------
	BYTE	W96
// 099   ----------------------------------------
	BYTE	W96
// 100   ----------------------------------------
	BYTE	W96
// 101   ----------------------------------------
	BYTE	W96
// 102   ----------------------------------------
	BYTE	W96
// 103   ----------------------------------------
	BYTE	W96
// 104   ----------------------------------------
	BYTE	W96
// 105   ----------------------------------------
	BYTE	W96
// 106   ----------------------------------------
	BYTE	W96
// 107   ----------------------------------------
	BYTE	W96
// 108   ----------------------------------------
	BYTE	FINE

//**************** Track 13 (Midi-Chn.14) ****************//

YuNo_FrustrationB_bpat_13:
	BYTE	KEYSH   YuNo_FrustrationB_bpat_key+0
YuNo_FrustrationB_bpat_13_B1:
// 000   ----------------------------------------
	BYTE		VOICE   46
	BYTE		PAN     c_v+0
	BYTE		VOL     45*YuNo_FrustrationB_bpat_mvl/mxv
	BYTE	W96
// 001   ----------------------------------------
	BYTE	W96
// 002   ----------------------------------------
	BYTE	W96
// 003   ----------------------------------------
	BYTE	W96
// 004   ----------------------------------------
	BYTE	W96
// 005   ----------------------------------------
	BYTE	W96
// 006   ----------------------------------------
	BYTE	W96
// 007   ----------------------------------------
	BYTE	W96
// 008   ----------------------------------------
	BYTE	W96
// 009   ----------------------------------------
	BYTE	W96
// 010   ----------------------------------------
	BYTE	W96
// 011   ----------------------------------------
	BYTE	W96
// 012   ----------------------------------------
	BYTE	W96
// 013   ----------------------------------------
	BYTE	W96
// 014   ----------------------------------------
	BYTE	W96
// 015   ----------------------------------------
	BYTE	W96
// 016   ----------------------------------------
	BYTE	W96
// 017   ----------------------------------------
	BYTE	W96
// 018   ----------------------------------------
	BYTE	W96
// 019   ----------------------------------------
	BYTE	W96
// 020   ----------------------------------------
	BYTE	W96
// 021   ----------------------------------------
	BYTE	W96
// 022   ----------------------------------------
	BYTE	W96
// 023   ----------------------------------------
	BYTE	W96
// 024   ----------------------------------------
	BYTE	W96
// 025   ----------------------------------------
	BYTE	W96
// 026   ----------------------------------------
	BYTE	W96
// 027   ----------------------------------------
	BYTE	W96
// 028   ----------------------------------------
	BYTE	W96
// 029   ----------------------------------------
	BYTE	W96
// 030   ----------------------------------------
YuNo_FrustrationB_bpat_13_030:
	BYTE		N06     Cn3   v120
	BYTE	W06
	BYTE		        Fn3 
	BYTE	W06
	BYTE		        Gs3 
	BYTE	W06
	BYTE		        Cn4 
	BYTE	W06
	BYTE		        As3 
	BYTE	W06
	BYTE		        Fn3 
	BYTE	W06
	BYTE		        Gs3 
	BYTE	W06
	BYTE		        Gn3 
	BYTE	W06
	BYTE		        Ds3 
	BYTE	W06
	BYTE		        Fn3 
	BYTE	W06
	BYTE		        Ds3 
	BYTE	W06
	BYTE		        Cs3 
	BYTE	W06
	BYTE		        Cn3 
	BYTE	W06
	BYTE		        Fn3 
	BYTE	W06
	BYTE		        Gs3 
	BYTE	W06
	BYTE		        Cn4 
	BYTE	W06
	BYTE	PEND
// 031   ----------------------------------------
YuNo_FrustrationB_bpat_13_031:
	BYTE		N06     As3   v120
	BYTE	W06
	BYTE		        Fn3 
	BYTE	W06
	BYTE		        Gs3 
	BYTE	W06
	BYTE		        Gn3 
	BYTE	W06
	BYTE		        Ds3 
	BYTE	W06
	BYTE		        Fn3 
	BYTE	W06
	BYTE		        Ds3 
	BYTE	W06
	BYTE		        Cs3 
	BYTE	W06
	BYTE		        Cn3 
	BYTE	W06
	BYTE		        Fn3 
	BYTE	W06
	BYTE		        Gs3 
	BYTE	W06
	BYTE		        Cn4 
	BYTE	W06
	BYTE		        As3 
	BYTE	W06
	BYTE		        Fn3 
	BYTE	W06
	BYTE		        Gs3 
	BYTE	W06
	BYTE		        Gn3 
	BYTE	W06
	BYTE	PEND
// 032   ----------------------------------------
YuNo_FrustrationB_bpat_13_032:
	BYTE		N06     Ds3   v120
	BYTE	W06
	BYTE		        Fn3 
	BYTE	W06
	BYTE		        Ds3 
	BYTE	W06
	BYTE		        Cs3 
	BYTE	W06
	BYTE		        Cn3 
	BYTE	W06
	BYTE		        Fn3 
	BYTE	W06
	BYTE		        Gs3 
	BYTE	W06
	BYTE		        Cn4 
	BYTE	W06
	BYTE		        As3 
	BYTE	W06
	BYTE		        Fn3 
	BYTE	W06
	BYTE		        Gs3 
	BYTE	W06
	BYTE		        Gn3 
	BYTE	W06
	BYTE		        Ds3 
	BYTE	W06
	BYTE		        Fn3 
	BYTE	W06
	BYTE		        Ds3 
	BYTE	W06
	BYTE		        Cs3 
	BYTE	W06
	BYTE	PEND
// 033   ----------------------------------------
	BYTE	PATT
	 POIN2	YuNo_FrustrationB_bpat_13_030
// 034   ----------------------------------------
	BYTE	PATT
	 POIN2	YuNo_FrustrationB_bpat_13_031
// 035   ----------------------------------------
	BYTE	PATT
	 POIN2	YuNo_FrustrationB_bpat_13_032
// 036   ----------------------------------------
	BYTE	PATT
	 POIN2	YuNo_FrustrationB_bpat_13_030
// 037   ----------------------------------------
	BYTE	PATT
	 POIN2	YuNo_FrustrationB_bpat_13_031
// 038   ----------------------------------------
	BYTE	PATT
	 POIN2	YuNo_FrustrationB_bpat_13_032
// 039   ----------------------------------------
	BYTE	PATT
	 POIN2	YuNo_FrustrationB_bpat_13_030
// 040   ----------------------------------------
	BYTE	PATT
	 POIN2	YuNo_FrustrationB_bpat_13_031
// 041   ----------------------------------------
	BYTE	PATT
	 POIN2	YuNo_FrustrationB_bpat_13_032
// 042   ----------------------------------------
YuNo_FrustrationB_bpat_13_042:
	BYTE		VOL     40*YuNo_FrustrationB_bpat_mvl/mxv
	BYTE		N06     Cn4   v120
	BYTE	W06
	BYTE		        Fn4 
	BYTE	W06
	BYTE		        Gs4 
	BYTE	W06
	BYTE		        Cn5 
	BYTE	W06
	BYTE		        As4 
	BYTE	W06
	BYTE		        Fn4 
	BYTE	W06
	BYTE		        Gs4 
	BYTE	W06
	BYTE		        Gn4 
	BYTE	W06
	BYTE		        Ds4 
	BYTE	W06
	BYTE		        Fn4 
	BYTE	W06
	BYTE		        Ds4 
	BYTE	W06
	BYTE		        Cs4 
	BYTE	W06
	BYTE		        Cn4 
	BYTE	W06
	BYTE		        Fn4 
	BYTE	W06
	BYTE		        Gs4 
	BYTE	W06
	BYTE		        Cn5 
	BYTE	W06
	BYTE	PEND
// 043   ----------------------------------------
YuNo_FrustrationB_bpat_13_043:
	BYTE		N06     As4   v120
	BYTE	W06
	BYTE		        Fn4 
	BYTE	W06
	BYTE		        Gs4 
	BYTE	W06
	BYTE		        Gn4 
	BYTE	W06
	BYTE		        Ds4 
	BYTE	W06
	BYTE		        Fn4 
	BYTE	W06
	BYTE		        Ds4 
	BYTE	W06
	BYTE		        Cs4 
	BYTE	W06
	BYTE		        Cn4 
	BYTE	W06
	BYTE		        Fn4 
	BYTE	W06
	BYTE		        Gs4 
	BYTE	W06
	BYTE		        Cn5 
	BYTE	W06
	BYTE		        As4 
	BYTE	W06
	BYTE		        Fn4 
	BYTE	W06
	BYTE		        Gs4 
	BYTE	W06
	BYTE		        Gn4 
	BYTE	W06
	BYTE	PEND
// 044   ----------------------------------------
YuNo_FrustrationB_bpat_13_044:
	BYTE		N06     Ds4   v120
	BYTE	W06
	BYTE		        Fn4 
	BYTE	W06
	BYTE		        Ds4 
	BYTE	W06
	BYTE		        Cs4 
	BYTE	W06
	BYTE		        Cn4 
	BYTE	W06
	BYTE		        Fn4 
	BYTE	W06
	BYTE		        Gs4 
	BYTE	W06
	BYTE		        Cn5 
	BYTE	W06
	BYTE		        As4 
	BYTE	W06
	BYTE		        Fn4 
	BYTE	W06
	BYTE		        Gs4 
	BYTE	W06
	BYTE		        Gn4 
	BYTE	W06
	BYTE		        Ds4 
	BYTE	W06
	BYTE		        Fn4 
	BYTE	W06
	BYTE		        Ds4 
	BYTE	W06
	BYTE		        Cs4 
	BYTE	W06
	BYTE	PEND
// 045   ----------------------------------------
YuNo_FrustrationB_bpat_13_045:
	BYTE		N06     Cn4   v120
	BYTE	W06
	BYTE		        Fn4 
	BYTE	W06
	BYTE		        Gs4 
	BYTE	W06
	BYTE		        Cn5 
	BYTE	W06
	BYTE		        As4 
	BYTE	W06
	BYTE		        Fn4 
	BYTE	W06
	BYTE		        Gs4 
	BYTE	W06
	BYTE		        Gn4 
	BYTE	W06
	BYTE		        Ds4 
	BYTE	W06
	BYTE		        Fn4 
	BYTE	W06
	BYTE		        Ds4 
	BYTE	W06
	BYTE		        Cs4 
	BYTE	W06
	BYTE		        Cn4 
	BYTE	W06
	BYTE		        Fn4 
	BYTE	W06
	BYTE		        Gs4 
	BYTE	W06
	BYTE		        Cn5 
	BYTE	W06
	BYTE	PEND
// 046   ----------------------------------------
	BYTE	PATT
	 POIN2	YuNo_FrustrationB_bpat_13_043
// 047   ----------------------------------------
	BYTE	PATT
	 POIN2	YuNo_FrustrationB_bpat_13_044
// 048   ----------------------------------------
	BYTE	PATT
	 POIN2	YuNo_FrustrationB_bpat_13_045
// 049   ----------------------------------------
	BYTE	PATT
	 POIN2	YuNo_FrustrationB_bpat_13_043
// 050   ----------------------------------------
	BYTE	PATT
	 POIN2	YuNo_FrustrationB_bpat_13_044
// 051   ----------------------------------------
	BYTE	PATT
	 POIN2	YuNo_FrustrationB_bpat_13_045
// 052   ----------------------------------------
	BYTE	PATT
	 POIN2	YuNo_FrustrationB_bpat_13_043
// 053   ----------------------------------------
	BYTE	PATT
	 POIN2	YuNo_FrustrationB_bpat_13_044
	BYTE	GoTo
	 POIN2	YuNo_FrustrationB_bpat_13_B1
YuNo_FrustrationB_bpat_13_B2:
// 054   ----------------------------------------
	BYTE	W96
// 055   ----------------------------------------
	BYTE	W96
// 056   ----------------------------------------
	BYTE	W96
// 057   ----------------------------------------
	BYTE	W96
// 058   ----------------------------------------
	BYTE	W96
// 059   ----------------------------------------
	BYTE	W96
// 060   ----------------------------------------
	BYTE	W96
// 061   ----------------------------------------
	BYTE	W96
// 062   ----------------------------------------
	BYTE	W96
// 063   ----------------------------------------
	BYTE	W96
// 064   ----------------------------------------
	BYTE	W96
// 065   ----------------------------------------
	BYTE	W96
// 066   ----------------------------------------
	BYTE	W96
// 067   ----------------------------------------
	BYTE	W96
// 068   ----------------------------------------
	BYTE	W96
// 069   ----------------------------------------
	BYTE	W96
// 070   ----------------------------------------
	BYTE	W96
// 071   ----------------------------------------
	BYTE	W96
// 072   ----------------------------------------
	BYTE	W96
// 073   ----------------------------------------
	BYTE	W96
// 074   ----------------------------------------
	BYTE	W96
// 075   ----------------------------------------
	BYTE	W96
// 076   ----------------------------------------
	BYTE	W96
// 077   ----------------------------------------
	BYTE	W96
// 078   ----------------------------------------
	BYTE	W96
// 079   ----------------------------------------
	BYTE	W96
// 080   ----------------------------------------
	BYTE	W96
// 081   ----------------------------------------
	BYTE	W96
// 082   ----------------------------------------
	BYTE	W96
// 083   ----------------------------------------
	BYTE	W96
// 084   ----------------------------------------
	BYTE	PATT
	 POIN2	YuNo_FrustrationB_bpat_13_030
// 085   ----------------------------------------
	BYTE	PATT
	 POIN2	YuNo_FrustrationB_bpat_13_031
// 086   ----------------------------------------
	BYTE	PATT
	 POIN2	YuNo_FrustrationB_bpat_13_032
// 087   ----------------------------------------
	BYTE	PATT
	 POIN2	YuNo_FrustrationB_bpat_13_030
// 088   ----------------------------------------
	BYTE	PATT
	 POIN2	YuNo_FrustrationB_bpat_13_031
// 089   ----------------------------------------
	BYTE	PATT
	 POIN2	YuNo_FrustrationB_bpat_13_032
// 090   ----------------------------------------
	BYTE	PATT
	 POIN2	YuNo_FrustrationB_bpat_13_030
// 091   ----------------------------------------
	BYTE	PATT
	 POIN2	YuNo_FrustrationB_bpat_13_031
// 092   ----------------------------------------
	BYTE	PATT
	 POIN2	YuNo_FrustrationB_bpat_13_032
// 093   ----------------------------------------
	BYTE	PATT
	 POIN2	YuNo_FrustrationB_bpat_13_030
// 094   ----------------------------------------
	BYTE	PATT
	 POIN2	YuNo_FrustrationB_bpat_13_031
// 095   ----------------------------------------
	BYTE	PATT
	 POIN2	YuNo_FrustrationB_bpat_13_032
// 096   ----------------------------------------
	BYTE	PATT
	 POIN2	YuNo_FrustrationB_bpat_13_042
// 097   ----------------------------------------
	BYTE	PATT
	 POIN2	YuNo_FrustrationB_bpat_13_043
// 098   ----------------------------------------
	BYTE	PATT
	 POIN2	YuNo_FrustrationB_bpat_13_044
// 099   ----------------------------------------
	BYTE	PATT
	 POIN2	YuNo_FrustrationB_bpat_13_045
// 100   ----------------------------------------
	BYTE	PATT
	 POIN2	YuNo_FrustrationB_bpat_13_043
// 101   ----------------------------------------
	BYTE	PATT
	 POIN2	YuNo_FrustrationB_bpat_13_044
// 102   ----------------------------------------
	BYTE	PATT
	 POIN2	YuNo_FrustrationB_bpat_13_045
// 103   ----------------------------------------
	BYTE	PATT
	 POIN2	YuNo_FrustrationB_bpat_13_043
// 104   ----------------------------------------
	BYTE	PATT
	 POIN2	YuNo_FrustrationB_bpat_13_044
// 105   ----------------------------------------
	BYTE	PATT
	 POIN2	YuNo_FrustrationB_bpat_13_045
// 106   ----------------------------------------
	BYTE	PATT
	 POIN2	YuNo_FrustrationB_bpat_13_043
// 107   ----------------------------------------
	BYTE	PATT
	 POIN2	YuNo_FrustrationB_bpat_13_044
// 108   ----------------------------------------
	BYTE	FINE

//**************** Track 14 (Midi-Chn.15) ****************//

YuNo_FrustrationB_bpat_14:
	BYTE	KEYSH   YuNo_FrustrationB_bpat_key+0
YuNo_FrustrationB_bpat_14_B1:
// 000   ----------------------------------------
	BYTE		VOICE   121
	BYTE		PAN     c_v+0
	BYTE		VOL     50*YuNo_FrustrationB_bpat_mvl/mxv
	BYTE		N01     Fs1   v080
	BYTE	W06
	BYTE		        Fs1   v036
	BYTE	W06
	BYTE		        Fs1   v080
	BYTE	W06
	BYTE		        Fs1   v036
	BYTE	W06
	BYTE		        Fs1   v080
	BYTE	W06
	BYTE		        Fs1   v052
	BYTE	W06
	BYTE		        Fs1   v036
	BYTE	W06
	BYTE		        Fs1   v080
	BYTE	W06
	BYTE		N01   
	BYTE	W06
	BYTE		        Fs1   v036
	BYTE	W06
	BYTE		        As1   v080
	BYTE	W06
	BYTE		        Fs1   v052
	BYTE	W06
	BYTE		        Fs1   v080
	BYTE	W06
	BYTE		        Fs1   v052
	BYTE	W06
	BYTE		        Fs1   v080
	BYTE	W06
	BYTE		        Fs1   v052
	BYTE	W06
// 001   ----------------------------------------
YuNo_FrustrationB_bpat_14_001:
	BYTE		N01     Fs1   v080
	BYTE	W06
	BYTE		        Fs1   v064
	BYTE	W06
	BYTE		        Fs1   v052
	BYTE	W06
	BYTE		        Fs1   v080
	BYTE	W06
	BYTE		N01   
	BYTE	W06
	BYTE		        As1 
	BYTE	W12
	BYTE		        Fs1 
	BYTE	W06
	BYTE		N01   
	BYTE	W06
	BYTE		        Fs1   v036
	BYTE	W06
	BYTE		        Fs1   v080
	BYTE	W06
	BYTE		        Fs1   v036
	BYTE	W06
	BYTE		        Fs1   v080
	BYTE	W06
	BYTE		        Fs1   v052
	BYTE	W06
	BYTE		        Fs1   v036
	BYTE	W06
	BYTE		        Fs1   v080
	BYTE	W06
	BYTE	PEND
// 002   ----------------------------------------
YuNo_FrustrationB_bpat_14_002:
	BYTE		N01     Fs1   v080
	BYTE	W06
	BYTE		        Fs1   v036
	BYTE	W06
	BYTE		        As1   v080
	BYTE	W06
	BYTE		        Fs1   v052
	BYTE	W06
	BYTE		        Fs1   v080
	BYTE	W06
	BYTE		        Fs1   v052
	BYTE	W06
	BYTE		        Fs1   v080
	BYTE	W06
	BYTE		        Fs1   v052
	BYTE	W06
	BYTE		        Fs1   v080
	BYTE	W06
	BYTE		        Fs1   v064
	BYTE	W06
	BYTE		        Fs1   v052
	BYTE	W06
	BYTE		        Fs1   v080
	BYTE	W06
	BYTE		N01   
	BYTE	W06
	BYTE		        As1 
	BYTE	W12
	BYTE		        Fs1 
	BYTE	W06
	BYTE	PEND
// 003   ----------------------------------------
YuNo_FrustrationB_bpat_14_003:
	BYTE		N01     Fs1   v080
	BYTE	W06
	BYTE		        Fs1   v036
	BYTE	W06
	BYTE		        Fs1   v080
	BYTE	W06
	BYTE		        Fs1   v036
	BYTE	W06
	BYTE		        Fs1   v080
	BYTE	W06
	BYTE		        Fs1   v052
	BYTE	W06
	BYTE		        Fs1   v036
	BYTE	W06
	BYTE		        Fs1   v080
	BYTE	W06
	BYTE		N01   
	BYTE	W06
	BYTE		        Fs1   v036
	BYTE	W06
	BYTE		        As1   v080
	BYTE	W06
	BYTE		        Fs1   v052
	BYTE	W06
	BYTE		        Fs1   v080
	BYTE	W06
	BYTE		        Fs1   v052
	BYTE	W06
	BYTE		        Fs1   v080
	BYTE	W06
	BYTE		        Fs1   v052
	BYTE	W06
	BYTE	PEND
// 004   ----------------------------------------
YuNo_FrustrationB_bpat_14_004:
	BYTE		N01     Fs1   v080
	BYTE	W06
	BYTE		        Fs1   v064
	BYTE	W06
	BYTE		        Fs1   v052
	BYTE	W06
	BYTE		        Fs1   v080
	BYTE	W06
	BYTE		N01   
	BYTE	W06
	BYTE		        As1 
	BYTE	W12
	BYTE		        Fs1 
	BYTE	W06
	BYTE		N01   
	BYTE	W06
	BYTE		        Fs1   v052
	BYTE	W06
	BYTE		        Fs1   v080
	BYTE	W06
	BYTE		        Fs1   v052
	BYTE	W06
	BYTE		        Fs1   v080
	BYTE	W06
	BYTE		        Fs1   v064
	BYTE	W06
	BYTE		        Fs1   v052
	BYTE	W06
	BYTE		        Fs1   v080
	BYTE	W06
	BYTE	PEND
// 005   ----------------------------------------
YuNo_FrustrationB_bpat_14_005:
	BYTE		N01     Fs1   v080
	BYTE	W06
	BYTE		        Fs1   v052
	BYTE	W06
	BYTE		        As1   v080
	BYTE	W06
	BYTE		        Fs1   v052
	BYTE	W06
	BYTE		        Fs1   v080
	BYTE	W06
	BYTE		        Fs1   v052
	BYTE	W06
	BYTE		        Fs1   v080
	BYTE	W06
	BYTE		        Fs1   v052
	BYTE	W06
	BYTE		        Fs1   v080
	BYTE	W06
	BYTE		        Fs1   v052
	BYTE	W06
	BYTE		        Fs1   v080
	BYTE	W06
	BYTE		        Fs1   v052
	BYTE	W30
	BYTE	PEND
// 006   ----------------------------------------
YuNo_FrustrationB_bpat_14_006:
	BYTE		N01     Fs1   v080
	BYTE	W06
	BYTE		        Fs1   v052
	BYTE	W06
	BYTE		        Fs1   v080
	BYTE	W06
	BYTE		        Fs1   v052
	BYTE	W06
	BYTE		        Fs1   v080
	BYTE	W06
	BYTE		        Fs1   v064
	BYTE	W06
	BYTE		        Fs1   v052
	BYTE	W06
	BYTE		        Fs1   v080
	BYTE	W06
	BYTE		N01   
	BYTE	W06
	BYTE		        Fs1   v052
	BYTE	W06
	BYTE		        As1   v080
	BYTE	W06
	BYTE		        Fs1   v052
	BYTE	W06
	BYTE		        Fs1   v080
	BYTE	W06
	BYTE		        Fs1   v052
	BYTE	W06
	BYTE		        Fs1   v080
	BYTE	W06
	BYTE		        Fs1   v052
	BYTE	W06
	BYTE	PEND
// 007   ----------------------------------------
	BYTE	PATT
	 POIN2	YuNo_FrustrationB_bpat_14_004
// 008   ----------------------------------------
YuNo_FrustrationB_bpat_14_008:
	BYTE		N01     Fs1   v080
	BYTE	W06
	BYTE		        Fs1   v052
	BYTE	W06
	BYTE		        As1   v080
	BYTE	W06
	BYTE		        Fs1   v052
	BYTE	W06
	BYTE		        Fs1   v080
	BYTE	W06
	BYTE		        Fs1   v052
	BYTE	W06
	BYTE		        Fs1   v080
	BYTE	W06
	BYTE		        Fs1   v052
	BYTE	W06
	BYTE		        Fs1   v080
	BYTE	W06
	BYTE		        Fs1   v064
	BYTE	W06
	BYTE		        Fs1   v052
	BYTE	W06
	BYTE		        Fs1   v080
	BYTE	W06
	BYTE		N01   
	BYTE	W24
	BYTE	PEND
// 009   ----------------------------------------
	BYTE	PATT
	 POIN2	YuNo_FrustrationB_bpat_14_006
// 010   ----------------------------------------
	BYTE	PATT
	 POIN2	YuNo_FrustrationB_bpat_14_004
// 011   ----------------------------------------
YuNo_FrustrationB_bpat_14_011:
	BYTE		N01     Fs1   v080
	BYTE	W06
	BYTE		        Fs1   v052
	BYTE	W06
	BYTE		        As1   v080
	BYTE	W06
	BYTE		        Fs1   v052
	BYTE	W06
	BYTE		        Fs1   v080
	BYTE	W06
	BYTE		        Fs1   v052
	BYTE	W06
	BYTE		        Fs1   v092
	BYTE	W18
	BYTE		        As1   v108
	BYTE	W24
	BYTE		N01   
	BYTE	W18
	BYTE	PEND
// 012   ----------------------------------------
	BYTE	PATT
	 POIN2	YuNo_FrustrationB_bpat_14_006
// 013   ----------------------------------------
	BYTE	PATT
	 POIN2	YuNo_FrustrationB_bpat_14_004
// 014   ----------------------------------------
	BYTE	PATT
	 POIN2	YuNo_FrustrationB_bpat_14_008
// 015   ----------------------------------------
	BYTE	PATT
	 POIN2	YuNo_FrustrationB_bpat_14_006
// 016   ----------------------------------------
	BYTE	PATT
	 POIN2	YuNo_FrustrationB_bpat_14_004
// 017   ----------------------------------------
YuNo_FrustrationB_bpat_14_017:
	BYTE		N01     Fs1   v080
	BYTE	W06
	BYTE		        Fs1   v052
	BYTE	W06
	BYTE		        As1   v080
	BYTE	W06
	BYTE		        Fs1   v052
	BYTE	W06
	BYTE		        Fs1   v080
	BYTE	W06
	BYTE		        Fs1   v052
	BYTE	W06
	BYTE		        Bn1   v108
	BYTE	W18
	BYTE		        An1 
	BYTE	W18
	BYTE		        Fs1   v080
	BYTE		N01     Gn1   v108
	BYTE	W06
	BYTE		        Fs1   v052
	BYTE	W06
	BYTE		        As1   v092
	BYTE	W12
	BYTE	PEND
// 018   ----------------------------------------
	BYTE	PATT
	 POIN2	YuNo_FrustrationB_bpat_14_006
// 019   ----------------------------------------
	BYTE	PATT
	 POIN2	YuNo_FrustrationB_bpat_14_004
// 020   ----------------------------------------
	BYTE	PATT
	 POIN2	YuNo_FrustrationB_bpat_14_008
// 021   ----------------------------------------
	BYTE	PATT
	 POIN2	YuNo_FrustrationB_bpat_14_006
// 022   ----------------------------------------
	BYTE	PATT
	 POIN2	YuNo_FrustrationB_bpat_14_004
// 023   ----------------------------------------
	BYTE	PATT
	 POIN2	YuNo_FrustrationB_bpat_14_011
// 024   ----------------------------------------
	BYTE	PATT
	 POIN2	YuNo_FrustrationB_bpat_14_006
// 025   ----------------------------------------
	BYTE	PATT
	 POIN2	YuNo_FrustrationB_bpat_14_004
// 026   ----------------------------------------
	BYTE	PATT
	 POIN2	YuNo_FrustrationB_bpat_14_008
// 027   ----------------------------------------
	BYTE	PATT
	 POIN2	YuNo_FrustrationB_bpat_14_006
// 028   ----------------------------------------
	BYTE	PATT
	 POIN2	YuNo_FrustrationB_bpat_14_004
// 029   ----------------------------------------
YuNo_FrustrationB_bpat_14_029:
	BYTE		N01     Fs1   v080
	BYTE	W06
	BYTE		        Fs1   v052
	BYTE	W06
	BYTE		        As1   v080
	BYTE	W06
	BYTE		        Fs1   v052
	BYTE	W06
	BYTE		        Fs1   v080
	BYTE	W06
	BYTE		        Fs1   v052
	BYTE	W06
	BYTE		        Bn1   v092
	BYTE	W12
	BYTE		        Gn1   v064
	BYTE	W06
	BYTE		        An1   v092
	BYTE	W18
	BYTE		        Fs1   v080
	BYTE		N01     Bn1   v108
	BYTE	W04
	BYTE		        Bn1   v092
	BYTE	W04
	BYTE		        An1   v108
	BYTE	W04
	BYTE		        An1   v092
	BYTE	W04
	BYTE		        Gn1   v108
	BYTE	W04
	BYTE		        Gn1   v092
	BYTE	W04
	BYTE	PEND
// 030   ----------------------------------------
	BYTE	PATT
	 POIN2	YuNo_FrustrationB_bpat_14_006
// 031   ----------------------------------------
YuNo_FrustrationB_bpat_14_031:
	BYTE		N01     Fs1   v080
	BYTE	W06
	BYTE		        Fs1   v064
	BYTE	W06
	BYTE		        Fs1   v052
	BYTE	W06
	BYTE		        Fs1   v080
	BYTE	W06
	BYTE		N01   
	BYTE	W06
	BYTE		        As1   v092
	BYTE	W12
	BYTE		        Fs1   v080
	BYTE	W06
	BYTE		N01   
	BYTE	W06
	BYTE		        Fs1   v052
	BYTE	W06
	BYTE		        Fs1   v080
	BYTE	W06
	BYTE		        Fs1   v052
	BYTE	W06
	BYTE		        Fs1   v080
	BYTE	W06
	BYTE		        Fs1   v064
	BYTE	W06
	BYTE		        Fs1   v052
	BYTE	W06
	BYTE		        Fs1   v080
	BYTE	W06
	BYTE	PEND
// 032   ----------------------------------------
	BYTE	PATT
	 POIN2	YuNo_FrustrationB_bpat_14_008
// 033   ----------------------------------------
	BYTE	PATT
	 POIN2	YuNo_FrustrationB_bpat_14_006
// 034   ----------------------------------------
	BYTE	PATT
	 POIN2	YuNo_FrustrationB_bpat_14_031
// 035   ----------------------------------------
YuNo_FrustrationB_bpat_14_035:
	BYTE		N01     Fs1   v080
	BYTE	W06
	BYTE		        Fs1   v052
	BYTE	W06
	BYTE		        As1   v080
	BYTE	W06
	BYTE		        Fs1   v052
	BYTE	W12
	BYTE		        Bn1   v108
	BYTE	W12
	BYTE		        An1 
	BYTE	W06
	BYTE		        An1   v092
	BYTE	W06
	BYTE		        Fn1   v080
	BYTE	W12
	BYTE		        Gn1   v108
	BYTE	W06
	BYTE		        Gn1   v092
	BYTE	W12
	BYTE		        Fn1   v080
	BYTE	W12
	BYTE	PEND
// 036   ----------------------------------------
	BYTE	PATT
	 POIN2	YuNo_FrustrationB_bpat_14_006
// 037   ----------------------------------------
	BYTE	PATT
	 POIN2	YuNo_FrustrationB_bpat_14_031
// 038   ----------------------------------------
	BYTE	PATT
	 POIN2	YuNo_FrustrationB_bpat_14_008
// 039   ----------------------------------------
	BYTE	PATT
	 POIN2	YuNo_FrustrationB_bpat_14_006
// 040   ----------------------------------------
	BYTE	PATT
	 POIN2	YuNo_FrustrationB_bpat_14_031
// 041   ----------------------------------------
YuNo_FrustrationB_bpat_14_041:
	BYTE		N01     Fs1   v080
	BYTE	W06
	BYTE		        Fs1   v052
	BYTE	W06
	BYTE		        As1   v080
	BYTE	W06
	BYTE		        Fs1   v052
	BYTE	W30
	BYTE		        Gn1   v108
	BYTE	W06
	BYTE		        Bn1   v092
	BYTE	W12
	BYTE		        An1 
	BYTE	W06
	BYTE		N01   
	BYTE	W06
	BYTE		        Gn1   v080
	BYTE	W12
	BYTE		        Fn1   v108
	BYTE	W06
	BYTE	PEND
// 042   ----------------------------------------
	BYTE	PATT
	 POIN2	YuNo_FrustrationB_bpat_14_006
// 043   ----------------------------------------
	BYTE	PATT
	 POIN2	YuNo_FrustrationB_bpat_14_031
// 044   ----------------------------------------
	BYTE	PATT
	 POIN2	YuNo_FrustrationB_bpat_14_008
// 045   ----------------------------------------
	BYTE	PATT
	 POIN2	YuNo_FrustrationB_bpat_14_006
// 046   ----------------------------------------
	BYTE	PATT
	 POIN2	YuNo_FrustrationB_bpat_14_031
// 047   ----------------------------------------
	BYTE	PATT
	 POIN2	YuNo_FrustrationB_bpat_14_035
// 048   ----------------------------------------
	BYTE	PATT
	 POIN2	YuNo_FrustrationB_bpat_14_006
// 049   ----------------------------------------
	BYTE	PATT
	 POIN2	YuNo_FrustrationB_bpat_14_031
// 050   ----------------------------------------
	BYTE	PATT
	 POIN2	YuNo_FrustrationB_bpat_14_008
// 051   ----------------------------------------
	BYTE	PATT
	 POIN2	YuNo_FrustrationB_bpat_14_006
// 052   ----------------------------------------
	BYTE	PATT
	 POIN2	YuNo_FrustrationB_bpat_14_031
// 053   ----------------------------------------
YuNo_FrustrationB_bpat_14_053:
	BYTE		N01     Fs1   v080
	BYTE	W06
	BYTE		        Fs1   v052
	BYTE	W06
	BYTE		        As1   v092
	BYTE	W06
	BYTE		        Fs1   v052
	BYTE	W12
	BYTE		        Gn1   v024
	BYTE	W06
	BYTE		        Gn1   v036
	BYTE	W06
	BYTE		        Gn1   v052
	BYTE	W06
	BYTE		        Gn1   v064
	BYTE	W06
	BYTE		        Gn1   v080
	BYTE	W06
	BYTE		        Gn1   v092
	BYTE	W12
	BYTE		        An1   v120
	BYTE	W06
	BYTE		N01   
	BYTE	W12
	BYTE		        Gn1   v108
	BYTE	W06
	BYTE	PEND
	BYTE	GoTo
	 POIN2	YuNo_FrustrationB_bpat_14_B1
YuNo_FrustrationB_bpat_14_B2:
// 054   ----------------------------------------
	BYTE	PATT
	 POIN2	YuNo_FrustrationB_bpat_14_003
// 055   ----------------------------------------
	BYTE	PATT
	 POIN2	YuNo_FrustrationB_bpat_14_001
// 056   ----------------------------------------
	BYTE	PATT
	 POIN2	YuNo_FrustrationB_bpat_14_002
// 057   ----------------------------------------
	BYTE	PATT
	 POIN2	YuNo_FrustrationB_bpat_14_003
// 058   ----------------------------------------
	BYTE	PATT
	 POIN2	YuNo_FrustrationB_bpat_14_004
// 059   ----------------------------------------
	BYTE	PATT
	 POIN2	YuNo_FrustrationB_bpat_14_005
// 060   ----------------------------------------
	BYTE	PATT
	 POIN2	YuNo_FrustrationB_bpat_14_006
// 061   ----------------------------------------
	BYTE	PATT
	 POIN2	YuNo_FrustrationB_bpat_14_004
// 062   ----------------------------------------
	BYTE	PATT
	 POIN2	YuNo_FrustrationB_bpat_14_008
// 063   ----------------------------------------
	BYTE	PATT
	 POIN2	YuNo_FrustrationB_bpat_14_006
// 064   ----------------------------------------
	BYTE	PATT
	 POIN2	YuNo_FrustrationB_bpat_14_004
// 065   ----------------------------------------
	BYTE	PATT
	 POIN2	YuNo_FrustrationB_bpat_14_011
// 066   ----------------------------------------
	BYTE	PATT
	 POIN2	YuNo_FrustrationB_bpat_14_006
// 067   ----------------------------------------
	BYTE	PATT
	 POIN2	YuNo_FrustrationB_bpat_14_004
// 068   ----------------------------------------
	BYTE	PATT
	 POIN2	YuNo_FrustrationB_bpat_14_008
// 069   ----------------------------------------
	BYTE	PATT
	 POIN2	YuNo_FrustrationB_bpat_14_006
// 070   ----------------------------------------
	BYTE	PATT
	 POIN2	YuNo_FrustrationB_bpat_14_004
// 071   ----------------------------------------
	BYTE	PATT
	 POIN2	YuNo_FrustrationB_bpat_14_017
// 072   ----------------------------------------
	BYTE	PATT
	 POIN2	YuNo_FrustrationB_bpat_14_006
// 073   ----------------------------------------
	BYTE	PATT
	 POIN2	YuNo_FrustrationB_bpat_14_004
// 074   ----------------------------------------
	BYTE	PATT
	 POIN2	YuNo_FrustrationB_bpat_14_008
// 075   ----------------------------------------
	BYTE	PATT
	 POIN2	YuNo_FrustrationB_bpat_14_006
// 076   ----------------------------------------
	BYTE	PATT
	 POIN2	YuNo_FrustrationB_bpat_14_004
// 077   ----------------------------------------
	BYTE	PATT
	 POIN2	YuNo_FrustrationB_bpat_14_011
// 078   ----------------------------------------
	BYTE	PATT
	 POIN2	YuNo_FrustrationB_bpat_14_006
// 079   ----------------------------------------
	BYTE	PATT
	 POIN2	YuNo_FrustrationB_bpat_14_004
// 080   ----------------------------------------
	BYTE	PATT
	 POIN2	YuNo_FrustrationB_bpat_14_008
// 081   ----------------------------------------
	BYTE	PATT
	 POIN2	YuNo_FrustrationB_bpat_14_006
// 082   ----------------------------------------
	BYTE	PATT
	 POIN2	YuNo_FrustrationB_bpat_14_004
// 083   ----------------------------------------
	BYTE	PATT
	 POIN2	YuNo_FrustrationB_bpat_14_029
// 084   ----------------------------------------
	BYTE	PATT
	 POIN2	YuNo_FrustrationB_bpat_14_006
// 085   ----------------------------------------
	BYTE	PATT
	 POIN2	YuNo_FrustrationB_bpat_14_031
// 086   ----------------------------------------
	BYTE	PATT
	 POIN2	YuNo_FrustrationB_bpat_14_008
// 087   ----------------------------------------
	BYTE	PATT
	 POIN2	YuNo_FrustrationB_bpat_14_006
// 088   ----------------------------------------
	BYTE	PATT
	 POIN2	YuNo_FrustrationB_bpat_14_031
// 089   ----------------------------------------
	BYTE	PATT
	 POIN2	YuNo_FrustrationB_bpat_14_035
// 090   ----------------------------------------
	BYTE	PATT
	 POIN2	YuNo_FrustrationB_bpat_14_006
// 091   ----------------------------------------
	BYTE	PATT
	 POIN2	YuNo_FrustrationB_bpat_14_031
// 092   ----------------------------------------
	BYTE	PATT
	 POIN2	YuNo_FrustrationB_bpat_14_008
// 093   ----------------------------------------
	BYTE	PATT
	 POIN2	YuNo_FrustrationB_bpat_14_006
// 094   ----------------------------------------
	BYTE	PATT
	 POIN2	YuNo_FrustrationB_bpat_14_031
// 095   ----------------------------------------
	BYTE	PATT
	 POIN2	YuNo_FrustrationB_bpat_14_041
// 096   ----------------------------------------
	BYTE	PATT
	 POIN2	YuNo_FrustrationB_bpat_14_006
// 097   ----------------------------------------
	BYTE	PATT
	 POIN2	YuNo_FrustrationB_bpat_14_031
// 098   ----------------------------------------
	BYTE	PATT
	 POIN2	YuNo_FrustrationB_bpat_14_008
// 099   ----------------------------------------
	BYTE	PATT
	 POIN2	YuNo_FrustrationB_bpat_14_006
// 100   ----------------------------------------
	BYTE	PATT
	 POIN2	YuNo_FrustrationB_bpat_14_031
// 101   ----------------------------------------
	BYTE	PATT
	 POIN2	YuNo_FrustrationB_bpat_14_035
// 102   ----------------------------------------
	BYTE	PATT
	 POIN2	YuNo_FrustrationB_bpat_14_006
// 103   ----------------------------------------
	BYTE	PATT
	 POIN2	YuNo_FrustrationB_bpat_14_031
// 104   ----------------------------------------
	BYTE	PATT
	 POIN2	YuNo_FrustrationB_bpat_14_008
// 105   ----------------------------------------
	BYTE	PATT
	 POIN2	YuNo_FrustrationB_bpat_14_006
// 106   ----------------------------------------
	BYTE	PATT
	 POIN2	YuNo_FrustrationB_bpat_14_031
// 107   ----------------------------------------
	BYTE	PATT
	 POIN2	YuNo_FrustrationB_bpat_14_053
// 108   ----------------------------------------
	BYTE	FINE

//******************************************************//
	ALIGN 4

YuNo_FrustrationB_bpat:
	BYTE	14	// NumTrks
	BYTE	0	// NumBlks
	BYTE	YuNo_FrustrationB_bpat_pri	// Priority
	BYTE	YuNo_FrustrationB_bpat_rev	// Reverb.

	POIN2	YuNo_FrustrationB_bpat_grp

	POIN2	YuNo_FrustrationB_bpat_1
	POIN2	YuNo_FrustrationB_bpat_2
	POIN2	YuNo_FrustrationB_bpat_3
	POIN2	YuNo_FrustrationB_bpat_4
	POIN2	YuNo_FrustrationB_bpat_5
	POIN2	YuNo_FrustrationB_bpat_6
	POIN2	YuNo_FrustrationB_bpat_7
	POIN2	YuNo_FrustrationB_bpat_8
	POIN2	YuNo_FrustrationB_bpat_9
	POIN2	YuNo_FrustrationB_bpat_10
	POIN2	YuNo_FrustrationB_bpat_11
	POIN2	YuNo_FrustrationB_bpat_12
	POIN2	YuNo_FrustrationB_bpat_13
	POIN2	YuNo_FrustrationB_bpat_14

	
