//Event file generated from Sappy .s format.
	#include "MPlayDef.event"

	#define	YUNO_OtherWorld_bpat_grp  voicegroup000
	#define	YUNO_OtherWorld_bpat_pri  0
	#define	YUNO_OtherWorld_bpat_rev  0
	#define	YUNO_OtherWorld_bpat_mvl  127
	#define	YUNO_OtherWorld_bpat_key  0
	#define	YUNO_OtherWorld_bpat_tbs  1
	#define	YUNO_OtherWorld_bpat_exg  0
	#define	YUNO_OtherWorld_bpat_cmp  1

	// .rodata
	//	YUNO_OtherWorld_bpat
	ALIGN 4

//**************** Track 1 (Midi-Chn.1) ****************//

YUNO_OtherWorld_bpat_1:
	BYTE	KEYSH   YUNO_OtherWorld_bpat_key+0
YUNO_OtherWorld_bpat_1_B1:
// 000   ----------------------------------------
	BYTE	TEMPO   86*YUNO_OtherWorld_bpat_tbs/2
	BYTE		VOICE   121
	BYTE		PAN     c_v+0
	BYTE		VOL     120*YUNO_OtherWorld_bpat_mvl/mxv
	BYTE		MOD     0
	BYTE		N01     Cn1   v108
	BYTE		N01     Cs2   v120
	BYTE	W06
	BYTE		        Fs1   v108
	BYTE	W06
	BYTE		        As1 
	BYTE	W06
	BYTE		        Cn1 
	BYTE	W06
	BYTE		        Dn1   v092
	BYTE	W12
	BYTE		        As1   v108
	BYTE	W06
	BYTE		        Cn1 
	BYTE	W06
	BYTE		        Fs1   v080
	BYTE	W06
	BYTE		        Cn1   v108
	BYTE	W06
	BYTE		        As1 
	BYTE	W12
	BYTE		        Dn1   v092
	BYTE	W12
	BYTE		        As1   v108
	BYTE	W06
	BYTE		        Dn1   v064
	BYTE	W06
// 001   ----------------------------------------
YUNO_OtherWorld_bpat_1_001:
	BYTE		N01     Cn1   v108
	BYTE	W06
	BYTE		        Fs1 
	BYTE	W06
	BYTE		        Cn1 
	BYTE	W06
	BYTE		        Fs1 
	BYTE	W06
	BYTE		        Dn1   v092
	BYTE		N01     As1   v108
	BYTE	W12
	BYTE		        Fs1   v080
	BYTE	W06
	BYTE		        Cn1   v108
	BYTE	W06
	BYTE		        Fs1 
	BYTE	W06
	BYTE		        Cn1 
	BYTE	W06
	BYTE		        As1 
	BYTE	W12
	BYTE		        Dn1   v092
	BYTE	W12
	BYTE		        As1   v108
	BYTE	W06
	BYTE		        Dn1   v064
	BYTE	W06
	BYTE	PEND
// 002   ----------------------------------------
YUNO_OtherWorld_bpat_1_002:
	BYTE		N01     Cn1   v108
	BYTE	W06
	BYTE		        Fs1 
	BYTE	W06
	BYTE		        As1 
	BYTE	W06
	BYTE		        Cn1 
	BYTE	W06
	BYTE		        Dn1   v092
	BYTE	W12
	BYTE		        As1   v108
	BYTE	W06
	BYTE		        Cn1 
	BYTE	W06
	BYTE		        Fs1   v080
	BYTE	W06
	BYTE		        Cn1   v108
	BYTE	W06
	BYTE		        As1 
	BYTE	W12
	BYTE		        Dn1   v092
	BYTE	W12
	BYTE		        As1   v108
	BYTE	W06
	BYTE		        Dn1   v064
	BYTE	W06
	BYTE	PEND
// 003   ----------------------------------------
YUNO_OtherWorld_bpat_1_003:
	BYTE		N01     Cn1   v108
	BYTE	W06
	BYTE		        Fs1 
	BYTE	W06
	BYTE		        Cn1 
	BYTE	W06
	BYTE		        Fs1 
	BYTE	W06
	BYTE		        Dn1   v092
	BYTE		N01     As1   v108
	BYTE	W12
	BYTE		        Fs1   v080
	BYTE	W06
	BYTE		        Cn1   v108
	BYTE	W06
	BYTE		        Fs1 
	BYTE	W06
	BYTE		        Cn1 
	BYTE	W06
	BYTE		        As1 
	BYTE	W12
	BYTE		        Cn1 
	BYTE		N01     Dn1   v092
	BYTE	W06
	BYTE		        Cn1   v108
	BYTE	W06
	BYTE		N01   
	BYTE		N01     As1 
	BYTE	W06
	BYTE		        Dn1   v064
	BYTE	W06
	BYTE	PEND
// 004   ----------------------------------------
	BYTE	PATT
	 POIN2	YUNO_OtherWorld_bpat_1_002
// 005   ----------------------------------------
	BYTE	PATT
	 POIN2	YUNO_OtherWorld_bpat_1_001
// 006   ----------------------------------------
	BYTE	PATT
	 POIN2	YUNO_OtherWorld_bpat_1_002
// 007   ----------------------------------------
YUNO_OtherWorld_bpat_1_007:
	BYTE		N01     Cn1   v108
	BYTE	W06
	BYTE		        Fs1 
	BYTE	W06
	BYTE		        Cn1 
	BYTE	W06
	BYTE		        Fs1 
	BYTE	W06
	BYTE		        Dn1   v092
	BYTE		N01     As1   v108
	BYTE	W12
	BYTE		        Fs1 
	BYTE	W06
	BYTE		        Cn1 
	BYTE	W06
	BYTE		N01   
	BYTE	W06
	BYTE		N01   
	BYTE		N01     Dn1   v064
	BYTE		N01     An1   v080
	BYTE	W06
	BYTE		        Dn1   v092
	BYTE		N01     An1   v080
	BYTE		N01     As1   v120
	BYTE		N01     Cs2   v080
	BYTE	W12
	BYTE		        Dn1   v108
	BYTE		N01     Cn2   v120
	BYTE	W04
	BYTE		        Dn1   v080
	BYTE		N01     Cn2   v120
	BYTE	W04
	BYTE		        Dn1   v080
	BYTE		N01     An1   v120
	BYTE	W04
	BYTE		        Dn1   v080
	BYTE		N01     An1   v120
	BYTE	W04
	BYTE		        Dn1   v080
	BYTE		N01     Fn1   v120
	BYTE	W04
	BYTE		        Dn1   v080
	BYTE		N01     Fn1   v120
	BYTE	W04
	BYTE	PEND
// 008   ----------------------------------------
YUNO_OtherWorld_bpat_1_008:
	BYTE		N01     Cn1   v108
	BYTE		N01     Cs2   v120
	BYTE	W06
	BYTE		        Fs1   v108
	BYTE	W06
	BYTE		        As1 
	BYTE	W06
	BYTE		        Cn1 
	BYTE	W06
	BYTE		        Dn1   v092
	BYTE	W12
	BYTE		        As1   v108
	BYTE	W06
	BYTE		        Cn1 
	BYTE	W06
	BYTE		        Fs1   v080
	BYTE	W06
	BYTE		        Cn1   v108
	BYTE	W06
	BYTE		        As1 
	BYTE	W12
	BYTE		        Dn1   v092
	BYTE	W12
	BYTE		        As1   v108
	BYTE	W06
	BYTE		        Dn1   v064
	BYTE	W06
	BYTE	PEND
// 009   ----------------------------------------
	BYTE	PATT
	 POIN2	YUNO_OtherWorld_bpat_1_001
// 010   ----------------------------------------
	BYTE	PATT
	 POIN2	YUNO_OtherWorld_bpat_1_002
// 011   ----------------------------------------
	BYTE	PATT
	 POIN2	YUNO_OtherWorld_bpat_1_003
// 012   ----------------------------------------
	BYTE	PATT
	 POIN2	YUNO_OtherWorld_bpat_1_002
// 013   ----------------------------------------
	BYTE	PATT
	 POIN2	YUNO_OtherWorld_bpat_1_001
// 014   ----------------------------------------
	BYTE	PATT
	 POIN2	YUNO_OtherWorld_bpat_1_002
// 015   ----------------------------------------
YUNO_OtherWorld_bpat_1_015:
	BYTE		N01     Cn1   v108
	BYTE	W06
	BYTE		        Fs1 
	BYTE	W06
	BYTE		        Cn1 
	BYTE	W06
	BYTE		        Fs1 
	BYTE	W06
	BYTE		        Dn1   v092
	BYTE		N01     As1   v108
	BYTE	W12
	BYTE		        Fs1   v080
	BYTE	W06
	BYTE		        Cn1   v108
	BYTE	W06
	BYTE		        Fs1 
	BYTE	W06
	BYTE		        Cn1 
	BYTE	W06
	BYTE		        Dn1   v092
	BYTE		N01     As1   v108
	BYTE	W12
	BYTE		        Cn1 
	BYTE		N01     Dn1 
	BYTE		N01     An1   v120
	BYTE	W06
	BYTE		        Dn1   v108
	BYTE		N01     An1   v120
	BYTE	W06
	BYTE		        Cn1   v108
	BYTE		N01     As1 
	BYTE	W06
	BYTE		        Dn1 
	BYTE		N01     An1   v120
	BYTE	W06
	BYTE	PEND
// 016   ----------------------------------------
YUNO_OtherWorld_bpat_1_016:
	BYTE		N01     Cn1   v108
	BYTE		N01     Cs2   v080
	BYTE	W06
	BYTE		        Fs1   v108
	BYTE	W06
	BYTE		        As1 
	BYTE	W06
	BYTE		        Cn1 
	BYTE	W06
	BYTE		        Dn1   v092
	BYTE	W12
	BYTE		        As1   v108
	BYTE	W06
	BYTE		        Cn1 
	BYTE	W06
	BYTE		        Fs1   v080
	BYTE	W06
	BYTE		        Cn1   v108
	BYTE	W06
	BYTE		        As1 
	BYTE	W12
	BYTE		        Dn1   v092
	BYTE	W12
	BYTE		        As1   v108
	BYTE	W06
	BYTE		        Dn1   v064
	BYTE	W06
	BYTE	PEND
// 017   ----------------------------------------
	BYTE	PATT
	 POIN2	YUNO_OtherWorld_bpat_1_001
// 018   ----------------------------------------
	BYTE	PATT
	 POIN2	YUNO_OtherWorld_bpat_1_002
// 019   ----------------------------------------
	BYTE	PATT
	 POIN2	YUNO_OtherWorld_bpat_1_003
// 020   ----------------------------------------
	BYTE	PATT
	 POIN2	YUNO_OtherWorld_bpat_1_016
// 021   ----------------------------------------
	BYTE	PATT
	 POIN2	YUNO_OtherWorld_bpat_1_001
// 022   ----------------------------------------
	BYTE	PATT
	 POIN2	YUNO_OtherWorld_bpat_1_002
// 023   ----------------------------------------
YUNO_OtherWorld_bpat_1_023:
	BYTE		N01     Cn1   v108
	BYTE		N01     Cs2 
	BYTE	W06
	BYTE		        Fs1 
	BYTE	W06
	BYTE		        Cn1 
	BYTE		N01     Dn1   v080
	BYTE	W06
	BYTE		        Fs1   v108
	BYTE	W06
	BYTE		        As1 
	BYTE	W06
	BYTE		        Dn1   v080
	BYTE	W06
	BYTE		        Fs1 
	BYTE	W06
	BYTE		        Cn1   v120
	BYTE		N01     Dn1   v052
	BYTE	W03
	BYTE		        Dn1   v092
	BYTE	W03
	BYTE		        Cn1   v108
	BYTE		N01     Cs2   v080
	BYTE	W03
	BYTE		        Dn1   v092
	BYTE		N01     Fs1   v108
	BYTE	W03
	BYTE		        Cn1 
	BYTE		N01     Dn1 
	BYTE	W06
	BYTE		N01   
	BYTE		N01     Cn2 
	BYTE	W06
	BYTE		        Dn1   v052
	BYTE		N01     Cn2   v108
	BYTE	W06
	BYTE		        Dn1   v080
	BYTE		N01     An1   v108
	BYTE	W06
	BYTE		        Dn1 
	BYTE		N01     An1 
	BYTE	W06
	BYTE		        Cs1   v080
	BYTE		N01     Dn1   v108
	BYTE		N01     Fn1 
	BYTE	W06
	BYTE		        Cs1   v080
	BYTE		N01     Dn1   v120
	BYTE		N01     Fn1   v108
	BYTE	W06
	BYTE	PEND
// 024   ----------------------------------------
	BYTE	W96
// 025   ----------------------------------------
	BYTE	W96
// 026   ----------------------------------------
	BYTE	W96
// 027   ----------------------------------------
	BYTE	W96
// 028   ----------------------------------------
	BYTE	W96
// 029   ----------------------------------------
	BYTE	W96
// 030   ----------------------------------------
	BYTE	W96
// 031   ----------------------------------------
	BYTE	W96
// 032   ----------------------------------------
	BYTE	W96
// 033   ----------------------------------------
	BYTE	W96
// 034   ----------------------------------------
	BYTE	W96
// 035   ----------------------------------------
	BYTE	W96
// 036   ----------------------------------------
	BYTE	W96
// 037   ----------------------------------------
	BYTE	W96
// 038   ----------------------------------------
	BYTE	W96
// 039   ----------------------------------------
	BYTE	W96
// 040   ----------------------------------------
	BYTE	W96
// 041   ----------------------------------------
	BYTE	W96
// 042   ----------------------------------------
	BYTE	W96
// 043   ----------------------------------------
	BYTE	W96
// 044   ----------------------------------------
	BYTE	W96
// 045   ----------------------------------------
	BYTE	W96
// 046   ----------------------------------------
	BYTE	W96
// 047   ----------------------------------------
	BYTE	W96
// 048   ----------------------------------------
	BYTE	PATT
	 POIN2	YUNO_OtherWorld_bpat_1_008
// 049   ----------------------------------------
	BYTE	PATT
	 POIN2	YUNO_OtherWorld_bpat_1_001
// 050   ----------------------------------------
	BYTE	PATT
	 POIN2	YUNO_OtherWorld_bpat_1_002
// 051   ----------------------------------------
	BYTE	PATT
	 POIN2	YUNO_OtherWorld_bpat_1_003
// 052   ----------------------------------------
	BYTE	PATT
	 POIN2	YUNO_OtherWorld_bpat_1_002
// 053   ----------------------------------------
	BYTE	PATT
	 POIN2	YUNO_OtherWorld_bpat_1_001
// 054   ----------------------------------------
	BYTE	PATT
	 POIN2	YUNO_OtherWorld_bpat_1_002
// 055   ----------------------------------------
	BYTE	PATT
	 POIN2	YUNO_OtherWorld_bpat_1_007
// 056   ----------------------------------------
	BYTE	PATT
	 POIN2	YUNO_OtherWorld_bpat_1_008
// 057   ----------------------------------------
	BYTE	PATT
	 POIN2	YUNO_OtherWorld_bpat_1_001
// 058   ----------------------------------------
	BYTE	PATT
	 POIN2	YUNO_OtherWorld_bpat_1_002
// 059   ----------------------------------------
	BYTE	PATT
	 POIN2	YUNO_OtherWorld_bpat_1_003
// 060   ----------------------------------------
	BYTE	PATT
	 POIN2	YUNO_OtherWorld_bpat_1_002
// 061   ----------------------------------------
	BYTE	PATT
	 POIN2	YUNO_OtherWorld_bpat_1_001
// 062   ----------------------------------------
	BYTE	PATT
	 POIN2	YUNO_OtherWorld_bpat_1_002
// 063   ----------------------------------------
	BYTE	PATT
	 POIN2	YUNO_OtherWorld_bpat_1_015
// 064   ----------------------------------------
	BYTE	PATT
	 POIN2	YUNO_OtherWorld_bpat_1_016
// 065   ----------------------------------------
	BYTE	PATT
	 POIN2	YUNO_OtherWorld_bpat_1_001
// 066   ----------------------------------------
	BYTE	PATT
	 POIN2	YUNO_OtherWorld_bpat_1_002
// 067   ----------------------------------------
	BYTE	PATT
	 POIN2	YUNO_OtherWorld_bpat_1_003
// 068   ----------------------------------------
	BYTE	PATT
	 POIN2	YUNO_OtherWorld_bpat_1_016
// 069   ----------------------------------------
	BYTE	PATT
	 POIN2	YUNO_OtherWorld_bpat_1_001
// 070   ----------------------------------------
	BYTE	PATT
	 POIN2	YUNO_OtherWorld_bpat_1_002
// 071   ----------------------------------------
	BYTE	PATT
	 POIN2	YUNO_OtherWorld_bpat_1_023
// 072   ----------------------------------------
	BYTE	W96
// 073   ----------------------------------------
	BYTE	W96
// 074   ----------------------------------------
	BYTE	W96
// 075   ----------------------------------------
	BYTE	W96
// 076   ----------------------------------------
	BYTE	W96
// 077   ----------------------------------------
	BYTE	W96
// 078   ----------------------------------------
	BYTE	W96
// 079   ----------------------------------------
	BYTE	W96
// 080   ----------------------------------------
	BYTE	W96
// 081   ----------------------------------------
	BYTE	W96
// 082   ----------------------------------------
	BYTE	W96
// 083   ----------------------------------------
	BYTE	W96
// 084   ----------------------------------------
	BYTE	W96
// 085   ----------------------------------------
	BYTE	W96
// 086   ----------------------------------------
	BYTE	W96
// 087   ----------------------------------------
	BYTE	W96
// 088   ----------------------------------------
	BYTE	W96
// 089   ----------------------------------------
	BYTE	W96
// 090   ----------------------------------------
	BYTE	W96
// 091   ----------------------------------------
	BYTE	W96
// 092   ----------------------------------------
	BYTE	W96
// 093   ----------------------------------------
	BYTE	W96
// 094   ----------------------------------------
	BYTE	W96
// 095   ----------------------------------------
	BYTE	W96
// 096   ----------------------------------------
	BYTE	PATT
	 POIN2	YUNO_OtherWorld_bpat_1_008
// 097   ----------------------------------------
	BYTE	PATT
	 POIN2	YUNO_OtherWorld_bpat_1_001
// 098   ----------------------------------------
	BYTE	PATT
	 POIN2	YUNO_OtherWorld_bpat_1_002
// 099   ----------------------------------------
	BYTE	PATT
	 POIN2	YUNO_OtherWorld_bpat_1_003
// 100   ----------------------------------------
	BYTE	PATT
	 POIN2	YUNO_OtherWorld_bpat_1_002
// 101   ----------------------------------------
	BYTE	PATT
	 POIN2	YUNO_OtherWorld_bpat_1_001
// 102   ----------------------------------------
	BYTE	PATT
	 POIN2	YUNO_OtherWorld_bpat_1_002
// 103   ----------------------------------------
	BYTE	PATT
	 POIN2	YUNO_OtherWorld_bpat_1_007
// 104   ----------------------------------------
	BYTE	PATT
	 POIN2	YUNO_OtherWorld_bpat_1_008
// 105   ----------------------------------------
	BYTE	PATT
	 POIN2	YUNO_OtherWorld_bpat_1_001
// 106   ----------------------------------------
	BYTE	PATT
	 POIN2	YUNO_OtherWorld_bpat_1_002
// 107   ----------------------------------------
	BYTE	PATT
	 POIN2	YUNO_OtherWorld_bpat_1_003
// 108   ----------------------------------------
	BYTE	PATT
	 POIN2	YUNO_OtherWorld_bpat_1_002
// 109   ----------------------------------------
	BYTE	W23
	BYTE	GoTo
	 POIN2	YUNO_OtherWorld_bpat_1_B1
YUNO_OtherWorld_bpat_1_B2:
	BYTE	FINE

//**************** Track 2 (Midi-Chn.2) ****************//

YUNO_OtherWorld_bpat_2:
	BYTE	KEYSH   YUNO_OtherWorld_bpat_key+0
YUNO_OtherWorld_bpat_2_B1:
// 000   ----------------------------------------
	BYTE		VOICE   62
	BYTE		PAN     c_v+46
	BYTE		VOL     127*YUNO_OtherWorld_bpat_mvl/mxv
	BYTE		MOD     0
	BYTE		TIE     Cn1   v127
	BYTE	W96
// 001   ----------------------------------------
	BYTE	W96
// 002   ----------------------------------------
	BYTE	W96
// 003   ----------------------------------------
	BYTE	W92
	BYTE	W03
	BYTE		EOT   
	BYTE	W01
// 004   ----------------------------------------
	BYTE		TIE     Cn0 
	BYTE	W96
// 005   ----------------------------------------
	BYTE	W96
// 006   ----------------------------------------
	BYTE	W96
// 007   ----------------------------------------
	BYTE	W92
	BYTE	W03
	BYTE		EOT   
	BYTE	W01
// 008   ----------------------------------------
YUNO_OtherWorld_bpat_2_008:
	BYTE		VOICE   68
	BYTE		PAN     c_v+36
	BYTE		N11     Cn1   v124
	BYTE	W12
	BYTE		N05   
	BYTE	W06
	BYTE		N11   
	BYTE	W12
	BYTE		N05   
	BYTE	W06
	BYTE		N17   
	BYTE	W18
	BYTE		N11   
	BYTE	W12
	BYTE		N05   
	BYTE	W06
	BYTE		        Dn1 
	BYTE	W06
	BYTE		        Ds1 
	BYTE	W06
	BYTE		N11     As1 
	BYTE	W12
	BYTE	PEND
// 009   ----------------------------------------
YUNO_OtherWorld_bpat_2_009:
	BYTE		N11     Cn1   v124
	BYTE	W12
	BYTE		N05   
	BYTE	W06
	BYTE		N11   
	BYTE	W12
	BYTE		N05   
	BYTE	W06
	BYTE		N17   
	BYTE	W18
	BYTE		N11   
	BYTE	W12
	BYTE		N05   
	BYTE	W06
	BYTE		        Fn1 
	BYTE	W06
	BYTE		        Gn1 
	BYTE	W06
	BYTE		N11     Dn2 
	BYTE	W12
	BYTE	PEND
// 010   ----------------------------------------
YUNO_OtherWorld_bpat_2_010:
	BYTE		N11     Cn1   v124
	BYTE	W12
	BYTE		N05   
	BYTE	W06
	BYTE		N11   
	BYTE	W12
	BYTE		N05   
	BYTE	W06
	BYTE		N17   
	BYTE	W18
	BYTE		N11   
	BYTE	W12
	BYTE		N05   
	BYTE	W06
	BYTE		        Dn1 
	BYTE	W06
	BYTE		        Ds1 
	BYTE	W06
	BYTE		N11     As1 
	BYTE	W12
	BYTE	PEND
// 011   ----------------------------------------
	BYTE	PATT
	 POIN2	YUNO_OtherWorld_bpat_2_009
// 012   ----------------------------------------
	BYTE	PATT
	 POIN2	YUNO_OtherWorld_bpat_2_010
// 013   ----------------------------------------
	BYTE	PATT
	 POIN2	YUNO_OtherWorld_bpat_2_009
// 014   ----------------------------------------
	BYTE	PATT
	 POIN2	YUNO_OtherWorld_bpat_2_010
// 015   ----------------------------------------
	BYTE	PATT
	 POIN2	YUNO_OtherWorld_bpat_2_009
// 016   ----------------------------------------
	BYTE	PATT
	 POIN2	YUNO_OtherWorld_bpat_2_010
// 017   ----------------------------------------
	BYTE	PATT
	 POIN2	YUNO_OtherWorld_bpat_2_009
// 018   ----------------------------------------
	BYTE	PATT
	 POIN2	YUNO_OtherWorld_bpat_2_010
// 019   ----------------------------------------
	BYTE	PATT
	 POIN2	YUNO_OtherWorld_bpat_2_009
// 020   ----------------------------------------
YUNO_OtherWorld_bpat_2_020:
	BYTE		N11     Bn0   v124
	BYTE	W12
	BYTE		N05   
	BYTE	W06
	BYTE		N11   
	BYTE	W12
	BYTE		N05   
	BYTE	W06
	BYTE		N17   
	BYTE	W18
	BYTE		N11   
	BYTE	W12
	BYTE		N05   
	BYTE	W06
	BYTE		        En1 
	BYTE	W06
	BYTE		        Fs1 
	BYTE	W06
	BYTE		N11     As1 
	BYTE	W12
	BYTE	PEND
// 021   ----------------------------------------
YUNO_OtherWorld_bpat_2_021:
	BYTE		N11     Bn0   v124
	BYTE	W12
	BYTE		N05   
	BYTE	W06
	BYTE		N11   
	BYTE	W12
	BYTE		N05   
	BYTE	W06
	BYTE		N17   
	BYTE	W18
	BYTE		N11   
	BYTE	W12
	BYTE		N05   
	BYTE	W06
	BYTE		        En1 
	BYTE	W06
	BYTE		        Fs1 
	BYTE	W06
	BYTE		N11     Cs2 
	BYTE	W12
	BYTE	PEND
// 022   ----------------------------------------
	BYTE	PATT
	 POIN2	YUNO_OtherWorld_bpat_2_020
// 023   ----------------------------------------
	BYTE	PATT
	 POIN2	YUNO_OtherWorld_bpat_2_021
// 024   ----------------------------------------
	BYTE		PAN     c_v+56
	BYTE		VOL     100*YUNO_OtherWorld_bpat_mvl/mxv
	BYTE		N11     Cn1   v124
	BYTE	W12
	BYTE		N05   
	BYTE	W06
	BYTE		N11   
	BYTE	W12
	BYTE		N05   
	BYTE	W06
	BYTE		N17   
	BYTE	W18
	BYTE		N11   
	BYTE	W12
	BYTE		N05   
	BYTE	W06
	BYTE		        Dn1 
	BYTE	W06
	BYTE		        Ds1 
	BYTE	W06
	BYTE		N11     As1 
	BYTE	W12
// 025   ----------------------------------------
	BYTE	PATT
	 POIN2	YUNO_OtherWorld_bpat_2_009
// 026   ----------------------------------------
	BYTE	PATT
	 POIN2	YUNO_OtherWorld_bpat_2_010
// 027   ----------------------------------------
	BYTE	PATT
	 POIN2	YUNO_OtherWorld_bpat_2_009
// 028   ----------------------------------------
	BYTE	PATT
	 POIN2	YUNO_OtherWorld_bpat_2_010
// 029   ----------------------------------------
	BYTE	PATT
	 POIN2	YUNO_OtherWorld_bpat_2_009
// 030   ----------------------------------------
	BYTE	PATT
	 POIN2	YUNO_OtherWorld_bpat_2_010
// 031   ----------------------------------------
	BYTE	PATT
	 POIN2	YUNO_OtherWorld_bpat_2_009
// 032   ----------------------------------------
	BYTE	PATT
	 POIN2	YUNO_OtherWorld_bpat_2_010
// 033   ----------------------------------------
	BYTE	PATT
	 POIN2	YUNO_OtherWorld_bpat_2_009
// 034   ----------------------------------------
	BYTE	PATT
	 POIN2	YUNO_OtherWorld_bpat_2_010
// 035   ----------------------------------------
	BYTE	PATT
	 POIN2	YUNO_OtherWorld_bpat_2_009
// 036   ----------------------------------------
	BYTE	PATT
	 POIN2	YUNO_OtherWorld_bpat_2_010
// 037   ----------------------------------------
	BYTE	PATT
	 POIN2	YUNO_OtherWorld_bpat_2_009
// 038   ----------------------------------------
	BYTE	PATT
	 POIN2	YUNO_OtherWorld_bpat_2_010
// 039   ----------------------------------------
	BYTE	PATT
	 POIN2	YUNO_OtherWorld_bpat_2_009
// 040   ----------------------------------------
	BYTE	PATT
	 POIN2	YUNO_OtherWorld_bpat_2_010
// 041   ----------------------------------------
	BYTE	PATT
	 POIN2	YUNO_OtherWorld_bpat_2_009
// 042   ----------------------------------------
	BYTE	PATT
	 POIN2	YUNO_OtherWorld_bpat_2_010
// 043   ----------------------------------------
	BYTE	PATT
	 POIN2	YUNO_OtherWorld_bpat_2_009
// 044   ----------------------------------------
	BYTE	PATT
	 POIN2	YUNO_OtherWorld_bpat_2_020
// 045   ----------------------------------------
	BYTE	PATT
	 POIN2	YUNO_OtherWorld_bpat_2_021
// 046   ----------------------------------------
	BYTE	PATT
	 POIN2	YUNO_OtherWorld_bpat_2_020
// 047   ----------------------------------------
YUNO_OtherWorld_bpat_2_047:
	BYTE		N11     Bn0   v124
	BYTE	W12
	BYTE		N05   
	BYTE	W06
	BYTE		N11   
	BYTE	W12
	BYTE		N05   
	BYTE	W06
	BYTE		N17   
	BYTE	W18
	BYTE		N11   
	BYTE	W12
	BYTE		N05   
	BYTE	W06
	BYTE		        En1 
	BYTE	W06
	BYTE		        Fs1 
	BYTE	W06
	BYTE		N11     Cs2 
	BYTE	W06
	BYTE	W02
	BYTE		VOICE   62
	BYTE	W02
	BYTE		PAN     c_v+46
	BYTE	W02
	BYTE	PEND
// 048   ----------------------------------------
	BYTE		TIE     Cn1   v127
	BYTE	W96
// 049   ----------------------------------------
	BYTE	W96
// 050   ----------------------------------------
	BYTE	W96
// 051   ----------------------------------------
	BYTE	W92
	BYTE	W03
	BYTE		EOT   
	BYTE	W01
// 052   ----------------------------------------
	BYTE		TIE     Cn0 
	BYTE	W96
// 053   ----------------------------------------
	BYTE	W96
// 054   ----------------------------------------
	BYTE	W96
// 055   ----------------------------------------
	BYTE	W92
	BYTE	W03
	BYTE		EOT   
	BYTE	W01
// 056   ----------------------------------------
	BYTE	PATT
	 POIN2	YUNO_OtherWorld_bpat_2_008
// 057   ----------------------------------------
	BYTE	PATT
	 POIN2	YUNO_OtherWorld_bpat_2_009
// 058   ----------------------------------------
	BYTE	PATT
	 POIN2	YUNO_OtherWorld_bpat_2_010
// 059   ----------------------------------------
	BYTE	PATT
	 POIN2	YUNO_OtherWorld_bpat_2_009
// 060   ----------------------------------------
	BYTE	PATT
	 POIN2	YUNO_OtherWorld_bpat_2_010
// 061   ----------------------------------------
	BYTE	PATT
	 POIN2	YUNO_OtherWorld_bpat_2_009
// 062   ----------------------------------------
	BYTE	PATT
	 POIN2	YUNO_OtherWorld_bpat_2_010
// 063   ----------------------------------------
	BYTE	PATT
	 POIN2	YUNO_OtherWorld_bpat_2_009
// 064   ----------------------------------------
	BYTE	PATT
	 POIN2	YUNO_OtherWorld_bpat_2_010
// 065   ----------------------------------------
	BYTE	PATT
	 POIN2	YUNO_OtherWorld_bpat_2_009
// 066   ----------------------------------------
	BYTE	PATT
	 POIN2	YUNO_OtherWorld_bpat_2_010
// 067   ----------------------------------------
	BYTE	PATT
	 POIN2	YUNO_OtherWorld_bpat_2_009
// 068   ----------------------------------------
	BYTE	PATT
	 POIN2	YUNO_OtherWorld_bpat_2_020
// 069   ----------------------------------------
	BYTE	PATT
	 POIN2	YUNO_OtherWorld_bpat_2_021
// 070   ----------------------------------------
	BYTE	PATT
	 POIN2	YUNO_OtherWorld_bpat_2_020
// 071   ----------------------------------------
	BYTE	PATT
	 POIN2	YUNO_OtherWorld_bpat_2_021
// 072   ----------------------------------------
	BYTE		PAN     c_v+56
	BYTE		N11     Cn1   v124
	BYTE	W12
	BYTE		N05   
	BYTE	W06
	BYTE		N11   
	BYTE	W12
	BYTE		N05   
	BYTE	W06
	BYTE		N17   
	BYTE	W18
	BYTE		N11   
	BYTE	W12
	BYTE		N05   
	BYTE	W06
	BYTE		        Dn1 
	BYTE	W06
	BYTE		        Ds1 
	BYTE	W06
	BYTE		N11     As1 
	BYTE	W12
// 073   ----------------------------------------
	BYTE	PATT
	 POIN2	YUNO_OtherWorld_bpat_2_009
// 074   ----------------------------------------
	BYTE	PATT
	 POIN2	YUNO_OtherWorld_bpat_2_010
// 075   ----------------------------------------
	BYTE	PATT
	 POIN2	YUNO_OtherWorld_bpat_2_009
// 076   ----------------------------------------
	BYTE	PATT
	 POIN2	YUNO_OtherWorld_bpat_2_010
// 077   ----------------------------------------
	BYTE	PATT
	 POIN2	YUNO_OtherWorld_bpat_2_009
// 078   ----------------------------------------
	BYTE	PATT
	 POIN2	YUNO_OtherWorld_bpat_2_010
// 079   ----------------------------------------
	BYTE	PATT
	 POIN2	YUNO_OtherWorld_bpat_2_009
// 080   ----------------------------------------
	BYTE	PATT
	 POIN2	YUNO_OtherWorld_bpat_2_010
// 081   ----------------------------------------
	BYTE	PATT
	 POIN2	YUNO_OtherWorld_bpat_2_009
// 082   ----------------------------------------
	BYTE	PATT
	 POIN2	YUNO_OtherWorld_bpat_2_010
// 083   ----------------------------------------
	BYTE	PATT
	 POIN2	YUNO_OtherWorld_bpat_2_009
// 084   ----------------------------------------
	BYTE	PATT
	 POIN2	YUNO_OtherWorld_bpat_2_010
// 085   ----------------------------------------
	BYTE	PATT
	 POIN2	YUNO_OtherWorld_bpat_2_009
// 086   ----------------------------------------
	BYTE	PATT
	 POIN2	YUNO_OtherWorld_bpat_2_010
// 087   ----------------------------------------
	BYTE	PATT
	 POIN2	YUNO_OtherWorld_bpat_2_009
// 088   ----------------------------------------
	BYTE	PATT
	 POIN2	YUNO_OtherWorld_bpat_2_010
// 089   ----------------------------------------
	BYTE	PATT
	 POIN2	YUNO_OtherWorld_bpat_2_009
// 090   ----------------------------------------
	BYTE	PATT
	 POIN2	YUNO_OtherWorld_bpat_2_010
// 091   ----------------------------------------
	BYTE	PATT
	 POIN2	YUNO_OtherWorld_bpat_2_009
// 092   ----------------------------------------
	BYTE	PATT
	 POIN2	YUNO_OtherWorld_bpat_2_020
// 093   ----------------------------------------
	BYTE	PATT
	 POIN2	YUNO_OtherWorld_bpat_2_021
// 094   ----------------------------------------
	BYTE	PATT
	 POIN2	YUNO_OtherWorld_bpat_2_020
// 095   ----------------------------------------
	BYTE	PATT
	 POIN2	YUNO_OtherWorld_bpat_2_047
// 096   ----------------------------------------
	BYTE		TIE     Cn1   v127
	BYTE	W96
// 097   ----------------------------------------
	BYTE	W96
// 098   ----------------------------------------
	BYTE	W96
// 099   ----------------------------------------
	BYTE	W92
	BYTE	W03
	BYTE		EOT   
	BYTE	W01
// 100   ----------------------------------------
	BYTE		TIE     Cn0 
	BYTE	W96
// 101   ----------------------------------------
	BYTE	W96
// 102   ----------------------------------------
	BYTE	W96
// 103   ----------------------------------------
	BYTE	W92
	BYTE	W03
	BYTE		EOT   
	BYTE	W01
// 104   ----------------------------------------
	BYTE	PATT
	 POIN2	YUNO_OtherWorld_bpat_2_008
// 105   ----------------------------------------
	BYTE	PATT
	 POIN2	YUNO_OtherWorld_bpat_2_009
// 106   ----------------------------------------
	BYTE	PATT
	 POIN2	YUNO_OtherWorld_bpat_2_010
// 107   ----------------------------------------
	BYTE	PATT
	 POIN2	YUNO_OtherWorld_bpat_2_009
// 108   ----------------------------------------
	BYTE	PATT
	 POIN2	YUNO_OtherWorld_bpat_2_010
// 109   ----------------------------------------
	BYTE	W23
	BYTE	GoTo
	 POIN2	YUNO_OtherWorld_bpat_2_B1
YUNO_OtherWorld_bpat_2_B2:
	BYTE	FINE

//**************** Track 3 (Midi-Chn.3) ****************//

YUNO_OtherWorld_bpat_3:
	BYTE	KEYSH   YUNO_OtherWorld_bpat_key+0
YUNO_OtherWorld_bpat_3_B1:
// 000   ----------------------------------------
	BYTE		VOICE   37
	BYTE		PAN     c_v-48
	BYTE		VOL     127*YUNO_OtherWorld_bpat_mvl/mxv
	BYTE		MOD     14
	BYTE		N11     Cn1   v124
	BYTE	W12
	BYTE		N05   
	BYTE	W06
	BYTE		N11   
	BYTE	W12
	BYTE		N05   
	BYTE	W06
	BYTE		N17   
	BYTE	W18
	BYTE		N11   
	BYTE	W12
	BYTE		N05   
	BYTE	W06
	BYTE		        Dn1 
	BYTE	W06
	BYTE		        Ds1 
	BYTE	W06
	BYTE		N11     As1 
	BYTE	W12
// 001   ----------------------------------------
YUNO_OtherWorld_bpat_3_001:
	BYTE		N11     Cn1   v124
	BYTE	W12
	BYTE		N05   
	BYTE	W06
	BYTE		N11   
	BYTE	W12
	BYTE		N05   
	BYTE	W06
	BYTE		N17   
	BYTE	W18
	BYTE		N11   
	BYTE	W12
	BYTE		N05   
	BYTE	W06
	BYTE		        Fn1 
	BYTE	W06
	BYTE		        Gn1 
	BYTE	W06
	BYTE		N11     Dn2 
	BYTE	W12
	BYTE	PEND
// 002   ----------------------------------------
YUNO_OtherWorld_bpat_3_002:
	BYTE		N11     Cn1   v124
	BYTE	W12
	BYTE		N05   
	BYTE	W06
	BYTE		N11   
	BYTE	W12
	BYTE		N05   
	BYTE	W06
	BYTE		N17   
	BYTE	W18
	BYTE		N11   
	BYTE	W12
	BYTE		N05   
	BYTE	W06
	BYTE		        Dn1 
	BYTE	W06
	BYTE		        Ds1 
	BYTE	W06
	BYTE		N11     As1 
	BYTE	W12
	BYTE	PEND
// 003   ----------------------------------------
	BYTE	PATT
	 POIN2	YUNO_OtherWorld_bpat_3_001
// 004   ----------------------------------------
	BYTE	PATT
	 POIN2	YUNO_OtherWorld_bpat_3_002
// 005   ----------------------------------------
	BYTE	PATT
	 POIN2	YUNO_OtherWorld_bpat_3_001
// 006   ----------------------------------------
	BYTE	PATT
	 POIN2	YUNO_OtherWorld_bpat_3_002
// 007   ----------------------------------------
	BYTE	PATT
	 POIN2	YUNO_OtherWorld_bpat_3_001
// 008   ----------------------------------------
YUNO_OtherWorld_bpat_3_008:
	BYTE		VOL     120*YUNO_OtherWorld_bpat_mvl/mxv
	BYTE		PAN     c_v-38
	BYTE		N11     Cn1   v124
	BYTE	W12
	BYTE		N05   
	BYTE	W06
	BYTE		N11   
	BYTE	W12
	BYTE		N05   
	BYTE	W06
	BYTE		N17   
	BYTE	W18
	BYTE		N11   
	BYTE	W12
	BYTE		N05   
	BYTE	W06
	BYTE		        Dn1 
	BYTE	W06
	BYTE		        Ds1 
	BYTE	W06
	BYTE		N11     As1 
	BYTE	W12
	BYTE	PEND
// 009   ----------------------------------------
	BYTE	PATT
	 POIN2	YUNO_OtherWorld_bpat_3_001
// 010   ----------------------------------------
	BYTE	PATT
	 POIN2	YUNO_OtherWorld_bpat_3_002
// 011   ----------------------------------------
	BYTE	PATT
	 POIN2	YUNO_OtherWorld_bpat_3_001
// 012   ----------------------------------------
	BYTE	PATT
	 POIN2	YUNO_OtherWorld_bpat_3_002
// 013   ----------------------------------------
	BYTE	PATT
	 POIN2	YUNO_OtherWorld_bpat_3_001
// 014   ----------------------------------------
	BYTE	PATT
	 POIN2	YUNO_OtherWorld_bpat_3_002
// 015   ----------------------------------------
	BYTE	PATT
	 POIN2	YUNO_OtherWorld_bpat_3_001
// 016   ----------------------------------------
	BYTE	PATT
	 POIN2	YUNO_OtherWorld_bpat_3_002
// 017   ----------------------------------------
	BYTE	PATT
	 POIN2	YUNO_OtherWorld_bpat_3_001
// 018   ----------------------------------------
	BYTE	PATT
	 POIN2	YUNO_OtherWorld_bpat_3_002
// 019   ----------------------------------------
	BYTE	PATT
	 POIN2	YUNO_OtherWorld_bpat_3_001
// 020   ----------------------------------------
YUNO_OtherWorld_bpat_3_020:
	BYTE		N11     Bn0   v124
	BYTE	W12
	BYTE		N05   
	BYTE	W06
	BYTE		N11   
	BYTE	W12
	BYTE		N05   
	BYTE	W06
	BYTE		N17   
	BYTE	W18
	BYTE		N11   
	BYTE	W12
	BYTE		N05   
	BYTE	W06
	BYTE		        En1 
	BYTE	W06
	BYTE		        Fs1 
	BYTE	W06
	BYTE		N11     As1 
	BYTE	W12
	BYTE	PEND
// 021   ----------------------------------------
YUNO_OtherWorld_bpat_3_021:
	BYTE		N11     Bn0   v124
	BYTE	W12
	BYTE		N05   
	BYTE	W06
	BYTE		N11   
	BYTE	W12
	BYTE		N05   
	BYTE	W06
	BYTE		N17   
	BYTE	W18
	BYTE		N11   
	BYTE	W12
	BYTE		N05   
	BYTE	W06
	BYTE		        En1 
	BYTE	W06
	BYTE		        Fs1 
	BYTE	W06
	BYTE		N11     Cs2 
	BYTE	W12
	BYTE	PEND
// 022   ----------------------------------------
	BYTE	PATT
	 POIN2	YUNO_OtherWorld_bpat_3_020
// 023   ----------------------------------------
	BYTE	PATT
	 POIN2	YUNO_OtherWorld_bpat_3_021
// 024   ----------------------------------------
YUNO_OtherWorld_bpat_3_024:
	BYTE		PAN     c_v-58
	BYTE		VOL     100*YUNO_OtherWorld_bpat_mvl/mxv
	BYTE		N11     Cn1   v124
	BYTE	W12
	BYTE		N05   
	BYTE	W06
	BYTE		N11   
	BYTE	W12
	BYTE		N05   
	BYTE	W06
	BYTE		N17   
	BYTE	W18
	BYTE		N11   
	BYTE	W12
	BYTE		N05   
	BYTE	W06
	BYTE		        Dn1 
	BYTE	W06
	BYTE		        Ds1 
	BYTE	W06
	BYTE		N11     As1 
	BYTE	W12
	BYTE	PEND
// 025   ----------------------------------------
	BYTE	PATT
	 POIN2	YUNO_OtherWorld_bpat_3_001
// 026   ----------------------------------------
	BYTE	PATT
	 POIN2	YUNO_OtherWorld_bpat_3_002
// 027   ----------------------------------------
	BYTE	PATT
	 POIN2	YUNO_OtherWorld_bpat_3_001
// 028   ----------------------------------------
	BYTE	PATT
	 POIN2	YUNO_OtherWorld_bpat_3_002
// 029   ----------------------------------------
	BYTE	PATT
	 POIN2	YUNO_OtherWorld_bpat_3_001
// 030   ----------------------------------------
	BYTE	PATT
	 POIN2	YUNO_OtherWorld_bpat_3_002
// 031   ----------------------------------------
	BYTE	PATT
	 POIN2	YUNO_OtherWorld_bpat_3_001
// 032   ----------------------------------------
	BYTE	PATT
	 POIN2	YUNO_OtherWorld_bpat_3_002
// 033   ----------------------------------------
	BYTE	PATT
	 POIN2	YUNO_OtherWorld_bpat_3_001
// 034   ----------------------------------------
	BYTE	PATT
	 POIN2	YUNO_OtherWorld_bpat_3_002
// 035   ----------------------------------------
	BYTE	PATT
	 POIN2	YUNO_OtherWorld_bpat_3_001
// 036   ----------------------------------------
	BYTE	PATT
	 POIN2	YUNO_OtherWorld_bpat_3_002
// 037   ----------------------------------------
	BYTE	PATT
	 POIN2	YUNO_OtherWorld_bpat_3_001
// 038   ----------------------------------------
	BYTE	PATT
	 POIN2	YUNO_OtherWorld_bpat_3_002
// 039   ----------------------------------------
	BYTE	PATT
	 POIN2	YUNO_OtherWorld_bpat_3_001
// 040   ----------------------------------------
	BYTE	PATT
	 POIN2	YUNO_OtherWorld_bpat_3_002
// 041   ----------------------------------------
	BYTE	PATT
	 POIN2	YUNO_OtherWorld_bpat_3_001
// 042   ----------------------------------------
	BYTE	PATT
	 POIN2	YUNO_OtherWorld_bpat_3_002
// 043   ----------------------------------------
	BYTE	PATT
	 POIN2	YUNO_OtherWorld_bpat_3_001
// 044   ----------------------------------------
	BYTE	PATT
	 POIN2	YUNO_OtherWorld_bpat_3_020
// 045   ----------------------------------------
	BYTE	PATT
	 POIN2	YUNO_OtherWorld_bpat_3_021
// 046   ----------------------------------------
	BYTE	PATT
	 POIN2	YUNO_OtherWorld_bpat_3_020
// 047   ----------------------------------------
YUNO_OtherWorld_bpat_3_047:
	BYTE		N11     Bn0   v124
	BYTE	W12
	BYTE		N05   
	BYTE	W06
	BYTE		N11   
	BYTE	W12
	BYTE		N05   
	BYTE	W06
	BYTE		N17   
	BYTE	W18
	BYTE		N11   
	BYTE	W12
	BYTE		N05   
	BYTE	W06
	BYTE		        En1 
	BYTE	W06
	BYTE		        Fs1 
	BYTE	W06
	BYTE		N11     Cs2 
	BYTE	W06
	BYTE		VOICE   37
	BYTE	W02
	BYTE		PAN     c_v-48
	BYTE	W03
	BYTE		VOL     127*YUNO_OtherWorld_bpat_mvl/mxv
	BYTE	W01
	BYTE	PEND
// 048   ----------------------------------------
	BYTE	PATT
	 POIN2	YUNO_OtherWorld_bpat_3_002
// 049   ----------------------------------------
	BYTE	PATT
	 POIN2	YUNO_OtherWorld_bpat_3_001
// 050   ----------------------------------------
	BYTE	PATT
	 POIN2	YUNO_OtherWorld_bpat_3_002
// 051   ----------------------------------------
	BYTE	PATT
	 POIN2	YUNO_OtherWorld_bpat_3_001
// 052   ----------------------------------------
	BYTE	PATT
	 POIN2	YUNO_OtherWorld_bpat_3_002
// 053   ----------------------------------------
	BYTE	PATT
	 POIN2	YUNO_OtherWorld_bpat_3_001
// 054   ----------------------------------------
	BYTE	PATT
	 POIN2	YUNO_OtherWorld_bpat_3_002
// 055   ----------------------------------------
	BYTE	PATT
	 POIN2	YUNO_OtherWorld_bpat_3_001
// 056   ----------------------------------------
	BYTE	PATT
	 POIN2	YUNO_OtherWorld_bpat_3_008
// 057   ----------------------------------------
	BYTE	PATT
	 POIN2	YUNO_OtherWorld_bpat_3_001
// 058   ----------------------------------------
	BYTE	PATT
	 POIN2	YUNO_OtherWorld_bpat_3_002
// 059   ----------------------------------------
	BYTE	PATT
	 POIN2	YUNO_OtherWorld_bpat_3_001
// 060   ----------------------------------------
	BYTE	PATT
	 POIN2	YUNO_OtherWorld_bpat_3_002
// 061   ----------------------------------------
	BYTE	PATT
	 POIN2	YUNO_OtherWorld_bpat_3_001
// 062   ----------------------------------------
	BYTE	PATT
	 POIN2	YUNO_OtherWorld_bpat_3_002
// 063   ----------------------------------------
	BYTE	PATT
	 POIN2	YUNO_OtherWorld_bpat_3_001
// 064   ----------------------------------------
	BYTE	PATT
	 POIN2	YUNO_OtherWorld_bpat_3_002
// 065   ----------------------------------------
	BYTE	PATT
	 POIN2	YUNO_OtherWorld_bpat_3_001
// 066   ----------------------------------------
	BYTE	PATT
	 POIN2	YUNO_OtherWorld_bpat_3_002
// 067   ----------------------------------------
	BYTE	PATT
	 POIN2	YUNO_OtherWorld_bpat_3_001
// 068   ----------------------------------------
	BYTE	PATT
	 POIN2	YUNO_OtherWorld_bpat_3_020
// 069   ----------------------------------------
	BYTE	PATT
	 POIN2	YUNO_OtherWorld_bpat_3_021
// 070   ----------------------------------------
	BYTE	PATT
	 POIN2	YUNO_OtherWorld_bpat_3_020
// 071   ----------------------------------------
	BYTE	PATT
	 POIN2	YUNO_OtherWorld_bpat_3_021
// 072   ----------------------------------------
	BYTE	PATT
	 POIN2	YUNO_OtherWorld_bpat_3_024
// 073   ----------------------------------------
	BYTE	PATT
	 POIN2	YUNO_OtherWorld_bpat_3_001
// 074   ----------------------------------------
	BYTE	PATT
	 POIN2	YUNO_OtherWorld_bpat_3_002
// 075   ----------------------------------------
	BYTE	PATT
	 POIN2	YUNO_OtherWorld_bpat_3_001
// 076   ----------------------------------------
	BYTE	PATT
	 POIN2	YUNO_OtherWorld_bpat_3_002
// 077   ----------------------------------------
	BYTE	PATT
	 POIN2	YUNO_OtherWorld_bpat_3_001
// 078   ----------------------------------------
	BYTE	PATT
	 POIN2	YUNO_OtherWorld_bpat_3_002
// 079   ----------------------------------------
	BYTE	PATT
	 POIN2	YUNO_OtherWorld_bpat_3_001
// 080   ----------------------------------------
	BYTE	PATT
	 POIN2	YUNO_OtherWorld_bpat_3_002
// 081   ----------------------------------------
	BYTE	PATT
	 POIN2	YUNO_OtherWorld_bpat_3_001
// 082   ----------------------------------------
	BYTE	PATT
	 POIN2	YUNO_OtherWorld_bpat_3_002
// 083   ----------------------------------------
	BYTE	PATT
	 POIN2	YUNO_OtherWorld_bpat_3_001
// 084   ----------------------------------------
	BYTE	PATT
	 POIN2	YUNO_OtherWorld_bpat_3_002
// 085   ----------------------------------------
	BYTE	PATT
	 POIN2	YUNO_OtherWorld_bpat_3_001
// 086   ----------------------------------------
	BYTE	PATT
	 POIN2	YUNO_OtherWorld_bpat_3_002
// 087   ----------------------------------------
	BYTE	PATT
	 POIN2	YUNO_OtherWorld_bpat_3_001
// 088   ----------------------------------------
	BYTE	PATT
	 POIN2	YUNO_OtherWorld_bpat_3_002
// 089   ----------------------------------------
	BYTE	PATT
	 POIN2	YUNO_OtherWorld_bpat_3_001
// 090   ----------------------------------------
	BYTE	PATT
	 POIN2	YUNO_OtherWorld_bpat_3_002
// 091   ----------------------------------------
	BYTE	PATT
	 POIN2	YUNO_OtherWorld_bpat_3_001
// 092   ----------------------------------------
	BYTE	PATT
	 POIN2	YUNO_OtherWorld_bpat_3_020
// 093   ----------------------------------------
	BYTE	PATT
	 POIN2	YUNO_OtherWorld_bpat_3_021
// 094   ----------------------------------------
	BYTE	PATT
	 POIN2	YUNO_OtherWorld_bpat_3_020
// 095   ----------------------------------------
	BYTE	PATT
	 POIN2	YUNO_OtherWorld_bpat_3_047
// 096   ----------------------------------------
	BYTE	PATT
	 POIN2	YUNO_OtherWorld_bpat_3_002
// 097   ----------------------------------------
	BYTE	PATT
	 POIN2	YUNO_OtherWorld_bpat_3_001
// 098   ----------------------------------------
	BYTE	PATT
	 POIN2	YUNO_OtherWorld_bpat_3_002
// 099   ----------------------------------------
	BYTE	PATT
	 POIN2	YUNO_OtherWorld_bpat_3_001
// 100   ----------------------------------------
	BYTE	PATT
	 POIN2	YUNO_OtherWorld_bpat_3_002
// 101   ----------------------------------------
	BYTE	PATT
	 POIN2	YUNO_OtherWorld_bpat_3_001
// 102   ----------------------------------------
	BYTE	PATT
	 POIN2	YUNO_OtherWorld_bpat_3_002
// 103   ----------------------------------------
	BYTE	PATT
	 POIN2	YUNO_OtherWorld_bpat_3_001
// 104   ----------------------------------------
	BYTE	PATT
	 POIN2	YUNO_OtherWorld_bpat_3_008
// 105   ----------------------------------------
	BYTE	PATT
	 POIN2	YUNO_OtherWorld_bpat_3_001
// 106   ----------------------------------------
	BYTE	PATT
	 POIN2	YUNO_OtherWorld_bpat_3_002
// 107   ----------------------------------------
	BYTE	PATT
	 POIN2	YUNO_OtherWorld_bpat_3_001
// 108   ----------------------------------------
	BYTE	PATT
	 POIN2	YUNO_OtherWorld_bpat_3_002
// 109   ----------------------------------------
	BYTE	W23
	BYTE	GoTo
	 POIN2	YUNO_OtherWorld_bpat_3_B1
YUNO_OtherWorld_bpat_3_B2:
	BYTE	FINE

//**************** Track 4 (Midi-Chn.4) ****************//

YUNO_OtherWorld_bpat_4:
	BYTE	KEYSH   YUNO_OtherWorld_bpat_key+0
YUNO_OtherWorld_bpat_4_B1:
// 000   ----------------------------------------
	BYTE		VOICE   73
	BYTE		PAN     c_v+0
	BYTE		VOL     120*YUNO_OtherWorld_bpat_mvl/mxv
	BYTE		MOD     20
	BYTE		TIE     Gn4   v084
	BYTE	W05
	BYTE	W06
	BYTE	W05
	BYTE	W06
	BYTE	W05
	BYTE	W06
	BYTE	W05
	BYTE	W06
	BYTE	W05
	BYTE	W06
	BYTE	W05
	BYTE	W06
	BYTE	W05
	BYTE	W06
	BYTE	W05
	BYTE	W06
	BYTE	W05
	BYTE	W03
// 001   ----------------------------------------
YUNO_OtherWorld_bpat_4_001:
	BYTE	W03
	BYTE	W05
	BYTE	W06
	BYTE	W05
	BYTE	W06
	BYTE	W05
	BYTE	W05
	BYTE	W06
	BYTE	W05
	BYTE	W06
	BYTE	W05
	BYTE	W06
	BYTE	W05
	BYTE	W06
	BYTE	W05
	BYTE	W06
	BYTE	W05
	BYTE	W06
	BYTE	PEND
// 002   ----------------------------------------
	BYTE	W96
// 003   ----------------------------------------
	BYTE	W96
// 004   ----------------------------------------
	BYTE	W96
// 005   ----------------------------------------
	BYTE	W96
// 006   ----------------------------------------
	BYTE	W96
// 007   ----------------------------------------
YUNO_OtherWorld_bpat_4_007:
	BYTE	W19
	BYTE	W12
	BYTE	W07
	BYTE	W05
	BYTE	W04
	BYTE	W03
	BYTE	W03
	BYTE	W02
	BYTE	W02
	BYTE	W02
	BYTE	W01
	BYTE	W02
	BYTE	W01
	BYTE	W02
	BYTE	W01
	BYTE	W01
	BYTE	W01
	BYTE	W01
	BYTE	W01
	BYTE	W01
	BYTE	W01
	BYTE	W01
	BYTE	W01
	BYTE	W01
	BYTE	W01
	BYTE	W01
	BYTE	W01
	BYTE	W01
	BYTE	W01
	BYTE	W01
	BYTE	W01
	BYTE	W01
	BYTE	W01
	BYTE	W01
	BYTE	W01
	BYTE	W01
	BYTE	W01
	BYTE	W01
	BYTE	W01
	BYTE	W01
	BYTE	W01
	BYTE	W01
	BYTE	W01
	BYTE	PEND
	BYTE		EOT     Gn4 
	BYTE	W01
	BYTE	W01
// 008   ----------------------------------------
YUNO_OtherWorld_bpat_4_008:
	BYTE		VOL     118*YUNO_OtherWorld_bpat_mvl/mxv
	BYTE	W24
	BYTE		N06     Cn4   v120
	BYTE	W06
	BYTE		N04     Dn4 
	BYTE	W06
	BYTE		N05     Ds4 
	BYTE	W06
	BYTE		        As4 
	BYTE	W06
	BYTE		        An4 
	BYTE	W06
	BYTE		        Fn4 
	BYTE	W06
	BYTE		TIE     Gn4 
	BYTE	W36
	BYTE	PEND
// 009   ----------------------------------------
YUNO_OtherWorld_bpat_4_009:
	BYTE	W03
	BYTE	W03
	BYTE	W04
	BYTE	W03
	BYTE	W03
	BYTE	W03
	BYTE	W03
	BYTE	W03
	BYTE	W04
	BYTE	W03
	BYTE	W03
	BYTE	W03
	BYTE	W03
	BYTE	W04
	BYTE	W03
	BYTE	W03
	BYTE	W03
	BYTE	W03
	BYTE	W03
	BYTE	W04
	BYTE	W03
	BYTE	W03
	BYTE	W03
	BYTE	W03
	BYTE	W04
	BYTE	W03
	BYTE	W03
	BYTE	W03
	BYTE	W03
	BYTE	W03
	BYTE	W01
	BYTE	PEND
// 010   ----------------------------------------
YUNO_OtherWorld_bpat_4_010:
	BYTE	W10
	BYTE	W04
	BYTE	W03
	BYTE	W02
	BYTE	W01
	BYTE	W01
	BYTE	W01
	BYTE	W01
	BYTE	W01
	BYTE	W01
	BYTE	W01
	BYTE	W01
	BYTE	W01
	BYTE	W01
	BYTE	W01
	BYTE	W01
	BYTE	W01
	BYTE	PEND
	BYTE		EOT     Gn4 
	BYTE	W01
	BYTE	W01
	BYTE	W01
	BYTE	W01
	BYTE		N06     Fn4   v120
	BYTE	W06
	BYTE		N04     Gn4 
	BYTE	W06
	BYTE		N32     Fn4 
	BYTE	W36
	BYTE		N06     Ds4 
	BYTE	W06
	BYTE		N04     Fn4 
	BYTE	W06
// 011   ----------------------------------------
YUNO_OtherWorld_bpat_4_011:
	BYTE		N04     Dn4   v120
	BYTE	W04
	BYTE		        Ds4 
	BYTE	W04
	BYTE		N03     Dn4 
	BYTE	W04
	BYTE		N06     As3 
	BYTE	W06
	BYTE		        Fn3 
	BYTE	W06
	BYTE		        As3 
	BYTE	W06
	BYTE		N96     An3 
	BYTE	W66
	BYTE	PEND
// 012   ----------------------------------------
YUNO_OtherWorld_bpat_4_012:
	BYTE	W10
	BYTE	W04
	BYTE	W03
	BYTE	W02
	BYTE	W01
	BYTE	W01
	BYTE	W01
	BYTE	W01
	BYTE	W01
	BYTE	W01
	BYTE	W01
	BYTE	W01
	BYTE	W01
	BYTE	W01
	BYTE	W01
	BYTE	W01
	BYTE	W01
	BYTE	W01
	BYTE	W01
	BYTE	W01
	BYTE	W01
	BYTE		N05     Gn3   v120
	BYTE	W06
	BYTE		N18     Dn4 
	BYTE	W18
	BYTE		N05     Gn3 
	BYTE	W06
	BYTE		N60     Ds4 
	BYTE	W30
	BYTE	PEND
// 013   ----------------------------------------
YUNO_OtherWorld_bpat_4_013:
	BYTE	W10
	BYTE	W04
	BYTE	W03
	BYTE	W01
	BYTE	W02
	BYTE	W01
	BYTE	W01
	BYTE	W01
	BYTE	W01
	BYTE	W01
	BYTE	W01
	BYTE	W01
	BYTE	W01
	BYTE	W01
	BYTE	W01
	BYTE	W01
	BYTE	W01
	BYTE	W01
	BYTE	W01
	BYTE	W01
	BYTE	W01
	BYTE		N05     Cn4   v120
	BYTE	W06
	BYTE		N17     Gn4 
	BYTE	W18
	BYTE		N05     Cn4 
	BYTE	W06
	BYTE		N11     An4 
	BYTE	W12
	BYTE		N05     Cn4 
	BYTE	W06
	BYTE		N23     As4 
	BYTE	W12
	BYTE	PEND
// 014   ----------------------------------------
YUNO_OtherWorld_bpat_4_014:
	BYTE	W12
	BYTE		N17     An4   v120
	BYTE	W18
	BYTE		N32     Fn4 
	BYTE	W36
	BYTE		BEND    c_v-64
	BYTE		N11     As4 
	BYTE	W03
	BYTE		BEND    c_v-13
	BYTE	W01
	BYTE		        c_v-8
	BYTE	W01
	BYTE		        c_v-5
	BYTE	W01
	BYTE		        c_v-3
	BYTE	W01
	BYTE		        c_v-1
	BYTE	W01
	BYTE		        c_v+0
	BYTE	W04
	BYTE		N05     An4 
	BYTE	W06
	BYTE		N23     Fn4 
	BYTE	W12
	BYTE	PEND
// 015   ----------------------------------------
YUNO_OtherWorld_bpat_4_015:
	BYTE	W12
	BYTE		N17     As4   v120
	BYTE	W18
	BYTE		        An4 
	BYTE	W18
	BYTE		N12     Fn4 
	BYTE	W12
	BYTE		N04     Gn4 
	BYTE	W06
	BYTE		N05     Cn4 
	BYTE	W06
	BYTE		        Ds4 
	BYTE	W06
	BYTE		        As3 
	BYTE	W06
	BYTE		        Ds4 
	BYTE	W06
	BYTE		        Dn4 
	BYTE	W06
	BYTE	PEND
// 016   ----------------------------------------
YUNO_OtherWorld_bpat_4_016:
	BYTE		N30     Cs4   v120
	BYTE	W10
	BYTE	W04
	BYTE	W03
	BYTE	W02
	BYTE	W01
	BYTE	W01
	BYTE	W01
	BYTE	W01
	BYTE	W01
	BYTE	W01
	BYTE	W01
	BYTE	W01
	BYTE	W01
	BYTE	W01
	BYTE	W01
	BYTE	W01
	BYTE	W01
	BYTE	W01
	BYTE	W01
	BYTE	W01
	BYTE	W01
	BYTE		N17     Fn3 
	BYTE	W18
	BYTE		        Gn3 
	BYTE	W18
	BYTE		        Gs3 
	BYTE	W18
	BYTE		        As3 
	BYTE	W06
	BYTE	PEND
// 017   ----------------------------------------
YUNO_OtherWorld_bpat_4_017:
	BYTE	W12
	BYTE		N17     Cn4   v120
	BYTE	W18
	BYTE		        Cs4 
	BYTE	W18
	BYTE		        Ds4 
	BYTE	W18
	BYTE		        Fn4 
	BYTE	W18
	BYTE		        Gn4 
	BYTE	W12
	BYTE	PEND
// 018   ----------------------------------------
YUNO_OtherWorld_bpat_4_018:
	BYTE	W06
	BYTE		N17     Gs4   v120
	BYTE	W18
	BYTE		        As4 
	BYTE	W18
	BYTE		N44     Ds4 
	BYTE	W14
	BYTE	W05
	BYTE	W03
	BYTE	W03
	BYTE	W02
	BYTE	W01
	BYTE	W01
	BYTE	W02
	BYTE	W01
	BYTE	W01
	BYTE	W01
	BYTE	W01
	BYTE	W01
	BYTE	W01
	BYTE	W01
	BYTE	W01
	BYTE	W01
	BYTE	W01
	BYTE	W01
	BYTE	W01
	BYTE	W01
	BYTE	W01
	BYTE	W01
	BYTE	W01
	BYTE	W01
	BYTE		N05     Cn4 
	BYTE	W06
	BYTE	PEND
// 019   ----------------------------------------
YUNO_OtherWorld_bpat_4_019:
	BYTE		N05     Dn4   v120
	BYTE	W06
	BYTE		N04     Ds4 
	BYTE	W06
	BYTE		N06     As4 
	BYTE	W06
	BYTE		N04     Cn4 
	BYTE	W06
	BYTE		N05     Dn4 
	BYTE	W06
	BYTE		        Ds4 
	BYTE	W06
	BYTE		N32     Gn4 
	BYTE	W36
	BYTE		TIE     Ds4 
	BYTE	W24
	BYTE	PEND
// 020   ----------------------------------------
YUNO_OtherWorld_bpat_4_020:
	BYTE	W28
	BYTE	W10
	BYTE	W06
	BYTE	W06
	BYTE	W03
	BYTE	W03
	BYTE	W03
	BYTE	W03
	BYTE	W01
	BYTE	W02
	BYTE	W01
	BYTE	W02
	BYTE	W01
	BYTE	W02
	BYTE	W01
	BYTE	W01
	BYTE	W01
	BYTE	W01
	BYTE	W01
	BYTE	W01
	BYTE	W01
	BYTE	W01
	BYTE	W01
	BYTE	W01
	BYTE	W01
	BYTE	W01
	BYTE	W01
	BYTE	W01
	BYTE	W01
	BYTE	W01
	BYTE	W01
	BYTE	W01
	BYTE	W01
	BYTE	W01
	BYTE	W01
	BYTE	W01
	BYTE	W01
	BYTE	W01
	BYTE	PEND
	BYTE		EOT     Ds4 
	BYTE	W01
// 021   ----------------------------------------
YUNO_OtherWorld_bpat_4_021:
	BYTE		N44     Fs4   v120
	BYTE	W48
	BYTE		N23     Fn4 
	BYTE	W24
	BYTE		        Cs4 
	BYTE	W24
	BYTE	PEND
// 022   ----------------------------------------
YUNO_OtherWorld_bpat_4_022:
	BYTE		N17     Ds4   v120
	BYTE	W18
	BYTE		TIE     As4 
	BYTE	W78
	BYTE	PEND
// 023   ----------------------------------------
	BYTE	W44
	BYTE	W03
	BYTE		EOT   
	BYTE	W01
	BYTE		N44     Gs4 
	BYTE	W14
	BYTE	W05
	BYTE	W03
	BYTE	W03
	BYTE	W02
	BYTE	W01
	BYTE	W01
	BYTE	W02
	BYTE	W01
	BYTE	W01
	BYTE	W01
	BYTE	W01
	BYTE	W01
	BYTE	W01
	BYTE	W01
	BYTE	W01
	BYTE	W01
	BYTE	W01
	BYTE	W01
	BYTE	W01
	BYTE	W01
	BYTE	W01
	BYTE	W01
	BYTE	W01
	BYTE	W01
// 024   ----------------------------------------
	BYTE	W96
// 025   ----------------------------------------
	BYTE	W96
// 026   ----------------------------------------
	BYTE	W96
// 027   ----------------------------------------
	BYTE	W96
// 028   ----------------------------------------
	BYTE	W96
// 029   ----------------------------------------
	BYTE	W96
// 030   ----------------------------------------
YUNO_OtherWorld_bpat_4_030:
	BYTE	W04
	BYTE	W04
	BYTE	W03
	BYTE	W04
	BYTE	W04
	BYTE	W04
	BYTE	W04
	BYTE	W04
	BYTE	W03
	BYTE	W04
	BYTE	W04
	BYTE	W04
	BYTE	W04
	BYTE	W04
	BYTE	W03
	BYTE	W04
	BYTE	W04
	BYTE	W04
	BYTE	W04
	BYTE	W04
	BYTE	W03
	BYTE	W04
	BYTE	W04
	BYTE	W04
	BYTE	W04
	BYTE	PEND
// 031   ----------------------------------------
YUNO_OtherWorld_bpat_4_031:
	BYTE	W04
	BYTE	W03
	BYTE	W04
	BYTE	W04
	BYTE	W04
	BYTE	W04
	BYTE	W04
	BYTE	W03
	BYTE	W04
	BYTE	W04
	BYTE	W04
	BYTE	W04
	BYTE	W04
	BYTE	W03
	BYTE	W04
	BYTE	W04
	BYTE	W04
	BYTE	W04
	BYTE	W04
	BYTE	W03
	BYTE	W04
	BYTE	W04
	BYTE	W04
	BYTE	W04
	BYTE	W03
	BYTE	W01
	BYTE	PEND
// 032   ----------------------------------------
	BYTE	W96
// 033   ----------------------------------------
	BYTE	W96
// 034   ----------------------------------------
	BYTE	W96
// 035   ----------------------------------------
	BYTE	W96
// 036   ----------------------------------------
	BYTE	W96
// 037   ----------------------------------------
	BYTE	W96
// 038   ----------------------------------------
	BYTE	W96
// 039   ----------------------------------------
	BYTE	W96
// 040   ----------------------------------------
	BYTE	W96
// 041   ----------------------------------------
	BYTE	W96
// 042   ----------------------------------------
	BYTE	W96
// 043   ----------------------------------------
	BYTE	W96
// 044   ----------------------------------------
	BYTE	W96
// 045   ----------------------------------------
	BYTE	W96
// 046   ----------------------------------------
	BYTE	W96
// 047   ----------------------------------------
YUNO_OtherWorld_bpat_4_047:
	BYTE	W10
	BYTE		VOICE   73
	BYTE	W21
	BYTE		VOL     120*YUNO_OtherWorld_bpat_mvl/mxv
	BYTE	W11
	BYTE	W54
	BYTE	PEND
// 048   ----------------------------------------
YUNO_OtherWorld_bpat_4_048:
	BYTE		TIE     Gn4   v084
	BYTE	W05
	BYTE	W06
	BYTE	W05
	BYTE	W06
	BYTE	W05
	BYTE	W06
	BYTE	W05
	BYTE	W06
	BYTE	W05
	BYTE	W06
	BYTE	W05
	BYTE	W06
	BYTE	W05
	BYTE	W06
	BYTE	W05
	BYTE	W06
	BYTE	W05
	BYTE	W03
	BYTE	PEND
// 049   ----------------------------------------
	BYTE	PATT
	 POIN2	YUNO_OtherWorld_bpat_4_001
// 050   ----------------------------------------
	BYTE	W96
// 051   ----------------------------------------
	BYTE	W96
// 052   ----------------------------------------
	BYTE	W96
// 053   ----------------------------------------
	BYTE	W96
// 054   ----------------------------------------
	BYTE	W96
// 055   ----------------------------------------
	BYTE	PATT
	 POIN2	YUNO_OtherWorld_bpat_4_007
	BYTE		EOT     Gn4 
	BYTE	W01
	BYTE	W01
// 056   ----------------------------------------
	BYTE	PATT
	 POIN2	YUNO_OtherWorld_bpat_4_008
// 057   ----------------------------------------
	BYTE	PATT
	 POIN2	YUNO_OtherWorld_bpat_4_009
// 058   ----------------------------------------
	BYTE	PATT
	 POIN2	YUNO_OtherWorld_bpat_4_010
	BYTE		EOT     Gn4 
	BYTE	W01
	BYTE	W01
	BYTE	W01
	BYTE	W01
	BYTE		N06     Fn4   v120
	BYTE	W06
	BYTE		N04     Gn4 
	BYTE	W06
	BYTE		N32     Fn4 
	BYTE	W36
	BYTE		N06     Ds4 
	BYTE	W06
	BYTE		N04     Fn4 
	BYTE	W06
// 059   ----------------------------------------
	BYTE	PATT
	 POIN2	YUNO_OtherWorld_bpat_4_011
// 060   ----------------------------------------
	BYTE	PATT
	 POIN2	YUNO_OtherWorld_bpat_4_012
// 061   ----------------------------------------
	BYTE	PATT
	 POIN2	YUNO_OtherWorld_bpat_4_013
// 062   ----------------------------------------
	BYTE	PATT
	 POIN2	YUNO_OtherWorld_bpat_4_014
// 063   ----------------------------------------
	BYTE	PATT
	 POIN2	YUNO_OtherWorld_bpat_4_015
// 064   ----------------------------------------
	BYTE	PATT
	 POIN2	YUNO_OtherWorld_bpat_4_016
// 065   ----------------------------------------
	BYTE	PATT
	 POIN2	YUNO_OtherWorld_bpat_4_017
// 066   ----------------------------------------
	BYTE	PATT
	 POIN2	YUNO_OtherWorld_bpat_4_018
// 067   ----------------------------------------
	BYTE	PATT
	 POIN2	YUNO_OtherWorld_bpat_4_019
// 068   ----------------------------------------
	BYTE	PATT
	 POIN2	YUNO_OtherWorld_bpat_4_020
	BYTE		EOT     Ds4 
	BYTE	W01
// 069   ----------------------------------------
	BYTE	PATT
	 POIN2	YUNO_OtherWorld_bpat_4_021
// 070   ----------------------------------------
	BYTE	PATT
	 POIN2	YUNO_OtherWorld_bpat_4_022
// 071   ----------------------------------------
	BYTE	W44
	BYTE	W03
	BYTE		EOT     As4 
	BYTE	W01
	BYTE		N44     Gs4   v120
	BYTE	W14
	BYTE	W05
	BYTE	W03
	BYTE	W03
	BYTE	W02
	BYTE	W01
	BYTE	W01
	BYTE	W02
	BYTE	W01
	BYTE	W01
	BYTE	W01
	BYTE	W01
	BYTE	W01
	BYTE	W01
	BYTE	W01
	BYTE	W01
	BYTE	W01
	BYTE	W01
	BYTE	W01
	BYTE	W01
	BYTE	W01
	BYTE	W01
	BYTE	W01
	BYTE	W01
	BYTE	W01
// 072   ----------------------------------------
	BYTE	W96
// 073   ----------------------------------------
	BYTE	W96
// 074   ----------------------------------------
	BYTE	W96
// 075   ----------------------------------------
	BYTE	W96
// 076   ----------------------------------------
	BYTE	W96
// 077   ----------------------------------------
	BYTE	W96
// 078   ----------------------------------------
	BYTE	PATT
	 POIN2	YUNO_OtherWorld_bpat_4_030
// 079   ----------------------------------------
	BYTE	PATT
	 POIN2	YUNO_OtherWorld_bpat_4_031
// 080   ----------------------------------------
	BYTE	W96
// 081   ----------------------------------------
	BYTE	W96
// 082   ----------------------------------------
	BYTE	W96
// 083   ----------------------------------------
	BYTE	W96
// 084   ----------------------------------------
	BYTE	W96
// 085   ----------------------------------------
	BYTE	W96
// 086   ----------------------------------------
	BYTE	W96
// 087   ----------------------------------------
	BYTE	W96
// 088   ----------------------------------------
	BYTE	W96
// 089   ----------------------------------------
	BYTE	W96
// 090   ----------------------------------------
	BYTE	W96
// 091   ----------------------------------------
	BYTE	W96
// 092   ----------------------------------------
	BYTE	W96
// 093   ----------------------------------------
	BYTE	W96
// 094   ----------------------------------------
	BYTE	W96
// 095   ----------------------------------------
	BYTE	PATT
	 POIN2	YUNO_OtherWorld_bpat_4_047
// 096   ----------------------------------------
	BYTE	PATT
	 POIN2	YUNO_OtherWorld_bpat_4_048
// 097   ----------------------------------------
	BYTE	PATT
	 POIN2	YUNO_OtherWorld_bpat_4_001
// 098   ----------------------------------------
	BYTE	W96
// 099   ----------------------------------------
	BYTE	W96
// 100   ----------------------------------------
	BYTE	W96
// 101   ----------------------------------------
	BYTE	W96
// 102   ----------------------------------------
	BYTE	W96
// 103   ----------------------------------------
	BYTE	PATT
	 POIN2	YUNO_OtherWorld_bpat_4_007
	BYTE		EOT     Gn4 
	BYTE	W01
	BYTE	W01
// 104   ----------------------------------------
	BYTE	PATT
	 POIN2	YUNO_OtherWorld_bpat_4_008
// 105   ----------------------------------------
	BYTE	PATT
	 POIN2	YUNO_OtherWorld_bpat_4_009
// 106   ----------------------------------------
	BYTE	PATT
	 POIN2	YUNO_OtherWorld_bpat_4_010
	BYTE		EOT     Gn4 
	BYTE	W01
	BYTE	W01
	BYTE	W01
	BYTE	W01
	BYTE		N06     Fn4   v120
	BYTE	W06
	BYTE		N04     Gn4 
	BYTE	W06
	BYTE		N32     Fn4 
	BYTE	W36
	BYTE		N06     Ds4 
	BYTE	W06
	BYTE		N04     Fn4 
	BYTE	W06
// 107   ----------------------------------------
	BYTE	PATT
	 POIN2	YUNO_OtherWorld_bpat_4_011
// 108   ----------------------------------------
	BYTE	W10
	BYTE	W04
	BYTE	W03
	BYTE	W02
	BYTE	W01
	BYTE	W01
	BYTE	W01
	BYTE	W01
	BYTE	W01
	BYTE	W01
	BYTE	W01
	BYTE	W01
	BYTE	W01
	BYTE	W01
	BYTE	W01
	BYTE	W01
	BYTE	W01
	BYTE	W01
	BYTE	W01
	BYTE	W01
	BYTE	W01
	BYTE		N05     Gn3   v120
	BYTE	W06
	BYTE		N18     Dn4 
	BYTE	W18
	BYTE		N05     Gn3 
	BYTE	W36
// 109   ----------------------------------------
	BYTE	W23
	BYTE	GoTo
	 POIN2	YUNO_OtherWorld_bpat_4_B1
YUNO_OtherWorld_bpat_4_B2:
	BYTE	FINE

//**************** Track 5 (Midi-Chn.5) ****************//

YUNO_OtherWorld_bpat_5:
	BYTE	KEYSH   YUNO_OtherWorld_bpat_key+0
YUNO_OtherWorld_bpat_5_B1:
// 000   ----------------------------------------
	BYTE		VOICE   26
	BYTE		PAN     c_v-30
	BYTE		VOL     100*YUNO_OtherWorld_bpat_mvl/mxv
	BYTE		MOD     0
	BYTE		N17     Ds4   v096
	BYTE	W18
	BYTE		N17   
	BYTE	W18
	BYTE		N17   
	BYTE	W24
	BYTE		N17   
	BYTE	W18
	BYTE		N17   
	BYTE	W18
// 001   ----------------------------------------
YUNO_OtherWorld_bpat_5_001:
	BYTE		N17     Ds4   v096
	BYTE	W18
	BYTE		N17   
	BYTE	W18
	BYTE		N17   
	BYTE	W24
	BYTE		N17   
	BYTE	W24
	BYTE		N11   
	BYTE	W12
	BYTE	PEND
// 002   ----------------------------------------
YUNO_OtherWorld_bpat_5_002:
	BYTE		N17     Dn4   v096
	BYTE	W18
	BYTE		N17   
	BYTE	W18
	BYTE		N17   
	BYTE	W24
	BYTE		N17   
	BYTE	W18
	BYTE		N17   
	BYTE	W18
	BYTE	PEND
// 003   ----------------------------------------
YUNO_OtherWorld_bpat_5_003:
	BYTE		N17     Dn4   v096
	BYTE	W18
	BYTE		N17   
	BYTE	W18
	BYTE		N17   
	BYTE	W24
	BYTE		N17   
	BYTE	W24
	BYTE		N11   
	BYTE	W12
	BYTE	PEND
// 004   ----------------------------------------
YUNO_OtherWorld_bpat_5_004:
	BYTE		N17     Dn3   v096
	BYTE	W18
	BYTE		N17   
	BYTE	W18
	BYTE		N17   
	BYTE	W24
	BYTE		N17   
	BYTE	W18
	BYTE		N17   
	BYTE	W18
	BYTE	PEND
// 005   ----------------------------------------
YUNO_OtherWorld_bpat_5_005:
	BYTE		N17     Dn3   v096
	BYTE	W18
	BYTE		N17   
	BYTE	W18
	BYTE		N17   
	BYTE	W24
	BYTE		N17   
	BYTE	W24
	BYTE		N11   
	BYTE	W12
	BYTE	PEND
// 006   ----------------------------------------
	BYTE	PATT
	 POIN2	YUNO_OtherWorld_bpat_5_004
// 007   ----------------------------------------
	BYTE	PATT
	 POIN2	YUNO_OtherWorld_bpat_5_005
// 008   ----------------------------------------
YUNO_OtherWorld_bpat_5_008:
	BYTE		VOL     116*YUNO_OtherWorld_bpat_mvl/mxv
	BYTE		PAN     c_v-60
	BYTE		N06     Cn4   v096
	BYTE	W02
	BYTE	W01
	BYTE	W02
	BYTE	W02
	BYTE	W02
	BYTE	W01
	BYTE	W02
	BYTE		N05     Gn4 
	BYTE	W02
	BYTE	W02
	BYTE	W01
	BYTE	W01
	BYTE		        Cn4 
	BYTE	W01
	BYTE	W02
	BYTE	W02
	BYTE	W01
	BYTE		        Fn4 
	BYTE	W02
	BYTE	W02
	BYTE	W02
	BYTE		        Fn4   v060
	BYTE	W01
	BYTE	W02
	BYTE	W02
	BYTE	W01
	BYTE		        Gn4   v096
	BYTE	W02
	BYTE	W02
	BYTE	W02
	BYTE		        As4 
	BYTE	W01
	BYTE	W02
	BYTE	W02
	BYTE	W01
	BYTE		        Gn4   v060
	BYTE	W01
	BYTE	W01
	BYTE	W02
	BYTE	W02
	BYTE		        An4   v096
	BYTE	W02
	BYTE	W01
	BYTE	W02
	BYTE	W01
	BYTE		        As4   v060
	BYTE	W01
	BYTE	W02
	BYTE	W01
	BYTE	W02
	BYTE		        Fn4   v096
	BYTE	W02
	BYTE	W01
	BYTE	W02
	BYTE	W01
	BYTE		        Gn4 
	BYTE	W01
	BYTE	W02
	BYTE	W01
	BYTE	W02
	BYTE		        Cn4   v080
	BYTE	W02
	BYTE	W02
	BYTE	W01
	BYTE	W01
	BYTE		        Fn4 
	BYTE	W01
	BYTE	W02
	BYTE	W02
	BYTE	W01
	BYTE		        Gn4 
	BYTE	W02
	BYTE	W02
	BYTE	W01
	BYTE	W01
	BYTE	PEND
// 009   ----------------------------------------
YUNO_OtherWorld_bpat_5_009:
	BYTE		N06     Cn4   v096
	BYTE	W12
	BYTE		N05     Gn4 
	BYTE	W06
	BYTE		        Cn4 
	BYTE	W06
	BYTE		        Fn4 
	BYTE	W06
	BYTE		        Fn4   v060
	BYTE	W06
	BYTE		        Gn4   v096
	BYTE	W06
	BYTE		        As4 
	BYTE	W06
	BYTE		        Gn4   v060
	BYTE	W06
	BYTE		        An4   v096
	BYTE	W06
	BYTE		        As4   v060
	BYTE	W06
	BYTE		        Fn4   v096
	BYTE	W06
	BYTE		        Gn4 
	BYTE	W06
	BYTE		        Cn4   v080
	BYTE	W06
	BYTE		        Fn4 
	BYTE	W06
	BYTE		        Gn4 
	BYTE	W06
	BYTE	PEND
// 010   ----------------------------------------
	BYTE	PATT
	 POIN2	YUNO_OtherWorld_bpat_5_009
// 011   ----------------------------------------
	BYTE	PATT
	 POIN2	YUNO_OtherWorld_bpat_5_009
// 012   ----------------------------------------
	BYTE	PATT
	 POIN2	YUNO_OtherWorld_bpat_5_009
// 013   ----------------------------------------
	BYTE	PATT
	 POIN2	YUNO_OtherWorld_bpat_5_009
// 014   ----------------------------------------
	BYTE	PATT
	 POIN2	YUNO_OtherWorld_bpat_5_009
// 015   ----------------------------------------
	BYTE	PATT
	 POIN2	YUNO_OtherWorld_bpat_5_009
// 016   ----------------------------------------
YUNO_OtherWorld_bpat_5_016:
	BYTE		N06     Cs4   v096
	BYTE	W12
	BYTE		N05     Gn4 
	BYTE	W06
	BYTE		        Cs4 
	BYTE	W06
	BYTE		        Fn4 
	BYTE	W06
	BYTE		        Fn4   v060
	BYTE	W06
	BYTE		        Gn4   v096
	BYTE	W06
	BYTE		        Gs4 
	BYTE	W06
	BYTE		        Gs4   v060
	BYTE	W06
	BYTE		        Gn4   v096
	BYTE	W06
	BYTE		        Gn4   v060
	BYTE	W06
	BYTE		        Fn4   v096
	BYTE	W06
	BYTE		        Gn4 
	BYTE	W06
	BYTE		        Cs4   v080
	BYTE	W06
	BYTE		        Fn4 
	BYTE	W06
	BYTE		        Gn4 
	BYTE	W06
	BYTE	PEND
// 017   ----------------------------------------
	BYTE	PATT
	 POIN2	YUNO_OtherWorld_bpat_5_016
// 018   ----------------------------------------
	BYTE	PATT
	 POIN2	YUNO_OtherWorld_bpat_5_009
// 019   ----------------------------------------
	BYTE	PATT
	 POIN2	YUNO_OtherWorld_bpat_5_009
// 020   ----------------------------------------
YUNO_OtherWorld_bpat_5_020:
	BYTE		N06     Ds4   v096
	BYTE	W12
	BYTE		N05     Fs4 
	BYTE	W06
	BYTE		        Ds4 
	BYTE	W06
	BYTE		        Fn4 
	BYTE	W06
	BYTE		        Fn4   v060
	BYTE	W06
	BYTE		        Fs4   v096
	BYTE	W06
	BYTE		        Gs4 
	BYTE	W06
	BYTE		        Fn4   v060
	BYTE	W06
	BYTE		        Fs4   v096
	BYTE	W06
	BYTE		        Ds4   v060
	BYTE	W06
	BYTE		        Fn4   v096
	BYTE	W06
	BYTE		        Fs4 
	BYTE	W06
	BYTE		        Ds4   v080
	BYTE	W06
	BYTE		        Fn4 
	BYTE	W06
	BYTE		        Fs4 
	BYTE	W06
	BYTE	PEND
// 021   ----------------------------------------
YUNO_OtherWorld_bpat_5_021:
	BYTE		N06     Fs4   v096
	BYTE	W12
	BYTE		N05   
	BYTE	W06
	BYTE		N05   
	BYTE	W06
	BYTE		        Fn4 
	BYTE	W06
	BYTE		        Fn4   v060
	BYTE	W06
	BYTE		        Fs4   v096
	BYTE	W06
	BYTE		        Gs4 
	BYTE	W06
	BYTE		        Fn4   v060
	BYTE	W06
	BYTE		        Fs4   v096
	BYTE	W06
	BYTE		        Ds4   v060
	BYTE	W06
	BYTE		        Fn4   v096
	BYTE	W06
	BYTE		        Fs4 
	BYTE	W06
	BYTE		        Ds4   v080
	BYTE	W06
	BYTE		        Fn4 
	BYTE	W06
	BYTE		        Fs4 
	BYTE	W06
	BYTE	PEND
// 022   ----------------------------------------
	BYTE	PATT
	 POIN2	YUNO_OtherWorld_bpat_5_020
// 023   ----------------------------------------
	BYTE	PATT
	 POIN2	YUNO_OtherWorld_bpat_5_021
// 024   ----------------------------------------
YUNO_OtherWorld_bpat_5_024:
	BYTE		VOICE   87
	BYTE	W02
	BYTE		PAN     c_v+63
	BYTE	W22
	BYTE		N02     Cn4   v100
	BYTE	W03
	BYTE		        Fn4 
	BYTE	W03
	BYTE		PAN     c_v-54
	BYTE		N02     Gn4 
	BYTE	W03
	BYTE		        Cn5 
	BYTE	W03
	BYTE		PAN     c_v+43
	BYTE		N02     Cn4 
	BYTE	W03
	BYTE		        Fn4 
	BYTE	W03
	BYTE		PAN     c_v-34
	BYTE		N02     Gn4 
	BYTE	W03
	BYTE		        Cn5 
	BYTE	W03
	BYTE		PAN     c_v+23
	BYTE		N02     Cn4 
	BYTE	W03
	BYTE		        Fn4 
	BYTE	W03
	BYTE		PAN     c_v-14
	BYTE		N02     Gn4 
	BYTE	W03
	BYTE		        Cn5 
	BYTE	W03
	BYTE		PAN     c_v+3
	BYTE		N02     Cn4 
	BYTE	W03
	BYTE		        Fn4 
	BYTE	W03
	BYTE		PAN     c_v+0
	BYTE		N02     Gn4 
	BYTE	W03
	BYTE		        Cn5 
	BYTE	W24
	BYTE	W03
	BYTE	PEND
// 025   ----------------------------------------
YUNO_OtherWorld_bpat_5_025:
	BYTE	W72
	BYTE		N05     Cn6   v100
	BYTE	W06
	BYTE		PAN     c_v-64
	BYTE		N07     Cn5 
	BYTE	W18
	BYTE	PEND
// 026   ----------------------------------------
YUNO_OtherWorld_bpat_5_026:
	BYTE		N05     Cn6   v100
	BYTE	W06
	BYTE		PAN     c_v+63
	BYTE		N07     Cn5 
	BYTE	W18
	BYTE		N05     Cn6 
	BYTE	W06
	BYTE		PAN     c_v-64
	BYTE		N07     Cn5 
	BYTE	W18
	BYTE		N05     Cn6 
	BYTE	W06
	BYTE		PAN     c_v+63
	BYTE		N07     Cn5 
	BYTE	W42
	BYTE	PEND
// 027   ----------------------------------------
	BYTE	W96
// 028   ----------------------------------------
YUNO_OtherWorld_bpat_5_028:
	BYTE		VOICE   87
	BYTE	W02
	BYTE	W22
	BYTE		N02     Cn4   v100
	BYTE	W03
	BYTE		        Fn4 
	BYTE	W03
	BYTE		PAN     c_v-54
	BYTE		N02     Gn4 
	BYTE	W03
	BYTE		        Cn5 
	BYTE	W03
	BYTE		PAN     c_v+43
	BYTE		N02     Cn4 
	BYTE	W03
	BYTE		        Fn4 
	BYTE	W03
	BYTE		PAN     c_v-34
	BYTE		N02     Gn4 
	BYTE	W03
	BYTE		        Cn5 
	BYTE	W03
	BYTE		PAN     c_v+23
	BYTE		N02     Cn4 
	BYTE	W03
	BYTE		        Fn4 
	BYTE	W03
	BYTE		PAN     c_v-14
	BYTE		N02     Gn4 
	BYTE	W03
	BYTE		        Cn5 
	BYTE	W03
	BYTE		PAN     c_v+3
	BYTE		N02     Cn4 
	BYTE	W03
	BYTE		        Fn4 
	BYTE	W03
	BYTE		PAN     c_v+0
	BYTE		N02     Gn4 
	BYTE	W03
	BYTE		        Cn5 
	BYTE	W24
	BYTE	W03
	BYTE	PEND
// 029   ----------------------------------------
	BYTE	PATT
	 POIN2	YUNO_OtherWorld_bpat_5_025
// 030   ----------------------------------------
	BYTE	PATT
	 POIN2	YUNO_OtherWorld_bpat_5_026
// 031   ----------------------------------------
	BYTE	W96
// 032   ----------------------------------------
	BYTE	W96
// 033   ----------------------------------------
	BYTE	W96
// 034   ----------------------------------------
	BYTE	W96
// 035   ----------------------------------------
	BYTE	W96
// 036   ----------------------------------------
	BYTE	W96
// 037   ----------------------------------------
	BYTE	W96
// 038   ----------------------------------------
	BYTE	W96
// 039   ----------------------------------------
	BYTE	W96
// 040   ----------------------------------------
	BYTE	W96
// 041   ----------------------------------------
	BYTE	W96
// 042   ----------------------------------------
	BYTE	W96
// 043   ----------------------------------------
	BYTE	W96
// 044   ----------------------------------------
	BYTE	W96
// 045   ----------------------------------------
	BYTE	W96
// 046   ----------------------------------------
	BYTE	W96
// 047   ----------------------------------------
YUNO_OtherWorld_bpat_5_047:
	BYTE	W09
	BYTE		VOICE   26
	BYTE	W22
	BYTE		VOL     100*YUNO_OtherWorld_bpat_mvl/mxv
	BYTE	W11
	BYTE	W10
	BYTE		PAN     c_v-30
	BYTE	W44
	BYTE	PEND
// 048   ----------------------------------------
YUNO_OtherWorld_bpat_5_048:
	BYTE		N17     Ds4   v096
	BYTE	W18
	BYTE		N17   
	BYTE	W18
	BYTE		N17   
	BYTE	W24
	BYTE		N17   
	BYTE	W18
	BYTE		N17   
	BYTE	W18
	BYTE	PEND
// 049   ----------------------------------------
	BYTE	PATT
	 POIN2	YUNO_OtherWorld_bpat_5_001
// 050   ----------------------------------------
	BYTE	PATT
	 POIN2	YUNO_OtherWorld_bpat_5_002
// 051   ----------------------------------------
	BYTE	PATT
	 POIN2	YUNO_OtherWorld_bpat_5_003
// 052   ----------------------------------------
	BYTE	PATT
	 POIN2	YUNO_OtherWorld_bpat_5_004
// 053   ----------------------------------------
	BYTE	PATT
	 POIN2	YUNO_OtherWorld_bpat_5_005
// 054   ----------------------------------------
	BYTE	PATT
	 POIN2	YUNO_OtherWorld_bpat_5_004
// 055   ----------------------------------------
	BYTE	PATT
	 POIN2	YUNO_OtherWorld_bpat_5_005
// 056   ----------------------------------------
	BYTE	PATT
	 POIN2	YUNO_OtherWorld_bpat_5_008
// 057   ----------------------------------------
	BYTE	PATT
	 POIN2	YUNO_OtherWorld_bpat_5_009
// 058   ----------------------------------------
	BYTE	PATT
	 POIN2	YUNO_OtherWorld_bpat_5_009
// 059   ----------------------------------------
	BYTE	PATT
	 POIN2	YUNO_OtherWorld_bpat_5_009
// 060   ----------------------------------------
	BYTE	PATT
	 POIN2	YUNO_OtherWorld_bpat_5_009
// 061   ----------------------------------------
	BYTE	PATT
	 POIN2	YUNO_OtherWorld_bpat_5_009
// 062   ----------------------------------------
	BYTE	PATT
	 POIN2	YUNO_OtherWorld_bpat_5_009
// 063   ----------------------------------------
	BYTE	PATT
	 POIN2	YUNO_OtherWorld_bpat_5_009
// 064   ----------------------------------------
	BYTE	PATT
	 POIN2	YUNO_OtherWorld_bpat_5_016
// 065   ----------------------------------------
	BYTE	PATT
	 POIN2	YUNO_OtherWorld_bpat_5_016
// 066   ----------------------------------------
	BYTE	PATT
	 POIN2	YUNO_OtherWorld_bpat_5_009
// 067   ----------------------------------------
	BYTE	PATT
	 POIN2	YUNO_OtherWorld_bpat_5_009
// 068   ----------------------------------------
	BYTE	PATT
	 POIN2	YUNO_OtherWorld_bpat_5_020
// 069   ----------------------------------------
	BYTE	PATT
	 POIN2	YUNO_OtherWorld_bpat_5_021
// 070   ----------------------------------------
	BYTE	PATT
	 POIN2	YUNO_OtherWorld_bpat_5_020
// 071   ----------------------------------------
	BYTE	PATT
	 POIN2	YUNO_OtherWorld_bpat_5_021
// 072   ----------------------------------------
	BYTE	PATT
	 POIN2	YUNO_OtherWorld_bpat_5_024
// 073   ----------------------------------------
	BYTE	PATT
	 POIN2	YUNO_OtherWorld_bpat_5_025
// 074   ----------------------------------------
	BYTE	PATT
	 POIN2	YUNO_OtherWorld_bpat_5_026
// 075   ----------------------------------------
	BYTE	W96
// 076   ----------------------------------------
	BYTE	PATT
	 POIN2	YUNO_OtherWorld_bpat_5_028
// 077   ----------------------------------------
	BYTE	PATT
	 POIN2	YUNO_OtherWorld_bpat_5_025
// 078   ----------------------------------------
	BYTE	PATT
	 POIN2	YUNO_OtherWorld_bpat_5_026
// 079   ----------------------------------------
	BYTE	W96
// 080   ----------------------------------------
	BYTE	W96
// 081   ----------------------------------------
	BYTE	W96
// 082   ----------------------------------------
	BYTE	W96
// 083   ----------------------------------------
	BYTE	W96
// 084   ----------------------------------------
	BYTE	W96
// 085   ----------------------------------------
	BYTE	W96
// 086   ----------------------------------------
	BYTE	W96
// 087   ----------------------------------------
	BYTE	W96
// 088   ----------------------------------------
	BYTE	W96
// 089   ----------------------------------------
	BYTE	W96
// 090   ----------------------------------------
	BYTE	W96
// 091   ----------------------------------------
	BYTE	W96
// 092   ----------------------------------------
	BYTE	W96
// 093   ----------------------------------------
	BYTE	W96
// 094   ----------------------------------------
	BYTE	W96
// 095   ----------------------------------------
	BYTE	PATT
	 POIN2	YUNO_OtherWorld_bpat_5_047
// 096   ----------------------------------------
	BYTE	PATT
	 POIN2	YUNO_OtherWorld_bpat_5_048
// 097   ----------------------------------------
	BYTE	PATT
	 POIN2	YUNO_OtherWorld_bpat_5_001
// 098   ----------------------------------------
	BYTE	PATT
	 POIN2	YUNO_OtherWorld_bpat_5_002
// 099   ----------------------------------------
	BYTE	PATT
	 POIN2	YUNO_OtherWorld_bpat_5_003
// 100   ----------------------------------------
	BYTE	PATT
	 POIN2	YUNO_OtherWorld_bpat_5_004
// 101   ----------------------------------------
	BYTE	PATT
	 POIN2	YUNO_OtherWorld_bpat_5_005
// 102   ----------------------------------------
	BYTE	PATT
	 POIN2	YUNO_OtherWorld_bpat_5_004
// 103   ----------------------------------------
	BYTE	PATT
	 POIN2	YUNO_OtherWorld_bpat_5_005
// 104   ----------------------------------------
	BYTE	PATT
	 POIN2	YUNO_OtherWorld_bpat_5_008
// 105   ----------------------------------------
	BYTE	PATT
	 POIN2	YUNO_OtherWorld_bpat_5_009
// 106   ----------------------------------------
	BYTE	PATT
	 POIN2	YUNO_OtherWorld_bpat_5_009
// 107   ----------------------------------------
	BYTE	PATT
	 POIN2	YUNO_OtherWorld_bpat_5_009
// 108   ----------------------------------------
	BYTE	PATT
	 POIN2	YUNO_OtherWorld_bpat_5_009
// 109   ----------------------------------------
	BYTE	W23
	BYTE	GoTo
	 POIN2	YUNO_OtherWorld_bpat_5_B1
YUNO_OtherWorld_bpat_5_B2:
	BYTE	FINE

//**************** Track 6 (Midi-Chn.6) ****************//

YUNO_OtherWorld_bpat_6:
	BYTE	KEYSH   YUNO_OtherWorld_bpat_key+0
YUNO_OtherWorld_bpat_6_B1:
// 000   ----------------------------------------
	BYTE		VOICE   95
	BYTE		PAN     c_v+14
	BYTE		VOL     127*YUNO_OtherWorld_bpat_mvl/mxv
	BYTE		MOD     0
	BYTE		TIE     Cn1   v127
	BYTE	W96
// 001   ----------------------------------------
	BYTE	W96
// 002   ----------------------------------------
	BYTE	W96
// 003   ----------------------------------------
	BYTE	W92
	BYTE	W03
	BYTE		EOT   
	BYTE	W01
// 004   ----------------------------------------
	BYTE		TIE     Cn0 
	BYTE	W96
// 005   ----------------------------------------
	BYTE	W96
// 006   ----------------------------------------
	BYTE	W96
// 007   ----------------------------------------
	BYTE	W92
	BYTE	W03
	BYTE		EOT   
	BYTE	W01
// 008   ----------------------------------------
	BYTE	W96
// 009   ----------------------------------------
	BYTE	W96
// 010   ----------------------------------------
	BYTE	W96
// 011   ----------------------------------------
	BYTE	W96
// 012   ----------------------------------------
	BYTE	W96
// 013   ----------------------------------------
	BYTE	W96
// 014   ----------------------------------------
	BYTE	W96
// 015   ----------------------------------------
	BYTE	W96
// 016   ----------------------------------------
	BYTE	W96
// 017   ----------------------------------------
	BYTE	W96
// 018   ----------------------------------------
	BYTE	W96
// 019   ----------------------------------------
	BYTE	W96
// 020   ----------------------------------------
	BYTE	W96
// 021   ----------------------------------------
	BYTE	W96
// 022   ----------------------------------------
	BYTE	W96
// 023   ----------------------------------------
	BYTE	W96
// 024   ----------------------------------------
	BYTE	W96
// 025   ----------------------------------------
	BYTE	W96
// 026   ----------------------------------------
	BYTE	W96
// 027   ----------------------------------------
	BYTE	W96
// 028   ----------------------------------------
YUNO_OtherWorld_bpat_6_028:
	BYTE		VOICE   81
	BYTE		MOD     20
	BYTE		PAN     c_v+0
	BYTE	W96
	BYTE	PEND
// 029   ----------------------------------------
YUNO_OtherWorld_bpat_6_029:
	BYTE		VOL     120*YUNO_OtherWorld_bpat_mvl/mxv
	BYTE		TIE     Gn4   v100
	BYTE	W96
	BYTE	PEND
// 030   ----------------------------------------
YUNO_OtherWorld_bpat_6_030:
	BYTE	W02
	BYTE	W03
	BYTE	W02
	BYTE	W03
	BYTE	W02
	BYTE	W02
	BYTE	W03
	BYTE	W02
	BYTE	W03
	BYTE	W02
	BYTE	W02
	BYTE	W03
	BYTE	W02
	BYTE	W03
	BYTE	W02
	BYTE	W02
	BYTE	W03
	BYTE	W02
	BYTE	W02
	BYTE	W03
	BYTE	W02
	BYTE	W03
	BYTE	W02
	BYTE	W02
	BYTE	W03
	BYTE	W02
	BYTE	W03
	BYTE	W02
	BYTE	W02
	BYTE	W03
	BYTE	W02
	BYTE	W03
	BYTE	W02
	BYTE	W02
	BYTE	W03
	BYTE	W02
	BYTE	W03
	BYTE	W02
	BYTE	W02
	BYTE	W03
	BYTE	PEND
// 031   ----------------------------------------
YUNO_OtherWorld_bpat_6_031:
	BYTE	W02
	BYTE	W03
	BYTE	W02
	BYTE	W02
	BYTE	W03
	BYTE	W02
	BYTE	W03
	BYTE	W02
	BYTE	W02
	BYTE	W03
	BYTE	W02
	BYTE	W02
	BYTE	W03
	BYTE	W02
	BYTE	W03
	BYTE	W02
	BYTE	W02
	BYTE	W03
	BYTE	W02
	BYTE	W03
	BYTE	W02
	BYTE	W02
	BYTE	W03
	BYTE	W02
	BYTE	W03
	BYTE	W02
	BYTE	W02
	BYTE	W03
	BYTE	W02
	BYTE	W03
	BYTE	W02
	BYTE	W02
	BYTE	W03
	BYTE	W02
	BYTE	W03
	BYTE	W02
	BYTE	W02
	BYTE	W03
	BYTE	W02
	BYTE	W02
	BYTE	W01
	BYTE	PEND
	BYTE		EOT     Gn4 
// 032   ----------------------------------------
YUNO_OtherWorld_bpat_6_032:
	BYTE		VOL     100*YUNO_OtherWorld_bpat_mvl/mxv
	BYTE	W24
	BYTE		N06     Cn4   v120
	BYTE	W06
	BYTE		N04     Dn4 
	BYTE	W06
	BYTE		        Ds4 
	BYTE	W06
	BYTE		        As4 
	BYTE	W06
	BYTE		        An4 
	BYTE	W06
	BYTE		        Fn4 
	BYTE	W06
	BYTE		TIE     Gn4 
	BYTE	W36
	BYTE	PEND
// 033   ----------------------------------------
YUNO_OtherWorld_bpat_6_033:
	BYTE	W03
	BYTE	W03
	BYTE	W04
	BYTE	W03
	BYTE	W03
	BYTE	W03
	BYTE	W03
	BYTE	W03
	BYTE	W04
	BYTE	W03
	BYTE	W03
	BYTE	W03
	BYTE	W03
	BYTE	W04
	BYTE	W03
	BYTE	W03
	BYTE	W03
	BYTE	W03
	BYTE	W03
	BYTE	W04
	BYTE	W03
	BYTE	W03
	BYTE	W03
	BYTE	W03
	BYTE	W04
	BYTE	W03
	BYTE	W03
	BYTE	W03
	BYTE	W03
	BYTE	W03
	BYTE	W01
	BYTE	PEND
// 034   ----------------------------------------
YUNO_OtherWorld_bpat_6_034:
	BYTE	W10
	BYTE	W04
	BYTE	W03
	BYTE	W02
	BYTE	W01
	BYTE	W01
	BYTE	W01
	BYTE	W01
	BYTE	W01
	BYTE	W01
	BYTE	W01
	BYTE	W01
	BYTE	W01
	BYTE	W01
	BYTE	W01
	BYTE	W01
	BYTE	W01
	BYTE	PEND
	BYTE		EOT     Gn4 
	BYTE	W01
	BYTE	W01
	BYTE	W01
	BYTE	W01
	BYTE		N06     Fn4   v120
	BYTE	W06
	BYTE		N04     Gn4 
	BYTE	W06
	BYTE		N32     Fn4 
	BYTE	W36
	BYTE		N06     Ds4 
	BYTE	W06
	BYTE		N04     Fn4 
	BYTE	W06
// 035   ----------------------------------------
YUNO_OtherWorld_bpat_6_035:
	BYTE		N04     Dn4   v120
	BYTE	W04
	BYTE		        Ds4 
	BYTE	W04
	BYTE		N03     Dn4 
	BYTE	W04
	BYTE		N06     As3 
	BYTE	W06
	BYTE		        Fn3 
	BYTE	W06
	BYTE		        As3 
	BYTE	W06
	BYTE		N96     An3 
	BYTE	W66
	BYTE	PEND
// 036   ----------------------------------------
YUNO_OtherWorld_bpat_6_036:
	BYTE	W10
	BYTE	W04
	BYTE	W03
	BYTE	W02
	BYTE	W01
	BYTE	W01
	BYTE	W01
	BYTE	W01
	BYTE	W01
	BYTE	W01
	BYTE	W01
	BYTE	W01
	BYTE	W01
	BYTE	W01
	BYTE	W01
	BYTE	W01
	BYTE	W01
	BYTE	W01
	BYTE	W01
	BYTE	W01
	BYTE	W01
	BYTE		N05     Gn3   v120
	BYTE	W06
	BYTE		N18     Dn4 
	BYTE	W18
	BYTE		N05     Gn3 
	BYTE	W06
	BYTE		N60     Ds4 
	BYTE	W30
	BYTE	PEND
// 037   ----------------------------------------
YUNO_OtherWorld_bpat_6_037:
	BYTE	W10
	BYTE	W04
	BYTE	W03
	BYTE	W01
	BYTE	W02
	BYTE	W01
	BYTE	W01
	BYTE	W01
	BYTE	W01
	BYTE	W01
	BYTE	W01
	BYTE	W01
	BYTE	W01
	BYTE	W01
	BYTE	W01
	BYTE	W01
	BYTE	W01
	BYTE	W01
	BYTE	W01
	BYTE	W01
	BYTE	W01
	BYTE		N05     Cn4   v120
	BYTE	W06
	BYTE		N17     Gn4 
	BYTE	W18
	BYTE		N05     Cn4 
	BYTE	W06
	BYTE		N11     An4 
	BYTE	W12
	BYTE		N05     Cn4 
	BYTE	W06
	BYTE		N23     As4 
	BYTE	W12
	BYTE	PEND
// 038   ----------------------------------------
YUNO_OtherWorld_bpat_6_038:
	BYTE	W12
	BYTE		N17     An4   v120
	BYTE	W18
	BYTE		N32     Fn4 
	BYTE	W36
	BYTE		BEND    c_v-64
	BYTE		N11     As4 
	BYTE	W02
	BYTE		BEND    c_v-13
	BYTE	W01
	BYTE		        c_v-8
	BYTE	W01
	BYTE		        c_v-5
	BYTE	W01
	BYTE		        c_v-3
	BYTE	W01
	BYTE		        c_v-1
	BYTE	W02
	BYTE		        c_v+0
	BYTE	W04
	BYTE		N05     An4 
	BYTE	W06
	BYTE		N23     Fn4 
	BYTE	W12
	BYTE	PEND
// 039   ----------------------------------------
YUNO_OtherWorld_bpat_6_039:
	BYTE	W12
	BYTE		N17     As4   v120
	BYTE	W18
	BYTE		        An4 
	BYTE	W18
	BYTE		N12     Fn4 
	BYTE	W12
	BYTE		N04     Gn4 
	BYTE	W06
	BYTE		        Cn4 
	BYTE	W06
	BYTE		        Ds4 
	BYTE	W06
	BYTE		        As3 
	BYTE	W06
	BYTE		        Ds4 
	BYTE	W06
	BYTE		        Dn4 
	BYTE	W06
	BYTE	PEND
// 040   ----------------------------------------
YUNO_OtherWorld_bpat_6_040:
	BYTE		N30     Cs4   v120
	BYTE	W10
	BYTE	W04
	BYTE	W03
	BYTE	W02
	BYTE	W01
	BYTE	W01
	BYTE	W01
	BYTE	W01
	BYTE	W01
	BYTE	W01
	BYTE	W01
	BYTE	W01
	BYTE	W01
	BYTE	W01
	BYTE	W01
	BYTE	W01
	BYTE	W01
	BYTE	W01
	BYTE	W01
	BYTE	W01
	BYTE	W01
	BYTE		N17     Fn3 
	BYTE	W18
	BYTE		        Gn3 
	BYTE	W18
	BYTE		        Gs3 
	BYTE	W18
	BYTE		        As3 
	BYTE	W06
	BYTE	PEND
// 041   ----------------------------------------
YUNO_OtherWorld_bpat_6_041:
	BYTE	W12
	BYTE		N17     Cn4   v120
	BYTE	W18
	BYTE		        Cs4 
	BYTE	W18
	BYTE		        Ds4 
	BYTE	W18
	BYTE		        Fn4 
	BYTE	W18
	BYTE		        Gn4 
	BYTE	W12
	BYTE	PEND
// 042   ----------------------------------------
YUNO_OtherWorld_bpat_6_042:
	BYTE	W06
	BYTE		N17     Gs4   v120
	BYTE	W18
	BYTE		        As4 
	BYTE	W18
	BYTE		N44     Ds4 
	BYTE	W14
	BYTE	W05
	BYTE	W03
	BYTE	W03
	BYTE	W02
	BYTE	W01
	BYTE	W01
	BYTE	W02
	BYTE	W01
	BYTE	W01
	BYTE	W01
	BYTE	W01
	BYTE	W01
	BYTE	W01
	BYTE	W01
	BYTE	W01
	BYTE	W01
	BYTE	W01
	BYTE	W01
	BYTE	W01
	BYTE	W01
	BYTE	W01
	BYTE	W01
	BYTE	W01
	BYTE	W01
	BYTE		N05     Cn4 
	BYTE	W06
	BYTE	PEND
// 043   ----------------------------------------
YUNO_OtherWorld_bpat_6_043:
	BYTE		N05     Dn4   v120
	BYTE	W06
	BYTE		N03     Ds4 
	BYTE	W06
	BYTE		N05     As4 
	BYTE	W06
	BYTE		        Cn4 
	BYTE	W06
	BYTE		        Dn4 
	BYTE	W06
	BYTE		N03     Ds4 
	BYTE	W06
	BYTE		N32     Gn4 
	BYTE	W36
	BYTE		TIE     Ds4 
	BYTE	W24
	BYTE	PEND
// 044   ----------------------------------------
YUNO_OtherWorld_bpat_6_044:
	BYTE	W28
	BYTE	W10
	BYTE	W06
	BYTE	W06
	BYTE	W03
	BYTE	W03
	BYTE	W03
	BYTE	W03
	BYTE	W01
	BYTE	W02
	BYTE	W01
	BYTE	W02
	BYTE	W01
	BYTE	W02
	BYTE	W01
	BYTE	W01
	BYTE	W01
	BYTE	W01
	BYTE	W01
	BYTE	W01
	BYTE	W01
	BYTE	W01
	BYTE	W01
	BYTE	W01
	BYTE	W01
	BYTE	W01
	BYTE	W01
	BYTE	W01
	BYTE	W01
	BYTE	W01
	BYTE	W01
	BYTE	W01
	BYTE	W01
	BYTE	W01
	BYTE	W01
	BYTE	W01
	BYTE	W01
	BYTE	W01
	BYTE	PEND
	BYTE		EOT     Ds4 
	BYTE	W01
// 045   ----------------------------------------
YUNO_OtherWorld_bpat_6_045:
	BYTE		N44     Fs4   v120
	BYTE	W48
	BYTE		N22     Fn4 
	BYTE	W24
	BYTE		        Cs4 
	BYTE	W24
	BYTE	PEND
// 046   ----------------------------------------
YUNO_OtherWorld_bpat_6_046:
	BYTE		N16     Ds4   v120
	BYTE	W18
	BYTE		TIE     As4 
	BYTE	W78
	BYTE	PEND
// 047   ----------------------------------------
	BYTE	W44
	BYTE	W03
	BYTE		EOT   
	BYTE	W01
	BYTE		N44     Gs4 
	BYTE	W14
	BYTE	W05
	BYTE	W03
	BYTE	W03
	BYTE	W02
	BYTE	W01
	BYTE	W01
	BYTE	W02
	BYTE	W01
	BYTE	W01
	BYTE	W01
	BYTE	W01
	BYTE	W01
	BYTE	W01
	BYTE	W01
	BYTE	W01
	BYTE	W01
	BYTE	W01
	BYTE	W01
	BYTE	W01
	BYTE	W01
	BYTE	W01
	BYTE	W01
	BYTE	W01
	BYTE	W01
// 048   ----------------------------------------
YUNO_OtherWorld_bpat_6_048:
	BYTE		VOICE   95
	BYTE		MOD     0
	BYTE		VOL     127*YUNO_OtherWorld_bpat_mvl/mxv
	BYTE		PAN     c_v+14
	BYTE		TIE     Cn1   v127
	BYTE	W96
	BYTE	PEND
// 049   ----------------------------------------
	BYTE	W96
// 050   ----------------------------------------
	BYTE	W96
// 051   ----------------------------------------
	BYTE	W92
	BYTE	W03
	BYTE		EOT   
	BYTE	W01
// 052   ----------------------------------------
	BYTE		TIE     Cn0 
	BYTE	W96
// 053   ----------------------------------------
	BYTE	W96
// 054   ----------------------------------------
	BYTE	W96
// 055   ----------------------------------------
	BYTE	W92
	BYTE	W03
	BYTE		EOT   
	BYTE	W01
// 056   ----------------------------------------
	BYTE	W96
// 057   ----------------------------------------
	BYTE	W96
// 058   ----------------------------------------
	BYTE	W96
// 059   ----------------------------------------
	BYTE	W96
// 060   ----------------------------------------
	BYTE	W96
// 061   ----------------------------------------
	BYTE	W96
// 062   ----------------------------------------
	BYTE	W96
// 063   ----------------------------------------
	BYTE	W96
// 064   ----------------------------------------
	BYTE	W96
// 065   ----------------------------------------
	BYTE	W96
// 066   ----------------------------------------
	BYTE	W96
// 067   ----------------------------------------
	BYTE	W96
// 068   ----------------------------------------
	BYTE	W96
// 069   ----------------------------------------
	BYTE	W96
// 070   ----------------------------------------
	BYTE	W96
// 071   ----------------------------------------
	BYTE	W96
// 072   ----------------------------------------
	BYTE	W96
// 073   ----------------------------------------
	BYTE	W96
// 074   ----------------------------------------
	BYTE	W96
// 075   ----------------------------------------
	BYTE	W96
// 076   ----------------------------------------
	BYTE	PATT
	 POIN2	YUNO_OtherWorld_bpat_6_028
// 077   ----------------------------------------
	BYTE	PATT
	 POIN2	YUNO_OtherWorld_bpat_6_029
// 078   ----------------------------------------
	BYTE	PATT
	 POIN2	YUNO_OtherWorld_bpat_6_030
// 079   ----------------------------------------
	BYTE	PATT
	 POIN2	YUNO_OtherWorld_bpat_6_031
	BYTE		EOT     Gn4 
// 080   ----------------------------------------
	BYTE	PATT
	 POIN2	YUNO_OtherWorld_bpat_6_032
// 081   ----------------------------------------
	BYTE	PATT
	 POIN2	YUNO_OtherWorld_bpat_6_033
// 082   ----------------------------------------
	BYTE	PATT
	 POIN2	YUNO_OtherWorld_bpat_6_034
	BYTE		EOT     Gn4 
	BYTE	W01
	BYTE	W01
	BYTE	W01
	BYTE	W01
	BYTE		N06     Fn4   v120
	BYTE	W06
	BYTE		N04     Gn4 
	BYTE	W06
	BYTE		N32     Fn4 
	BYTE	W36
	BYTE		N06     Ds4 
	BYTE	W06
	BYTE		N04     Fn4 
	BYTE	W06
// 083   ----------------------------------------
	BYTE	PATT
	 POIN2	YUNO_OtherWorld_bpat_6_035
// 084   ----------------------------------------
	BYTE	PATT
	 POIN2	YUNO_OtherWorld_bpat_6_036
// 085   ----------------------------------------
	BYTE	PATT
	 POIN2	YUNO_OtherWorld_bpat_6_037
// 086   ----------------------------------------
	BYTE	PATT
	 POIN2	YUNO_OtherWorld_bpat_6_038
// 087   ----------------------------------------
	BYTE	PATT
	 POIN2	YUNO_OtherWorld_bpat_6_039
// 088   ----------------------------------------
	BYTE	PATT
	 POIN2	YUNO_OtherWorld_bpat_6_040
// 089   ----------------------------------------
	BYTE	PATT
	 POIN2	YUNO_OtherWorld_bpat_6_041
// 090   ----------------------------------------
	BYTE	PATT
	 POIN2	YUNO_OtherWorld_bpat_6_042
// 091   ----------------------------------------
	BYTE	PATT
	 POIN2	YUNO_OtherWorld_bpat_6_043
// 092   ----------------------------------------
	BYTE	PATT
	 POIN2	YUNO_OtherWorld_bpat_6_044
	BYTE		EOT     Ds4 
	BYTE	W01
// 093   ----------------------------------------
	BYTE	PATT
	 POIN2	YUNO_OtherWorld_bpat_6_045
// 094   ----------------------------------------
	BYTE	PATT
	 POIN2	YUNO_OtherWorld_bpat_6_046
// 095   ----------------------------------------
	BYTE	W44
	BYTE	W03
	BYTE		EOT     As4 
	BYTE	W01
	BYTE		N44     Gs4   v120
	BYTE	W14
	BYTE	W05
	BYTE	W03
	BYTE	W03
	BYTE	W02
	BYTE	W01
	BYTE	W01
	BYTE	W02
	BYTE	W01
	BYTE	W01
	BYTE	W01
	BYTE	W01
	BYTE	W01
	BYTE	W01
	BYTE	W01
	BYTE	W01
	BYTE	W01
	BYTE	W01
	BYTE	W01
	BYTE	W01
	BYTE	W01
	BYTE	W01
	BYTE	W01
	BYTE	W01
	BYTE	W01
// 096   ----------------------------------------
	BYTE	PATT
	 POIN2	YUNO_OtherWorld_bpat_6_048
// 097   ----------------------------------------
	BYTE	W96
// 098   ----------------------------------------
	BYTE	W96
// 099   ----------------------------------------
	BYTE	W92
	BYTE	W03
	BYTE		EOT     Cn1 
	BYTE	W01
// 100   ----------------------------------------
	BYTE		TIE     Cn0   v127
	BYTE	W96
// 101   ----------------------------------------
	BYTE	W96
// 102   ----------------------------------------
	BYTE	W96
// 103   ----------------------------------------
	BYTE	W92
	BYTE	W03
	BYTE		EOT   
	BYTE	W01
// 104   ----------------------------------------
	BYTE	W96
// 105   ----------------------------------------
	BYTE	W96
// 106   ----------------------------------------
	BYTE	W96
// 107   ----------------------------------------
	BYTE	W96
// 108   ----------------------------------------
	BYTE	W96
// 109   ----------------------------------------
	BYTE	W23
	BYTE	GoTo
	 POIN2	YUNO_OtherWorld_bpat_6_B1
YUNO_OtherWorld_bpat_6_B2:
	BYTE	FINE

//**************** Track 7 (Midi-Chn.7) ****************//

YUNO_OtherWorld_bpat_7:
	BYTE	KEYSH   YUNO_OtherWorld_bpat_key+0
YUNO_OtherWorld_bpat_7_B1:
// 000   ----------------------------------------
	BYTE		VOICE   52
	BYTE		PAN     c_v+0
	BYTE		VOL     118*YUNO_OtherWorld_bpat_mvl/mxv
	BYTE		MOD     0
	BYTE		TIE     Cn3   v120
	BYTE		TIE     Ds3 
	BYTE	W01
	BYTE	W01
	BYTE	W02
	BYTE	W01
	BYTE	W01
	BYTE	W01
	BYTE	W01
	BYTE	W02
	BYTE	W01
	BYTE	W01
	BYTE	W01
	BYTE	W01
	BYTE	W02
	BYTE	W01
	BYTE	W01
	BYTE	W01
	BYTE	W01
	BYTE	W01
	BYTE	W02
	BYTE	W01
	BYTE	W01
	BYTE	W01
	BYTE	W01
	BYTE	W02
	BYTE	W01
	BYTE	W01
	BYTE	W01
	BYTE	W01
	BYTE	W02
	BYTE	W01
	BYTE	W01
	BYTE	W01
	BYTE	W01
	BYTE	W02
	BYTE	W01
	BYTE	W01
	BYTE	W01
	BYTE	W01
	BYTE	W02
	BYTE	W01
	BYTE	W01
	BYTE	W01
	BYTE	W01
	BYTE	W02
	BYTE	W01
	BYTE	W01
	BYTE	W01
	BYTE	W01
	BYTE	W01
	BYTE	W02
	BYTE	W01
	BYTE	W01
	BYTE	W01
	BYTE	W01
	BYTE	W02
	BYTE	W01
	BYTE	W01
	BYTE	W01
	BYTE	W01
	BYTE	W02
	BYTE	W01
	BYTE	W01
	BYTE	W01
	BYTE	W01
	BYTE	W02
	BYTE	W01
	BYTE	W01
	BYTE	W01
	BYTE	W01
	BYTE	W02
	BYTE	W01
	BYTE	W01
	BYTE	W01
	BYTE	W01
	BYTE	W02
	BYTE	W01
	BYTE	W01
	BYTE	W01
	BYTE	W01
	BYTE	W01
	BYTE	W01
// 001   ----------------------------------------
YUNO_OtherWorld_bpat_7_001:
	BYTE	W48
	BYTE	W02
	BYTE	W03
	BYTE	W02
	BYTE	W02
	BYTE	W03
	BYTE	W02
	BYTE	W03
	BYTE	W02
	BYTE	W02
	BYTE	W03
	BYTE	W02
	BYTE	W02
	BYTE	W03
	BYTE	W02
	BYTE	W03
	BYTE	W02
	BYTE	W02
	BYTE	W03
	BYTE	W02
	BYTE	W02
	BYTE	W01
	BYTE	PEND
	BYTE		EOT     Cn3 
	BYTE		        Ds3 
// 002   ----------------------------------------
YUNO_OtherWorld_bpat_7_002:
	BYTE		TIE     Dn3   v120
	BYTE		TIE     Fn3 
	BYTE	W11
	BYTE	W12
	BYTE	W11
	BYTE	W12
	BYTE	W11
	BYTE	W12
	BYTE	W11
	BYTE	W12
	BYTE	W04
	BYTE	PEND
// 003   ----------------------------------------
YUNO_OtherWorld_bpat_7_003:
	BYTE	W07
	BYTE	W12
	BYTE	W11
	BYTE	W12
	BYTE	W11
	BYTE	W12
	BYTE	W11
	BYTE	W12
	BYTE	W08
	BYTE	PEND
	BYTE		EOT     Dn3 
	BYTE		        Fn3 
// 004   ----------------------------------------
YUNO_OtherWorld_bpat_7_004:
	BYTE		TIE     Ds3   v120
	BYTE		TIE     Gn3 
	BYTE		TIE     Ds4 
	BYTE	W01
	BYTE	W02
	BYTE	W01
	BYTE	W01
	BYTE	W01
	BYTE	W02
	BYTE	W01
	BYTE	W01
	BYTE	W01
	BYTE	W02
	BYTE	W01
	BYTE	W01
	BYTE	W02
	BYTE	W01
	BYTE	W01
	BYTE	W01
	BYTE	W02
	BYTE	W01
	BYTE	W01
	BYTE	W01
	BYTE	W02
	BYTE	W01
	BYTE	W01
	BYTE	W02
	BYTE	W01
	BYTE	W01
	BYTE	W01
	BYTE	W02
	BYTE	W01
	BYTE	W01
	BYTE	W01
	BYTE	W02
	BYTE	W01
	BYTE	W01
	BYTE	W02
	BYTE	W01
	BYTE	W01
	BYTE	W01
	BYTE	W02
	BYTE	W01
	BYTE	W01
	BYTE	W01
	BYTE	W02
	BYTE	W01
	BYTE	W01
	BYTE	W02
	BYTE	W01
	BYTE	W01
	BYTE	W01
	BYTE	W02
	BYTE	W01
	BYTE	W01
	BYTE	W01
	BYTE	W02
	BYTE	W01
	BYTE	W01
	BYTE	W02
	BYTE	W01
	BYTE	W01
	BYTE	W01
	BYTE	W02
	BYTE	W01
	BYTE	W01
	BYTE	W01
	BYTE	W02
	BYTE	W01
	BYTE	W01
	BYTE	W02
	BYTE	W01
	BYTE	W01
	BYTE	W01
	BYTE	W02
	BYTE	W01
	BYTE	W01
	BYTE	W01
	BYTE	W01
	BYTE	PEND
// 005   ----------------------------------------
YUNO_OtherWorld_bpat_7_005:
	BYTE	W02
	BYTE	W02
	BYTE	W02
	BYTE	W02
	BYTE	W02
	BYTE	W01
	BYTE	W02
	BYTE	W02
	BYTE	W02
	BYTE	W02
	BYTE	W02
	BYTE	W02
	BYTE	W02
	BYTE	W02
	BYTE	W02
	BYTE	W02
	BYTE	W01
	BYTE	W02
	BYTE	W02
	BYTE	W02
	BYTE	W02
	BYTE	W02
	BYTE	W02
	BYTE	W02
	BYTE	W02
	BYTE	W02
	BYTE	W02
	BYTE	W01
	BYTE	W02
	BYTE	W02
	BYTE	W02
	BYTE	W02
	BYTE	W02
	BYTE	W02
	BYTE	W02
	BYTE	W02
	BYTE	W02
	BYTE	W02
	BYTE	W01
	BYTE	W02
	BYTE	W02
	BYTE	W02
	BYTE	W02
	BYTE	W02
	BYTE	W02
	BYTE	W02
	BYTE	W02
	BYTE	W02
	BYTE	W02
	BYTE	W01
	BYTE	W01
	BYTE	PEND
// 006   ----------------------------------------
	BYTE	W96
// 007   ----------------------------------------
	BYTE	W96
	BYTE		EOT     Ds3 
	BYTE		        Gn3 
// 008   ----------------------------------------
YUNO_OtherWorld_bpat_7_008:
	BYTE		MOD     24
	BYTE		PAN     c_v+8
	BYTE		TIE     Cn4   v120
	BYTE	W01
	BYTE	W01
	BYTE	W02
	BYTE	W01
	BYTE	W01
	BYTE	W01
	BYTE	W01
	BYTE	W02
	BYTE	W01
	BYTE	W01
	BYTE	W01
	BYTE	W01
	BYTE	W02
	BYTE	W01
	BYTE	W01
	BYTE	W01
	BYTE	W01
	BYTE	W01
	BYTE	W02
	BYTE	W01
	BYTE	W01
	BYTE	W01
	BYTE	W01
	BYTE	W02
	BYTE	W01
	BYTE	W01
	BYTE	W01
	BYTE	W01
	BYTE	W02
	BYTE	W01
	BYTE	W01
	BYTE	W01
	BYTE	W01
	BYTE	W02
	BYTE	W01
	BYTE	W01
	BYTE	W01
	BYTE	W01
	BYTE	W02
	BYTE	W01
	BYTE	W01
	BYTE	W01
	BYTE	W01
	BYTE	W02
	BYTE	W01
	BYTE	W01
	BYTE	W01
	BYTE	W01
	BYTE	W01
	BYTE	W02
	BYTE	W01
	BYTE	W01
	BYTE	W01
	BYTE	W01
	BYTE	W02
	BYTE	W01
	BYTE	W01
	BYTE	W01
	BYTE	W01
	BYTE	W02
	BYTE	W01
	BYTE	W01
	BYTE	W01
	BYTE	W01
	BYTE	W02
	BYTE	W01
	BYTE	W01
	BYTE	W01
	BYTE	W01
	BYTE	W02
	BYTE	W01
	BYTE	W01
	BYTE	W01
	BYTE	W01
	BYTE	W02
	BYTE	W01
	BYTE	W01
	BYTE	W01
	BYTE	W01
	BYTE	W01
	BYTE	W01
	BYTE	PEND
// 009   ----------------------------------------
	BYTE	PATT
	 POIN2	YUNO_OtherWorld_bpat_7_001
	BYTE		EOT     Cn4 
	BYTE		        Ds4 
// 010   ----------------------------------------
YUNO_OtherWorld_bpat_7_010:
	BYTE		TIE     Dn4   v120
	BYTE		TIE     Fn4 
	BYTE	W56
	BYTE	W20
	BYTE	W13
	BYTE	W07
	BYTE	PEND
// 011   ----------------------------------------
YUNO_OtherWorld_bpat_7_011:
	BYTE	W04
	BYTE	W07
	BYTE	W06
	BYTE	W05
	BYTE	W05
	BYTE	W04
	BYTE	W03
	BYTE	W03
	BYTE	W04
	BYTE	W02
	BYTE	W03
	BYTE	W02
	BYTE	W03
	BYTE	W02
	BYTE	W01
	BYTE	W03
	BYTE	W01
	BYTE	W02
	BYTE	W01
	BYTE	W02
	BYTE	W01
	BYTE	W02
	BYTE	W01
	BYTE	W02
	BYTE	W01
	BYTE	W01
	BYTE	W01
	BYTE	W01
	BYTE	W02
	BYTE	W02
	BYTE	W01
	BYTE	W01
	BYTE	W02
	BYTE	W01
	BYTE	W01
	BYTE	W01
	BYTE	W01
	BYTE	W01
	BYTE	W01
	BYTE	W01
	BYTE	W01
	BYTE	W01
	BYTE	W01
	BYTE	W01
	BYTE	W01
	BYTE	W01
	BYTE	W01
	BYTE	W01
	BYTE	PEND
	BYTE		EOT     Dn4 
	BYTE		        Fn4 
// 012   ----------------------------------------
YUNO_OtherWorld_bpat_7_012:
	BYTE		TIE     Ds4   v120
	BYTE		TIE     Gn4 
	BYTE	W01
	BYTE	W01
	BYTE	W02
	BYTE	W01
	BYTE	W01
	BYTE	W01
	BYTE	W01
	BYTE	W02
	BYTE	W01
	BYTE	W01
	BYTE	W01
	BYTE	W01
	BYTE	W02
	BYTE	W01
	BYTE	W01
	BYTE	W01
	BYTE	W01
	BYTE	W01
	BYTE	W02
	BYTE	W01
	BYTE	W01
	BYTE	W01
	BYTE	W01
	BYTE	W02
	BYTE	W01
	BYTE	W01
	BYTE	W01
	BYTE	W01
	BYTE	W02
	BYTE	W01
	BYTE	W01
	BYTE	W01
	BYTE	W01
	BYTE	W02
	BYTE	W01
	BYTE	W01
	BYTE	W01
	BYTE	W01
	BYTE	W02
	BYTE	W01
	BYTE	W01
	BYTE	W01
	BYTE	W01
	BYTE	W02
	BYTE	W01
	BYTE	W01
	BYTE	W01
	BYTE	W01
	BYTE	W01
	BYTE	W02
	BYTE	W01
	BYTE	W01
	BYTE	W01
	BYTE	W01
	BYTE	W02
	BYTE	W01
	BYTE	W01
	BYTE	W01
	BYTE	W01
	BYTE	W02
	BYTE	W01
	BYTE	W01
	BYTE	W01
	BYTE	W01
	BYTE	W02
	BYTE	W01
	BYTE	W01
	BYTE	W01
	BYTE	W01
	BYTE	W02
	BYTE	W01
	BYTE	W01
	BYTE	W01
	BYTE	W01
	BYTE	W02
	BYTE	W01
	BYTE	W01
	BYTE	W01
	BYTE	W01
	BYTE	W01
	BYTE	W01
	BYTE	PEND
// 013   ----------------------------------------
	BYTE	PATT
	 POIN2	YUNO_OtherWorld_bpat_7_001
	BYTE		EOT     Ds4 
	BYTE		        Gn4 
// 014   ----------------------------------------
	BYTE	PATT
	 POIN2	YUNO_OtherWorld_bpat_7_010
// 015   ----------------------------------------
	BYTE	PATT
	 POIN2	YUNO_OtherWorld_bpat_7_011
	BYTE		EOT     Dn4 
// 016   ----------------------------------------
YUNO_OtherWorld_bpat_7_016:
	BYTE		TIE     Cs4   v120
	BYTE	W01
	BYTE	W01
	BYTE	W01
	BYTE	W01
	BYTE	W01
	BYTE	W01
	BYTE	W01
	BYTE	W01
	BYTE	W01
	BYTE	W01
	BYTE	W01
	BYTE		VOL     119*YUNO_OtherWorld_bpat_mvl/mxv
	BYTE	W01
	BYTE	W01
	BYTE	W01
	BYTE	W01
	BYTE	W01
	BYTE	W01
	BYTE	W01
	BYTE	W01
	BYTE	W01
	BYTE	W01
	BYTE		        120*YUNO_OtherWorld_bpat_mvl/mxv
	BYTE	W01
	BYTE	W01
	BYTE	W01
	BYTE	W01
	BYTE	W01
	BYTE	W01
	BYTE	W01
	BYTE	W01
	BYTE	W01
	BYTE	W01
	BYTE	W01
	BYTE		        121*YUNO_OtherWorld_bpat_mvl/mxv
	BYTE	W01
	BYTE	W01
	BYTE	W01
	BYTE	W01
	BYTE	W01
	BYTE	W01
	BYTE	W01
	BYTE	W01
	BYTE	W01
	BYTE	W01
	BYTE		        122*YUNO_OtherWorld_bpat_mvl/mxv
	BYTE	W01
	BYTE	W01
	BYTE	W01
	BYTE	W01
	BYTE	W01
	BYTE	W01
	BYTE	W01
	BYTE	W01
	BYTE	W01
	BYTE	W01
	BYTE	W01
	BYTE		        123*YUNO_OtherWorld_bpat_mvl/mxv
	BYTE	W01
	BYTE	W01
	BYTE	W01
	BYTE	W01
	BYTE	W01
	BYTE	W01
	BYTE	W01
	BYTE	W01
	BYTE	W01
	BYTE	W01
	BYTE	W01
	BYTE		        124*YUNO_OtherWorld_bpat_mvl/mxv
	BYTE	W01
	BYTE	W01
	BYTE	W01
	BYTE	W01
	BYTE	W01
	BYTE	W01
	BYTE	W01
	BYTE	W01
	BYTE	W01
	BYTE	W01
	BYTE		        125*YUNO_OtherWorld_bpat_mvl/mxv
	BYTE	W01
	BYTE	W01
	BYTE	W01
	BYTE	W01
	BYTE	W01
	BYTE	W01
	BYTE	W01
	BYTE	W01
	BYTE	W01
	BYTE	W01
	BYTE	W01
	BYTE		        126*YUNO_OtherWorld_bpat_mvl/mxv
	BYTE	W01
	BYTE	W01
	BYTE	W01
	BYTE	W01
	BYTE	W01
	BYTE	W01
	BYTE	W01
	BYTE	W01
	BYTE	W01
	BYTE	W01
	BYTE		        127*YUNO_OtherWorld_bpat_mvl/mxv
	BYTE	W01
	BYTE	PEND
// 017   ----------------------------------------
YUNO_OtherWorld_bpat_7_017:
	BYTE	W48
	BYTE	W01
	BYTE	W01
	BYTE	W02
	BYTE	W01
	BYTE	W01
	BYTE	W01
	BYTE	W01
	BYTE	W01
	BYTE	W02
	BYTE	W01
	BYTE	W01
	BYTE	W01
	BYTE	W01
	BYTE	W02
	BYTE	W01
	BYTE	W01
	BYTE	W01
	BYTE	W01
	BYTE	W02
	BYTE	W01
	BYTE	W01
	BYTE	W01
	BYTE	W01
	BYTE	W01
	BYTE	W02
	BYTE	W01
	BYTE	W01
	BYTE	W01
	BYTE	W01
	BYTE	W02
	BYTE	W01
	BYTE	W01
	BYTE	W01
	BYTE	W01
	BYTE	W02
	BYTE	W01
	BYTE	W01
	BYTE	W01
	BYTE	W01
	BYTE	W01
	BYTE	W01
	BYTE	PEND
	BYTE		EOT     Cs4 
	BYTE		        Fn4 
// 018   ----------------------------------------
YUNO_OtherWorld_bpat_7_018:
	BYTE		TIE     Cn4   v120
	BYTE		TIE     Ds4 
	BYTE	W56
	BYTE	W20
	BYTE	W13
	BYTE	W07
	BYTE	PEND
// 019   ----------------------------------------
	BYTE	PATT
	 POIN2	YUNO_OtherWorld_bpat_7_011
	BYTE		EOT     Cn4 
// 020   ----------------------------------------
YUNO_OtherWorld_bpat_7_020:
	BYTE		TIE     Bn3   v120
	BYTE	W01
	BYTE	W01
	BYTE	W01
	BYTE	W01
	BYTE	W01
	BYTE	W01
	BYTE	W01
	BYTE	W01
	BYTE	W01
	BYTE	W01
	BYTE	W01
	BYTE	W01
	BYTE	W01
	BYTE	W01
	BYTE	W01
	BYTE	W01
	BYTE	W01
	BYTE	W01
	BYTE	W01
	BYTE	W01
	BYTE	W01
	BYTE	W01
	BYTE	W01
	BYTE	W01
	BYTE	W01
	BYTE	W01
	BYTE	W01
	BYTE	W01
	BYTE	W01
	BYTE	W01
	BYTE	W01
	BYTE	W01
	BYTE	W01
	BYTE	W01
	BYTE	W01
	BYTE	W01
	BYTE	W01
	BYTE	W01
	BYTE	W01
	BYTE	W01
	BYTE	W01
	BYTE	W01
	BYTE	W01
	BYTE	W01
	BYTE	W01
	BYTE	W01
	BYTE	W01
	BYTE	W01
	BYTE	W01
	BYTE	W01
	BYTE	W01
	BYTE	W01
	BYTE	W01
	BYTE	W01
	BYTE	W01
	BYTE	W01
	BYTE	W01
	BYTE	W01
	BYTE	W01
	BYTE	W01
	BYTE	W01
	BYTE	W01
	BYTE	W01
	BYTE	W01
	BYTE	W01
	BYTE	W01
	BYTE	W01
	BYTE	W01
	BYTE	W01
	BYTE	W01
	BYTE	W01
	BYTE	W01
	BYTE	W01
	BYTE	W01
	BYTE	W01
	BYTE	W01
	BYTE	W01
	BYTE	W01
	BYTE	W01
	BYTE	W01
	BYTE	W01
	BYTE	W01
	BYTE	W01
	BYTE	W01
	BYTE	W01
	BYTE	W01
	BYTE	W01
	BYTE	W01
	BYTE	W01
	BYTE	W01
	BYTE	W01
	BYTE	W01
	BYTE	W01
	BYTE	W01
	BYTE	W01
	BYTE	W01
	BYTE	PEND
// 021   ----------------------------------------
	BYTE	PATT
	 POIN2	YUNO_OtherWorld_bpat_7_017
// 022   ----------------------------------------
YUNO_OtherWorld_bpat_7_022:
	BYTE	W56
	BYTE	W20
	BYTE	W13
	BYTE	W07
	BYTE	PEND
// 023   ----------------------------------------
YUNO_OtherWorld_bpat_7_023:
	BYTE	W01
	BYTE	W01
	BYTE	W01
	BYTE	W01
	BYTE	W01
	BYTE	W01
	BYTE	W01
	BYTE	W01
	BYTE	W01
	BYTE	W01
	BYTE	W01
	BYTE	W01
	BYTE	W01
	BYTE	W01
	BYTE	W01
	BYTE	W01
	BYTE	W01
	BYTE	W01
	BYTE	W01
	BYTE	W02
	BYTE	W01
	BYTE	W01
	BYTE	W01
	BYTE	W02
	BYTE	W01
	BYTE	W02
	BYTE	W02
	BYTE	W03
	BYTE	W02
	BYTE	W03
	BYTE	W04
	BYTE	W05
	BYTE	W06
	BYTE	W11
	BYTE	W24
	BYTE	W01
	BYTE	PEND
	BYTE		EOT     Bn3 
	BYTE		        Ds4 
	BYTE	W06
// 024   ----------------------------------------
YUNO_OtherWorld_bpat_7_024:
	BYTE		PAN     c_v+40
	BYTE		MOD     45
	BYTE		TIE     Cn4   v120
	BYTE		TIE     Ds4 
	BYTE		TIE     Gn4 
	BYTE	W01
	BYTE	W01
	BYTE	W02
	BYTE	W01
	BYTE	W01
	BYTE	W01
	BYTE	W01
	BYTE	W02
	BYTE	W01
	BYTE	W01
	BYTE	W01
	BYTE	W01
	BYTE	W02
	BYTE	W01
	BYTE	W01
	BYTE	W01
	BYTE	W01
	BYTE	W01
	BYTE	W02
	BYTE	W01
	BYTE	W01
	BYTE	W01
	BYTE	W01
	BYTE	W02
	BYTE	W01
	BYTE	W01
	BYTE	W01
	BYTE	W01
	BYTE	W02
	BYTE	W01
	BYTE	W01
	BYTE	W01
	BYTE	W01
	BYTE	W02
	BYTE	W01
	BYTE	W01
	BYTE	W01
	BYTE	W01
	BYTE	W02
	BYTE	W01
	BYTE	W01
	BYTE	W01
	BYTE	W01
	BYTE	W02
	BYTE	W01
	BYTE	W01
	BYTE	W01
	BYTE	W01
	BYTE	W01
	BYTE	W02
	BYTE	W01
	BYTE	W01
	BYTE	W01
	BYTE	W01
	BYTE	W02
	BYTE	W01
	BYTE	W01
	BYTE	W01
	BYTE	W01
	BYTE	W02
	BYTE	W01
	BYTE	W01
	BYTE	W01
	BYTE	W01
	BYTE	W02
	BYTE	W01
	BYTE	W01
	BYTE	W01
	BYTE	W01
	BYTE	W02
	BYTE	W01
	BYTE	W01
	BYTE	W01
	BYTE	W01
	BYTE	W02
	BYTE	W01
	BYTE	W01
	BYTE	W01
	BYTE	W01
	BYTE	W01
	BYTE	W01
	BYTE	PEND
// 025   ----------------------------------------
	BYTE	PATT
	 POIN2	YUNO_OtherWorld_bpat_7_001
	BYTE		EOT     Cn4 
	BYTE		        Ds4 
// 026   ----------------------------------------
YUNO_OtherWorld_bpat_7_026:
	BYTE		TIE     Dn4   v120
	BYTE		TIE     Fn4 
	BYTE	W02
	BYTE	W03
	BYTE	W02
	BYTE	W03
	BYTE	W02
	BYTE	W02
	BYTE	W03
	BYTE	W02
	BYTE	W03
	BYTE	W02
	BYTE	W02
	BYTE	W03
	BYTE	W02
	BYTE	W03
	BYTE	W02
	BYTE	W02
	BYTE	W03
	BYTE	W02
	BYTE	W02
	BYTE	W03
	BYTE	W02
	BYTE	W03
	BYTE	W02
	BYTE	W02
	BYTE	W03
	BYTE	W02
	BYTE	W03
	BYTE	W02
	BYTE	W02
	BYTE	W03
	BYTE	W02
	BYTE	W03
	BYTE	W02
	BYTE	W02
	BYTE	W03
	BYTE	W02
	BYTE	W03
	BYTE	W02
	BYTE	W02
	BYTE	W03
	BYTE	PEND
// 027   ----------------------------------------
YUNO_OtherWorld_bpat_7_027:
	BYTE	W02
	BYTE	W03
	BYTE	W02
	BYTE	W02
	BYTE	W03
	BYTE	W02
	BYTE	W03
	BYTE	W02
	BYTE	W02
	BYTE	W03
	BYTE	W02
	BYTE	W02
	BYTE	W03
	BYTE	W02
	BYTE	W03
	BYTE	W02
	BYTE	W02
	BYTE	W03
	BYTE	W02
	BYTE	W03
	BYTE	W02
	BYTE	W02
	BYTE	W03
	BYTE	W02
	BYTE	W03
	BYTE	W02
	BYTE	W02
	BYTE	W03
	BYTE	W02
	BYTE	W03
	BYTE	W02
	BYTE	W02
	BYTE	W03
	BYTE	W02
	BYTE	W03
	BYTE	W02
	BYTE	W02
	BYTE	W03
	BYTE	W02
	BYTE	W02
	BYTE	W01
	BYTE	PEND
	BYTE		EOT     Dn4 
	BYTE		        Fn4 
	BYTE		        Gn4 
// 028   ----------------------------------------
YUNO_OtherWorld_bpat_7_028:
	BYTE		TIE     As3   v120
	BYTE		TIE     Ds4 
	BYTE		TIE     Gn4 
	BYTE	W01
	BYTE	W01
	BYTE	W01
	BYTE	W01
	BYTE	W01
	BYTE	W01
	BYTE	W01
	BYTE	W01
	BYTE	W01
	BYTE	W01
	BYTE	W01
	BYTE	W01
	BYTE	W01
	BYTE	W01
	BYTE	W01
	BYTE	W01
	BYTE	W01
	BYTE	W01
	BYTE	W01
	BYTE	W01
	BYTE	W01
	BYTE	W01
	BYTE	W01
	BYTE	W01
	BYTE	W01
	BYTE	W01
	BYTE	W01
	BYTE	W01
	BYTE	W01
	BYTE	W01
	BYTE	W01
	BYTE	W01
	BYTE	W01
	BYTE	W01
	BYTE	W01
	BYTE	W01
	BYTE	W01
	BYTE	W01
	BYTE	W01
	BYTE	W01
	BYTE	W01
	BYTE	W01
	BYTE	W01
	BYTE	W01
	BYTE	W01
	BYTE	W01
	BYTE	W01
	BYTE	W01
	BYTE	W01
	BYTE	W01
	BYTE	W01
	BYTE	W01
	BYTE	W01
	BYTE	W01
	BYTE	W01
	BYTE	W01
	BYTE	W01
	BYTE	W01
	BYTE	W01
	BYTE	W01
	BYTE	W01
	BYTE	W01
	BYTE	W01
	BYTE	W01
	BYTE	W01
	BYTE	W01
	BYTE	W01
	BYTE	W01
	BYTE	W01
	BYTE	W01
	BYTE	W01
	BYTE	W01
	BYTE	W01
	BYTE	W01
	BYTE	W01
	BYTE	W01
	BYTE	W01
	BYTE	W01
	BYTE	W01
	BYTE	W01
	BYTE	W01
	BYTE	W01
	BYTE	W01
	BYTE	W01
	BYTE	W01
	BYTE	W01
	BYTE	W01
	BYTE	W01
	BYTE	W01
	BYTE	W01
	BYTE	W01
	BYTE	W01
	BYTE	W01
	BYTE	W01
	BYTE	W01
	BYTE	W01
	BYTE	PEND
// 029   ----------------------------------------
	BYTE	PATT
	 POIN2	YUNO_OtherWorld_bpat_7_005
// 030   ----------------------------------------
	BYTE	W96
// 031   ----------------------------------------
YUNO_OtherWorld_bpat_7_031:
	BYTE	W01
	BYTE	W02
	BYTE	W01
	BYTE	W02
	BYTE	W01
	BYTE	W02
	BYTE	W01
	BYTE	W02
	BYTE	W01
	BYTE	W02
	BYTE	W01
	BYTE	W02
	BYTE	W01
	BYTE	W02
	BYTE	W01
	BYTE	W02
	BYTE	W01
	BYTE	W01
	BYTE	W02
	BYTE	W01
	BYTE	W02
	BYTE	W01
	BYTE	W02
	BYTE	W01
	BYTE	W02
	BYTE	W01
	BYTE	W02
	BYTE	W01
	BYTE	W02
	BYTE	W01
	BYTE	W02
	BYTE	W01
	BYTE	W01
	BYTE	W02
	BYTE	W01
	BYTE	W02
	BYTE	W01
	BYTE	W02
	BYTE	W01
	BYTE	W02
	BYTE	W01
	BYTE	W02
	BYTE	W01
	BYTE	W02
	BYTE	W01
	BYTE	W02
	BYTE	W01
	BYTE	W02
	BYTE	W01
	BYTE	W01
	BYTE	W02
	BYTE	W01
	BYTE	W02
	BYTE	W01
	BYTE	W02
	BYTE	W01
	BYTE	W02
	BYTE	W01
	BYTE	W02
	BYTE	W01
	BYTE	W02
	BYTE	W01
	BYTE	W02
	BYTE	W01
	BYTE	W01
	BYTE	W01
	BYTE	PEND
	BYTE		EOT     As3 
	BYTE		        Ds4 
	BYTE		        Gn4 
// 032   ----------------------------------------
YUNO_OtherWorld_bpat_7_032:
	BYTE		TIE     Cn4   v120
	BYTE		TIE     Ds4 
	BYTE		TIE     Gn4 
	BYTE	W01
	BYTE	W01
	BYTE	W01
	BYTE	W01
	BYTE	W01
	BYTE	W01
	BYTE	W01
	BYTE	W01
	BYTE	W01
	BYTE	W01
	BYTE	W01
	BYTE	W01
	BYTE	W01
	BYTE	W01
	BYTE	W01
	BYTE	W01
	BYTE	W01
	BYTE	W01
	BYTE	W01
	BYTE	W01
	BYTE	W01
	BYTE	W01
	BYTE	W01
	BYTE	W01
	BYTE	W01
	BYTE	W01
	BYTE	W01
	BYTE	W01
	BYTE	W01
	BYTE	W01
	BYTE	W01
	BYTE	W01
	BYTE	W01
	BYTE	W01
	BYTE	W01
	BYTE	W01
	BYTE	W01
	BYTE	W01
	BYTE	W01
	BYTE	W01
	BYTE	W01
	BYTE	W01
	BYTE	W01
	BYTE	W01
	BYTE	W01
	BYTE	W01
	BYTE	W01
	BYTE	W01
	BYTE	W01
	BYTE	W01
	BYTE	W01
	BYTE	W01
	BYTE	W01
	BYTE	W01
	BYTE	W01
	BYTE	W01
	BYTE	W01
	BYTE	W01
	BYTE	W01
	BYTE	W01
	BYTE	W01
	BYTE	W01
	BYTE	W01
	BYTE	W01
	BYTE	W01
	BYTE	W01
	BYTE	W01
	BYTE	W01
	BYTE	W01
	BYTE	W01
	BYTE	W01
	BYTE	W01
	BYTE	W01
	BYTE	W01
	BYTE	W01
	BYTE	W01
	BYTE	W01
	BYTE	W01
	BYTE	W01
	BYTE	W01
	BYTE	W01
	BYTE	W01
	BYTE	W01
	BYTE	W01
	BYTE	W01
	BYTE	W01
	BYTE	W01
	BYTE	W01
	BYTE	W01
	BYTE	W01
	BYTE	W01
	BYTE	W01
	BYTE	W01
	BYTE	W01
	BYTE	W01
	BYTE	W01
	BYTE	PEND
// 033   ----------------------------------------
YUNO_OtherWorld_bpat_7_033:
	BYTE	W02
	BYTE	W01
	BYTE	W02
	BYTE	W02
	BYTE	W02
	BYTE	W01
	BYTE	W02
	BYTE	W02
	BYTE	W02
	BYTE	W01
	BYTE	W02
	BYTE	W02
	BYTE	W02
	BYTE	W01
	BYTE	W02
	BYTE	W02
	BYTE	W02
	BYTE	W01
	BYTE	W02
	BYTE	W02
	BYTE	W01
	BYTE	W02
	BYTE	W02
	BYTE	W02
	BYTE	W01
	BYTE	W02
	BYTE	W02
	BYTE	W02
	BYTE	W01
	BYTE	W02
	BYTE	W02
	BYTE	W02
	BYTE	W01
	BYTE	W02
	BYTE	W02
	BYTE	W02
	BYTE	W01
	BYTE	W02
	BYTE	W02
	BYTE	W01
	BYTE	W02
	BYTE	W02
	BYTE	W02
	BYTE	W01
	BYTE	W02
	BYTE	W02
	BYTE	W02
	BYTE	W01
	BYTE	W02
	BYTE	W02
	BYTE	W02
	BYTE	W01
	BYTE	W02
	BYTE	W02
	BYTE	W01
	BYTE	W01
	BYTE	PEND
	BYTE		EOT     Cn4 
	BYTE		        Ds4 
// 034   ----------------------------------------
YUNO_OtherWorld_bpat_7_034:
	BYTE		TIE     Dn4   v120
	BYTE		TIE     Fn4 
	BYTE	W03
	BYTE	W03
	BYTE	W03
	BYTE	W03
	BYTE	W03
	BYTE	W03
	BYTE	W03
	BYTE	W03
	BYTE	W03
	BYTE	W02
	BYTE	W03
	BYTE	W03
	BYTE	W03
	BYTE	W03
	BYTE	W03
	BYTE	W03
	BYTE	W03
	BYTE	W03
	BYTE	W03
	BYTE	W03
	BYTE	W03
	BYTE	W03
	BYTE	W03
	BYTE	W03
	BYTE	W03
	BYTE	W03
	BYTE	W03
	BYTE	W02
	BYTE	W03
	BYTE	W03
	BYTE	W03
	BYTE	W03
	BYTE	W02
	BYTE	PEND
// 035   ----------------------------------------
YUNO_OtherWorld_bpat_7_035:
	BYTE	W01
	BYTE	W03
	BYTE	W03
	BYTE	W03
	BYTE	W03
	BYTE	W03
	BYTE	W03
	BYTE	W03
	BYTE	W03
	BYTE	W03
	BYTE	W03
	BYTE	W03
	BYTE	W03
	BYTE	W03
	BYTE	W02
	BYTE	W03
	BYTE	W03
	BYTE	W03
	BYTE	W03
	BYTE	W03
	BYTE	W03
	BYTE	W03
	BYTE	W03
	BYTE	W03
	BYTE	W03
	BYTE	W03
	BYTE	W03
	BYTE	W03
	BYTE	W03
	BYTE	W03
	BYTE	W03
	BYTE	W03
	BYTE	W02
	BYTE	W01
	BYTE	PEND
	BYTE		EOT     Dn4 
	BYTE		        Fn4 
// 036   ----------------------------------------
YUNO_OtherWorld_bpat_7_036:
	BYTE		TIE     As3   v120
	BYTE		TIE     Ds4 
	BYTE	W01
	BYTE	W01
	BYTE	W01
	BYTE	W01
	BYTE	W01
	BYTE	W01
	BYTE	W01
	BYTE	W01
	BYTE	W01
	BYTE	W01
	BYTE	W01
	BYTE	W01
	BYTE	W01
	BYTE	W01
	BYTE	W01
	BYTE	W01
	BYTE	W01
	BYTE	W01
	BYTE	W01
	BYTE	W01
	BYTE	W01
	BYTE	W01
	BYTE	W01
	BYTE	W01
	BYTE	W01
	BYTE	W01
	BYTE	W01
	BYTE	W01
	BYTE	W01
	BYTE	W01
	BYTE	W01
	BYTE	W01
	BYTE	W01
	BYTE	W01
	BYTE	W01
	BYTE	W01
	BYTE	W01
	BYTE	W01
	BYTE	W01
	BYTE	W01
	BYTE	W01
	BYTE	W01
	BYTE	W01
	BYTE	W01
	BYTE	W01
	BYTE	W01
	BYTE	W01
	BYTE	W01
	BYTE	W01
	BYTE	W01
	BYTE	W01
	BYTE	W01
	BYTE	W01
	BYTE	W01
	BYTE	W01
	BYTE	W01
	BYTE	W01
	BYTE	W01
	BYTE	W01
	BYTE	W01
	BYTE	W01
	BYTE	W01
	BYTE	W01
	BYTE	W01
	BYTE	W01
	BYTE	W01
	BYTE	W01
	BYTE	W01
	BYTE	W01
	BYTE	W01
	BYTE	W01
	BYTE	W01
	BYTE	W01
	BYTE	W01
	BYTE	W01
	BYTE	W01
	BYTE	W01
	BYTE	W01
	BYTE	W01
	BYTE	W01
	BYTE	W01
	BYTE	W01
	BYTE	W01
	BYTE	W01
	BYTE	W01
	BYTE	W01
	BYTE	W01
	BYTE	W01
	BYTE	W01
	BYTE	W01
	BYTE	W01
	BYTE	W01
	BYTE	W01
	BYTE	W01
	BYTE	W01
	BYTE	W01
	BYTE	PEND
// 037   ----------------------------------------
	BYTE	PATT
	 POIN2	YUNO_OtherWorld_bpat_7_033
	BYTE		EOT     Ds4 
	BYTE		        Gn4 
// 038   ----------------------------------------
	BYTE	PATT
	 POIN2	YUNO_OtherWorld_bpat_7_034
	BYTE		EOT     As3 
// 039   ----------------------------------------
	BYTE	PATT
	 POIN2	YUNO_OtherWorld_bpat_7_035
	BYTE		EOT     Dn4 
// 040   ----------------------------------------
YUNO_OtherWorld_bpat_7_040:
	BYTE		TIE     Cs4   v120
	BYTE	W01
	BYTE	W01
	BYTE	W01
	BYTE	W01
	BYTE	W01
	BYTE	W01
	BYTE	W01
	BYTE	W01
	BYTE	W01
	BYTE	W01
	BYTE	W01
	BYTE	W01
	BYTE	W01
	BYTE	W01
	BYTE	W01
	BYTE	W01
	BYTE	W01
	BYTE	W01
	BYTE	W01
	BYTE	W01
	BYTE	W01
	BYTE	W01
	BYTE	W01
	BYTE	W01
	BYTE	W01
	BYTE	W01
	BYTE	W01
	BYTE	W01
	BYTE	W01
	BYTE	W01
	BYTE	W01
	BYTE	W01
	BYTE	W01
	BYTE	W01
	BYTE	W01
	BYTE	W01
	BYTE	W01
	BYTE	W01
	BYTE	W01
	BYTE	W01
	BYTE	W01
	BYTE	W01
	BYTE	W01
	BYTE	W01
	BYTE	W01
	BYTE	W01
	BYTE	W01
	BYTE	W01
	BYTE	W01
	BYTE	W01
	BYTE	W01
	BYTE	W01
	BYTE	W01
	BYTE	W01
	BYTE	W01
	BYTE	W01
	BYTE	W01
	BYTE	W01
	BYTE	W01
	BYTE	W01
	BYTE	W01
	BYTE	W01
	BYTE	W01
	BYTE	W01
	BYTE	W01
	BYTE	W01
	BYTE	W01
	BYTE	W01
	BYTE	W01
	BYTE	W01
	BYTE	W01
	BYTE	W01
	BYTE	W01
	BYTE	W01
	BYTE	W01
	BYTE	W01
	BYTE	W01
	BYTE	W01
	BYTE	W01
	BYTE	W01
	BYTE	W01
	BYTE	W01
	BYTE	W01
	BYTE	W01
	BYTE	W01
	BYTE	W01
	BYTE	W01
	BYTE	W01
	BYTE	W01
	BYTE	W01
	BYTE	W01
	BYTE	W01
	BYTE	W01
	BYTE	W01
	BYTE	W01
	BYTE	W01
	BYTE	PEND
// 041   ----------------------------------------
	BYTE	PATT
	 POIN2	YUNO_OtherWorld_bpat_7_033
	BYTE		EOT     Cs4 
	BYTE		        Fn4 
// 042   ----------------------------------------
YUNO_OtherWorld_bpat_7_042:
	BYTE		TIE     Cn4   v120
	BYTE		TIE     Ds4 
	BYTE	W03
	BYTE	W03
	BYTE	W03
	BYTE	W03
	BYTE	W03
	BYTE	W03
	BYTE	W03
	BYTE	W03
	BYTE	W03
	BYTE	W02
	BYTE	W03
	BYTE	W03
	BYTE	W03
	BYTE	W03
	BYTE	W03
	BYTE	W03
	BYTE	W03
	BYTE	W03
	BYTE	W03
	BYTE	W03
	BYTE	W03
	BYTE	W03
	BYTE	W03
	BYTE	W03
	BYTE	W03
	BYTE	W03
	BYTE	W03
	BYTE	W02
	BYTE	W03
	BYTE	W03
	BYTE	W03
	BYTE	W03
	BYTE	W02
	BYTE	PEND
// 043   ----------------------------------------
	BYTE	PATT
	 POIN2	YUNO_OtherWorld_bpat_7_035
	BYTE		EOT     Cn4 
// 044   ----------------------------------------
YUNO_OtherWorld_bpat_7_044:
	BYTE		TIE     Bn3   v120
	BYTE	W01
	BYTE	W01
	BYTE	W01
	BYTE	W01
	BYTE	W01
	BYTE	W01
	BYTE	W01
	BYTE	W01
	BYTE	W01
	BYTE	W01
	BYTE	W01
	BYTE	W01
	BYTE	W01
	BYTE	W01
	BYTE	W01
	BYTE	W01
	BYTE	W01
	BYTE	W01
	BYTE	W01
	BYTE	W01
	BYTE	W01
	BYTE	W01
	BYTE	W01
	BYTE	W01
	BYTE	W01
	BYTE	W01
	BYTE	W01
	BYTE	W01
	BYTE	W01
	BYTE	W01
	BYTE	W01
	BYTE	W01
	BYTE	W01
	BYTE	W01
	BYTE	W01
	BYTE	W01
	BYTE	W01
	BYTE	W01
	BYTE	W01
	BYTE	W01
	BYTE	W01
	BYTE	W01
	BYTE	W01
	BYTE	W01
	BYTE	W01
	BYTE	W01
	BYTE	W01
	BYTE	W01
	BYTE	W01
	BYTE	W01
	BYTE	W01
	BYTE	W01
	BYTE	W01
	BYTE	W01
	BYTE	W01
	BYTE	W01
	BYTE	W01
	BYTE	W01
	BYTE	W01
	BYTE	W01
	BYTE	W01
	BYTE	W01
	BYTE	W01
	BYTE	W01
	BYTE	W01
	BYTE	W01
	BYTE	W01
	BYTE	W01
	BYTE	W01
	BYTE	W01
	BYTE	W01
	BYTE	W01
	BYTE	W01
	BYTE	W01
	BYTE	W01
	BYTE	W01
	BYTE	W01
	BYTE	W01
	BYTE	W01
	BYTE	W01
	BYTE	W01
	BYTE	W01
	BYTE	W01
	BYTE	W01
	BYTE	W01
	BYTE	W01
	BYTE	W01
	BYTE	W01
	BYTE	W01
	BYTE	W01
	BYTE	W01
	BYTE	W01
	BYTE	W01
	BYTE	W01
	BYTE	W01
	BYTE	W01
	BYTE	PEND
// 045   ----------------------------------------
	BYTE	PATT
	 POIN2	YUNO_OtherWorld_bpat_7_033
// 046   ----------------------------------------
YUNO_OtherWorld_bpat_7_046:
	BYTE	W03
	BYTE	W03
	BYTE	W03
	BYTE	W03
	BYTE	W03
	BYTE	W03
	BYTE	W03
	BYTE	W03
	BYTE	W03
	BYTE	W02
	BYTE	W03
	BYTE	W03
	BYTE	W03
	BYTE	W03
	BYTE	W03
	BYTE	W03
	BYTE	W03
	BYTE	W03
	BYTE	W03
	BYTE	W03
	BYTE	W03
	BYTE	W03
	BYTE	W03
	BYTE	W03
	BYTE	W03
	BYTE	W03
	BYTE	W03
	BYTE	W02
	BYTE	W03
	BYTE	W03
	BYTE	W03
	BYTE	W03
	BYTE	W02
	BYTE	PEND
// 047   ----------------------------------------
	BYTE	PATT
	 POIN2	YUNO_OtherWorld_bpat_7_035
	BYTE		EOT     Bn3 
	BYTE		        Ds4 
// 048   ----------------------------------------
YUNO_OtherWorld_bpat_7_048:
	BYTE		VOICE   52
	BYTE		MOD     0
	BYTE		VOL     118*YUNO_OtherWorld_bpat_mvl/mxv
	BYTE		PAN     c_v+0
	BYTE		TIE     Cn3   v120
	BYTE		TIE     Ds3 
	BYTE	W01
	BYTE	W01
	BYTE	W02
	BYTE	W01
	BYTE	W01
	BYTE	W01
	BYTE	W01
	BYTE	W02
	BYTE	W01
	BYTE	W01
	BYTE	W01
	BYTE	W01
	BYTE	W02
	BYTE	W01
	BYTE	W01
	BYTE	W01
	BYTE	W01
	BYTE	W01
	BYTE	W02
	BYTE	W01
	BYTE	W01
	BYTE	W01
	BYTE	W01
	BYTE	W02
	BYTE	W01
	BYTE	W01
	BYTE	W01
	BYTE	W01
	BYTE	W02
	BYTE	W01
	BYTE	W01
	BYTE	W01
	BYTE	W01
	BYTE	W02
	BYTE	W01
	BYTE	W01
	BYTE	W01
	BYTE	W01
	BYTE	W02
	BYTE	W01
	BYTE	W01
	BYTE	W01
	BYTE	W01
	BYTE	W02
	BYTE	W01
	BYTE	W01
	BYTE	W01
	BYTE	W01
	BYTE	W01
	BYTE	W02
	BYTE	W01
	BYTE	W01
	BYTE	W01
	BYTE	W01
	BYTE	W02
	BYTE	W01
	BYTE	W01
	BYTE	W01
	BYTE	W01
	BYTE	W02
	BYTE	W01
	BYTE	W01
	BYTE	W01
	BYTE	W01
	BYTE	W02
	BYTE	W01
	BYTE	W01
	BYTE	W01
	BYTE	W01
	BYTE	W02
	BYTE	W01
	BYTE	W01
	BYTE	W01
	BYTE	W01
	BYTE	W02
	BYTE	W01
	BYTE	W01
	BYTE	W01
	BYTE	W01
	BYTE	W01
	BYTE	W01
	BYTE	PEND
// 049   ----------------------------------------
	BYTE	PATT
	 POIN2	YUNO_OtherWorld_bpat_7_001
	BYTE		EOT     Cn3 
	BYTE		        Ds3 
// 050   ----------------------------------------
	BYTE	PATT
	 POIN2	YUNO_OtherWorld_bpat_7_002
// 051   ----------------------------------------
	BYTE	PATT
	 POIN2	YUNO_OtherWorld_bpat_7_003
	BYTE		EOT     Dn3 
	BYTE		        Fn3 
// 052   ----------------------------------------
	BYTE	PATT
	 POIN2	YUNO_OtherWorld_bpat_7_004
// 053   ----------------------------------------
	BYTE	PATT
	 POIN2	YUNO_OtherWorld_bpat_7_005
// 054   ----------------------------------------
	BYTE	W96
// 055   ----------------------------------------
	BYTE	W96
	BYTE		EOT     Ds3 
	BYTE		        Gn3 
// 056   ----------------------------------------
	BYTE	PATT
	 POIN2	YUNO_OtherWorld_bpat_7_008
// 057   ----------------------------------------
	BYTE	PATT
	 POIN2	YUNO_OtherWorld_bpat_7_001
	BYTE		EOT     Cn4 
	BYTE		        Ds4 
// 058   ----------------------------------------
	BYTE	PATT
	 POIN2	YUNO_OtherWorld_bpat_7_010
// 059   ----------------------------------------
	BYTE	PATT
	 POIN2	YUNO_OtherWorld_bpat_7_011
	BYTE		EOT     Dn4 
	BYTE		        Fn4 
// 060   ----------------------------------------
	BYTE	PATT
	 POIN2	YUNO_OtherWorld_bpat_7_012
// 061   ----------------------------------------
	BYTE	PATT
	 POIN2	YUNO_OtherWorld_bpat_7_001
	BYTE		EOT     Ds4 
	BYTE		        Gn4 
// 062   ----------------------------------------
	BYTE	PATT
	 POIN2	YUNO_OtherWorld_bpat_7_010
// 063   ----------------------------------------
	BYTE	PATT
	 POIN2	YUNO_OtherWorld_bpat_7_011
	BYTE		EOT     Dn4 
// 064   ----------------------------------------
	BYTE	PATT
	 POIN2	YUNO_OtherWorld_bpat_7_016
// 065   ----------------------------------------
	BYTE	PATT
	 POIN2	YUNO_OtherWorld_bpat_7_017
	BYTE		EOT     Cs4 
	BYTE		        Fn4 
// 066   ----------------------------------------
	BYTE	PATT
	 POIN2	YUNO_OtherWorld_bpat_7_018
// 067   ----------------------------------------
	BYTE	PATT
	 POIN2	YUNO_OtherWorld_bpat_7_011
	BYTE		EOT     Cn4 
// 068   ----------------------------------------
	BYTE	PATT
	 POIN2	YUNO_OtherWorld_bpat_7_020
// 069   ----------------------------------------
	BYTE	PATT
	 POIN2	YUNO_OtherWorld_bpat_7_017
// 070   ----------------------------------------
	BYTE	PATT
	 POIN2	YUNO_OtherWorld_bpat_7_022
// 071   ----------------------------------------
	BYTE	PATT
	 POIN2	YUNO_OtherWorld_bpat_7_023
	BYTE		EOT     Bn3 
	BYTE		        Ds4 
	BYTE	W06
// 072   ----------------------------------------
	BYTE	PATT
	 POIN2	YUNO_OtherWorld_bpat_7_024
// 073   ----------------------------------------
	BYTE	PATT
	 POIN2	YUNO_OtherWorld_bpat_7_001
	BYTE		EOT     Cn4 
	BYTE		        Ds4 
// 074   ----------------------------------------
	BYTE	PATT
	 POIN2	YUNO_OtherWorld_bpat_7_026
// 075   ----------------------------------------
	BYTE	PATT
	 POIN2	YUNO_OtherWorld_bpat_7_027
	BYTE		EOT     Dn4 
	BYTE		        Fn4 
	BYTE		        Gn4 
// 076   ----------------------------------------
	BYTE	PATT
	 POIN2	YUNO_OtherWorld_bpat_7_028
// 077   ----------------------------------------
	BYTE	PATT
	 POIN2	YUNO_OtherWorld_bpat_7_005
// 078   ----------------------------------------
	BYTE	W96
// 079   ----------------------------------------
	BYTE	PATT
	 POIN2	YUNO_OtherWorld_bpat_7_031
	BYTE		EOT     As3 
	BYTE		        Ds4 
	BYTE		        Gn4 
// 080   ----------------------------------------
	BYTE	PATT
	 POIN2	YUNO_OtherWorld_bpat_7_032
// 081   ----------------------------------------
	BYTE	PATT
	 POIN2	YUNO_OtherWorld_bpat_7_033
	BYTE		EOT     Cn4 
	BYTE		        Ds4 
// 082   ----------------------------------------
	BYTE	PATT
	 POIN2	YUNO_OtherWorld_bpat_7_034
// 083   ----------------------------------------
	BYTE	PATT
	 POIN2	YUNO_OtherWorld_bpat_7_035
	BYTE		EOT     Dn4 
	BYTE		        Fn4 
// 084   ----------------------------------------
	BYTE	PATT
	 POIN2	YUNO_OtherWorld_bpat_7_036
// 085   ----------------------------------------
	BYTE	PATT
	 POIN2	YUNO_OtherWorld_bpat_7_033
	BYTE		EOT     Ds4 
	BYTE		        Gn4 
// 086   ----------------------------------------
	BYTE	PATT
	 POIN2	YUNO_OtherWorld_bpat_7_034
	BYTE		EOT     As3 
// 087   ----------------------------------------
	BYTE	PATT
	 POIN2	YUNO_OtherWorld_bpat_7_035
	BYTE		EOT     Dn4 
// 088   ----------------------------------------
	BYTE	PATT
	 POIN2	YUNO_OtherWorld_bpat_7_040
// 089   ----------------------------------------
	BYTE	PATT
	 POIN2	YUNO_OtherWorld_bpat_7_033
	BYTE		EOT     Cs4 
	BYTE		        Fn4 
// 090   ----------------------------------------
	BYTE	PATT
	 POIN2	YUNO_OtherWorld_bpat_7_042
// 091   ----------------------------------------
	BYTE	PATT
	 POIN2	YUNO_OtherWorld_bpat_7_035
	BYTE		EOT     Cn4 
// 092   ----------------------------------------
	BYTE	PATT
	 POIN2	YUNO_OtherWorld_bpat_7_044
// 093   ----------------------------------------
	BYTE	PATT
	 POIN2	YUNO_OtherWorld_bpat_7_033
// 094   ----------------------------------------
	BYTE	PATT
	 POIN2	YUNO_OtherWorld_bpat_7_046
// 095   ----------------------------------------
	BYTE	PATT
	 POIN2	YUNO_OtherWorld_bpat_7_035
	BYTE		EOT     Bn3 
	BYTE		        Ds4 
// 096   ----------------------------------------
	BYTE	PATT
	 POIN2	YUNO_OtherWorld_bpat_7_048
// 097   ----------------------------------------
	BYTE	PATT
	 POIN2	YUNO_OtherWorld_bpat_7_001
	BYTE		EOT     Cn3 
	BYTE		        Ds3 
// 098   ----------------------------------------
	BYTE	PATT
	 POIN2	YUNO_OtherWorld_bpat_7_002
// 099   ----------------------------------------
	BYTE	PATT
	 POIN2	YUNO_OtherWorld_bpat_7_003
	BYTE		EOT     Dn3 
	BYTE		        Fn3 
// 100   ----------------------------------------
	BYTE	PATT
	 POIN2	YUNO_OtherWorld_bpat_7_004
// 101   ----------------------------------------
	BYTE	PATT
	 POIN2	YUNO_OtherWorld_bpat_7_005
// 102   ----------------------------------------
	BYTE	W96
// 103   ----------------------------------------
	BYTE	W96
	BYTE		EOT     Ds3 
	BYTE		        Gn3 
// 104   ----------------------------------------
	BYTE	PATT
	 POIN2	YUNO_OtherWorld_bpat_7_008
// 105   ----------------------------------------
	BYTE	PATT
	 POIN2	YUNO_OtherWorld_bpat_7_001
	BYTE		EOT     Cn4 
	BYTE		        Ds4 
// 106   ----------------------------------------
	BYTE	PATT
	 POIN2	YUNO_OtherWorld_bpat_7_010
// 107   ----------------------------------------
	BYTE	PATT
	 POIN2	YUNO_OtherWorld_bpat_7_011
	BYTE		EOT     Dn4 
	BYTE		        Fn4 
// 108   ----------------------------------------
	BYTE	W01
	BYTE	W01
	BYTE	W02
	BYTE	W01
	BYTE	W01
	BYTE	W01
	BYTE	W01
	BYTE	W02
	BYTE	W01
	BYTE	W01
	BYTE	W01
	BYTE	W01
	BYTE	W02
	BYTE	W01
	BYTE	W01
	BYTE	W01
	BYTE	W01
	BYTE	W01
	BYTE	W02
	BYTE	W01
	BYTE	W01
	BYTE	W01
	BYTE	W01
	BYTE	W02
	BYTE	W01
	BYTE	W01
	BYTE	W01
	BYTE	W01
	BYTE	W02
	BYTE	W01
	BYTE	W01
	BYTE	W01
	BYTE	W01
	BYTE	W02
	BYTE	W01
	BYTE	W01
	BYTE	W01
	BYTE	W01
	BYTE	W02
	BYTE	W01
	BYTE	W01
	BYTE	W01
	BYTE	W01
	BYTE	W02
	BYTE	W01
	BYTE	W01
	BYTE	W01
	BYTE	W01
	BYTE	W01
	BYTE	W02
	BYTE	W01
	BYTE	W01
	BYTE	W01
	BYTE	W01
	BYTE	W02
	BYTE	W01
	BYTE	W01
	BYTE	W01
	BYTE	W01
	BYTE	W02
	BYTE	W01
	BYTE	W01
	BYTE	W01
	BYTE	W01
	BYTE	W02
	BYTE	W01
	BYTE	W01
	BYTE	W01
	BYTE	W01
	BYTE	W02
	BYTE	W01
	BYTE	W01
	BYTE	W01
	BYTE	W01
	BYTE	W02
	BYTE	W01
	BYTE	W01
	BYTE	W01
	BYTE	W01
	BYTE	W01
	BYTE	W01
// 109   ----------------------------------------
	BYTE	W23
	BYTE	GoTo
	 POIN2	YUNO_OtherWorld_bpat_7_B1
YUNO_OtherWorld_bpat_7_B2:
	BYTE	FINE

//**************** Track 8 (Midi-Chn.8) ****************//

YUNO_OtherWorld_bpat_8:
	BYTE	KEYSH   YUNO_OtherWorld_bpat_key+0
YUNO_OtherWorld_bpat_8_B1:
// 000   ----------------------------------------
	BYTE		VOICE   26
	BYTE		PAN     c_v+22
	BYTE		VOL     98*YUNO_OtherWorld_bpat_mvl/mxv
	BYTE		MOD     0
	BYTE		N17     Gn4   v096
	BYTE	W18
	BYTE		N17   
	BYTE	W18
	BYTE		N17   
	BYTE	W24
	BYTE		N17   
	BYTE	W18
	BYTE		N17   
	BYTE	W18
// 001   ----------------------------------------
YUNO_OtherWorld_bpat_8_001:
	BYTE		N17     Gn4   v096
	BYTE	W18
	BYTE		N17   
	BYTE	W18
	BYTE		N17   
	BYTE	W24
	BYTE		N17   
	BYTE	W24
	BYTE		N11   
	BYTE	W12
	BYTE	PEND
// 002   ----------------------------------------
YUNO_OtherWorld_bpat_8_002:
	BYTE		N17     Gn4   v096
	BYTE	W18
	BYTE		N17   
	BYTE	W18
	BYTE		N17   
	BYTE	W24
	BYTE		N17   
	BYTE	W18
	BYTE		N17   
	BYTE	W18
	BYTE	PEND
// 003   ----------------------------------------
	BYTE	PATT
	 POIN2	YUNO_OtherWorld_bpat_8_001
// 004   ----------------------------------------
	BYTE	PATT
	 POIN2	YUNO_OtherWorld_bpat_8_002
// 005   ----------------------------------------
	BYTE	PATT
	 POIN2	YUNO_OtherWorld_bpat_8_001
// 006   ----------------------------------------
	BYTE	PATT
	 POIN2	YUNO_OtherWorld_bpat_8_002
// 007   ----------------------------------------
	BYTE	PATT
	 POIN2	YUNO_OtherWorld_bpat_8_001
// 008   ----------------------------------------
	BYTE		VOICE   24
	BYTE		VOL     116*YUNO_OtherWorld_bpat_mvl/mxv
	BYTE		PAN     c_v+56
	BYTE		N06     Cn4   v096
	BYTE	W02
	BYTE	W01
	BYTE	W02
	BYTE	W02
	BYTE	W02
	BYTE	W01
	BYTE	W02
	BYTE		N05     Gn4 
	BYTE	W02
	BYTE	W02
	BYTE	W01
	BYTE	W01
	BYTE		        Cn4 
	BYTE	W01
	BYTE	W02
	BYTE	W02
	BYTE	W01
	BYTE		        Fn4 
	BYTE	W02
	BYTE	W02
	BYTE	W02
	BYTE		        Fn4   v060
	BYTE	W01
	BYTE	W02
	BYTE	W02
	BYTE	W01
	BYTE		        Gn4   v096
	BYTE	W02
	BYTE	W02
	BYTE	W02
	BYTE		        As4 
	BYTE	W01
	BYTE	W02
	BYTE	W02
	BYTE	W01
	BYTE		        Gn4   v060
	BYTE	W01
	BYTE	W01
	BYTE	W02
	BYTE	W02
	BYTE		        An4   v096
	BYTE	W02
	BYTE	W01
	BYTE	W02
	BYTE	W01
	BYTE		        As4   v060
	BYTE	W01
	BYTE	W02
	BYTE	W01
	BYTE	W02
	BYTE		        Fn4   v096
	BYTE	W02
	BYTE	W01
	BYTE	W02
	BYTE	W01
	BYTE		        Gn4 
	BYTE	W01
	BYTE	W02
	BYTE	W01
	BYTE	W02
	BYTE		        Cn4   v080
	BYTE	W02
	BYTE	W02
	BYTE	W01
	BYTE	W01
	BYTE		        Fn4 
	BYTE	W01
	BYTE	W02
	BYTE	W02
	BYTE	W01
	BYTE		        Gn4 
	BYTE	W02
	BYTE	W02
	BYTE	W01
	BYTE	W01
// 009   ----------------------------------------
YUNO_OtherWorld_bpat_8_009:
	BYTE		N06     Cn4   v096
	BYTE	W12
	BYTE		N05     Gn4 
	BYTE	W06
	BYTE		        Cn4 
	BYTE	W06
	BYTE		        Fn4 
	BYTE	W06
	BYTE		        Fn4   v060
	BYTE	W06
	BYTE		        Gn4   v096
	BYTE	W06
	BYTE		        As4 
	BYTE	W06
	BYTE		        Gn4   v060
	BYTE	W06
	BYTE		        An4   v096
	BYTE	W06
	BYTE		        As4   v060
	BYTE	W06
	BYTE		        Fn4   v096
	BYTE	W06
	BYTE		        Gn4 
	BYTE	W06
	BYTE		        Cn4   v080
	BYTE	W06
	BYTE		        Fn4 
	BYTE	W06
	BYTE		        Gn4 
	BYTE	W06
	BYTE	PEND
// 010   ----------------------------------------
	BYTE	PATT
	 POIN2	YUNO_OtherWorld_bpat_8_009
// 011   ----------------------------------------
	BYTE	PATT
	 POIN2	YUNO_OtherWorld_bpat_8_009
// 012   ----------------------------------------
	BYTE	PATT
	 POIN2	YUNO_OtherWorld_bpat_8_009
// 013   ----------------------------------------
	BYTE	PATT
	 POIN2	YUNO_OtherWorld_bpat_8_009
// 014   ----------------------------------------
	BYTE	PATT
	 POIN2	YUNO_OtherWorld_bpat_8_009
// 015   ----------------------------------------
	BYTE	PATT
	 POIN2	YUNO_OtherWorld_bpat_8_009
// 016   ----------------------------------------
YUNO_OtherWorld_bpat_8_016:
	BYTE		N06     Cs4   v096
	BYTE	W12
	BYTE		N05     Gn4 
	BYTE	W06
	BYTE		        Cs4 
	BYTE	W06
	BYTE		        Fn4 
	BYTE	W06
	BYTE		        Fn4   v060
	BYTE	W06
	BYTE		        Gn4   v096
	BYTE	W06
	BYTE		        Gs4 
	BYTE	W06
	BYTE		        Gs4   v060
	BYTE	W06
	BYTE		        Gn4   v096
	BYTE	W06
	BYTE		        Gn4   v060
	BYTE	W06
	BYTE		        Fn4   v096
	BYTE	W06
	BYTE		        Gn4 
	BYTE	W06
	BYTE		        Cs4   v080
	BYTE	W06
	BYTE		        Fn4 
	BYTE	W06
	BYTE		        Gn4 
	BYTE	W06
	BYTE	PEND
// 017   ----------------------------------------
	BYTE	PATT
	 POIN2	YUNO_OtherWorld_bpat_8_016
// 018   ----------------------------------------
	BYTE	PATT
	 POIN2	YUNO_OtherWorld_bpat_8_009
// 019   ----------------------------------------
	BYTE	PATT
	 POIN2	YUNO_OtherWorld_bpat_8_009
// 020   ----------------------------------------
YUNO_OtherWorld_bpat_8_020:
	BYTE		N06     Ds4   v096
	BYTE	W12
	BYTE		N05     Fs4 
	BYTE	W06
	BYTE		        Ds4 
	BYTE	W06
	BYTE		        Fn4 
	BYTE	W06
	BYTE		        Fn4   v060
	BYTE	W06
	BYTE		        Fs4   v096
	BYTE	W06
	BYTE		        Gs4 
	BYTE	W06
	BYTE		        Fn4   v060
	BYTE	W06
	BYTE		        Fs4   v096
	BYTE	W06
	BYTE		        Ds4   v060
	BYTE	W06
	BYTE		        Fn4   v096
	BYTE	W06
	BYTE		        Fs4 
	BYTE	W06
	BYTE		        Ds4   v080
	BYTE	W06
	BYTE		        Fn4 
	BYTE	W06
	BYTE		        Fs4 
	BYTE	W06
	BYTE	PEND
// 021   ----------------------------------------
YUNO_OtherWorld_bpat_8_021:
	BYTE		N06     Fs4   v096
	BYTE	W12
	BYTE		N05   
	BYTE	W06
	BYTE		N05   
	BYTE	W06
	BYTE		        Fn4 
	BYTE	W06
	BYTE		        Fn4   v060
	BYTE	W06
	BYTE		        Fs4   v096
	BYTE	W06
	BYTE		        Gs4 
	BYTE	W06
	BYTE		        Fn4   v060
	BYTE	W06
	BYTE		        Fs4   v096
	BYTE	W06
	BYTE		        Ds4   v060
	BYTE	W06
	BYTE		        Fn4   v096
	BYTE	W06
	BYTE		        Fs4 
	BYTE	W06
	BYTE		        Ds4   v080
	BYTE	W06
	BYTE		        Fn4 
	BYTE	W06
	BYTE		        Fs4 
	BYTE	W06
	BYTE	PEND
// 022   ----------------------------------------
	BYTE	PATT
	 POIN2	YUNO_OtherWorld_bpat_8_020
// 023   ----------------------------------------
	BYTE	PATT
	 POIN2	YUNO_OtherWorld_bpat_8_021
// 024   ----------------------------------------
YUNO_OtherWorld_bpat_8_024:
	BYTE		PAN     c_v+0
	BYTE		N05     Ds4   v084
	BYTE		N05     Gn4   v096
	BYTE	W06
	BYTE		        Ds4   v060
	BYTE		N05     Gn4   v072
	BYTE	W06
	BYTE		        Ds4   v084
	BYTE		N05     Gn4   v096
	BYTE	W06
	BYTE		        Ds4   v080
	BYTE		N05     Gn4   v092
	BYTE	W06
	BYTE		        Ds4   v060
	BYTE		N05     Gn4   v072
	BYTE	W06
	BYTE		        Ds4   v048
	BYTE		N05     Gn4   v056
	BYTE	W06
	BYTE		        Ds4   v084
	BYTE		N05     Gn4   v096
	BYTE	W06
	BYTE		        Ds4   v060
	BYTE		N05     Gn4   v072
	BYTE	W06
	BYTE		        Ds4   v048
	BYTE		N05     Gn4   v056
	BYTE	W06
	BYTE		        Ds4   v032
	BYTE		N05     Gn4   v040
	BYTE	W06
	BYTE		        Ds4   v084
	BYTE		N05     Gn4   v096
	BYTE	W06
	BYTE		        Ds4   v060
	BYTE		N05     Gn4   v072
	BYTE	W06
	BYTE		        Ds4   v048
	BYTE		N05     Gn4   v056
	BYTE	W06
	BYTE		        Ds4   v084
	BYTE		N05     Gn4   v096
	BYTE	W06
	BYTE		        Ds4   v060
	BYTE		N05     Gn4   v072
	BYTE	W06
	BYTE		        Ds4   v048
	BYTE		N05     Gn4   v056
	BYTE	W06
	BYTE	PEND
// 025   ----------------------------------------
YUNO_OtherWorld_bpat_8_025:
	BYTE		N05     Ds4   v084
	BYTE		N05     Gn4   v096
	BYTE	W06
	BYTE		        Ds4   v060
	BYTE		N05     Gn4   v072
	BYTE	W06
	BYTE		        Ds4   v084
	BYTE		N05     Gn4   v096
	BYTE	W06
	BYTE		        Ds4   v080
	BYTE		N05     Gn4   v092
	BYTE	W06
	BYTE		        Ds4   v060
	BYTE		N05     Gn4   v072
	BYTE	W06
	BYTE		        Ds4   v048
	BYTE		N05     Gn4   v056
	BYTE	W06
	BYTE		        Ds4   v084
	BYTE		N05     Gn4   v096
	BYTE	W06
	BYTE		        Ds4   v064
	BYTE		N05     Gn4   v076
	BYTE	W06
	BYTE		        Ds4   v052
	BYTE		N05     Gn4   v060
	BYTE	W06
	BYTE		        Ds4   v048
	BYTE		N05     Gn4   v056
	BYTE	W06
	BYTE		        Ds4   v084
	BYTE		N05     Gn4   v096
	BYTE	W06
	BYTE		        Ds4   v064
	BYTE		N05     Gn4   v076
	BYTE	W06
	BYTE		        Ds4   v052
	BYTE		N05     Gn4   v060
	BYTE	W06
	BYTE		        Ds4   v048
	BYTE		N05     Gn4   v056
	BYTE	W06
	BYTE		        Ds4   v084
	BYTE		N05     Gn4   v096
	BYTE	W06
	BYTE		        Ds4   v060
	BYTE		N05     Gn4   v072
	BYTE	W06
	BYTE	PEND
// 026   ----------------------------------------
YUNO_OtherWorld_bpat_8_026:
	BYTE		N05     Ds4   v084
	BYTE		N05     Gn4   v096
	BYTE	W06
	BYTE		        Ds4   v060
	BYTE		N05     Gn4   v072
	BYTE	W06
	BYTE		        Ds4   v084
	BYTE		N05     Gn4   v096
	BYTE	W06
	BYTE		        Ds4   v084
	BYTE		N05     Gn4   v092
	BYTE	W06
	BYTE		        Ds4   v060
	BYTE		N05     Gn4   v072
	BYTE	W06
	BYTE		        Ds4   v048
	BYTE		N05     Gn4   v056
	BYTE	W06
	BYTE		        Ds4   v084
	BYTE		N05     Gn4   v096
	BYTE	W06
	BYTE		        Ds4   v060
	BYTE		N05     Gn4   v072
	BYTE	W06
	BYTE		        Ds4   v048
	BYTE		N05     Gn4   v056
	BYTE	W06
	BYTE		        Ds4   v032
	BYTE		N05     Gn4   v040
	BYTE	W06
	BYTE		        Ds4   v084
	BYTE		N05     Gn4   v096
	BYTE	W06
	BYTE		        Ds4   v060
	BYTE		N05     Gn4   v072
	BYTE	W06
	BYTE		        Ds4   v048
	BYTE		N05     Gn4   v056
	BYTE	W06
	BYTE		        Ds4   v084
	BYTE		N05     Gn4   v096
	BYTE	W06
	BYTE		        Ds4   v060
	BYTE		N05     Gn4   v072
	BYTE	W06
	BYTE		        Ds4   v048
	BYTE		N05     Gn4   v056
	BYTE	W06
	BYTE	PEND
// 027   ----------------------------------------
	BYTE	PATT
	 POIN2	YUNO_OtherWorld_bpat_8_025
// 028   ----------------------------------------
YUNO_OtherWorld_bpat_8_028:
	BYTE		N05     Gn3   v096
	BYTE		N05     Dn4   v084
	BYTE	W06
	BYTE		        Gn3   v072
	BYTE		N05     Dn4   v060
	BYTE	W06
	BYTE		        Gn3   v096
	BYTE		N05     Dn4   v084
	BYTE	W06
	BYTE		        Gn3   v092
	BYTE		N05     Dn4   v080
	BYTE	W06
	BYTE		        Gn3   v072
	BYTE		N05     Dn4   v060
	BYTE	W06
	BYTE		        Gn3   v056
	BYTE		N05     Dn4   v048
	BYTE	W06
	BYTE		        Gn3   v096
	BYTE		N05     Dn4   v084
	BYTE	W06
	BYTE		        Gn3   v072
	BYTE		N05     Dn4   v060
	BYTE	W06
	BYTE		        Gn3   v056
	BYTE		N05     Dn4   v048
	BYTE	W06
	BYTE		        Gn3   v040
	BYTE		N05     Dn4   v032
	BYTE	W06
	BYTE		        Gn3   v096
	BYTE		N05     Dn4   v084
	BYTE	W06
	BYTE		        Gn3   v072
	BYTE		N05     Dn4   v060
	BYTE	W06
	BYTE		        Gn3   v056
	BYTE		N05     Dn4   v048
	BYTE	W06
	BYTE		        Gn3   v096
	BYTE		N05     Dn4   v084
	BYTE	W06
	BYTE		        Gn3   v072
	BYTE		N05     Dn4   v060
	BYTE	W06
	BYTE		        Gn3   v056
	BYTE		N05     Dn4   v048
	BYTE	W06
	BYTE	PEND
// 029   ----------------------------------------
YUNO_OtherWorld_bpat_8_029:
	BYTE		N05     Gn3   v096
	BYTE		N05     Dn4   v084
	BYTE	W06
	BYTE		        Gn3   v072
	BYTE		N05     Dn4   v060
	BYTE	W06
	BYTE		        Gn3   v096
	BYTE		N05     Dn4   v084
	BYTE	W06
	BYTE		        Gn3   v092
	BYTE		N05     Dn4   v080
	BYTE	W06
	BYTE		        Gn3   v072
	BYTE		N05     Dn4   v060
	BYTE	W06
	BYTE		        Gn3   v056
	BYTE		N05     Dn4   v048
	BYTE	W06
	BYTE		        Gn3   v096
	BYTE		N05     Dn4   v084
	BYTE	W06
	BYTE		        Gn3   v076
	BYTE		N05     Dn4   v064
	BYTE	W06
	BYTE		        Gn3   v060
	BYTE		N05     Dn4   v052
	BYTE	W06
	BYTE		        Gn3   v056
	BYTE		N05     Dn4   v048
	BYTE	W06
	BYTE		        Gn3   v096
	BYTE		N05     Dn4   v084
	BYTE	W06
	BYTE		        Gn3   v076
	BYTE		N05     Dn4   v064
	BYTE	W06
	BYTE		        Gn3   v060
	BYTE		N05     Dn4   v052
	BYTE	W06
	BYTE		        Gn3   v056
	BYTE		N05     Dn4   v048
	BYTE	W06
	BYTE		        Gn3   v096
	BYTE		N05     Dn4   v084
	BYTE	W06
	BYTE		        Gn3   v072
	BYTE		N05     Dn4   v060
	BYTE	W06
	BYTE	PEND
// 030   ----------------------------------------
	BYTE	PATT
	 POIN2	YUNO_OtherWorld_bpat_8_028
// 031   ----------------------------------------
	BYTE	PATT
	 POIN2	YUNO_OtherWorld_bpat_8_029
// 032   ----------------------------------------
	BYTE	PATT
	 POIN2	YUNO_OtherWorld_bpat_8_026
// 033   ----------------------------------------
	BYTE	PATT
	 POIN2	YUNO_OtherWorld_bpat_8_025
// 034   ----------------------------------------
YUNO_OtherWorld_bpat_8_034:
	BYTE		N05     Ds4   v084
	BYTE		N05     Gn4   v096
	BYTE	W06
	BYTE		        Ds4   v060
	BYTE		N05     Gn4   v072
	BYTE	W06
	BYTE		        Ds4   v084
	BYTE		N05     Gn4   v096
	BYTE	W06
	BYTE		        Ds4   v080
	BYTE		N05     Gn4   v092
	BYTE	W06
	BYTE		        Ds4   v060
	BYTE		N05     Gn4   v072
	BYTE	W06
	BYTE		        Ds4   v048
	BYTE		N05     Gn4   v056
	BYTE	W06
	BYTE		        Ds4   v084
	BYTE		N05     Gn4   v096
	BYTE	W06
	BYTE		        Ds4   v060
	BYTE		N05     Gn4   v072
	BYTE	W06
	BYTE		        Ds4   v048
	BYTE		N05     Gn4   v056
	BYTE	W06
	BYTE		        Ds4   v032
	BYTE		N05     Gn4   v040
	BYTE	W06
	BYTE		        Ds4   v084
	BYTE		N05     Gn4   v096
	BYTE	W06
	BYTE		        Ds4   v060
	BYTE		N05     Gn4   v072
	BYTE	W06
	BYTE		        Ds4   v048
	BYTE		N05     Gn4   v056
	BYTE	W06
	BYTE		        Ds4   v084
	BYTE		N05     Gn4   v096
	BYTE	W06
	BYTE		        Ds4   v060
	BYTE		N05     Gn4   v072
	BYTE	W06
	BYTE		        Ds4   v048
	BYTE		N05     Gn4   v056
	BYTE	W06
	BYTE	PEND
// 035   ----------------------------------------
	BYTE	PATT
	 POIN2	YUNO_OtherWorld_bpat_8_025
// 036   ----------------------------------------
	BYTE	PATT
	 POIN2	YUNO_OtherWorld_bpat_8_028
// 037   ----------------------------------------
	BYTE	PATT
	 POIN2	YUNO_OtherWorld_bpat_8_029
// 038   ----------------------------------------
	BYTE	PATT
	 POIN2	YUNO_OtherWorld_bpat_8_028
// 039   ----------------------------------------
	BYTE	PATT
	 POIN2	YUNO_OtherWorld_bpat_8_029
// 040   ----------------------------------------
YUNO_OtherWorld_bpat_8_040:
	BYTE		N05     Fn3   v096
	BYTE		N05     Cs4   v084
	BYTE	W06
	BYTE		        Fn3   v072
	BYTE		N05     Cs4   v060
	BYTE	W06
	BYTE		        Fn3   v096
	BYTE		N05     Cs4   v084
	BYTE	W06
	BYTE		        Fn3   v092
	BYTE		N05     Cs4   v080
	BYTE	W06
	BYTE		        Fn3   v072
	BYTE		N05     Cs4   v060
	BYTE	W06
	BYTE		        Fn3   v056
	BYTE		N05     Cs4   v048
	BYTE	W06
	BYTE		        Fn3   v096
	BYTE		N05     Cs4   v084
	BYTE	W06
	BYTE		        Fn3   v072
	BYTE		N05     Cs4   v060
	BYTE	W06
	BYTE		        Fn3   v056
	BYTE		N05     Cs4   v048
	BYTE	W06
	BYTE		        Fn3   v040
	BYTE		N05     Cs4   v032
	BYTE	W06
	BYTE		        Fn3   v096
	BYTE		N05     Cs4   v084
	BYTE	W06
	BYTE		        Fn3   v072
	BYTE		N05     Cs4   v060
	BYTE	W06
	BYTE		        Fn3   v056
	BYTE		N05     Cs4   v048
	BYTE	W06
	BYTE		        Fn3   v096
	BYTE		N05     Cs4   v084
	BYTE	W06
	BYTE		        Fn3   v072
	BYTE		N05     Cs4   v060
	BYTE	W06
	BYTE		        Fn3   v056
	BYTE		N05     Cs4   v048
	BYTE	W06
	BYTE	PEND
// 041   ----------------------------------------
YUNO_OtherWorld_bpat_8_041:
	BYTE		N05     Fn3   v096
	BYTE		N05     Cs4   v084
	BYTE	W06
	BYTE		        Fn3   v072
	BYTE		N05     Cs4   v060
	BYTE	W06
	BYTE		        Fn3   v096
	BYTE		N05     Cs4   v084
	BYTE	W06
	BYTE		        Fn3   v092
	BYTE		N05     Cs4   v080
	BYTE	W06
	BYTE		        Fn3   v072
	BYTE		N05     Cs4   v060
	BYTE	W06
	BYTE		        Fn3   v056
	BYTE		N05     Cs4   v048
	BYTE	W06
	BYTE		        Fn3   v096
	BYTE		N05     Cs4   v084
	BYTE	W06
	BYTE		        Fn3   v076
	BYTE		N05     Cs4   v064
	BYTE	W06
	BYTE		        Fn3   v060
	BYTE		N05     Cs4   v052
	BYTE	W06
	BYTE		        Fn3   v056
	BYTE		N05     Cs4   v048
	BYTE	W06
	BYTE		        Fn3   v096
	BYTE		N05     Cs4   v084
	BYTE	W06
	BYTE		        Fn3   v076
	BYTE		N05     Cs4   v064
	BYTE	W06
	BYTE		        Fn3   v060
	BYTE		N05     Cs4   v052
	BYTE	W06
	BYTE		        Fn3   v056
	BYTE		N05     Cs4   v048
	BYTE	W06
	BYTE		        Fn3   v096
	BYTE		N05     Cs4   v084
	BYTE	W06
	BYTE		        Fn3   v072
	BYTE		N05     Cs4   v060
	BYTE	W06
	BYTE	PEND
// 042   ----------------------------------------
YUNO_OtherWorld_bpat_8_042:
	BYTE		N05     Gn3   v096
	BYTE		N05     Ds4   v084
	BYTE	W06
	BYTE		        Gn3   v072
	BYTE		N05     Ds4   v060
	BYTE	W06
	BYTE		        Gn3   v096
	BYTE		N05     Ds4   v084
	BYTE	W06
	BYTE		        Gn3   v092
	BYTE		N05     Ds4   v080
	BYTE	W06
	BYTE		        Gn3   v072
	BYTE		N05     Ds4   v060
	BYTE	W06
	BYTE		        Gn3   v056
	BYTE		N05     Ds4   v048
	BYTE	W06
	BYTE		        Gn3   v096
	BYTE		N05     Ds4   v084
	BYTE	W06
	BYTE		        Gn3   v072
	BYTE		N05     Ds4   v060
	BYTE	W06
	BYTE		        Gn3   v056
	BYTE		N05     Ds4   v048
	BYTE	W06
	BYTE		        Gn3   v040
	BYTE		N05     Ds4   v032
	BYTE	W06
	BYTE		        Gn3   v096
	BYTE		N05     Ds4   v084
	BYTE	W06
	BYTE		        Gn3   v072
	BYTE		N05     Ds4   v060
	BYTE	W06
	BYTE		        Gn3   v056
	BYTE		N05     Ds4   v048
	BYTE	W06
	BYTE		        Gn3   v096
	BYTE		N05     Ds4   v084
	BYTE	W06
	BYTE		        Gn3   v072
	BYTE		N05     Ds4   v060
	BYTE	W06
	BYTE		        Gn3   v056
	BYTE		N05     Ds4   v048
	BYTE	W06
	BYTE	PEND
// 043   ----------------------------------------
YUNO_OtherWorld_bpat_8_043:
	BYTE		N05     Gn3   v096
	BYTE		N05     Ds4   v084
	BYTE	W06
	BYTE		        Gn3   v072
	BYTE		N05     Ds4   v060
	BYTE	W06
	BYTE		        Gn3   v096
	BYTE		N05     Ds4   v084
	BYTE	W06
	BYTE		        Gn3   v092
	BYTE		N05     Ds4   v080
	BYTE	W06
	BYTE		        Gn3   v072
	BYTE		N05     Ds4   v060
	BYTE	W06
	BYTE		        Gn3   v056
	BYTE		N05     Ds4   v048
	BYTE	W06
	BYTE		        Gn3   v096
	BYTE		N05     Ds4   v084
	BYTE	W06
	BYTE		        Gn3   v076
	BYTE		N05     Ds4   v064
	BYTE	W06
	BYTE		        Gn3   v060
	BYTE		N05     Ds4   v052
	BYTE	W06
	BYTE		        Gn3   v056
	BYTE		N05     Ds4   v048
	BYTE	W06
	BYTE		        Gn3   v096
	BYTE		N05     Ds4   v084
	BYTE	W06
	BYTE		        Gn3   v076
	BYTE		N05     Ds4   v064
	BYTE	W06
	BYTE		        Gn3   v060
	BYTE		N05     Ds4   v052
	BYTE	W06
	BYTE		        Gn3   v056
	BYTE		N05     Ds4   v048
	BYTE	W06
	BYTE		        Gn3   v096
	BYTE		N05     Ds4   v084
	BYTE	W06
	BYTE		        Gn3   v072
	BYTE		N05     Ds4   v060
	BYTE	W06
	BYTE	PEND
// 044   ----------------------------------------
YUNO_OtherWorld_bpat_8_044:
	BYTE		N05     Fs3   v096
	BYTE		N05     Ds4   v084
	BYTE	W06
	BYTE		        Fs3   v072
	BYTE		N05     Ds4   v060
	BYTE	W06
	BYTE		        Fs3   v096
	BYTE		N05     Ds4   v084
	BYTE	W06
	BYTE		        Fs3   v092
	BYTE		N05     Ds4   v080
	BYTE	W06
	BYTE		        Fs3   v072
	BYTE		N05     Ds4   v060
	BYTE	W06
	BYTE		        Fs3   v056
	BYTE		N05     Ds4   v048
	BYTE	W06
	BYTE		        Fs3   v096
	BYTE		N05     Ds4   v084
	BYTE	W06
	BYTE		        Fs3   v072
	BYTE		N05     Ds4   v060
	BYTE	W06
	BYTE		        Fs3   v056
	BYTE		N05     Ds4   v048
	BYTE	W06
	BYTE		        Fs3   v040
	BYTE		N05     Ds4   v032
	BYTE	W06
	BYTE		        Fs3   v096
	BYTE		N05     Ds4   v084
	BYTE	W06
	BYTE		        Fs3   v072
	BYTE		N05     Ds4   v060
	BYTE	W06
	BYTE		        Fs3   v056
	BYTE		N05     Ds4   v048
	BYTE	W06
	BYTE		        Fs3   v096
	BYTE		N05     Ds4   v084
	BYTE	W06
	BYTE		        Fs3   v072
	BYTE		N05     Ds4   v060
	BYTE	W06
	BYTE		        Fs3   v056
	BYTE		N05     Ds4   v048
	BYTE	W06
	BYTE	PEND
// 045   ----------------------------------------
YUNO_OtherWorld_bpat_8_045:
	BYTE		N05     Fs3   v096
	BYTE		N05     Ds4   v084
	BYTE	W06
	BYTE		        Fs3   v072
	BYTE		N05     Ds4   v060
	BYTE	W06
	BYTE		        Fs3   v096
	BYTE		N05     Ds4   v084
	BYTE	W06
	BYTE		        Fs3   v092
	BYTE		N05     Ds4   v080
	BYTE	W06
	BYTE		        Fs3   v072
	BYTE		N05     Ds4   v060
	BYTE	W06
	BYTE		        Fs3   v056
	BYTE		N05     Ds4   v048
	BYTE	W06
	BYTE		        Fs3   v096
	BYTE		N05     Ds4   v084
	BYTE	W06
	BYTE		        Fs3   v076
	BYTE		N05     Ds4   v064
	BYTE	W06
	BYTE		        Fs3   v060
	BYTE		N05     Ds4   v052
	BYTE	W06
	BYTE		        Fs3   v056
	BYTE		N05     Ds4   v048
	BYTE	W06
	BYTE		        Fs3   v096
	BYTE		N05     Ds4   v084
	BYTE	W06
	BYTE		        Fs3   v076
	BYTE		N05     Ds4   v064
	BYTE	W06
	BYTE		        Fs3   v060
	BYTE		N05     Ds4   v052
	BYTE	W06
	BYTE		        Fs3   v056
	BYTE		N05     Ds4   v048
	BYTE	W06
	BYTE		        Fs3   v096
	BYTE		N05     Ds4   v084
	BYTE	W06
	BYTE		        Fs3   v072
	BYTE		N05     Ds4   v060
	BYTE	W06
	BYTE	PEND
// 046   ----------------------------------------
YUNO_OtherWorld_bpat_8_046:
	BYTE		N05     Fs3   v080
	BYTE		N05     Ds4   v084
	BYTE		N05     Fs4   v096
	BYTE	W06
	BYTE		        Fs3   v064
	BYTE		N05     Ds4   v060
	BYTE		N05     Fs4   v072
	BYTE	W06
	BYTE		        Fs3   v080
	BYTE		N05     Ds4   v084
	BYTE		N05     Fs4   v096
	BYTE	W06
	BYTE		        Fs3   v076
	BYTE		N05     Ds4   v080
	BYTE		N05     Fs4   v092
	BYTE	W06
	BYTE		        Fs3   v056
	BYTE		N05     Ds4   v060
	BYTE		N05     Fs4   v072
	BYTE	W06
	BYTE		        Fs3   v040
	BYTE		N05     Ds4   v048
	BYTE		N05     Fs4   v056
	BYTE	W06
	BYTE		        Fs3   v080
	BYTE		N05     Ds4   v084
	BYTE		N05     Fs4   v096
	BYTE	W06
	BYTE		        Fs3   v064
	BYTE		N05     Ds4   v060
	BYTE		N05     Fs4   v072
	BYTE	W06
	BYTE		        Fs3   v040
	BYTE		N05     Ds4   v048
	BYTE		N05     Fs4   v056
	BYTE	W06
	BYTE		        Fs3   v028
	BYTE		N05     Ds4   v032
	BYTE		N05     Fs4   v040
	BYTE	W06
	BYTE		        Fs3   v080
	BYTE		N05     Ds4   v084
	BYTE		N05     Fs4   v096
	BYTE	W06
	BYTE		        Fs3   v056
	BYTE		N05     Ds4   v060
	BYTE		N05     Fs4   v072
	BYTE	W06
	BYTE		        Fs3   v040
	BYTE		N05     Ds4   v048
	BYTE		N05     Fs4   v056
	BYTE	W06
	BYTE		        Fs3   v080
	BYTE		N05     Ds4   v084
	BYTE		N05     Fs4   v096
	BYTE	W06
	BYTE		        Fs3   v056
	BYTE		N05     Ds4   v060
	BYTE		N05     Fs4   v072
	BYTE	W06
	BYTE		        Fs3   v040
	BYTE		N05     Ds4   v048
	BYTE		N05     Fs4   v056
	BYTE	W06
	BYTE	PEND
// 047   ----------------------------------------
	BYTE	PATT
	 POIN2	YUNO_OtherWorld_bpat_8_046
// 048   ----------------------------------------
	BYTE	PATT
	 POIN2	YUNO_OtherWorld_bpat_8_002
// 049   ----------------------------------------
	BYTE	PATT
	 POIN2	YUNO_OtherWorld_bpat_8_001
// 050   ----------------------------------------
	BYTE	PATT
	 POIN2	YUNO_OtherWorld_bpat_8_002
// 051   ----------------------------------------
	BYTE	PATT
	 POIN2	YUNO_OtherWorld_bpat_8_001
// 052   ----------------------------------------
	BYTE	PATT
	 POIN2	YUNO_OtherWorld_bpat_8_002
// 053   ----------------------------------------
	BYTE	PATT
	 POIN2	YUNO_OtherWorld_bpat_8_001
// 054   ----------------------------------------
	BYTE	PATT
	 POIN2	YUNO_OtherWorld_bpat_8_002
// 055   ----------------------------------------
	BYTE	PATT
	 POIN2	YUNO_OtherWorld_bpat_8_001
// 056   ----------------------------------------
YUNO_OtherWorld_bpat_8_056:
	BYTE		VOICE   24
	BYTE		PAN     c_v+56
	BYTE		N06     Cn4   v096
	BYTE	W02
	BYTE	W01
	BYTE	W02
	BYTE	W02
	BYTE	W02
	BYTE	W01
	BYTE	W02
	BYTE		N05     Gn4 
	BYTE	W02
	BYTE	W02
	BYTE	W01
	BYTE	W01
	BYTE		        Cn4 
	BYTE	W01
	BYTE	W02
	BYTE	W02
	BYTE	W01
	BYTE		        Fn4 
	BYTE	W02
	BYTE	W02
	BYTE	W02
	BYTE		        Fn4   v060
	BYTE	W01
	BYTE	W02
	BYTE	W02
	BYTE	W01
	BYTE		        Gn4   v096
	BYTE	W02
	BYTE	W02
	BYTE	W02
	BYTE		        As4 
	BYTE	W01
	BYTE	W02
	BYTE	W02
	BYTE	W01
	BYTE		        Gn4   v060
	BYTE	W01
	BYTE	W01
	BYTE	W02
	BYTE	W02
	BYTE		        An4   v096
	BYTE	W02
	BYTE	W01
	BYTE	W02
	BYTE	W01
	BYTE		        As4   v060
	BYTE	W01
	BYTE	W02
	BYTE	W01
	BYTE	W02
	BYTE		        Fn4   v096
	BYTE	W02
	BYTE	W01
	BYTE	W02
	BYTE	W01
	BYTE		        Gn4 
	BYTE	W01
	BYTE	W02
	BYTE	W01
	BYTE	W02
	BYTE		        Cn4   v080
	BYTE	W02
	BYTE	W02
	BYTE	W01
	BYTE	W01
	BYTE		        Fn4 
	BYTE	W01
	BYTE	W02
	BYTE	W02
	BYTE	W01
	BYTE		        Gn4 
	BYTE	W02
	BYTE	W02
	BYTE	W01
	BYTE	W01
	BYTE	PEND
// 057   ----------------------------------------
	BYTE	PATT
	 POIN2	YUNO_OtherWorld_bpat_8_009
// 058   ----------------------------------------
	BYTE	PATT
	 POIN2	YUNO_OtherWorld_bpat_8_009
// 059   ----------------------------------------
	BYTE	PATT
	 POIN2	YUNO_OtherWorld_bpat_8_009
// 060   ----------------------------------------
	BYTE	PATT
	 POIN2	YUNO_OtherWorld_bpat_8_009
// 061   ----------------------------------------
	BYTE	PATT
	 POIN2	YUNO_OtherWorld_bpat_8_009
// 062   ----------------------------------------
	BYTE	PATT
	 POIN2	YUNO_OtherWorld_bpat_8_009
// 063   ----------------------------------------
	BYTE	PATT
	 POIN2	YUNO_OtherWorld_bpat_8_009
// 064   ----------------------------------------
	BYTE	PATT
	 POIN2	YUNO_OtherWorld_bpat_8_016
// 065   ----------------------------------------
	BYTE	PATT
	 POIN2	YUNO_OtherWorld_bpat_8_016
// 066   ----------------------------------------
	BYTE	PATT
	 POIN2	YUNO_OtherWorld_bpat_8_009
// 067   ----------------------------------------
	BYTE	PATT
	 POIN2	YUNO_OtherWorld_bpat_8_009
// 068   ----------------------------------------
	BYTE	PATT
	 POIN2	YUNO_OtherWorld_bpat_8_020
// 069   ----------------------------------------
	BYTE	PATT
	 POIN2	YUNO_OtherWorld_bpat_8_021
// 070   ----------------------------------------
	BYTE	PATT
	 POIN2	YUNO_OtherWorld_bpat_8_020
// 071   ----------------------------------------
	BYTE	PATT
	 POIN2	YUNO_OtherWorld_bpat_8_021
// 072   ----------------------------------------
	BYTE	PATT
	 POIN2	YUNO_OtherWorld_bpat_8_024
// 073   ----------------------------------------
	BYTE	PATT
	 POIN2	YUNO_OtherWorld_bpat_8_025
// 074   ----------------------------------------
	BYTE	PATT
	 POIN2	YUNO_OtherWorld_bpat_8_026
// 075   ----------------------------------------
	BYTE	PATT
	 POIN2	YUNO_OtherWorld_bpat_8_025
// 076   ----------------------------------------
	BYTE	PATT
	 POIN2	YUNO_OtherWorld_bpat_8_028
// 077   ----------------------------------------
	BYTE	PATT
	 POIN2	YUNO_OtherWorld_bpat_8_029
// 078   ----------------------------------------
	BYTE	PATT
	 POIN2	YUNO_OtherWorld_bpat_8_028
// 079   ----------------------------------------
	BYTE	PATT
	 POIN2	YUNO_OtherWorld_bpat_8_029
// 080   ----------------------------------------
	BYTE	PATT
	 POIN2	YUNO_OtherWorld_bpat_8_026
// 081   ----------------------------------------
	BYTE	PATT
	 POIN2	YUNO_OtherWorld_bpat_8_025
// 082   ----------------------------------------
	BYTE	PATT
	 POIN2	YUNO_OtherWorld_bpat_8_034
// 083   ----------------------------------------
	BYTE	PATT
	 POIN2	YUNO_OtherWorld_bpat_8_025
// 084   ----------------------------------------
	BYTE	PATT
	 POIN2	YUNO_OtherWorld_bpat_8_028
// 085   ----------------------------------------
	BYTE	PATT
	 POIN2	YUNO_OtherWorld_bpat_8_029
// 086   ----------------------------------------
	BYTE	PATT
	 POIN2	YUNO_OtherWorld_bpat_8_028
// 087   ----------------------------------------
	BYTE	PATT
	 POIN2	YUNO_OtherWorld_bpat_8_029
// 088   ----------------------------------------
	BYTE	PATT
	 POIN2	YUNO_OtherWorld_bpat_8_040
// 089   ----------------------------------------
	BYTE	PATT
	 POIN2	YUNO_OtherWorld_bpat_8_041
// 090   ----------------------------------------
	BYTE	PATT
	 POIN2	YUNO_OtherWorld_bpat_8_042
// 091   ----------------------------------------
	BYTE	PATT
	 POIN2	YUNO_OtherWorld_bpat_8_043
// 092   ----------------------------------------
	BYTE	PATT
	 POIN2	YUNO_OtherWorld_bpat_8_044
// 093   ----------------------------------------
	BYTE	PATT
	 POIN2	YUNO_OtherWorld_bpat_8_045
// 094   ----------------------------------------
	BYTE	PATT
	 POIN2	YUNO_OtherWorld_bpat_8_046
// 095   ----------------------------------------
	BYTE	PATT
	 POIN2	YUNO_OtherWorld_bpat_8_046
// 096   ----------------------------------------
	BYTE	PATT
	 POIN2	YUNO_OtherWorld_bpat_8_002
// 097   ----------------------------------------
	BYTE	PATT
	 POIN2	YUNO_OtherWorld_bpat_8_001
// 098   ----------------------------------------
	BYTE	PATT
	 POIN2	YUNO_OtherWorld_bpat_8_002
// 099   ----------------------------------------
	BYTE	PATT
	 POIN2	YUNO_OtherWorld_bpat_8_001
// 100   ----------------------------------------
	BYTE	PATT
	 POIN2	YUNO_OtherWorld_bpat_8_002
// 101   ----------------------------------------
	BYTE	PATT
	 POIN2	YUNO_OtherWorld_bpat_8_001
// 102   ----------------------------------------
	BYTE	PATT
	 POIN2	YUNO_OtherWorld_bpat_8_002
// 103   ----------------------------------------
	BYTE	PATT
	 POIN2	YUNO_OtherWorld_bpat_8_001
// 104   ----------------------------------------
	BYTE	PATT
	 POIN2	YUNO_OtherWorld_bpat_8_056
// 105   ----------------------------------------
	BYTE	PATT
	 POIN2	YUNO_OtherWorld_bpat_8_009
// 106   ----------------------------------------
	BYTE	PATT
	 POIN2	YUNO_OtherWorld_bpat_8_009
// 107   ----------------------------------------
	BYTE	PATT
	 POIN2	YUNO_OtherWorld_bpat_8_009
// 108   ----------------------------------------
	BYTE	PATT
	 POIN2	YUNO_OtherWorld_bpat_8_009
// 109   ----------------------------------------
	BYTE	W23
	BYTE	GoTo
	 POIN2	YUNO_OtherWorld_bpat_8_B1
YUNO_OtherWorld_bpat_8_B2:
	BYTE	FINE

//**************** Track 9 (Midi-Chn.9) ****************//

YUNO_OtherWorld_bpat_9:
	BYTE	KEYSH   YUNO_OtherWorld_bpat_key+0
YUNO_OtherWorld_bpat_9_B1:
// 000   ----------------------------------------
	BYTE		VOICE   58
	BYTE		PAN     c_v-12
	BYTE		VOL     127*YUNO_OtherWorld_bpat_mvl/mxv
	BYTE		MOD     35
	BYTE		TIE     Cn1   v127
	BYTE	W96
// 001   ----------------------------------------
	BYTE	W96
// 002   ----------------------------------------
	BYTE	W96
// 003   ----------------------------------------
	BYTE	W92
	BYTE	W03
	BYTE		EOT   
	BYTE	W01
// 004   ----------------------------------------
	BYTE		TIE     Cn0 
	BYTE	W96
// 005   ----------------------------------------
	BYTE	W96
// 006   ----------------------------------------
	BYTE	W96
// 007   ----------------------------------------
	BYTE	W92
	BYTE	W03
	BYTE		EOT   
	BYTE	W01
// 008   ----------------------------------------
YUNO_OtherWorld_bpat_9_008:
	BYTE		VOICE   60
	BYTE		PAN     c_v+0
	BYTE		VOL     118*YUNO_OtherWorld_bpat_mvl/mxv
	BYTE		TIE     Cn1   v127
	BYTE	W96
	BYTE	PEND
// 009   ----------------------------------------
	BYTE	W96
// 010   ----------------------------------------
	BYTE	W96
// 011   ----------------------------------------
	BYTE	W92
	BYTE	W03
	BYTE		EOT   
	BYTE	W01
// 012   ----------------------------------------
	BYTE		TIE   
	BYTE	W96
// 013   ----------------------------------------
	BYTE	W96
// 014   ----------------------------------------
	BYTE	W96
// 015   ----------------------------------------
	BYTE	W96
// 016   ----------------------------------------
	BYTE	W96
// 017   ----------------------------------------
	BYTE	W96
// 018   ----------------------------------------
	BYTE	W96
// 019   ----------------------------------------
	BYTE	W96
	BYTE		EOT   
// 020   ----------------------------------------
	BYTE		TIE     Bn0 
	BYTE	W96
// 021   ----------------------------------------
	BYTE	W96
// 022   ----------------------------------------
	BYTE	W96
// 023   ----------------------------------------
	BYTE	W92
	BYTE	W03
	BYTE		EOT   
	BYTE	W01
// 024   ----------------------------------------
	BYTE	W96
// 025   ----------------------------------------
	BYTE	W96
// 026   ----------------------------------------
	BYTE	W96
// 027   ----------------------------------------
	BYTE	W96
// 028   ----------------------------------------
	BYTE	W96
// 029   ----------------------------------------
	BYTE	W96
// 030   ----------------------------------------
	BYTE	W96
// 031   ----------------------------------------
	BYTE	W96
// 032   ----------------------------------------
	BYTE	W96
// 033   ----------------------------------------
	BYTE	W96
// 034   ----------------------------------------
	BYTE	W96
// 035   ----------------------------------------
	BYTE	W96
// 036   ----------------------------------------
	BYTE	W96
// 037   ----------------------------------------
	BYTE	W96
// 038   ----------------------------------------
	BYTE	W96
// 039   ----------------------------------------
	BYTE	W96
// 040   ----------------------------------------
	BYTE	W96
// 041   ----------------------------------------
	BYTE	W96
// 042   ----------------------------------------
	BYTE	W96
// 043   ----------------------------------------
	BYTE	W96
// 044   ----------------------------------------
	BYTE	W96
// 045   ----------------------------------------
	BYTE	W96
// 046   ----------------------------------------
	BYTE	W96
// 047   ----------------------------------------
YUNO_OtherWorld_bpat_9_047:
	BYTE	W05
	BYTE	W04
	BYTE		VOICE   58
	BYTE	W22
	BYTE		VOL     127*YUNO_OtherWorld_bpat_mvl/mxv
	BYTE	W11
	BYTE	W10
	BYTE		PAN     c_v-12
	BYTE	W44
	BYTE	PEND
// 048   ----------------------------------------
	BYTE		TIE     Cn1   v127
	BYTE	W96
// 049   ----------------------------------------
	BYTE	W96
// 050   ----------------------------------------
	BYTE	W96
// 051   ----------------------------------------
	BYTE	W92
	BYTE	W03
	BYTE		EOT   
	BYTE	W01
// 052   ----------------------------------------
	BYTE		TIE     Cn0 
	BYTE	W96
// 053   ----------------------------------------
	BYTE	W96
// 054   ----------------------------------------
	BYTE	W96
// 055   ----------------------------------------
	BYTE	W92
	BYTE	W03
	BYTE		EOT   
	BYTE	W01
// 056   ----------------------------------------
	BYTE	PATT
	 POIN2	YUNO_OtherWorld_bpat_9_008
// 057   ----------------------------------------
	BYTE	W96
// 058   ----------------------------------------
	BYTE	W96
// 059   ----------------------------------------
	BYTE	W92
	BYTE	W03
	BYTE		EOT     Cn1 
	BYTE	W01
// 060   ----------------------------------------
	BYTE		TIE     Cn1   v127
	BYTE	W96
// 061   ----------------------------------------
	BYTE	W96
// 062   ----------------------------------------
	BYTE	W96
// 063   ----------------------------------------
	BYTE	W96
// 064   ----------------------------------------
	BYTE	W96
// 065   ----------------------------------------
	BYTE	W96
// 066   ----------------------------------------
	BYTE	W96
// 067   ----------------------------------------
	BYTE	W96
	BYTE		EOT   
// 068   ----------------------------------------
	BYTE		TIE     Bn0 
	BYTE	W96
// 069   ----------------------------------------
	BYTE	W96
// 070   ----------------------------------------
	BYTE	W96
// 071   ----------------------------------------
	BYTE	W92
	BYTE	W03
	BYTE		EOT   
	BYTE	W01
// 072   ----------------------------------------
	BYTE	W96
// 073   ----------------------------------------
	BYTE	W96
// 074   ----------------------------------------
	BYTE	W96
// 075   ----------------------------------------
	BYTE	W96
// 076   ----------------------------------------
	BYTE	W96
// 077   ----------------------------------------
	BYTE	W96
// 078   ----------------------------------------
	BYTE	W96
// 079   ----------------------------------------
	BYTE	W96
// 080   ----------------------------------------
	BYTE	W96
// 081   ----------------------------------------
	BYTE	W96
// 082   ----------------------------------------
	BYTE	W96
// 083   ----------------------------------------
	BYTE	W96
// 084   ----------------------------------------
	BYTE	W96
// 085   ----------------------------------------
	BYTE	W96
// 086   ----------------------------------------
	BYTE	W96
// 087   ----------------------------------------
	BYTE	W96
// 088   ----------------------------------------
	BYTE	W96
// 089   ----------------------------------------
	BYTE	W96
// 090   ----------------------------------------
	BYTE	W96
// 091   ----------------------------------------
	BYTE	W96
// 092   ----------------------------------------
	BYTE	W96
// 093   ----------------------------------------
	BYTE	W96
// 094   ----------------------------------------
	BYTE	W96
// 095   ----------------------------------------
	BYTE	PATT
	 POIN2	YUNO_OtherWorld_bpat_9_047
// 096   ----------------------------------------
	BYTE		TIE     Cn1   v127
	BYTE	W96
// 097   ----------------------------------------
	BYTE	W96
// 098   ----------------------------------------
	BYTE	W96
// 099   ----------------------------------------
	BYTE	W92
	BYTE	W03
	BYTE		EOT   
	BYTE	W01
// 100   ----------------------------------------
	BYTE		TIE     Cn0 
	BYTE	W96
// 101   ----------------------------------------
	BYTE	W96
// 102   ----------------------------------------
	BYTE	W96
// 103   ----------------------------------------
	BYTE	W92
	BYTE	W03
	BYTE		EOT   
	BYTE	W01
// 104   ----------------------------------------
	BYTE	PATT
	 POIN2	YUNO_OtherWorld_bpat_9_008
// 105   ----------------------------------------
	BYTE	W96
// 106   ----------------------------------------
	BYTE	W96
// 107   ----------------------------------------
	BYTE	W92
	BYTE	W03
	BYTE		EOT     Cn1 
	BYTE	W01
// 108   ----------------------------------------
	BYTE	W96
// 109   ----------------------------------------
	BYTE	W23
	BYTE	GoTo
	 POIN2	YUNO_OtherWorld_bpat_9_B1
YUNO_OtherWorld_bpat_9_B2:
	BYTE	FINE

//**************** Track 10 (Midi-Chn.11) ****************//

YUNO_OtherWorld_bpat_10:
	BYTE	KEYSH   YUNO_OtherWorld_bpat_key+0
YUNO_OtherWorld_bpat_10_B1:
// 000   ----------------------------------------
	BYTE		VOICE   24
	BYTE		PAN     c_v+16
	BYTE		VOL     120*YUNO_OtherWorld_bpat_mvl/mxv
	BYTE		MOD     0
	BYTE	W96
// 001   ----------------------------------------
	BYTE	W96
// 002   ----------------------------------------
	BYTE	W96
// 003   ----------------------------------------
YUNO_OtherWorld_bpat_10_003:
	BYTE	W72
	BYTE		N01     An1   v108
	BYTE	W06
	BYTE		N01   
	BYTE	W06
	BYTE		        Fn1 
	BYTE	W12
	BYTE	PEND
// 004   ----------------------------------------
	BYTE	W96
// 005   ----------------------------------------
	BYTE	W96
// 006   ----------------------------------------
	BYTE	W96
// 007   ----------------------------------------
YUNO_OtherWorld_bpat_10_007:
	BYTE	W72
	BYTE		N01     Cn2   v108
	BYTE	W04
	BYTE		N01   
	BYTE	W04
	BYTE		        An1 
	BYTE	W04
	BYTE		N01   
	BYTE	W04
	BYTE		        Fn1 
	BYTE	W04
	BYTE		N01   
	BYTE	W04
	BYTE	PEND
// 008   ----------------------------------------
	BYTE	W96
// 009   ----------------------------------------
	BYTE	W96
// 010   ----------------------------------------
	BYTE	W96
// 011   ----------------------------------------
	BYTE	PATT
	 POIN2	YUNO_OtherWorld_bpat_10_003
// 012   ----------------------------------------
	BYTE	W96
// 013   ----------------------------------------
	BYTE	W96
// 014   ----------------------------------------
	BYTE	W96
// 015   ----------------------------------------
YUNO_OtherWorld_bpat_10_015:
	BYTE	W72
	BYTE		N01     An1   v108
	BYTE	W06
	BYTE		N01   
	BYTE	W12
	BYTE		        Fn1 
	BYTE	W06
	BYTE	PEND
// 016   ----------------------------------------
	BYTE	W96
// 017   ----------------------------------------
	BYTE	W96
// 018   ----------------------------------------
	BYTE	W96
// 019   ----------------------------------------
YUNO_OtherWorld_bpat_10_019:
	BYTE	W72
	BYTE		N01     An1   v120
	BYTE	W06
	BYTE		N01   
	BYTE	W12
	BYTE		N01   
	BYTE	W06
	BYTE	PEND
// 020   ----------------------------------------
	BYTE	W96
// 021   ----------------------------------------
	BYTE	W96
// 022   ----------------------------------------
	BYTE	W96
// 023   ----------------------------------------
YUNO_OtherWorld_bpat_10_023:
	BYTE	W06
	BYTE		PAN     c_v-64
	BYTE	W06
	BYTE		N01     Cn2   v120
	BYTE	W12
	BYTE		PAN     c_v+63
	BYTE	W06
	BYTE		N01     An1 
	BYTE	W12
	BYTE		PAN     c_v+0
	BYTE	W18
	BYTE		N01     Cn2 
	BYTE	W06
	BYTE		N01   
	BYTE	W06
	BYTE		        An1 
	BYTE	W06
	BYTE		N01   
	BYTE	W06
	BYTE		        Fn1 
	BYTE	W06
	BYTE		N01   
	BYTE	W06
	BYTE	PEND
// 024   ----------------------------------------
	BYTE	W96
// 025   ----------------------------------------
	BYTE	W96
// 026   ----------------------------------------
	BYTE	W96
// 027   ----------------------------------------
	BYTE	W96
// 028   ----------------------------------------
	BYTE	W96
// 029   ----------------------------------------
	BYTE	W96
// 030   ----------------------------------------
	BYTE	W96
// 031   ----------------------------------------
	BYTE	W96
// 032   ----------------------------------------
	BYTE	W96
// 033   ----------------------------------------
	BYTE	W96
// 034   ----------------------------------------
	BYTE	W96
// 035   ----------------------------------------
	BYTE	W96
// 036   ----------------------------------------
	BYTE	W96
// 037   ----------------------------------------
	BYTE	W96
// 038   ----------------------------------------
	BYTE	W96
// 039   ----------------------------------------
	BYTE	W96
// 040   ----------------------------------------
	BYTE	W96
// 041   ----------------------------------------
	BYTE	W96
// 042   ----------------------------------------
	BYTE	W96
// 043   ----------------------------------------
	BYTE	W96
// 044   ----------------------------------------
	BYTE	W96
// 045   ----------------------------------------
	BYTE	W96
// 046   ----------------------------------------
	BYTE	W96
// 047   ----------------------------------------
YUNO_OtherWorld_bpat_10_047:
	BYTE	W09
	BYTE		VOICE   24
	BYTE	W42
	BYTE	W01
	BYTE		PAN     c_v+16
	BYTE	W44
	BYTE	PEND
// 048   ----------------------------------------
	BYTE	W96
// 049   ----------------------------------------
	BYTE	W96
// 050   ----------------------------------------
	BYTE	W96
// 051   ----------------------------------------
	BYTE	PATT
	 POIN2	YUNO_OtherWorld_bpat_10_003
// 052   ----------------------------------------
	BYTE	W96
// 053   ----------------------------------------
	BYTE	W96
// 054   ----------------------------------------
	BYTE	W96
// 055   ----------------------------------------
	BYTE	PATT
	 POIN2	YUNO_OtherWorld_bpat_10_007
// 056   ----------------------------------------
	BYTE	W96
// 057   ----------------------------------------
	BYTE	W96
// 058   ----------------------------------------
	BYTE	W96
// 059   ----------------------------------------
	BYTE	PATT
	 POIN2	YUNO_OtherWorld_bpat_10_003
// 060   ----------------------------------------
	BYTE	W96
// 061   ----------------------------------------
	BYTE	W96
// 062   ----------------------------------------
	BYTE	W96
// 063   ----------------------------------------
	BYTE	PATT
	 POIN2	YUNO_OtherWorld_bpat_10_015
// 064   ----------------------------------------
	BYTE	W96
// 065   ----------------------------------------
	BYTE	W96
// 066   ----------------------------------------
	BYTE	W96
// 067   ----------------------------------------
	BYTE	PATT
	 POIN2	YUNO_OtherWorld_bpat_10_019
// 068   ----------------------------------------
	BYTE	W96
// 069   ----------------------------------------
	BYTE	W96
// 070   ----------------------------------------
	BYTE	W96
// 071   ----------------------------------------
	BYTE	PATT
	 POIN2	YUNO_OtherWorld_bpat_10_023
// 072   ----------------------------------------
	BYTE	W96
// 073   ----------------------------------------
	BYTE	W96
// 074   ----------------------------------------
	BYTE	W96
// 075   ----------------------------------------
	BYTE	W96
// 076   ----------------------------------------
	BYTE	W96
// 077   ----------------------------------------
	BYTE	W96
// 078   ----------------------------------------
	BYTE	W96
// 079   ----------------------------------------
	BYTE	W96
// 080   ----------------------------------------
	BYTE	W96
// 081   ----------------------------------------
	BYTE	W96
// 082   ----------------------------------------
	BYTE	W96
// 083   ----------------------------------------
	BYTE	W96
// 084   ----------------------------------------
	BYTE	W96
// 085   ----------------------------------------
	BYTE	W96
// 086   ----------------------------------------
	BYTE	W96
// 087   ----------------------------------------
	BYTE	W96
// 088   ----------------------------------------
	BYTE	W96
// 089   ----------------------------------------
	BYTE	W96
// 090   ----------------------------------------
	BYTE	W96
// 091   ----------------------------------------
	BYTE	W96
// 092   ----------------------------------------
	BYTE	W96
// 093   ----------------------------------------
	BYTE	W96
// 094   ----------------------------------------
	BYTE	W96
// 095   ----------------------------------------
	BYTE	PATT
	 POIN2	YUNO_OtherWorld_bpat_10_047
// 096   ----------------------------------------
	BYTE	W96
// 097   ----------------------------------------
	BYTE	W96
// 098   ----------------------------------------
	BYTE	W96
// 099   ----------------------------------------
	BYTE	PATT
	 POIN2	YUNO_OtherWorld_bpat_10_003
// 100   ----------------------------------------
	BYTE	W96
// 101   ----------------------------------------
	BYTE	W96
// 102   ----------------------------------------
	BYTE	W96
// 103   ----------------------------------------
	BYTE	PATT
	 POIN2	YUNO_OtherWorld_bpat_10_007
// 104   ----------------------------------------
	BYTE	W96
// 105   ----------------------------------------
	BYTE	W96
// 106   ----------------------------------------
	BYTE	W96
// 107   ----------------------------------------
	BYTE	PATT
	 POIN2	YUNO_OtherWorld_bpat_10_003
// 108   ----------------------------------------
	BYTE	W96
// 109   ----------------------------------------
	BYTE	W23
	BYTE	GoTo
	 POIN2	YUNO_OtherWorld_bpat_10_B1
YUNO_OtherWorld_bpat_10_B2:
	BYTE	FINE

//**************** Track 11 (Midi-Chn.12) ****************//

YUNO_OtherWorld_bpat_11:
	BYTE	KEYSH   YUNO_OtherWorld_bpat_key+0
YUNO_OtherWorld_bpat_11_B1:
// 000   ----------------------------------------
	BYTE		VOICE   91
	BYTE		PAN     c_v+0
	BYTE		VOL     110*YUNO_OtherWorld_bpat_mvl/mxv
	BYTE		MOD     0
	BYTE		TIE     Cn3   v127
	BYTE	W96
// 001   ----------------------------------------
	BYTE	W96
// 002   ----------------------------------------
	BYTE	W96
// 003   ----------------------------------------
	BYTE	W92
	BYTE	W03
	BYTE		EOT   
	BYTE	W01
// 004   ----------------------------------------
YUNO_OtherWorld_bpat_11_004:
	BYTE		TIE     Cn2   v127
	BYTE		TIE     Ds3   v100
	BYTE	W96
	BYTE	PEND
// 005   ----------------------------------------
	BYTE	W96
// 006   ----------------------------------------
	BYTE	W96
// 007   ----------------------------------------
	BYTE	W92
	BYTE	W03
	BYTE		EOT     Cn2 
	BYTE	W01
// 008   ----------------------------------------
YUNO_OtherWorld_bpat_11_008:
	BYTE		VOICE   49
	BYTE		MOD     24
	BYTE		PAN     c_v-8
	BYTE		TIE     Cn3   v120
	BYTE	W01
	BYTE	W01
	BYTE	W02
	BYTE	W01
	BYTE	W01
	BYTE	W01
	BYTE	W01
	BYTE	W02
	BYTE	W01
	BYTE	W01
	BYTE	W01
	BYTE	W01
	BYTE	W02
	BYTE	W01
	BYTE	W01
	BYTE	W01
	BYTE	W01
	BYTE	W01
	BYTE	W02
	BYTE	W01
	BYTE	W01
	BYTE	W01
	BYTE	W01
	BYTE	W02
	BYTE	W01
	BYTE	W01
	BYTE	W01
	BYTE	W01
	BYTE	W02
	BYTE	W01
	BYTE	W01
	BYTE	W01
	BYTE	W01
	BYTE	W02
	BYTE	W01
	BYTE	W01
	BYTE	W01
	BYTE	W01
	BYTE	W02
	BYTE	W01
	BYTE	W01
	BYTE	W01
	BYTE	W01
	BYTE	W02
	BYTE	W01
	BYTE	W01
	BYTE	W01
	BYTE	W01
	BYTE	W01
	BYTE	W02
	BYTE	W01
	BYTE	W01
	BYTE	W01
	BYTE	W01
	BYTE	W02
	BYTE	W01
	BYTE	W01
	BYTE	W01
	BYTE	W01
	BYTE	W02
	BYTE	W01
	BYTE	W01
	BYTE	W01
	BYTE	W01
	BYTE	W02
	BYTE	W01
	BYTE	W01
	BYTE	W01
	BYTE	W01
	BYTE	W02
	BYTE	W01
	BYTE	W01
	BYTE	W01
	BYTE	W01
	BYTE	W02
	BYTE	W01
	BYTE	W01
	BYTE	W01
	BYTE	W01
	BYTE	W01
	BYTE	W01
	BYTE	PEND
// 009   ----------------------------------------
YUNO_OtherWorld_bpat_11_009:
	BYTE	W48
	BYTE	W02
	BYTE	W03
	BYTE	W02
	BYTE	W02
	BYTE	W03
	BYTE	W02
	BYTE	W03
	BYTE	W02
	BYTE	W02
	BYTE	W03
	BYTE	W02
	BYTE	W02
	BYTE	W03
	BYTE	W02
	BYTE	W03
	BYTE	W02
	BYTE	W02
	BYTE	W03
	BYTE	W02
	BYTE	W02
	BYTE	W01
	BYTE	PEND
	BYTE		EOT     Cn3 
	BYTE		        Ds3 
// 010   ----------------------------------------
YUNO_OtherWorld_bpat_11_010:
	BYTE		TIE     Dn3   v120
	BYTE		TIE     Fn3 
	BYTE	W56
	BYTE	W20
	BYTE	W13
	BYTE	W07
	BYTE	PEND
// 011   ----------------------------------------
YUNO_OtherWorld_bpat_11_011:
	BYTE	W04
	BYTE	W07
	BYTE	W06
	BYTE	W05
	BYTE	W05
	BYTE	W04
	BYTE	W03
	BYTE	W03
	BYTE	W04
	BYTE	W02
	BYTE	W03
	BYTE	W02
	BYTE	W03
	BYTE	W02
	BYTE	W01
	BYTE	W03
	BYTE	W01
	BYTE	W02
	BYTE	W01
	BYTE	W02
	BYTE	W01
	BYTE	W02
	BYTE	W01
	BYTE	W02
	BYTE	W01
	BYTE	W01
	BYTE	W01
	BYTE	W01
	BYTE	W02
	BYTE	W02
	BYTE	W01
	BYTE	W01
	BYTE	W02
	BYTE	W01
	BYTE	W01
	BYTE	W01
	BYTE	W01
	BYTE	W01
	BYTE	W01
	BYTE	W01
	BYTE	W01
	BYTE	W01
	BYTE	W01
	BYTE	W01
	BYTE	W01
	BYTE	W01
	BYTE	W01
	BYTE	W01
	BYTE	PEND
	BYTE		EOT     Dn3 
	BYTE		        Fn3 
// 012   ----------------------------------------
YUNO_OtherWorld_bpat_11_012:
	BYTE		TIE     Ds3   v120
	BYTE		TIE     Gn3 
	BYTE	W01
	BYTE	W01
	BYTE	W02
	BYTE	W01
	BYTE	W01
	BYTE	W01
	BYTE	W01
	BYTE	W02
	BYTE	W01
	BYTE	W01
	BYTE	W01
	BYTE	W01
	BYTE	W02
	BYTE	W01
	BYTE	W01
	BYTE	W01
	BYTE	W01
	BYTE	W01
	BYTE	W02
	BYTE	W01
	BYTE	W01
	BYTE	W01
	BYTE	W01
	BYTE	W02
	BYTE	W01
	BYTE	W01
	BYTE	W01
	BYTE	W01
	BYTE	W02
	BYTE	W01
	BYTE	W01
	BYTE	W01
	BYTE	W01
	BYTE	W02
	BYTE	W01
	BYTE	W01
	BYTE	W01
	BYTE	W01
	BYTE	W02
	BYTE	W01
	BYTE	W01
	BYTE	W01
	BYTE	W01
	BYTE	W02
	BYTE	W01
	BYTE	W01
	BYTE	W01
	BYTE	W01
	BYTE	W01
	BYTE	W02
	BYTE	W01
	BYTE	W01
	BYTE	W01
	BYTE	W01
	BYTE	W02
	BYTE	W01
	BYTE	W01
	BYTE	W01
	BYTE	W01
	BYTE	W02
	BYTE	W01
	BYTE	W01
	BYTE	W01
	BYTE	W01
	BYTE	W02
	BYTE	W01
	BYTE	W01
	BYTE	W01
	BYTE	W01
	BYTE	W02
	BYTE	W01
	BYTE	W01
	BYTE	W01
	BYTE	W01
	BYTE	W02
	BYTE	W01
	BYTE	W01
	BYTE	W01
	BYTE	W01
	BYTE	W01
	BYTE	W01
	BYTE	PEND
// 013   ----------------------------------------
	BYTE	PATT
	 POIN2	YUNO_OtherWorld_bpat_11_009
	BYTE		EOT     Ds3 
	BYTE		        Gn3 
// 014   ----------------------------------------
	BYTE	PATT
	 POIN2	YUNO_OtherWorld_bpat_11_010
// 015   ----------------------------------------
	BYTE	PATT
	 POIN2	YUNO_OtherWorld_bpat_11_011
	BYTE		EOT     Dn3 
// 016   ----------------------------------------
YUNO_OtherWorld_bpat_11_016:
	BYTE		TIE     Cs3   v120
	BYTE	W01
	BYTE	W01
	BYTE	W01
	BYTE	W01
	BYTE	W01
	BYTE	W01
	BYTE		VOL     111*YUNO_OtherWorld_bpat_mvl/mxv
	BYTE	W01
	BYTE	W01
	BYTE	W01
	BYTE	W01
	BYTE	W01
	BYTE		        112*YUNO_OtherWorld_bpat_mvl/mxv
	BYTE	W01
	BYTE	W01
	BYTE	W01
	BYTE	W01
	BYTE	W01
	BYTE	W01
	BYTE		        113*YUNO_OtherWorld_bpat_mvl/mxv
	BYTE	W01
	BYTE	W01
	BYTE	W01
	BYTE	W01
	BYTE	W01
	BYTE		        114*YUNO_OtherWorld_bpat_mvl/mxv
	BYTE	W01
	BYTE	W01
	BYTE	W01
	BYTE	W01
	BYTE	W01
	BYTE	W01
	BYTE		        115*YUNO_OtherWorld_bpat_mvl/mxv
	BYTE	W01
	BYTE	W01
	BYTE	W01
	BYTE	W01
	BYTE	W01
	BYTE	W01
	BYTE		        116*YUNO_OtherWorld_bpat_mvl/mxv
	BYTE	W01
	BYTE	W01
	BYTE	W01
	BYTE	W01
	BYTE	W01
	BYTE		        117*YUNO_OtherWorld_bpat_mvl/mxv
	BYTE	W01
	BYTE	W01
	BYTE	W01
	BYTE	W01
	BYTE	W01
	BYTE	W01
	BYTE		        118*YUNO_OtherWorld_bpat_mvl/mxv
	BYTE	W01
	BYTE	W01
	BYTE	W01
	BYTE	W01
	BYTE	W01
	BYTE	W01
	BYTE		        119*YUNO_OtherWorld_bpat_mvl/mxv
	BYTE	W01
	BYTE	W01
	BYTE	W01
	BYTE	W01
	BYTE	W01
	BYTE		        120*YUNO_OtherWorld_bpat_mvl/mxv
	BYTE	W01
	BYTE	W01
	BYTE	W01
	BYTE	W01
	BYTE	W01
	BYTE	W01
	BYTE		        121*YUNO_OtherWorld_bpat_mvl/mxv
	BYTE	W01
	BYTE	W01
	BYTE	W01
	BYTE	W01
	BYTE	W01
	BYTE		        122*YUNO_OtherWorld_bpat_mvl/mxv
	BYTE	W01
	BYTE	W01
	BYTE	W01
	BYTE	W01
	BYTE	W01
	BYTE	W01
	BYTE		        123*YUNO_OtherWorld_bpat_mvl/mxv
	BYTE	W01
	BYTE	W01
	BYTE	W01
	BYTE	W01
	BYTE	W01
	BYTE	W01
	BYTE		        124*YUNO_OtherWorld_bpat_mvl/mxv
	BYTE	W01
	BYTE	W01
	BYTE	W01
	BYTE	W01
	BYTE	W01
	BYTE		        125*YUNO_OtherWorld_bpat_mvl/mxv
	BYTE	W01
	BYTE	W01
	BYTE	W01
	BYTE	W01
	BYTE	W01
	BYTE	W01
	BYTE		        126*YUNO_OtherWorld_bpat_mvl/mxv
	BYTE	W01
	BYTE	W01
	BYTE	W01
	BYTE	W01
	BYTE	W01
	BYTE		        127*YUNO_OtherWorld_bpat_mvl/mxv
	BYTE	W01
	BYTE	PEND
// 017   ----------------------------------------
YUNO_OtherWorld_bpat_11_017:
	BYTE	W48
	BYTE	W01
	BYTE	W01
	BYTE	W02
	BYTE	W01
	BYTE	W01
	BYTE	W01
	BYTE	W01
	BYTE	W01
	BYTE	W02
	BYTE	W01
	BYTE	W01
	BYTE	W01
	BYTE	W01
	BYTE	W02
	BYTE	W01
	BYTE	W01
	BYTE	W01
	BYTE	W01
	BYTE	W02
	BYTE	W01
	BYTE	W01
	BYTE	W01
	BYTE	W01
	BYTE	W01
	BYTE	W02
	BYTE	W01
	BYTE	W01
	BYTE	W01
	BYTE	W01
	BYTE	W02
	BYTE	W01
	BYTE	W01
	BYTE	W01
	BYTE	W01
	BYTE	W02
	BYTE	W01
	BYTE	W01
	BYTE	W01
	BYTE	W01
	BYTE	W01
	BYTE	W01
	BYTE	PEND
	BYTE		EOT     Cs3 
	BYTE		        Fn3 
// 018   ----------------------------------------
YUNO_OtherWorld_bpat_11_018:
	BYTE		TIE     Cn3   v120
	BYTE		TIE     Ds3 
	BYTE	W56
	BYTE	W20
	BYTE	W13
	BYTE	W07
	BYTE	PEND
// 019   ----------------------------------------
	BYTE	PATT
	 POIN2	YUNO_OtherWorld_bpat_11_011
	BYTE		EOT     Cn3 
// 020   ----------------------------------------
YUNO_OtherWorld_bpat_11_020:
	BYTE		TIE     Bn2   v120
	BYTE	W01
	BYTE	W01
	BYTE	W01
	BYTE	W01
	BYTE	W01
	BYTE	W01
	BYTE	W01
	BYTE	W01
	BYTE	W01
	BYTE	W01
	BYTE	W01
	BYTE	W01
	BYTE	W01
	BYTE	W01
	BYTE	W01
	BYTE	W01
	BYTE	W01
	BYTE	W01
	BYTE	W01
	BYTE	W01
	BYTE	W01
	BYTE	W01
	BYTE	W01
	BYTE	W01
	BYTE	W01
	BYTE	W01
	BYTE	W01
	BYTE	W01
	BYTE	W01
	BYTE	W01
	BYTE	W01
	BYTE	W01
	BYTE	W01
	BYTE	W01
	BYTE	W01
	BYTE	W01
	BYTE	W01
	BYTE	W01
	BYTE	W01
	BYTE	W01
	BYTE	W01
	BYTE	W01
	BYTE	W01
	BYTE	W01
	BYTE	W01
	BYTE	W01
	BYTE	W01
	BYTE	W01
	BYTE	W01
	BYTE	W01
	BYTE	W01
	BYTE	W01
	BYTE	W01
	BYTE	W01
	BYTE	W01
	BYTE	W01
	BYTE	W01
	BYTE	W01
	BYTE	W01
	BYTE	W01
	BYTE	W01
	BYTE	W01
	BYTE	W01
	BYTE	W01
	BYTE	W01
	BYTE	W01
	BYTE	W01
	BYTE	W01
	BYTE	W01
	BYTE	W01
	BYTE	W01
	BYTE	W01
	BYTE	W01
	BYTE	W01
	BYTE	W01
	BYTE	W01
	BYTE	W01
	BYTE	W01
	BYTE	W01
	BYTE	W01
	BYTE	W01
	BYTE	W01
	BYTE	W01
	BYTE	W01
	BYTE	W01
	BYTE	W01
	BYTE	W01
	BYTE	W01
	BYTE	W01
	BYTE	W01
	BYTE	W01
	BYTE	W01
	BYTE	W01
	BYTE	W01
	BYTE	W01
	BYTE	W01
	BYTE	PEND
// 021   ----------------------------------------
	BYTE	PATT
	 POIN2	YUNO_OtherWorld_bpat_11_017
// 022   ----------------------------------------
YUNO_OtherWorld_bpat_11_022:
	BYTE	W56
	BYTE	W20
	BYTE	W13
	BYTE	W07
	BYTE	PEND
// 023   ----------------------------------------
YUNO_OtherWorld_bpat_11_023:
	BYTE	W01
	BYTE	W01
	BYTE	W01
	BYTE	W01
	BYTE	W01
	BYTE	W01
	BYTE	W01
	BYTE	W01
	BYTE	W01
	BYTE	W01
	BYTE	W01
	BYTE	W01
	BYTE	W01
	BYTE	W01
	BYTE	W01
	BYTE	W01
	BYTE	W01
	BYTE	W01
	BYTE	W01
	BYTE	W02
	BYTE	W01
	BYTE	W01
	BYTE	W01
	BYTE	W02
	BYTE	W01
	BYTE	W02
	BYTE	W02
	BYTE	W03
	BYTE	W02
	BYTE	W03
	BYTE	W04
	BYTE	W05
	BYTE	W06
	BYTE	W11
	BYTE	W30
	BYTE	W01
	BYTE	PEND
	BYTE		EOT     Bn2 
	BYTE		        Ds3 
// 024   ----------------------------------------
YUNO_OtherWorld_bpat_11_024:
	BYTE		PAN     c_v-37
	BYTE		MOD     45
	BYTE		TIE     Cn4   v120
	BYTE		TIE     Ds4 
	BYTE		TIE     Gn4 
	BYTE	W01
	BYTE	W01
	BYTE	W02
	BYTE	W01
	BYTE	W01
	BYTE	W01
	BYTE	W01
	BYTE	W02
	BYTE	W01
	BYTE	W01
	BYTE	W01
	BYTE	W01
	BYTE	W02
	BYTE	W01
	BYTE	W01
	BYTE	W01
	BYTE	W01
	BYTE	W01
	BYTE	W02
	BYTE	W01
	BYTE	W01
	BYTE	W01
	BYTE	W01
	BYTE	W02
	BYTE	W01
	BYTE	W01
	BYTE	W01
	BYTE	W01
	BYTE	W02
	BYTE	W01
	BYTE	W01
	BYTE	W01
	BYTE	W01
	BYTE	W02
	BYTE	W01
	BYTE	W01
	BYTE	W01
	BYTE	W01
	BYTE	W02
	BYTE	W01
	BYTE	W01
	BYTE	W01
	BYTE	W01
	BYTE	W02
	BYTE	W01
	BYTE	W01
	BYTE	W01
	BYTE	W01
	BYTE	W01
	BYTE	W02
	BYTE	W01
	BYTE	W01
	BYTE	W01
	BYTE	W01
	BYTE	W02
	BYTE	W01
	BYTE	W01
	BYTE	W01
	BYTE	W01
	BYTE	W02
	BYTE	W01
	BYTE	W01
	BYTE	W01
	BYTE	W01
	BYTE	W02
	BYTE	W01
	BYTE	W01
	BYTE	W01
	BYTE	W01
	BYTE	W02
	BYTE	W01
	BYTE	W01
	BYTE	W01
	BYTE	W01
	BYTE	W02
	BYTE	W01
	BYTE	W01
	BYTE	W01
	BYTE	W01
	BYTE	W01
	BYTE	W01
	BYTE	PEND
// 025   ----------------------------------------
	BYTE	PATT
	 POIN2	YUNO_OtherWorld_bpat_11_009
	BYTE		EOT     Cn4 
	BYTE		        Ds4 
// 026   ----------------------------------------
YUNO_OtherWorld_bpat_11_026:
	BYTE		TIE     Dn4   v120
	BYTE		TIE     Fn4 
	BYTE	W02
	BYTE	W03
	BYTE	W02
	BYTE	W03
	BYTE	W02
	BYTE	W02
	BYTE	W03
	BYTE	W02
	BYTE	W03
	BYTE	W02
	BYTE	W02
	BYTE	W03
	BYTE	W02
	BYTE	W03
	BYTE	W02
	BYTE	W02
	BYTE	W03
	BYTE	W02
	BYTE	W02
	BYTE	W03
	BYTE	W02
	BYTE	W03
	BYTE	W02
	BYTE	W02
	BYTE	W03
	BYTE	W02
	BYTE	W03
	BYTE	W02
	BYTE	W02
	BYTE	W03
	BYTE	W02
	BYTE	W03
	BYTE	W02
	BYTE	W02
	BYTE	W03
	BYTE	W02
	BYTE	W03
	BYTE	W02
	BYTE	W02
	BYTE	W03
	BYTE	PEND
// 027   ----------------------------------------
YUNO_OtherWorld_bpat_11_027:
	BYTE	W02
	BYTE	W03
	BYTE	W02
	BYTE	W02
	BYTE	W03
	BYTE	W02
	BYTE	W03
	BYTE	W02
	BYTE	W02
	BYTE	W03
	BYTE	W02
	BYTE	W02
	BYTE	W03
	BYTE	W02
	BYTE	W03
	BYTE	W02
	BYTE	W02
	BYTE	W03
	BYTE	W02
	BYTE	W03
	BYTE	W02
	BYTE	W02
	BYTE	W03
	BYTE	W02
	BYTE	W03
	BYTE	W02
	BYTE	W02
	BYTE	W03
	BYTE	W02
	BYTE	W03
	BYTE	W02
	BYTE	W02
	BYTE	W03
	BYTE	W02
	BYTE	W03
	BYTE	W02
	BYTE	W02
	BYTE	W03
	BYTE	W02
	BYTE	W02
	BYTE	W01
	BYTE	PEND
	BYTE		EOT     Dn4 
	BYTE		        Fn4 
	BYTE		        Gn4 
// 028   ----------------------------------------
YUNO_OtherWorld_bpat_11_028:
	BYTE		TIE     As3   v120
	BYTE		TIE     Ds4 
	BYTE		TIE     Gn4 
	BYTE	W01
	BYTE	W01
	BYTE	W01
	BYTE	W01
	BYTE	W01
	BYTE	W01
	BYTE	W01
	BYTE	W01
	BYTE	W01
	BYTE	W01
	BYTE	W01
	BYTE	W01
	BYTE	W01
	BYTE	W01
	BYTE	W01
	BYTE	W01
	BYTE	W01
	BYTE	W01
	BYTE	W01
	BYTE	W01
	BYTE	W01
	BYTE	W01
	BYTE	W01
	BYTE	W01
	BYTE	W01
	BYTE	W01
	BYTE	W01
	BYTE	W01
	BYTE	W01
	BYTE	W01
	BYTE	W01
	BYTE	W01
	BYTE	W01
	BYTE	W01
	BYTE	W01
	BYTE	W01
	BYTE	W01
	BYTE	W01
	BYTE	W01
	BYTE	W01
	BYTE	W01
	BYTE	W01
	BYTE	W01
	BYTE	W01
	BYTE	W01
	BYTE	W01
	BYTE	W01
	BYTE	W01
	BYTE	W01
	BYTE	W01
	BYTE	W01
	BYTE	W01
	BYTE	W01
	BYTE	W01
	BYTE	W01
	BYTE	W01
	BYTE	W01
	BYTE	W01
	BYTE	W01
	BYTE	W01
	BYTE	W01
	BYTE	W01
	BYTE	W01
	BYTE	W01
	BYTE	W01
	BYTE	W01
	BYTE	W01
	BYTE	W01
	BYTE	W01
	BYTE	W01
	BYTE	W01
	BYTE	W01
	BYTE	W01
	BYTE	W01
	BYTE	W01
	BYTE	W01
	BYTE	W01
	BYTE	W01
	BYTE	W01
	BYTE	W01
	BYTE	W01
	BYTE	W01
	BYTE	W01
	BYTE	W01
	BYTE	W01
	BYTE	W01
	BYTE	W01
	BYTE	W01
	BYTE	W01
	BYTE	W01
	BYTE	W01
	BYTE	W01
	BYTE	W01
	BYTE	W01
	BYTE	W01
	BYTE	W01
	BYTE	PEND
// 029   ----------------------------------------
YUNO_OtherWorld_bpat_11_029:
	BYTE	W02
	BYTE	W02
	BYTE	W02
	BYTE	W02
	BYTE	W02
	BYTE	W01
	BYTE	W02
	BYTE	W02
	BYTE	W02
	BYTE	W02
	BYTE	W02
	BYTE	W02
	BYTE	W02
	BYTE	W02
	BYTE	W02
	BYTE	W02
	BYTE	W01
	BYTE	W02
	BYTE	W02
	BYTE	W02
	BYTE	W02
	BYTE	W02
	BYTE	W02
	BYTE	W02
	BYTE	W02
	BYTE	W02
	BYTE	W02
	BYTE	W01
	BYTE	W02
	BYTE	W02
	BYTE	W02
	BYTE	W02
	BYTE	W02
	BYTE	W02
	BYTE	W02
	BYTE	W02
	BYTE	W02
	BYTE	W02
	BYTE	W01
	BYTE	W02
	BYTE	W02
	BYTE	W02
	BYTE	W02
	BYTE	W02
	BYTE	W02
	BYTE	W02
	BYTE	W02
	BYTE	W02
	BYTE	W02
	BYTE	W01
	BYTE	W01
	BYTE	PEND
// 030   ----------------------------------------
	BYTE	W96
// 031   ----------------------------------------
YUNO_OtherWorld_bpat_11_031:
	BYTE	W01
	BYTE	W02
	BYTE	W01
	BYTE	W02
	BYTE	W01
	BYTE	W02
	BYTE	W01
	BYTE	W02
	BYTE	W01
	BYTE	W02
	BYTE	W01
	BYTE	W02
	BYTE	W01
	BYTE	W02
	BYTE	W01
	BYTE	W02
	BYTE	W01
	BYTE	W01
	BYTE	W02
	BYTE	W01
	BYTE	W02
	BYTE	W01
	BYTE	W02
	BYTE	W01
	BYTE	W02
	BYTE	W01
	BYTE	W02
	BYTE	W01
	BYTE	W02
	BYTE	W01
	BYTE	W02
	BYTE	W01
	BYTE	W01
	BYTE	W02
	BYTE	W01
	BYTE	W02
	BYTE	W01
	BYTE	W02
	BYTE	W01
	BYTE	W02
	BYTE	W01
	BYTE	W02
	BYTE	W01
	BYTE	W02
	BYTE	W01
	BYTE	W02
	BYTE	W01
	BYTE	W02
	BYTE	W01
	BYTE	W01
	BYTE	W02
	BYTE	W01
	BYTE	W02
	BYTE	W01
	BYTE	W02
	BYTE	W01
	BYTE	W02
	BYTE	W01
	BYTE	W02
	BYTE	W01
	BYTE	W02
	BYTE	W01
	BYTE	W02
	BYTE	W01
	BYTE	W01
	BYTE	W01
	BYTE	PEND
	BYTE		EOT     As3 
	BYTE		        Ds4 
	BYTE		        Gn4 
// 032   ----------------------------------------
YUNO_OtherWorld_bpat_11_032:
	BYTE		TIE     Cn4   v120
	BYTE		TIE     Ds4 
	BYTE		TIE     Gn4 
	BYTE	W01
	BYTE	W01
	BYTE	W01
	BYTE	W01
	BYTE	W01
	BYTE	W01
	BYTE	W01
	BYTE	W01
	BYTE	W01
	BYTE	W01
	BYTE	W01
	BYTE	W01
	BYTE	W01
	BYTE	W01
	BYTE	W01
	BYTE	W01
	BYTE	W01
	BYTE	W01
	BYTE	W01
	BYTE	W01
	BYTE	W01
	BYTE	W01
	BYTE	W01
	BYTE	W01
	BYTE	W01
	BYTE	W01
	BYTE	W01
	BYTE	W01
	BYTE	W01
	BYTE	W01
	BYTE	W01
	BYTE	W01
	BYTE	W01
	BYTE	W01
	BYTE	W01
	BYTE	W01
	BYTE	W01
	BYTE	W01
	BYTE	W01
	BYTE	W01
	BYTE	W01
	BYTE	W01
	BYTE	W01
	BYTE	W01
	BYTE	W01
	BYTE	W01
	BYTE	W01
	BYTE	W01
	BYTE	W01
	BYTE	W01
	BYTE	W01
	BYTE	W01
	BYTE	W01
	BYTE	W01
	BYTE	W01
	BYTE	W01
	BYTE	W01
	BYTE	W01
	BYTE	W01
	BYTE	W01
	BYTE	W01
	BYTE	W01
	BYTE	W01
	BYTE	W01
	BYTE	W01
	BYTE	W01
	BYTE	W01
	BYTE	W01
	BYTE	W01
	BYTE	W01
	BYTE	W01
	BYTE	W01
	BYTE	W01
	BYTE	W01
	BYTE	W01
	BYTE	W01
	BYTE	W01
	BYTE	W01
	BYTE	W01
	BYTE	W01
	BYTE	W01
	BYTE	W01
	BYTE	W01
	BYTE	W01
	BYTE	W01
	BYTE	W01
	BYTE	W01
	BYTE	W01
	BYTE	W01
	BYTE	W01
	BYTE	W01
	BYTE	W01
	BYTE	W01
	BYTE	W01
	BYTE	W01
	BYTE	W01
	BYTE	PEND
// 033   ----------------------------------------
YUNO_OtherWorld_bpat_11_033:
	BYTE	W02
	BYTE	W01
	BYTE	W02
	BYTE	W02
	BYTE	W02
	BYTE	W01
	BYTE	W02
	BYTE	W02
	BYTE	W02
	BYTE	W01
	BYTE	W02
	BYTE	W02
	BYTE	W02
	BYTE	W01
	BYTE	W02
	BYTE	W02
	BYTE	W02
	BYTE	W01
	BYTE	W02
	BYTE	W02
	BYTE	W01
	BYTE	W02
	BYTE	W02
	BYTE	W02
	BYTE	W01
	BYTE	W02
	BYTE	W02
	BYTE	W02
	BYTE	W01
	BYTE	W02
	BYTE	W02
	BYTE	W02
	BYTE	W01
	BYTE	W02
	BYTE	W02
	BYTE	W02
	BYTE	W01
	BYTE	W02
	BYTE	W02
	BYTE	W01
	BYTE	W02
	BYTE	W02
	BYTE	W02
	BYTE	W01
	BYTE	W02
	BYTE	W02
	BYTE	W02
	BYTE	W01
	BYTE	W02
	BYTE	W02
	BYTE	W02
	BYTE	W01
	BYTE	W02
	BYTE	W02
	BYTE	W01
	BYTE	W01
	BYTE	PEND
	BYTE		EOT     Cn4 
	BYTE		        Ds4 
// 034   ----------------------------------------
YUNO_OtherWorld_bpat_11_034:
	BYTE		TIE     Dn4   v120
	BYTE		TIE     Fn4 
	BYTE	W03
	BYTE	W03
	BYTE	W03
	BYTE	W03
	BYTE	W03
	BYTE	W03
	BYTE	W03
	BYTE	W03
	BYTE	W03
	BYTE	W02
	BYTE	W03
	BYTE	W03
	BYTE	W03
	BYTE	W03
	BYTE	W03
	BYTE	W03
	BYTE	W03
	BYTE	W03
	BYTE	W03
	BYTE	W03
	BYTE	W03
	BYTE	W03
	BYTE	W03
	BYTE	W03
	BYTE	W03
	BYTE	W03
	BYTE	W03
	BYTE	W02
	BYTE	W03
	BYTE	W03
	BYTE	W03
	BYTE	W03
	BYTE	W02
	BYTE	PEND
// 035   ----------------------------------------
YUNO_OtherWorld_bpat_11_035:
	BYTE	W01
	BYTE	W03
	BYTE	W03
	BYTE	W03
	BYTE	W03
	BYTE	W03
	BYTE	W03
	BYTE	W03
	BYTE	W03
	BYTE	W03
	BYTE	W03
	BYTE	W03
	BYTE	W03
	BYTE	W03
	BYTE	W02
	BYTE	W03
	BYTE	W03
	BYTE	W03
	BYTE	W03
	BYTE	W03
	BYTE	W03
	BYTE	W03
	BYTE	W03
	BYTE	W03
	BYTE	W03
	BYTE	W03
	BYTE	W03
	BYTE	W03
	BYTE	W03
	BYTE	W03
	BYTE	W03
	BYTE	W03
	BYTE	W02
	BYTE	W01
	BYTE	PEND
	BYTE		EOT     Dn4 
	BYTE		        Fn4 
// 036   ----------------------------------------
YUNO_OtherWorld_bpat_11_036:
	BYTE		TIE     As3   v120
	BYTE		TIE     Ds4 
	BYTE	W01
	BYTE	W01
	BYTE	W01
	BYTE	W01
	BYTE	W01
	BYTE	W01
	BYTE	W01
	BYTE	W01
	BYTE	W01
	BYTE	W01
	BYTE	W01
	BYTE	W01
	BYTE	W01
	BYTE	W01
	BYTE	W01
	BYTE	W01
	BYTE	W01
	BYTE	W01
	BYTE	W01
	BYTE	W01
	BYTE	W01
	BYTE	W01
	BYTE	W01
	BYTE	W01
	BYTE	W01
	BYTE	W01
	BYTE	W01
	BYTE	W01
	BYTE	W01
	BYTE	W01
	BYTE	W01
	BYTE	W01
	BYTE	W01
	BYTE	W01
	BYTE	W01
	BYTE	W01
	BYTE	W01
	BYTE	W01
	BYTE	W01
	BYTE	W01
	BYTE	W01
	BYTE	W01
	BYTE	W01
	BYTE	W01
	BYTE	W01
	BYTE	W01
	BYTE	W01
	BYTE	W01
	BYTE	W01
	BYTE	W01
	BYTE	W01
	BYTE	W01
	BYTE	W01
	BYTE	W01
	BYTE	W01
	BYTE	W01
	BYTE	W01
	BYTE	W01
	BYTE	W01
	BYTE	W01
	BYTE	W01
	BYTE	W01
	BYTE	W01
	BYTE	W01
	BYTE	W01
	BYTE	W01
	BYTE	W01
	BYTE	W01
	BYTE	W01
	BYTE	W01
	BYTE	W01
	BYTE	W01
	BYTE	W01
	BYTE	W01
	BYTE	W01
	BYTE	W01
	BYTE	W01
	BYTE	W01
	BYTE	W01
	BYTE	W01
	BYTE	W01
	BYTE	W01
	BYTE	W01
	BYTE	W01
	BYTE	W01
	BYTE	W01
	BYTE	W01
	BYTE	W01
	BYTE	W01
	BYTE	W01
	BYTE	W01
	BYTE	W01
	BYTE	W01
	BYTE	W01
	BYTE	W01
	BYTE	W01
	BYTE	PEND
// 037   ----------------------------------------
	BYTE	PATT
	 POIN2	YUNO_OtherWorld_bpat_11_033
	BYTE		EOT     Ds4 
	BYTE		        Gn4 
// 038   ----------------------------------------
	BYTE	PATT
	 POIN2	YUNO_OtherWorld_bpat_11_034
	BYTE		EOT     As3 
// 039   ----------------------------------------
	BYTE	PATT
	 POIN2	YUNO_OtherWorld_bpat_11_035
	BYTE		EOT     Dn4 
// 040   ----------------------------------------
YUNO_OtherWorld_bpat_11_040:
	BYTE		TIE     Cs4   v120
	BYTE	W01
	BYTE	W01
	BYTE	W01
	BYTE	W01
	BYTE	W01
	BYTE	W01
	BYTE	W01
	BYTE	W01
	BYTE	W01
	BYTE	W01
	BYTE	W01
	BYTE	W01
	BYTE	W01
	BYTE	W01
	BYTE	W01
	BYTE	W01
	BYTE	W01
	BYTE	W01
	BYTE	W01
	BYTE	W01
	BYTE	W01
	BYTE	W01
	BYTE	W01
	BYTE	W01
	BYTE	W01
	BYTE	W01
	BYTE	W01
	BYTE	W01
	BYTE	W01
	BYTE	W01
	BYTE	W01
	BYTE	W01
	BYTE	W01
	BYTE	W01
	BYTE	W01
	BYTE	W01
	BYTE	W01
	BYTE	W01
	BYTE	W01
	BYTE	W01
	BYTE	W01
	BYTE	W01
	BYTE	W01
	BYTE	W01
	BYTE	W01
	BYTE	W01
	BYTE	W01
	BYTE	W01
	BYTE	W01
	BYTE	W01
	BYTE	W01
	BYTE	W01
	BYTE	W01
	BYTE	W01
	BYTE	W01
	BYTE	W01
	BYTE	W01
	BYTE	W01
	BYTE	W01
	BYTE	W01
	BYTE	W01
	BYTE	W01
	BYTE	W01
	BYTE	W01
	BYTE	W01
	BYTE	W01
	BYTE	W01
	BYTE	W01
	BYTE	W01
	BYTE	W01
	BYTE	W01
	BYTE	W01
	BYTE	W01
	BYTE	W01
	BYTE	W01
	BYTE	W01
	BYTE	W01
	BYTE	W01
	BYTE	W01
	BYTE	W01
	BYTE	W01
	BYTE	W01
	BYTE	W01
	BYTE	W01
	BYTE	W01
	BYTE	W01
	BYTE	W01
	BYTE	W01
	BYTE	W01
	BYTE	W01
	BYTE	W01
	BYTE	W01
	BYTE	W01
	BYTE	W01
	BYTE	W01
	BYTE	W01
	BYTE	PEND
// 041   ----------------------------------------
	BYTE	PATT
	 POIN2	YUNO_OtherWorld_bpat_11_033
	BYTE		EOT     Cs4 
	BYTE		        Fn4 
// 042   ----------------------------------------
YUNO_OtherWorld_bpat_11_042:
	BYTE		TIE     Cn4   v120
	BYTE		TIE     Ds4 
	BYTE	W03
	BYTE	W03
	BYTE	W03
	BYTE	W03
	BYTE	W03
	BYTE	W03
	BYTE	W03
	BYTE	W03
	BYTE	W03
	BYTE	W02
	BYTE	W03
	BYTE	W03
	BYTE	W03
	BYTE	W03
	BYTE	W03
	BYTE	W03
	BYTE	W03
	BYTE	W03
	BYTE	W03
	BYTE	W03
	BYTE	W03
	BYTE	W03
	BYTE	W03
	BYTE	W03
	BYTE	W03
	BYTE	W03
	BYTE	W03
	BYTE	W02
	BYTE	W03
	BYTE	W03
	BYTE	W03
	BYTE	W03
	BYTE	W02
	BYTE	PEND
// 043   ----------------------------------------
	BYTE	PATT
	 POIN2	YUNO_OtherWorld_bpat_11_035
	BYTE		EOT     Cn4 
// 044   ----------------------------------------
YUNO_OtherWorld_bpat_11_044:
	BYTE		TIE     Bn3   v120
	BYTE	W01
	BYTE	W01
	BYTE	W01
	BYTE	W01
	BYTE	W01
	BYTE	W01
	BYTE	W01
	BYTE	W01
	BYTE	W01
	BYTE	W01
	BYTE	W01
	BYTE	W01
	BYTE	W01
	BYTE	W01
	BYTE	W01
	BYTE	W01
	BYTE	W01
	BYTE	W01
	BYTE	W01
	BYTE	W01
	BYTE	W01
	BYTE	W01
	BYTE	W01
	BYTE	W01
	BYTE	W01
	BYTE	W01
	BYTE	W01
	BYTE	W01
	BYTE	W01
	BYTE	W01
	BYTE	W01
	BYTE	W01
	BYTE	W01
	BYTE	W01
	BYTE	W01
	BYTE	W01
	BYTE	W01
	BYTE	W01
	BYTE	W01
	BYTE	W01
	BYTE	W01
	BYTE	W01
	BYTE	W01
	BYTE	W01
	BYTE	W01
	BYTE	W01
	BYTE	W01
	BYTE	W01
	BYTE	W01
	BYTE	W01
	BYTE	W01
	BYTE	W01
	BYTE	W01
	BYTE	W01
	BYTE	W01
	BYTE	W01
	BYTE	W01
	BYTE	W01
	BYTE	W01
	BYTE	W01
	BYTE	W01
	BYTE	W01
	BYTE	W01
	BYTE	W01
	BYTE	W01
	BYTE	W01
	BYTE	W01
	BYTE	W01
	BYTE	W01
	BYTE	W01
	BYTE	W01
	BYTE	W01
	BYTE	W01
	BYTE	W01
	BYTE	W01
	BYTE	W01
	BYTE	W01
	BYTE	W01
	BYTE	W01
	BYTE	W01
	BYTE	W01
	BYTE	W01
	BYTE	W01
	BYTE	W01
	BYTE	W01
	BYTE	W01
	BYTE	W01
	BYTE	W01
	BYTE	W01
	BYTE	W01
	BYTE	W01
	BYTE	W01
	BYTE	W01
	BYTE	W01
	BYTE	W01
	BYTE	W01
	BYTE	PEND
// 045   ----------------------------------------
	BYTE	PATT
	 POIN2	YUNO_OtherWorld_bpat_11_033
// 046   ----------------------------------------
YUNO_OtherWorld_bpat_11_046:
	BYTE	W03
	BYTE	W03
	BYTE	W03
	BYTE	W03
	BYTE	W03
	BYTE	W03
	BYTE	W03
	BYTE	W03
	BYTE	W03
	BYTE	W02
	BYTE	W03
	BYTE	W03
	BYTE	W03
	BYTE	W03
	BYTE	W03
	BYTE	W03
	BYTE	W03
	BYTE	W03
	BYTE	W03
	BYTE	W03
	BYTE	W03
	BYTE	W03
	BYTE	W03
	BYTE	W03
	BYTE	W03
	BYTE	W03
	BYTE	W03
	BYTE	W02
	BYTE	W03
	BYTE	W03
	BYTE	W03
	BYTE	W03
	BYTE	W02
	BYTE	PEND
// 047   ----------------------------------------
	BYTE	PATT
	 POIN2	YUNO_OtherWorld_bpat_11_035
	BYTE		EOT     Bn3 
	BYTE		        Ds4 
// 048   ----------------------------------------
YUNO_OtherWorld_bpat_11_048:
	BYTE		VOICE   91
	BYTE		MOD     0
	BYTE		VOL     110*YUNO_OtherWorld_bpat_mvl/mxv
	BYTE		PAN     c_v+0
	BYTE		TIE     Cn3   v127
	BYTE	W96
	BYTE	PEND
// 049   ----------------------------------------
	BYTE	W96
// 050   ----------------------------------------
	BYTE	W96
// 051   ----------------------------------------
	BYTE	W92
	BYTE	W03
	BYTE		EOT   
	BYTE	W01
// 052   ----------------------------------------
	BYTE	PATT
	 POIN2	YUNO_OtherWorld_bpat_11_004
// 053   ----------------------------------------
	BYTE	W96
// 054   ----------------------------------------
	BYTE	W96
// 055   ----------------------------------------
	BYTE	W92
	BYTE	W03
	BYTE		EOT     Cn2 
	BYTE	W01
// 056   ----------------------------------------
	BYTE	PATT
	 POIN2	YUNO_OtherWorld_bpat_11_008
// 057   ----------------------------------------
	BYTE	PATT
	 POIN2	YUNO_OtherWorld_bpat_11_009
	BYTE		EOT     Cn3 
	BYTE		        Ds3 
// 058   ----------------------------------------
	BYTE	PATT
	 POIN2	YUNO_OtherWorld_bpat_11_010
// 059   ----------------------------------------
	BYTE	PATT
	 POIN2	YUNO_OtherWorld_bpat_11_011
	BYTE		EOT     Dn3 
	BYTE		        Fn3 
// 060   ----------------------------------------
	BYTE	PATT
	 POIN2	YUNO_OtherWorld_bpat_11_012
// 061   ----------------------------------------
	BYTE	PATT
	 POIN2	YUNO_OtherWorld_bpat_11_009
	BYTE		EOT     Ds3 
	BYTE		        Gn3 
// 062   ----------------------------------------
	BYTE	PATT
	 POIN2	YUNO_OtherWorld_bpat_11_010
// 063   ----------------------------------------
	BYTE	PATT
	 POIN2	YUNO_OtherWorld_bpat_11_011
	BYTE		EOT     Dn3 
// 064   ----------------------------------------
	BYTE	PATT
	 POIN2	YUNO_OtherWorld_bpat_11_016
// 065   ----------------------------------------
	BYTE	PATT
	 POIN2	YUNO_OtherWorld_bpat_11_017
	BYTE		EOT     Cs3 
	BYTE		        Fn3 
// 066   ----------------------------------------
	BYTE	PATT
	 POIN2	YUNO_OtherWorld_bpat_11_018
// 067   ----------------------------------------
	BYTE	PATT
	 POIN2	YUNO_OtherWorld_bpat_11_011
	BYTE		EOT     Cn3 
// 068   ----------------------------------------
	BYTE	PATT
	 POIN2	YUNO_OtherWorld_bpat_11_020
// 069   ----------------------------------------
	BYTE	PATT
	 POIN2	YUNO_OtherWorld_bpat_11_017
// 070   ----------------------------------------
	BYTE	PATT
	 POIN2	YUNO_OtherWorld_bpat_11_022
// 071   ----------------------------------------
	BYTE	PATT
	 POIN2	YUNO_OtherWorld_bpat_11_023
	BYTE		EOT     Bn2 
	BYTE		        Ds3 
// 072   ----------------------------------------
	BYTE	PATT
	 POIN2	YUNO_OtherWorld_bpat_11_024
// 073   ----------------------------------------
	BYTE	PATT
	 POIN2	YUNO_OtherWorld_bpat_11_009
	BYTE		EOT     Cn4 
	BYTE		        Ds4 
// 074   ----------------------------------------
	BYTE	PATT
	 POIN2	YUNO_OtherWorld_bpat_11_026
// 075   ----------------------------------------
	BYTE	PATT
	 POIN2	YUNO_OtherWorld_bpat_11_027
	BYTE		EOT     Dn4 
	BYTE		        Fn4 
	BYTE		        Gn4 
// 076   ----------------------------------------
	BYTE	PATT
	 POIN2	YUNO_OtherWorld_bpat_11_028
// 077   ----------------------------------------
	BYTE	PATT
	 POIN2	YUNO_OtherWorld_bpat_11_029
// 078   ----------------------------------------
	BYTE	W96
// 079   ----------------------------------------
	BYTE	PATT
	 POIN2	YUNO_OtherWorld_bpat_11_031
	BYTE		EOT     As3 
	BYTE		        Ds4 
	BYTE		        Gn4 
// 080   ----------------------------------------
	BYTE	PATT
	 POIN2	YUNO_OtherWorld_bpat_11_032
// 081   ----------------------------------------
	BYTE	PATT
	 POIN2	YUNO_OtherWorld_bpat_11_033
	BYTE		EOT     Cn4 
	BYTE		        Ds4 
// 082   ----------------------------------------
	BYTE	PATT
	 POIN2	YUNO_OtherWorld_bpat_11_034
// 083   ----------------------------------------
	BYTE	PATT
	 POIN2	YUNO_OtherWorld_bpat_11_035
	BYTE		EOT     Dn4 
	BYTE		        Fn4 
// 084   ----------------------------------------
	BYTE	PATT
	 POIN2	YUNO_OtherWorld_bpat_11_036
// 085   ----------------------------------------
	BYTE	PATT
	 POIN2	YUNO_OtherWorld_bpat_11_033
	BYTE		EOT     Ds4 
	BYTE		        Gn4 
// 086   ----------------------------------------
	BYTE	PATT
	 POIN2	YUNO_OtherWorld_bpat_11_034
	BYTE		EOT     As3 
// 087   ----------------------------------------
	BYTE	PATT
	 POIN2	YUNO_OtherWorld_bpat_11_035
	BYTE		EOT     Dn4 
// 088   ----------------------------------------
	BYTE	PATT
	 POIN2	YUNO_OtherWorld_bpat_11_040
// 089   ----------------------------------------
	BYTE	PATT
	 POIN2	YUNO_OtherWorld_bpat_11_033
	BYTE		EOT     Cs4 
	BYTE		        Fn4 
// 090   ----------------------------------------
	BYTE	PATT
	 POIN2	YUNO_OtherWorld_bpat_11_042
// 091   ----------------------------------------
	BYTE	PATT
	 POIN2	YUNO_OtherWorld_bpat_11_035
	BYTE		EOT     Cn4 
// 092   ----------------------------------------
	BYTE	PATT
	 POIN2	YUNO_OtherWorld_bpat_11_044
// 093   ----------------------------------------
	BYTE	PATT
	 POIN2	YUNO_OtherWorld_bpat_11_033
// 094   ----------------------------------------
	BYTE	PATT
	 POIN2	YUNO_OtherWorld_bpat_11_046
// 095   ----------------------------------------
	BYTE	PATT
	 POIN2	YUNO_OtherWorld_bpat_11_035
	BYTE		EOT     Bn3 
	BYTE		        Ds4 
// 096   ----------------------------------------
	BYTE	PATT
	 POIN2	YUNO_OtherWorld_bpat_11_048
// 097   ----------------------------------------
	BYTE	W96
// 098   ----------------------------------------
	BYTE	W96
// 099   ----------------------------------------
	BYTE	W92
	BYTE	W03
	BYTE		EOT     Cn3 
	BYTE	W01
// 100   ----------------------------------------
	BYTE	PATT
	 POIN2	YUNO_OtherWorld_bpat_11_004
// 101   ----------------------------------------
	BYTE	W96
// 102   ----------------------------------------
	BYTE	W96
// 103   ----------------------------------------
	BYTE	W92
	BYTE	W03
	BYTE		EOT     Cn2 
	BYTE	W01
// 104   ----------------------------------------
	BYTE		VOICE   49
	BYTE		MOD     24
	BYTE		PAN     c_v-8
	BYTE		TIE     Cn3   v120
	BYTE	W01
	BYTE	W01
	BYTE	W02
	BYTE	W01
	BYTE	W01
	BYTE	W01
	BYTE	W01
	BYTE	W02
	BYTE	W01
	BYTE	W01
	BYTE	W01
	BYTE	W01
	BYTE	W02
	BYTE	W01
	BYTE	W01
	BYTE	W01
	BYTE	W01
	BYTE	W01
	BYTE	W02
	BYTE	W01
	BYTE	W01
	BYTE	W01
	BYTE	W01
	BYTE	W02
	BYTE	W01
	BYTE	W01
	BYTE	W01
	BYTE	W01
	BYTE	W02
	BYTE	W01
	BYTE	W01
	BYTE	W01
	BYTE	W01
	BYTE	W02
	BYTE	W01
	BYTE	W01
	BYTE	W01
	BYTE	W01
	BYTE	W02
	BYTE	W01
	BYTE	W01
	BYTE	W01
	BYTE	W01
	BYTE	W02
	BYTE	W01
	BYTE	W01
	BYTE	W01
	BYTE	W01
	BYTE	W01
	BYTE	W02
	BYTE	W01
	BYTE	W01
	BYTE	W01
	BYTE	W01
	BYTE	W02
	BYTE	W01
	BYTE	W01
	BYTE	W01
	BYTE	W01
	BYTE	W02
	BYTE	W01
	BYTE	W01
	BYTE	W01
	BYTE	W01
	BYTE	W02
	BYTE	W01
	BYTE	W01
	BYTE	W01
	BYTE	W01
	BYTE	W02
	BYTE	W01
	BYTE	W01
	BYTE	W01
	BYTE	W01
	BYTE	W02
	BYTE	W01
	BYTE	W01
	BYTE	W01
	BYTE	W01
	BYTE	W01
	BYTE	W01
// 105   ----------------------------------------
	BYTE	PATT
	 POIN2	YUNO_OtherWorld_bpat_11_009
	BYTE		EOT     Cn3 
	BYTE		        Ds3 
// 106   ----------------------------------------
	BYTE	PATT
	 POIN2	YUNO_OtherWorld_bpat_11_010
// 107   ----------------------------------------
	BYTE	PATT
	 POIN2	YUNO_OtherWorld_bpat_11_011
	BYTE		EOT     Dn3 
	BYTE		        Fn3 
// 108   ----------------------------------------
	BYTE	W01
	BYTE	W01
	BYTE	W02
	BYTE	W01
	BYTE	W01
	BYTE	W01
	BYTE	W01
	BYTE	W02
	BYTE	W01
	BYTE	W01
	BYTE	W01
	BYTE	W01
	BYTE	W02
	BYTE	W01
	BYTE	W01
	BYTE	W01
	BYTE	W01
	BYTE	W01
	BYTE	W02
	BYTE	W01
	BYTE	W01
	BYTE	W01
	BYTE	W01
	BYTE	W02
	BYTE	W01
	BYTE	W01
	BYTE	W01
	BYTE	W01
	BYTE	W02
	BYTE	W01
	BYTE	W01
	BYTE	W01
	BYTE	W01
	BYTE	W02
	BYTE	W01
	BYTE	W01
	BYTE	W01
	BYTE	W01
	BYTE	W02
	BYTE	W01
	BYTE	W01
	BYTE	W01
	BYTE	W01
	BYTE	W02
	BYTE	W01
	BYTE	W01
	BYTE	W01
	BYTE	W01
	BYTE	W01
	BYTE	W02
	BYTE	W01
	BYTE	W01
	BYTE	W01
	BYTE	W01
	BYTE	W02
	BYTE	W01
	BYTE	W01
	BYTE	W01
	BYTE	W01
	BYTE	W02
	BYTE	W01
	BYTE	W01
	BYTE	W01
	BYTE	W01
	BYTE	W02
	BYTE	W01
	BYTE	W01
	BYTE	W01
	BYTE	W01
	BYTE	W02
	BYTE	W01
	BYTE	W01
	BYTE	W01
	BYTE	W01
	BYTE	W02
	BYTE	W01
	BYTE	W01
	BYTE	W01
	BYTE	W01
	BYTE	W01
	BYTE	W01
// 109   ----------------------------------------
	BYTE	W23
	BYTE	GoTo
	 POIN2	YUNO_OtherWorld_bpat_11_B1
YUNO_OtherWorld_bpat_11_B2:
	BYTE	FINE

//******************************************************//
	ALIGN 4

YUNO_OtherWorld_bpat:
	BYTE	11	// NumTrks
	BYTE	0	// NumBlks
	BYTE	YUNO_OtherWorld_bpat_pri	// Priority
	BYTE	YUNO_OtherWorld_bpat_rev	// Reverb.

	POIN2	YUNO_OtherWorld_bpat_grp

	POIN2	YUNO_OtherWorld_bpat_1
	POIN2	YUNO_OtherWorld_bpat_2
	POIN2	YUNO_OtherWorld_bpat_3
	POIN2	YUNO_OtherWorld_bpat_4
	POIN2	YUNO_OtherWorld_bpat_5
	POIN2	YUNO_OtherWorld_bpat_6
	POIN2	YUNO_OtherWorld_bpat_7
	POIN2	YUNO_OtherWorld_bpat_8
	POIN2	YUNO_OtherWorld_bpat_9
	POIN2	YUNO_OtherWorld_bpat_10
	POIN2	YUNO_OtherWorld_bpat_11

	
